<svg width="239" height="239" viewBox="0 0 239 239" fill="none" xmlns="http://www.w3.org/2000/svg">
<path d="M68.5081 146.659C68.16 145.634 67.8169 144.61 67.4688 143.586C68.3639 143.541 68.2744 143.069 68.0357 142.422C67.3296 140.523 66.7876 138.554 66.1113 136.659C63.456 129.23 62.9488 121.587 63.7295 113.87C64.7041 104.248 67.8766 95.3725 73.3562 87.3121C75.7381 83.8065 78.816 82.2899 82.9432 83.3291C82.9233 83.7369 82.8984 84.1446 82.8785 84.5524C79.8304 84.075 77.2248 84.612 75.3055 87.3618C68.8661 96.5908 65.3406 106.799 65.0224 118.047C64.6991 129.484 67.802 139.981 73.8883 149.662C76.1607 153.277 78.9354 155.45 83.4255 154.371C83.5946 155.037 82.1227 154.794 82.6946 155.445C83.157 155.977 84.0222 156.773 84.6985 155.475C83.7437 160.124 85.8521 163.043 89.7455 165.385C94.6583 168.339 99.6955 170.875 105.275 172.272C122.012 176.459 137.516 173.769 151.673 163.839C155.517 161.143 155.76 157.051 152.448 153.705C146.298 147.499 140.132 141.303 134.001 135.078C132.976 134.034 132.171 133.85 130.828 134.75C123.295 139.792 115.707 139.841 108.238 134.576C107.114 133.78 106.503 133.914 105.583 134.854C101.371 139.15 97.1098 143.397 92.8086 147.603C90.4069 149.955 88.2836 152.601 85.4841 154.53C84.9968 154.49 84.5543 154.371 84.3206 153.879C84.609 153.486 84.8476 153.043 85.1907 152.705C91.4859 146.42 97.7562 140.11 104.136 133.909C105.29 132.79 105.324 132.154 104.449 130.851C99.4667 123.432 99.3474 115.929 104.404 108.46C105.046 107.515 105.543 106.725 104.454 105.675C101.908 103.219 99.4618 100.663 96.9805 98.1471C92.8136 93.9305 88.3085 90.042 84.6338 85.348C84.8775 85.0795 85.1261 84.8109 85.3697 84.5424C87.5726 86.601 89.8201 88.6199 91.9732 90.7332C96.4932 95.1736 100.978 99.6488 105.444 104.144C106.528 105.238 107.378 105.183 108.641 104.293C115.299 99.609 123.464 99.4947 130.197 104.059C132.012 105.288 133.056 105.104 134.562 103.542C140.574 97.3267 146.745 91.2702 152.846 85.1391C155.611 82.3645 155.228 78.0533 152.046 75.6417C135.055 62.763 111.256 61.5 92.5053 72.0715C88.1742 74.5129 82.973 76.8152 84.7184 83.5728C84.236 83.2794 84.1167 82.4888 83.3609 82.5783C82.3664 79.8534 82.978 76.7456 86.4239 74.1848C105.314 60.1325 132.872 59.9088 152.046 73.7273C154.87 75.761 156.71 78.1677 156.158 81.7976C155.989 82.9264 156.317 83.1054 157.302 82.9512C160.817 82.3993 163.323 84.0551 165.228 86.785C173.432 98.54 176.893 111.434 175.292 125.819C174.357 134.218 171.692 141.87 167.495 149.06C165.084 153.193 162.379 157.19 156.501 156.047C156.188 155.987 155.705 155.922 155.875 156.673C156.367 158.866 156.198 160.984 154.905 162.934C154.607 163.381 154.82 163.893 155.323 164.197C155.188 164.455 155.059 164.714 154.925 164.972C151.474 167.459 147.978 169.88 144.055 171.581C140.107 173.286 136.268 175.325 131.887 175.777C131.917 175.459 131.942 175.146 131.972 174.828C132.34 174.793 132.708 174.753 133.076 174.718C133.021 174.619 132.986 174.445 132.917 174.435C132.519 174.36 132.166 174.425 132.002 174.868C130.585 174.614 129.212 174.952 127.889 175.335C126.681 175.688 127.939 175.847 128.039 176.106C127.342 176.573 126.552 176.409 125.791 176.439C124.811 175.26 123.474 175.802 122.32 175.832C109.949 176.15 98.6065 172.943 88.1991 166.23C84.8874 164.097 82.3664 161.715 82.9332 157.379C83.0575 156.42 82.6747 155.992 81.6802 156.121C79.4923 156.415 77.5033 155.649 75.4944 154.953C75.4646 154.336 75.3104 153.958 74.669 154.53C72.8789 154.033 72.864 151.89 71.4369 151.054C71.412 150.666 71.3225 150.318 70.9297 150.129C70.865 149.95 70.7954 149.776 70.7308 149.597C70.6661 149.155 70.328 149.09 69.975 149.04L69.9849 149.05C69.8158 148.056 69.8258 146.947 68.5031 146.664L68.5081 146.659ZM107.686 107.361C105.364 109.017 104.151 111.409 103.216 114.009C100.755 120.891 103.41 129.588 109.198 133.506C116.398 138.379 125.249 137.982 131.171 132.512C139.555 124.77 138.715 111.995 129.386 105.208C123.041 100.594 112.415 101.663 107.661 107.391L107.691 107.361H107.686ZM174.308 117.281C174.506 112.98 173.005 106.133 170.489 99.5444C168.694 94.8554 166.411 90.3155 163 86.5314C160.608 83.8811 156.904 83.6225 154.602 85.8949C147.963 92.4387 141.405 99.0621 134.786 105.621C133.916 106.481 133.896 107.093 134.612 108.127C139.784 115.596 139.878 123.194 134.771 130.717C133.792 132.164 134.02 132.989 135.134 134.073C141.265 140.055 147.352 146.082 153.463 152.079C157.307 155.853 161.135 155.569 164.223 151.149C170.732 141.835 174.099 131.488 174.308 117.271V117.281Z" fill="#E9A060"/>
<path d="M107.656 107.397C108.835 107.616 109.417 106.641 110.182 106.084C118.258 100.212 130.689 103.474 134.463 112.683C137.292 119.589 135.88 128.326 129.058 133.139C124.374 136.446 114.911 137.311 108.969 132.21C102.669 126.805 101.262 117.392 105.936 110.485C106.592 109.515 107.88 108.834 107.691 107.367L107.661 107.397H107.656ZM134.403 119.495C134.925 111.773 127.775 104.652 120.013 104.538C111.495 104.413 104.573 111.37 104.638 119.664C104.708 128.018 111.545 134.716 119.889 134.601C127.845 134.497 134.468 127.6 134.398 119.49L134.403 119.495Z" fill="#E9A060"/>
<path d="M117.462 1.93732C120.415 20.3703 118.068 38.9276 118.765 57.4103C118.894 60.8662 118.506 60.9159 115.184 61.1446C107.393 61.6866 99.8891 63.4121 93.0271 67.2906C91.3513 68.2403 90.5408 68.0514 89.5513 66.316C83.0821 54.9489 76.4886 43.6514 69.9448 32.3241C67.9708 28.908 66.116 25.4174 64.0574 22.051C61.9491 18.61 62.7795 13.9508 66.7177 11.932C74.0024 8.20761 81.7197 5.61695 89.606 3.50365C96.1299 1.75831 102.808 0.947796 109.481 0.0626948C112.156 -0.290351 114.439 0.942824 116.91 1.39035L116.9 1.41024C116.91 1.75831 117.084 1.93235 117.432 1.93732L117.462 1.92737V1.93732Z" fill="#D72A26"/>
<path d="M225.387 64.136C225.546 64.2951 225.71 64.4542 225.869 64.6183C227.704 69.004 229.718 73.3251 231.334 77.7854C234.959 87.7851 237.763 97.9986 238.41 108.694C238.484 109.923 238.887 111.161 238.773 112.359C238.435 115.919 235.337 118.614 231.677 118.619C214.572 118.639 197.471 118.644 180.366 118.634C177.711 118.634 177.571 118.197 177.636 115.631C177.691 113.528 177.218 111.399 176.885 109.301C175.96 103.473 174.175 97.919 171.266 92.7775C170.312 91.0918 170.824 90.4056 172.345 89.5404C182.211 83.9066 192.012 78.1534 201.857 72.4898C206.705 69.7002 211.658 67.0797 216.471 64.2354C219.057 62.7039 221.533 62.5448 224.178 63.8774C224.532 64.0564 224.979 64.0515 225.382 64.136H225.387Z" fill="#F1D502"/>
<path d="M0.0495054 108.669C0.0693953 108.336 0.0892847 108.003 0.109175 107.674C-0.104642 106.531 1.21307 105.427 0.208625 104.258C2.09319 97.5455 2.8689 90.5741 5.10652 83.9358C7.13529 77.9241 9.25854 71.9571 12.2221 66.3333C13.9426 63.0614 18.3085 61.9326 21.6152 63.842C31.8933 69.7792 42.1515 75.7511 52.4346 81.6833C57.6308 84.6817 62.9564 87.4663 67.9388 90.8327C65.8901 95.8399 63.4337 100.698 62.1806 105.999C61.3502 109.509 60.9872 113.104 60.8331 116.699C60.7635 118.261 60.1718 118.743 58.7994 118.718C58.2772 118.718 57.7551 118.718 57.233 118.718C50.6495 118.718 44.0659 118.718 37.4823 118.718C33.9817 118.718 30.4811 118.718 26.9755 118.718C26.1749 118.718 25.3793 118.718 24.5787 118.718C20.2278 118.693 15.8719 118.698 11.521 118.634C8.74637 118.589 5.93195 119.017 3.23687 117.962C0.571616 115.417 -0.219009 112.229 0.0495054 108.679V108.669Z" fill="#AC2577"/>
<path d="M222.956 176.208C222.647 176.402 222.463 176.859 221.971 176.67C221.285 174.711 219.41 175.855 218.137 175.263C210.803 171.872 204.199 167.237 197.193 163.294C189.312 158.859 181.5 154.314 173.653 149.824C170.377 147.944 170.058 147.576 172.072 144.344C175.22 139.292 175.876 133.544 177.268 127.99C177.731 126.14 177.885 124.25 177.786 122.346C177.706 120.834 178.223 120.059 179.894 120.064C197.412 120.098 214.93 120.059 232.448 120.113C235.66 120.123 238.276 123.077 238.405 126.344C238.684 133.589 236.938 140.545 235.427 147.536C233.766 155.199 230.981 162.484 227.903 169.664C226.919 171.956 225.606 174.025 223.358 175.343C223.135 175.477 223.085 175.909 222.956 176.203V176.208Z" fill="#BFD61A"/>
<path d="M190.716 22.8659C190.761 23.925 191.562 24.3477 192.288 24.9195C200.607 31.4534 208.12 38.7878 214.554 47.2012C215.405 48.3101 216.325 49.3742 217.11 50.5278C221.133 56.4301 220.268 60.1396 214.122 63.685C206.29 68.205 198.478 72.7548 190.662 77.2897C184.839 80.671 179.026 84.0721 173.188 87.4236C170.046 89.2286 169.797 89.1441 167.624 86.3595C165.854 84.092 164.143 81.7699 162.289 79.572C159.067 75.7631 155.019 72.9089 150.922 70.1392C149.858 69.4232 149.325 68.911 150.206 67.4243C154.641 59.9208 158.937 52.3278 163.204 44.7249C167.425 37.2015 172.109 29.9417 175.983 22.2145C177.639 18.9078 182.999 17.9481 186.137 20.2156C187.564 21.2498 188.693 22.8808 190.736 22.8709L190.721 22.8559L190.716 22.8659Z" fill="#E5B62D"/>
<path d="M218.653 178.149C220.642 182.206 219.265 185.602 216.6 188.77C215.71 189.829 214.735 190.858 214.472 192.305C211.264 195.811 208.117 199.376 204.835 202.812C198.689 209.242 191.936 214.955 184.413 219.723C182.797 220.748 179.391 219.927 177.466 218.162C176.865 217.61 176.363 216.949 175.816 216.342C175.721 215.865 175.741 215.328 175.512 214.925C172.678 209.928 169.834 204.94 166.945 199.978C161.495 190.615 156.025 181.266 150.53 171.928C149.427 170.053 150.003 168.93 151.813 167.99C153.176 167.284 154.583 166.528 155.244 164.977C159.526 162.734 162.37 158.975 165.309 155.33C166.492 153.863 167.492 152.252 168.62 150.74C169.272 149.87 169.774 149.258 171.186 150.079C186.467 158.99 201.817 167.786 217.142 176.617C217.778 176.985 218.44 177.353 218.663 178.149H218.653Z" fill="#33AA37"/>
<path d="M18.9551 56.4413C19.0048 52.9258 21.6253 50.7379 23.321 48.0876C26.9857 42.3642 31.9582 37.7498 36.6969 33.0011C41.6247 28.0634 47.1491 23.7224 53.0315 19.9135C55.4979 18.3173 59.819 18.8494 61.7781 21.7185C66.144 28.1131 69.5899 35.0348 73.5878 41.6432C77.884 48.7439 81.8669 56.0336 86.0588 63.2039C86.8842 64.6161 87.3367 66.2222 88.4853 67.4753C89.2561 68.3106 89.1516 69.1013 88.0676 69.9118C85.4372 71.8858 82.7421 73.7605 80.2608 75.9682C76.4867 79.3197 73.2297 83.0441 70.5247 87.2657C69.6048 88.7028 68.7844 89.1602 67.1633 88.2055C61.0024 84.5806 54.7769 81.07 48.5812 77.5047C40.4014 72.7958 32.2267 68.0769 24.0469 63.373C21.3369 61.8116 18.7662 60.1657 18.9551 56.4413Z" fill="#DB305F"/>
<path d="M123.297 1.31059C126.366 -0.404118 129.571 0.771351 132.714 0.914631C139.503 1.22671 145.986 3.22577 152.468 4.95531C159.208 6.75401 165.729 9.36781 171.969 12.5577C174.585 13.8955 176.284 17.9037 174.779 21.035C171.424 28.0132 167.153 34.4583 163.429 41.2248C159.428 48.4958 155.106 55.5899 150.992 62.8053C150.182 64.2262 149.017 65.4212 148.506 67.0425C148.168 68.1276 147.431 68.4325 146.187 67.899C143.163 66.608 140.192 65.2113 137.039 64.1663C132.249 62.5736 127.396 61.6152 122.387 61.3833C120.683 61.3052 119.876 60.8234 119.892 58.9422C119.951 51.7942 119.879 44.6475 119.869 37.4992C119.857 28.0609 119.856 18.6219 119.84 9.18605C119.837 6.05844 119.977 3.00914 123.297 1.31059Z" fill="#DB305F"/>
<path d="M60.1887 119.89C61.4766 121.899 60.8401 124.226 61.1285 126.379C62.0285 133.157 63.9231 139.586 66.9861 145.658C67.8762 147.418 67.543 148.258 65.912 149.163C60.7257 152.037 55.5991 155.011 50.4675 157.979C41.4872 163.171 32.5218 168.382 23.5565 173.598C20.4586 175.398 17.3757 176.835 13.9795 174.224C13.1093 173.553 12.3932 172.817 11.9109 171.823C6.44616 160.54 2.67702 148.745 1.16539 136.264C0.82726 133.49 0.523939 130.71 0.200728 127.931C-0.187126 124.549 1.28473 122.227 4.25827 120.73C4.67596 120.517 5.00414 120.119 5.37211 119.811C23.646 119.84 41.9248 119.87 60.1987 119.9L60.1887 119.89Z" fill="#612E7B"/>
<path d="M130.227 176.611C135.701 176.268 140.554 173.996 145.393 171.704C148.137 170.401 148.147 170.525 149.624 173.19C153.741 180.594 157.998 187.919 162.229 195.253C166.217 202.165 170.24 209.052 174.238 215.954C174.492 216.386 174.705 216.824 175.218 217.008C176.152 220.026 176.207 222.905 173.9 225.416C173.527 225.551 173.323 225.814 173.283 226.212L173.258 226.202C167.953 228.45 162.697 230.826 157.232 232.686C147.904 235.859 138.302 237.803 128.501 238.648C123.126 239.111 120.202 236.167 120.192 230.777C120.167 214.099 120.192 197.426 120.108 180.749C120.098 179.028 120.545 177.994 122.186 177.526C124.891 177.457 127.586 177.283 130.222 176.616L130.227 176.611Z" fill="#047337"/>
<path d="M118.267 177.672C118.336 178.656 118.466 179.646 118.466 180.63C118.47 197.238 118.466 213.851 118.456 230.459C118.451 236.362 115.8 239.126 109.987 238.624C97.8397 237.575 86.0499 234.85 74.7475 230.191C72.2314 229.152 69.6954 228.132 67.2589 226.924C62.545 224.582 61.6301 220.992 64.1511 216.531C71.1772 204.11 78.3923 191.803 85.5427 179.452C86.9848 176.955 88.5213 174.509 89.8787 171.968C90.5649 170.685 91.2263 170.675 92.4147 171.267C95.796 172.948 99.0977 174.872 102.961 175.315C103.285 175.404 103.608 175.489 103.931 175.578C104.801 176.314 105.83 176.488 106.924 176.409C107.402 176.473 107.884 176.538 108.361 176.602C108.531 176.622 108.7 176.642 108.869 176.667C111.927 177.691 115.124 177.408 118.262 177.681L118.267 177.672Z" fill="#035A9E"/>
<path d="M83.1351 164.551C83.3838 166.436 85.144 166.834 86.3623 167.679C89.1767 169.628 89.2563 169.579 87.5855 172.463C79.1969 186.967 70.8034 201.467 62.38 215.947C60.038 219.975 55.9904 220.88 52.0174 218.224C47.0101 214.878 42.3011 211.099 37.9154 206.996C31.481 200.975 25.8323 194.222 20.7455 187.017C17.5979 182.562 18.3935 178.564 23.1671 175.789C36.2198 168.201 49.3173 160.693 62.39 153.149C63.9613 152.244 65.5425 151.344 67.0641 150.36C68.5161 149.42 69.4061 149.838 70.2813 151.225C72.852 155.288 75.8753 158.987 79.4505 162.229C80.3704 163.06 81.2456 163.95 82.6031 163.984C82.7771 164.173 82.9561 164.367 83.1351 164.556V164.551Z" fill="#22327F"/>
</svg>
