<?xml version="1.0" encoding="UTF-8"?>
<svg id="a" data-name="Layer 1" xmlns="http://www.w3.org/2000/svg" viewBox="0 0 2050 2466.45">
  <defs>
    <style>
      .b {
        fill: #004d8d;
      }

      .c {
        fill: #00b746;
      }

      .d {
        fill: #012b75;
      }

      .e {
        fill: #006736;
      }

      .f {
        fill: #fce702;
      }

      .g {
        fill: #e5b62e;
      }

      .h {
        fill: #ac2678;
      }

      .i {
        fill: #c9e501;
      }

      .j {
        fill: #db315f;
      }

      .k {
        fill: #d72b27;
      }

      .l {
        fill: #23337f;
      }

      .m {
        fill: #59017c;
      }
    </style>
  </defs>
  <path class="m" d="M177.78,1769.93c-13.17-8.09-24.46-18.32-34.15-30.3-16.43-20.32-21.61-43.2-14.52-68.41,3.06-10.86,7.2-21.41,10.96-32.07,1.88-5.33,4.15-10.52,5.97-15.87,4.62-13.64,2.49-26.25-6.24-37.7-10.92-14.34-25.53-24.22-40.78-33.2-2.72-1.6-6.37-1.74-9.63-2.28-17.19-2.85-33.78-7.47-48.87-16.46-18.03-10.75-29.8-26.17-34.7-46.76-.73-3.08-2.52-5.92-3.81-8.86,0-8.67,0-17.33,0-26,1.11-2.73,2.77-5.36,3.23-8.19,6.18-37.34,21.95-70.99,40.05-103.68,20.66-37.31,44.48-72.56,70.76-106.14,2.19,.73,4.52,1.18,6.54,2.22,24.57,12.61,49.45,24.51,75.52,33.79,21.91,7.8,43.95,15.02,66.68,20.12,22.31,5,44.54,10.28,67.4,12.25,19.12,1.65,38.19,4.71,57.33,5.18,22.89,.55,45.82-.99,68.74-1.63,16.28,17.11,32.39,34.38,48.89,51.28,10.21,10.45,20.99,20.35,31.51,30.49-.91,.94-2.13,1.72-2.69,2.83-8.49,16.89-17.87,33.42-25.15,50.82-21.17,50.57-33.1,103.35-35.13,158.24-1.65,.22-3.35,.26-4.94,.68-36.68,9.7-72.52,21.78-106.94,37.84-44.45,20.74-86.66,45.31-124.53,76.58-21.23,17.53-41.03,36.78-61.48,55.25Z"/>
  <path class="f" d="M2047.96,1033.21c-2.1,23.84-3.25,47.8-6.47,71.49-8.16,60.11-21.89,119-41.37,176.5-28.48,84.07-67.23,162.87-120.08,234.45-.59,.8-1.12,1.67-1.79,2.4-25.32,27.84-40.85,61.39-54.33,95.8-11.02,28.13-19.97,57.07-29.84,85.66-.76,2.19-1.55,4.37-2.33,6.55-31.19-9.45-61.6-21.12-91-34.99-27.63-13.04-54.91-27.1-81.18-42.68-26.5-15.71-51.93-33.32-77.12-51.1-16.75-11.83-32.23-25.45-48.34-38.19-3.3-2.61-6.88-4.88-10.34-7.31,15.72-7.91,31.6-15.51,47.13-23.77,161.38-85.93,284.96-209.73,370.43-371.29,41.07-77.63,68.99-159.95,84.95-246.36,11.3-61.15,15.92-122.77,14.13-184.9-.07-2.33-.07-4.66,0-6.99,.02-.54,.52-1.07,1.09-2.14,14.69,3.86,22.92,13.82,25.88,28.23,3.21,15.64,6.25,31.35,8.46,47.16,4.19,29.99,7.88,60.05,11.43,90.12,.9,7.57,.49,15.3,.69,22.95,.68,7.74,1.36,15.48,2.04,23.22v102c-.68,7.74-1.36,15.47-2.04,23.21Z"/>
  <path class="k" d="M1080,2c7.92,2.26,15.77,4.86,23.79,6.67,7.82,1.77,11.34,5.88,12.5,14.09,6.95,49.32,8.35,98.89,7.83,148.58-.59,56.98-1.26,113.96-1.81,170.94-.07,7.33,.63,14.67,.39,21.98-.34,10.08-3.09,12.67-13.26,13.71-12.92,1.32-25.88,2.31-38.75,4-36.29,4.75-70.82,15.23-103.11,32.7-.29,.16-.55,.37-.85,.53-14.03,7.64-17.23,6.78-25.3-7.24-49.01-85.14-97.98-170.3-146.98-255.44-2.66-4.62-5.44-9.17-8.11-13.77-14.84-25.61-7.51-51.39,18.84-64.72,36.92-18.68,75.77-32.35,115.37-44.15,44.84-13.36,90.72-20.94,137.09-26.15,1.5-.17,2.91-1.13,4.36-1.72,6,0,12,0,18,0Z"/>
  <path class="g" d="M2050,908c-.68-7.74-1.36-15.49-2.04-23.22,.68-.25,1.36-.51,2.04-.78v24Z"/>
  <path class="g" d="M2047.96,1033.21c.68-7.74,1.36-15.47,2.04-23.21v24c-.68-.26-1.36-.53-2.04-.79Z"/>
  <path class="i" d="M1483.77,1531.77c3.45,2.43,7.03,4.7,10.34,7.31,16.11,12.74,31.58,26.37,48.34,38.19,25.19,17.78,50.63,35.39,77.12,51.1,26.27,15.58,53.55,29.64,81.18,42.68,29.4,13.87,59.82,25.54,91,34.99-4.87,22.06-10.64,43.96-14.39,66.21-5.3,31.46-10.07,63.07-13.3,94.8-3.27,32.08-4.41,64.37-6.48,96.58-2.87,.82-5.78,1.54-8.62,2.46-83.53,27.08-169.31,40.45-257,41.38-47.96,.51-95.65-3.41-143.07-10.95-72.66-11.56-142.62-32.11-209.88-61.84-16.4-7.25-32.54-15.07-48.8-22.63-3.07-1.91-6.05-4-9.24-5.7-107.2-57.48-198.24-134.19-273.23-229.9-42.08-53.7-77.4-111.55-105.19-173.92,21.25,10.31,42.24,21.21,63.8,30.82,71.2,31.71,145.42,53.17,222.5,65.11,60.18,9.32,120.67,12.16,181.33,8.91,106.38-5.7,208.53-29.93,306.12-72.93,2.41-1.06,4.97-1.79,7.46-2.67Z"/>
  <path class="b" d="M702.55,1502.53c27.79,62.37,63.11,120.22,105.19,173.92,74.99,95.71,166.03,172.42,273.23,229.9,3.18,1.71,6.16,3.79,9.23,5.7-8.35,9.86-16.86,19.59-25,29.61-29.41,36.19-53.26,75.88-73.7,117.71-3.04,6.22-6.05,12.46-9.08,18.69-7.58,.64-15.15,1.7-22.74,1.85-31.87,.62-63.57-.48-95.22-5.49-22.68-3.59-44.81-8.79-66.65-15.52-34.76-10.71-67.49-25.92-98.82-44.37-27.57-16.24-52.63-35.86-76.3-57.15-20.02-18-37.84-38.24-54.03-59.8-24.04-32.02-44.03-66.32-59.02-103.56-10.68-26.54-19.24-53.57-24.75-81.7-4.98-25.42-8.66-50.88-8.91-76.79-.11-11.99-.2-23.97-.3-35.96,2.03-54.9,13.97-107.67,35.13-158.24,7.28-17.4,16.65-33.93,25.15-50.82,.56-1.11,1.78-1.89,2.69-2.83,15.99,13,31.78,26.24,48,38.94,36.49,28.56,75.51,53.3,115.9,75.92Z"/>
  <path class="h" d="M809.85,561.19c-6.53,15.45-12.25,29.61-18.45,43.55-16.21,36.41-23.95,74.65-25.36,114.33-.41,11.63-3.33,14.51-15.33,14.5-91.31-.07-182.61-.2-273.92-.41-16.63-.04-33.26-.64-49.9-.81-11.86-.12-20.03-5.81-25.83-15.82-5.25-9.08-9.31-18.64-9.19-29.19,.12-10.9,1.36-21.79,2.13-32.68,.05-.66,.44-1.35,.32-1.96-2.76-13.68,3.32-26.09,5.75-38.99,3.08-16.35,6.45-32.66,10.23-48.85,12.24-52.41,30.79-102.57,54.41-150.89,5.39-11.02,13.49-18.83,25.43-22.37,12.9-3.83,24.92-1.81,36.45,4.92,28.47,16.6,56.99,33.13,85.56,49.58,52.22,30.08,104.52,60,156.69,90.15,13.51,7.81,26.68,16.21,41,24.94Z"/>
  <path class="b" d="M1119.84,1096.88c.42,8.61,1.08,15.9,1.09,23.2,.07,98.64,.1,197.27-.05,295.91-.01,8.61-.46,17.42-2.32,25.78-4.35,19.61-16.77,30-36.72,30.25-13.27,.17-26.63-1.01-39.83-2.56-81.39-9.51-158.83-32.83-232.88-67.65-5.97-2.81-11.82-6.29-16.95-10.42-12.66-10.19-17.27-23.49-12.25-39.19,2.21-6.91,5.27-13.69,8.89-19.98,48.56-84.23,97.3-168.36,145.98-252.52,3.5-6.05,6.78-12.24,10.38-18.22,3.94-6.54,7.15-7.68,14.07-4.62,5.78,2.55,11.27,5.73,16.94,8.53,15.85,7.84,32.39,13.23,49.62,17.66,11.88,3.06,23.82,5.1,35.67,7.84,15.41,3.56,30.83,5.04,46.51,5.29,3.6,.06,7.19,.42,11.84,.71Z"/>
  <path class="c" d="M1348.23,1016.33c3.16-1.22,6.96-1.69,9.36-3.78,11.03-9.58,22.52-18.84,32.22-29.67,11.97-13.35,22.34-28.14,33.38-42.33,1.43-1.84,2.67-3.82,4.03-5.72,9-12.52,10.06-12.77,23.31-5.12,81.58,47.1,163.15,94.22,244.73,141.33,10.95,6.33,21.83,12.8,32.92,18.87,5.57,3.05,9.12,7.27,11.5,13.12,6.18,15.19,5.61,29.98-2.26,44.26-3.35,6.09-7.82,11.56-11.65,17.39-4.53,6.9-8.91,13.9-13.38,20.84-1.07,1.66-2.06,3.43-3.38,4.88-31.85,34.96-62.9,70.67-98.41,102.11-24.23,21.45-49.98,40.86-76.71,59.11-11.89,8.12-23.37,7.9-35.86,2.87-8.97-3.61-15.71-9.88-21.54-17.3-.99-1.26-1.65-2.82-2.3-4.31-2.23-5.13-3.88-10.6-6.66-15.41-48.41-83.53-96.94-166.99-145.5-250.43-10.5-18.04-9.58-21.84,8.63-32.02,6.78-3.79,12.98-8.16,16.59-15.35,.55-.05,.77-.37,.65-.96,.1-.88,.2-1.76,.3-2.65l.03,.26Z"/>
  <path class="m" d="M761.26,740.79c5.29,7.05,5.72,14.17,5.84,21.08,.81,46.87,14.46,90.42,34.11,132.38,8.29,17.71,7.64,19.84-9.5,29.71-83.64,48.17-167.2,96.49-250.84,144.67-7.48,4.31-15.08,8.61-23.06,11.8-21.15,8.44-43.25,.21-53.2-20.25-28.22-58.05-49.51-118.52-60.35-182.28-4.9-28.86-8.02-58.02-11.65-87.09-2.35-18.76,5.16-32.46,21.01-43.04,8.89-5.93,17.59-7.64,27.82-7.61,103.95,.38,207.91,.46,311.86,.63,2.64,0,5.28,0,7.98,0Z"/>
  <path class="f" d="M1660.08,732.54c-51.96,0-103.92,.02-155.88,0-17.87,0-17.53-.72-18.7-18.52-3.03-46.24-13.22-90.77-34.76-132.22-2-3.84-4.28-7.56-5.94-11.54-2.55-6.11-1.42-9.92,3.9-13.92,2.38-1.79,5.07-3.17,7.67-4.66,89.18-51.18,178.4-102.3,267.51-153.59,15.16-8.73,30.11-10.16,46.79-3.87,8.75,3.3,13.08,8.28,16.65,16.39,22.33,50.62,42.04,102.14,55.62,155.86,8.75,34.59,14.71,69.63,17.04,105.26,.24,3.64,.99,7.24,1.55,10.85,4.06,26.16-14.01,48.36-40.58,49.81-2.99,.16-5.99,.15-8.99,.15-50.63,0-101.25,0-151.88,0Z"/>
  <path class="i" d="M1760.47,1091.17c-4.9-7.59-11.55-8.91-19.29-8.94-4.39-.02-9.14-1.92-13.09-4.13-27.6-15.42-55.09-31.03-82.5-46.8-50.5-29.05-100.92-58.26-151.38-87.38-11.82-6.82-23.69-13.56-35.49-20.42-3.45-2.01-6.91-4.08-10.02-6.55-5.18-4.1-6.08-7.88-3.73-14.12,.82-2.17,1.87-4.3,3.14-6.23,14.73-22.38,22.17-47.51,27.83-73.33,2.42-11.05,5.61-21.97,7.4-33.11,1.73-10.79,2.53-21.78,2.95-32.72,.48-12.39,2.98-15.52,15.18-15.52,106.63,0,213.26,.25,319.9-.08,16.57-.05,37.38,13.73,38.44,39.4,.83,20.06-.76,40.01-4.28,59.69-8.67,48.5-18.23,96.84-35.55,143.19-8.04,21.51-16.72,42.78-25.44,64.03-5.4,13.15-13.3,24.47-25.32,32.73-3.3,2.27-5.41,6.26-8.75,10.29Z"/>
  <path class="j" d="M735.2,119.27c18.49,.65,30.48,6.15,38.19,18.98,17.48,29.12,34.95,58.25,52.06,87.59,31.54,54.1,62.81,108.35,94.19,162.54,5.99,10.34,11.88,20.75,18.04,30.99,2.78,4.62,1.71,8.4-1.92,11.54-4.02,3.48-8.37,6.6-12.7,9.69-30.83,21.98-58.99,46.79-81.94,77.12-5.22,6.9-10.09,14.08-14.98,21.22-7.48,10.93-11.45,11.94-23.15,5.21-48.5-27.88-96.97-55.8-145.44-83.71-38.38-22.1-76.77-44.18-115.12-66.33-5.76-3.33-11.55-6.68-16.93-10.58-17-12.3-22.15-29.95-14.17-49.38,2.38-5.79,5.96-11.13,9.38-16.43,28.99-44.82,65.62-82.98,103.99-119.68,27.54-26.34,57.42-49.67,89.13-70.74,7.73-5.13,15.82-8.49,21.39-8.04Z"/>
  <path class="j" d="M1129.69,204.68c0-48.31,0-96.61,0-144.92,0-4.33,.08-8.66,.15-12.99,.51-30.35,22.2-41.6,43.31-42.39,6.6-.25,13.24,1.14,19.88,1.61,73.42,5.17,143.19,25.3,211.27,52.02,14.52,5.7,28.21,13.52,42.68,19.38,18.34,7.42,32.12,35.11,19.41,57.41-16.97,29.79-33.43,59.87-50.44,89.63-30.57,53.47-61.39,106.8-92.1,160.19-6.29,10.93-12.53,21.89-18.84,32.81-2.32,4.01-5.86,5.39-10.21,3.87-3.76-1.31-7.43-2.92-11.07-4.56-30.7-13.83-61.98-26.04-95.41-31.48-14.1-2.29-28.35-3.8-42.59-5.08-12.52-1.13-15.82-4.06-15.83-16.59-.04-52.97-.02-105.94-.02-158.91h-.22Z"/>
  <path class="e" d="M1131.3,1272.19c0-49.64,0-99.27,0-148.91,0-4-.08-8.01,.26-11.98,.87-10.05,5.97-14.47,15.98-15.53,19.49-2.07,38.97-4.37,58.4-6.97,23.35-3.12,44.84-12.12,66.07-21.8,6.36-2.9,12.6-6.04,18.98-8.88,10.88-4.85,13.3-4.09,19.2,6.24,19.3,33.82,38.37,67.78,57.81,101.52,31.24,54.22,62.78,108.27,93.95,162.53,3.73,6.49,9.65,11.44,11.13,19.64,3.27,18.13-.35,33.66-14.18,46.29-1.44,1.31-3.13,2.49-4.9,3.26-51.54,22.53-103.46,43.91-158.53,56.64-33.78,7.81-67.86,13.54-102.3,17.23-5.95,.64-11.97,.91-17.96,.87-24.99-.17-40.5-14.35-43-39.26-.46-4.63-.42-9.32-.42-13.98-.03-48.97-.02-97.94-.02-146.92h-.48Z"/>
  <path class="g" d="M1512.17,119.27c10.37-.24,19.74,2.37,27.89,9.03,7.16,5.85,13.54,13.03,23.43,14.52,.61,.09,1.37,.46,1.71,.95,11.45,16.48,29.05,26.12,43.75,38.93,43.91,38.26,82.78,81.03,117.57,127.6,7.19,9.62,13.07,20.01,16.07,31.89,3.02,11.92,1.04,22.94-7.19,31.69-6.75,7.18-14.52,13.87-22.97,18.89-39.77,23.64-79.92,46.63-119.94,69.85-44.34,25.73-88.67,51.47-133.03,77.15-4.31,2.5-8.77,4.76-13.26,6.93-5.1,2.46-9.86,1.65-13.57-2.65-5.65-6.55-11.08-13.29-16.54-20-10.51-12.91-20.52-26.25-31.56-38.68-17.16-19.32-38.27-34.02-59.47-48.5-13.59-9.29-13.73-10.21-5.48-24.58,32.31-56.31,64.59-112.64,96.75-169.03,19.79-34.7,39.33-69.53,59.03-104.28,8.1-14.29,21.24-19.3,36.79-19.7Z"/>
  <path class="l" d="M507.62,1122.54c-.32-9.39,3.27-18.07,10.35-24.58,6.56-6.02,13.87-11.48,21.57-15.95,79.79-46.27,159.73-92.29,239.61-138.4,7.21-4.16,14.36-8.42,21.45-12.78,13.17-8.1,16.84-7.4,25.07,5.34,12.33,19.1,26.14,37.01,42.26,53.07,6.13,6.11,11.96,12.88,19.11,17.51,8.16,5.28,16.66,9.06,21.66,18.56,2.29,4.35,9.05,6.37,13.81,9.4,18.11,11.55,18.36,12.49,7.51,31.22-50.93,87.88-101.89,175.75-152.77,263.66-5.62,9.71-12.25,18.29-22.81,22.98-14.94,6.63-29.03,3.35-41.61-5.44-18.82-13.16-37.5-26.64-55.32-41.11-53.67-43.59-98.71-95.2-138.41-151.6-6.6-9.37-11.75-19.4-11.48-31.87Z"/>
  <path class="h" d="M458.25,1305.91c-22.91,.64-45.85,2.18-68.74,1.63-19.14-.46-38.21-3.53-57.33-5.18-22.87-1.97-45.09-7.24-67.4-12.25-22.73-5.1-44.77-12.32-66.68-20.12-26.07-9.28-50.95-21.18-75.52-33.79-2.03-1.04-4.35-1.49-6.54-2.22,16.54-20.83,33.02-41.7,49.65-62.46,4.78-5.97,9.91-11.68,15.04-17.36,31.44-34.88,47.9-76.18,52.62-122.53,.89-8.76-.56-16.69-4.93-24.83-20.46-38.14-34.49-78.57-39.75-121.68-7.16-58.71,1.49-114.78,29.66-167.29,5.48-10.21,12.46-18.78,26.01-22.04,0,4.02,.08,7.47-.01,10.92-.98,37.67,.35,75.28,4.26,112.73,10.02,96.07,34.7,188.2,74.97,276.1,33.49,73.1,76.22,140.28,128.11,201.67,2.34,2.77,4.4,5.79,6.59,8.69Z"/>
  <path class="g" d="M1347.91,1018.72c.12,.59-.1,.91-.65,.96-3.23,1.38-6.9,2.18-9.63,4.23-29.32,21.99-62.03,37.55-95.95,50.76-8.65,3.37-17.71,5.73-26.68,8.19-4.3,1.18-9.06,3.03-12.21-2.71-.53-.97-3.06-1.37-4.57-1.2-5.6,.63-11.26,1.22-16.67,2.67-2,.53-3.37,3.39-6.48,6.75-2.63,.89-7.13,1.12-11.98-1.92-2.85-1.79-6.99-2.53-10.42-2.22-37.97,3.44-75.14-1.61-111.75-10.97-39.7-10.15-76.45-27.25-110.38-50.23-5.75-3.89-11.04-8.6-15.99-13.49-8.69-8.59-13.13-19.11-12.5-31.53,.1-2,.22-4,.19-6-.11-7.06-1.13-8.55-8.09-8.16-10.55,.59-20.81-.78-30.31-4.93-10.16-4.44-21.24-7.68-26.41-19.79-2.92-6.83-8.65-12.45-12.99-18.69-1.08-1.55-1.7-3.41-2.55-5.12-1.17-2.36-1.75-5.8-3.66-6.86-6.43-3.6-6.99-10.14-9.12-15.91-.55-1.5-1.27-3.92-.55-4.75,4.87-5.62,.9-10.77-.61-15.9-6.48-22.02-14.18-43.73-19.53-66.01-8.02-33.35-7.66-67.34-4.41-101.37,4.06-42.57,15.12-83.18,34.27-121.36,7.59-15.14,16.34-29.83,25.89-43.82,5.11-7.49,12.46-13.83,19.83-19.31,9.96-7.39,21.98-6.81,33.71-5.47,3.92,.45,4.75,3,2.81,7.25-2.97,0-6.23,.06-9.48-.01-15.61-.36-27.7,6.14-36.49,18.86-28,40.51-47.8,84.57-56.86,133.16-16.5,88.47-.21,170.81,46.72,247.28,3.99,6.49,8.61,12.71,13.69,18.39,9.89,11.07,22.39,16.45,37.46,15.08,1.98-.18,3.97-.23,5.93-.34,.37,2.62-.12,5.87,1.27,7.26,1.81,1.82,5.1,2.17,8.83,3.55,0,1,.1,3.19-.02,5.38-.95,17.86,6.77,31.62,20.5,42.22,17.25,13.31,36.76,22.79,56.27,32.19,32.45,15.64,66.94,23.86,102.58,27.87,52.86,5.95,104.32,.64,154.24-18.24,28.52-10.79,55.11-25.15,80-42.67,12.34-8.69,20.77-19.77,19.27-35.99-1-10.86-6.54-19.43-13.94-26.95-12.86-13.07-25.83-26.02-38.71-39.06-22.25-22.53-44.47-45.09-66.7-67.63-2.57-2.61-5.11-5.26-7.8-7.76-7.9-7.34-11.15-7.62-20.33-2.29-6.9,4.01-13.7,8.28-20.89,11.71-37.78,18.04-74.23,14.27-109.44-7.26-.57-.35-1.14-.7-1.68-1.08-16.31-11.36-16.16-10.01-28.96,2.86-31.5,31.66-62.98,63.35-94.61,94.88-6.36,6.34-13.33,12.06-20.07,18-3.21,2.83-6.39,3.55-9.97-1.91,2.89-3.37,5.81-7.26,9.22-10.67,36.59-36.48,73.25-72.88,109.89-109.3,1.18-1.17,2.41-2.3,3.53-3.54,5.43-5.97,5.81-9.14,1.85-16.07-1.49-2.6-3.16-5.09-4.74-7.65-26.21-42.47-25.91-84.87,.38-127.17q9.64-15.51-3.12-28.27c-31.11-31.1-62.29-62.15-93.28-93.37-6.56-6.61-12.47-13.87-18.63-20.88-2.42-2.76-4.05-5.6,1.3-8.54,10.24,9.46,20.97,18.86,31.12,28.85,28.51,28.05,56.77,56.35,85.14,84.55,1.42,1.41,2.81,2.85,4.25,4.24,9.12,8.86,13.06,9.42,23.5,2.33,18.33-12.45,38.46-19.91,60.55-21.15,24.35-1.36,46.76,5.32,67.34,18.31,16.57,10.45,19.5,10.08,33.36-3.85,35.03-35.21,70.07-70.4,105.11-105.6,1.65-1.65,3.34-3.27,4.93-4.97,16.61-17.78,14.96-42.87-4.31-57.95-22.96-17.97-48.22-32.07-75.32-42.81-42.66-16.9-87.02-24.95-132.82-23.71-54.42,1.47-105.97,14.68-153.97,40.78-9.36,5.09-18.62,10.37-27.75,15.87-19.93,12.02-31.74,28.38-26.76,53.53-6.43-.17-8.4-4.04-9.21-8.71-1.65-9.52-.7-18.92,4.89-26.87,4.34-6.17,9.43-12.24,15.39-16.78,40.17-30.61,85.57-49.65,134.9-59.69,32.87-6.69,66.09-8.46,99.41-5.62,62.35,5.32,119.63,25.28,170.51,62.14,7.16,5.19,13.45,11.98,18.91,19,6.14,7.88,7.26,17.63,6.64,27.59-.59,9.55-.08,10.13,8.84,9.34,18.75-1.66,33.18,5.97,43.9,20.72,30.81,42.37,52.3,88.98,61.31,140.76,15.81,90.87-1.61,175.47-49.62,253.92-4.66,7.61-10.43,14.66-16.43,21.29-9.44,10.43-21.49,15.38-35.72,14.68-4.27-.21-8.56-.03-14.08-.03,.18,3.62,.02,7.16,.57,10.58,1.5,9.24,.23,18.15-4.4,26.08-3.33,5.71-3.15,10.5,.3,15.66,0,0-.03-.26-.03-.26-.51,.2-1.02,.41-1.53,.61,.41,.68,.82,1.36,1.23,2.03Zm117.41-289.36c-.46-10.31,0-20.77-1.54-30.91-7.05-46.16-21.12-90.12-44.68-130.58-7.15-12.27-16.39-23.44-25.54-34.39-7.43-8.89-17.74-12.53-29.51-11.82-10.04,.6-17.34,6-24.09,12.75-35.82,35.82-71.7,71.59-107.56,107.37-3.77,3.77-7.75,7.35-11.33,11.29-4.59,5.05-4.78,8.35-1.2,14.37,3.24,5.44,6.87,10.65,9.9,16.19,13.8,25.24,18.31,51.96,11.63,80.13-3.65,15.39-10.79,29.3-19.39,42.52-6.57,10.1-6.31,13.78,1.88,21.86,38.22,37.66,76.31,75.45,114.92,112.71,21.93,21.16,44.83,18.68,62.86-5.66,.2-.27,.38-.55,.57-.82,17.72-25.21,32.07-52.17,42.19-81.34,13.9-40.05,19.81-81.4,20.89-123.66Zm-337.8,101.71c42.04,1.82,92.88-33.35,92.13-97.33-.59-50.77-46.1-87.38-89.1-87.91-51.44-.63-94.39,40.63-94.84,90.83-.48,52.43,39.98,94.03,91.81,94.41Zm-71.09-168.16c.51,.61,1.01,1.22,1.52,1.83,4.15-3.09,8.24-6.25,12.45-9.26,19.23-13.78,40.83-19.12,64.2-17.4,30.89,2.28,56.63,15,74.69,40.45,17.69,24.93,22.61,53.34,16.05,82.88-8.49,38.26-31.29,64.33-70.28,73.64-10.85,2.59-22.45,3.05-33.68,2.83-30.08-.59-54.62-13.03-73.14-36.91-28.75-37.06-28.33-92.07,1.91-125.5,1.73-1.91,3.14-4.35,3.91-6.79,.39-1.23-1-3.02-1.72-4.93-39.8,37.56-38.95,101.38-9.68,140.7,23.17,31.12,78.93,53.86,127.17,33.26,44.53-19.02,72.17-68.24,63.95-116.39-7.15-41.89-41.27-85.15-96.81-89.2-31.2-2.27-75.22,14.5-80.53,30.81Z"/>
  <path class="d" d="M475.68,1599.57c.1,11.99,.19,23.97,.3,35.96,.25,25.91,3.93,51.37,8.91,76.79,5.51,28.13,14.07,55.16,24.75,81.7,14.99,37.24,34.97,71.54,59.02,103.56,16.19,21.56,34.01,41.8,54.03,59.8,23.68,21.29,48.73,40.92,76.3,57.15,31.32,18.45,64.05,33.66,98.82,44.37,21.85,6.73,43.98,11.93,66.65,15.52,31.65,5.01,63.35,6.11,95.22,5.49,7.59-.15,15.16-1.21,22.74-1.85-2,5.26-3.94,10.54-6.01,15.77-30.15,76.29-44.62,155.5-44.09,237.48,.06,9.95,.67,19.93,1.67,29.83,2.13,21.11,4.35,42.23,7.18,63.25,1.85,13.79,4.83,27.43,7.3,41.13-3.32,.15-6.64,.42-9.96,.43-73.65,.02-147.31,.06-220.96-.07-5.58-.01-11.45-.46-16.69-2.2-12.65-4.21-20.49-13.27-23.1-26.46-.71-3.57-.94-7.28-.95-10.92-.06-52.32-.29-104.65,.09-156.97,.14-19.71,.05-39.28-4.56-58.58-10.97-45.97-39.77-71.47-86.53-77.21-31.38-3.85-61.92,.94-91.82,9.4-22.02,6.23-43.79,13.88-64.85,22.84-17.02,7.25-34.36,12.38-52.38,15.67-23.68,4.33-47.54,6.29-71.62,4.59-14.03-.99-27.71-3.77-40.78-9.05-35.02-14.15-53.78-41.21-60.3-77.43-4.54-25.23-3.31-50.39,2.75-75.34,7.1-29.24,12.04-58.77,9.25-89.02-.63-6.9-2.27-13.79-4.25-20.45-.98-3.29-3.24-6.62-5.81-8.97-35.03-32.15-43.78-71.56-32.71-116.6,1.57-6.4,2.99-12.84,4.47-19.26,20.45-18.48,40.25-37.73,61.48-55.25,37.87-31.27,80.08-55.84,124.53-76.58,34.42-16.06,70.27-28.14,106.94-37.84,1.6-.42,3.29-.46,4.94-.68Z"/>
  <path class="c" d="M948.46,2465.53c-2.47-13.71-5.45-27.34-7.3-41.13-2.83-21.03-5.05-42.14-7.18-63.25-1-9.9-1.6-19.88-1.67-29.83-.53-81.97,13.94-161.19,44.09-237.48,2.07-5.23,4.01-10.51,6.01-15.77,3.03-6.23,6.04-12.46,9.08-18.69,20.44-41.82,44.29-81.51,73.7-117.71,8.15-10.02,16.66-19.75,25-29.61,16.26,7.56,32.4,15.39,48.8,22.63,67.26,29.72,137.22,50.28,209.88,61.84,47.42,7.55,95.11,11.46,143.07,10.95,87.69-.93,173.47-14.3,257-41.38,2.84-.92,5.74-1.64,8.62-2.46-.04,8.8-.08,17.6-.12,26.4-270.94,49.65-448.94,267.11-488.32,474.09,4.1,0,8.03,0,11.96,0,155.66,0,311.32-.01,466.98,.06,3.86,0,7.72,.93,11.57,1.43-3.31,.16-6.63,.46-9.94,.46-263.77-.01-527.54-.05-791.3-.1-3.31,0-6.63-.29-9.94-.45Z"/>
  <path class="e" d="M1759.65,2465.62c-3.86-.5-7.72-1.43-11.57-1.43-155.66-.07-311.32-.06-466.98-.06-3.93,0-7.85,0-11.96,0,39.37-206.99,217.37-424.44,488.32-474.09,.76,23.95,1.31,47.9,2.31,71.84,2.47,58.58,8.77,116.77,17.58,174.72,8.3,54.61,18.77,108.78,32.51,162.29,1.98,7.72,4.7,15.27,6.38,23.05,4.41,20.49-11.78,42.61-32.69,44.3-7.9,.64-15.93-.37-23.9-.62Z"/>
</svg>