<svg xmlns="http://www.w3.org/2000/svg" fill="none" viewBox="0 0 25 24"><path fill="#292D32" fill-rule="evenodd" d="M12.5 1.75A6.75 6.75 0 0 0 5.75 8.5v1.736a3.26 3.26 0 0 1-.59 1.87l-1.233 1.762a2.722 2.722 0 0 0 1.41 4.157l1.117.352c.765.242 1.541.437 2.324.584a3.75 3.75 0 0 0 7.444 0 20.067 20.067 0 0 0 2.324-.584l1.116-.352a2.722 2.722 0 0 0 1.41-4.157l-1.233-1.762a3.26 3.26 0 0 1-.589-1.87V8.5a6.75 6.75 0 0 0-6.75-6.75Zm2.14 17.445a20.077 20.077 0 0 1-4.28 0 2.251 2.251 0 0 0 4.28 0ZM7.25 8.5a5.25 5.25 0 0 1 10.5 0v1.736c0 .976.3 1.93.86 2.73l1.234 1.762a1.222 1.222 0 0 1-.633 1.866l-1.117.353a18.576 18.576 0 0 1-11.188 0l-1.117-.353a1.222 1.222 0 0 1-.633-1.866l1.233-1.762c.56-.8.861-1.753.861-2.73V8.5Z" clip-rule="evenodd"/></svg>