<svg width="156" height="156" fill="none" xmlns="http://www.w3.org/2000/svg"><mask id="a" fill="#fff"><path fill-rule="evenodd" clip-rule="evenodd" d="M36.75 39.805c-5 5-5 13.107 0 18.107l19.484 19.483a1 1 0 0 1 0 1.415l-19.4 19.4c-5 5-5 13.106 0 18.106l3.055 3.055c5 5 13.106 5 18.106 0l19.4-19.4a1 1 0 0 1 1.415 0l19.194 19.195c5 5 13.107 5 18.107 0l3.055-3.055c5-5 5-13.106 0-18.106L99.971 78.81a1 1 0 0 1 0-1.415l19.279-19.278c5-5 5-13.107 0-18.107l-3.055-3.055c-5-5-13.107-5-18.107 0L78.81 56.234a1 1 0 0 1-1.415 0L57.912 36.75c-5-5-13.107-5-18.107 0l-3.055 3.055z"/></mask><path d="M36.75 57.912l-6.364 6.364 6.364-6.364zm0-18.107l6.364 6.364-6.364-6.364zm.084 58.405l6.364 6.364-6.364-6.364zm0 18.106l6.364-6.364-6.364 6.364zm3.055 3.055l6.364-6.364-6.364 6.364zm18.106 0l-6.364-6.364 6.364 6.364zm40.01-.205l-6.365 6.364 6.364-6.364zm21.161-21.161l-6.364 6.364 6.364-6.364zm.084-39.888l6.364 6.364-6.364-6.364zm0-18.107l6.364-6.363-6.364 6.363zm-3.055-3.055l6.364-6.364-6.364 6.364zm-18.107 0l-6.364-6.364 6.364 6.364zm-40.176-.205l-6.364 6.364 6.364-6.364zM78.81 56.234l-6.365-6.364 6.365 6.364zm-1.415 0l-6.364 6.364 6.364-6.364zm22.576 21.161l-6.364-6.363 6.364 6.364zM77.395 99.971l-6.364-6.364 6.364 6.364zM56.234 78.81l6.364 6.364-6.364-6.364zm-13.12-27.262a3.803 3.803 0 0 1 0-5.379L30.386 33.441c-8.515 8.515-8.515 22.32 0 30.835l12.728-12.728zm19.484 19.484L43.114 51.548 30.386 64.276 49.87 83.76l12.728-12.728zm-19.4 33.542l19.4-19.4L49.87 72.446l-19.4 19.4 12.728 12.728zm0 5.378a3.803 3.803 0 0 1 0-5.378L30.47 91.846c-8.515 8.514-8.515 22.319 0 30.834l12.728-12.728zm3.055 3.055l-3.055-3.055L30.47 122.68l3.055 3.055 12.728-12.728zm5.378 0a3.802 3.802 0 0 1-5.378 0l-12.728 12.728c8.515 8.515 22.32 8.515 30.834 0l-12.728-12.728zm19.4-19.4l-19.4 19.4 12.728 12.728 19.4-19.4-12.728-12.727zm33.337 19.195L85.174 93.607l-12.729 12.728L91.64 125.53l12.728-12.728zm5.379 0a3.802 3.802 0 0 1-5.379 0L91.64 125.53c8.515 8.515 22.32 8.515 30.835 0l-12.728-12.728zm3.055-3.055l-3.055 3.055 12.728 12.728 3.055-3.055-12.728-12.728zm0-5.378a3.803 3.803 0 0 1 0 5.378l12.728 12.728c8.515-8.515 8.515-22.32 0-30.834l-12.728 12.728zM93.607 85.174l19.195 19.195 12.728-12.728-19.195-19.195-12.728 12.728zm19.279-33.421L93.607 71.032l12.728 12.728 19.279-19.28-12.728-12.727zm0-5.379a3.804 3.804 0 0 1 0 5.379l12.728 12.728c8.514-8.515 8.514-22.32 0-30.834l-12.728 12.727zm-3.055-3.055l3.055 3.055 12.728-12.727-3.055-3.056-12.728 12.728zm-5.379 0a3.804 3.804 0 0 1 5.379 0l12.728-12.728c-8.515-8.514-22.32-8.514-30.835 0l12.728 12.728zM85.174 62.598l19.278-19.279-12.728-12.728L72.445 49.87l12.729 12.728zM51.548 43.114L71.03 62.598 83.76 49.87 64.276 30.386 51.548 43.114zm-5.379 0a3.803 3.803 0 0 1 5.379 0l12.728-12.728c-8.515-8.514-22.32-8.514-30.835 0L46.17 43.114zm-3.055 3.055l3.055-3.055-12.728-12.728-3.055 3.055L43.114 46.17zm29.331 3.7a8 8 0 0 1 11.314 0L71.031 62.599c3.906 3.905 10.237 3.905 14.142 0L72.446 49.87zm33.89 22.577a8 8 0 0 1 0 11.314L93.607 71.032c-3.905 3.905-3.905 10.237 0 14.142l12.728-12.728zm-22.576 33.889a7.999 7.999 0 0 1-11.314 0l12.729-12.727c-3.906-3.906-10.237-3.906-14.143 0l12.728 12.727zM49.87 83.76a8 8 0 0 1 0-11.314l12.729 12.728c3.905-3.906 3.905-10.237 0-14.142L49.87 83.76z" fill="#F4F3FF" mask="url(#a)"/></svg>