<svg width="12" height="12" viewBox="0 0 12 12" fill="none" xmlns="http://www.w3.org/2000/svg">
<path d="M10.0162 2.95789H9.03757L6.63648 5.35793C6.71918 5.56869 6.72679 5.80149 6.65802 6.0172C6.58925 6.23291 6.44831 6.41836 6.25889 6.54237C6.06947 6.66638 5.84312 6.72139 5.61791 6.69814C5.39271 6.67489 5.18237 6.57481 5.02228 6.41471C4.86219 6.25462 4.7621 6.04429 4.73885 5.81908C4.7156 5.59387 4.77061 5.36753 4.89462 5.17811C5.01863 4.98869 5.20408 4.84774 5.41979 4.77898C5.6355 4.71021 5.86831 4.71781 6.07907 4.80051L8.47963 2.39995V1.42132C8.47968 1.29037 8.53169 1.16479 8.62424 1.07215L9.53398 0.162409C9.55079 0.145415 9.57192 0.133344 9.59509 0.127505C9.61827 0.121665 9.6426 0.122279 9.66545 0.12928C9.71225 0.142952 9.74696 0.181866 9.75642 0.229719L9.99832 1.43973L11.2078 1.68162C11.2551 1.69109 11.294 1.7258 11.3077 1.7726C11.3146 1.79533 11.3152 1.81951 11.3095 1.84257C11.3038 1.86563 11.2919 1.8867 11.2751 1.90354L10.3648 2.81328C10.3191 2.85911 10.2647 2.89548 10.2049 2.92029C10.1451 2.94511 10.081 2.95788 10.0162 2.95789Z" fill="#FF4D98"/>
<path d="M0.788793 5.71875C0.788793 7.02626 1.3082 8.28021 2.23274 9.20476C3.15729 10.1293 4.41124 10.6487 5.71875 10.6487C6.36616 10.6487 7.00723 10.5212 7.60536 10.2734C8.20349 10.0257 8.74697 9.66255 9.20476 9.20476C9.66255 8.74697 10.0257 8.2035 10.2734 7.60537C10.5212 7.00724 10.6487 6.36616 10.6487 5.71875C10.6487 5.24653 10.5824 4.79008 10.4589 4.35835C10.4343 4.25922 10.4492 4.15442 10.5003 4.06602C10.5514 3.97761 10.6349 3.91249 10.733 3.88435C10.8312 3.85622 10.9365 3.86726 11.0267 3.91516C11.1169 3.96305 11.185 4.04407 11.2166 4.14117C11.3607 4.64284 11.4375 5.17186 11.4375 5.71875C11.4375 8.87708 8.87708 11.4375 5.71875 11.4375C2.56042 11.4375 0 8.87708 0 5.71875C0 2.56043 2.56042 2.77753e-06 5.71875 2.77753e-06C6.2525 -0.000523085 6.7831 0.0736235 7.29634 0.220339C7.34638 0.234377 7.39315 0.258167 7.43397 0.290342C7.47479 0.322517 7.50884 0.362442 7.53418 0.407823C7.55951 0.453204 7.57563 0.503144 7.5816 0.554774C7.58757 0.606404 7.58328 0.658705 7.56897 0.70867C7.55466 0.758635 7.53061 0.805279 7.49821 0.84592C7.46582 0.886562 7.42571 0.920399 7.38019 0.945486C7.33467 0.970574 7.28464 0.986417 7.23298 0.992105C7.18132 0.997794 7.12904 0.993215 7.07916 0.978632C6.63675 0.852282 6.17885 0.788386 5.71875 0.788796C4.41124 0.788796 3.15729 1.3082 2.23274 2.23275C1.3082 3.15729 0.788793 4.41125 0.788793 5.71875Z" fill="#FF4D98"/>
<path d="M3.15533 5.71872C3.1568 6.06701 3.22924 6.41134 3.36823 6.7307C3.50721 7.05007 3.70983 7.33775 3.96371 7.57619C4.21759 7.81463 4.51741 7.99882 4.84485 8.11752C5.17229 8.23622 5.52049 8.28694 5.86819 8.26658C6.21589 8.24622 6.55579 8.15521 6.86714 7.9991C7.17849 7.84299 7.45475 7.62507 7.67907 7.35863C7.90339 7.09218 8.07104 6.78282 8.17181 6.44942C8.27257 6.11602 8.30432 5.76558 8.26513 5.4195C8.25409 5.34941 8.26221 5.27764 8.28864 5.21179C8.31507 5.14594 8.35881 5.08846 8.41525 5.04545C8.47168 5.00244 8.5387 4.97549 8.6092 4.96747C8.6797 4.95944 8.75105 4.97063 8.81571 4.99986C8.9477 5.05876 9.03657 5.18444 9.04814 5.32853C9.12979 6.02016 8.99394 6.72006 8.65947 7.33093C8.325 7.94179 7.80853 8.43329 7.18184 8.73709C6.55516 9.04089 5.84939 9.1419 5.16265 9.02609C4.4759 8.91028 3.8423 8.5834 3.3499 8.09088C2.85764 7.5989 2.53067 6.96592 2.41435 6.27975C2.29803 5.59357 2.39812 4.8882 2.70074 4.26147C3.00335 3.63474 3.4935 3.11771 4.10319 2.78208C4.71288 2.44646 5.41191 2.30888 6.10331 2.38843C6.15558 2.39328 6.20636 2.40852 6.25266 2.43324C6.29896 2.45797 6.33987 2.49169 6.37297 2.53243C6.40607 2.57317 6.43071 2.62011 6.44543 2.67049C6.46016 2.72088 6.46468 2.7737 6.45873 2.82585C6.45278 2.878 6.43648 2.92845 6.41078 2.97422C6.38508 3.01999 6.35051 3.06017 6.30908 3.09241C6.26765 3.12464 6.2202 3.14829 6.16952 3.16195C6.11884 3.17561 6.06593 3.17901 6.01392 3.17197C5.65477 3.13044 5.2909 3.16534 4.94619 3.27437C4.60148 3.3834 4.28372 3.56409 4.01377 3.80459C3.74383 4.04509 3.52779 4.33996 3.37984 4.66985C3.2319 4.99973 3.15539 5.35717 3.15533 5.71872Z" fill="#FF4D98"/>
</svg>
