<svg width="16" height="19" viewBox="0 0 16 19" fill="none" xmlns="http://www.w3.org/2000/svg">
<path d="M9.46094 18.667H3.1875C2.4584 18.6662 1.75939 18.385 1.24384 17.8851C0.728283 17.3852 0.438296 16.7073 0.4375 16.0003V2.66699C0.438296 1.95999 0.728283 1.28216 1.24384 0.782228C1.75939 0.282299 2.4584 0.00109818 3.1875 0.000326157H9.46094V18.667ZM12.8125 18.667H12.0391V0.000326157H12.8125C13.5416 0.00109818 14.2406 0.282299 14.7562 0.782228C15.2717 1.28216 15.5617 1.95999 15.5625 2.66699V16.0003C15.5617 16.7073 15.2717 17.3852 14.7562 17.8851C14.2406 18.385 13.5416 18.6662 12.8125 18.667Z" fill="#D6CCC6"/>
</svg>
