<svg width="24" height="24" viewBox="0 0 24 24" fill="none" xmlns="http://www.w3.org/2000/svg">
<path d="M12.9286 2.69666C12.3606 2.34102 11.6393 2.34102 11.0713 2.69666L3.01532 7.74041C1.89528 8.44166 1.92678 10.0837 3.07289 10.7415L11.1289 15.3649C11.6683 15.6745 12.3316 15.6745 12.8711 15.3649L20.25 11.1301V14.9999C20.25 15.4141 20.5858 15.7499 21 15.7499C21.4142 15.7499 21.75 15.4141 21.75 14.9999V9.66609C21.9297 8.96798 21.6775 8.17419 20.9846 7.74041L12.9286 2.69666Z" fill="#363538"/>
<path d="M5.87326 13.484C5.64116 13.3508 5.35568 13.3514 5.1241 13.4855C4.89252 13.6196 4.74994 13.8669 4.74994 14.1345V18.3526C4.74994 19.6765 6.13488 20.4877 7.28654 19.999C8.64737 19.4216 10.5617 18.7501 11.9999 18.7501C13.4382 18.7501 15.3525 19.4216 16.7133 19.999C17.865 20.4877 19.2499 19.6765 19.2499 18.3526V14.1346C19.2499 13.867 19.1074 13.6196 18.8758 13.4855C18.6442 13.3514 18.3587 13.3509 18.1266 13.4841L12.4977 16.7146C12.1895 16.8915 11.8105 16.8915 11.5022 16.7146L5.87326 13.484Z" fill="#363538"/>
</svg>
