<svg xmlns="http://www.w3.org/2000/svg" fill="none" viewBox="0 0 3000 3000"><path fill="#94a9fa" d="M948.976 1728.51C974.264 1644.48 989.225 1594.69 1035.1 1543.97C1114.02 1456.75 1171.43 1489.31 1260.61 1404.56C1383.62 1287.69 1383.21 1218.24 1375.42 1109.47C1373.41 1081.55 1367.9 1054 1359.02 1027.46C1338.22 1026.66 1318.17 1019.48 1301.61 1006.87C1253.85 968.886 1247.83 865.715 1280.5 843C1286.57 838.779 1302.37 837.647 1325.5 843C1313.5 716.5 1311.91 624.931 1353.46 556.27C1314.03 541.172 1270.66 531.874 1215.59 531.29C1181.28 530.947 997.769 532.457 854.752 658.421C693.137 800.717 770.204 937.146 612.81 1265.28C491.307 1518.58 390.46 1551.83 399.588 1704.05C407.583 1837.18 495.665 1995.91 629.211 2040.31C733.352 2074.94 830.664 2028.48 915.109 1986.89C923.55 1839.58 936.657 1769.45 948.976 1728.51Z" class="color9745ff svgShape"/><path fill="#94a9fa" d="M2306.23 1658.78C2267.73 1200.5 2444.34 996.54 2302.15 850.984C2183.25 729.172 2047.41 858.979 1714.98 739.363C1719.95 768.134 1720.87 797.458 1717.73 826.484C1743.08 814.269 1756.02 818.523 1761.58 821.474C1790.95 837.018 1788.03 906.434 1765.01 953.511C1753.68 976.223 1737.05 995.876 1716.53 1010.81C1687.45 1122.26 1700.33 1240.5 1752.73 1343.07C1802.8 1381.89 1857.99 1413.62 1916.74 1437.36C1998.37 1470.03 2040.85 1467.9 2084.88 1511.17C2118.64 1544.38 2126.84 1578.35 2146.4 1638.3C2194.16 1784.75 2220.93 1813.91 2244.81 1888.41C2259.81 1935.24 2377.36 2301.95 2212.01 2515.79C2191.01 2542.97 2220.04 2531.09 2193.38 2550.1C2345.69 2542.14 2408.42 2540.01 2466.23 2450.18C2573.57 2283.32 2346.79 2141.4 2306.23 1658.78Z" class="color9745ff svgShape"/><path fill="#94a9fa" d="M695.676 2144.7C647.877 2141.64 583.54 2225.33 593.182 2304.63C600.56 2365.57 648.838 2400.95 662.872 2411.24C695.676 2435.26 763.581 2468.2 794.086 2444.04C851.766 2398.41 775.385 2149.77 695.676 2144.7Z" class="color9745ff svgShape"/><path fill="#1c1c1c" d="M765.914 2459.18C730.743 2459.18 685.622 2436.39 658.823 2416.77C615.897 2385.3 591.5 2347.83 586.354 2305.45C579.491 2249.25 607.559 2197.09 633.637 2169.47C654.225 2147.82 676.288 2136.6 696.121 2137.87C743.817 2140.89 783.894 2216.1 803.727 2279.58C822.874 2340.83 832.928 2422.05 798.34 2449.43C788.955 2456.27 777.517 2459.71 765.914 2459.18ZM693.136 2151.49C678.073 2151.49 660.161 2161.37 643.588 2178.94C619.569 2204.37 593.731 2252.34 599.976 2303.84C604.642 2342.31 627.186 2376.59 666.921 2405.72C701.234 2430.97 764.267 2458.9 789.831 2438.69C813.061 2420.3 813.404 2356.58 790.62 2283.7C766.978 2207.97 727.758 2153.65 695.263 2151.59C694.543 2151.49 693.857 2151.49 693.136 2151.49Z" class="color1d1d1b svgShape"/><path fill="#94a9fa" d="M2482.57 1322.69C2434.74 1317.17 2370.43 1468.8 2380.04 1612.5C2387.45 1722.92 2435.7 1787.05 2449.76 1805.72C2482.53 1849.26 2550.44 1908.93 2580.98 1865.15C2638.66 1782.49 2562.24 1331.89 2482.57 1322.69Z" class="color9745ff svgShape"/><path fill="#1c1c1c" d="M2552.63 1887.32C2513.17 1887.32 2466.03 1838.76 2444.27 1809.84C2402.1 1753.84 2378.22 1687.61 2373.21 1612.98C2365.32 1494.94 2406.19 1371.69 2449.28 1330.58C2460.85 1319.57 2472.34 1314.63 2483.36 1315.9C2502.02 1318.03 2520.41 1338.96 2538.05 1378.04C2565.5 1439.32 2590 1541.71 2601.56 1645.24C2607.43 1697.7 2617.69 1824.52 2586.6 1869.09C2583.04 1874.65 2578.14 1879.22 2572.36 1882.4C2566.58 1885.58 2560.09 1887.27 2553.49 1887.32H2552.63ZM2480.03 1329.42C2472.14 1329.42 2464.21 1335.35 2458.75 1340.54C2418.74 1378.66 2379.39 1499.58 2386.9 1612.06C2391.71 1684.11 2414.7 1747.76 2455.25 1801.6C2482.29 1837.49 2524.29 1873.66 2552.63 1873.66H2553.22C2557.65 1873.64 2562 1872.5 2565.88 1870.33C2569.75 1868.17 2573.01 1865.07 2575.35 1861.31C2618.72 1799.23 2581.29 1507.57 2525.53 1383.67C2510.46 1350.28 2494.95 1331.03 2481.78 1329.52C2481.2 1329.45 2480.61 1329.42 2480.03 1329.42Z" class="color1d1d1b svgShape"/><path fill="#94a9fa" d="M1590.67 458.514C1566.95 500.411 1681.63 618.62 1817.75 665.663C1922.37 701.795 2000.19 682.27 2022.87 676.575C2075.75 663.467 2157.11 623.972 2128.59 578.816C2074.93 493.548 1630.13 388.653 1590.67 458.514Z" class="color9745ff svgShape"/><path fill="#1c1c1c" d="M1939.87 693.728C1897.55 693.509 1855.57 686.214 1815.66 672.145C1703.86 633.508 1606.35 547.931 1585.11 492.207C1579.45 477.28 1579.34 464.756 1584.8 455.114C1594.06 438.747 1620.48 429.928 1663.34 428.899C1730.53 427.286 1834.32 444.683 1934.21 474.295C1984.82 489.324 2105.77 529.196 2134.63 575.176C2138.38 580.643 2140.7 586.96 2141.38 593.551C2142.06 600.143 2141.09 606.801 2138.54 612.92C2123.79 649.704 2060.04 674.684 2024.69 683.365C1996.95 690.29 1968.46 693.771 1939.87 693.728ZM1671.99 442.521C1669.14 442.521 1666.39 442.521 1663.68 442.521C1627.04 443.413 1603.29 450.242 1596.77 461.771C1592.59 469.182 1595.09 479.717 1597.94 487.265C1617.33 539.078 1713.4 622.288 1820.01 659.174C1888.13 682.713 1955.83 686.316 2021.19 669.914C2065.11 658.9 2115.11 633.989 2125.64 607.67C2127.34 603.578 2127.97 599.124 2127.49 594.72C2127 590.317 2125.41 586.108 2122.86 582.484C2083.27 519.623 1810.44 442.521 1671.85 442.521H1671.99Z" class="color1d1d1b svgShape"/><path fill="#fff" d="M651.48 1856.63C605.055 1856.63 568.065 1847.37 555.404 1821.46C526.615 1762.68 639.78 1658.34 739.802 1581.27C877.638 1474.9 1076.69 1352.95 1300.27 1238.14C1301.08 1237.73 1301.95 1237.48 1302.85 1237.4C1303.75 1237.33 1304.65 1237.43 1305.51 1237.71C1306.37 1237.98 1307.17 1238.43 1307.85 1239.01C1308.54 1239.59 1309.11 1240.31 1309.52 1241.11C1309.93 1241.91 1310.18 1242.79 1310.26 1243.68C1310.33 1244.58 1310.23 1245.49 1309.95 1246.35C1309.68 1247.2 1309.23 1248 1308.65 1248.69C1308.07 1249.38 1307.35 1249.94 1306.55 1250.36C798.615 1511 532.036 1742.51 567.722 1815.42C584.638 1849.98 672.309 1852.1 808.292 1821.26C809.181 1821.03 810.109 1820.98 811.018 1821.11C811.927 1821.25 812.8 1821.56 813.585 1822.04C814.369 1822.52 815.05 1823.15 815.586 1823.9C816.122 1824.65 816.502 1825.49 816.705 1826.39C816.907 1827.29 816.927 1828.22 816.764 1829.12C816.601 1830.02 816.257 1830.89 815.754 1831.66C815.251 1832.43 814.598 1833.09 813.835 1833.6C813.072 1834.11 812.214 1834.47 811.311 1834.64C758.949 1846.51 700.034 1856.63 651.48 1856.63Z" class="colord6f436 svgShape"/><path fill="#fff" d="M2150.24 1207.84C2148.78 1207.85 2147.35 1207.39 2146.16 1206.53C2144.98 1205.67 2144.1 1204.46 2143.65 1203.06C2143.21 1201.67 2143.22 1200.16 2143.69 1198.78C2144.16 1197.39 2145.06 1196.19 2146.26 1195.35C2286.95 1096.05 2340.96 1010.61 2307.09 941.433C2273.22 872.258 2078.87 911.512 1713.13 1061.87C1711.45 1062.56 1709.56 1062.56 1707.88 1061.86C1706.2 1061.16 1704.87 1059.82 1704.17 1058.13C1703.48 1056.45 1703.49 1054.56 1704.19 1052.88C1704.89 1051.2 1706.23 1049.87 1707.91 1049.18C1895.92 971.904 2035.95 924.826 2135.46 905.267C2239.25 884.885 2299.37 894.768 2319.27 935.429C2356.57 1011.54 2300.98 1102.77 2154.05 1206.5C2152.95 1207.32 2151.62 1207.79 2150.24 1207.84Z" class="colord6f436 svgShape"/><path fill="#fff" d="M1907.58 1277.29C1908.31 1277.53 1909.08 1277.66 1909.85 1277.67C1911.3 1277.67 1912.71 1277.2 1913.88 1276.35C1915.05 1275.49 1915.92 1274.28 1916.37 1272.9C1936.92 1213.85 1878.35 1132.83 1755.64 1050.65C1751.48 1047.87 1747.27 1045.1 1743 1042.34L1727.5 1048.82C1734.46 1053.24 1741.28 1057.7 1747.96 1062.18C1863.35 1139.46 1921.41 1216.63 1903.36 1268.54C1903.06 1269.39 1902.94 1270.3 1902.99 1271.2C1903.04 1272.1 1903.27 1272.98 1903.66 1273.79C1904.05 1274.61 1904.6 1275.33 1905.27 1275.93C1905.94 1276.53 1906.73 1277 1907.58 1277.29Z" class="colord6f436 svgShape"/><path fill="#fff" d="M839.928 898.373C861.511 836.369 985.622 814.683 1163.88 841.756C1215.81 849.624 1270.97 861.587 1327 877.041V862.734C1273.99 848.375 1220.23 836.834 1165.94 828.168C977.97 799.654 851.217 824.188 826.992 893.843C802.321 964.666 893.422 1067.81 1064.71 1163C1065.5 1163.43 1066.37 1163.71 1067.26 1163.81C1068.16 1163.91 1069.07 1163.84 1069.93 1163.59C1070.8 1163.34 1071.61 1162.93 1072.32 1162.36C1073.02 1161.8 1073.61 1161.11 1074.05 1160.32C1074.48 1159.53 1074.76 1158.66 1074.86 1157.77C1074.97 1156.87 1074.89 1155.96 1074.64 1155.1C1074.39 1154.23 1073.98 1153.42 1073.41 1152.72C1072.85 1152.01 1072.16 1151.42 1071.37 1150.99C908.829 1060.64 817.968 961.475 839.928 898.373Z" class="colord6f436 svgShape"/><path fill="#1c1c1c" d="M724.19 2584.45C722.369 2584.45 720.624 2583.73 719.337 2582.44C718.05 2581.16 717.327 2579.41 717.327 2577.59C717.327 2575.77 718.05 2574.02 719.337 2572.74C720.624 2571.45 722.369 2570.73 724.19 2570.73L2499.31 2563.86C2501.13 2563.86 2502.88 2564.59 2504.16 2565.87C2505.45 2567.16 2506.17 2568.91 2506.17 2570.73C2506.17 2572.55 2505.45 2574.29 2504.16 2575.58C2502.88 2576.87 2501.13 2577.59 2499.31 2577.59L724.224 2584.45H724.19Z" class="color1d1d1b svgShape"/><path fill="#ffb391" d="M1329.68 874.905C1329.68 893.949 1314.24 878.336 1295.16 878.336C1276.08 878.336 1260.64 894.017 1260.64 874.905C1260.64 865.75 1264.28 856.97 1270.75 850.496C1277.22 844.023 1286 840.386 1295.16 840.386C1304.31 840.386 1313.09 844.023 1319.57 850.496C1326.04 856.97 1329.68 865.75 1329.68 874.905Z" class="colorf9afd1 svgShape"/><path fill="#ffb391" d="M1785.46 864.028C1780.35 882.386 1769.64 863.136 1751.15 857.989C1732.65 852.842 1713.71 863.822 1718.82 845.465C1720.04 841.09 1722.11 836.997 1724.91 833.421C1727.71 829.845 1731.19 826.856 1735.15 824.624C1739.1 822.392 1743.46 820.961 1747.97 820.413C1752.48 819.865 1757.05 820.21 1761.42 821.429C1765.8 822.647 1769.89 824.716 1773.47 827.517C1777.04 830.317 1780.03 833.795 1782.27 837.75C1784.5 841.706 1785.93 846.063 1786.48 850.572C1787.02 855.08 1786.68 859.653 1785.46 864.028Z" class="colorf9afd1 svgShape"/><path fill="#1c1c1c" d="M1542.01 1207.74H1540.05C1426.82 1206.71 1394.22 1157.44 1360.39 1087.89C1326.56 1018.33 1315.13 791.901 1314.65 782.294C1314.56 780.473 1315.2 778.692 1316.42 777.34C1317.64 775.989 1319.35 775.179 1321.17 775.088C1322.99 774.997 1324.77 775.633 1326.12 776.855C1327.47 778.078 1328.28 779.787 1328.38 781.607C1328.38 783.941 1340.21 1014.94 1372.74 1081.88C1405.27 1148.83 1434.51 1193.06 1540.19 1194.02C1631.12 1194.91 1684.75 1139.12 1697.14 1103.98C1706.4 1077.59 1708.84 963.295 1710.04 908.566C1710.32 894.841 1710.56 883.963 1710.8 877.684C1712.75 829.817 1701.12 686.045 1701.02 684.604C1700.87 682.784 1701.45 680.98 1702.64 679.591C1703.82 678.201 1705.51 677.338 1707.33 677.192C1709.15 677.047 1710.95 677.63 1712.34 678.814C1713.73 679.998 1714.6 681.686 1714.74 683.506C1715.22 689.442 1726.55 829.543 1724.59 878.233C1724.35 884.307 1724.11 895.081 1723.8 908.772C1722.53 968.614 1720.16 1079.96 1710.08 1108.41C1693.09 1156.82 1628.51 1207.74 1542.01 1207.74Z" class="color1d1d1b svgShape"/><path fill="#1c1c1c" d="M1532.37 974.14H1530.24C1526.71 974.022 1523.25 973.127 1520.11 971.52C1516.97 969.913 1514.22 967.632 1512.05 964.841C1493.83 942.126 1504.03 882.49 1505.19 875.798C1505.35 874.911 1505.69 874.064 1506.18 873.306C1506.67 872.548 1507.3 871.893 1508.04 871.38C1508.79 870.867 1509.62 870.506 1510.51 870.316C1511.39 870.126 1512.3 870.112 1513.19 870.274C1514.07 870.436 1514.92 870.772 1515.68 871.261C1516.44 871.751 1517.09 872.385 1517.6 873.127C1518.12 873.87 1518.48 874.706 1518.67 875.588C1518.86 876.47 1518.87 877.381 1518.71 878.269C1515.69 894.808 1510.58 941.131 1522.73 956.263C1523.66 957.516 1524.86 958.541 1526.24 959.26C1527.63 959.979 1529.16 960.374 1530.72 960.415C1533.85 960.78 1537.03 960.486 1540.04 959.553C1543.06 958.619 1545.84 957.066 1548.22 954.993C1552.23 950.196 1554.32 944.084 1554.09 937.837C1553.98 936.017 1554.6 934.228 1555.81 932.863C1557.02 931.499 1558.72 930.671 1560.54 930.562C1562.36 930.453 1564.15 931.071 1565.51 932.281C1566.88 933.491 1567.7 935.193 1567.81 937.013C1567.81 937.665 1568.74 953.518 1558.14 964.464C1554.74 967.758 1550.69 970.317 1546.26 971.981C1541.83 973.646 1537.1 974.381 1532.37 974.14Z" class="color1d1d1b svgShape"/><path fill="#1c1c1c" d="M1716.49 1017.68C1714.67 1017.68 1712.93 1016.96 1711.64 1015.67C1710.35 1014.39 1709.63 1012.64 1709.63 1010.82C1709.63 1009 1710.35 1007.25 1711.64 1005.97C1712.93 1004.68 1714.67 1003.96 1716.49 1003.96C1731.73 1003.96 1745.21 994.796 1756.57 976.713C1781.27 937.424 1786.97 868.695 1774.14 842.068C1769.51 832.46 1763.19 826.524 1755.37 824.397C1739.58 820.142 1721.78 832.014 1721.57 832.151C1720.06 833.175 1718.21 833.559 1716.42 833.218C1714.63 832.877 1713.05 831.839 1712.03 830.333C1711.01 828.827 1710.62 826.976 1710.96 825.187C1711.31 823.398 1712.34 821.818 1713.85 820.794C1714.78 820.176 1736.94 805.284 1758.87 811.117C1770.74 814.309 1780.04 822.715 1786.32 836.132C1800.9 866.362 1795.34 940.547 1768.03 984.021C1754.37 1006.05 1736.5 1017.68 1716.49 1017.68Z" class="color1d1d1b svgShape"/><path fill="#1c1c1c" d="M1343.4 1036.8C1320.31 1036.8 1299.96 1025.09 1284.52 1002.93C1256.25 962.302 1248.73 891.857 1261.12 858.333C1266.58 843.578 1275.12 834.314 1286.51 830.711C1305.83 824.638 1325.39 838.02 1326.21 838.603C1327 839.094 1327.69 839.741 1328.22 840.505C1328.75 841.268 1329.13 842.132 1329.32 843.044C1329.5 843.956 1329.5 844.897 1329.32 845.809C1329.13 846.721 1328.76 847.586 1328.23 848.351C1327.7 849.116 1327.02 849.764 1326.23 850.257C1325.44 850.75 1324.55 851.076 1323.63 851.217C1322.71 851.358 1321.77 851.311 1320.87 851.077C1319.97 850.843 1319.13 850.428 1318.39 849.858C1318.22 849.858 1303.43 839.735 1290.6 843.819C1283.46 846.083 1277.9 852.568 1273.99 863.103C1264.31 889.249 1268.05 955.268 1295.78 995.071C1308.71 1013.67 1324.74 1023.07 1343.4 1023.07C1345.22 1023.07 1346.97 1023.79 1348.26 1025.08C1349.54 1026.37 1350.27 1028.11 1350.27 1029.93C1350.27 1031.75 1349.54 1033.5 1348.26 1034.79C1346.97 1036.07 1345.22 1036.8 1343.4 1036.8Z" class="color1d1d1b svgShape"/><path fill="#1c1c1c" d="M1626.87 802.774C1626.87 820.205 1621.55 834.342 1615.03 834.342C1608.51 834.342 1603.19 820.205 1603.19 802.774C1603.19 785.342 1608.47 775.117 1615.03 775.117C1621.58 775.117 1626.87 785.342 1626.87 802.774Z" class="color1d1d1b svgShape"/><path fill="#1c1c1c" d="M1448.13 805.897C1448.13 823.328 1442.84 837.431 1436.29 837.431C1429.74 837.431 1424.45 823.328 1424.45 805.897C1424.45 788.466 1429.77 778.207 1436.29 778.207C1442.81 778.207 1448.13 788.466 1448.13 805.897Z" class="color1d1d1b svgShape"/><path fill="#1c1c1c" d="M892.907 2364.82C891.178 2364.82 889.511 2364.17 888.239 2363C886.967 2361.83 886.183 2360.23 886.045 2358.5C879.182 2276.43 899.324 2000.48 905.672 1917.85C914.696 1799.61 958.754 1580.07 1066.5 1507.23C1080.53 1497.76 1117.97 1476.14 1170.23 1449.17C1215.66 1425.7 1252.34 1394.85 1276.08 1373.68L1277.08 1372.51C1309.4 1334.77 1376.59 1256.6 1374.08 1200.43C1372.27 1163.7 1368.13 1127.11 1361.66 1090.91C1361.43 1090 1361.38 1089.06 1361.53 1088.13C1361.68 1087.21 1362.01 1086.32 1362.51 1085.53C1363.01 1084.74 1363.67 1084.06 1364.44 1083.54C1365.21 1083.01 1366.08 1082.64 1367 1082.47C1367.92 1082.29 1368.86 1082.3 1369.78 1082.5C1370.69 1082.7 1371.55 1083.09 1372.31 1083.63C1373.07 1084.18 1373.71 1084.87 1374.19 1085.68C1374.67 1086.48 1374.99 1087.37 1375.11 1088.3C1381.71 1125.16 1385.95 1162.41 1387.81 1199.82C1390.65 1261.58 1323.54 1339.5 1287.47 1381.47L1286.2 1382.94L1285.59 1383.6C1261.29 1405.39 1223.58 1437.16 1176.51 1461.45C1124.83 1488.15 1087.87 1509.49 1074.18 1518.69C970.558 1588.76 927.598 1811.17 919.328 1918.99C913.049 2001.34 892.976 2276.39 899.736 2357.47C899.811 2358.37 899.708 2359.28 899.433 2360.14C899.158 2361 898.716 2361.79 898.133 2362.48C897.55 2363.17 896.836 2363.74 896.034 2364.15C895.232 2364.56 894.356 2364.81 893.456 2364.88L892.907 2364.82Z" class="color1d1d1b svgShape"/><path fill="#1c1c1c" d="M1397.72 754.123C1396.32 754.122 1394.96 753.694 1393.81 752.896C1392.66 752.099 1391.79 750.969 1391.3 749.66C1390.81 748.35 1390.73 746.922 1391.08 745.567C1391.42 744.212 1392.17 742.995 1393.23 742.079C1436.84 704.334 1468.1 724.03 1469.4 724.922C1470.94 725.905 1472.02 727.457 1472.41 729.236C1472.8 731.015 1472.46 732.876 1471.48 734.41C1470.5 735.943 1468.94 737.023 1467.16 737.413C1465.39 737.802 1463.52 737.468 1461.99 736.486C1460.89 735.799 1437.49 722.108 1402.18 752.544C1400.93 753.582 1399.35 754.142 1397.72 754.123Z" class="color1d1d1b svgShape"/><path fill="#1c1c1c" d="M1655.96 747.326C1654.39 747.332 1652.87 746.799 1651.64 745.816C1616.19 715.277 1592.79 729.174 1591.83 729.792C1590.29 730.752 1588.44 731.063 1586.67 730.658C1584.9 730.253 1583.36 729.164 1582.4 727.63C1581.43 726.11 1581.11 724.273 1581.49 722.515C1581.86 720.757 1582.92 719.217 1584.42 718.228C1585.72 717.37 1616.95 697.64 1660.59 735.385C1661.66 736.298 1662.43 737.518 1662.78 738.879C1663.13 740.24 1663.06 741.676 1662.57 742.994C1662.08 744.312 1661.19 745.447 1660.04 746.246C1658.88 747.045 1657.51 747.47 1656.1 747.463L1655.96 747.326Z" class="color1d1d1b svgShape"/><path fill="#1c1c1c" d="M1134.16 1593.59C1133.06 1593.59 1131.97 1593.33 1130.99 1592.82C1130.01 1592.31 1129.17 1591.58 1128.54 1590.67C1110.14 1564.67 1047.8 1548.95 1047.18 1548.78C1046.31 1548.55 1045.48 1548.16 1044.76 1547.62C1044.04 1547.07 1043.43 1546.39 1042.98 1545.62C1042.05 1544.05 1041.78 1542.17 1042.24 1540.41C1042.69 1538.64 1043.83 1537.13 1045.4 1536.2C1046.97 1535.28 1048.85 1535.01 1050.61 1535.47C1053.36 1536.15 1118.55 1552.62 1139.83 1582.75C1140.35 1583.48 1140.72 1584.32 1140.92 1585.2C1141.12 1586.08 1141.14 1586.99 1140.99 1587.88C1140.83 1588.77 1140.51 1589.62 1140.03 1590.38C1139.54 1591.14 1138.92 1591.8 1138.18 1592.32C1137.01 1593.16 1135.6 1593.6 1134.16 1593.59Z" class="color1d1d1b svgShape"/><path fill="#1c1c1c" d="M2063.4 1597.81C2061.59 1597.81 2059.85 1597.1 2058.56 1595.82C2057.92 1595.18 2057.42 1594.43 2057.07 1593.59C2056.72 1592.76 2056.55 1591.87 2056.55 1590.97C2056.55 1590.06 2056.72 1589.17 2057.07 1588.34C2057.42 1587.51 2057.92 1586.75 2058.56 1586.11L2098.64 1545.62C2099.94 1544.43 2101.64 1543.79 2103.41 1543.82C2105.17 1543.85 2106.85 1544.56 2108.1 1545.8C2109.35 1547.04 2110.08 1548.72 2110.13 1550.48C2110.19 1552.24 2109.56 1553.95 2108.38 1555.26L2068.3 1595.79C2067.66 1596.43 2066.9 1596.95 2066.05 1597.29C2065.21 1597.64 2064.31 1597.82 2063.4 1597.81Z" class="color1d1d1b svgShape"/><path fill="#1c1c1c" d="M1501.86 578.028C1501.86 578.028 1496.99 680.007 1350.64 694.693C1350.64 694.693 1354.8 722.452 1328.44 726.604C1328.44 726.604 1333.32 789.706 1314.72 787.647C1314.72 787.647 1240.5 717.58 1295.3 603.145C1350.1 488.711 1447.89 392.291 1535.28 440.844C1535.28 440.844 1608.78 380.487 1685.09 478.314C1761.41 576.141 1740 709.276 1715.6 726.604L1698.96 686.389C1698.96 686.389 1653.18 688.448 1632.39 668.34C1632.25 668.203 1523.34 704.952 1501.86 578.028Z" class="color1d1d1b svgShape"/><path fill="#1c1c1c" d="M1315.37 794.406C1314.81 794.441 1314.25 794.441 1313.69 794.406C1312.21 794.263 1310.82 793.622 1309.74 792.587C1308.96 791.867 1232.54 717.75 1288.85 600.159C1331.84 510.327 1392.58 445.51 1451.29 426.775C1464.83 422.121 1479.18 420.251 1493.47 421.277C1507.75 422.303 1521.68 426.203 1534.43 432.745C1553.96 419.611 1577.47 413.724 1600.89 416.103C1632.94 419.535 1663.03 439.162 1690.11 474.058C1740.61 538.738 1750.05 620.61 1742.09 675.614C1738.01 703.682 1729.46 724.819 1719.2 732.162C1718.36 732.754 1717.4 733.15 1716.38 733.32C1715.37 733.49 1714.33 733.43 1713.34 733.143C1712.35 732.856 1711.44 732.351 1710.67 731.664C1709.91 730.978 1709.3 730.127 1708.91 729.176L1694.05 693.25C1681.8 693.25 1649.44 691.5 1630.33 676.094C1618.15 679.354 1579.82 687.074 1545.99 666.864C1525.4 654.58 1510.51 634.403 1501.38 606.713C1488.79 639.104 1453.86 689.304 1357.47 700.902C1357.03 712.088 1352.02 726.706 1335.34 732.059C1336.06 746.813 1336.3 779.72 1325.05 790.391C1322.46 792.928 1318.99 794.367 1315.37 794.406ZM1486.56 434.701C1475.98 434.761 1465.48 436.474 1455.44 439.779C1401.09 456.936 1342 520.758 1301.2 605.958C1254.71 703.098 1303.74 765.788 1316.44 779.685C1321.55 773.029 1323.06 747.671 1321.48 726.98C1321.35 725.261 1321.87 723.554 1322.93 722.199C1324 720.845 1325.54 719.942 1327.24 719.672C1346.12 716.686 1344.02 697.711 1343.71 695.652C1343.58 694.733 1343.64 693.797 1343.88 692.9C1344.12 692.004 1344.55 691.166 1345.12 690.437C1345.69 689.708 1346.4 689.102 1347.21 688.653C1348.01 688.205 1348.9 687.925 1349.82 687.829C1488.69 674.104 1494.8 578.782 1494.86 577.821C1494.75 576.001 1495.37 574.212 1496.58 572.848C1497.79 571.484 1499.49 570.656 1501.31 570.547C1503.13 570.437 1504.92 571.056 1506.29 572.266C1507.65 573.475 1508.48 575.177 1508.59 576.998C1514.97 614.742 1529.97 640.992 1553.2 654.888C1587.75 675.476 1629.71 661.751 1630.13 661.751C1631.31 661.37 1632.57 661.315 1633.78 661.593C1634.98 661.871 1636.09 662.471 1636.99 663.329C1655.38 681.138 1698.07 679.457 1698.48 679.457C1699.89 679.391 1701.28 679.761 1702.47 680.516C1703.66 681.271 1704.59 682.375 1705.13 683.677L1717.35 713.221C1723.29 700.737 1727.13 687.358 1728.71 673.623C1736.29 621.399 1727.34 543.748 1679.5 482.465C1654.66 450.588 1627.72 432.848 1599.48 429.726C1578.15 427.604 1556.78 433.432 1539.47 446.093C1538.41 446.965 1537.1 447.496 1535.73 447.619C1534.36 447.741 1532.99 447.449 1531.78 446.779C1518.05 438.938 1502.52 434.778 1486.7 434.701H1486.56Z" class="color1d1d1b svgShape"/><path fill="#1c1c1c" d="M1284.08 902.561H1283.12C1281.32 902.306 1279.69 901.346 1278.59 899.892C1277.5 898.437 1277.03 896.608 1277.28 894.806C1278.04 889.316 1280.41 872.571 1292.79 869.003C1305.18 865.434 1317.53 878.919 1319.83 881.664C1320.91 883.067 1321.4 884.83 1321.21 886.587C1321.02 888.344 1320.15 889.959 1318.8 891.096C1317.45 892.232 1315.71 892.803 1313.94 892.689C1312.18 892.575 1310.53 891.785 1309.33 890.483C1305.49 885.954 1299.24 881.424 1296.57 882.213C1295.16 882.625 1292.35 886.125 1290.87 896.728C1290.63 898.353 1289.8 899.835 1288.56 900.905C1287.31 901.976 1285.72 902.563 1284.08 902.561Z" class="color1d1d1b svgShape"/><path fill="#1c1c1c" d="M1762.64 901.188H1762.47C1760.68 901.143 1758.98 900.401 1757.73 899.118C1756.48 897.836 1755.78 896.116 1755.78 894.325C1756.33 868.213 1742.67 862.277 1742.05 862.037C1740.38 861.358 1739.03 860.043 1738.32 858.378C1737.61 856.713 1737.58 854.834 1738.25 853.15C1738.9 851.487 1740.18 850.144 1741.8 849.408C1743.43 848.671 1745.28 848.598 1746.96 849.204C1747.89 849.547 1770.26 858.262 1769.47 894.634C1769.39 896.394 1768.64 898.057 1767.37 899.277C1766.1 900.497 1764.4 901.181 1762.64 901.188Z" class="color1d1d1b svgShape"/><path fill="#1c1c1c" d="M1549.32 1074.64C1521.87 1074.64 1496.65 1061.43 1480.38 1050.38C1466.45 1040.88 1448.13 1014.01 1447.34 1012.88C1446.62 1011.82 1446.21 1010.58 1446.15 1009.3C1446.1 1008.02 1446.4 1006.75 1447.03 1005.64C1447.67 1004.53 1448.6 1003.63 1449.72 1003.02C1450.84 1002.42 1452.11 1002.13 1453.38 1002.21C1454.65 1002.21 1581.06 1008.52 1626.01 996.477C1627.28 996.137 1628.62 996.168 1629.87 996.566C1631.12 996.965 1632.23 997.715 1633.07 998.727C1633.91 999.739 1634.44 1000.97 1634.6 1002.27C1634.76 1003.58 1634.54 1004.9 1633.97 1006.08C1633.45 1007.18 1620.72 1033.78 1610.5 1045C1598.15 1058.48 1577.52 1074.64 1549.32 1074.64ZM1466.97 1016.48C1473.42 1024.85 1481.82 1034.74 1488.1 1039.03C1502.79 1049.01 1525.3 1060.92 1549.32 1060.92C1572.51 1060.92 1589.88 1047.19 1600.34 1035.7C1606.06 1028.55 1611.03 1020.84 1615.16 1012.67C1572.27 1019.47 1498.12 1017.65 1466.97 1016.48Z" class="color1d1d1b svgShape"/><path fill="#1c1c1c" d="M1544.07 1109.71C1531.61 1109.45 1519.33 1106.72 1507.94 1101.68C1506.28 1100.9 1505.01 1099.5 1504.39 1097.79C1503.77 1096.07 1503.85 1094.18 1504.63 1092.53C1505.4 1090.88 1506.8 1089.6 1508.51 1088.98C1510.23 1088.36 1512.12 1088.45 1513.77 1089.22C1514.15 1089.39 1549.22 1105.45 1569.32 1087.3C1570.69 1086.08 1572.48 1085.45 1574.31 1085.55C1576.14 1085.66 1577.85 1086.48 1579.07 1087.85C1580.29 1089.21 1580.91 1091.01 1580.81 1092.83C1580.71 1094.66 1579.88 1096.37 1578.52 1097.59C1568.97 1105.83 1556.67 1110.16 1544.07 1109.71Z" class="color1d1d1b svgShape"/><path fill="#1c1c1c" d="M2302.56 2334.1H2301.74C2299.93 2333.89 2298.28 2332.96 2297.16 2331.53C2296.03 2330.11 2295.52 2328.29 2295.73 2326.48C2324.42 2088.52 2225.25 1852.07 2171.96 1725.01C2158.41 1692.72 2148.63 1669.35 2144.51 1654.67C2104.09 1505.3 2013.64 1470.82 1940.93 1443.09C1926.56 1437.6 1912.93 1432.42 1900.75 1426.69C1884.76 1419.14 1867.4 1412.24 1849.04 1404.94C1795.14 1383.49 1739.24 1361.32 1717.66 1321.73C1689.45 1270.26 1695.49 1113.96 1695.77 1107.34C1695.8 1106.44 1696.02 1105.55 1696.39 1104.73C1696.77 1103.91 1697.31 1103.18 1697.97 1102.57C1698.63 1101.95 1699.41 1101.48 1700.26 1101.17C1701.1 1100.85 1702 1100.71 1702.9 1100.75C1703.8 1100.79 1704.69 1101 1705.51 1101.38C1706.33 1101.75 1707.06 1102.29 1707.68 1102.95C1708.29 1103.62 1708.76 1104.39 1709.07 1105.24C1709.39 1106.09 1709.53 1106.99 1709.49 1107.89C1709.49 1109.5 1703.35 1267.1 1729.74 1315.14C1749.12 1350.41 1802.51 1371.65 1854.12 1392.17C1871.9 1399.24 1890.29 1406.55 1906.62 1414.27C1918.36 1419.79 1931.7 1424.87 1945.87 1430.26C2017.49 1457.71 2115.55 1494.94 2157.79 1651.06C2161.53 1664.79 2171.69 1689.08 2184.52 1719.69C2238.29 1847.88 2338.38 2086.53 2309.25 2328.06C2309.05 2329.71 2308.27 2331.22 2307.04 2332.33C2305.81 2333.44 2304.22 2334.07 2302.56 2334.1Z" class="color1d1d1b svgShape"/><path fill="#1c1c1c" d="M1080.84 2087.46C1079.02 2087.46 1077.28 2086.74 1075.99 2085.45C1074.7 2084.17 1073.98 2082.42 1073.98 2080.6L1070.89 1960.68C1070.84 1958.86 1071.52 1957.09 1072.78 1955.77C1074.03 1954.45 1075.76 1953.69 1077.58 1953.64C1079.4 1953.6 1081.16 1954.28 1082.48 1955.53C1083.8 1956.79 1084.57 1958.51 1084.62 1960.33L1087.7 2080.26C1087.75 2081.17 1087.61 2082.09 1087.3 2082.95C1086.99 2083.81 1086.5 2084.6 1085.88 2085.27C1085.25 2085.94 1084.5 2086.48 1083.67 2086.86C1082.83 2087.24 1081.93 2087.44 1081.01 2087.46H1080.84Z" class="color1d1d1b svgShape"/><path fill="#1c1c1c" d="M1145.79 2581.57C1124.05 2581.55 1102.38 2578.92 1081.25 2573.75C1029.78 2561.19 957.725 2527.97 904.985 2441.06C886.937 2411.24 878.839 2326.18 911.368 2250.31C951.377 2156.98 1047.49 2093.05 1071.88 2077.96C1046.42 2033.8 951.583 2018.32 950.622 2018.15C949.711 2018.03 948.834 2017.74 948.04 2017.27C947.247 2016.81 946.555 2016.2 946.004 2015.46C945.453 2014.73 945.054 2013.89 944.832 2013C944.611 2012.11 944.57 2011.18 944.712 2010.28C944.854 2009.37 945.177 2008.5 945.661 2007.72C946.145 2006.94 946.78 2006.27 947.53 2005.74C948.279 2005.21 949.127 2004.83 950.024 2004.64C950.92 2004.44 951.847 2004.43 952.749 2004.6C957.279 2005.32 1063.65 2022.75 1087.15 2077.89C1087.81 2079.43 1087.89 2081.17 1087.36 2082.76C1086.82 2084.35 1085.73 2085.7 1084.27 2086.54C1083.1 2087.19 967.161 2154.96 923.96 2255.7C894.382 2324.7 899.941 2406.03 916.72 2434.13C978.038 2535.35 1070.17 2567.95 1144.22 2567.95C1182.96 2567.95 1216.72 2559.06 1238.54 2546.43C1286.58 2518.74 1325.12 2444.87 1359.19 2379.67C1375.97 2347.59 1391.79 2317.29 1407.23 2295.19C1407.67 2294.47 1472.18 2192.6 1486.35 2155.26C1500.08 2119.1 1492.25 2073.26 1492.19 2072.91C1491.88 2071.13 1492.29 2069.29 1493.33 2067.8C1494.37 2066.32 1495.96 2065.31 1497.74 2064.99C1499.53 2064.67 1501.37 2065.07 1502.87 2066.1C1504.36 2067.14 1505.38 2068.72 1505.71 2070.51C1506.05 2072.54 1514.32 2120.51 1499.19 2160.27C1484.5 2198.91 1421.3 2298.73 1418.62 2302.98C1403.42 2324.6 1387.74 2354.45 1371.23 2386.16C1336.27 2453 1296.64 2528.76 1245.27 2558.44C1218.68 2573.51 1183.33 2581.57 1145.79 2581.57Z" class="color1d1d1b svgShape"/><path fill="#1c1c1c" d="M1485.22 2059.74C1483.59 2059.69 1482.02 2059.06 1480.81 2057.96C1479.6 2056.86 1478.82 2055.37 1478.61 2053.75C1478.4 2052.12 1478.78 2050.48 1479.68 2049.11C1480.58 2047.74 1481.93 2046.74 1483.51 2046.29C1483.99 2046.29 1534.05 2031.77 1561.09 2010.6C1562.52 2009.48 1564.34 2008.97 1566.15 2009.19C1567.96 2009.41 1569.61 2010.33 1570.73 2011.77C1571.85 2013.2 1572.36 2015.02 1572.14 2016.83C1571.92 2018.64 1571 2020.29 1569.56 2021.41C1540.4 2044.26 1489.41 2058.88 1487.21 2059.5C1486.56 2059.67 1485.89 2059.75 1485.22 2059.74Z" class="color1d1d1b svgShape"/><path fill="#1c1c1c" d="M1558.99 2073.74C1557.71 2073.74 1556.45 2073.38 1555.36 2072.7C1554.26 2072.02 1553.38 2071.05 1552.82 2069.9C1546.85 2057.61 1538.24 2045.64 1534.63 2044.5C1532.87 2044.56 1531.15 2043.94 1529.83 2042.76C1528.52 2041.59 1527.7 2039.95 1527.56 2038.19C1527.49 2037.29 1527.6 2036.39 1527.88 2035.53C1528.16 2034.67 1528.61 2033.88 1529.19 2033.19C1529.78 2032.51 1530.49 2031.95 1531.3 2031.54C1532.1 2031.13 1532.98 2030.88 1533.88 2030.81C1546.61 2029.78 1558.96 2051.09 1565.17 2063.86C1565.57 2064.67 1565.8 2065.55 1565.86 2066.45C1565.92 2067.35 1565.8 2068.26 1565.5 2069.11C1565.21 2069.96 1564.75 2070.75 1564.15 2071.43C1563.55 2072.11 1562.83 2072.66 1562.01 2073.05C1561.07 2073.51 1560.04 2073.74 1558.99 2073.74Z" class="color1d1d1b svgShape"/><path fill="#1c1c1c" d="M1718.48 1327.42C1716.91 1327.42 1715.38 1326.88 1714.15 1325.89C1712.93 1324.9 1712.08 1323.52 1711.76 1321.98C1711.43 1320.44 1711.65 1318.83 1712.36 1317.43C1713.08 1316.03 1714.26 1314.92 1715.7 1314.28C1717.59 1313.46 1719.48 1312.7 1721.36 1311.98C1722.21 1311.66 1723.11 1311.5 1724.01 1311.52C1724.91 1311.55 1725.8 1311.75 1726.63 1312.11C1727.45 1312.48 1728.2 1313 1728.82 1313.66C1729.44 1314.31 1729.93 1315.08 1730.25 1315.93C1730.58 1316.77 1730.73 1317.67 1730.71 1318.57C1730.69 1319.47 1730.49 1320.36 1730.12 1321.19C1729.75 1322.01 1729.23 1322.76 1728.57 1323.38C1727.92 1324 1727.15 1324.49 1726.31 1324.81C1724.62 1325.43 1722.87 1326.08 1721.26 1326.84C1720.38 1327.22 1719.44 1327.41 1718.48 1327.42Z" class="color1d1d1b svgShape"/><path fill="#1c1c1c" d="M1410.62 1365.99C1409.5 1365.98 1408.39 1365.7 1407.4 1365.17C1355.93 1337.89 1329.75 1329.65 1329.47 1329.58C1327.82 1328.99 1326.45 1327.77 1325.67 1326.2C1324.88 1324.62 1324.73 1322.8 1325.24 1321.12C1325.76 1319.44 1326.9 1318.01 1328.44 1317.15C1329.97 1316.29 1331.78 1316.04 1333.49 1316.48C1334.59 1316.79 1361.14 1325.05 1413.85 1353.05C1415.21 1353.77 1416.29 1354.92 1416.92 1356.32C1417.55 1357.73 1417.69 1359.3 1417.31 1360.79C1416.94 1362.28 1416.08 1363.6 1414.87 1364.55C1413.66 1365.49 1412.16 1366 1410.62 1365.99Z" class="color1d1d1b svgShape"/><path fill="#ffb391" d="M1290.41 1770.59C1303.53 1751.78 1307.1 1731.61 1298.39 1725.55C1289.69 1719.48 1272 1729.81 1258.89 1748.62C1245.77 1767.43 1242.2 1787.6 1250.91 1793.67C1259.61 1799.73 1277.3 1789.41 1290.41 1770.59Z" class="colorf9afd1 svgShape"/><path fill="#ffb391" d="M1408.68 1865.48C1422.82 1851.34 1425.03 1830.64 1413.63 1819.23C1402.23 1807.83 1381.52 1810.05 1367.38 1824.18C1353.25 1838.32 1351.03 1859.03 1362.43 1870.43C1373.84 1881.83 1394.54 1879.62 1408.68 1865.48Z" class="colorf9afd1 svgShape"/><path fill="#ffb391" d="M1485.51 1955.34C1503.56 1942.62 1512.04 1923.59 1504.46 1912.82C1496.87 1902.06 1476.09 1903.64 1458.04 1916.35C1439.99 1929.07 1431.51 1948.11 1439.1 1958.87C1446.69 1969.64 1467.47 1968.06 1485.51 1955.34Z" class="colorf9afd1 svgShape"/><path fill="#1c1c1c" d="M1417.08 1161.56C1417.08 1161.56 1432.62 1225.82 1527.94 1226.75C1621.72 1227.54 1641.55 1177.1 1641.55 1177.1C1641.55 1177.1 1496.27 1250.77 1417.08 1161.56Z" class="color1d1d1b svgShape"/><path fill="#1c1c1c" d="M1530.07 1233.47H1527.87C1428.36 1232.65 1410.56 1163.89 1410.42 1163.17C1410.07 1161.68 1410.22 1160.12 1410.86 1158.73C1411.49 1157.34 1412.57 1156.21 1413.93 1155.5C1415.28 1154.8 1416.84 1154.56 1418.34 1154.84C1419.84 1155.12 1421.21 1155.88 1422.22 1157.03C1496.92 1241.16 1637.06 1171.54 1638.4 1170.75C1639.64 1170.11 1641.05 1169.87 1642.43 1170.06C1643.81 1170.24 1645.11 1170.84 1646.14 1171.78C1647.18 1172.72 1647.9 1173.95 1648.21 1175.31C1648.53 1176.68 1648.42 1178.1 1647.9 1179.4C1647.08 1181.59 1625.6 1233.47 1530.07 1233.47ZM1447.2 1194.36C1462.64 1207.5 1487.73 1219.44 1528.01 1219.75H1530.07C1578.11 1219.75 1605.11 1206.02 1619.73 1193.5C1581.54 1207.47 1506.77 1226.96 1447.2 1194.36Z" class="color1d1d1b svgShape"/><path fill="#fff" d="M1849.46 1470.75C1837 1469.81 1824.47 1470.9 1812.36 1473.98C1784.19 1481.73 1779.97 1500.5 1814.8 1507.47C1820.21 1508.54 1825.69 1509.26 1831.2 1509.63C1825.02 1512.37 1819.49 1514.91 1814.59 1517.24C1773.42 1536.77 1776.85 1541.26 1811.16 1547.68C1837.03 1552.35 1880.41 1557.97 1934.93 1571.43C1871.72 1571.73 1828.56 1573.96 1802.38 1581.72C1789.44 1585.49 1780.59 1590.64 1775.51 1597.5C1768.87 1591.11 1761.5 1585.52 1753.55 1580.86C1735.84 1570.57 1714.84 1566.07 1700.71 1584.29C1687.84 1600.9 1683.14 1617.99 1688.39 1639.88C1659.22 1642.18 1640.35 1667.33 1617.46 1714.03C1616.17 1707.64 1614.55 1701.31 1612.59 1695.09V1694.88C1604.18 1669.22 1592.18 1659.61 1576.12 1660.12C1571.54 1660.33 1567 1661.13 1562.63 1662.53C1562.71 1658.89 1562.54 1655.26 1562.12 1651.65C1559.51 1628.73 1539.23 1621.69 1518.78 1621.21C1509.55 1621.05 1500.34 1621.97 1491.33 1623.96C1476.85 1627.12 1439.86 1633.5 1400.85 1643.24C1373.98 1649.44 1347.69 1657.87 1322.23 1668.46C1302.02 1677.45 1278.07 1697.35 1254.74 1723.36C1247.88 1727.69 1240.64 1732.22 1233.16 1737.09C1382.83 1600.15 1375.21 1552.86 1101.84 1609.38C1321.44 1563.95 1359.19 1531.93 1346.84 1520.88C1323.78 1499.92 1281.2 1501.01 1273.2 1501.32C1313.21 1491.89 1341.83 1484.17 1358.26 1477.3C1377.75 1469.03 1379.74 1461.86 1362.55 1454.11C1346.7 1446.94 1314.51 1439.29 1264.48 1429.85C1311.22 1431.02 1346.22 1431.02 1370.2 1428.68C1415.74 1424.29 1421.67 1411.53 1393.16 1382.81C1376.75 1367.15 1359.4 1352.5 1341.21 1338.95C1368.9 1350.07 1390.17 1358.55 1406.61 1364.21C1465.8 1384.8 1462.03 1368.81 1468.1 1310.61C1469.09 1301.07 1470.36 1290.37 1472.22 1278.53C1475.88 1287.52 1479.46 1295.52 1482.96 1302.55C1512.64 1361.15 1539.26 1350 1590.25 1299.97C1586.99 1335.49 1609.85 1337.27 1630.85 1335.97C1644.54 1334.96 1658.1 1332.67 1671.37 1329.14L1701.6 1321.49C1704.12 1319.34 1706.69 1316.94 1709.32 1314.28C1728.02 1295.65 1750.7 1264.53 1780.28 1218.21C1738.21 1366.95 1760.1 1374.06 2015.53 1268.23C1796.37 1395.43 1809.07 1408.68 1962.48 1412.86C1916.3 1421.37 1883.19 1426.14 1867.09 1435.85C1833.81 1456.1 1849.46 1470.75 1849.46 1470.75Z" class="colord6f436 svgShape"/><path fill="#1c1c1c" d="M1233.02 1743.85C1231.63 1743.85 1230.28 1743.43 1229.13 1742.65C1227.99 1741.87 1227.11 1740.76 1226.61 1739.47C1226.1 1738.17 1226.01 1736.76 1226.32 1735.41C1226.64 1734.06 1227.36 1732.84 1228.39 1731.91C1299.59 1666.71 1331.09 1624.75 1322.03 1607.01C1310.91 1585.22 1237.24 1588.27 1103.11 1616C1102.23 1616.18 1101.32 1616.18 1100.43 1616.02C1099.54 1615.85 1098.7 1615.5 1097.95 1615.01C1097.19 1614.51 1096.55 1613.87 1096.04 1613.13C1095.53 1612.38 1095.18 1611.54 1094.99 1610.66C1094.81 1609.78 1094.81 1608.87 1094.98 1607.98C1095.14 1607.09 1095.49 1606.25 1095.98 1605.5C1096.48 1604.74 1097.12 1604.09 1097.86 1603.59C1098.61 1603.08 1099.45 1602.73 1100.33 1602.54H1100.71C1315.71 1557.94 1339.25 1529.77 1341.66 1525.55C1321.44 1507.74 1284.35 1507.74 1273.34 1508.15C1271.63 1508.22 1269.96 1507.64 1268.66 1506.55C1267.35 1505.45 1266.5 1503.9 1266.27 1502.21C1266.04 1500.52 1266.44 1498.8 1267.4 1497.4C1268.37 1495.99 1269.82 1494.99 1271.48 1494.6C1315.85 1484.13 1340.93 1477.06 1355.45 1470.89C1359.57 1469.42 1363.4 1467.25 1366.77 1464.47C1364.61 1462.71 1362.19 1461.29 1359.6 1460.25C1345.05 1453.66 1315.3 1446.35 1263.08 1436.47C1261.26 1436.3 1259.58 1435.42 1258.41 1434.01C1257.24 1432.6 1256.68 1430.79 1256.85 1428.97C1257.02 1427.15 1257.9 1425.47 1259.31 1424.3C1260.72 1423.14 1262.53 1422.58 1264.35 1422.74H1264.52C1316.5 1424.05 1347.87 1423.7 1369.41 1421.61C1397.62 1418.87 1402.53 1413.44 1403.32 1411.32C1404.11 1409.19 1403.9 1403.32 1388.15 1387.47C1371.97 1372 1354.85 1357.55 1336.89 1344.2C1335.51 1343.2 1334.56 1341.73 1334.21 1340.07C1333.86 1338.4 1334.14 1336.67 1334.99 1335.2C1335.84 1333.73 1337.21 1332.63 1338.83 1332.12C1340.45 1331.6 1342.2 1331.7 1343.75 1332.4C1371.64 1343.62 1392.64 1351.96 1408.94 1357.55C1424.52 1362.9 1443.26 1368.49 1450.12 1364.03C1456.4 1359.99 1457.91 1344.44 1459.97 1322.86C1460.38 1318.74 1460.79 1314.35 1461.27 1309.68C1462.54 1297.74 1463.84 1287.45 1465.46 1277.26C1465.7 1275.78 1466.41 1274.43 1467.49 1273.4C1468.56 1272.37 1469.95 1271.71 1471.43 1271.54C1472.91 1271.36 1474.41 1271.68 1475.7 1272.43C1476.98 1273.18 1477.99 1274.34 1478.56 1275.71C1482.2 1284.56 1485.74 1292.46 1489.1 1299.15C1500.46 1321.55 1510.92 1332.88 1522.04 1334.7C1538.13 1337.34 1559.06 1320.66 1585.45 1294.76C1586.45 1293.77 1587.73 1293.12 1589.12 1292.89C1590.5 1292.66 1591.92 1292.86 1593.19 1293.46C1594.46 1294.07 1595.51 1295.04 1596.21 1296.26C1596.9 1297.48 1597.21 1298.88 1597.08 1300.28C1596.09 1311.16 1597.73 1318.84 1601.95 1323.2C1607.89 1329.34 1619.69 1329.48 1630.43 1328.79C1643.69 1327.93 1656.83 1325.83 1669.69 1322.52L1698.34 1315.27C1700.33 1313.49 1702.39 1311.53 1704.48 1309.48C1722.22 1291.8 1744.46 1261.61 1774.52 1214.43C1775.4 1213.04 1776.76 1212.02 1778.33 1211.55C1779.91 1211.08 1781.61 1211.19 1783.11 1211.86C1784.61 1212.54 1785.82 1213.73 1786.51 1215.22C1787.21 1216.71 1787.35 1218.4 1786.9 1219.99C1770.81 1276.88 1763.67 1314.62 1777.71 1327.15C1798.57 1345.68 1873.27 1319.67 2012.92 1261.95C2014.54 1261.27 2016.35 1261.22 2018 1261.83C2019.64 1262.44 2020.99 1263.65 2021.77 1265.22C2022.54 1266.8 2022.69 1268.61 2022.17 1270.28C2021.66 1271.96 2020.52 1273.37 2019 1274.24C1954.87 1311.43 1914.89 1336.41 1889.43 1355.15C1856.11 1379.65 1855.29 1388.46 1855.84 1390.59C1859.06 1403.25 1931.67 1405.21 1962.69 1406.07C1964.38 1406.11 1966 1406.78 1967.23 1407.95C1968.46 1409.11 1969.21 1410.69 1969.35 1412.38C1969.48 1414.08 1968.98 1415.77 1967.94 1417.12C1966.9 1418.47 1965.4 1419.39 1963.72 1419.69L1944.06 1423.12C1908.78 1429.43 1883.25 1434.03 1870.63 1441.65C1856.04 1450.5 1853.16 1457.16 1852.72 1460.35C1852.57 1461.33 1852.63 1462.32 1852.91 1463.27C1853.18 1464.22 1853.65 1465.09 1854.29 1465.84C1855.29 1466.81 1855.97 1468.06 1856.24 1469.43C1856.51 1470.8 1856.36 1472.21 1855.8 1473.49C1855.23 1474.8 1854.26 1475.9 1853.03 1476.64C1851.8 1477.37 1850.37 1477.7 1848.94 1477.58C1837.25 1476.67 1825.49 1477.66 1814.11 1480.53C1800.94 1484.16 1796.65 1489.45 1796.72 1491.3C1796.78 1493.15 1801.59 1497.79 1816.03 1500.7C1821.18 1501.72 1826.38 1502.4 1831.61 1502.73C1833.15 1502.83 1834.6 1503.45 1835.74 1504.48C1836.88 1505.51 1837.65 1506.89 1837.91 1508.41C1838.17 1509.92 1837.91 1511.48 1837.18 1512.84C1836.45 1514.19 1835.29 1515.26 1833.88 1515.87C1827.98 1518.48 1822.45 1521.02 1817.44 1523.38C1809.07 1527.03 1801.03 1531.41 1793.42 1536.46C1799.63 1538.4 1805.97 1539.88 1812.4 1540.88C1818.57 1542.02 1825.74 1543.18 1833.88 1544.32C1859.61 1548.5 1894.89 1554.2 1936.58 1564.56C1938.2 1564.97 1939.61 1565.95 1940.56 1567.32C1941.51 1568.7 1941.92 1570.37 1941.72 1572.03C1941.53 1573.69 1940.73 1575.22 1939.49 1576.33C1938.24 1577.44 1936.63 1578.07 1934.96 1578.08C1865.07 1578.42 1827.22 1581.3 1804.33 1588.06C1792.77 1591.5 1785.15 1595.78 1781.04 1601.34C1780.4 1602.21 1779.56 1602.91 1778.6 1603.39C1777.64 1603.87 1776.58 1604.12 1775.51 1604.12C1773.59 1604.09 1771.77 1603.3 1770.43 1601.93C1764.26 1595.99 1757.41 1590.81 1750.02 1586.49C1730.46 1575.2 1715.7 1575.78 1706.03 1588.17C1693.71 1604.09 1690.41 1619.05 1694.98 1637.96C1695.21 1638.92 1695.22 1639.92 1695.03 1640.89C1694.83 1641.86 1694.43 1642.78 1693.85 1643.58C1693.26 1644.39 1692.51 1645.05 1691.65 1645.54C1690.78 1646.03 1689.82 1646.32 1688.84 1646.4C1665.37 1648.25 1648.28 1666.68 1623.64 1716.74C1623.02 1717.99 1622.03 1719.03 1620.8 1719.7C1619.57 1720.38 1618.17 1720.66 1616.78 1720.51C1615.36 1720.34 1614.03 1719.72 1612.98 1718.76C1611.93 1717.79 1611.21 1716.52 1610.91 1715.13C1609.68 1708.96 1608.13 1702.87 1606.24 1696.87C1606.14 1696.59 1606.06 1696.3 1606 1696.01C1597.15 1669.46 1585.42 1666.37 1576.53 1666.68C1572.54 1666.84 1568.59 1667.54 1564.79 1668.77C1563.74 1669.09 1562.63 1669.15 1561.55 1668.95C1560.48 1668.75 1559.46 1668.3 1558.59 1667.63C1557.73 1666.95 1557.03 1666.08 1556.57 1665.09C1556.11 1664.09 1555.89 1663 1555.94 1661.91C1556.02 1658.59 1555.86 1655.28 1555.46 1651.99C1553.71 1636.38 1541.36 1628.18 1518.78 1627.66C1510.12 1627.51 1501.47 1628.38 1493.01 1630.24C1488.86 1631.16 1482.92 1632.29 1475.65 1633.67C1457.7 1637.1 1430.63 1642.49 1402.7 1649.42C1376.21 1655.51 1350.29 1663.86 1325.22 1674.36C1306.48 1682.67 1283.36 1701.57 1260.02 1727.55C1259.59 1728.03 1259.09 1728.46 1258.55 1728.82C1251.69 1733.11 1244.48 1737.64 1237.03 1742.37C1235.89 1743.28 1234.48 1743.79 1233.02 1743.85ZM1619.21 1693.58L1619.52 1694.61C1637.81 1660.29 1655.21 1639.26 1680.15 1634.01C1677.17 1614.28 1682.01 1596.92 1695.15 1579.97C1709.25 1561.81 1731.18 1559.96 1756.91 1574.82C1763.38 1578.58 1769.47 1582.94 1775.13 1587.82C1782.55 1581.77 1791.21 1577.42 1800.49 1575.09C1818.71 1569.74 1844.21 1567.03 1875.98 1565.69C1859.13 1562.54 1844.21 1560.1 1831.58 1558.07C1823.38 1556.74 1816.1 1555.57 1809.86 1554.44C1791.16 1551.01 1778.98 1548.09 1777.57 1538.69C1776.16 1529.29 1785.91 1523.32 1807.59 1512.88C1786.73 1507.33 1783.09 1497.48 1782.89 1491.82C1782.51 1481.32 1792.77 1472.19 1810.34 1467.35C1819.63 1464.9 1829.21 1463.66 1838.82 1463.65C1838.66 1462.15 1838.66 1460.64 1838.82 1459.15C1839.88 1448.86 1848.15 1439.11 1863.32 1429.95C1872.31 1424.49 1885.69 1420.62 1903.09 1416.88C1864.66 1413.69 1845.78 1407.54 1842.28 1393.85C1837.89 1376.7 1860.98 1354.12 1935.48 1307.83C1838.06 1345.57 1789.78 1356.45 1768.37 1337.44C1753.24 1323.99 1753.52 1297.91 1762.88 1256.77C1743.32 1285.53 1727.44 1305.74 1713.92 1319.22C1711.21 1321.93 1708.46 1324.47 1705.85 1326.74C1705.05 1327.44 1704.08 1327.95 1703.04 1328.21L1673.05 1336C1659.36 1339.52 1645.37 1341.75 1631.26 1342.66C1617.53 1343.55 1601.92 1343.03 1592.11 1332.95C1587.6 1328.14 1584.7 1322.05 1583.8 1315.52C1558.93 1338.54 1538.92 1351.58 1519.84 1348.42C1503.78 1345.78 1490.54 1332.53 1476.85 1305.5C1476.51 1304.81 1476.13 1304.12 1475.79 1303.4C1475.51 1305.94 1475.2 1308.58 1474.93 1311.29C1474.45 1315.89 1474.04 1320.25 1473.62 1324.33C1471.02 1351.61 1469.4 1368.08 1457.53 1375.8C1446.31 1383.01 1428.88 1379.23 1404.38 1370.76C1397.52 1368.36 1389.52 1365.44 1380.63 1362.01C1387.5 1368.01 1393.3 1373.26 1398.03 1378.03C1409.01 1389.08 1420.99 1403.43 1416.35 1416.22C1412.44 1427.1 1398.82 1432.87 1370.86 1435.58C1360.56 1436.57 1348.24 1437.19 1332.7 1437.43C1343.88 1440 1354.81 1443.52 1365.4 1447.93C1372.26 1450.98 1381.22 1456.06 1381.12 1464.74C1381.12 1473.97 1370.31 1479.7 1360.94 1483.68C1345.9 1489.58 1330.48 1494.44 1314.79 1498.23C1328.31 1500.94 1340.93 1507.03 1351.47 1515.94C1353.26 1517.49 1354.57 1519.53 1355.24 1521.8C1355.92 1524.07 1355.93 1526.49 1355.28 1528.77C1350.68 1545.65 1308.92 1563.36 1253.98 1579.66C1300.58 1577.46 1326.04 1584.56 1334.38 1601C1342 1615.89 1335.1 1636.65 1311.67 1666.2C1314.31 1664.75 1316.92 1663.45 1319.45 1662.32C1345.27 1651.51 1371.96 1642.91 1399.23 1636.62C1427.47 1629.58 1454.79 1624.23 1472.83 1620.7C1480.01 1619.32 1485.84 1618.16 1489.99 1617.26C1499.52 1615.16 1509.26 1614.2 1519.02 1614.38C1548.67 1615.07 1566.41 1628.11 1569.01 1650.89C1569.01 1651.96 1569.22 1652.95 1569.29 1653.95C1571.56 1653.56 1573.85 1653.35 1576.15 1653.29C1596.26 1652.64 1610.46 1665.54 1619.32 1692.79C1619.35 1693.05 1619.36 1693.31 1619.35 1693.58H1619.21Z" class="color1d1d1b svgShape"/><path fill="#1c1c1c" d="M1678.51 1867.48C1677.02 1867.48 1675.58 1867 1674.39 1866.11C1669.11 1862.16 1664.1 1858.01 1659.09 1853.86C1657.7 1852.74 1656.8 1851.13 1656.58 1849.36C1656.36 1847.59 1656.84 1845.8 1657.92 1844.38C1658.99 1842.96 1660.58 1842.01 1662.34 1841.73C1664.1 1841.46 1665.9 1841.88 1667.36 1842.91C1673 1846.7 1678.31 1850.96 1683.24 1855.64C1684.24 1856.59 1684.93 1857.81 1685.22 1859.15C1685.51 1860.49 1685.4 1861.89 1684.89 1863.17C1684.38 1864.44 1683.5 1865.53 1682.36 1866.3C1681.22 1867.07 1679.88 1867.48 1678.51 1867.48Z" class="color1d1d1b svgShape"/><path fill="#1c1c1c" d="M1691.48 1879.35C1689.95 1879.35 1688.46 1878.83 1687.26 1877.88C1683.82 1875.22 1680.56 1872.33 1677.51 1869.23C1676.35 1868.06 1675.14 1866.83 1673.84 1865.8C1672.43 1864.65 1671.53 1862.98 1671.35 1861.17C1671.17 1859.36 1671.71 1857.55 1672.86 1856.14C1674.01 1854.73 1675.68 1853.83 1677.49 1853.65C1679.3 1853.47 1681.11 1854.01 1682.52 1855.16C1686.33 1858.04 1690.48 1861.06 1695.7 1864.7C1696.73 1865.43 1697.54 1866.42 1698.04 1867.58C1698.54 1868.73 1698.72 1870.01 1698.55 1871.26C1698.47 1871.9 1698.35 1872.54 1698.2 1873.18V1873.76C1697.98 1874.92 1697.46 1876 1696.7 1876.91C1695.94 1877.81 1694.95 1878.5 1693.85 1878.91C1693.09 1879.21 1692.29 1879.36 1691.48 1879.35Z" class="color1d1d1b svgShape"/><path fill="#1c1c1c" d="M1573.3 1816.08C1571.82 1816.08 1570.38 1815.6 1569.19 1814.72C1568.01 1813.84 1567.14 1812.59 1566.72 1811.17C1564.38 1802.82 1560.91 1794.82 1556.42 1787.39C1551.96 1780.53 1538.06 1775.97 1517.34 1775.11C1504.28 1774.69 1491.22 1775.14 1478.22 1776.45C1477.27 1776.54 1476.3 1776.43 1475.39 1776.13C1474.49 1775.82 1473.65 1775.33 1472.94 1774.68C1472.23 1774.04 1471.67 1773.25 1471.28 1772.37C1470.9 1771.49 1470.7 1770.54 1470.71 1769.59V1745.57C1470.71 1744.25 1471.09 1742.96 1471.8 1741.85C1472.51 1740.75 1473.52 1739.87 1474.72 1739.32C1483.51 1735.31 1491.19 1731.67 1497.61 1728.41C1503.37 1725.49 1508.9 1722.44 1514.08 1719.32C1542.97 1701.95 1555.46 1685 1555.87 1662.25C1555.95 1658.92 1555.79 1655.58 1555.39 1652.27C1553.64 1636.66 1541.29 1628.46 1518.71 1627.94C1510.05 1627.79 1501.4 1628.65 1492.94 1630.51C1488.79 1631.44 1482.85 1632.57 1475.58 1633.95C1457.63 1637.38 1430.56 1642.76 1402.63 1649.69C1401.31 1650.02 1399.93 1649.95 1398.65 1649.49C1397.38 1649.04 1396.27 1648.21 1395.46 1647.12C1359.25 1597.95 1343.52 1536.67 1351.57 1476.14C1352.62 1468.06 1354.09 1460.04 1356 1452.12C1358.09 1443.24 1360.73 1434.5 1363.89 1425.94C1369.92 1409.41 1377.82 1393.63 1387.43 1378.9C1391.66 1372.27 1396.25 1365.86 1401.15 1359.71C1402.49 1358.07 1403.86 1356.28 1405.31 1354.67C1422.14 1334.81 1442.14 1317.87 1464.5 1304.54C1469.37 1301.59 1474.55 1298.74 1479.8 1296.13C1516.42 1277.82 1557.17 1269.33 1598.06 1271.51C1638.94 1273.69 1678.56 1286.45 1713.03 1308.55C1715.94 1310.41 1719.07 1312.5 1722.46 1314.94C1748.36 1333.43 1770.27 1356.96 1786.89 1384.1C1803.5 1411.25 1814.47 1441.47 1819.16 1472.95C1820.84 1484.31 1821.68 1495.78 1821.66 1507.26C1821.66 1510.69 1821.66 1514.12 1821.46 1517.31C1821 1527.83 1819.85 1538.31 1818.02 1548.68C1815.88 1560.55 1812.87 1572.25 1809 1583.68C1805.65 1593.44 1801.65 1602.96 1797.03 1612.19C1796.59 1613.06 1795.97 1613.82 1795.21 1614.44C1794.46 1615.05 1793.58 1615.49 1792.64 1615.74C1791.7 1615.98 1790.71 1616.03 1789.75 1615.87C1788.8 1615.7 1787.88 1615.34 1787.07 1614.8C1781.44 1611.16 1776.13 1607.05 1771.19 1602.51L1770.54 1601.93C1764.37 1595.99 1757.51 1590.81 1750.12 1586.49C1730.56 1575.2 1715.81 1575.78 1706.13 1588.17C1693.81 1604.09 1690.52 1619.05 1695.08 1637.96C1697.66 1648.06 1701.49 1657.8 1706.47 1666.95C1709.18 1672.1 1712.31 1677.59 1715.84 1683.32C1717.56 1686.12 1719.44 1688.83 1721.47 1691.42C1722.03 1692.15 1722.44 1692.99 1722.67 1693.89C1722.9 1694.79 1722.95 1695.72 1722.81 1696.64C1722.5 1698.48 1721.48 1700.14 1719.96 1701.23C1713.78 1705.52 1707.26 1709.61 1700.47 1713.38V1734.41C1700.47 1735.62 1700.15 1736.8 1699.55 1737.84C1698.94 1738.88 1698.08 1739.75 1697.04 1740.35C1695.99 1740.95 1694.81 1741.27 1693.61 1741.27C1692.4 1741.27 1691.22 1740.95 1690.17 1740.35C1683.12 1736.35 1675.65 1733.12 1667.9 1730.71C1646.32 1724.15 1632.05 1728.1 1625.49 1742.37C1615.75 1763.65 1617.67 1781.94 1631.98 1803.49C1632.66 1804.5 1633.05 1805.69 1633.12 1806.91C1633.19 1808.13 1632.93 1809.35 1632.37 1810.44C1631.81 1811.53 1630.97 1812.45 1629.94 1813.1C1628.9 1813.75 1627.71 1814.12 1626.49 1814.16L1573.51 1815.87L1573.3 1816.08ZM1508.28 1761.18C1511.71 1761.18 1514.8 1761.18 1517.82 1761.38C1544.27 1762.52 1560.68 1768.62 1567.92 1780.08C1572.19 1787.03 1575.64 1794.45 1578.21 1802.18L1614.41 1801.02C1603.12 1779.36 1602.74 1759.15 1612.97 1736.85C1622.58 1715.95 1643.47 1709.16 1671.85 1717.77C1676.91 1719.33 1681.86 1721.21 1686.67 1723.4V1709.67C1686.68 1708.43 1687.02 1707.22 1687.66 1706.15C1688.3 1705.09 1689.22 1704.22 1690.31 1703.64C1695.8 1700.68 1701.12 1697.53 1706.23 1694.23L1704.07 1690.8C1700.4 1684.8 1697.21 1679 1694.26 1673.65C1688.72 1663.49 1684.48 1652.67 1681.63 1641.46C1676.17 1618.64 1680.5 1599.15 1695.36 1580.11C1709.46 1561.96 1731.38 1560.1 1757.12 1574.96C1765.42 1579.78 1773.13 1585.53 1780.11 1592.12L1780.52 1592.49C1782.98 1594.83 1785.6 1596.99 1788.34 1598.98C1791.23 1592.63 1793.87 1586.08 1796.13 1579.42C1803.03 1559.25 1806.98 1538.2 1807.87 1516.9C1808.01 1513.77 1808.07 1510.61 1808.07 1507.43C1808.08 1496.6 1807.29 1485.79 1805.71 1475.08C1801.31 1445.42 1790.97 1416.96 1775.33 1391.39C1759.68 1365.82 1739.04 1343.67 1714.64 1326.26C1711.41 1323.96 1708.5 1321.97 1705.79 1320.25C1673.33 1299.45 1636.03 1287.42 1597.54 1285.37C1559.04 1283.31 1520.67 1291.29 1486.18 1308.52C1481.24 1310.96 1476.4 1313.63 1471.77 1316.41C1450.68 1328.91 1431.79 1344.81 1415.87 1363.45C1414.54 1365.03 1413.23 1366.61 1412 1368.19C1396.88 1386.99 1384.94 1408.13 1376.65 1430.78C1373.69 1438.83 1371.21 1447.06 1369.24 1455.41C1367.45 1462.84 1366.06 1470.35 1365.06 1477.92C1363.78 1487.64 1363.14 1497.43 1363.14 1507.23C1362.99 1553.09 1377.19 1597.85 1403.73 1635.25C1430.35 1628.76 1455.75 1623.82 1472.83 1620.46C1480.01 1619.09 1485.84 1617.92 1489.99 1617.03C1499.52 1614.93 1509.26 1613.96 1519.02 1614.15C1548.67 1614.83 1566.41 1627.87 1569.01 1650.66C1569.47 1654.6 1569.65 1658.56 1569.56 1662.53C1569.05 1689.98 1554.12 1711.15 1521.11 1731.15C1515.66 1734.59 1509.82 1737.64 1503.78 1740.73C1497.75 1743.82 1491.71 1746.66 1484.4 1750.03V1762.17C1492.94 1761.49 1500.97 1761.18 1508.28 1761.18Z" class="color1d1d1b svgShape"/><path fill="#1c1c1c" d="M1192.53 2048.04C1191.32 2048.04 1190.13 2047.73 1189.08 2047.12C1188.03 2046.52 1187.16 2045.65 1186.56 2044.61C1184.67 2041.17 1141.3 1962.77 1159.59 1873.04C1159.75 1872.14 1160.09 1871.28 1160.58 1870.51C1161.08 1869.74 1161.72 1869.08 1162.48 1868.56C1163.24 1868.05 1164.09 1867.69 1164.98 1867.5C1165.88 1867.32 1166.81 1867.32 1167.7 1867.5C1168.6 1867.68 1169.45 1868.04 1170.21 1868.56C1170.97 1869.07 1171.61 1869.73 1172.11 1870.5C1172.61 1871.27 1172.94 1872.13 1173.1 1873.03C1173.26 1873.93 1173.24 1874.86 1173.04 1875.75C1155.88 1960.54 1198.09 2037.3 1198.5 2038.05C1198.95 2038.84 1199.23 2039.7 1199.34 2040.6C1199.45 2041.5 1199.38 2042.41 1199.14 2043.28C1198.9 2044.15 1198.49 2044.96 1197.93 2045.67C1197.37 2046.38 1196.68 2046.98 1195.89 2047.42C1194.84 2047.91 1193.68 2048.12 1192.53 2048.04Z" class="color1d1d1b svgShape"/><path fill="#1c1c1c" d="M894.143 2319.56C894.143 2319.56 856.81 2573.47 1055.65 2566.1C1055.65 2566.1 896.133 2475.2 894.143 2319.56Z" class="color1d1d1b svgShape"/><path fill="#1c1c1c" d="M1047.35 2573.1C999.106 2573.1 960.744 2557.55 933.225 2526.88C868.236 2454.37 886.456 2324.22 887.348 2318.56C887.471 2316.74 888.312 2315.04 889.686 2313.84C891.06 2312.64 892.854 2312.04 894.674 2312.16C896.494 2312.28 898.191 2313.12 899.391 2314.5C900.591 2315.87 901.196 2317.67 901.074 2319.49C902.995 2469.4 1057.54 2559.23 1059.12 2560.13C1060.41 2560.87 1061.42 2562.01 1062 2563.38C1062.58 2564.75 1062.71 2566.27 1062.35 2567.71C1061.99 2569.15 1061.18 2570.44 1060.03 2571.38C1058.87 2572.32 1057.45 2572.86 1055.96 2572.92C1053.01 2573.06 1050.16 2573.1 1047.35 2573.1ZM899.083 2390.03C901.726 2431.49 912.054 2482.68 943.45 2517.75C965.342 2542.11 995.092 2555.87 1032.12 2558.92C997.322 2534.01 927.014 2475.41 899.083 2390.03Z" class="color1d1d1b svgShape"/><path fill="#1c1c1c" d="M2110.51 2087.46H2110.34C2109.44 2087.44 2108.55 2087.24 2107.73 2086.87C2106.9 2086.51 2106.16 2085.98 2105.54 2085.33C2104.91 2084.68 2104.43 2083.91 2104.1 2083.06C2103.78 2082.22 2103.62 2081.33 2103.65 2080.43L2106.74 1960.5C2106.76 1959.6 2106.96 1958.71 2107.32 1957.89C2107.69 1957.06 2108.21 1956.32 2108.87 1955.7C2109.52 1955.08 2110.29 1954.59 2111.13 1954.27C2111.97 1953.94 2112.87 1953.79 2113.77 1953.81C2114.67 1953.83 2115.56 1954.03 2116.38 1954.4C2117.21 1954.76 2117.95 1955.29 2118.57 1955.94C2119.19 1956.59 2119.68 1957.36 2120 1958.2C2120.33 1959.05 2120.48 1959.94 2120.46 1960.84L2117.37 2080.77C2117.33 2082.56 2116.59 2084.26 2115.3 2085.51C2114.02 2086.76 2112.3 2087.46 2110.51 2087.46Z" class="color1d1d1b svgShape"/><path fill="#1c1c1c" d="M1777.47 1938.26C1775.94 1938.27 1774.45 1937.76 1773.25 1936.82C1756.09 1923.54 1738.35 1912.08 1722.6 1902C1708.87 1893.11 1696.73 1885.42 1687.22 1877.98C1686.5 1877.42 1685.9 1876.73 1685.45 1875.94C1685 1875.15 1684.72 1874.27 1684.61 1873.37C1684.5 1872.47 1684.57 1871.55 1684.82 1870.68C1685.07 1869.8 1685.49 1868.99 1686.05 1868.28C1686.62 1867.56 1687.32 1866.97 1688.12 1866.53C1688.91 1866.1 1689.79 1865.82 1690.69 1865.72C1691.6 1865.63 1692.51 1865.71 1693.38 1865.97C1694.25 1866.23 1695.06 1866.66 1695.77 1867.24C1704.72 1874.37 1716.36 1881.89 1730.08 1890.57C1746.07 1900.86 1764.22 1912.46 1781.76 1926.12C1782.89 1927 1783.72 1928.21 1784.12 1929.58C1784.53 1930.95 1784.5 1932.42 1784.04 1933.77C1783.57 1935.12 1782.7 1936.3 1781.53 1937.13C1780.36 1937.96 1778.97 1938.4 1777.54 1938.4L1777.47 1938.26Z" class="color1d1d1b svgShape"/><path fill="#1c1c1c" d="M1706.16 2073.43H1705.31C1704.41 2073.32 1703.55 2073.03 1702.77 2072.58C1701.98 2072.13 1701.3 2071.53 1700.74 2070.82C1700.19 2070.1 1699.79 2069.29 1699.55 2068.42C1699.32 2067.55 1699.25 2066.64 1699.37 2065.74C1699.78 2062.31 1700.12 2060.49 1700.12 2060.49C1700.48 2058.74 1701.5 2057.2 1702.98 2056.19C1704.45 2055.19 1706.26 2054.79 1708.02 2055.1C1709.78 2055.4 1711.35 2056.38 1712.4 2057.82C1713.45 2059.26 1713.9 2061.06 1713.64 2062.83C1713.64 2062.83 1713.34 2064.58 1712.96 2067.49C1712.73 2069.14 1711.92 2070.64 1710.67 2071.73C1709.42 2072.83 1707.82 2073.43 1706.16 2073.43Z" class="color1d1d1b svgShape"/><path fill="#1c1c1c" d="M2110.61 2087.18C2109.68 2087.19 2108.75 2086.99 2107.9 2086.6C2106.26 2085.85 2104.99 2084.49 2104.35 2082.81C2103.7 2081.13 2103.75 2079.26 2104.47 2077.61C2128.15 2022.71 2234.24 2005.28 2238.74 2004.56C2240.53 2004.28 2242.36 2004.73 2243.82 2005.8C2245.29 2006.87 2246.27 2008.47 2246.55 2010.26C2246.84 2012.05 2246.4 2013.88 2245.35 2015.35C2244.29 2016.82 2242.69 2017.82 2240.9 2018.11C2239.87 2018.28 2137.75 2035.03 2117.06 2083.03C2116.52 2084.29 2115.62 2085.35 2114.47 2086.09C2113.32 2086.83 2111.98 2087.21 2110.61 2087.18Z" class="color1d1d1b svgShape"/><path fill="#ffb391" d="M1971.3 1841.61C1980.01 1835.54 1976.44 1815.37 1963.32 1796.56C1950.21 1777.75 1932.52 1767.42 1923.82 1773.49C1915.11 1779.55 1918.69 1799.72 1931.8 1818.53C1944.91 1837.34 1962.6 1847.67 1971.3 1841.61Z" class="colorf9afd1 svgShape"/><path fill="#ffb391" d="M1906.17 1925.43C1917.57 1914.02 1915.36 1893.32 1901.22 1879.18C1887.08 1865.04 1866.38 1862.83 1854.98 1874.23C1843.57 1885.63 1845.79 1906.34 1859.92 1920.48C1874.06 1934.61 1894.77 1936.83 1906.17 1925.43Z" class="colorf9afd1 svgShape"/><path fill="#ffb391" d="M1841.16 2060.44C1851.7 2052.53 1849.5 2031.81 1836.25 2014.15C1823.01 1996.49 1803.73 1988.58 1793.19 1996.48C1782.65 2004.38 1784.85 2025.1 1798.1 2042.77C1811.34 2060.43 1830.62 2068.34 1841.16 2060.44Z" class="colorf9afd1 svgShape"/><path fill="#1c1c1c" d="M1998.82 2048.04C1997.61 2048.04 1996.43 2047.73 1995.38 2047.13C1994.33 2046.53 1993.46 2045.66 1992.86 2044.62C1992.25 2043.57 1991.93 2042.39 1991.93 2041.18C1991.93 2039.97 1992.25 2038.79 1992.85 2037.74C1993.3 2036.99 2035.57 1960.23 2018.31 1875.44C2018.11 1874.55 2018.08 1873.62 2018.24 1872.72C2018.4 1871.82 2018.74 1870.96 2019.24 1870.19C2019.74 1869.43 2020.38 1868.76 2021.14 1868.25C2021.9 1867.73 2022.75 1867.38 2023.65 1867.19C2024.54 1867.01 2025.47 1867.01 2026.36 1867.2C2027.26 1867.38 2028.11 1867.74 2028.87 1868.25C2029.63 1868.77 2030.27 1869.43 2030.77 1870.2C2031.26 1870.97 2031.6 1871.83 2031.76 1872.73C2050.08 1962.63 2006.68 2041.17 2004.82 2044.3C2004.26 2045.41 2003.4 2046.34 2002.34 2047C2001.28 2047.66 2000.07 2048.02 1998.82 2048.04Z" class="color1d1d1b svgShape"/><path fill="#1c1c1c" d="M2297.24 2319.56C2297.24 2319.56 2334.54 2573.47 2135.69 2566.1C2135.69 2566.1 2295.22 2475.2 2297.24 2319.56Z" class="color1d1d1b svgShape"/><path fill="#1c1c1c" d="M2144 2573.1C2141.19 2573.1 2138.34 2573.1 2135.45 2573.1C2133.97 2573.04 2132.54 2572.5 2131.39 2571.56C2130.24 2570.62 2129.42 2569.33 2129.07 2567.88C2128.71 2566.44 2128.84 2564.92 2129.42 2563.55C2130 2562.18 2131.01 2561.04 2132.3 2560.3C2133.88 2559.41 2288.46 2469.4 2290.38 2319.66C2290.26 2317.84 2290.86 2316.05 2292.06 2314.67C2293.26 2313.3 2294.96 2312.46 2296.78 2312.33C2298.6 2312.21 2300.39 2312.82 2301.77 2314.02C2303.14 2315.22 2303.98 2316.91 2304.1 2318.73C2304.93 2324.26 2323.22 2454.55 2258.23 2527.05C2230.61 2557.55 2192.24 2573.1 2144 2573.1ZM2292.3 2390.04C2264.37 2475.41 2194.03 2534.15 2159.23 2558.79C2196.26 2555.87 2226.01 2542.11 2247.9 2517.61C2279.3 2482.72 2289.62 2431.49 2292.3 2390.04Z" class="color1d1d1b svgShape"/><path fill="#1c1c1c" d="M1473.21 1033.64C1473.21 1033.64 1569.29 1041.57 1608.44 1033.64C1608.34 1033.54 1542.9 1086.58 1473.21 1033.64Z" class="color1d1d1b svgShape"/><path fill="#1c1c1c" d="M1538.72 1063.86C1517.48 1063.86 1493.42 1057.65 1468.96 1039.12C1467.77 1038.23 1466.91 1036.97 1466.49 1035.54C1466.08 1034.11 1466.15 1032.59 1466.68 1031.2C1467.21 1029.81 1468.18 1028.63 1469.43 1027.83C1470.69 1027.04 1472.18 1026.68 1473.66 1026.8C1474.62 1026.8 1569.12 1034.56 1606.96 1026.8C1608.47 1026.5 1610.03 1026.71 1611.4 1027.4C1612.77 1028.08 1613.87 1029.21 1614.53 1030.6C1615.18 1031.98 1615.35 1033.55 1615.02 1035.04C1614.68 1036.54 1613.85 1037.88 1612.66 1038.85C1591.18 1054.6 1565.35 1063.34 1538.72 1063.86ZM1501.31 1042.38C1524.95 1052.57 1551.64 1053.02 1575.6 1043.65C1550.86 1044.58 1522.14 1043.51 1501.31 1042.38Z" class="color1d1d1b svgShape"/><path fill="#1c1c1c" d="M1909.54 1694.81C1908.03 1694.81 1906.57 1694.32 1905.37 1693.41C1904.18 1692.5 1903.31 1691.22 1902.92 1689.77C1883.39 1619.22 1801.52 1593.35 1800.7 1593.07C1799.8 1592.85 1798.95 1592.44 1798.21 1591.87C1797.47 1591.31 1796.86 1590.6 1796.4 1589.79C1795.95 1588.98 1795.66 1588.08 1795.56 1587.16C1795.46 1586.24 1795.55 1585.3 1795.82 1584.41C1796.09 1583.52 1796.54 1582.7 1797.14 1581.99C1797.74 1581.28 1798.48 1580.7 1799.31 1580.28C1800.14 1579.87 1801.05 1579.63 1801.98 1579.57C1802.91 1579.52 1803.84 1579.65 1804.71 1579.97C1808.35 1581.07 1894.58 1608.21 1916.16 1686.1C1916.65 1687.85 1916.42 1689.72 1915.52 1691.3C1914.63 1692.89 1913.14 1694.05 1911.39 1694.54C1910.79 1694.71 1910.17 1694.81 1909.54 1694.81Z" class="color1d1d1b svgShape"/><path fill="#1c1c1c" d="M1310.09 1676.7C1308.53 1676.7 1307.01 1676.17 1305.8 1675.19C1304.38 1674.06 1303.47 1672.41 1303.27 1670.61C1303.06 1668.81 1303.58 1667 1304.7 1665.58C1306.52 1663.28 1349.31 1609.89 1391.03 1617.82C1391.93 1617.97 1392.79 1618.3 1393.57 1618.78C1394.34 1619.27 1395.01 1619.91 1395.53 1620.66C1396.06 1621.4 1396.42 1622.25 1396.62 1623.14C1396.81 1624.04 1396.82 1624.96 1396.65 1625.86C1396.48 1626.76 1396.14 1627.61 1395.63 1628.37C1395.13 1629.13 1394.48 1629.79 1393.72 1630.3C1392.96 1630.8 1392.1 1631.15 1391.21 1631.33C1390.31 1631.5 1389.39 1631.49 1388.49 1631.3C1355 1624.92 1315.85 1673.61 1315.44 1674.09C1314.8 1674.9 1313.99 1675.55 1313.06 1676.01C1312.13 1676.46 1311.12 1676.69 1310.09 1676.7Z" class="color1d1d1b svgShape"/><path fill="#1c1c1c" d="M1254.74 1730.22C1253.41 1730.23 1252.11 1729.85 1250.99 1729.12C1249.88 1728.4 1249 1727.37 1248.45 1726.16C1247.91 1724.94 1247.74 1723.6 1247.94 1722.29C1248.15 1720.97 1248.74 1719.75 1249.63 1718.76C1274.23 1691.31 1299 1671.27 1319.45 1662.18C1345.27 1651.37 1371.96 1642.78 1399.23 1636.48C1401 1636.03 1402.87 1636.29 1404.44 1637.22C1406.01 1638.14 1407.15 1639.66 1407.6 1641.42C1408.06 1643.19 1407.79 1645.06 1406.87 1646.63C1405.94 1648.2 1404.43 1649.34 1402.66 1649.79C1376.17 1655.89 1350.25 1664.24 1325.18 1674.74C1306.45 1683.04 1283.32 1701.95 1259.99 1727.93C1259.33 1728.66 1258.52 1729.25 1257.62 1729.65C1256.71 1730.05 1255.73 1730.24 1254.74 1730.22Z" class="color1d1d1b svgShape"/><path fill="#1c1c1c" d="M2045.56 2581.57C2008.05 2581.57 1972.71 2573.54 1946.05 2558.07C1894.58 2528.42 1855.08 2452.66 1820.15 2385.85C1803.58 2354.14 1787.93 2324.09 1772.9 2302.88C1772.63 2302.54 1772.41 2302.15 1772.25 2301.75C1770.16 2297.15 1721.23 2188.51 1706.71 2150.19C1697.38 2125.62 1696.42 2087.74 1697.28 2074.35C1690.41 2064.85 1680.46 2052.7 1670.07 2040.04C1649.14 2014.24 1625.46 1985.14 1609.74 1958.72C1609.06 1957.66 1608.37 1956.42 1607.69 1955.29C1604.49 1949.66 1601.51 1943.93 1598.52 1937.79C1579.82 1898.29 1581.16 1870.33 1602.98 1844.28C1606.81 1839.47 1611.77 1835.7 1617.43 1833.3C1623.09 1830.9 1629.26 1829.96 1635.38 1830.56L1633.59 1828.53C1628.93 1823.17 1624.61 1817.52 1620.66 1811.62C1603.5 1785.95 1601.34 1763 1613.14 1737.19C1622.75 1716.3 1643.65 1709.5 1672.02 1718.12C1680.76 1720.8 1689.17 1724.45 1697.11 1728.99L1698.79 1729.95C1709.66 1736.4 1727.37 1741.89 1747.85 1748.28C1753.89 1750.13 1760.21 1752.12 1766.69 1754.21C1745.01 1736.4 1724.08 1717.77 1710.66 1700.34C1708.15 1696.91 1706.06 1694.03 1704.24 1691.08C1700.57 1685.07 1697.38 1679.27 1694.43 1673.92C1688.89 1663.76 1684.65 1652.95 1681.8 1641.73C1676.35 1618.92 1680.67 1599.43 1695.53 1580.38C1709.63 1562.23 1731.52 1560.38 1757.29 1575.24C1765.59 1580.05 1773.3 1585.81 1780.28 1592.39L1780.69 1592.77C1785.05 1596.79 1789.75 1600.42 1794.73 1603.65C1802.96 1609.21 1813.12 1615.14 1823.82 1621.46C1840.29 1631.17 1858.93 1642.04 1877.01 1655.18C1927.52 1691.49 2013.61 1795.39 2037.22 1888.21C2052.42 1948.01 2092.77 2030.85 2116.14 2075.83C2131.65 2085.23 2238.16 2152.49 2280.15 2250.31C2312.68 2326.14 2304.55 2411.24 2286.5 2441.06C2233.9 2527.97 2161.64 2561.15 2110.27 2573.75C2089.09 2578.93 2067.36 2581.56 2045.56 2581.57ZM1784.4 2295.54C1799.84 2317.57 1815.55 2347.66 1832.2 2379.47C1866.3 2444.66 1904.91 2518.5 1952.81 2546.19C2016.36 2582.88 2181.26 2588.12 2274.63 2433.96C2291.55 2406.03 2296.97 2324.67 2267.39 2255.73C2225.25 2157.46 2114.42 2090.82 2107.49 2086.74L2106.74 2086.3C2105.3 2085.34 2104.27 2083.89 2103.85 2082.21C2075.41 2027.1 2038.66 1949.8 2023.9 1891.57C2001.98 1805.27 1918.91 1702.23 1868.98 1666.3C1851.41 1653.64 1833.05 1642.83 1816.86 1633.29C1805.95 1626.88 1795.65 1620.8 1787.07 1615.04C1781.44 1611.39 1776.11 1607.28 1771.15 1602.75L1770.54 1602.17C1764.37 1596.23 1757.51 1591.05 1750.12 1586.73C1730.56 1575.44 1715.81 1576.02 1706.13 1588.41C1693.81 1604.33 1690.52 1619.29 1695.08 1638.2C1697.66 1648.3 1701.49 1658.04 1706.47 1667.19C1709.18 1672.34 1712.31 1677.83 1715.84 1683.56C1717.56 1686.36 1719.44 1689.07 1721.47 1691.66C1739.24 1714.82 1772.22 1741.04 1801.28 1764.2L1807.25 1768.9C1808.55 1769.92 1809.44 1771.38 1809.75 1773.01C1810.05 1774.64 1809.76 1776.32 1808.93 1777.75C1808.09 1779.18 1806.77 1780.26 1805.2 1780.79C1803.63 1781.32 1801.92 1781.26 1800.39 1780.63C1780.9 1772.64 1761.13 1766.5 1743.7 1761.04C1722.39 1754.42 1704 1748.72 1691.68 1741.45L1690.14 1740.56C1683.12 1736.57 1675.69 1733.34 1667.97 1730.95C1646.39 1724.39 1632.12 1728.34 1625.56 1742.61C1615.82 1763.89 1617.74 1782.18 1632.05 1803.73C1635.67 1809.15 1639.63 1814.33 1643.92 1819.24C1647.76 1823.73 1652.09 1828.36 1656.72 1832.96C1659.94 1836.19 1663.58 1839.52 1667.73 1843.26C1673.15 1846.9 1678.25 1850.99 1683 1855.47C1686.71 1858.28 1690.79 1861.27 1695.87 1864.8C1696.9 1865.53 1697.71 1866.52 1698.21 1867.68C1698.72 1868.84 1698.89 1870.11 1698.72 1871.36C1698.64 1872 1698.52 1872.65 1698.37 1873.28V1873.86C1698.15 1875.02 1697.64 1876.11 1696.87 1877.01C1696.11 1877.91 1695.13 1878.6 1694.02 1879.01C1692.92 1879.42 1691.73 1879.54 1690.57 1879.36C1689.41 1879.18 1688.32 1878.7 1687.39 1877.98C1683.95 1875.32 1680.7 1872.43 1677.65 1869.33L1674.22 1865.9C1669.14 1862.13 1664.2 1858.15 1659.5 1854.17L1657.54 1852.86C1638.43 1840.85 1623.61 1840.89 1613.48 1852.86C1598.21 1871.08 1591.9 1891.47 1610.91 1931.58C1613.72 1937.41 1616.57 1942.87 1619.63 1948.25C1620.21 1949.28 1620.79 1950.31 1621.44 1951.31C1636.71 1976.9 1660.12 2005.73 1680.74 2031.19C1692.51 2045.7 1702.7 2058.23 1709.9 2068.38C1710.92 2069.79 1711.36 2071.53 1711.14 2073.26C1710.32 2079.54 1709.9 2119.85 1719.55 2145.31C1733.27 2181.65 1780.38 2286.48 1784.4 2295.5V2295.54Z" class="color1d1d1b svgShape"/><path fill="#1c1c1c" d="M1570.87 1816.15C1569.05 1816.17 1567.29 1815.48 1565.98 1814.21C1564.68 1812.94 1563.93 1811.21 1563.9 1809.39C1563.87 1807.57 1564.57 1805.81 1565.84 1804.5C1567.11 1803.2 1568.84 1802.45 1570.66 1802.42H1573.1L1626.69 1800.67C1627.6 1800.63 1628.5 1800.77 1629.34 1801.08C1630.19 1801.38 1630.97 1801.86 1631.64 1802.46C1632.3 1803.07 1632.84 1803.81 1633.22 1804.62C1633.61 1805.44 1633.82 1806.32 1633.87 1807.23C1633.91 1808.13 1633.77 1809.03 1633.46 1809.88C1633.15 1810.72 1632.68 1811.5 1632.07 1812.17C1631.47 1812.83 1630.73 1813.37 1629.91 1813.76C1629.1 1814.14 1628.21 1814.36 1627.31 1814.4H1626.59L1571.07 1816.18L1570.87 1816.15Z" class="color1d1d1b svgShape"/><path fill="#1c1c1c" d="M1581.74 1814.33C1579.92 1814.33 1578.18 1813.61 1576.89 1812.32C1575.6 1811.03 1574.88 1809.29 1574.88 1807.47C1574.88 1805.41 1573.27 1628.25 1555.25 1539.59C1548.85 1543.37 1541.42 1545.05 1534.01 1544.39C1519.84 1543.05 1510.75 1531.87 1509.62 1514.5C1508.48 1497.14 1515.73 1477.41 1529.18 1474.39C1537 1472.61 1548.6 1476.04 1559.13 1502.39C1560.44 1505.82 1561.7 1509.25 1562.91 1513.27C1564.18 1511.38 1565.31 1509.53 1566.34 1507.91L1566.51 1507.57C1564.72 1499.52 1563.98 1491.28 1564.31 1483.04C1564.31 1479.61 1565.82 1448.35 1578.55 1444.44C1580.51 1443.84 1582.61 1443.91 1584.53 1444.62C1586.45 1445.34 1588.09 1446.66 1589.19 1448.38C1597.08 1459.16 1591.63 1487.74 1581.23 1509.05C1582.19 1512.68 1583.94 1516.05 1586.35 1518.93C1588.75 1521.81 1591.76 1524.13 1595.16 1525.72C1600.29 1527.7 1605.93 1527.95 1611.22 1526.44C1611.49 1466.36 1624.09 1461.25 1628.38 1459.64C1632.66 1458.02 1638.94 1457.75 1646.66 1465.81C1658.09 1477.72 1657.58 1498.1 1645.33 1516.49C1640.14 1524.38 1633.15 1530.93 1624.94 1535.61C1623.95 1581.72 1616.33 1787.46 1615.95 1796.8C1615.89 1798.62 1615.1 1800.34 1613.76 1801.57C1612.43 1802.81 1610.65 1803.47 1608.83 1803.4C1607.01 1803.33 1605.3 1802.55 1604.06 1801.21C1602.82 1799.88 1602.16 1798.1 1602.23 1796.28C1602.23 1794.09 1609.67 1595.58 1611.05 1540.58C1604.13 1541.8 1597 1541.08 1590.46 1538.52C1583.04 1535.65 1576.83 1530.31 1572.89 1523.39C1571.22 1525.66 1569.42 1527.84 1567.5 1529.91C1587.2 1617.61 1588.85 1798.79 1588.91 1807.37C1588.91 1809.19 1588.19 1810.93 1586.9 1812.22C1585.62 1813.51 1583.87 1814.23 1582.05 1814.23L1581.74 1814.33ZM1532.47 1487.81H1532.2C1528.08 1488.73 1522.48 1500.67 1523.34 1513.68C1523.72 1519.65 1525.78 1529.84 1535.28 1530.84C1541.35 1531.24 1547.33 1529.28 1551.99 1525.38C1550.5 1519.35 1548.63 1513.41 1546.4 1507.61C1539.85 1491.2 1534.39 1487.81 1532.47 1487.81ZM1633.08 1472.61C1629.92 1475.18 1625.73 1490.66 1624.94 1518.86C1628.3 1515.99 1631.25 1512.66 1633.69 1508.98C1640.56 1498.68 1644.47 1483.62 1636.54 1475.35C1635.58 1474.22 1634.4 1473.28 1633.08 1472.61Z" class="color1d1d1b svgShape"/><path fill="#1c1c1c" d="M1337.61 1829.08C1336.47 1829.08 1335.36 1828.8 1334.36 1828.26C1333.36 1827.73 1332.51 1826.95 1331.89 1826.01C1331.26 1825.06 1330.88 1823.98 1330.78 1822.85C1330.67 1821.72 1330.85 1820.59 1331.29 1819.54C1336.23 1807.88 1353.9 1795.28 1390.34 1777.48H1390.76C1407.91 1769.07 1427.06 1760.66 1445.49 1752.53C1455.61 1748.07 1465.46 1743.71 1474.62 1739.53C1483.78 1735.34 1491.09 1731.87 1497.5 1728.61C1503.27 1725.7 1508.79 1722.64 1513.97 1719.52C1542.87 1702.16 1555.36 1685.21 1555.77 1662.46C1555.85 1659.12 1555.69 1655.79 1555.29 1652.47C1553.54 1636.86 1541.19 1628.66 1518.61 1628.15C1509.95 1628 1501.3 1628.86 1492.84 1630.72C1488.69 1631.65 1482.75 1632.78 1475.48 1634.15C1457.53 1637.58 1430.46 1642.97 1402.53 1649.9C1401.65 1650.12 1400.74 1650.18 1399.85 1650.05C1398.95 1649.92 1398.09 1649.62 1397.32 1649.16C1396.54 1648.7 1395.86 1648.1 1395.32 1647.38C1394.77 1646.65 1394.38 1645.83 1394.15 1644.96C1393.93 1644.08 1393.88 1643.17 1394 1642.28C1394.13 1641.39 1394.43 1640.53 1394.89 1639.75C1395.35 1638.97 1395.96 1638.29 1396.68 1637.75C1397.4 1637.21 1398.22 1636.81 1399.09 1636.59C1427.33 1629.55 1454.65 1624.2 1472.7 1620.66C1479.87 1619.29 1485.7 1618.13 1489.85 1617.23C1499.38 1615.13 1509.13 1614.16 1518.88 1614.35C1548.53 1615.04 1566.27 1628.08 1568.88 1650.86C1569.33 1654.8 1569.52 1658.77 1569.43 1662.73C1568.91 1690.18 1553.98 1711.35 1520.97 1731.36C1515.52 1734.79 1509.69 1737.84 1503.65 1740.93C1497.06 1744.36 1489.2 1748 1480.25 1752.08C1471.29 1756.17 1461.13 1760.66 1450.94 1765.16C1432.55 1773.29 1413.51 1781.7 1396.42 1790.03H1396.07C1357.1 1809.08 1346.15 1819.58 1343.85 1825C1343.31 1826.21 1342.44 1827.24 1341.33 1827.96C1340.22 1828.69 1338.93 1829.08 1337.61 1829.08Z" class="color1d1d1b svgShape"/><path fill="#1c1c1c" d="M1059.29 2127.37C1058.09 2127.38 1056.91 2127.07 1055.86 2126.48C1054.28 2125.58 1053.12 2124.1 1052.63 2122.35C1052.14 2120.6 1052.36 2118.73 1053.25 2117.14C1054.01 2115.77 1131.52 1976.94 1154.06 1888.17C1167.79 1834.02 1204.4 1769.14 1249.56 1718.77C1250.77 1717.4 1252.48 1716.57 1254.3 1716.47C1256.13 1716.36 1257.92 1716.99 1259.29 1718.2C1260.65 1719.42 1261.48 1721.12 1261.58 1722.95C1261.69 1724.77 1261.07 1726.56 1259.85 1727.93C1216.1 1776.76 1180.69 1839.41 1167.45 1891.53C1144.42 1982.09 1068.52 2118 1065.3 2123.87C1064.7 2124.93 1063.83 2125.82 1062.77 2126.43C1061.71 2127.05 1060.51 2127.37 1059.29 2127.37Z" class="color1d1d1b svgShape"/><path fill="#1c1c1c" d="M1502.58 2104.79C1500.94 2104.78 1499.36 2104.19 1498.11 2103.12C1496.87 2102.05 1496.05 2100.57 1495.81 2098.95C1495.56 2097.33 1495.91 2095.67 1496.78 2094.28C1497.65 2092.89 1498.99 2091.86 1500.56 2091.37C1516.69 2086.39 1561.5 2070.37 1574.98 2056.3C1584.08 2046.8 1591.59 1999.48 1587.1 1959.74C1584.39 1935.49 1577.73 1918.02 1568.43 1910.68C1542.87 1890.43 1516.69 1885.46 1486.08 1894.93C1467.79 1900.62 1447.68 1911.64 1426.27 1927.66C1425.55 1928.2 1424.73 1928.6 1423.86 1928.82C1422.98 1929.04 1422.08 1929.09 1421.18 1928.97C1419.38 1928.71 1417.76 1927.75 1416.66 1926.29C1415.57 1924.83 1415.1 1923 1415.36 1921.2C1415.62 1919.4 1416.58 1917.77 1418.04 1916.68C1440.72 1899.53 1462.23 1887.96 1482.03 1881.82C1517.3 1870.87 1547.47 1876.6 1576.91 1899.9C1592.55 1912.29 1598.49 1938.44 1600.72 1958.24C1605.08 1996.67 1599.21 2050.88 1584.83 2065.77C1566.17 2085.3 1507.08 2103.69 1504.57 2104.48C1503.93 2104.68 1503.26 2104.78 1502.58 2104.79Z" class="color1d1d1b svgShape"/><path fill="#1c1c1c" d="M1572.72 1912.15C1572.21 1912.2 1571.69 1912.2 1571.18 1912.15C1570.3 1911.95 1569.47 1911.58 1568.73 1911.06C1568 1910.53 1567.37 1909.87 1566.89 1909.1C1566.42 1908.34 1566.09 1907.49 1565.95 1906.6C1565.8 1905.71 1565.82 1904.8 1566.03 1903.92C1574.85 1865.97 1564.72 1817.38 1562.87 1811.27C1560.55 1802.9 1557.09 1794.89 1552.58 1787.46C1547.74 1779.81 1536.86 1776 1517.41 1775.18C1504.35 1774.76 1491.28 1775.21 1478.29 1776.51C1450.41 1779.39 1422.74 1783.97 1395.42 1790.24H1395.22H1394.81C1393.04 1790.69 1391.17 1790.43 1389.6 1789.5C1388.03 1788.58 1386.89 1787.06 1386.43 1785.3C1385.98 1783.53 1386.24 1781.66 1387.17 1780.09C1388.1 1778.52 1389.61 1777.38 1391.37 1776.93H1391.55H1391.99C1419.97 1770.46 1448.32 1765.74 1476.88 1762.79C1490.48 1761.44 1504.16 1761.01 1517.82 1761.49C1534.25 1762.17 1554.4 1764.92 1564.04 1780.19C1569.24 1788.66 1573.27 1797.8 1576.01 1807.36C1578.31 1814.98 1588.88 1866 1579.44 1906.87C1579.09 1908.38 1578.23 1909.73 1577.01 1910.69C1575.78 1911.65 1574.27 1912.16 1572.72 1912.15Z" class="color1d1d1b svgShape"/><path fill="#1c1c1c" d="M2132.02 2127.37C2130.81 2127.37 2129.63 2127.06 2128.58 2126.45C2127.53 2125.85 2126.66 2124.98 2126.05 2123.94C2126.05 2123.76 2117.17 2108.05 2104.78 2084.1C2104.37 2083.46 2104.08 2082.75 2103.92 2082.01C2103.52 2080.35 2103.74 2078.6 2104.56 2077.1C2105.37 2075.6 2106.72 2074.46 2108.33 2073.9C2109.94 2073.34 2111.7 2073.39 2113.28 2074.06C2114.85 2074.73 2116.11 2075.96 2116.82 2077.51C2129.14 2101.32 2137.89 2117.01 2137.99 2117.14C2138.88 2118.73 2139.1 2120.61 2138.61 2122.36C2138.11 2124.11 2136.94 2125.59 2135.35 2126.48C2134.34 2127.05 2133.19 2127.36 2132.02 2127.37Z" class="color1d1d1b svgShape"/><path fill="#1c1c1c" d="M1853.74 1829.08C1852.4 1829.08 1851.08 1828.68 1849.96 1827.94C1848.83 1827.19 1847.96 1826.13 1847.43 1824.89C1843.24 1815.05 1817.51 1794.56 1798.71 1779.6C1797.99 1779.05 1797.39 1778.35 1796.94 1777.56C1796.49 1776.77 1796.2 1775.9 1796.09 1775C1795.98 1774.09 1796.05 1773.18 1796.3 1772.3C1796.55 1771.43 1796.97 1770.61 1797.53 1769.9C1798.1 1769.19 1798.8 1768.6 1799.6 1768.16C1800.39 1767.72 1801.27 1767.45 1802.17 1767.35C1803.08 1767.25 1803.99 1767.34 1804.86 1767.6C1805.74 1767.86 1806.55 1768.29 1807.25 1768.86C1834.91 1790.89 1854.91 1807.39 1860.06 1819.54C1860.77 1821.22 1860.78 1823.1 1860.1 1824.79C1859.42 1826.47 1858.09 1827.82 1856.42 1828.53C1855.57 1828.89 1854.66 1829.08 1853.74 1829.08Z" class="color1d1d1b svgShape"/><path fill="#1c1c1c" d="M1782.75 1942.01C1781.67 1942 1780.61 1941.75 1779.65 1941.26C1778.69 1940.77 1777.86 1940.06 1777.23 1939.19C1770.36 1929.62 1748.71 1915.79 1725.96 1901.14C1713.47 1893.11 1700.57 1884.81 1687.94 1875.95C1686.45 1874.91 1685.44 1873.31 1685.12 1871.52C1684.8 1869.72 1685.22 1867.87 1686.26 1866.38C1687.31 1864.89 1688.91 1863.87 1690.7 1863.56C1692.5 1863.24 1694.34 1863.65 1695.84 1864.7C1708.26 1873.42 1721.02 1881.65 1733.37 1889.61C1758.29 1905.64 1779.8 1919.46 1788.28 1931.1C1789.02 1932.12 1789.47 1933.33 1789.57 1934.59C1789.68 1935.85 1789.43 1937.12 1788.86 1938.24C1788.29 1939.37 1787.41 1940.32 1786.33 1940.99C1785.26 1941.65 1784.02 1942 1782.75 1942.01Z" class="color1d1d1b svgShape"/><path fill="#1c1c1c" d="M1804.5 1781.73C1803.64 1781.73 1802.78 1781.56 1801.97 1781.25L1800.42 1780.63C1799.58 1780.3 1798.82 1779.81 1798.17 1779.18C1797.53 1778.55 1797.01 1777.8 1796.65 1776.97C1796.3 1776.14 1796.11 1775.25 1796.09 1774.35C1796.08 1773.45 1796.25 1772.55 1796.58 1771.71C1796.91 1770.88 1797.41 1770.11 1798.04 1769.46C1798.66 1768.82 1799.41 1768.3 1800.24 1767.94C1801.07 1767.59 1801.96 1767.4 1802.86 1767.38C1803.77 1767.37 1804.66 1767.54 1805.5 1767.87L1807.04 1768.49C1808.53 1769.08 1809.77 1770.16 1810.54 1771.57C1811.31 1772.97 1811.56 1774.59 1811.26 1776.16C1810.96 1777.73 1810.12 1779.15 1808.89 1780.17C1807.65 1781.18 1806.1 1781.74 1804.5 1781.73Z" class="color1d1d1b svgShape"/><path fill="#1c1c1c" d="M1496.48 1680.61C1494.07 1680.58 1491.7 1679.93 1489.61 1678.73C1475.89 1671.07 1466.49 1638.24 1464.77 1631.75C1464.51 1630.87 1464.42 1629.94 1464.52 1629.02C1464.63 1628.1 1464.91 1627.22 1465.37 1626.41C1465.82 1625.61 1466.43 1624.9 1467.16 1624.34C1467.9 1623.78 1468.73 1623.37 1469.63 1623.14C1470.52 1622.91 1471.45 1622.86 1472.37 1623C1473.28 1623.13 1474.15 1623.45 1474.94 1623.94C1475.73 1624.42 1476.41 1625.06 1476.94 1625.81C1477.48 1626.57 1477.85 1627.42 1478.05 1628.32C1483.57 1649.25 1492.6 1666.27 1496.68 1666.96C1508.03 1663.87 1519.79 1662.53 1531.54 1662.98C1533.36 1663.07 1535.07 1663.88 1536.3 1665.23C1537.52 1666.58 1538.15 1668.36 1538.06 1670.18C1537.97 1672 1537.16 1673.71 1535.81 1674.93C1534.46 1676.16 1532.68 1676.79 1530.86 1676.7C1520.68 1676.34 1510.5 1677.5 1500.66 1680.13C1499.3 1680.51 1497.89 1680.67 1496.48 1680.61Z" class="color1d1d1b svgShape"/><path fill="#1c1c1c" d="M1737.22 1640.53H1735.12C1727.91 1640.02 1720.88 1638.07 1714.43 1634.8C1707.99 1631.53 1702.26 1627 1697.59 1621.49C1697.05 1620.77 1696.65 1619.94 1696.43 1619.07C1696.2 1618.2 1696.16 1617.29 1696.28 1616.4C1696.41 1615.51 1696.71 1614.65 1697.17 1613.87C1697.63 1613.1 1698.24 1612.42 1698.96 1611.88C1699.68 1611.34 1700.5 1610.94 1701.37 1610.72C1702.25 1610.5 1703.15 1610.45 1704.05 1610.58C1704.94 1610.7 1705.8 1611 1706.57 1611.46C1707.35 1611.92 1708.03 1612.53 1708.57 1613.25C1712.05 1617.25 1716.29 1620.53 1721.04 1622.88C1725.79 1625.24 1730.96 1626.63 1736.26 1626.98C1750.19 1628.11 1765.15 1603.4 1769.33 1594.65C1769.71 1593.82 1770.25 1593.07 1770.91 1592.44C1771.58 1591.82 1772.37 1591.33 1773.23 1591.01C1774.09 1590.7 1775 1590.56 1775.91 1590.6C1776.83 1590.64 1777.73 1590.86 1778.55 1591.26C1779.38 1591.65 1780.12 1592.21 1780.73 1592.89C1781.33 1593.57 1781.8 1594.37 1782.1 1595.24C1782.39 1596.11 1782.51 1597.02 1782.45 1597.93C1782.38 1598.85 1782.14 1599.74 1781.72 1600.56C1779.7 1604.57 1761.85 1640.53 1737.22 1640.53Z" class="color1d1d1b svgShape"/><path fill="#1c1c1c" d="M1653.63 1780.22C1652.19 1780.22 1650.75 1780.08 1649.34 1779.81C1648.41 1779.69 1647.52 1779.39 1646.71 1778.92C1645.91 1778.45 1645.21 1777.82 1644.65 1777.07C1644.1 1776.32 1643.7 1775.46 1643.49 1774.55C1643.28 1773.64 1643.26 1772.7 1643.42 1771.78C1643.59 1770.86 1643.94 1769.98 1644.46 1769.2C1644.97 1768.43 1645.64 1767.76 1646.43 1767.25C1647.21 1766.74 1648.09 1766.39 1649.01 1766.24C1649.93 1766.08 1650.87 1766.11 1651.78 1766.32C1663.65 1768.48 1675.42 1747.21 1678.64 1739.59C1679.35 1737.91 1680.7 1736.59 1682.39 1735.9C1684.08 1735.22 1685.97 1735.23 1687.65 1735.94C1689.33 1736.65 1690.66 1738 1691.34 1739.69C1692.03 1741.37 1692.02 1743.27 1691.31 1744.95C1689.69 1748.72 1675.66 1780.22 1653.63 1780.22Z" class="color1d1d1b svgShape"/><path fill="#1c1c1c" d="M1636.3 1886.94C1625.61 1887.1 1615.29 1883.03 1607.58 1875.61C1606.32 1874.3 1605.62 1872.54 1605.66 1870.72C1605.69 1868.9 1606.44 1867.17 1607.75 1865.9C1609.06 1864.64 1610.82 1863.95 1612.64 1863.98C1614.47 1864.01 1616.2 1864.76 1617.46 1866.07C1618.22 1866.86 1634.11 1882.27 1659.39 1865.18C1660.14 1864.63 1660.99 1864.24 1661.89 1864.03C1662.79 1863.81 1663.72 1863.79 1664.63 1863.94C1665.54 1864.1 1666.41 1864.44 1667.19 1864.94C1667.97 1865.44 1668.63 1866.09 1669.15 1866.86C1669.67 1867.62 1670.03 1868.49 1670.2 1869.4C1670.38 1870.3 1670.37 1871.24 1670.18 1872.14C1669.99 1873.05 1669.61 1873.9 1669.08 1874.66C1668.55 1875.41 1667.87 1876.05 1667.08 1876.54C1658.12 1883.05 1647.38 1886.68 1636.3 1886.94Z" class="color1d1d1b svgShape"/><path fill="#fff" d="M1079.57 1289.75C1079.57 1253.86 1065.31 1219.44 1039.93 1194.06C1014.55 1168.68 980.132 1154.42 944.24 1154.42C962.011 1154.42 979.608 1150.93 996.027 1144.13C1012.45 1137.33 1027.36 1127.37 1039.93 1114.8C1052.5 1102.24 1062.47 1087.32 1069.27 1070.91C1076.07 1054.49 1079.57 1036.89 1079.57 1019.12C1079.57 1055.01 1093.83 1089.42 1119.2 1114.79C1144.57 1140.16 1178.99 1154.42 1214.87 1154.42C1197.1 1154.42 1179.5 1157.92 1163.08 1164.72C1146.67 1171.52 1131.75 1181.49 1119.19 1194.06C1106.62 1206.63 1096.66 1221.55 1089.86 1237.96C1083.06 1254.38 1079.57 1271.98 1079.57 1289.75Z" class="colord6f436 svgShape"/><path fill="#1c1c1c" d="M1079.57 1296.61C1077.75 1296.61 1076.01 1295.89 1074.72 1294.6C1073.43 1293.32 1072.71 1291.57 1072.71 1289.75C1072.66 1255.69 1059.11 1223.04 1035.03 1198.96C1010.95 1174.88 978.298 1161.33 944.24 1161.28C942.42 1161.28 940.675 1160.56 939.388 1159.27C938.101 1157.98 937.378 1156.24 937.378 1154.42C937.378 1152.6 938.101 1150.85 939.388 1149.57C940.675 1148.28 942.42 1147.56 944.24 1147.56C978.295 1147.52 1010.95 1133.98 1035.03 1109.9C1059.11 1085.82 1072.66 1053.18 1072.71 1019.12C1072.71 1017.3 1073.43 1015.56 1074.72 1014.27C1076.01 1012.98 1077.75 1012.26 1079.57 1012.26C1081.39 1012.26 1083.14 1012.98 1084.42 1014.27C1085.71 1015.56 1086.43 1017.3 1086.43 1019.12C1086.47 1053.17 1100.01 1085.82 1124.09 1109.9C1148.17 1133.98 1180.82 1147.52 1214.87 1147.56C1216.69 1147.56 1218.43 1148.28 1219.72 1149.57C1221.01 1150.85 1221.73 1152.6 1221.73 1154.42C1221.73 1156.24 1221.01 1157.98 1219.72 1159.27C1218.43 1160.56 1216.69 1161.28 1214.87 1161.28C1180.81 1161.33 1148.17 1174.88 1124.09 1198.96C1100.01 1223.05 1086.47 1255.7 1086.43 1289.75C1086.43 1291.57 1085.71 1293.32 1084.42 1294.6C1083.14 1295.89 1081.39 1296.61 1079.57 1296.61ZM987.921 1154.42C1009.34 1161.39 1028.81 1173.33 1044.73 1189.26C1060.66 1205.18 1072.6 1224.65 1079.57 1246.07C1086.54 1224.64 1098.48 1205.17 1114.41 1189.24C1130.35 1173.31 1149.83 1161.38 1171.26 1154.42C1149.84 1147.46 1130.37 1135.54 1114.45 1119.61C1098.52 1103.69 1086.59 1084.22 1079.64 1062.8C1072.67 1084.23 1060.72 1103.7 1044.78 1119.62C1028.84 1135.54 1009.35 1147.47 987.921 1154.42Z" class="color1d1d1b svgShape"/><path fill="#fff" d="M2162.91 1322.56C2162.91 1286.66 2148.65 1252.24 2123.27 1226.86C2097.89 1201.48 2063.47 1187.22 2027.57 1187.22C2045.35 1187.23 2062.94 1183.73 2079.36 1176.94C2095.78 1170.14 2110.7 1160.17 2123.27 1147.61C2135.83 1135.05 2145.8 1120.13 2152.6 1103.71C2159.41 1087.29 2162.91 1069.7 2162.91 1051.93C2162.91 1087.81 2177.16 1122.22 2202.53 1147.6C2227.91 1172.97 2262.32 1187.22 2298.2 1187.22C2280.43 1187.22 2262.84 1190.73 2246.42 1197.53C2230 1204.33 2215.09 1214.3 2202.52 1226.86C2189.96 1239.43 2179.99 1254.35 2173.19 1270.77C2166.4 1287.19 2162.9 1304.79 2162.91 1322.56Z" class="colord6f436 svgShape"/><path fill="#1c1c1c" d="M2162.91 1329.42C2161.09 1329.42 2159.34 1328.7 2158.05 1327.41C2156.77 1326.12 2156.04 1324.38 2156.04 1322.56C2156 1288.5 2142.45 1255.85 2118.37 1231.76C2094.28 1207.68 2061.63 1194.13 2027.58 1194.09C2025.75 1194.09 2024.01 1193.36 2022.72 1192.08C2021.44 1190.79 2020.71 1189.04 2020.71 1187.22C2020.71 1185.4 2021.44 1183.66 2022.72 1182.37C2024.01 1181.09 2025.75 1180.36 2027.58 1180.36C2061.63 1180.33 2094.28 1166.78 2118.36 1142.71C2142.45 1118.63 2156 1085.98 2156.04 1051.93C2156.04 1050.11 2156.77 1048.36 2158.05 1047.08C2159.34 1045.79 2161.09 1045.07 2162.91 1045.07C2164.73 1045.07 2166.47 1045.79 2167.76 1047.08C2169.05 1048.36 2169.77 1050.11 2169.77 1051.93V1052.58C2169.99 1086.52 2183.61 1118.99 2207.67 1142.93C2231.72 1166.86 2264.27 1180.32 2298.2 1180.36C2300.02 1180.36 2301.77 1181.09 2303.06 1182.37C2304.34 1183.66 2305.07 1185.4 2305.07 1187.22C2305.07 1189.04 2304.34 1190.79 2303.06 1192.08C2301.77 1193.36 2300.02 1194.09 2298.2 1194.09C2264.15 1194.13 2231.5 1207.68 2207.42 1231.77C2183.35 1255.85 2169.81 1288.5 2169.77 1322.56C2169.77 1324.38 2169.05 1326.12 2167.76 1327.41C2166.47 1328.7 2164.73 1329.42 2162.91 1329.42ZM2071.26 1187.22C2092.67 1194.2 2112.14 1206.13 2128.07 1222.06C2144 1237.99 2155.93 1257.46 2162.91 1278.88C2169.87 1257.46 2181.8 1237.99 2197.72 1222.06C2213.65 1206.14 2233.11 1194.2 2254.52 1187.22C2233.11 1180.27 2213.64 1168.34 2197.72 1152.41C2181.79 1136.49 2169.87 1117.02 2162.91 1095.61C2155.92 1117.04 2143.96 1136.52 2128 1152.45C2112.04 1168.37 2092.54 1180.29 2071.08 1187.22H2071.26Z" class="color1d1d1b svgShape"/><path fill="#1c1c1c" d="M1633.76 1985.48H1588.67C1586.85 1985.48 1585.11 1984.76 1583.82 1983.47C1582.54 1982.18 1581.81 1980.44 1581.81 1978.62C1581.81 1976.8 1582.54 1975.05 1583.82 1973.76C1585.11 1972.48 1586.85 1971.75 1588.67 1971.75H1633.76C1635.58 1971.75 1637.33 1972.48 1638.62 1973.76C1639.9 1975.05 1640.62 1976.8 1640.62 1978.62C1640.62 1980.44 1639.9 1982.18 1638.62 1983.47C1637.33 1984.76 1635.58 1985.48 1633.76 1985.48Z" class="color1d1d1b svgShape"/><path fill="#fff" d="M812.203 1958.13C812.203 1940.36 808.702 1922.76 801.901 1906.34C795.1 1889.92 785.132 1875.01 772.565 1862.44C759.999 1849.87 745.08 1839.9 728.661 1833.1C712.242 1826.3 694.644 1822.8 676.872 1822.8C694.642 1822.81 712.239 1819.31 728.658 1812.51C745.077 1805.72 759.996 1795.75 772.563 1783.19C785.13 1770.62 795.099 1755.71 801.901 1739.29C808.702 1722.87 812.203 1705.28 812.203 1687.5C812.203 1705.28 815.703 1722.87 822.505 1739.29C829.306 1755.71 839.275 1770.62 851.842 1783.19C864.41 1795.75 879.329 1805.72 895.747 1812.51C912.166 1819.31 929.763 1822.81 947.534 1822.8C929.762 1822.8 912.164 1826.3 895.745 1833.1C879.326 1839.9 864.407 1849.87 851.84 1862.44C839.274 1875.01 829.305 1889.92 822.504 1906.34C815.703 1922.76 812.203 1940.36 812.203 1958.13Z" class="colord6f436 svgShape"/><path fill="#1c1c1c" d="M812.203 1965C810.383 1965 808.637 1964.27 807.35 1962.99C806.063 1961.7 805.34 1959.95 805.34 1958.13C805.304 1924.07 791.757 1891.42 767.672 1867.33C743.588 1843.25 710.932 1829.7 676.872 1829.66C675.052 1829.66 673.306 1828.94 672.019 1827.65C670.732 1826.37 670.009 1824.62 670.009 1822.8C670.009 1820.98 670.732 1819.24 672.019 1817.95C673.306 1816.66 675.052 1815.94 676.872 1815.94C710.929 1815.91 743.585 1802.37 767.67 1778.29C791.756 1754.21 805.304 1721.56 805.34 1687.51C805.34 1685.69 806.063 1683.94 807.35 1682.65C808.637 1681.37 810.383 1680.64 812.203 1680.64C814.023 1680.64 815.768 1681.37 817.055 1682.65C818.342 1683.94 819.065 1685.69 819.065 1687.51C819.102 1721.56 832.649 1754.21 856.735 1778.29C880.821 1802.37 913.476 1815.91 947.534 1815.94C949.354 1815.94 951.099 1816.66 952.386 1817.95C953.673 1819.24 954.396 1820.98 954.396 1822.8C954.396 1824.62 953.673 1826.37 952.386 1827.65C951.099 1828.94 949.354 1829.66 947.534 1829.66C913.473 1829.7 880.818 1843.25 856.733 1867.33C832.648 1891.42 819.102 1924.07 819.065 1958.13C819.065 1959.95 818.342 1961.7 817.055 1962.99C815.768 1964.27 814.023 1965 812.203 1965ZM720.552 1822.8C741.971 1829.78 761.437 1841.71 777.365 1857.64C793.292 1873.57 805.229 1893.03 812.203 1914.45C819.168 1893.03 831.103 1873.56 847.032 1857.63C862.96 1841.7 882.431 1829.77 903.853 1822.8C882.433 1815.84 862.964 1803.91 847.035 1787.99C831.106 1772.07 819.171 1752.6 812.203 1731.19C805.23 1752.6 793.292 1772.06 777.364 1787.98C761.436 1803.91 741.969 1815.84 720.552 1822.8Z" class="color1d1d1b svgShape"/><path fill="#1c1c1c" d="M1605.08 2489.85C1603.26 2489.85 1601.51 2489.13 1600.22 2487.84C1598.94 2486.55 1598.21 2484.81 1598.21 2482.99V2154.95C1598.21 2153.13 1598.94 2151.39 1600.22 2150.1C1601.51 2148.81 1603.26 2148.09 1605.08 2148.09C1606.9 2148.09 1608.64 2148.81 1609.93 2150.1C1611.22 2151.39 1611.94 2153.13 1611.94 2154.95V2482.99C1611.94 2484.81 1611.22 2486.55 1609.93 2487.84C1608.64 2489.13 1606.9 2489.85 1605.08 2489.85Z" class="color1d1d1b svgShape"/><path fill="#1c1c1c" d="M703.773 2059.26C677.663 2059.24 651.73 2054.98 626.98 2046.67C546.001 2019.73 492.301 1956.94 461.522 1909.04C421.856 1847.27 396.773 1772.64 392.656 1704.32C387.097 1611.68 422.199 1560.62 475.35 1483.59C511.928 1430.54 557.496 1364.49 606.564 1262.16C676.803 1115.72 700.205 1007.22 719.008 920.028C742.341 811.495 759.498 733.09 850.153 653.175C988.264 531.534 1164.87 523.848 1215.59 524.329C1267.33 524.843 1311.94 533.079 1355.86 549.755C1357.47 550.468 1358.74 551.771 1359.42 553.396C1360.09 555.02 1360.12 556.842 1359.49 558.485C1358.86 560.127 1357.62 561.465 1356.03 562.222C1354.44 562.979 1352.63 563.098 1350.95 562.553C1307.66 546.167 1261.74 537.852 1215.45 538.02C1165.73 537.471 993.685 544.882 859.212 663.434C771.782 740.399 755.277 816.951 732.425 922.944C713.449 1010.82 689.876 1120.21 618.917 1268.1C569.403 1371.42 523.526 1437.92 486.639 1491.38C433.283 1568.72 401.097 1615.42 406.381 1703.5C414.067 1831.56 500.296 1990.05 631.304 2033.63C730.023 2066.46 815.222 2024.47 897.574 1983.84L904.231 1980.58C905.039 1980.18 905.919 1979.94 906.819 1979.89C907.719 1979.83 908.621 1979.95 909.475 1980.24C910.329 1980.53 911.118 1980.98 911.795 1981.58C912.473 1982.17 913.028 1982.89 913.426 1983.7C913.825 1984.51 914.061 1985.39 914.12 1986.29C914.179 1987.19 914.06 1988.09 913.77 1988.95C913.48 1989.8 913.025 1990.59 912.43 1991.27C911.835 1991.94 911.113 1992.5 910.304 1992.9L903.647 1996.16C840.477 2027.31 775.693 2059.26 703.773 2059.26Z" class="color1d1d1b svgShape"/><path fill="#1c1c1c" d="M2193.31 2556.97C2191.49 2557.01 2189.72 2556.33 2188.4 2555.08C2187.09 2553.82 2186.32 2552.1 2186.27 2550.28C2186.23 2548.46 2186.91 2546.69 2188.16 2545.37C2189.42 2544.05 2191.14 2543.29 2192.96 2543.24L2198.69 2542.93C2344.77 2535.35 2405.23 2532.19 2460.4 2446.48C2513.52 2364.13 2482.7 2289.67 2431.65 2166.59C2384.23 2052.22 2319.27 1895.51 2299.4 1659.37C2281.73 1449.13 2308.77 1294.45 2330.49 1170.13C2355.51 1026.98 2372.01 932.411 2297.24 855.789C2240.25 797.457 2180.58 798.898 2090.51 801.163C1997.21 803.496 1881.2 806.413 1712.68 745.816C1711.79 745.546 1710.97 745.097 1710.26 744.498C1709.54 743.899 1708.96 743.162 1708.55 742.331C1708.13 741.499 1707.88 740.592 1707.83 739.664C1707.77 738.736 1707.9 737.805 1708.22 736.93C1708.53 736.055 1709.02 735.252 1709.66 734.572C1710.29 733.891 1711.05 733.347 1711.91 732.971C1712.76 732.595 1713.67 732.397 1714.6 732.387C1715.53 732.377 1716.46 732.556 1717.32 732.914C1883.36 792.653 1998.03 789.771 2090.16 787.438C2180.58 785.173 2245.88 783.526 2307.06 846.216C2386.77 927.847 2369.75 1025.19 2344.01 1172.5C2322.43 1296.03 2295.56 1449.75 2313.13 1658.2C2332.79 1892.36 2397.27 2047.79 2444.34 2161.34C2495.3 2284.18 2528.96 2365.33 2471.79 2453.89C2412.81 2545.54 2345.9 2549.04 2199.24 2556.83L2193.55 2557.1L2193.31 2556.97Z" class="color1d1d1b svgShape"/></svg>