<svg xmlns="http://www.w3.org/2000/svg" fill="none" viewBox="0 0 3000 3000"><path fill="#ffb391" d="M671.515 2535.76C665.433 2550.8 713.332 2577.14 774.906 2607.19C836.48 2637.24 848.176 2607.19 854.077 2592.19C859.979 2577.18 825.54 2580.02 764.11 2550.01C702.68 2520 677.705 2520.72 671.515 2535.76Z" class="colorf9afd1 svgShape"/><path fill="#ffb391" d="M2320.48 2536.33C2326.52 2551.34 2278.62 2577.72 2217.05 2607.77C2155.48 2637.82 2143.82 2607.77 2137.88 2592.72C2131.94 2577.68 2166.42 2580.6 2228.03 2550.55C2289.64 2520.5 2314.4 2521.29 2320.48 2536.33Z" class="colorf9afd1 svgShape"/><path fill="#94a9fa" d="M1320.07 1583C1327.67 1653.07 1310.79 1684.78 1292.62 1700.61C1243.1 1743.79 1164.54 1685.75 1057.37 1720.22C1043.66 1724.65 983.271 1745.41 939.763 1798.64C841.05 1919.34 884.019 2139.8 849.579 2143.68C843.497 2144.37 834.177 2138.39 822.121 2143.68C809.022 2149.4 808.77 2161.35 802.508 2163.3C784.047 2168.98 753.35 2075.45 688.825 1986.96C633.837 1911.39 609.294 1914.98 590.796 1861.47C585.074 1844.99 576.401 1813 547.612 1786.98C539.399 1779.45 530.426 1772.79 520.837 1767.11C568.16 1505.88 864.082 1293.09 1253.35 1228.06C1253.38 1246.86 1255.35 1265.6 1259.22 1283.99C1232.34 1282.94 1219.63 1291.9 1214.16 1296.87C1181.96 1326.27 1199.16 1402.46 1237.7 1445.86C1249.98 1459.57 1264.82 1470.76 1281.39 1478.79L1320.07 1583Z" class="color9745ff svgShape"/><path fill="#94a9fa" d="M2484.94 1753.22C2444.49 1801.47 2396.09 1873.41 2335.59 1963.31C2288.31 2033.54 2245.82 2106.88 2208.41 2182.83L2174.84 2175.02L2137.84 2131.84C2138.6 2096.41 2136.54 2060.99 2131.69 2025.89C2118.95 1933.73 2102.65 1815.91 2020.13 1759.3C1961.79 1719.21 1884.82 1719.71 1821.88 1720.07C1749.54 1720.5 1727.12 1735.87 1700.31 1720.07C1667.24 1700.53 1640.9 1641.44 1668.97 1469.13C1696.49 1453.63 1718.93 1430.48 1733.56 1402.49C1760.02 1352.1 1765.49 1275.67 1731.69 1257.39C1726.08 1254.36 1708.81 1247.2 1673.9 1265.12C1672.8 1248.44 1670.14 1231.9 1665.95 1215.71C2091.53 1260.55 2425.67 1478.89 2484.94 1753.22Z" class="color9745ff svgShape"/><path fill="#ffb391" d="M1266.99 1311.98C1266.99 1331.96 1250.8 1315.58 1230.79 1315.58C1210.78 1315.58 1194.59 1332.03 1194.59 1311.98C1194.59 1302.38 1198.4 1293.17 1205.19 1286.38C1211.98 1279.6 1221.19 1275.78 1230.79 1275.78C1240.39 1275.78 1249.6 1279.6 1256.39 1286.38C1263.18 1293.17 1266.99 1302.38 1266.99 1311.98Z" class="colorf9afd1 svgShape"/><path fill="#ffb391" d="M1745.12 1300.57C1739.76 1319.82 1728.56 1299.64 1709.13 1294.24C1689.7 1288.84 1669.83 1300.36 1675.2 1281.1C1677.78 1271.85 1683.93 1264.01 1692.29 1259.3C1700.66 1254.58 1710.55 1253.38 1719.8 1255.97C1729.05 1258.55 1736.89 1264.7 1741.61 1273.06C1746.32 1281.43 1747.52 1291.32 1744.94 1300.57H1745.12Z" class="colorf9afd1 svgShape"/><path fill="#1c1c1c" d="M1489.68 1661.06H1487.63C1368.87 1659.98 1334.69 1608.3 1299.2 1535.36C1263.72 1462.41 1251.74 1224.93 1251.27 1214.85C1251.22 1213.91 1251.36 1212.96 1251.68 1212.07C1252 1211.18 1252.49 1210.36 1253.12 1209.66C1253.76 1208.96 1254.52 1208.39 1255.38 1207.98C1256.23 1207.58 1257.16 1207.34 1258.11 1207.3C1259.05 1207.25 1260 1207.39 1260.89 1207.71C1261.78 1208.03 1262.6 1208.52 1263.3 1209.15C1264 1209.79 1264.57 1210.55 1264.98 1211.41C1265.38 1212.26 1265.62 1213.19 1265.66 1214.14C1265.66 1216.58 1278.08 1458.85 1312.19 1529.06C1346.31 1599.27 1377.15 1645.66 1487.81 1646.66H1489.86C1584.04 1646.66 1639.53 1588.9 1652.42 1552.23C1662.17 1524.56 1664.72 1404.69 1665.95 1347.29C1666.23 1332.89 1666.49 1321.48 1666.74 1314.9C1668.79 1264.7 1656.59 1113.91 1656.48 1112.4C1656.33 1110.49 1656.94 1108.6 1658.18 1107.14C1659.42 1105.68 1661.19 1104.78 1663.1 1104.63C1665.01 1104.47 1666.9 1105.09 1668.36 1106.33C1669.82 1107.57 1670.72 1109.34 1670.88 1111.25C1671.38 1117.47 1683.29 1264.41 1681.21 1315.47C1680.95 1321.84 1680.7 1333.14 1680.41 1347.5C1679.08 1410.23 1676.56 1527.04 1666.02 1556.91C1648.13 1607.65 1580.44 1661.06 1489.68 1661.06Z" class="color1d1d1b svgShape"/><path fill="#1c1c1c" d="M1479.17 1425.24H1477.34C1473.8 1425.1 1470.34 1424.2 1467.19 1422.59C1464.03 1420.98 1461.27 1418.7 1459.09 1415.92C1438.9 1391.12 1449.81 1320.95 1451.1 1313.03C1451.42 1311.14 1452.47 1309.46 1454.02 1308.35C1454.79 1307.8 1455.67 1307.41 1456.59 1307.2C1457.51 1306.98 1458.46 1306.95 1459.4 1307.11C1460.33 1307.26 1461.22 1307.6 1462.03 1308.1C1462.83 1308.61 1463.53 1309.26 1464.08 1310.03C1464.63 1310.8 1465.02 1311.67 1465.23 1312.59C1465.44 1313.52 1465.47 1314.47 1465.32 1315.4C1462.04 1335.12 1456.57 1390.04 1470.25 1406.81C1471.13 1408.02 1472.28 1409.01 1473.6 1409.7C1474.92 1410.4 1476.38 1410.79 1477.88 1410.84C1480.79 1411.14 1483.73 1410.81 1486.49 1409.86C1489.26 1408.9 1491.78 1407.36 1493.89 1405.34C1503 1396.16 1502.38 1378.24 1502.38 1378.06C1502.29 1376.15 1502.96 1374.28 1504.25 1372.87C1505.54 1371.45 1507.33 1370.61 1509.24 1370.52C1511.15 1370.43 1513.02 1371.1 1514.43 1372.38C1515.84 1373.67 1516.69 1375.46 1516.78 1377.37C1516.78 1378.35 1517.79 1401.66 1504.15 1415.48C1500.87 1418.73 1496.96 1421.26 1492.67 1422.94C1488.37 1424.62 1483.78 1425.4 1479.17 1425.24Z" class="color1d1d1b svgShape"/><path fill="#1c1c1c" d="M1672.71 1461.73C1670.8 1461.73 1668.97 1460.97 1667.62 1459.62C1666.27 1458.27 1665.51 1456.44 1665.51 1454.53C1665.51 1452.62 1666.27 1450.79 1667.62 1449.44C1668.97 1448.09 1670.8 1447.33 1672.71 1447.33C1688.69 1447.33 1702.83 1437.72 1714.74 1418.76C1740.62 1377.55 1746.59 1305.47 1733.13 1277.55C1728.24 1267.43 1721.62 1261.21 1713.41 1259.01C1697 1254.62 1678.22 1267 1678.04 1267.15C1676.46 1268.22 1674.51 1268.63 1672.63 1268.28C1670.76 1267.92 1669.09 1266.84 1668.01 1265.26C1666.94 1263.68 1666.53 1261.73 1666.88 1259.85C1667.24 1257.97 1668.32 1256.31 1669.9 1255.23C1670.88 1254.59 1694.12 1238.97 1717.12 1245.09C1729.57 1248.43 1739.32 1257.25 1746.09 1271.32C1761.38 1303.02 1755.55 1380.83 1726.91 1426.42C1712.4 1449.53 1693.55 1461.73 1672.71 1461.73Z" class="color1d1d1b svgShape"/><path fill="#1c1c1c" d="M1281.42 1481.77C1257.21 1481.77 1235.83 1469.5 1219.64 1446.25C1189.98 1403.65 1182.1 1329.76 1195.09 1294.6C1200.81 1279.13 1209.77 1269.41 1221.76 1265.63C1241.95 1259.27 1262.5 1273.3 1263.36 1273.91C1264.19 1274.43 1264.91 1275.11 1265.46 1275.91C1266.02 1276.71 1266.41 1277.61 1266.61 1278.57C1266.81 1279.53 1266.81 1280.51 1266.62 1281.47C1266.42 1282.43 1266.03 1283.33 1265.47 1284.14C1264.92 1284.94 1264.2 1285.62 1263.37 1286.13C1262.54 1286.65 1261.62 1286.99 1260.65 1287.14C1259.69 1287.29 1258.7 1287.24 1257.76 1286.99C1256.81 1286.75 1255.93 1286.31 1255.15 1285.72C1254.94 1285.72 1239.43 1275.1 1226 1279.38C1218.56 1281.76 1212.69 1288.56 1208.59 1299.61C1198.44 1327.06 1202.36 1396.27 1231.44 1438.01C1245.01 1457.52 1261.85 1467.38 1281.42 1467.38C1283.33 1467.38 1285.16 1468.14 1286.51 1469.49C1287.86 1470.84 1288.62 1472.67 1288.62 1474.58C1288.62 1476.48 1287.86 1478.32 1286.51 1479.67C1285.16 1481.01 1283.33 1481.77 1281.42 1481.77Z" class="color1d1d1b svgShape"/><path fill="#1c1c1c" d="M1580.73 1262.97C1580.73 1281.25 1575.15 1296.07 1568.31 1296.07C1561.48 1296.07 1555.9 1281.25 1555.9 1262.97C1555.9 1244.68 1561.44 1233.96 1568.31 1233.96C1575.19 1233.96 1580.73 1244.58 1580.73 1262.97Z" class="color1d1d1b svgShape"/><path fill="#1c1c1c" d="M1391.26 1275.31C1391.26 1293.59 1385.71 1308.42 1378.88 1308.42C1372.04 1308.42 1366.46 1293.59 1366.46 1275.31C1366.46 1257.03 1372 1246.3 1378.88 1246.3C1385.75 1246.3 1391.26 1257.03 1391.26 1275.31Z" class="color1d1d1b svgShape"/><path fill="#1c1c1c" d="M1447.58 1000.62C1447.58 1000.62 1442.46 1107.58 1288.98 1122.98C1288.98 1122.98 1293.37 1152.09 1265.7 1156.45C1265.7 1156.45 1270.81 1222.63 1251.3 1220.47C1251.3 1220.47 1173.46 1146.98 1230.93 1026.97C1288.4 906.951 1390.97 805.827 1482.63 856.749C1482.63 856.749 1559.75 793.447 1639.75 896.046C1719.75 998.646 1697.33 1138.28 1671.74 1156.45L1654.28 1114.27C1654.28 1114.27 1606.28 1116.43 1584.47 1095.34C1584.33 1095.2 1470.1 1133.74 1447.58 1000.62Z" class="color1d1d1b svgShape"/><path fill="#1c1c1c" d="M1252.13 1227.56H1250.37C1248.82 1227.39 1247.37 1226.72 1246.23 1225.65C1245.4 1224.9 1165.26 1147.16 1224.31 1023.84C1269.4 929.478 1333.1 861.535 1394.86 841.922C1409.06 837.041 1424.11 835.08 1439.09 836.156C1454.08 837.232 1468.69 841.323 1482.05 848.184C1502.54 834.409 1527.2 828.234 1551.76 830.73C1585.41 834.329 1616.93 854.913 1645.33 891.512C1698.26 959.348 1708.19 1045.21 1699.81 1102.94C1695.53 1132.37 1686.57 1154.51 1675.84 1162.21C1674.96 1162.84 1673.94 1163.26 1672.87 1163.44C1671.8 1163.62 1670.7 1163.56 1669.65 1163.25C1668.61 1162.95 1667.66 1162.42 1666.86 1161.69C1666.05 1160.97 1665.42 1160.08 1665.01 1159.08L1649.39 1121.4C1636.54 1121.4 1602.61 1119.56 1582.6 1103.4C1569.79 1106.82 1529.63 1114.92 1494.11 1093.72C1472.52 1080.84 1456.93 1059.68 1447.32 1030.64C1434.12 1064.61 1397.48 1117.26 1296.43 1129.42C1295.96 1141.15 1290.67 1156.48 1273.18 1162.06C1273.94 1177.57 1274.23 1212.08 1262.39 1223.24C1259.67 1225.98 1255.99 1227.53 1252.13 1227.56ZM1431.67 850.307C1420.59 850.37 1409.59 852.167 1399.07 855.633C1342.06 873.627 1280.06 940.562 1237.3 1029.92C1188.51 1131.8 1239.93 1197.55 1253.25 1212.12C1258.61 1205.14 1260.19 1178.54 1258.54 1156.84C1258.4 1155.04 1258.94 1153.25 1260.06 1151.83C1261.18 1150.41 1262.8 1149.46 1264.58 1149.18C1284.38 1146.05 1282.18 1126.15 1281.86 1123.99C1281.72 1123.02 1281.78 1122.04 1282.03 1121.1C1282.29 1120.16 1282.73 1119.28 1283.33 1118.52C1283.93 1117.75 1284.67 1117.12 1285.52 1116.65C1286.36 1116.18 1287.3 1115.88 1288.26 1115.78C1433.33 1101.39 1440.16 1004.51 1440.38 1000.37C1440.27 998.464 1440.92 996.59 1442.19 995.162C1443.47 993.735 1445.25 992.871 1447.16 992.762C1449.07 992.652 1450.95 993.305 1452.37 994.577C1453.8 995.849 1454.66 997.636 1454.77 999.545C1461.5 1039.13 1477.19 1066.66 1501.56 1081.24C1537.8 1102.83 1581.81 1088.43 1582.24 1088.43C1583.48 1088.03 1584.8 1087.98 1586.07 1088.27C1587.33 1088.56 1588.5 1089.19 1589.44 1090.09C1608.76 1108.77 1653.49 1107 1653.93 1107C1655.4 1106.93 1656.87 1107.32 1658.12 1108.11C1659.36 1108.91 1660.34 1110.06 1660.91 1111.43L1673.72 1142.41C1679.97 1129.33 1683.99 1115.29 1685.63 1100.88C1693.58 1046.11 1684.19 964.674 1634.03 900.401C1608.04 867.077 1580.04 848.472 1550.32 845.125C1527.88 842.886 1505.4 848.984 1487.16 862.255C1486.05 863.169 1484.68 863.726 1483.24 863.855C1481.8 863.983 1480.36 863.676 1479.1 862.974C1464.65 854.722 1448.31 850.358 1431.67 850.307Z" class="color1d1d1b svgShape"/><path fill="#1c1c1c" d="M1219.17 1340.99H1218.16C1216.27 1340.72 1214.56 1339.72 1213.42 1338.19C1212.27 1336.67 1211.77 1334.75 1212.04 1332.86C1212.83 1327.1 1215.32 1309.54 1228.31 1305.8C1241.3 1302.05 1254.29 1316.16 1256.7 1319.04C1257.31 1319.76 1257.77 1320.6 1258.06 1321.51C1258.34 1322.41 1258.45 1323.36 1258.37 1324.31C1258.28 1325.25 1258.02 1326.17 1257.58 1327.01C1257.14 1327.85 1256.54 1328.6 1255.82 1329.21C1255.09 1329.82 1254.25 1330.28 1253.35 1330.56C1252.45 1330.85 1251.5 1330.95 1250.55 1330.87C1249.61 1330.79 1248.69 1330.52 1247.85 1330.08C1247.01 1329.65 1246.26 1329.05 1245.65 1328.32C1241.62 1323.54 1234.86 1318.82 1232.27 1319.65C1230.79 1320.08 1227.84 1323.75 1226.29 1334.87C1226.03 1336.58 1225.17 1338.13 1223.86 1339.25C1222.56 1340.38 1220.89 1340.99 1219.17 1340.99Z" class="color1d1d1b svgShape"/><path fill="#1c1c1c" d="M1721.08 1339.51C1719.17 1339.51 1717.34 1338.76 1715.99 1337.41C1714.64 1336.06 1713.88 1334.23 1713.88 1332.32C1714.49 1304.93 1700.17 1298.71 1699.49 1298.45C1697.72 1297.75 1696.3 1296.37 1695.55 1294.63C1694.79 1292.88 1694.76 1290.9 1695.46 1289.13C1696.14 1287.39 1697.48 1285.98 1699.19 1285.21C1700.89 1284.44 1702.83 1284.36 1704.6 1284.99C1705.6 1285.35 1729.03 1294.49 1728.2 1332.64C1728.12 1334.48 1727.34 1336.22 1726.01 1337.5C1724.69 1338.78 1722.92 1339.5 1721.08 1339.51Z" class="color1d1d1b svgShape"/><path fill="#1c1c1c" d="M1435.45 1505.2C1433.91 1505.2 1432.42 1504.7 1431.18 1503.79C1429.94 1502.88 1429.03 1501.6 1428.57 1500.13C1428.12 1498.66 1428.15 1497.09 1428.65 1495.63C1429.16 1494.18 1430.11 1492.93 1431.38 1492.06C1457.59 1475.71 1487.83 1466.98 1518.72 1466.87C1560.11 1466.87 1574 1476.3 1578.53 1481.66L1583.07 1483.82C1583.92 1484.23 1584.69 1484.8 1585.32 1485.51C1585.95 1486.21 1586.44 1487.03 1586.75 1487.92C1587.06 1488.82 1587.2 1489.76 1587.15 1490.71C1587.1 1491.65 1586.86 1492.58 1586.45 1493.43C1586.04 1494.28 1585.47 1495.05 1584.77 1495.68C1584.06 1496.31 1583.24 1496.8 1582.35 1497.11C1581.46 1497.43 1580.51 1497.56 1579.57 1497.51C1578.62 1497.46 1577.7 1497.22 1576.84 1496.81L1570.65 1493.86C1568.96 1493.03 1568.03 1492.6 1567.45 1490.91C1565.94 1489.4 1556.08 1481.27 1518.72 1481.27C1490.76 1481.46 1463.38 1489.3 1439.55 1503.94C1438.34 1504.75 1436.91 1505.19 1435.45 1505.2Z" class="color1d1d1b svgShape"/><path fill="#1c1c1c" d="M1512.89 1529.53C1499.84 1529.25 1486.97 1526.39 1475.03 1521.11C1474.16 1520.72 1473.37 1520.15 1472.72 1519.46C1472.07 1518.76 1471.56 1517.94 1471.23 1517.04C1470.89 1516.14 1470.74 1515.19 1470.78 1514.23C1470.82 1513.28 1471.05 1512.34 1471.46 1511.48C1471.86 1510.61 1472.44 1509.83 1473.15 1509.19C1473.86 1508.55 1474.69 1508.06 1475.59 1507.74C1476.49 1507.43 1477.45 1507.29 1478.41 1507.35C1479.36 1507.41 1480.29 1507.66 1481.15 1508.08C1481.66 1508.29 1518.33 1525.03 1539.38 1506.03C1540.09 1505.39 1540.92 1504.91 1541.81 1504.59C1542.71 1504.28 1543.66 1504.14 1544.61 1504.2C1545.56 1504.25 1546.49 1504.49 1547.34 1504.9C1548.2 1505.32 1548.97 1505.89 1549.6 1506.6C1550.23 1507.31 1550.72 1508.14 1551.03 1509.04C1551.35 1509.93 1551.48 1510.88 1551.43 1511.83C1551.38 1512.78 1551.14 1513.71 1550.72 1514.57C1550.31 1515.42 1549.73 1516.19 1549.02 1516.82C1539.01 1525.46 1526.11 1529.99 1512.89 1529.53Z" class="color1d1d1b svgShape"/><path fill="#1c1c1c" d="M1358.65 1612.62C1358.65 1612.62 1374.95 1680.02 1474.93 1680.99C1573.32 1681.82 1594.12 1628.92 1594.12 1628.92C1594.12 1628.92 1441.64 1706.19 1358.65 1612.62Z" class="color1d1d1b svgShape"/><path fill="#1c1c1c" d="M1477.16 1688.05H1474.89C1370.53 1687.18 1351.85 1615.06 1351.67 1614.31C1351.3 1612.75 1351.46 1611.11 1352.13 1609.66C1352.8 1608.2 1353.93 1607.01 1355.35 1606.27C1356.77 1605.53 1358.4 1605.29 1359.98 1605.58C1361.55 1605.86 1362.98 1606.67 1364.05 1607.87C1442.39 1696.11 1589.36 1623.09 1590.77 1622.26C1592.07 1621.59 1593.55 1621.34 1595 1621.53C1596.45 1621.73 1597.81 1622.36 1598.89 1623.34C1599.98 1624.33 1600.73 1625.62 1601.06 1627.05C1601.39 1628.48 1601.28 1629.97 1600.74 1631.33C1599.98 1633.63 1577.35 1688.05 1477.16 1688.05ZM1390.25 1647.02C1406.44 1660.8 1432.75 1673.33 1475 1673.65H1477.16C1527.54 1673.65 1555.9 1659.26 1571.19 1646.12C1531.14 1660.77 1452.72 1681.21 1390.25 1647.02Z" class="color1d1d1b svgShape"/><path fill="#1c1c1c" d="M1333.03 1231.44C1331.35 1231.45 1329.73 1230.86 1328.43 1229.8C1327.14 1228.73 1326.26 1227.25 1325.94 1225.6C1325.63 1223.95 1325.9 1222.25 1326.7 1220.78C1327.51 1219.31 1328.81 1218.17 1330.37 1217.55C1367.25 1202.98 1408.1 1182.39 1412.74 1173.18C1413.13 1172.28 1413.7 1171.47 1414.41 1170.8C1415.12 1170.13 1415.96 1169.61 1416.89 1169.27C1417.81 1168.94 1418.78 1168.79 1419.76 1168.85C1420.74 1168.91 1421.7 1169.16 1422.57 1169.6C1423.45 1170.04 1424.22 1170.65 1424.85 1171.4C1425.48 1172.15 1425.96 1173.02 1426.24 1173.96C1426.52 1174.9 1426.61 1175.89 1426.5 1176.86C1426.38 1177.83 1426.08 1178.77 1425.59 1179.62C1416.23 1198.33 1349.04 1225.65 1335.62 1230.94C1334.8 1231.27 1333.92 1231.44 1333.03 1231.44Z" class="color1d1d1b svgShape"/><path fill="#1c1c1c" d="M1606.75 1218.05C1606.01 1218.06 1605.28 1217.94 1604.59 1217.69L1508.86 1187.07C1507.04 1186.49 1505.53 1185.21 1504.66 1183.51C1503.78 1181.81 1503.62 1179.84 1504.2 1178.02C1504.78 1176.2 1506.06 1174.69 1507.76 1173.81C1509.46 1172.94 1511.43 1172.78 1513.25 1173.36L1608.94 1203.98C1610.59 1204.49 1612 1205.58 1612.92 1207.05C1613.83 1208.51 1614.19 1210.26 1613.92 1211.97C1613.65 1213.67 1612.78 1215.23 1611.47 1216.34C1610.15 1217.46 1608.47 1218.07 1606.75 1218.05Z" class="color1d1d1b svgShape"/><path fill="#1c1c1c" d="M943.651 2233.07C942.29 2233.06 940.96 2232.67 939.813 2231.94C938.667 2231.2 937.751 2230.16 937.173 2228.93C923.75 2200.64 861.996 2173.91 839.36 2165.99C838.344 2165.64 837.419 2165.07 836.653 2164.31C835.887 2163.56 835.3 2162.64 834.934 2161.63C831.335 2151.45 831.731 2142.6 836.193 2135.29C840.411 2128.97 846.716 2124.33 854.007 2122.19C851.056 1939.74 891.613 1814.39 974.528 1749.69C1034.99 1702.62 1108.11 1705.61 1178.93 1708.45C1204.87 1709.94 1230.86 1710.11 1256.81 1708.95C1262.99 1708.66 1269.04 1707.07 1274.56 1704.27C1280.08 1701.47 1284.95 1697.54 1288.84 1692.72C1320.72 1655.37 1312.91 1568.71 1312.84 1567.81C1312.67 1565.9 1313.25 1564 1314.48 1562.53C1315.7 1561.05 1317.46 1560.12 1319.37 1559.95C1321.28 1559.77 1323.18 1560.36 1324.66 1561.59C1326.13 1562.81 1327.06 1564.57 1327.24 1566.48C1327.6 1570.26 1335.66 1660.05 1299.89 1702.08C1294.73 1708.35 1288.32 1713.47 1281.07 1717.12C1273.82 1720.78 1265.89 1722.89 1257.78 1723.31C1231.34 1724.51 1204.85 1724.34 1178.43 1722.81C1110.05 1720.07 1039.48 1717.23 983.38 1761.03C903.345 1823.46 864.623 1946.83 868.51 2127.7C868.526 2129.45 867.902 2131.15 866.756 2132.47C865.61 2133.8 864.02 2134.66 862.284 2134.9C859.549 2135.29 851.488 2137.49 848.465 2142.74C847.607 2144.39 847.086 2146.19 846.931 2148.05C846.777 2149.9 846.992 2151.77 847.565 2153.54C864.119 2159.69 933.358 2187.18 950.164 2222.67C950.978 2224.39 951.075 2226.37 950.434 2228.16C949.793 2229.96 948.467 2231.42 946.746 2232.24C945.789 2232.75 944.731 2233.03 943.651 2233.07Z" class="color1d1d1b svgShape"/><path fill="#1c1c1c" d="M853.465 2664.34C851.97 2664.34 850.511 2663.87 849.292 2663.01C848.072 2662.14 847.154 2660.92 846.663 2659.5C846.172 2658.09 846.134 2656.56 846.553 2655.12C846.972 2653.69 847.829 2652.42 849.003 2651.49C853.717 2647.89 866.565 2618.56 834.86 2398.21C817.658 2278.95 795.67 2161.71 795.274 2160.52C794.921 2158.64 795.329 2156.7 796.409 2155.12C797.489 2153.54 799.152 2152.45 801.032 2152.1C802.912 2151.75 804.856 2152.15 806.435 2153.23C808.014 2154.31 809.1 2155.98 809.453 2157.86C809.669 2159.04 831.729 2276.61 849.039 2396.13C873.762 2567.75 872.143 2626.66 866.205 2648.72C909.929 2643.97 947.536 2633.46 948.219 2625.18C948.373 2623.38 949.199 2621.71 950.532 2620.49C951.866 2619.27 953.609 2618.59 955.417 2618.6C977.873 2618.6 1037.11 2611.91 1041.21 2581.68C1041.47 2579.77 1042.47 2578.04 1044.01 2576.87C1045.54 2575.7 1047.47 2575.19 1049.38 2575.45C1051.29 2575.71 1053.02 2576.71 1054.18 2578.25C1055.35 2579.78 1055.86 2581.71 1055.6 2583.62C1049.81 2626.34 980.392 2632.09 960.635 2632.89C948.075 2654.48 883.335 2662.04 854.185 2664.34H853.465Z" class="color1d1d1b svgShape"/><path fill="#1c1c1c" d="M1045.78 2760.43C1043.87 2760.43 1042.04 2759.67 1040.69 2758.32C1039.34 2756.97 1038.58 2755.14 1038.58 2753.23L1042.18 2410.06C1042.18 2408.15 1042.94 2406.32 1044.29 2404.97C1045.64 2403.62 1047.47 2402.86 1049.38 2402.86C1051.29 2402.86 1053.12 2403.62 1054.47 2404.97C1055.82 2406.32 1056.58 2408.15 1056.58 2410.06L1052.98 2753.3C1052.96 2755.2 1052.19 2757.01 1050.84 2758.34C1049.5 2759.68 1047.68 2760.43 1045.78 2760.43Z" class="color1d1d1b svgShape"/><path fill="#1c1c1c" d="M853.502 2636.92C853.131 2636.95 852.757 2636.95 852.386 2636.92C847.6 2636.2 734.097 2618.38 664.786 2564.94C599.253 2514.56 477.905 2268.3 460.703 2232.96C425.011 2230.32 391.804 2213.7 368.288 2186.72C348.819 2189.85 269.18 2200.47 218.834 2173.51C201.488 2164.23 191.16 2151.92 188.101 2136.37C183.999 2115.86 194.255 2096.1 200.481 2086.42C160.643 2056.12 156.109 2030.03 159.599 2013.19C161.725 2004.07 166.375 1995.72 173.02 1989.12C179.664 1982.51 188.033 1977.91 197.17 1975.84C216.783 1971.63 255.613 1981.27 280.588 1988.61C276.233 1984.44 271.339 1979.97 266.913 1975.87C236.072 1947.59 198.07 1912.5 203.324 1885.54C205.339 1875.32 213.04 1867.55 226.211 1862.76C265.797 1848.12 309.917 1871.51 339.751 1890.33C375.306 1912.79 418.166 1908.65 447.892 1901.13C455.377 1899.26 451.49 1870.83 448.612 1850.06C443.249 1811.23 436.592 1762.86 471.031 1752.25C513.964 1739.04 548.548 1762.83 573.882 1823C582.771 1844.09 608.79 1876.04 633.945 1906.96C651.686 1928.76 669.932 1951.33 683.031 1970.8C714.16 2017.58 804.236 2173.51 805.135 2175.06C805.656 2175.88 806.006 2176.8 806.163 2177.75C806.321 2178.71 806.283 2179.69 806.052 2180.63C805.821 2181.58 805.402 2182.46 804.819 2183.24C804.237 2184.02 803.504 2184.67 802.663 2185.15C801.823 2185.64 800.893 2185.95 799.929 2186.07C798.965 2186.18 797.988 2186.1 797.056 2185.83C796.124 2185.56 795.256 2185.11 794.504 2184.49C793.753 2183.88 793.134 2183.12 792.684 2182.26C791.784 2180.71 701.924 2025.1 671.047 1978.79C658.452 1959.89 640.315 1937.58 622.789 1916.06C595.799 1882.88 570.32 1851.61 560.603 1828.58C538.039 1774.92 510.905 1755.02 475.278 1766C452.498 1773.01 458.004 1812.78 462.862 1848.12C467.433 1881.37 471.391 1910.09 451.383 1915.09C418.994 1923.22 371.923 1927.61 332.085 1902.46C288.901 1875.07 256.513 1866.72 231.322 1876.19C219.014 1880.76 217.934 1886.41 217.575 1888.24C213.976 1907.21 253.238 1943.41 276.773 1965.04C300.309 1986.67 308.91 1995.02 307.866 2003.11C307.731 2004.17 307.362 2005.19 306.786 2006.09C306.21 2006.99 305.441 2007.75 304.535 2008.31C303.629 2008.88 302.608 2009.23 301.548 2009.35C300.487 2009.48 299.412 2009.36 298.402 2009.02C278.213 2002.14 221.245 1985.19 200.301 1989.65C193.888 1991.14 188.013 1994.37 183.331 1999C178.648 2003.62 175.341 2009.46 173.778 2015.85C169.856 2034.82 184.574 2057.17 214.732 2078.69C215.538 2079.26 216.217 2079.99 216.728 2080.83C217.24 2081.68 217.571 2082.62 217.703 2083.6C217.835 2084.58 217.763 2085.57 217.494 2086.52C217.224 2087.47 216.762 2088.36 216.135 2089.12C215.955 2089.34 198.142 2111.87 202.316 2133.35C204.547 2144.15 212.392 2153.43 225.708 2160.56C277.709 2188.41 369.08 2171.75 369.98 2171.61C371.319 2171.34 372.707 2171.46 373.981 2171.95C375.255 2172.44 376.364 2173.28 377.177 2174.38C377.501 2174.81 409.35 2216.7 465.705 2218.53C467.021 2218.57 468.301 2218.97 469.405 2219.69C470.509 2220.41 471.395 2221.41 471.967 2222.6C473.335 2225.37 607.278 2502 673.783 2553.28C740.287 2604.57 853.718 2622.27 854.761 2622.45C855.707 2622.52 856.629 2622.78 857.475 2623.21C858.321 2623.63 859.074 2624.22 859.693 2624.94C860.311 2625.66 860.782 2626.49 861.078 2627.39C861.374 2628.29 861.49 2629.24 861.419 2630.19C861.348 2631.13 861.092 2632.06 860.665 2632.9C860.237 2633.75 859.648 2634.5 858.929 2635.12C858.211 2635.74 857.378 2636.21 856.477 2636.5C855.577 2636.8 854.627 2636.92 853.682 2636.85L853.502 2636.92Z" class="color1d1d1b svgShape"/><path fill="#1c1c1c" d="M492.769 2087.97C491.121 2087.98 489.52 2087.42 488.234 2086.39C486.183 2084.73 437.133 2046.48 354.29 2079.62C353.407 2080.01 352.456 2080.21 351.491 2080.23C350.527 2080.24 349.571 2080.06 348.678 2079.69C347.785 2079.33 346.975 2078.79 346.295 2078.1C345.615 2077.42 345.08 2076.61 344.721 2075.71C344.361 2074.82 344.185 2073.86 344.203 2072.9C344.221 2071.93 344.433 2070.98 344.825 2070.1C345.218 2069.22 345.783 2068.43 346.488 2067.77C347.193 2067.11 348.023 2066.6 348.928 2066.27C440.048 2029.81 495 2073.47 497.303 2075.19C498.454 2076.13 499.286 2077.4 499.686 2078.83C500.086 2080.26 500.034 2081.78 499.537 2083.18C499.041 2084.58 498.124 2085.79 496.912 2086.65C495.7 2087.51 494.253 2087.97 492.769 2087.97Z" class="color1d1d1b svgShape"/><path fill="#1c1c1c" d="M312.4 2111.5C311.946 2111.56 311.487 2111.56 311.032 2111.5L209.081 2091.93C207.206 2091.57 205.551 2090.47 204.481 2088.89C203.412 2087.31 203.014 2085.36 203.377 2083.49C203.74 2081.61 204.833 2079.96 206.415 2078.89C207.998 2077.82 209.941 2077.42 211.816 2077.78L313.767 2097.4C315.676 2097.58 317.435 2098.51 318.657 2099.99C319.878 2101.47 320.462 2103.37 320.281 2105.28C320.1 2107.19 319.168 2108.95 317.69 2110.17C316.212 2111.39 314.309 2111.97 312.4 2111.79V2111.5Z" class="color1d1d1b svgShape"/><path fill="#1c1c1c" d="M2055.51 2233.07C2054.43 2233.07 2053.38 2232.82 2052.41 2232.35C2051.54 2231.96 2050.76 2231.41 2050.11 2230.72C2049.46 2230.02 2048.95 2229.21 2048.62 2228.32C2048.28 2227.43 2048.13 2226.48 2048.16 2225.53C2048.19 2224.58 2048.42 2223.65 2048.81 2222.78C2065.62 2187.3 2134.86 2159.8 2151.41 2153.65C2151.98 2151.88 2152.2 2150.01 2152.05 2148.16C2151.89 2146.31 2151.37 2144.5 2150.51 2142.85C2147.35 2137.6 2139.43 2135.4 2136.66 2135.01C2134.93 2134.76 2133.35 2133.9 2132.21 2132.57C2131.07 2131.25 2130.45 2129.56 2130.47 2127.81C2134.28 1946.94 2095.63 1823.58 2015.6 1761.14C1959.24 1717.16 1879.42 1720.11 1802.23 1722.96C1772.94 1724.04 1745.3 1725.08 1719.78 1723.42C1711.68 1723 1703.74 1720.9 1696.49 1717.24C1689.25 1713.59 1682.84 1708.46 1677.68 1702.19C1641.91 1660.23 1649.97 1570.37 1650.33 1566.59C1650.5 1564.68 1651.43 1562.92 1652.91 1561.7C1654.38 1560.47 1656.28 1559.88 1658.19 1560.06C1660.1 1560.24 1661.86 1561.17 1663.09 1562.64C1664.31 1564.11 1664.9 1566.02 1664.72 1567.92C1664.72 1568.82 1656.88 1655.55 1688.73 1692.87C1692.62 1697.67 1697.49 1701.6 1703.01 1704.39C1708.53 1707.18 1714.58 1708.77 1720.75 1709.07C1745.59 1710.65 1772.86 1709.64 1801.76 1708.56C1877.8 1705.75 1964.06 1702.59 2024.52 1749.8C2107.29 1814.58 2147.99 1939.85 2145.04 2122.3C2152.4 2124.41 2158.77 2129.05 2163.04 2135.4C2167.5 2142.6 2167.93 2151.56 2164.3 2161.75C2163.93 2162.76 2163.34 2163.67 2162.58 2164.43C2161.81 2165.18 2160.89 2165.75 2159.87 2166.1C2137.23 2174.02 2075.48 2200.76 2062.09 2229.04C2061.49 2230.27 2060.55 2231.3 2059.39 2232.02C2058.22 2232.73 2056.87 2233.1 2055.51 2233.07Z" class="color1d1d1b svgShape"/><path fill="#1c1c1c" d="M2145.69 2664.34H2145.11C2115.96 2662.04 2051.22 2654.59 2038.66 2632.89C2019.98 2632.28 2001.44 2629.38 1983.46 2624.25C1982.53 2623.99 1981.66 2623.55 1980.91 2622.95C1980.15 2622.36 1979.52 2621.61 1979.06 2620.77C1978.6 2619.92 1978.31 2618.99 1978.21 2618.03C1978.11 2617.08 1978.21 2616.11 1978.49 2615.19C1978.78 2614.26 1979.25 2613.41 1979.87 2612.67C1980.49 2611.94 1981.25 2611.33 1982.11 2610.89C1982.97 2610.46 1983.91 2610.2 1984.87 2610.13C1985.83 2610.06 1986.79 2610.19 1987.71 2610.5C2005.96 2615.59 2024.79 2618.31 2043.74 2618.6C2045.55 2618.59 2047.29 2619.27 2048.62 2620.49C2049.96 2621.71 2050.78 2623.38 2050.94 2625.18C2051.62 2633.46 2089.23 2644.01 2132.95 2648.72C2127.01 2626.66 2125.39 2567.75 2150.12 2396.13C2167.32 2276.54 2189.38 2159.04 2189.7 2157.86C2190.09 2156.01 2191.18 2154.4 2192.75 2153.35C2194.31 2152.31 2196.23 2151.92 2198.08 2152.27C2199.93 2152.62 2201.57 2153.67 2202.64 2155.22C2203.72 2156.76 2204.15 2158.66 2203.84 2160.52C2203.63 2161.71 2181.6 2278.95 2164.44 2398.21C2132.7 2618.56 2145.55 2647.78 2150.26 2651.49C2151.43 2652.42 2152.29 2653.69 2152.71 2655.12C2153.13 2656.56 2153.09 2658.09 2152.6 2659.5C2152.11 2660.92 2151.19 2662.14 2149.97 2663.01C2148.75 2663.87 2147.29 2664.34 2145.8 2664.34H2145.69Z" class="color1d1d1b svgShape"/><path fill="#1c1c1c" d="M2145.65 2636.92C2143.74 2637.06 2141.86 2636.43 2140.41 2635.18C2138.96 2633.93 2138.07 2632.15 2137.93 2630.25C2137.79 2628.34 2138.42 2626.45 2139.67 2625C2140.92 2623.56 2142.7 2622.66 2144.61 2622.53C2145.72 2622.53 2259.26 2604.53 2325.55 2553.36C2391.84 2502.19 2526.04 2225.45 2527.37 2222.67C2527.94 2221.49 2528.83 2220.48 2529.93 2219.77C2531.03 2219.05 2532.31 2218.65 2533.63 2218.61C2589.98 2216.77 2621.87 2174.88 2622.16 2174.45C2622.97 2173.35 2624.08 2172.51 2625.35 2172.02C2626.63 2171.53 2628.02 2171.41 2629.35 2171.68C2630.25 2171.68 2721.63 2188.49 2773.63 2160.63C2786.94 2153.43 2794.82 2144.33 2797.02 2133.43C2801.34 2111.83 2783.38 2089.41 2783.2 2089.16C2782.58 2088.4 2782.12 2087.52 2781.85 2086.57C2781.59 2085.62 2781.52 2084.63 2781.65 2083.66C2781.78 2082.68 2782.11 2081.75 2782.62 2080.9C2783.13 2080.06 2783.8 2079.33 2784.6 2078.76C2814.94 2057.17 2829.48 2034.89 2825.56 2015.93C2823.99 2009.53 2820.69 2003.7 2816 1999.07C2811.32 1994.45 2805.45 1991.21 2799.03 1989.73C2778.12 1985.27 2721.12 2002.22 2700.93 2009.09C2699.92 2009.44 2698.85 2009.55 2697.79 2009.43C2696.73 2009.31 2695.71 2008.95 2694.8 2008.39C2693.89 2007.82 2693.12 2007.06 2692.55 2006.16C2691.97 2005.26 2691.6 2004.25 2691.47 2003.19C2690.39 1994.8 2698.67 1983.65 2717.67 1959.18C2736.67 1934.71 2769.06 1892.74 2760.24 1878.35C2752.39 1865.54 2744.33 1858.52 2735.55 1856.76C2720.29 1853.88 2702.05 1867.73 2684.41 1881.16C2677.22 1886.7 2669.55 1892.46 2661.99 1897.24C2645.16 1907.8 2626.35 1914.81 2606.71 1917.86C2587.07 1920.92 2567.02 1919.94 2547.77 1914.98C2527.76 1909.98 2531.72 1881.26 2536.29 1848.01C2541.15 1812.82 2546.66 1772.91 2523.88 1765.89C2488.25 1755.09 2461.11 1774.82 2438.55 1828.47C2428.83 1851.47 2403.36 1882.78 2376.4 1915.92C2358.84 1937.51 2340.7 1959.75 2328.11 1978.68C2297.3 2024.85 2215.61 2180.21 2214.78 2181.9C2213.87 2183.54 2212.35 2184.76 2210.55 2185.3C2208.75 2185.84 2206.81 2185.65 2205.14 2184.78C2203.48 2183.9 2202.22 2182.41 2201.65 2180.62C2201.07 2178.84 2201.21 2176.89 2202.04 2175.21C2205.39 2168.8 2284.81 2017.51 2316.12 1970.69C2329.11 1951.22 2347.47 1928.66 2365.25 1906.85C2390.44 1875.94 2416.38 1843.98 2425.27 1822.89C2450.46 1762.72 2485.19 1738.94 2528.12 1752.14C2562.6 1762.76 2555.9 1811.13 2550.58 1849.96C2547.7 1870.72 2543.78 1899.15 2551.26 1901.02C2568.62 1905.55 2586.71 1906.49 2604.45 1903.8C2622.18 1901.1 2639.18 1894.82 2654.4 1885.33C2661.6 1880.87 2668.8 1875.33 2675.81 1869.96C2695.93 1854.63 2716.77 1838.8 2738.32 1842.83C2751.31 1845.28 2762.54 1854.49 2772.62 1870.94C2786.62 1893.82 2756.06 1933.27 2729.11 1968.1C2723.42 1975.3 2716.98 1983.76 2712.3 1990.45C2736.49 1983.25 2780.68 1971.2 2802.27 1975.77C2811.41 1977.85 2819.78 1982.45 2826.43 1989.05C2833.08 1995.66 2837.74 2004 2839.88 2013.12C2843.48 2029.96 2838.8 2056.05 2798.96 2086.36C2805.22 2096.04 2815.44 2115.79 2811.34 2136.31C2808.28 2151.67 2797.95 2164.16 2780.64 2173.44C2730.26 2200.4 2650.62 2189.78 2631.15 2186.65C2607.64 2213.63 2574.43 2230.25 2538.74 2232.89C2521.54 2268.23 2400.19 2514.31 2334.66 2564.88C2265.35 2618.32 2151.84 2636.13 2147.06 2636.85C2146.59 2636.93 2146.12 2636.95 2145.65 2636.92Z" class="color1d1d1b svgShape"/><path fill="#1c1c1c" d="M2478.68 2054.68C2476.91 2054.67 2475.2 2054 2473.89 2052.81C2472.48 2051.54 2471.63 2049.75 2471.53 2047.85C2471.42 2045.95 2472.08 2044.08 2473.35 2042.66C2473.89 2042.05 2530.68 1980.55 2622.52 2017.47C2624.23 2018.22 2625.58 2019.61 2626.29 2021.34C2627 2023.07 2627 2025.01 2626.31 2026.75C2625.61 2028.48 2624.27 2029.88 2622.56 2030.64C2620.85 2031.4 2618.91 2031.47 2617.16 2030.83C2534.96 1997.93 2486.06 2050.26 2484.01 2052.42C2483.32 2053.14 2482.5 2053.72 2481.58 2054.11C2480.66 2054.5 2479.68 2054.7 2478.68 2054.68Z" class="color1d1d1b svgShape"/><path fill="#1c1c1c" d="M2686.79 2111.51C2684.88 2111.69 2682.98 2111.11 2681.5 2109.88C2680.02 2108.66 2679.09 2106.9 2678.91 2105C2678.73 2103.09 2679.31 2101.18 2680.53 2099.71C2681.75 2098.23 2683.51 2097.3 2685.42 2097.11L2787.37 2077.5C2789.24 2077.14 2791.18 2077.54 2792.76 2078.6C2794.34 2079.67 2795.43 2081.32 2795.79 2083.19C2795.98 2084.12 2795.98 2085.07 2795.79 2086C2795.6 2086.93 2795.23 2087.81 2794.71 2088.6C2794.18 2089.38 2793.5 2090.05 2792.71 2090.58C2791.92 2091.1 2791.04 2091.46 2790.11 2091.64L2688.16 2111.22C2687.71 2111.37 2687.26 2111.47 2686.79 2111.51Z" class="color1d1d1b svgShape"/><path fill="#1c1c1c" d="M1512.17 2766.29C1510.26 2766.29 1508.43 2765.54 1507.08 2764.19C1505.73 2762.84 1504.98 2761.01 1504.98 2759.1L1489.29 2065.09C1489.29 2063.18 1490.04 2061.35 1491.39 2060C1492.74 2058.65 1494.57 2057.89 1496.48 2057.89C1498.39 2057.89 1500.22 2058.65 1501.57 2060C1502.92 2061.35 1503.68 2063.18 1503.68 2065.09L1519.37 2758.95C1519.37 2760.86 1518.61 2762.69 1517.26 2764.04C1515.91 2765.39 1514.08 2766.15 1512.17 2766.15V2766.29Z" class="color1d1d1b svgShape"/><path fill="#1c1c1c" d="M1994.47 2754.52C1992.64 2754.53 1990.88 2753.83 1989.54 2752.58C1988.2 2751.33 1987.39 2749.62 1987.27 2747.79L1971.58 2500.92C1971.46 2499.01 1972.11 2497.14 1973.37 2495.7C1974.64 2494.27 1976.42 2493.4 1978.33 2493.28C1980.24 2493.16 1982.12 2493.8 1983.55 2495.07C1984.99 2496.33 1985.86 2498.11 1985.98 2500.02L2001.63 2747.04C2001.75 2748.94 2001.11 2750.82 1999.85 2752.25C1998.58 2753.68 1996.81 2754.55 1994.9 2754.67L1994.47 2754.52Z" class="color1d1d1b svgShape"/><path fill="#fff" d="M1590.66 2310.84C1599.35 2310.84 1606.39 2300.6 1606.39 2287.96C1606.39 2275.31 1599.35 2265.07 1590.66 2265.07C1581.97 2265.07 1574.93 2275.31 1574.93 2287.96C1574.93 2300.6 1581.97 2310.84 1590.66 2310.84Z" class="colord6f436 svgShape"/><path fill="#1c1c1c" d="M1590.66 2318C1577.81 2318 1567.74 2304.8 1567.74 2287.95C1567.74 2271.11 1577.81 2257.87 1590.66 2257.87C1603.51 2257.87 1613.59 2271.08 1613.59 2287.95C1613.59 2304.83 1603.58 2318 1590.66 2318ZM1590.66 2272.26C1586.63 2272.26 1582.13 2278.96 1582.13 2287.95C1582.13 2296.95 1586.63 2303.61 1590.66 2303.61C1594.69 2303.61 1599.19 2296.92 1599.19 2287.95C1599.19 2278.99 1594.69 2272.26 1590.66 2272.26Z" class="color1d1d1b svgShape"/><path fill="#fff" d="M1590.66 2402.32C1599.35 2402.32 1606.39 2392.08 1606.39 2379.43C1606.39 2366.79 1599.35 2356.55 1590.66 2356.55C1581.97 2356.55 1574.93 2366.79 1574.93 2379.43C1574.93 2392.08 1581.97 2402.32 1590.66 2402.32Z" class="colord6f436 svgShape"/><path fill="#1c1c1c" d="M1590.66 2409.48C1577.81 2409.48 1567.74 2396.27 1567.74 2379.43C1567.74 2362.59 1577.81 2349.35 1590.66 2349.35C1603.51 2349.35 1613.59 2362.55 1613.59 2379.43C1613.59 2396.31 1603.58 2409.48 1590.66 2409.48ZM1590.66 2363.74C1586.63 2363.74 1582.13 2370.47 1582.13 2379.43C1582.13 2388.39 1586.63 2395.09 1590.66 2395.09C1594.69 2395.09 1599.19 2388.39 1599.19 2379.43C1599.19 2370.47 1594.69 2363.74 1590.66 2363.74Z" class="color1d1d1b svgShape"/><path fill="#1c1c1c" d="M1524.12 1941.11C1523.1 1941.12 1522.08 1940.97 1521.1 1940.68C1509.65 1937.29 1503.1 1915.49 1493.86 1850.46L1493.32 1846.54C1491.01 1830.41 1475.14 1825.34 1429.62 1813C1417.63 1809.72 1404.03 1806.05 1388.59 1801.44C1342.8 1787.45 1302.85 1758.84 1274.84 1720C1273.79 1718.41 1273.43 1716.46 1273.82 1714.59C1274.21 1712.72 1275.33 1711.08 1276.93 1710.04C1278.52 1708.99 1280.47 1708.62 1282.34 1709.02C1284.21 1709.41 1285.85 1710.53 1286.89 1712.12C1313.19 1747.96 1350.27 1774.44 1392.7 1787.7C1407.95 1792.23 1421.49 1795.9 1433.4 1799.14C1478.78 1811.45 1503.79 1818.21 1507.57 1844.56L1508.11 1848.48C1513.94 1889.72 1519.23 1915.13 1523.8 1924.05C1526.21 1916.53 1525.81 1900.08 1525.56 1887.56C1524.88 1856.36 1524.16 1824.12 1544.63 1815.33C1547.37 1814.15 1551 1812.64 1555.43 1810.87C1592.03 1795.69 1689.3 1755.42 1705.78 1720.9C1706.2 1720.05 1706.77 1719.29 1707.48 1718.67C1708.19 1718.04 1709.01 1717.56 1709.91 1717.25C1710.8 1716.94 1711.75 1716.81 1712.69 1716.86C1713.64 1716.92 1714.56 1717.16 1715.41 1717.58C1716.26 1717.99 1717.02 1718.57 1717.65 1719.27C1718.28 1719.98 1718.76 1720.81 1719.07 1721.7C1719.38 1722.59 1719.51 1723.54 1719.45 1724.48C1719.39 1725.43 1719.15 1726.35 1718.74 1727.2C1699.88 1766.79 1602.46 1807.13 1560.9 1824.37L1550.39 1828.76C1538.84 1833.72 1539.59 1864.74 1540.03 1887.45C1540.46 1910.16 1540.93 1928.05 1533.37 1936.68C1532.25 1938.06 1530.84 1939.17 1529.24 1939.94C1527.64 1940.7 1525.89 1941.1 1524.12 1941.11Z" class="color1d1d1b svgShape"/><path fill="#fff" d="M1193.11 1723.6C1193.11 1723.6 1227.91 1859.35 1280.85 1888.78C1333.79 1918.22 1465.14 1963.28 1465.14 1963.28L1495.33 1827.28C1495.33 1827.28 1419.11 1797.88 1360.31 1756.71C1301.5 1715.54 1281.32 1696.18 1244.07 1703.99C1206.82 1711.8 1193.11 1723.6 1193.11 1723.6Z" class="colord6f436 svgShape"/><path fill="#1c1c1c" d="M1465.14 1970.37C1464.34 1970.36 1463.55 1970.23 1462.8 1969.97C1457.4 1968.1 1330.26 1924.34 1277.36 1894.94C1222.37 1864.39 1187.39 1730.95 1186.13 1725.3C1185.8 1724.01 1185.84 1722.65 1186.24 1721.38C1186.64 1720.11 1187.39 1718.97 1188.4 1718.1C1189.04 1717.6 1203.98 1705.07 1242.59 1696.94C1278.18 1689.45 1300.17 1705.07 1343.83 1736.2C1350.16 1740.7 1356.96 1745.56 1364.41 1750.6C1421.81 1790.76 1497.17 1820.05 1497.92 1820.34C1499.53 1820.96 1500.86 1822.14 1501.67 1823.66C1502.48 1825.18 1502.72 1826.94 1502.35 1828.62L1472.16 1964.72C1471.92 1965.72 1471.48 1966.65 1470.86 1967.46C1470.24 1968.28 1469.46 1968.95 1468.56 1969.43C1467.51 1970.03 1466.34 1970.35 1465.14 1970.37ZM1201.39 1726.56C1208.15 1750.74 1240.18 1857.84 1284.34 1882.38C1328.49 1906.92 1431.17 1943.56 1459.88 1953.71L1486.98 1831.57C1467.94 1823.83 1406.37 1797.6 1356.17 1762.47C1348.68 1757.22 1341.77 1752.32 1335.48 1747.79C1292.69 1717.34 1274.98 1704.6 1245.51 1710.9C1221.15 1716.08 1207.36 1722.96 1201.39 1726.56Z" class="color1d1d1b svgShape"/><path fill="#fff" d="M1531.79 1845.53C1531.79 1845.53 1565.11 1975.08 1594.55 1975.08C1616.14 1975.08 1789.81 1787.7 1797.66 1719.07C1797.66 1719.07 1743.39 1689.67 1717.91 1719.07C1692.43 1748.47 1533.76 1814.15 1531.79 1845.53Z" class="colord6f436 svgShape"/><path fill="#1c1c1c" d="M1594.55 1982.13C1562.16 1982.13 1532.97 1878.96 1524.84 1847.32C1524.62 1846.6 1524.55 1845.84 1524.62 1845.09C1525.92 1824.33 1566.94 1800.25 1634.35 1763.15C1667.96 1744.62 1702.72 1725.47 1712.44 1714.21C1741.23 1680.85 1798.81 1711.29 1801.08 1712.62C1802.33 1713.33 1803.33 1714.39 1803.98 1715.67C1804.62 1716.95 1804.86 1718.4 1804.68 1719.82C1799.64 1763.8 1734.39 1844.66 1706.57 1877.41C1705.82 1878.34 1617.4 1982.13 1594.55 1982.13ZM1539.13 1845.02C1554.49 1904.15 1580.08 1966.91 1594.26 1967.66C1603.47 1965.32 1647.02 1925.63 1697.87 1865.46C1749.62 1804.28 1783.37 1751.74 1789.67 1723.02C1776.93 1717.23 1740.87 1703.41 1723.34 1723.64C1711.9 1736.81 1679.19 1754.84 1641.29 1775.71C1601.74 1797.52 1542.4 1830.23 1539.13 1845.06V1845.02Z" class="color1d1d1b svgShape"/><path fill="#94a9fa" d="M1034.27 958.341C1032.21 951.575 1029.59 811.982 1035.88 805.72C1041.77 799.743 1048.27 794.411 1055.28 789.814C1062.02 785.46 1068.01 780.053 1073.02 773.799C1077.9 768.124 1080.63 760.914 1080.72 753.431C1080.72 738.028 1070.24 730.327 1049.27 730.327C1040.81 730.3 1032.42 731.977 1024.62 735.257C1024.44 744.098 1022.44 752.807 1018.75 760.844H989.461C986.436 754.337 984.363 747.429 983.308 740.331C982.15 734.491 981.429 728.573 981.148 722.626V715.428C991.077 708.999 1002.03 704.314 1013.54 701.573C1025.66 698.387 1038.14 696.731 1050.68 696.643C1073.49 696.643 1092.19 701.837 1106.78 712.225C1121.37 722.614 1128.67 737.464 1128.7 756.777C1128.77 764.857 1126.92 772.839 1123.3 780.061C1120.09 786.649 1115.57 792.514 1110.02 797.299C1104.81 801.713 1099.16 806.188 1093.07 810.722C1087.02 815.256 1073.24 950.136 1068.09 953.843C1057.33 961.328 1034.27 958.341 1034.27 958.341ZM1051.4 1020.35C1034.24 1020.35 1025.65 1012.59 1025.63 997.063C1025.6 981.541 1034.19 973.779 1051.4 973.779C1068.55 973.779 1077.13 981.541 1077.13 997.063C1077.13 1012.59 1068.55 1020.35 1051.4 1020.35Z" class="color9745ff svgShape"/><path fill="#1c1c1c" d="M1051.39 1027.54C1030.16 1027.54 1018.43 1016.75 1018.43 997.06C1018.43 977.375 1030.16 966.579 1051.39 966.579C1072.63 966.579 1084.32 977.375 1084.32 997.06C1084.32 1016.75 1072.63 1027.54 1051.39 1027.54ZM1051.39 980.974C1035.09 980.974 1032.83 988.711 1032.83 997.06C1032.83 1005.41 1035.09 1013.15 1051.39 1013.15C1067.7 1013.15 1069.93 1005.41 1069.93 997.06C1069.93 988.711 1067.7 980.974 1051.39 980.974ZM1044.67 966.147C1040.89 966.162 1037.12 965.945 1033.37 965.5C1031.99 965.324 1030.69 964.756 1029.64 963.862C1028.58 962.968 1027.8 961.787 1027.39 960.461C1025.59 954.559 1024.84 903.998 1024.76 881.866C1024.48 806.905 1028.11 803.27 1030.77 800.607C1037.04 794.289 1043.95 788.644 1051.39 783.765C1057.47 779.858 1062.88 774.998 1067.41 769.37C1071.27 764.991 1073.44 759.375 1073.53 753.536C1073.53 748.39 1073.53 737.629 1049.27 737.629C1043.16 737.592 1037.08 738.552 1031.28 740.472C1030.68 748.721 1028.56 756.787 1025.02 764.26C1024.41 765.433 1023.49 766.417 1022.36 767.102C1021.23 767.788 1019.93 768.149 1018.61 768.147H989.317C987.982 768.149 986.672 767.78 985.535 767.081C984.397 766.382 983.476 765.38 982.875 764.188C979.524 757.05 977.233 749.46 976.074 741.66C974.826 735.419 974.068 729.09 973.807 722.731V715.533C973.811 714.361 974.101 713.206 974.653 712.172C975.205 711.137 976.002 710.252 976.974 709.596C987.625 702.68 999.383 697.641 1011.74 694.697C1024.45 691.368 1037.53 689.639 1050.67 689.551C1074.89 689.551 1095.19 695.237 1110.95 706.465C1127.51 718.196 1135.89 735.254 1135.89 756.847C1135.96 766.053 1133.84 775.143 1129.7 783.369C1126.05 790.819 1120.94 797.453 1114.66 802.874C1109.73 807.048 1104.3 811.367 1098.54 815.685C1095.77 823.351 1090.58 860.489 1086.77 887.875C1077.56 953.876 1076.37 956.827 1072.38 959.85C1064.71 964.996 1053.23 966.147 1044.67 966.147ZM1040.74 951.752C1048.18 952.39 1055.67 951.42 1062.69 948.909C1064.96 941.172 1069.21 910.727 1072.66 885.968C1082.42 815.865 1084.32 808.524 1088.93 805.105C1094.87 800.643 1100.48 796.216 1105.56 791.934C1110.34 787.756 1114.24 782.651 1117 776.927C1120.12 770.725 1121.72 763.863 1121.64 756.919C1121.64 739.897 1115.45 727.265 1102.78 718.196C1089.47 708.768 1072.02 703.982 1050.82 703.982C1038.88 704.069 1026.99 705.652 1015.44 708.696C1005.94 710.973 996.812 714.609 988.345 719.492V722.659C988.597 728.198 989.283 733.709 990.397 739.141C991.201 744.047 992.467 748.867 994.175 753.536H1014.04C1016.07 747.458 1017.21 741.118 1017.42 734.715C1017.5 733.37 1017.95 732.074 1018.73 730.973C1019.5 729.873 1020.57 729.012 1021.81 728.489C1030.55 724.888 1039.93 723.077 1049.38 723.163C1083.03 723.163 1088.03 742.164 1088.03 753.464C1087.93 762.583 1084.65 771.38 1078.74 778.331C1073.24 785.182 1066.68 791.111 1059.31 795.893C1053.05 800.004 1047.22 804.729 1041.89 809.999C1037.83 823.926 1038.94 926.31 1040.74 951.68V951.752Z" class="color1d1d1b svgShape"/><path fill="#94a9fa" d="M1399.71 568.416C1396.4 560.211 1377.19 386.861 1384.28 378.332C1390.93 370.25 1398.42 362.892 1406.62 356.38C1414.5 350.192 1421.32 342.781 1426.85 334.428C1432.26 326.818 1434.81 317.538 1434.05 308.23C1432.27 289.037 1418.35 280.64 1392.3 283.039C1381.76 283.983 1371.52 287.03 1362.18 291.999C1362.94 302.979 1361.46 313.999 1357.82 324.388L1321.37 327.735C1316.87 319.991 1313.5 311.641 1311.37 302.94C1309.26 295.797 1307.68 288.507 1306.65 281.131L1305.86 272.315C1317.51 263.138 1330.66 256.041 1344.73 251.334C1359.47 245.953 1374.84 242.459 1390.46 240.934C1418.82 238.295 1442.68 242.613 1462.04 253.889C1481.4 265.165 1492.2 282.799 1494.43 306.79C1495.44 316.834 1494.05 326.974 1490.36 336.372C1487.16 344.928 1482.27 352.75 1475.97 359.367C1469.97 365.485 1463.46 371.687 1456.43 377.973C1449.23 384.306 1447.65 553.697 1441.67 558.879C1428.76 569.388 1399.71 568.416 1399.71 568.416ZM1428.07 643.557C1406.74 645.5 1395.19 636.827 1393.42 617.538C1391.64 598.249 1401.43 587.609 1422.78 585.618C1444.11 583.675 1455.66 592.347 1457.44 611.636C1459.21 630.926 1449.42 641.542 1428.07 643.485V643.557Z" class="color9745ff svgShape"/><path fill="#1c1c1c" d="M1422.57 650.939C1400.97 650.939 1388.2 639.459 1386.22 618.119C1384.1 594.835 1396.83 580.728 1422.21 578.533C1447.58 576.338 1462.58 587.782 1464.71 610.922C1466.83 634.061 1454.13 648.312 1428.72 650.507C1426.63 650.831 1424.54 650.939 1422.57 650.939ZM1428.47 592.496C1426.88 592.496 1425.23 592.496 1423.43 592.712C1401.51 594.727 1399.57 606.027 1400.58 616.788C1401.58 627.548 1405.51 638.38 1427.42 636.293C1449.34 634.313 1451.28 623.013 1450.28 612.253C1449.38 602.357 1445.96 592.496 1428.47 592.496ZM1402.45 575.582H1399.46C1398.07 575.531 1396.73 575.078 1395.59 574.28C1394.46 573.482 1393.58 572.372 1393.06 571.084C1390.39 564.534 1383.84 504.724 1380.93 474.135C1372.11 381.684 1376.29 376.682 1378.77 373.731C1385.74 365.246 1393.59 357.525 1402.2 350.699C1409.45 344.955 1415.75 338.105 1420.87 330.402C1425.39 324.151 1427.55 316.5 1426.96 308.81C1426.96 305.784 1426.2 302.806 1424.75 300.151C1423.29 297.497 1421.19 295.252 1418.64 293.624C1413.06 290.277 1404.46 289.089 1393.02 290.025C1384.93 290.803 1377.04 292.944 1369.66 296.359C1369.95 306.906 1368.21 317.411 1364.55 327.308C1364.06 328.531 1363.24 329.594 1362.18 330.382C1361.12 331.169 1359.86 331.649 1358.54 331.77L1322.09 335.117C1320.76 335.236 1319.42 334.983 1318.23 334.386C1317.03 333.788 1316.03 332.87 1315.32 331.734C1310.46 323.4 1306.82 314.406 1304.53 305.032C1302.29 297.494 1300.64 289.793 1299.6 282L1298.77 273.183C1298.66 272.01 1298.85 270.828 1299.31 269.743C1299.77 268.657 1300.48 267.701 1301.4 266.957C1313.67 257.183 1327.54 249.598 1342.39 244.537C1357.67 238.984 1373.6 235.358 1389.78 233.741C1419.54 231.042 1445.06 235.721 1465.64 247.668C1487.02 260.12 1499.07 279.769 1501.63 306.147C1502.74 317.316 1501.18 328.587 1497.09 339.039C1493.48 348.497 1488.01 357.136 1481.01 364.446C1475.18 370.312 1468.84 376.394 1462.08 382.44C1459.38 391.293 1457.11 439.227 1455.46 474.495C1451.86 553.45 1450.67 560.432 1446.28 564.282C1433.76 574.575 1410.94 575.618 1402.45 575.618V575.582ZM1390.46 382.116C1386.65 398.238 1400.4 532.074 1405.47 561.116C1414.29 560.864 1428.14 559.352 1435.56 554.35C1437.61 545.533 1439.48 506.019 1440.99 473.919C1445.06 387.55 1446.68 376.934 1451.39 372.723C1458.3 366.498 1464.74 360.344 1470.64 354.406C1476.29 348.46 1480.69 341.451 1483.6 333.785C1486.87 325.452 1488.11 316.457 1487.2 307.551C1485.22 285.958 1475.79 270.268 1458.41 260.192C1440.42 249.755 1417.82 245.797 1391.11 248.172C1376.12 249.653 1361.37 253.002 1347.21 258.14C1335.15 262.254 1323.78 268.136 1313.45 275.594L1313.88 280.524C1314.86 287.49 1316.36 294.372 1318.38 301.109C1320.11 307.7 1322.52 314.093 1325.58 320.182L1352.75 317.699C1354.89 309.374 1355.72 300.765 1355.2 292.184C1355.13 290.848 1355.44 289.521 1356.09 288.352C1356.74 287.182 1357.7 286.216 1358.87 285.563C1369.06 280.15 1380.23 276.833 1391.72 275.81C1406.44 274.443 1417.71 276.242 1426.09 281.316C1430.59 284.086 1434.32 287.924 1436.97 292.489C1439.62 297.054 1441.1 302.204 1441.28 307.479C1442.16 318.427 1439.18 329.337 1432.86 338.32C1426.92 347.318 1419.56 355.301 1411.09 361.963C1403.53 367.948 1396.62 374.702 1390.46 382.116Z" class="color1d1d1b svgShape"/><path fill="#94a9fa" d="M2016.17 1076.05C2006.67 1064.54 1888.85 795.353 1895.98 777.935C1902.62 761.576 1910.98 745.967 1920.91 731.368C1930.5 717.458 1937.79 702.1 1942.51 685.88C1947.4 670.909 1946.87 654.695 1941.03 640.069C1928.58 610.128 1901.97 603.614 1861.21 620.528C1844.71 627.3 1829.76 637.338 1817.24 650.037C1824.65 671.318 1827.74 689.479 1826.52 704.522L1769.55 728.201C1758.4 718.008 1748.79 706.25 1741.02 693.294C1734.03 682.856 1727.83 671.909 1722.48 660.546L1716.76 646.762C1730.94 626.213 1748.53 608.236 1768.76 593.61C1789.81 577.605 1812.78 564.305 1837.14 554.024C1881.52 535.598 1922.09 530.584 1958.85 538.981C1995.6 547.378 2021.74 570.386 2037.26 608.004C2043.96 623.645 2046.81 640.662 2045.57 657.631C2044.65 673.044 2040.63 688.113 2033.73 701.931C2027.11 714.742 2019.74 727.937 2011.6 741.516C2003.47 755.227 2085.59 1028.66 2078.61 1040.21C2063.39 1063.2 2016.17 1076.05 2016.17 1076.05ZM2099.48 1182.75C2066.13 1196.62 2043.19 1188.46 2030.64 1158.28C2018.09 1128.1 2028.5 1106.08 2061.88 1092.21C2095.27 1078.34 2118.23 1086.5 2130.76 1116.68C2143.28 1146.86 2132.85 1168.89 2099.48 1182.75Z" class="color9745ff svgShape"/><path fill="#1c1c1c" d="M2071.02 1196.46C2065.51 1196.51 2060.03 1195.61 2054.82 1193.8C2041.44 1189.05 2031.04 1178 2023.98 1161.02C2016.93 1144.03 2016.46 1128.92 2022.54 1116.03C2028.62 1103.15 2040.82 1093.18 2059.14 1085.55C2077.46 1077.92 2093.4 1076.48 2106.54 1081.16C2119.67 1085.84 2130.36 1096.96 2137.41 1113.91C2147.24 1137.59 2149.11 1169.91 2102.25 1189.48C2092.4 1193.83 2081.79 1196.2 2071.02 1196.46ZM2090.31 1092.79C2081.44 1093.1 2072.73 1095.14 2064.65 1098.8C2049.75 1104.99 2039.96 1112.83 2035.53 1122.12C2031.11 1131.4 2031.94 1142.2 2037.26 1155.44C2042.59 1168.68 2050.11 1176.78 2059.64 1180.16C2069.18 1183.55 2081.81 1182.21 2096.75 1176.02C2126.36 1163.72 2135.04 1145.72 2124.1 1119.38C2118.63 1106.14 2111.29 1098.04 2101.71 1094.66C2098.04 1093.41 2094.18 1092.8 2090.31 1092.86V1092.79ZM2016.17 1083.18C2015.11 1083.18 2014.05 1082.95 2013.09 1082.49C2012.12 1082.04 2011.27 1081.37 2010.59 1080.55C2004.55 1073.35 1970.22 996.269 1943.19 931.852C1883.45 789.379 1887.55 779.375 1889.21 775.128C1896.07 758.305 1904.68 742.251 1914.91 727.229C1924.01 713.931 1930.95 699.269 1935.45 683.793C1939.9 670.404 1939.48 655.877 1934.27 642.768C1928.9 629.92 1920.95 622.327 1909.9 619.628C1898.17 616.749 1882.66 619.268 1863.84 627.077C1849.61 632.956 1836.57 641.383 1825.37 651.945C1832.03 672.277 1834.76 690.127 1833.54 705.061C1833.43 706.378 1832.95 707.639 1832.17 708.706C1831.39 709.772 1830.33 710.603 1829.11 711.107L1772.18 734.751C1770.95 735.269 1769.59 735.432 1768.27 735.222C1766.95 735.012 1765.71 734.438 1764.7 733.563C1753.03 722.897 1742.96 710.608 1734.79 697.072C1727.57 686.3 1721.18 674.991 1715.68 663.244L1709.96 649.461C1709.51 648.372 1709.33 647.189 1709.44 646.016C1709.56 644.842 1709.96 643.715 1710.61 642.732C1725.26 621.469 1743.43 602.861 1764.34 587.708C1785.83 571.35 1809.28 557.738 1834.15 547.186C1879.71 528.293 1922.14 523.111 1960.1 531.784C1999.11 540.708 2027.22 565.324 2043.7 605.017C2050.79 621.703 2053.83 639.833 2052.56 657.918C2051.65 674.346 2047.43 690.42 2040.14 705.169C2033.63 717.765 2026.25 731.008 2018.22 744.575C2016.96 756.955 2038.27 838.717 2053.92 898.636C2084.37 1015.34 2088.97 1037.04 2084.73 1043.92C2068.1 1069.11 2019.95 1082.57 2018.04 1083.11C2017.43 1083.24 2016.8 1083.29 2016.17 1083.25V1083.18ZM1902.85 780.094C1901.55 803.522 2001.13 1032.62 2019.48 1067.49C2034.13 1062.77 2061.37 1051.65 2071.88 1037.04C2072.1 1025.17 2054.32 957.079 2040 902.09C2006.82 774.948 2000.66 745.763 2005.41 737.774C2013.47 724.206 2020.85 710.963 2027.36 698.188C2033.79 685.223 2037.54 671.101 2038.41 656.659C2039.52 640.823 2036.85 624.951 2030.64 610.343C2015.85 574.752 1991.81 553.556 1957.12 545.567C1922.43 537.578 1882.52 542.508 1839.8 560.249C1816.03 570.329 1793.62 583.337 1773.08 598.972C1754.54 612.533 1738.27 628.942 1724.86 647.59L1729.1 657.81C1734.32 668.782 1740.33 679.354 1747.1 689.443C1753.84 700.47 1761.87 710.655 1771.03 719.78L1819.58 699.627C1819.35 683.475 1816.27 667.489 1810.47 652.412C1810.02 651.14 1809.94 649.767 1810.23 648.45C1810.52 647.133 1811.18 645.925 1812.13 644.963C1825.34 631.606 1841.1 621.034 1858.48 613.87C1880.07 604.837 1898.75 602.102 1913.5 605.737C1929.08 609.552 1940.6 620.132 1947.73 637.334C1954.15 653.415 1954.75 671.239 1949.42 687.716C1944.5 704.672 1936.91 720.733 1926.92 735.29C1917.35 749.362 1909.28 764.403 1902.85 780.166V780.094Z" class="color1d1d1b svgShape"/><path fill="#1c1c1c" d="M2445.35 2766.29H359.436C357.527 2766.29 355.697 2765.54 354.347 2764.19C352.997 2762.84 352.239 2761 352.239 2759.1C352.239 2757.19 352.997 2755.36 354.347 2754.01C355.697 2752.66 357.527 2751.9 359.436 2751.9H2445.35C2447.26 2751.9 2449.09 2752.66 2450.44 2754.01C2451.79 2755.36 2452.55 2757.19 2452.55 2759.1C2452.55 2761 2451.79 2762.84 2450.44 2764.19C2449.09 2765.54 2447.26 2766.29 2445.35 2766.29Z" class="color1d1d1b svgShape"/><path fill="#1c1c1c" d="M520.872 1774.2C520.441 1774.23 520.008 1774.23 519.577 1774.2C518.645 1774.03 517.756 1773.68 516.961 1773.17C516.165 1772.65 515.478 1771.99 514.94 1771.21C514.402 1770.43 514.023 1769.55 513.824 1768.63C513.626 1767.7 513.612 1766.75 513.783 1765.81C537.211 1636.48 620.521 1516.28 754.644 1418.22C887.005 1321.45 1059.06 1253.21 1252.2 1220.97C1253.15 1220.76 1254.14 1220.75 1255.1 1220.93C1256.06 1221.11 1256.97 1221.49 1257.78 1222.04C1258.59 1222.58 1259.27 1223.29 1259.8 1224.11C1260.33 1224.93 1260.68 1225.85 1260.85 1226.81C1261.01 1227.77 1260.97 1228.76 1260.74 1229.71C1260.51 1230.65 1260.09 1231.54 1259.5 1232.32C1258.91 1233.1 1258.18 1233.76 1257.33 1234.24C1256.48 1234.73 1255.55 1235.04 1254.58 1235.15C1063.63 1267.07 893.698 1334.37 763.137 1429.84C632.576 1525.31 550.814 1642.74 527.962 1768.41C527.636 1770.04 526.751 1771.52 525.457 1772.58C524.164 1773.63 522.543 1774.21 520.872 1774.2Z" class="color1d1d1b svgShape"/><path fill="#1c1c1c" d="M2484.94 1760.42C2483.27 1760.45 2481.63 1759.91 2480.32 1758.87C2479 1757.83 2478.09 1756.37 2477.74 1754.73C2448.95 1621.58 2357.87 1500.34 2214.28 1404.4C2069.25 1307.48 1883.2 1244.76 1676.35 1223.02C1674.44 1222.82 1672.69 1221.87 1671.48 1220.38C1670.27 1218.89 1669.7 1216.98 1669.9 1215.07C1670.1 1213.16 1671.06 1211.41 1672.55 1210.2C1674.04 1208.99 1675.95 1208.43 1677.86 1208.63C2104.38 1253.5 2431.5 1471.69 2491.96 1751.71C2492.19 1752.77 2492.17 1753.87 2491.91 1754.93C2491.65 1755.98 2491.16 1756.97 2490.47 1757.81C2489.78 1758.64 2488.9 1759.31 2487.91 1759.77C2486.92 1760.22 2485.85 1760.44 2484.76 1760.42H2484.94Z" class="color1d1d1b svgShape"/><path fill="#1c1c1c" d="M815.068 2625.3C815.068 2625.3 823.381 2663.59 853.466 2657.14C866.602 2654.37 862.643 2625.3 838.856 2625.3H815.068Z" class="color1d1d1b svgShape"/><path fill="#1c1c1c" d="M846.807 2665.1C822.948 2665.1 811.108 2640.95 808.013 2626.84C807.779 2625.78 807.789 2624.67 808.044 2623.61C808.299 2622.55 808.792 2621.56 809.485 2620.72C810.178 2619.88 811.054 2619.2 812.046 2618.75C813.038 2618.3 814.12 2618.07 815.211 2618.1H838.998C846.124 2617.87 853.074 2620.34 858.462 2625.01C863.851 2629.68 867.283 2636.2 868.076 2643.29C869.191 2653.76 863.865 2662.36 855.12 2664.23C852.388 2664.82 849.601 2665.11 846.807 2665.1ZM825.215 2632.49C829.102 2641.35 837.199 2653.29 852.17 2650.13C853.501 2649.84 854.041 2647.18 853.789 2644.77C853.407 2641.2 851.652 2637.93 848.898 2635.64C846.144 2633.35 842.606 2632.22 839.034 2632.49H825.215Z" class="color1d1d1b svgShape"/><path fill="#1c1c1c" d="M2145.69 2657.14C2145.69 2657.14 2173.36 2664.95 2186.57 2625.29C2186.57 2625.29 2132.59 2620 2139 2643.79C2145.4 2667.58 2145.69 2657.14 2145.69 2657.14Z" class="color1d1d1b svgShape"/><path fill="#1c1c1c" d="M2144.75 2666.64C2137.88 2666.64 2135.54 2658.18 2132.09 2645.73C2131.14 2642.86 2130.93 2639.79 2131.5 2636.82C2132.07 2633.85 2133.38 2631.07 2135.33 2628.75C2146.91 2614.96 2180.63 2617.48 2187.25 2618.13C2188.33 2618.23 2189.37 2618.58 2190.3 2619.14C2191.22 2619.69 2192.01 2620.46 2192.6 2621.36C2193.19 2622.27 2193.57 2623.3 2193.71 2624.37C2193.85 2625.44 2193.75 2626.53 2193.41 2627.56C2182.11 2661.46 2160.41 2665.2 2149.83 2664.84C2148.72 2665.75 2147.39 2666.35 2145.98 2666.57L2144.75 2666.64ZM2148.35 2650.41C2152.38 2651.09 2166.35 2651.74 2175.95 2631.99C2163.9 2631.99 2150.04 2633.43 2146.23 2638C2145.83 2638.46 2145.08 2639.33 2145.8 2641.88C2146.98 2645.73 2147.85 2648.47 2148.5 2650.41H2148.35Z" class="color1d1d1b svgShape"/></svg>