<svg xmlns="http://www.w3.org/2000/svg" fill="none" viewBox="0 0 3000 3000"><path fill="#fff" d="M1583.64 843.327H1992.1C1983.77 830.022 1979.4 814.618 1979.51 798.92C1979.61 783.222 1984.19 767.879 1992.7 754.687C2001.21 741.495 2013.3 731.001 2027.56 724.432C2041.82 717.864 2057.65 715.493 2073.21 717.598C2118.76 723.238 2138.41 764.279 2139.34 766.614C2156.69 804.504 2138.72 839.398 2136.58 843.327H2576.17V1599.61H2257.84V1752.92L2488.49 1755.53C2505.95 1751.73 2524.18 1753.77 2540.38 1761.33C2572.59 1776.61 2574.69 1811.32 2576.17 1816.53H2212.59L2172.44 1746.66L2122.3 1594.09L2081.96 1608.48L1990.2 1510.37C1987.69 1484.51 1978.58 1459.73 1963.74 1438.4C1926.86 1385.89 1868.2 1376.16 1856.33 1374.41C1829.25 1342.49 1791.71 1321.23 1750.41 1314.43C1717.37 1309.48 1683.6 1314.15 1653.15 1327.89C1624.49 1304.35 1603.11 1273.15 1591.49 1237.93C1579.87 1202.71 1578.49 1164.91 1587.53 1128.94C1606.37 1117.33 1622.62 1101.95 1635.26 1083.78C1682.17 1015.66 1657.31 934.085 1653.15 921.169C1648.16 913.678 1640.87 908.012 1632.38 905.025C1626.1 903.133 1619.48 902.667 1613 903.663C1606.51 904.659 1600.34 907.092 1594.92 910.783L1583.64 843.327Z" class="colord6f436 svgShape"/><path fill="#ffb391" d="M731.652 1887.6C736.593 1896 732.313 1914.4 717.414 1920.86C702.515 1927.31 686.293 1925.76 681.469 1917.35C676.645 1908.95 679.213 1892.85 694.112 1886.23C709.011 1879.62 726.828 1879.23 731.652 1887.6Z" class="colorf9afd1 svgShape"/><path fill="#ffb391" d="M1884.62 1609.22C1881.35 1618.4 1864.47 1626.92 1849.99 1619.6C1835.52 1612.29 1826.34 1598.95 1829.61 1589.76C1832.88 1580.58 1846.96 1572.34 1861.47 1579.65C1875.98 1586.96 1887.85 1600.03 1884.62 1609.22Z" class="colorf9afd1 svgShape"/><path fill="#1c1c1c" d="M2064.54 891.486C2044 891.495 2024.03 884.686 2007.78 872.128C1991.52 859.57 1979.89 841.972 1974.72 822.095C1969.54 802.217 1971.1 781.183 1979.16 762.29C1987.23 743.398 2001.33 727.714 2019.26 717.7C2037.2 707.685 2057.95 703.905 2078.26 706.953C2098.58 710 2117.31 719.703 2131.51 734.539C2145.72 749.375 2154.6 768.507 2156.76 788.933C2158.93 809.36 2154.25 829.928 2143.47 847.411C2135.2 860.914 2123.6 872.063 2109.77 879.782C2095.95 887.501 2080.37 891.532 2064.54 891.486ZM2064.54 721.525C2049.26 721.518 2034.33 726.041 2021.62 734.523C2008.92 743.005 1999.01 755.065 1993.16 769.176C1987.31 783.288 1985.78 798.818 1988.76 813.8C1991.74 828.783 1999.09 842.546 2009.89 853.348C2020.7 864.149 2034.46 871.504 2049.44 874.483C2064.42 877.461 2079.95 875.929 2094.07 870.079C2108.18 864.23 2120.24 854.326 2128.72 841.622C2137.2 828.917 2141.72 813.982 2141.72 798.706C2141.7 778.243 2133.56 758.624 2119.09 744.154C2104.62 729.684 2085 721.546 2064.54 721.525ZM2064.54 849.006C2054.59 849.013 2044.86 846.07 2036.58 840.548C2028.3 835.025 2021.85 827.172 2018.04 817.982C2014.22 808.792 2013.22 798.677 2015.16 788.917C2017.1 779.157 2021.88 770.191 2028.92 763.153C2035.95 756.114 2044.91 751.32 2054.67 749.376C2064.43 747.432 2074.54 748.426 2083.74 752.232C2092.93 756.037 2100.79 762.484 2106.32 770.757C2111.85 779.03 2114.8 788.756 2114.8 798.706C2114.79 812.037 2109.49 824.819 2100.07 834.248C2090.64 843.678 2077.87 848.985 2064.54 849.006ZM2064.54 764.006C2057.66 763.998 2050.94 766.03 2045.22 769.844C2039.5 773.659 2035.04 779.084 2032.41 785.433C2029.78 791.782 2029.08 798.77 2030.42 805.513C2031.76 812.255 2035.07 818.449 2039.93 823.309C2044.79 828.17 2050.99 831.479 2057.73 832.818C2064.47 834.158 2071.46 833.466 2077.81 830.832C2084.16 828.198 2089.58 823.739 2093.4 818.021C2097.21 812.302 2099.24 805.58 2099.24 798.706C2099.23 789.506 2095.57 780.686 2089.06 774.181C2082.56 767.675 2073.74 764.016 2064.54 764.006Z" class="color1d1d1b svgShape"/><path fill="#1c1c1c" d="M1580.17 1375.97C1579.06 1375.97 1577.96 1375.73 1576.94 1375.26C1575.93 1374.8 1575.03 1374.13 1574.3 1373.28C1572.95 1371.72 1572.27 1369.69 1572.42 1367.64C1572.56 1365.58 1573.52 1363.67 1575.08 1362.31C1595.06 1344.98 1618.17 1331.6 1643.15 1322.91C1620.82 1307.66 1606.47 1284.43 1600.13 1272.33C1596.24 1274.47 1590.33 1277.35 1583.44 1280.54C1582.25 1281.09 1580.95 1281.33 1579.64 1281.24C1578.34 1281.15 1577.08 1280.74 1575.97 1280.03C1574.87 1279.33 1573.97 1278.35 1573.34 1277.21C1572.72 1276.06 1572.39 1274.77 1572.39 1273.46V1160.53C1572.39 1160.26 1572.39 1159.95 1572.39 1159.67C1577.41 1114.16 1579.08 1046.86 1580.17 1006.52C1580.45 994.421 1580.72 984.579 1580.95 978.121C1582.16 949.023 1578.89 889.037 1575.93 843.833C1575.86 842.769 1576.01 841.703 1576.37 840.7C1576.73 839.697 1577.29 838.778 1578.02 838.002C1578.75 837.225 1579.64 836.606 1580.61 836.184C1581.59 835.761 1582.65 835.545 1583.71 835.547H1992.18C1994.24 835.547 1996.22 836.367 1997.68 837.826C1999.14 839.285 1999.96 841.264 1999.96 843.327C1999.96 845.391 1999.14 847.37 1997.68 848.829C1996.22 850.288 1994.24 851.108 1992.18 851.108H1591.92C1594.76 895.494 1597.56 950.773 1596.43 978.744C1596.16 985.123 1595.93 994.927 1595.66 1006.91C1594.64 1047.29 1593.01 1114.78 1587.88 1160.96V1261.25C1595.19 1257.59 1599.55 1255.1 1599.55 1255.06C1600.5 1254.52 1601.56 1254.18 1602.65 1254.07C1603.74 1253.96 1604.85 1254.09 1605.89 1254.44C1606.92 1254.79 1607.88 1255.36 1608.68 1256.1C1609.49 1256.84 1610.12 1257.75 1610.55 1258.76C1610.55 1259.11 1626.93 1295.87 1656.73 1313.22C1657.91 1313.9 1658.89 1314.88 1659.58 1316.06C1660.26 1317.24 1660.62 1318.58 1660.62 1319.95V1327.92C1660.62 1329.59 1660.09 1331.2 1659.1 1332.54C1658.11 1333.88 1656.72 1334.86 1655.14 1335.35C1629.33 1343.27 1605.47 1356.52 1585.11 1374.26C1583.71 1375.38 1581.97 1375.98 1580.17 1375.97Z" class="color1d1d1b svgShape"/><path fill="#1c1c1c" d="M2576.52 1607.39H2070.41C2068.35 1607.39 2066.37 1606.57 2064.91 1605.11C2063.45 1603.65 2062.63 1601.68 2062.63 1599.61C2062.63 1597.55 2063.45 1595.57 2064.91 1594.11C2066.37 1592.65 2068.35 1591.83 2070.41 1591.83H2568.74V851.107H2136.93C2134.87 851.107 2132.89 850.288 2131.43 848.829C2129.97 847.37 2129.15 845.391 2129.15 843.327C2129.15 841.264 2129.97 839.285 2131.43 837.826C2132.89 836.367 2134.87 835.547 2136.93 835.547H2576.52C2578.58 835.547 2580.56 836.367 2582.02 837.826C2583.48 839.285 2584.3 841.264 2584.3 843.327V1599.61C2584.3 1601.68 2583.48 1603.65 2582.02 1605.11C2580.56 1606.57 2578.58 1607.39 2576.52 1607.39Z" class="color1d1d1b svgShape"/><path fill="#1c1c1c" d="M1917.22 1607.39H1886.09C1884.03 1607.39 1882.05 1606.57 1880.59 1605.11C1879.13 1603.65 1878.31 1601.68 1878.31 1599.61C1878.31 1597.55 1879.13 1595.57 1880.59 1594.11C1882.05 1592.65 1884.03 1591.83 1886.09 1591.83H1917.22C1919.28 1591.83 1921.26 1592.65 1922.72 1594.11C1924.18 1595.57 1925 1597.55 1925 1599.61C1925 1601.68 1924.18 1603.65 1922.72 1605.11C1921.26 1606.57 1919.28 1607.39 1917.22 1607.39Z" class="color1d1d1b svgShape"/><path fill="#1c1c1c" d="M1580.17 1480.42C1578.11 1480.42 1576.13 1479.6 1574.67 1478.14C1573.21 1476.68 1572.39 1474.7 1572.39 1472.64V1450.19C1572.39 1448.13 1573.21 1446.15 1574.67 1444.69C1576.13 1443.23 1578.11 1442.41 1580.17 1442.41C1582.24 1442.41 1584.22 1443.23 1585.67 1444.69C1587.13 1446.15 1587.95 1448.13 1587.95 1450.19V1472.64C1587.95 1474.7 1587.13 1476.68 1585.67 1478.14C1584.22 1479.6 1582.24 1480.42 1580.17 1480.42Z" class="color1d1d1b svgShape"/><path fill="#1c1c1c" d="M2191.82 2197.84C2189.76 2197.84 2187.78 2197.02 2186.32 2195.56C2184.86 2194.1 2184.04 2192.12 2184.04 2190.06C2184.04 2188 2184.86 2186.02 2186.32 2184.56C2187.78 2183.1 2189.76 2182.28 2191.82 2182.28L2572.24 2177.03C2574.3 2177.03 2576.28 2177.85 2577.74 2179.31C2579.2 2180.77 2580.02 2182.74 2580.02 2184.81C2580.02 2186.87 2579.2 2188.85 2577.74 2190.31C2576.28 2191.77 2574.3 2192.59 2572.24 2192.59L2191.94 2197.84H2191.82Z" class="color1d1d1b svgShape"/><path fill="#1c1c1c" d="M114.78 2227.68C112.717 2227.68 110.738 2226.86 109.279 2225.4C107.82 2223.94 107 2221.96 107 2219.9C107 2217.83 107.82 2215.85 109.279 2214.39C110.738 2212.94 112.717 2212.12 114.78 2212.12L1922.51 2185.82C1924.57 2185.82 1926.55 2186.64 1928.01 2188.1C1929.47 2189.56 1930.29 2191.54 1930.29 2193.6C1930.29 2195.66 1929.47 2197.64 1928.01 2199.1C1926.55 2200.56 1924.57 2201.38 1922.51 2201.38L114.78 2227.68Z" class="color1d1d1b svgShape"/><path fill="#1c1c1c" d="M1452.73 2223.43C1450.79 2223.44 1448.91 2222.73 1447.48 2221.42C1446.04 2220.12 1445.14 2218.33 1444.95 2216.39L1402.47 1757.35C1402.38 1756.33 1402.48 1755.3 1402.79 1754.32C1403.09 1753.34 1403.58 1752.43 1404.24 1751.64C1404.9 1750.85 1405.7 1750.2 1406.61 1749.72C1407.52 1749.24 1408.51 1748.95 1409.53 1748.85C1410.55 1748.76 1411.58 1748.87 1412.56 1749.17C1413.54 1749.47 1414.45 1749.97 1415.24 1750.62C1416.03 1751.28 1416.68 1752.08 1417.16 1752.99C1417.64 1753.9 1417.94 1754.89 1418.03 1755.92L1460.51 2214.95C1460.69 2217.01 1460.06 2219.05 1458.74 2220.63C1457.42 2222.21 1455.52 2223.21 1453.47 2223.4L1452.73 2223.43Z" class="color1d1d1b svgShape"/><path fill="#94a9fa" d="M2500.04 2351.62L1973.2 2466.26L1683.22 2280.39L1949.93 2207.96C2016.06 2233.63 2112.54 2218.61 2163 2202.24L2500.04 2351.62Z" class="color9745ff svgShape"/><path fill="#1c1c1c" d="M1973.2 2474.04C1971.7 2474.04 1970.25 2473.61 1968.99 2472.8L1679.02 2286.93C1677.76 2286.11 1676.76 2284.95 1676.14 2283.57C1675.53 2282.2 1675.32 2280.68 1675.55 2279.2C1675.78 2277.71 1676.44 2276.32 1677.44 2275.2C1678.44 2274.08 1679.75 2273.28 1681.2 2272.88L1947.91 2200.45C1949.51 2200.02 1951.19 2200.12 1952.73 2200.72C2021.12 2227.25 2118.61 2208.5 2160.58 2194.85C2162.41 2194.25 2164.39 2194.34 2166.15 2195.12L2503.19 2344.42C2504.69 2345.09 2505.93 2346.21 2506.76 2347.62C2507.58 2349.04 2507.93 2350.68 2507.77 2352.31C2507.61 2353.94 2506.93 2355.47 2505.84 2356.7C2504.76 2357.92 2503.31 2358.77 2501.71 2359.13L1974.87 2474.04C1974.31 2474.12 1973.75 2474.12 1973.2 2474.04ZM1702.17 2283.42L1974.48 2458.09L2474.91 2349.17L2162.33 2210.72C2117.6 2224.64 2020.11 2242.46 1949.35 2216.28L1702.17 2283.42Z" class="color1d1d1b svgShape"/><path fill="#94a9fa" d="M571.144 2236.9L371.424 2525.82L928.027 2536.44L1063.99 2222.04L571.144 2236.9Z" class="color9745ff svgShape"/><path fill="#1c1c1c" d="M928.027 2544.06L371.462 2533.44C370.053 2533.42 368.676 2533.01 367.48 2532.27C366.283 2531.52 365.311 2530.47 364.668 2529.21C364.025 2527.96 363.735 2526.55 363.828 2525.15C363.922 2523.74 364.396 2522.38 365.199 2521.23L564.881 2232.34C565.569 2231.34 566.484 2230.51 567.551 2229.92C568.619 2229.33 569.81 2229 571.028 2228.96L1063.91 2214.1C1065.22 2214.08 1066.51 2214.39 1067.66 2215.01C1068.82 2215.62 1069.8 2216.52 1070.52 2217.61C1071.23 2218.7 1071.66 2219.96 1071.77 2221.26C1071.87 2222.57 1071.64 2223.88 1071.11 2225.07L935.146 2539.47C934.53 2540.84 933.529 2542.01 932.266 2542.82C931.003 2543.63 929.53 2544.07 928.027 2544.06ZM386.09 2518.15L922.931 2528.38L1051.97 2230.01L575.307 2244.52L386.09 2518.15Z" class="color1d1d1b svgShape"/><path fill="#94a9fa" d="M1338.01 2237.98L1288.1 2537.49L1810.66 2488.63L1768.18 2216.7L1338.01 2237.98Z" class="color9745ff svgShape"/><path fill="#1c1c1c" d="M1288.1 2545.27C1287.03 2545.27 1285.96 2545.05 1284.98 2544.62C1284 2544.19 1283.11 2543.57 1282.38 2542.78C1281.58 2541.91 1280.98 2540.86 1280.65 2539.72C1280.31 2538.58 1280.24 2537.38 1280.44 2536.21L1330.35 2236.66C1330.64 2234.91 1331.52 2233.32 1332.84 2232.13C1334.16 2230.95 1335.85 2230.26 1337.62 2230.17L1767.79 2208.93C1769.72 2208.83 1771.61 2209.44 1773.1 2210.66C1774.6 2211.87 1775.59 2213.6 1775.89 2215.5L1818.37 2487.38C1818.53 2488.43 1818.48 2489.51 1818.21 2490.53C1817.95 2491.56 1817.47 2492.53 1816.82 2493.36C1816.17 2494.2 1815.35 2494.9 1814.42 2495.41C1813.49 2495.92 1812.46 2496.23 1811.4 2496.33L1288.8 2545.23L1288.1 2545.27ZM1344.66 2245.42L1297.44 2528.81L1801.72 2481.82L1761.57 2225.07L1344.66 2245.42Z" class="color1d1d1b svgShape"/><path fill="#94a9fa" d="M917.446 1931.01C944.199 1943.66 972.947 1951.56 1002.41 1954.35C1050.22 1958.63 1368.86 1916.11 1454.91 2054.22C1454.91 2054.22 1379.48 2151.04 1344.43 2248.72C1344.43 2248.72 1009.88 2248.72 900.446 2252.96C791.016 2257.2 569.043 2235.96 569.043 2235.96C569.043 2235.96 755.965 1968.13 798.563 1956.46C798.446 1956.65 894.105 1971.35 917.446 1931.01Z" class="color9745ff svgShape"/><path fill="#1c1c1c" d="M868.43 2261.32C753.437 2261.32 570.288 2243.94 568.265 2243.74C566.909 2243.61 565.61 2243.13 564.499 2242.35C563.387 2241.56 562.501 2240.49 561.93 2239.26C561.359 2238.02 561.122 2236.66 561.244 2235.3C561.366 2233.94 561.842 2232.64 562.625 2231.53C582.075 2203.91 752.425 1961.08 796.384 1948.98C797.45 1948.77 798.547 1948.77 799.613 1948.98C824.743 1952.87 893.716 1956.57 910.677 1927.28C911.681 1925.56 913.305 1924.29 915.215 1923.73C917.126 1923.18 919.177 1923.37 920.947 1924.28C946.837 1936.34 974.597 1943.9 1003.03 1946.61C1010.81 1947.31 1027.42 1946.61 1048.47 1945.79C1158.64 1941.32 1387.84 1932.02 1461.41 2050.09C1462.25 2051.44 1462.66 2053.02 1462.58 2054.62C1462.49 2056.21 1461.92 2057.74 1460.94 2059C1460.2 2059.93 1385.9 2155.98 1351.66 2251.37C1351.13 2252.88 1350.14 2254.18 1348.83 2255.11C1347.52 2256.04 1345.96 2256.54 1344.35 2256.54C1341.01 2256.54 1008.67 2256.54 900.874 2260.78C890.798 2261.17 879.945 2261.32 868.43 2261.32ZM583.087 2229.46C632.609 2233.94 807.86 2248.92 900.096 2245.02C1000.73 2241.13 1295.18 2240.78 1338.94 2240.78C1370.38 2156.6 1430.48 2073.51 1445.34 2053.67C1373.18 1948.01 1146.65 1957.19 1049.17 1961.12C1026.68 1962.06 1010.26 1962.72 1001.67 1961.94C973.477 1959.22 945.9 1952.02 919.974 1940.62C891.421 1975.32 812.762 1966.14 799.107 1964.27C768.92 1976.45 654.51 2128.01 583.087 2229.46Z" class="color1d1d1b svgShape"/><path fill="#94a9fa" d="M995.249 1265.17C1005.05 1242.26 1104.37 1262.76 1216.99 1311.03C1329.61 1359.31 1413.13 1416.96 1403.33 1439.88C1393.52 1462.79 1337.19 1505.66 1165.17 1432.1C1024.78 1371.92 985.524 1288.08 995.249 1265.17Z" class="color9745ff svgShape"/><path fill="#1c1c1c" d="M1325.29 1481.08C1281.95 1481.08 1227.26 1467.08 1162.33 1439.26C1023.61 1379.9 975.254 1292.37 988.208 1262.1C994.821 1246.54 1021.35 1243.9 1069.28 1253.78C1111.64 1262.57 1165.29 1280.35 1220.26 1303.88C1275.22 1327.42 1325.29 1353.91 1360.73 1378.54C1400.95 1406.39 1417.29 1427.44 1410.68 1442.96C1407.57 1450.15 1393.76 1474.08 1346.14 1479.91C1339.22 1480.71 1332.26 1481.1 1325.29 1481.08ZM1002.41 1268.25C994.899 1285.68 1030.65 1366.01 1168.32 1424.95C1240.6 1455.87 1301.4 1469.57 1344.2 1464.43C1384.54 1459.65 1394.77 1440.58 1396.25 1436.81C1397.61 1433.66 1392.36 1419.34 1351.78 1391.33C1317 1367.29 1268.07 1341.31 1214.03 1318.16C1160 1295.01 1107.4 1277.59 1066.21 1269.03C1017.93 1259.07 1003.85 1265.06 1002.52 1268.09L1002.41 1268.25Z" class="color1d1d1b svgShape"/><path fill="#fff" d="M1464.99 1377.21L1456.43 1397.21L1431.34 1455.83L1429.04 1461.2C1423.87 1473.3 1398.42 1475.56 1360.46 1469.45C1313.07 1461.86 1246.13 1441.28 1174.59 1410.63C1111.37 1383.4 1056.25 1353.72 1017.93 1327.11C978.132 1299.45 956.386 1275.33 962.338 1261.44L998.283 1177.49L1027.58 1190.02L1089.31 1216.47L1118.14 1228.8L1252 1286.03L1277.01 1296.73L1435.58 1364.61L1464.99 1377.21Z" class="colord6f436 svgShape"/><path fill="#1c1c1c" d="M1395.94 1480.57C1383.64 1480.38 1371.37 1479.23 1359.25 1477.15C1309.34 1469.14 1240.95 1447.51 1171.55 1417.79C1109.85 1391.37 1053.6 1361.46 1013.49 1333.49L1013.14 1333.25C967.084 1301.2 947.595 1275.99 955.142 1258.33L991.087 1174.38C991.489 1173.44 992.074 1172.59 992.806 1171.87C993.538 1171.16 994.404 1170.59 995.355 1170.21C996.305 1169.84 997.321 1169.65 998.344 1169.66C999.367 1169.67 1000.38 1169.89 1001.32 1170.29L1255.03 1278.87L1255.54 1279.1L1279.85 1289.53H1280.2L1468.06 1369.94C1469 1370.34 1469.85 1370.93 1470.57 1371.66C1471.28 1372.4 1471.84 1373.26 1472.22 1374.22C1473.01 1376.12 1473.01 1378.26 1472.22 1380.17L1436.28 1464.16C1431.53 1475.17 1418.26 1480.57 1395.94 1480.57ZM1022.67 1321.08C1062.04 1348.31 1117.09 1377.68 1177.7 1403.63C1245.93 1432.88 1313.04 1454.2 1361.74 1461.98C1405.04 1468.94 1420.09 1462.95 1421.92 1458.32L1454.79 1381.49L1274.33 1304.23H1273.98L1248.97 1293.54L1248.5 1293.3L1002.37 1188L969.496 1264.79C967.279 1269.96 975.448 1288.4 1022.36 1321L1022.67 1321.08Z" class="color1d1d1b svgShape"/><path fill="#ffb391" d="M1148.79 974.853C1148.89 977.188 1148.56 979.52 1147.82 981.738C1145.02 988.818 1136.5 984.423 1125.22 981.194C1120.17 979.633 1114.94 978.782 1109.66 978.665C1107.73 978.669 1105.81 978.812 1103.9 979.093C1089.82 980.921 1078.19 988.585 1073.17 984.189C1071.46 982.75 1070.52 979.871 1070.52 974.853C1070.52 964.473 1074.65 954.519 1081.99 947.18C1089.32 939.841 1099.28 935.718 1109.66 935.718C1120.04 935.718 1129.99 939.841 1137.33 947.18C1144.67 954.519 1148.79 964.473 1148.79 974.853Z" class="colorf9afd1 svgShape"/><path fill="#ffb391" d="M1665.64 962.516C1659.84 983.329 1647.74 961.505 1626.74 955.67C1605.73 949.834 1584.26 962.283 1590.05 941.471C1592.84 931.473 1599.49 922.994 1608.54 917.898C1617.58 912.802 1628.27 911.507 1638.27 914.298C1648.27 917.089 1656.75 923.737 1661.84 932.779C1666.94 941.822 1668.24 952.519 1665.44 962.516H1665.64Z" class="colorf9afd1 svgShape"/><path fill="#1c1c1c" d="M1395.43 1317.42H1393.17C1337.43 1316.91 1301.99 1312.94 1274.76 1304.23H1274.52C1265.39 1301.34 1256.57 1297.55 1248.19 1292.91L1247.8 1292.68C1222.47 1278.36 1203.92 1256.85 1185.79 1220.83L1185.24 1219.7L1183.57 1216.35C1183.37 1215.93 1183.19 1215.5 1183.03 1215.07C1181.55 1212.03 1180.11 1208.69 1178.55 1204.6L1178.13 1203.47C1176.06 1197.95 1174.24 1192.08 1172.21 1185.58C1170.62 1180.33 1169.06 1174.65 1167.54 1168.23C1156.77 1124.82 1147.55 1062.34 1140.08 982.553C1139.38 975.084 1138.76 967.809 1138.17 960.807C1134.28 916.187 1132.42 882.031 1131.91 872.656C1131.91 870.867 1131.91 869.855 1131.91 869.855C1131.87 868.833 1132.03 867.813 1132.38 866.853C1132.73 865.893 1133.27 865.012 1133.97 864.261C1134.66 863.509 1135.5 862.902 1136.42 862.473C1137.35 862.045 1138.36 861.804 1139.38 861.764C1140.4 861.722 1141.42 861.882 1142.38 862.235C1143.34 862.588 1144.22 863.127 1144.97 863.821C1145.73 864.514 1146.33 865.349 1146.76 866.278C1147.19 867.207 1147.43 868.211 1147.47 869.233C1147.47 869.233 1147.47 870.127 1147.47 871.722C1147.82 878.452 1149.77 913.931 1153.66 959.484C1154.23 966.487 1154.86 973.683 1155.56 981.075C1162.95 1060.12 1172.06 1121.86 1182.79 1164.53C1184.27 1170.68 1185.75 1176.2 1187.27 1181.15C1189.1 1187.33 1190.92 1192.82 1192.71 1197.72C1192.71 1197.72 1192.71 1198.11 1193.02 1198.42V1198.85C1194.54 1202.74 1195.83 1205.85 1197.15 1208.53C1197.29 1208.84 1197.42 1209.15 1197.54 1209.47L1197.73 1209.85C1198.12 1210.71 1198.67 1211.72 1199.13 1212.73L1199.72 1213.86C1216.4 1247.04 1233.17 1266.65 1255.77 1279.33L1256.16 1279.57C1263.59 1283.63 1271.41 1286.93 1279.5 1289.41H1279.74C1305.41 1297.62 1339.41 1301.31 1393.45 1301.82C1397.72 1301.82 1401.93 1301.82 1405.97 1301.58H1406.36C1409.51 1301.58 1413.01 1301.2 1416.79 1300.85C1432.67 1299.41 1448.34 1296.13 1463.47 1291.08C1518.67 1272.41 1551.42 1233.43 1563.72 1203.05V1202.66C1564.26 1201.3 1564.77 1199.97 1565.2 1198.77C1567.06 1193.52 1569.79 1182.47 1572.24 1159.87C1577.26 1114.35 1578.93 1047.05 1580.02 1006.71C1580.29 994.612 1580.56 984.77 1580.8 978.313C1582 949.214 1578.73 889.228 1575.78 844.025C1574.61 824.846 1573.33 807.263 1572.28 792.636C1570.8 772.562 1569.71 759.453 1569.71 759.453C1569.62 758.431 1569.74 757.403 1570.05 756.426C1570.37 755.45 1570.87 754.545 1571.53 753.763C1572.2 752.981 1573.01 752.337 1573.92 751.868C1574.83 751.399 1575.83 751.115 1576.85 751.03C1577.87 750.946 1578.9 751.064 1579.87 751.377C1580.85 751.69 1581.75 752.192 1582.54 752.855C1583.32 753.518 1583.96 754.329 1584.43 755.24C1584.9 756.152 1585.18 757.147 1585.27 758.169C1585.27 758.169 1586.4 771.318 1587.84 791.469C1588.93 806.173 1590.21 823.796 1591.42 843.052C1594.37 888.606 1597.64 949.176 1596.43 978.935C1596.16 985.315 1595.93 995.118 1595.66 1007.1C1594.64 1047.6 1593.01 1115.4 1587.88 1161.58C1586.75 1175.97 1584.15 1190.2 1580.1 1204.06C1579.55 1205.58 1578.97 1207.13 1578.31 1208.73V1208.92C1564.73 1242.49 1528.78 1285.67 1468.49 1306.18C1452.19 1311.65 1435.31 1315.19 1418.19 1316.72C1414.3 1317.11 1410.41 1317.38 1406.52 1317.53C1402.63 1317.69 1399.2 1317.42 1395.43 1317.42Z" class="color1d1d1b svgShape"/><path fill="#1c1c1c" d="M1377.57 1077.47H1375.28C1370.76 1077.33 1366.32 1076.19 1362.29 1074.14C1358.25 1072.09 1354.72 1069.18 1351.94 1065.61C1327.31 1035.11 1341.12 952.794 1342.76 943.653C1343.12 941.62 1344.27 939.814 1345.96 938.632C1347.66 937.45 1349.75 936.989 1351.78 937.351C1353.81 937.712 1355.62 938.865 1356.8 940.558C1357.98 942.25 1358.44 944.343 1358.08 946.376C1353.96 969.717 1346.96 1034.64 1364.07 1055.84C1365.42 1057.68 1367.18 1059.19 1369.2 1060.24C1371.23 1061.29 1373.46 1061.87 1375.75 1061.91C1379.89 1062.35 1384.09 1061.89 1388.04 1060.54C1391.99 1059.2 1395.6 1057.01 1398.62 1054.13C1409.86 1042.7 1409.08 1021.88 1409.08 1021.69C1408.98 1019.63 1409.69 1017.6 1411.07 1016.07C1412.46 1014.53 1414.39 1013.61 1416.46 1013.5C1418.52 1013.39 1420.54 1014.11 1422.08 1015.49C1423.61 1016.87 1424.54 1018.81 1424.64 1020.87C1424.64 1022 1425.93 1048.57 1409.75 1065.03C1405.52 1069.19 1400.49 1072.45 1394.95 1074.59C1389.42 1076.73 1383.5 1077.71 1377.57 1077.47Z" class="color1d1d1b svgShape"/><path fill="#1c1c1c" d="M1587.37 1136.72C1585.31 1136.72 1583.33 1135.9 1581.87 1134.44C1580.41 1132.99 1579.59 1131.01 1579.59 1128.94C1579.59 1126.88 1580.41 1124.9 1581.87 1123.44C1583.33 1121.98 1585.31 1121.16 1587.37 1121.16C1604.64 1121.16 1619.93 1110.78 1632.81 1090.27C1660.78 1045.73 1667.23 967.812 1652.68 937.625C1647.39 926.693 1640.24 919.963 1631.37 917.59C1613.63 912.844 1593.32 926.227 1593.13 926.382C1591.42 927.548 1589.32 927.988 1587.29 927.605C1585.25 927.222 1583.46 926.047 1582.29 924.34C1581.13 922.632 1580.69 920.532 1581.07 918.5C1581.45 916.468 1582.63 914.672 1584.33 913.506C1585.39 912.806 1610.52 895.922 1635.37 902.574C1648.83 906.153 1659.38 915.684 1666.69 930.895C1683.22 965.167 1676.92 1049.27 1645.96 1098.56C1630.28 1123.54 1609.89 1136.72 1587.37 1136.72Z" class="color1d1d1b svgShape"/><path fill="#1c1c1c" d="M1164.39 1158.39C1138.21 1158.39 1115.1 1145.13 1097.6 1120C1065.54 1073.94 1057.02 994.072 1071.07 956.065C1077.25 939.337 1086.94 928.834 1099.89 924.749C1121.76 917.864 1143.93 933.035 1144.86 933.697C1145.76 934.253 1146.54 934.987 1147.14 935.852C1147.74 936.718 1148.17 937.698 1148.38 938.732C1148.59 939.765 1148.6 940.832 1148.38 941.866C1148.17 942.901 1147.75 943.881 1147.15 944.748C1146.55 945.615 1145.77 946.35 1144.88 946.909C1143.98 947.468 1142.98 947.838 1141.94 947.998C1140.9 948.158 1139.83 948.104 1138.81 947.839C1137.79 947.573 1136.83 947.103 1135.99 946.456C1135.76 946.456 1118.99 934.98 1104.48 939.61C1096.43 942.177 1090.09 949.53 1085.66 961.472C1074.69 991.154 1078.93 1065.96 1110.36 1111.09C1125.02 1132.17 1143.23 1142.83 1164.39 1142.83C1166.46 1142.83 1168.44 1143.65 1169.89 1145.11C1171.35 1146.57 1172.17 1148.55 1172.17 1150.61C1172.17 1152.68 1171.35 1154.65 1169.89 1156.11C1168.44 1157.57 1166.46 1158.39 1164.39 1158.39Z" class="color1d1d1b svgShape"/><path fill="#1c1c1c" d="M1489.3 882.963C1489.3 902.725 1483.31 918.753 1475.88 918.753C1468.45 918.753 1462.46 902.725 1462.46 882.963C1462.46 863.201 1468.49 851.608 1475.88 851.608C1483.27 851.608 1489.3 863.512 1489.3 882.963Z" class="color1d1d1b svgShape"/><path fill="#1c1c1c" d="M1283.12 896.618C1283.12 916.38 1277.13 932.369 1269.7 932.369C1262.27 932.369 1256.32 916.38 1256.32 896.618C1256.32 876.856 1262.31 865.225 1269.7 865.225C1277.09 865.225 1283.12 876.856 1283.12 896.618Z" class="color1d1d1b svgShape"/><path fill="#1c1c1c" d="M1226.05 814.771C1224.44 814.769 1222.87 814.268 1221.56 813.336C1220.24 812.404 1219.25 811.088 1218.72 809.568C1218.18 808.048 1218.13 806.4 1218.58 804.851C1219.02 803.303 1219.93 801.93 1221.19 800.922C1245.07 781.86 1267.87 773.418 1289.38 775.869C1303.93 777.435 1317.37 784.37 1327.08 795.32C1328.33 796.937 1328.89 798.983 1328.65 801.013C1328.4 803.043 1327.37 804.895 1325.77 806.168C1324.17 807.442 1322.13 808.033 1320.1 807.816C1318.06 807.598 1316.2 806.589 1314.9 805.006C1313.66 803.45 1285.1 769.761 1230.91 813.02C1229.54 814.141 1227.82 814.758 1226.05 814.771Z" class="color1d1d1b svgShape"/><path fill="#1c1c1c" d="M1407.61 814.226C1405.9 814.237 1404.24 813.689 1402.88 812.667C1401.52 811.644 1400.53 810.203 1400.07 808.565C1399.61 806.927 1399.69 805.182 1400.32 803.597C1400.94 802.013 1402.06 800.677 1403.52 799.794C1405.74 798.471 1427.25 786.762 1502.88 790.73C1503.9 790.783 1504.9 791.038 1505.82 791.478C1506.74 791.919 1507.57 792.537 1508.26 793.297C1508.94 794.058 1509.47 794.946 1509.81 795.91C1510.15 796.875 1510.3 797.897 1510.25 798.919C1510.19 799.94 1509.94 800.941 1509.5 801.865C1509.06 802.788 1508.44 803.616 1507.68 804.3C1506.92 804.985 1506.03 805.513 1505.07 805.855C1504.1 806.196 1503.08 806.344 1502.06 806.29C1430.95 802.556 1411.69 812.943 1411.5 812.943C1410.34 813.71 1408.99 814.154 1407.61 814.226Z" class="color1d1d1b svgShape"/><path fill="#1c1c1c" d="M1586.16 806.564L1580.09 791.859L1567.3 760.933C1567.3 760.933 1515.4 763.306 1491.83 740.509C1491.83 740.509 1368.35 782.173 1344 638.276C1344 638.276 1338.48 753.891 1172.56 770.541C1172.56 770.541 1177.27 802.013 1147.39 806.72C1147.39 806.72 1151.28 858.031 1139.61 872.308C1138.71 873.564 1137.5 874.561 1136.09 875.196C1134.69 875.831 1133.13 876.083 1131.6 875.926C1131.6 875.926 1047.45 796.489 1109.58 666.752C1171.71 537.015 1282.58 427.702 1381.66 482.748C1381.66 482.748 1465.02 414.32 1551.5 525.189C1637.98 636.059 1613.78 786.919 1586.16 806.564Z" class="color1d1d1b svgShape"/><path fill="#1c1c1c" d="M1132.69 883.59C1132.08 883.629 1131.47 883.629 1130.86 883.59C1129.17 883.402 1127.58 882.664 1126.35 881.489C1125.45 880.672 1038.82 796.645 1102.66 663.329C1151.4 561.368 1220.26 487.922 1287.01 466.72C1302.37 461.438 1318.63 459.312 1334.83 460.468C1351.02 461.625 1366.82 466.04 1381.27 473.45C1403.43 458.566 1430.1 451.893 1456.66 454.583C1492.99 458.473 1527.07 480.725 1557.8 520.249C1615.07 593.695 1625.77 686.553 1616.7 748.951C1612.07 780.695 1602.39 804.619 1590.75 812.905C1589.8 813.578 1588.71 814.027 1587.56 814.219C1586.41 814.412 1585.23 814.343 1584.11 814.018C1582.98 813.693 1581.95 813.12 1581.08 812.342C1580.21 811.563 1579.53 810.599 1579.08 809.521L1562.24 768.791C1548.35 768.791 1511.67 766.768 1490.04 749.34C1476.19 753.036 1432.77 761.828 1394.38 738.837C1371.04 724.91 1354.19 702.075 1343.81 670.681C1329.53 707.404 1289.93 764.356 1180.65 777.466C1180.15 790.148 1174.47 806.72 1155.56 812.789C1156.34 828.816 1156.69 863.828 1145.72 877.249C1144.18 879.235 1142.2 880.839 1139.94 881.939C1137.68 883.039 1135.2 883.603 1132.69 883.59ZM1326.81 475.785C1314.83 475.853 1302.94 477.795 1291.56 481.542C1229.94 500.993 1162.91 573.35 1116.51 669.942C1063.79 780.034 1119.38 851.146 1133.78 866.901C1140.2 858.265 1141.01 826.949 1139.5 807.148C1139.34 805.198 1139.93 803.263 1141.14 801.728C1142.36 800.192 1144.1 799.169 1146.03 798.862C1167.43 795.516 1165.05 773.965 1164.7 771.631C1164.56 770.589 1164.62 769.527 1164.9 768.511C1165.17 767.494 1165.65 766.544 1166.3 765.718C1166.94 764.892 1167.75 764.204 1168.66 763.696C1169.58 763.188 1170.59 762.87 1171.63 762.761C1329.06 747.201 1336.03 639.132 1336.07 638.004C1336.16 636.087 1336.96 634.272 1338.31 632.907C1339.66 631.543 1341.46 630.726 1343.38 630.613C1345.3 630.5 1347.19 631.102 1348.69 632.302C1350.19 633.501 1351.2 635.214 1351.51 637.109C1358.78 679.901 1375.78 709.739 1402.08 725.455C1441.37 748.796 1488.72 733.235 1489.18 733.235C1490.52 732.798 1491.94 732.729 1493.31 733.038C1494.68 733.346 1495.94 734.019 1496.96 734.986C1517.81 755.175 1566.21 753.269 1566.67 753.23C1568.28 753.159 1569.86 753.584 1571.21 754.447C1572.56 755.311 1573.61 756.571 1574.22 758.054L1588.07 791.548C1594.89 777.464 1599.33 762.347 1601.22 746.812C1609.82 687.604 1599.7 599.53 1545.43 529.936C1517.35 493.913 1487.08 473.839 1454.99 470.183C1430.71 467.79 1406.4 474.393 1386.68 488.739C1385.47 489.727 1383.99 490.33 1382.44 490.469C1380.89 490.607 1379.33 490.276 1377.96 489.517C1362.38 480.602 1344.76 475.871 1326.81 475.785Z" class="color1d1d1b svgShape"/><path fill="#1c1c1c" d="M1097.09 1006.21H1096C1093.96 1005.92 1092.12 1004.83 1090.88 1003.18C1089.64 1001.53 1089.1 999.457 1089.39 997.414C1090.25 991.189 1092.93 972.167 1106.97 968.16C1121.02 964.153 1135.06 979.363 1137.67 982.514C1138.99 984.098 1139.64 986.144 1139.45 988.201C1139.27 990.258 1138.28 992.159 1136.69 993.485C1135.11 994.81 1133.07 995.453 1131.01 995.27C1128.95 995.088 1127.05 994.096 1125.72 992.512C1121.37 987.338 1114.05 982.281 1111.25 983.137C1109.66 983.604 1106.47 987.572 1104.8 999.592C1104.52 1001.43 1103.58 1003.11 1102.17 1004.33C1100.76 1005.54 1098.96 1006.21 1097.09 1006.21Z" class="color1d1d1b svgShape"/><path fill="#1c1c1c" d="M1639.65 1004.65C1637.59 1004.65 1635.61 1003.83 1634.15 1002.37C1632.69 1000.91 1631.87 998.933 1631.87 996.869C1632.53 967.071 1616.66 960.38 1616.51 960.302C1615.53 959.96 1614.63 959.428 1613.87 958.736C1613.1 958.043 1612.48 957.205 1612.04 956.269C1611.6 955.334 1611.35 954.32 1611.3 953.287C1611.26 952.254 1611.42 951.223 1611.78 950.254C1612.14 949.285 1612.69 948.397 1613.4 947.642C1614.1 946.887 1614.95 946.281 1615.9 945.858C1616.84 945.435 1617.86 945.205 1618.89 945.18C1619.92 945.155 1620.95 945.337 1621.91 945.714C1623 946.103 1648.33 955.984 1647.43 997.219C1647.34 999.222 1646.48 1001.11 1645.03 1002.5C1643.59 1003.88 1641.66 1004.65 1639.65 1004.65Z" class="color1d1d1b svgShape"/><path fill="#1c1c1c" d="M1401.34 1175.66C1399.54 1175.66 1397.79 1175.03 1396.4 1173.87C1395.61 1173.22 1394.96 1172.42 1394.48 1171.52C1394 1170.62 1393.7 1169.63 1393.6 1168.61C1393.5 1167.59 1393.61 1166.56 1393.91 1165.58C1394.21 1164.6 1394.7 1163.69 1395.35 1162.9C1396.64 1161.35 1427.45 1124.47 1465.37 1113.15C1498.79 1103.15 1519.21 1113.69 1525.36 1117.74L1528.86 1118.28C1529.89 1118.42 1530.89 1118.75 1531.79 1119.28C1532.69 1119.8 1533.47 1120.5 1534.1 1121.33C1534.72 1122.16 1535.17 1123.11 1535.43 1124.12C1535.68 1125.13 1535.72 1126.18 1535.56 1127.21C1535.4 1128.24 1535.04 1129.22 1534.49 1130.11C1533.94 1130.99 1533.22 1131.75 1532.37 1132.36C1531.52 1132.96 1530.56 1133.38 1529.54 1133.6C1528.52 1133.82 1527.47 1133.84 1526.45 1133.65L1521.16 1132.83C1519.73 1132.62 1518.39 1132.03 1517.27 1131.12C1516.69 1130.69 1500.93 1118.71 1469.69 1128.05C1436.2 1138.05 1407.45 1172.47 1407.14 1172.82C1406.43 1173.69 1405.55 1174.38 1404.55 1174.87C1403.55 1175.36 1402.46 1175.63 1401.34 1175.66Z" class="color1d1d1b svgShape"/><path fill="#1c1c1c" d="M1452.61 1195.66C1448.07 1195.68 1443.54 1195.39 1439.04 1194.8C1436.97 1194.5 1435.12 1193.39 1433.87 1191.71C1432.63 1190.04 1432.1 1187.94 1432.4 1185.88C1432.71 1183.81 1433.82 1181.95 1435.5 1180.71C1437.17 1179.47 1439.27 1178.94 1441.33 1179.24C1442.07 1179.24 1485.14 1185.27 1501.01 1159.09C1501.54 1158.22 1502.24 1157.46 1503.06 1156.85C1503.89 1156.25 1504.82 1155.82 1505.82 1155.57C1506.81 1155.33 1507.84 1155.29 1508.85 1155.44C1509.86 1155.6 1510.83 1155.95 1511.71 1156.49C1512.58 1157.02 1513.34 1157.72 1513.94 1158.54C1514.55 1159.37 1514.98 1160.3 1515.22 1161.3C1515.47 1162.29 1515.51 1163.32 1515.35 1164.33C1515.2 1165.34 1514.84 1166.31 1514.31 1167.18C1499.49 1191.73 1469.85 1195.66 1452.61 1195.66Z" class="color1d1d1b svgShape"/><path fill="#1c1c1c" d="M1017.23 1960.03H1016.92C1015.89 1959.99 1014.88 1959.75 1013.95 1959.32C1013.02 1958.89 1012.18 1958.28 1011.49 1957.52C1010.8 1956.77 1010.26 1955.88 1009.91 1954.92C1009.56 1953.95 1009.4 1952.93 1009.45 1951.9L1016.1 1795.83L953.08 1691.22C952.551 1690.35 952.2 1689.38 952.047 1688.37C951.894 1687.35 951.941 1686.32 952.187 1685.33C952.432 1684.33 952.871 1683.4 953.478 1682.58C954.085 1681.75 954.849 1681.06 955.725 1680.53C956.601 1680 957.573 1679.65 958.585 1679.49C959.596 1679.34 960.628 1679.39 961.622 1679.63C962.615 1679.88 963.551 1680.32 964.374 1680.93C965.198 1681.53 965.894 1682.3 966.423 1683.17L1030.65 1789.8C1031.43 1791.12 1031.82 1792.63 1031.78 1794.16L1025.01 1952.76C1024.88 1954.73 1024 1956.59 1022.56 1957.94C1021.11 1959.29 1019.21 1960.04 1017.23 1960.03Z" class="color1d1d1b svgShape"/><path fill="#1c1c1c" d="M1603.55 1261.83C1603.55 1261.83 1594.41 1267.04 1580.21 1273.5C1551.54 1286.73 1502.41 1305.52 1466 1298.36L1463.39 1297.81C1463.39 1297.81 1543.49 1264.55 1570.99 1205.85C1576.6 1194.17 1579.7 1181.45 1580.1 1168.5C1580.1 1168.5 1584.45 1227.83 1603.55 1261.83Z" class="color1d1d1b svgShape"/><path fill="#1c1c1c" d="M1483.39 1307.85C1477.03 1307.88 1470.68 1307.3 1464.44 1306.1C1463.58 1306.1 1462.61 1305.75 1461.64 1305.51C1460.04 1305.14 1458.6 1304.28 1457.52 1303.03C1456.44 1301.79 1455.78 1300.24 1455.64 1298.61C1455.5 1296.97 1455.88 1295.33 1456.73 1293.92C1457.57 1292.51 1458.84 1291.41 1460.36 1290.77C1461.13 1290.42 1537.77 1257.9 1563.83 1202.81C1563.91 1202.67 1563.97 1202.53 1564.03 1202.38C1569.16 1191.68 1572.01 1180.02 1572.39 1168.15C1572.44 1166.12 1573.29 1164.19 1574.74 1162.78C1576.19 1161.36 1578.14 1160.56 1580.17 1160.57C1582.15 1160.56 1584.05 1161.31 1585.49 1162.65C1586.93 1163.99 1587.82 1165.83 1587.95 1167.8C1587.95 1168.38 1592.31 1225.96 1610.36 1258.01C1611.37 1259.81 1611.62 1261.93 1611.07 1263.92C1610.51 1265.9 1609.2 1267.58 1607.4 1268.6C1607.02 1268.79 1597.8 1274.04 1583.44 1280.69C1555.12 1293.76 1516.8 1307.85 1483.39 1307.85ZM1578.07 1209.15C1559.56 1248.56 1519.49 1276.61 1492.49 1291.86C1522.87 1289.37 1556.6 1275.83 1576.71 1266.53C1583.44 1263.46 1589 1260.66 1592.97 1258.75C1586.06 1242.87 1581.05 1226.22 1578.07 1209.15Z" class="color1d1d1b svgShape"/><path fill="#1c1c1c" d="M1663.27 1332.75C1662.28 1332.76 1661.3 1332.57 1660.39 1332.2C1656.45 1330.63 1652.64 1328.76 1648.99 1326.6C1614.76 1306.72 1597.13 1266.61 1596.43 1264.9C1595.97 1263.96 1595.71 1262.93 1595.66 1261.88C1595.61 1260.82 1595.77 1259.77 1596.13 1258.79C1596.5 1257.8 1597.06 1256.9 1597.79 1256.14C1598.51 1255.37 1599.39 1254.77 1600.35 1254.35C1601.32 1253.93 1602.36 1253.72 1603.41 1253.72C1604.46 1253.71 1605.51 1253.92 1606.47 1254.34C1607.44 1254.75 1608.32 1255.35 1609.05 1256.11C1609.77 1256.87 1610.34 1257.77 1610.71 1258.76C1610.71 1259.11 1627.09 1295.87 1656.89 1313.22C1659.84 1315 1662.93 1316.52 1666.15 1317.77C1667.83 1318.44 1669.23 1319.67 1670.1 1321.26C1670.98 1322.85 1671.27 1324.69 1670.93 1326.47C1670.59 1328.25 1669.63 1329.86 1668.23 1331.01C1666.84 1332.16 1665.08 1332.79 1663.27 1332.79V1332.75Z" class="color1d1d1b svgShape"/><path fill="#1c1c1c" d="M1990.2 1518.15C1988.3 1518.16 1986.46 1517.48 1985.02 1516.24C1983.59 1514.99 1982.66 1513.26 1982.41 1511.38C1981.87 1507.22 1981.17 1503.13 1980.39 1499.2C1959.66 1395.8 1859.8 1382.5 1855.36 1382.15C1854.3 1382.02 1853.27 1381.67 1852.35 1381.13C1851.43 1380.59 1850.62 1379.86 1849.99 1379C1848.17 1376.58 1804.13 1318.93 1699.64 1326.91C1687.99 1327.82 1676.44 1329.7 1665.09 1332.51C1661.79 1333.36 1658.44 1334.3 1655.21 1335.31C1629.4 1343.22 1605.54 1356.47 1585.19 1374.21C1570.84 1386.3 1558.51 1400.6 1548.66 1416.58C1547.62 1418.3 1545.96 1419.55 1544.02 1420.07C1542.07 1420.59 1540.01 1420.34 1538.25 1419.36C1536.49 1418.39 1535.17 1416.78 1534.57 1414.86C1533.98 1412.94 1534.15 1410.86 1535.05 1409.07C1545.71 1391.42 1559.21 1375.64 1575 1362.39C1597 1343.29 1622.76 1329.03 1650.62 1320.53C1654.09 1319.44 1657.66 1318.43 1661.28 1317.49C1673.48 1314.47 1685.91 1312.47 1698.43 1311.5C1800.39 1303.72 1850.15 1354.8 1860.46 1367.29C1879.48 1370.63 1974.87 1392.61 1995.64 1496.25C1996.5 1500.49 1997.24 1504.92 1997.82 1509.43C1998.09 1511.47 1997.54 1513.53 1996.29 1515.16C1995.04 1516.79 1993.2 1517.87 1991.17 1518.15H1990.2Z" class="color1d1d1b svgShape"/><path fill="#1c1c1c" d="M1552.55 1545.77C1551.66 1545.77 1550.78 1545.61 1549.95 1545.3C1510.11 1531.11 1504.16 1485.12 1506.61 1462.79C1506.83 1460.73 1507.86 1458.84 1509.48 1457.54C1511.1 1456.24 1513.16 1455.63 1515.23 1455.85C1517.29 1456.07 1519.18 1457.1 1520.48 1458.72C1521.79 1460.34 1522.39 1462.4 1522.17 1464.47C1521.94 1466.68 1517.11 1517.02 1555.31 1530.6C1557.03 1531.22 1558.48 1532.43 1559.39 1534.02C1560.31 1535.6 1560.64 1537.45 1560.32 1539.26C1560.01 1541.06 1559.07 1542.69 1557.67 1543.87C1556.27 1545.04 1554.5 1545.69 1552.67 1545.69L1552.55 1545.77Z" class="color1d1d1b svgShape"/><path fill="#1c1c1c" d="M2035.87 2229.62C2005.21 2229.62 1974.13 2225.73 1947.13 2215.26C1936.84 2211.36 1927.07 2206.22 1918.03 2199.94C1899.63 2187.38 1885.84 2169.16 1878.74 2148.04C1864.91 2107.34 1853.85 2065.75 1845.64 2023.56C1838.32 1988.54 1831.98 1957.97 1814.52 1918.13C1780.4 1840.33 1775.23 1781.98 1775.03 1779.64C1774.9 1778.16 1775.2 1776.68 1775.89 1775.36C1776.58 1774.04 1777.63 1772.95 1778.92 1772.21L1812.96 1753C1786.04 1702.42 1735.16 1635.94 1723.14 1620.5C1722.51 1619.69 1722.04 1618.77 1721.77 1617.78C1721.5 1616.79 1721.43 1615.76 1721.55 1614.75C1721.68 1613.73 1722 1612.75 1722.51 1611.86C1723.02 1610.97 1723.69 1610.19 1724.5 1609.57C1725.31 1608.94 1726.23 1608.47 1727.21 1608.2C1728.2 1607.93 1729.23 1607.86 1730.25 1607.98C1731.26 1608.11 1732.24 1608.43 1733.13 1608.94C1734.02 1609.44 1734.8 1610.12 1735.43 1610.93C1750.72 1630.61 1827.82 1731.52 1842.53 1782.4C1843.02 1784.18 1842.86 1786.07 1842.09 1787.75C1841.31 1789.42 1839.97 1790.76 1838.3 1791.54C1836.63 1792.31 1834.73 1792.47 1832.96 1791.98C1831.18 1791.49 1829.64 1790.39 1828.6 1788.86L1815.61 1769.41L1791.06 1783.26C1797.68 1827.68 1810.36 1870.98 1828.75 1911.95C1846.84 1953.26 1853.34 1984.38 1860.85 2020.4C1868.94 2062.03 1879.81 2103.06 1893.41 2143.22C1899.49 2161.19 1911.26 2176.69 1926.94 2187.37C1934.95 2192.92 1943.59 2197.47 1952.69 2200.95C2021.08 2227.48 2118.57 2208.73 2160.55 2195.07C2167.17 2192.94 2173.67 2190.42 2180 2187.53C2182.59 2186.3 2185.11 2184.92 2187.54 2183.4C2241.15 2150.37 2300.36 2037.99 2231.39 1876.86C2223.96 1859.55 2215.36 1841.5 2205.87 1823.21C2195.32 1802.87 2183.23 1781.32 2169.84 1759.1C2169.82 1758.99 2169.82 1758.87 2169.84 1758.75C2169.72 1758.57 2169.62 1758.37 2169.53 1758.17L2169.34 1757.82C2159.99 1734.2 2151.87 1710.12 2145.02 1685.66C2134.52 1650.3 2124.56 1616.88 2107.33 1593.62C2106.67 1592.8 2106.18 1591.86 2105.89 1590.85C2105.6 1589.84 2105.52 1588.78 2105.65 1587.74C2105.78 1586.69 2106.12 1585.69 2106.65 1584.78C2107.18 1583.88 2107.89 1583.08 2108.73 1582.46C2109.58 1581.83 2110.54 1581.38 2111.56 1581.14C2112.58 1580.9 2113.64 1580.86 2114.68 1581.04C2115.72 1581.22 2116.7 1581.6 2117.59 1582.17C2118.47 1582.74 2119.23 1583.49 2119.82 1584.36C2138.72 1609.84 2149.03 1644.5 2159.96 1681.22C2166.6 1704.96 2174.47 1728.33 2183.54 1751.24C2197.04 1773.61 2209.25 1795.4 2219.87 1815.94C2229.56 1834.53 2238.31 1852.93 2245.9 1870.4C2318.8 2040.52 2253.91 2160.61 2195.91 2196.32C2192.97 2198.15 2189.93 2199.82 2186.8 2201.3C2179.85 2204.49 2172.71 2207.25 2165.41 2209.54C2123.43 2222.49 2079.79 2229.25 2035.87 2229.62Z" class="color1d1d1b svgShape"/><path fill="#1c1c1c" d="M2084.73 1626.49C2083.51 1626.49 2082.31 1626.21 2081.22 1625.66C2080.13 1625.11 2079.19 1624.32 2078.46 1623.34C2073.64 1616.76 2068.85 1610.46 2064.19 1604.32L2062.01 1601.4C2046.45 1580.78 2030.19 1560.28 2015.33 1542.15C1996.42 1519.01 1983.5 1504.22 1982.34 1502.94C1980.96 1501.43 1980.23 1499.45 1980.31 1497.41C1980.38 1495.38 1981.25 1493.45 1982.73 1492.05C1984.18 1490.64 1986.12 1489.86 1988.13 1489.86C1990.15 1489.86 1992.09 1490.64 1993.54 1492.05C1994.98 1493.56 2007.9 1508.35 2027.35 1532.12C2042.28 1550.44 2058.47 1571.02 2074.34 1591.83L2076.56 1594.75C2081.25 1600.97 2086.05 1607.36 2090.95 1613.93C2091.81 1615.08 2092.33 1616.46 2092.45 1617.89C2092.57 1619.33 2092.29 1620.77 2091.64 1622.06C2090.99 1623.35 2090 1624.43 2088.77 1625.18C2087.54 1625.94 2086.13 1626.34 2084.69 1626.33L2084.73 1626.49Z" class="color1d1d1b svgShape"/><path fill="#1c1c1c" d="M1859.49 1802.37C1849.86 1802.38 1840.28 1800.99 1831.05 1798.24C1820.57 1795.07 1810.56 1790.5 1801.29 1784.67C1800.4 1784.12 1799.64 1783.4 1799.04 1782.55C1798.44 1781.7 1798.01 1780.74 1797.79 1779.73C1797.56 1778.71 1797.53 1777.65 1797.72 1776.62C1797.91 1775.59 1798.3 1774.61 1798.88 1773.74L1811.6 1754.6C1812.74 1752.87 1814.53 1751.68 1816.55 1751.27C1818.58 1750.86 1820.69 1751.27 1822.41 1752.42C1824.14 1753.56 1825.33 1755.35 1825.74 1757.37C1826.15 1759.4 1825.74 1761.51 1824.59 1763.23L1816.46 1775.45C1822.5 1778.69 1828.86 1781.3 1835.44 1783.23C1854.39 1788.79 1873.72 1787.7 1896.29 1779.73C1914.92 1773.19 1934.72 1762.38 1958.76 1748.18L1973.43 1739.42C2036.92 1701.53 2100.83 1600 2101.45 1598.95C2102.58 1597.27 2104.31 1596.09 2106.29 1595.66C2108.27 1595.23 2110.34 1595.6 2112.05 1596.67C2113.77 1597.74 2115 1599.44 2115.48 1601.41C2115.97 1603.38 2115.66 1605.45 2114.64 1607.2C2111.96 1611.52 2048.12 1712.97 1981.44 1752.81L1966.7 1761.56C1941.84 1776.23 1921.26 1787.43 1901.46 1794.43C1888.02 1799.45 1873.83 1802.13 1859.49 1802.37Z" class="color1d1d1b svgShape"/><path fill="#1c1c1c" d="M683.297 1894.17H683.064C682.039 1894.14 681.029 1893.91 680.094 1893.49C679.159 1893.06 678.317 1892.46 677.615 1891.71C676.914 1890.97 676.368 1890.09 676.007 1889.13C675.647 1888.16 675.481 1887.14 675.517 1886.12C681.819 1700.64 803.464 1474.15 855.437 1385.34C899.784 1309.67 964.128 1281.35 966.851 1280.3C967.797 1279.84 968.826 1279.58 969.877 1279.53C970.928 1279.48 971.979 1279.64 972.965 1280.01C973.952 1280.37 974.854 1280.93 975.616 1281.66C976.379 1282.38 976.987 1283.26 977.403 1284.22C977.819 1285.19 978.035 1286.23 978.037 1287.28C978.039 1288.33 977.828 1289.38 977.416 1290.34C977.004 1291.31 976.4 1292.19 975.641 1292.92C974.881 1293.64 973.982 1294.21 972.997 1294.58C929.472 1316.75 893.302 1351.06 868.858 1393.35C828.789 1461.82 697.418 1699.74 691.078 1886.78C690.978 1888.77 690.114 1890.65 688.666 1892.03C687.217 1893.41 685.295 1894.17 683.297 1894.17Z" class="color1d1d1b svgShape"/><path fill="#1c1c1c" d="M613.625 2149.09C611.62 2149.09 609.693 2148.32 608.243 2146.94C606.794 2145.55 605.935 2143.66 605.844 2141.66C605.611 2137.07 600.904 2028.3 642.606 1934.2C681.508 1846.52 762.657 1848.19 793.272 1848.85C796.968 1848.85 800.197 1848.85 802.297 1848.85C814.357 1848.19 831.94 1853.25 850.535 1858.54C866.796 1863.17 883.64 1867.95 894.027 1867.95C898.7 1867.67 903.367 1868.59 907.578 1870.63C911.789 1872.68 915.402 1875.77 918.068 1879.62C926.782 1892.58 925.382 1914.24 913.984 1942.33C901.963 1971.97 864.618 1969.06 831.59 1966.53C813.656 1965.13 795.139 1963.69 784.247 1967.93C754.798 1979.33 735.659 2022.78 735.464 2023.25C735.068 2024.2 734.486 2025.06 733.753 2025.78C733.02 2026.51 732.15 2027.08 731.194 2027.47C730.238 2027.85 729.215 2028.04 728.185 2028.03C727.154 2028.02 726.136 2027.8 725.191 2027.39C724.245 2026.98 723.39 2026.39 722.676 2025.64C721.961 2024.9 721.401 2024.02 721.029 2023.06C720.657 2022.1 720.479 2021.08 720.506 2020.05C720.533 2019.02 720.765 2018 721.187 2017.06C722.082 2015.04 743.05 1967.15 778.645 1953.42C792.805 1947.93 812.217 1949.53 832.796 1951.01C861.817 1953.26 891.849 1955.56 899.551 1936.5C908.498 1914.4 910.599 1896.43 905.153 1888.34C904.336 1887.13 901.885 1883.47 894.027 1883.47C881.462 1883.47 864.384 1878.61 846.295 1873.44C829.723 1868.73 812.684 1863.91 803.075 1864.33C800.391 1864.33 797.123 1864.33 792.922 1864.33C762.618 1863.75 691.506 1862.23 656.766 1940.5C616.581 2031.1 621.249 2139.8 621.327 2140.88C621.374 2141.91 621.219 2142.93 620.871 2143.89C620.523 2144.85 619.988 2145.74 619.298 2146.49C618.608 2147.25 617.776 2147.86 616.849 2148.29C615.922 2148.72 614.919 2148.97 613.897 2149.01L613.625 2149.09Z" class="color1d1d1b svgShape"/><path fill="#1c1c1c" d="M1391.5 1598.75C1315.21 1598.75 1235.5 1471.47 1232 1466.02C1231.46 1465.15 1231.1 1464.19 1230.94 1463.18C1230.77 1462.17 1230.81 1461.14 1231.04 1460.14C1231.51 1458.13 1232.76 1456.39 1234.51 1455.3C1236.27 1454.22 1238.38 1453.87 1240.39 1454.34C1242.4 1454.81 1244.14 1456.06 1245.23 1457.81C1246.01 1459.1 1324.78 1585.18 1393.06 1583.15C1461.33 1581.13 1509.76 1512.86 1510.11 1512.16C1511.29 1510.46 1513.09 1509.3 1515.12 1508.93C1517.15 1508.56 1519.25 1509.02 1520.95 1510.19C1522.64 1511.37 1523.8 1513.17 1524.17 1515.21C1524.54 1517.24 1524.09 1519.33 1522.91 1521.03C1520.77 1524.1 1469.85 1596.5 1393.52 1598.83L1391.5 1598.75Z" class="color1d1d1b svgShape"/><path fill="#1c1c1c" d="M1285.42 1622.91C1277.25 1623.1 1269.1 1622.03 1261.26 1619.76C1220.06 1606.38 1134.91 1440.54 1125.34 1421.68C1124.4 1419.83 1124.24 1417.7 1124.88 1415.73C1125.52 1413.77 1126.92 1412.15 1128.76 1411.21C1130.6 1410.28 1132.74 1410.11 1134.7 1410.76C1136.66 1411.4 1138.29 1412.79 1139.22 1414.63C1174.24 1483.65 1239.67 1596.38 1266.08 1604.94C1296.15 1614.71 1366.1 1593 1390.57 1583.82C1392.39 1583.14 1394.39 1583.14 1396.21 1583.82C1396.91 1584.13 1466.89 1611.63 1506.69 1604.63C1545.28 1597.9 1569.32 1562.85 1569.55 1562.5C1570.72 1560.83 1572.5 1559.68 1574.5 1559.3C1576.51 1558.92 1578.58 1559.35 1580.27 1560.49C1581.97 1561.63 1583.15 1563.38 1583.56 1565.38C1583.97 1567.38 1583.58 1569.46 1582.47 1571.17C1581.38 1572.85 1554.61 1612.06 1509.37 1619.96C1469.58 1626.96 1407.33 1604.71 1393.25 1599.38C1380.06 1604.16 1325.56 1622.91 1285.42 1622.91Z" class="color1d1d1b svgShape"/><path fill="#fff" d="M1464.99 1377.21C1457.2 1394.95 1406.32 1391.52 1335.99 1371.68C1293.24 1359.35 1251.32 1344.31 1210.49 1326.63C1169.51 1309.27 1129.67 1289.33 1091.22 1266.92C1028.39 1229.77 990.736 1195.23 998.322 1177.45C1002.76 1167.02 1022.25 1163.91 1051.77 1167.14C1077.09 1170.34 1102.12 1175.55 1126.62 1182.7C1143.27 1187.41 1160.93 1193.01 1179.45 1199.47L1185.87 1201.96C1195.44 1205.34 1205.08 1209 1215 1212.85C1221.69 1215.44 1228.44 1218.11 1235.23 1220.86L1252.7 1228.21C1314.2 1254.55 1368 1283.49 1406.17 1309.6C1413.95 1314.85 1420.91 1319.98 1427.25 1324.92C1455.53 1346.79 1469.85 1365.58 1464.99 1377.21Z" class="colord6f436 svgShape"/><path fill="#1c1c1c" d="M1431.14 1396.47C1403.37 1396.47 1366.41 1388.22 1333.89 1379.08C1290.82 1366.62 1248.58 1351.46 1207.42 1333.68C1166.21 1316.19 1126.14 1296.13 1087.45 1273.62H1087.17C1036.6 1243.82 979.144 1202.39 991.086 1174.42C997.038 1160.49 1017.07 1155.63 1052.36 1159.44H1052.59C1078.17 1162.7 1103.46 1167.97 1128.21 1175.2H1128.8C1145.56 1179.94 1163.5 1185.62 1182.05 1192.08H1182.33L1187.66 1193.95L1188.4 1194.18C1196.76 1197.14 1205.67 1200.48 1217.26 1204.95L1217.84 1205.15C1224.56 1207.74 1231.34 1210.44 1238.19 1213.24L1255.77 1220.63C1315.49 1246.19 1370.3 1275.09 1410.13 1302.33L1410.64 1302.64C1418.42 1307.89 1425.54 1313.14 1432.11 1318.2C1465.61 1344.42 1478.8 1364.57 1472.14 1379.89C1467.09 1392.11 1451.6 1396.47 1431.14 1396.47ZM1095.19 1260.31C1171.73 1304.51 1253.27 1339.42 1338.09 1364.3C1419.28 1387.17 1454.17 1382.77 1457.83 1374.22C1459.69 1369.86 1454.37 1355.85 1422.54 1330.96C1416.36 1326.13 1409.55 1321.19 1402.31 1316.21L1401.81 1315.9C1362.91 1289.18 1308.72 1260.55 1249.67 1235.26C1243.83 1232.67 1238.03 1230.23 1232.28 1227.95C1225.78 1225.3 1219.24 1222.69 1212.83 1220.17L1212.2 1219.97C1200.53 1215.42 1191.58 1212.19 1183.26 1209.16L1182.56 1208.88L1177.11 1207.02L1176.65 1206.82C1158.67 1200.56 1141.29 1195.15 1125.02 1190.44H1124.52C1100.49 1183.35 1075.95 1178.15 1051.11 1174.88H1050.88C1018.4 1171.34 1007.04 1176.75 1005.44 1180.49C1001.78 1189.04 1022.64 1217.29 1094.91 1260.08H1095.15L1095.19 1260.31Z" class="color1d1d1b svgShape"/><path fill="#94a9fa" d="M1435.69 1364.68C1428.57 1381.33 1374.27 1375.03 1301.87 1351.89C1274.64 1343.17 1244.76 1332.05 1213.88 1318.82C1182.99 1305.59 1154.36 1291.59 1129.23 1277.97C1062.55 1241.64 1020.5 1206.67 1027.62 1190.02C1030.65 1182.98 1038.04 1174.07 1051.77 1167.18C1073.83 1156.25 1112.23 1150.57 1175.13 1166.36C1206.11 1174.43 1236.41 1184.94 1265.73 1197.8C1346.3 1232.3 1393.6 1274.55 1417.45 1308.67C1421.08 1313.83 1424.39 1319.21 1427.37 1324.77C1436.78 1342.71 1438.96 1357.06 1435.69 1364.68Z" class="color9745ff svgShape"/><path fill="#1c1c1c" d="M1407.61 1381.76C1376.1 1381.76 1330.89 1369.35 1299.81 1359.43H1299.38C1271.1 1350.41 1241.26 1339.17 1210.69 1326.1C1180.11 1313.03 1151.28 1299.06 1125.37 1284.9L1124.99 1284.7C1080.48 1260.39 1008.09 1215.62 1020.3 1187.02C1022.95 1180.95 1030.03 1169.36 1048.12 1160.3L1048.66 1160.06C1069.36 1149.95 1108.34 1141.66 1177.04 1158.9C1208.41 1167.09 1239.09 1177.73 1268.8 1190.72C1362.75 1230.94 1406.24 1279.14 1423.83 1304.31C1427.63 1309.72 1431.1 1315.36 1434.21 1321.19C1444.29 1340.3 1447.4 1357.29 1442.89 1367.88C1438.38 1378.46 1425.19 1381.76 1407.61 1381.76ZM1303.74 1344.34H1304.17C1390.8 1372.08 1425.81 1367.68 1428.46 1361.5C1430.05 1357.84 1430.09 1346.71 1420.37 1328.24C1417.55 1322.96 1414.41 1317.87 1410.95 1312.99C1394.34 1289.18 1352.95 1243.51 1262.54 1204.8C1233.58 1192.1 1203.66 1181.69 1173.07 1173.68C1108.57 1157.5 1073.29 1164.89 1055.04 1173.91L1054.61 1174.11C1040.72 1181.19 1035.94 1189.67 1034.54 1192.86C1031.86 1199.08 1052.9 1227.4 1132.73 1270.89L1133.16 1271.17C1158.52 1285.02 1186.64 1298.4 1216.75 1311.47C1246.86 1324.54 1276.12 1335.51 1303.82 1344.34H1303.74Z" class="color1d1d1b svgShape"/><path fill="#fff" d="M1591.96 1455.25C1587.37 1464.89 1584.45 1472.13 1584.45 1472.13H1583.56H1582.7H1581.96L1580.17 1472.4L1578.73 1472.67L1577.41 1472.95L1574.3 1473.69L1572.86 1474.11C1571.38 1474.58 1569.86 1475.09 1568.31 1475.71C1567.36 1476.05 1566.44 1476.46 1565.55 1476.92C1564.53 1477.38 1563.48 1477.93 1562.47 1478.47C1561.46 1479.02 1560.92 1479.4 1560.18 1479.91C1556.3 1482.4 1552.99 1485.67 1550.45 1489.52C1550.22 1489.83 1550.02 1490.18 1549.79 1490.53C1549.56 1490.88 1549.21 1491.54 1548.94 1492.09C1548.66 1492.63 1548.23 1493.49 1547.92 1494.23C1547.09 1496.19 1546.47 1498.24 1546.06 1500.33C1546.06 1500.92 1545.82 1501.5 1545.71 1502.12C1545.59 1502.75 1545.71 1503.64 1545.43 1504.42L1516.1 1491.85L1431.34 1455.6L1429.39 1454.74L1454.48 1396.47L1456.43 1397.28L1580.17 1450.27L1591.96 1455.25Z" class="colord6f436 svgShape"/><path fill="#1c1c1c" d="M1545.32 1512.39C1544.3 1512.39 1543.3 1512.2 1542.36 1511.81L1426.24 1462.09C1424.38 1461.24 1422.94 1459.7 1422.21 1457.79C1421.48 1455.89 1421.53 1453.77 1422.35 1451.9L1447.44 1393.32C1448.25 1391.43 1449.78 1389.93 1451.69 1389.17C1453.6 1388.4 1455.74 1388.43 1457.63 1389.23L1459.58 1390.05L1595.15 1448.09C1596.11 1448.51 1596.97 1449.12 1597.69 1449.88C1598.41 1450.64 1598.96 1451.53 1599.33 1452.51C1599.69 1453.49 1599.85 1454.54 1599.8 1455.58C1599.75 1456.63 1599.49 1457.65 1599.04 1458.59C1594.61 1467.89 1591.73 1474.97 1591.73 1475.05C1591.24 1476.46 1590.32 1477.68 1589.11 1478.55C1587.9 1479.42 1586.45 1479.9 1584.96 1479.91H1583.87C1583.48 1479.95 1583.09 1479.95 1582.7 1479.91L1581.57 1480.11L1579.94 1480.42H1579.36L1576.4 1481.12L1575.74 1481.31H1575.23C1573.95 1481.7 1572.63 1482.17 1571.34 1482.71C1570.65 1482.96 1569.98 1483.25 1569.32 1483.57L1566.28 1485.08L1564.73 1486.1C1561.63 1487.98 1558.98 1490.52 1556.95 1493.53L1556.68 1493.92L1555.86 1495.35L1555.04 1497.03C1554.44 1498.5 1553.97 1500.02 1553.64 1501.58C1553.68 1501.76 1553.68 1501.94 1553.64 1502.12C1553.64 1502.12 1553.64 1502.47 1553.64 1502.63V1503.33C1553.64 1503.64 1553.64 1504.22 1553.45 1504.81C1553.32 1506.04 1552.91 1507.23 1552.23 1508.28C1551.55 1509.32 1550.64 1510.18 1549.56 1510.8C1548.32 1511.72 1546.85 1512.28 1545.32 1512.39ZM1439.58 1450.93L1539.87 1493.72C1540.14 1492.94 1540.42 1492.16 1540.77 1491.39C1541.12 1490.61 1541.54 1489.6 1541.97 1488.78C1542.4 1487.96 1542.48 1487.85 1542.71 1487.42L1542.94 1486.99L1543.33 1486.33L1544.03 1485.28C1547.09 1480.64 1551.06 1476.67 1555.7 1473.61C1556.61 1472.98 1557.54 1472.39 1558.5 1471.86L1562.08 1470.03C1562.94 1469.6 1564.15 1469.1 1565.39 1468.63C1566.63 1468.16 1568.66 1467.42 1570.33 1466.88L1571.26 1466.61L1572.24 1466.33L1575.43 1465.59C1575.95 1465.45 1576.48 1465.33 1577.02 1465.24L1578.62 1464.93H1578.85C1579.51 1463.38 1580.37 1461.43 1581.34 1459.25L1458.57 1406.58L1439.58 1450.93Z" class="color1d1d1b svgShape"/><path fill="#fff" d="M1677.89 1552.85C1677.23 1555.47 1676.86 1558.16 1676.77 1560.86L1668.01 1556.97C1674.2 1554.68 1677.89 1552.85 1677.89 1552.85Z" class="colord6f436 svgShape"/><path fill="#1c1c1c" d="M1676.77 1568.65C1675.72 1568.65 1674.69 1568.44 1673.73 1568.02L1664.98 1564.13C1663.56 1563.53 1662.35 1562.51 1661.51 1561.22C1660.67 1559.93 1660.23 1558.41 1660.25 1556.87C1660.27 1555.33 1660.75 1553.83 1661.63 1552.56C1662.5 1551.29 1663.74 1550.31 1665.17 1549.74C1670.89 1547.48 1674.39 1545.85 1674.43 1545.85C1675.78 1545.18 1677.3 1544.92 1678.79 1545.1C1680.29 1545.27 1681.7 1545.88 1682.86 1546.85C1684.02 1547.81 1684.87 1549.09 1685.31 1550.53C1685.76 1551.97 1685.77 1553.5 1685.36 1554.95C1684.89 1557.02 1684.62 1559.13 1684.55 1561.25C1684.48 1562.5 1684.11 1563.72 1683.47 1564.79C1682.84 1565.87 1681.95 1566.78 1680.89 1567.44C1679.65 1568.22 1678.23 1568.64 1676.77 1568.65Z" class="color1d1d1b svgShape"/><path fill="#fff" d="M1920.41 1630.49C1918.48 1635.01 1915.53 1639.02 1911.79 1642.21C1908.05 1645.4 1903.62 1647.67 1898.85 1648.86C1896.31 1649.52 1893.7 1649.84 1891.07 1649.83C1886.77 1649.83 1882.51 1648.96 1878.55 1647.26L1854.97 1637.19C1868 1627.12 1878.63 1614.28 1886.09 1599.61C1888.78 1594.65 1891.2 1589.54 1893.33 1584.32L1903.52 1588.68C1907.78 1590.51 1911.59 1593.24 1914.69 1596.69C1915.53 1597.61 1916.31 1598.58 1917.02 1599.61C1920.18 1604.04 1922.15 1609.2 1922.74 1614.61C1923.33 1620.02 1922.53 1625.49 1920.41 1630.49Z" class="colord6f436 svgShape"/><path fill="#1c1c1c" d="M1891.11 1657.61C1885.76 1657.61 1880.47 1656.52 1875.55 1654.42L1851.98 1644.35C1850.72 1643.81 1849.62 1642.94 1848.8 1641.84C1847.98 1640.74 1847.47 1639.45 1847.31 1638.08C1847.16 1636.72 1847.37 1635.34 1847.92 1634.08C1848.47 1632.82 1849.35 1631.73 1850.46 1630.93C1862.62 1621.58 1872.51 1609.61 1879.4 1595.91C1881.95 1591.19 1884.25 1586.33 1886.29 1581.36C1886.68 1580.41 1887.25 1579.53 1887.98 1578.8C1888.71 1578.06 1889.57 1577.48 1890.53 1577.09C1891.48 1576.68 1892.51 1576.48 1893.54 1576.48C1894.58 1576.48 1895.6 1576.68 1896.56 1577.09L1906.75 1581.44C1912.06 1583.72 1916.8 1587.13 1920.64 1591.44C1921.72 1592.59 1922.71 1593.83 1923.6 1595.14C1927.48 1600.66 1929.88 1607.09 1930.56 1613.8C1931.24 1620.52 1930.19 1627.3 1927.49 1633.49C1925.1 1639.12 1921.43 1644.11 1916.78 1648.07C1912.13 1652.03 1906.62 1654.86 1900.68 1656.33C1897.56 1657.16 1894.34 1657.59 1891.11 1657.61ZM1869.68 1634.97L1881.66 1640.11C1886.48 1642.16 1891.84 1642.59 1896.92 1641.33C1902.01 1640.07 1906.55 1637.18 1909.84 1633.1C1913.14 1629.03 1915.01 1623.99 1915.19 1618.75C1915.36 1613.52 1913.82 1608.37 1910.8 1604.08C1910.27 1603.34 1909.7 1602.62 1909.09 1601.94C1906.71 1599.31 1903.79 1597.22 1900.53 1595.84L1897.49 1594.51C1896.13 1597.43 1894.65 1600.39 1893.06 1603.31C1886.98 1615.02 1879.09 1625.71 1869.68 1634.97Z" class="color1d1d1b svgShape"/><path fill="#1c1c1c" d="M1097.74 1222C1092.84 1221.88 1088.12 1220.15 1084.31 1217.07C1080.5 1214 1077.8 1209.76 1076.64 1205.01C1075.47 1200.25 1075.91 1195.24 1077.88 1190.76C1079.85 1186.27 1083.23 1182.56 1087.52 1180.2C1087.75 1180.05 1088 1179.93 1088.26 1179.84C1112.54 1169.95 1142.24 1169.39 1169.69 1178.3C1177.87 1180.98 1185.79 1184.38 1193.37 1188.46C1197.05 1190.28 1199.85 1193.48 1201.17 1197.36C1202.49 1201.25 1202.22 1205.5 1200.42 1209.18C1198.81 1212.51 1196.06 1215.15 1192.67 1216.62C1189.28 1218.1 1185.47 1218.3 1181.94 1217.2H1181.62C1155.65 1207.61 1129.18 1208.32 1108.96 1219.19C1105.51 1221.04 1101.65 1222 1097.74 1222ZM1093.12 1190.65C1091.88 1191.28 1090.78 1192.16 1089.88 1193.24C1088.99 1194.31 1088.33 1195.55 1087.93 1196.89C1087.53 1198.23 1087.4 1199.63 1087.56 1201.02C1087.72 1202.4 1088.16 1203.74 1088.85 1204.95C1089.54 1206.17 1090.47 1207.23 1091.58 1208.07C1092.69 1208.92 1093.96 1209.53 1095.31 1209.86C1096.67 1210.2 1098.08 1210.27 1099.45 1210.05C1100.83 1209.83 1102.15 1209.33 1103.33 1208.59C1126.46 1196.12 1156.42 1195.15 1185.53 1205.86C1186.35 1206.07 1187.22 1205.99 1187.99 1205.64C1188.76 1205.28 1189.39 1204.67 1189.76 1203.91C1190.13 1203.02 1190.13 1202.02 1189.76 1201.13C1189.61 1200.68 1189.37 1200.26 1189.05 1199.9C1188.74 1199.55 1188.35 1199.26 1187.92 1199.06C1180.91 1195.26 1173.56 1192.1 1165.98 1189.61C1141.35 1181.56 1114.88 1181.94 1093.12 1190.65Z" class="color1d1d1b svgShape"/><path fill="#1c1c1c" d="M1809.89 1659.64C1804.4 1659.62 1798.92 1659.16 1793.51 1658.24C1792.43 1658.09 1791.41 1657.69 1790.51 1657.07C1789.27 1656.29 1764.06 1639.53 1756.94 1615.1C1748.53 1618.65 1739.78 1621.38 1730.84 1623.23C1700.92 1629.06 1687.62 1618.01 1681.74 1607.67C1680.85 1606.11 1680.03 1604.55 1679.26 1603.08C1673 1591.36 1669.47 1578.38 1668.95 1565.11C1647.01 1573.63 1607.71 1585.02 1577.22 1572.54C1575.15 1571.71 1573.14 1570.76 1571.19 1569.7C1559.62 1563.35 1550.54 1553.27 1545.43 1541.1C1539.75 1529.55 1537.08 1516.74 1537.65 1503.88C1537.65 1502.79 1537.65 1501.93 1538 1501.11V1500.45C1538 1499.91 1538.2 1499.36 1538.31 1498.82C1538.83 1496.28 1539.6 1493.81 1540.61 1491.43C1541 1490.49 1541.39 1489.64 1541.82 1488.82C1542.24 1488 1542.32 1487.89 1542.55 1487.46L1542.79 1487.03L1543.18 1486.37L1543.88 1485.32C1546.94 1480.68 1550.91 1476.71 1555.55 1473.65L1558.12 1472.05L1558.47 1471.86C1559.59 1471.24 1560.8 1470.62 1561.93 1470.07L1562.47 1469.84C1563.37 1469.41 1564.3 1469.02 1565.23 1468.67C1566.83 1468.01 1568.5 1467.46 1570.18 1466.92L1571.11 1466.65L1572.08 1466.38L1575.27 1465.64C1575.8 1465.49 1576.33 1465.37 1576.87 1465.29L1578.42 1464.97H1578.69C1580.02 1461.86 1582.04 1457.19 1584.57 1451.94C1597.56 1424.71 1609.7 1407.75 1620.67 1401.64C1621.56 1401.15 1622.55 1400.83 1623.56 1400.72C1624.58 1400.6 1625.61 1400.69 1626.59 1400.97C1627.57 1401.25 1628.49 1401.72 1629.29 1402.36C1630.09 1403 1630.75 1403.78 1631.25 1404.68C1631.75 1405.57 1632.06 1406.55 1632.18 1407.57C1632.29 1408.59 1632.21 1409.61 1631.92 1410.6C1631.64 1411.58 1631.17 1412.5 1630.53 1413.3C1629.9 1414.1 1629.11 1414.76 1628.22 1415.26C1620.44 1419.5 1609.54 1435.68 1598.65 1458.63C1594.22 1467.93 1591.34 1475.01 1591.34 1475.09C1590.86 1476.54 1589.92 1477.8 1588.67 1478.68C1587.41 1479.56 1585.9 1480 1584.37 1479.95H1583.48C1583.12 1479.97 1582.75 1479.97 1582.39 1479.95L1581.26 1480.15L1579.74 1480.42H1579.16L1576.2 1481.12L1575.54 1481.31H1575.04C1573.75 1481.7 1572.43 1482.17 1571.15 1482.71C1570.41 1482.99 1569.86 1483.26 1569.28 1483.53L1568.74 1483.76C1567.96 1484.11 1567.1 1484.58 1566.28 1485.01L1564.38 1486.21C1561.41 1488.1 1558.88 1490.59 1556.95 1493.53C1556.85 1493.65 1556.75 1493.78 1556.68 1493.92L1555.86 1495.36L1555.04 1497.03C1554.44 1498.5 1553.97 1500.02 1553.64 1501.58C1553.68 1501.76 1553.68 1501.95 1553.64 1502.13C1553.64 1502.13 1553.64 1502.48 1553.64 1502.63V1503.33C1553.64 1503.64 1553.64 1504.23 1553.45 1504.81C1553.14 1515.06 1555.37 1525.23 1559.94 1534.41C1563.53 1543.56 1570.19 1551.18 1578.77 1555.97C1580.18 1556.74 1581.64 1557.43 1583.13 1558.03C1610.36 1569.23 1649.69 1556 1665.25 1549.78C1671.01 1547.52 1674.51 1545.89 1674.55 1545.89C1675.91 1545.21 1677.43 1544.95 1678.94 1545.12C1680.44 1545.3 1681.86 1545.92 1683.03 1546.89C1684.19 1547.87 1685.04 1549.16 1685.47 1550.62C1685.91 1552.07 1685.91 1553.62 1685.48 1555.07C1685 1557.11 1684.73 1559.2 1684.66 1561.29C1684.45 1573.44 1687.41 1585.43 1693.26 1596.07C1693.92 1597.43 1694.66 1598.72 1695.4 1599.96C1700.26 1608.52 1711.23 1611.17 1727.96 1607.94C1738.86 1605.56 1749.43 1601.85 1759.43 1596.89C1760.6 1596.29 1761.89 1595.99 1763.2 1596.02C1764.52 1596.05 1765.8 1596.41 1766.93 1597.07C1768.06 1597.73 1769.01 1598.67 1769.69 1599.79C1770.36 1600.92 1770.74 1602.19 1770.79 1603.5C1771.57 1622.95 1792.38 1639.18 1798.02 1643.1C1807.17 1644.7 1816.55 1644.43 1825.6 1642.33C1834.65 1640.22 1843.18 1636.32 1850.69 1630.85C1862.86 1621.52 1872.76 1609.55 1879.64 1595.84C1882.19 1591.11 1884.48 1586.26 1886.52 1581.29C1889.45 1574.26 1891.83 1567.02 1893.64 1559.62C1893.97 1558.1 1894.75 1556.71 1895.88 1555.63C1897.01 1554.56 1898.44 1553.85 1899.98 1553.59C1919.98 1550.32 1930.44 1540.44 1935.69 1532.7C1937.77 1529.8 1939.38 1526.58 1940.44 1523.17C1940.96 1521.18 1942.25 1519.47 1944.03 1518.42C1945.81 1517.38 1947.94 1517.09 1949.93 1517.61C1951.91 1518.12 1953.61 1519.39 1954.65 1521.15C1955.7 1522.9 1956.02 1525 1955.53 1526.98C1954.05 1532.19 1951.68 1537.09 1948.53 1541.49C1938.86 1555.32 1924.15 1564.82 1907.57 1567.95C1905.72 1574.47 1903.5 1580.89 1900.92 1587.16C1898.62 1592.65 1896.02 1598 1893.14 1603.19C1885.15 1618.92 1873.72 1632.65 1859.68 1643.34C1845.3 1654.04 1827.81 1659.76 1809.89 1659.64Z" class="color1d1d1b svgShape"/><path fill="#fff" d="M521.195 2201.73C521.195 2295.6 439.812 2337.46 346.138 2336.64C223.987 2335.55 181.506 2295.6 181.506 2201.73C181.506 2157.89 181.506 2095.53 227.177 2072.15C285.957 2042.08 337.657 2075.34 353.568 2095.49C439.423 2039.36 521.195 2107.98 521.195 2201.73Z" class="colord6f436 svgShape"/><path fill="#1c1c1c" d="M348.666 2344.53H345.865C223.481 2343.44 173.531 2302.13 173.531 2201.84C173.531 2157.65 173.531 2090.86 223.442 2065.34C281.055 2035.85 333.417 2063.7 354.813 2085.57C391.652 2063.62 430.048 2061.48 463.737 2079.61C504.078 2101.4 529.131 2148.27 529.131 2201.84C529.131 2239.77 516.682 2271.36 492.096 2295.75C460.119 2327.26 409.353 2344.53 348.666 2344.53ZM275.142 2068.06C259.592 2068.14 244.288 2071.95 230.522 2079.19C189.092 2100.58 189.092 2158.93 189.092 2201.73C189.092 2293.42 231.611 2327.84 346.021 2328.86C403.673 2329.4 451.678 2313.61 480.97 2284.59C502.522 2263.23 513.414 2235.34 513.414 2201.73C513.414 2154.58 490.968 2111.98 456.19 2093.19C426.158 2076.97 391.186 2080.08 357.653 2102.02C356.026 2103.09 354.057 2103.52 352.134 2103.21C350.21 2102.9 348.473 2101.88 347.266 2100.35C336.723 2087.08 309.376 2068.06 275.142 2068.06Z" class="color1d1d1b svgShape"/><path fill="#1c1c1c" d="M353.373 2103.43H352.712C350.66 2103.25 348.762 2102.26 347.435 2100.69C346.108 2099.11 345.459 2097.08 345.632 2095.02L353.062 2008.97C353.237 2006.91 354.225 2005 355.808 2003.66C357.391 2002.33 359.44 2001.68 361.504 2001.85C363.567 2002.03 365.476 2003.02 366.811 2004.6C368.146 2006.18 368.798 2008.23 368.623 2010.29L361.153 2096.31C360.987 2098.25 360.095 2100.07 358.653 2101.39C357.212 2102.7 355.327 2103.43 353.373 2103.43Z" class="color1d1d1b svgShape"/><path fill="#fff" d="M479.764 1973.49C479.764 1973.49 381.11 2008.27 357.263 2051.96C357.263 2051.96 420.401 2044.64 448.021 2026.59C475.641 2008.54 479.764 1973.49 479.764 1973.49Z" class="colord6f436 svgShape"/><path fill="#1c1c1c" d="M357.263 2059.74C355.892 2059.75 354.541 2059.4 353.349 2058.73C352.156 2058.05 351.164 2057.07 350.473 2055.88C349.782 2054.7 349.416 2053.35 349.413 2051.98C349.41 2050.61 349.77 2049.26 350.456 2048.07C375.547 2002.28 473.151 1967.47 477.314 1965.99C478.563 1965.55 479.904 1965.43 481.209 1965.66C482.515 1965.88 483.742 1966.43 484.774 1967.26C485.807 1968.09 486.61 1969.17 487.109 1970.4C487.607 1971.63 487.784 1972.96 487.623 1974.27C487.428 1975.83 482.604 2013.18 452.3 2032.94C423.474 2051.81 360.803 2059.24 358.158 2059.55L357.263 2059.74ZM468.678 1986.18C445.531 1995.55 399.121 2016.44 374.964 2041.46C395.192 2037.96 426.975 2031.07 443.78 2020.1C455.508 2011.79 464.207 1999.88 468.561 1986.18H468.678Z" class="color1d1d1b svgShape"/><path fill="#fff" d="M743.439 2136.96C755.618 2133.97 768.3 2133.67 780.606 2136.08C792.913 2138.48 804.549 2143.53 814.707 2150.89C824.782 2158.16 834.158 2164.73 847.073 2163.53C858.043 2162.52 867.924 2157.62 877.805 2153.1C886.675 2149.21 896.673 2144.35 906.709 2145.91C912.676 2147.33 918.45 2149.48 923.904 2152.29C929.657 2154.8 935.618 2156.8 941.721 2158.28C966.19 2163.96 991.398 2161.23 1016.06 2158.74C1043.29 2155.94 1071.73 2153.06 1097.99 2163.37C1099.85 2163.88 1101.83 2163.62 1103.51 2162.67C1105.19 2161.71 1106.42 2160.13 1106.94 2158.28C1107.42 2156.41 1107.16 2154.43 1106.2 2152.75C1105.25 2151.08 1103.69 2149.84 1101.84 2149.29C1053.45 2130.31 1002.52 2153.49 953.041 2145.63C947.032 2144.71 941.12 2143.24 935.38 2141.24C928.611 2138.87 922.309 2135.29 915.462 2133.11C904.426 2130.02 892.659 2130.84 882.162 2135.44C872.203 2139.33 862.711 2144.9 852.48 2147.77C848.219 2149.12 843.693 2149.42 839.293 2148.63C833.394 2146.65 827.975 2143.45 823.382 2139.25C811.459 2130.55 797.77 2124.58 783.283 2121.76C768.797 2118.94 753.866 2119.33 739.549 2122.92C730.446 2125.17 734.297 2139.25 743.439 2136.96Z" class="colord6f436 svgShape"/><path fill="#fff" d="M800.741 2082.15C835.753 2082.61 870.764 2082.73 905.776 2083.51C907.071 2083.32 908.391 2083.41 909.646 2083.78C910.902 2084.15 912.063 2084.79 913.05 2085.65C915.25 2088.24 917.759 2090.55 920.519 2092.53C926.177 2095.77 932.713 2097.13 939.192 2096.42C952.846 2095.37 965.917 2090.2 979.494 2088.37C994.471 2086.39 1009.8 2087.2 1022.29 2096.15C1023.11 2096.63 1024.02 2096.95 1024.97 2097.08C1025.92 2097.21 1026.88 2097.15 1027.8 2096.91C1028.73 2096.67 1029.6 2096.25 1030.36 2095.67C1031.12 2095.09 1031.76 2094.37 1032.24 2093.54C1032.73 2092.72 1033.04 2091.81 1033.17 2090.86C1033.3 2089.91 1033.25 2088.95 1033 2088.03C1032.76 2087.1 1032.34 2086.23 1031.76 2085.47C1031.19 2084.71 1030.46 2084.07 1029.64 2083.59C1005.48 2066.04 974.281 2073.7 947.711 2080.08C942.187 2081.45 935.38 2083.04 929.856 2080.9C927.225 2079.57 924.955 2077.62 923.242 2075.22C920.775 2072.55 917.608 2070.62 914.1 2069.66C906.32 2067.64 897.178 2068.69 889.126 2068.57L861.895 2068.22L800.664 2067.44C791.249 2067.44 791.249 2081.91 800.664 2082.03L800.741 2082.15Z" class="colord6f436 svgShape"/><path fill="#fff" d="M838.67 2007.42L938.569 2017.42C940.499 2017.41 942.348 2016.64 943.716 2015.28C945.084 2013.92 945.862 2012.07 945.883 2010.14C945.843 2008.22 945.06 2006.38 943.697 2005.01C942.334 2003.65 940.497 2002.87 938.569 2002.83L838.67 1992.83C836.744 1992.84 834.9 1993.61 833.538 1994.97C832.176 1996.34 831.406 1998.18 831.396 2000.11C831.435 2002.03 832.213 2003.86 833.568 2005.22C834.922 2006.58 836.75 2007.37 838.67 2007.42Z" class="colord6f436 svgShape"/><path fill="#1c1c1c" d="M526.68 2420.36C558.396 2429.66 591.168 2434.89 624.206 2435.92C633.62 2436.19 633.62 2421.6 624.206 2421.33C592.472 2420.36 560.993 2415.34 530.531 2406.39C521.506 2403.71 517.654 2417.79 526.641 2420.43L526.68 2420.36Z" class="color1d1d1b svgShape"/><path fill="#1c1c1c" d="M564.764 2343.8L790.043 2366.28C791.973 2366.27 793.821 2365.5 795.19 2364.14C796.558 2362.78 797.336 2360.94 797.357 2359.01C797.317 2357.08 796.534 2355.24 795.171 2353.88C793.808 2352.52 791.97 2351.73 790.043 2351.69L564.764 2329.21C562.838 2329.22 560.994 2329.99 559.632 2331.35C558.269 2332.71 557.5 2334.56 557.49 2336.48C557.529 2338.4 558.307 2340.23 559.662 2341.6C561.016 2342.96 562.844 2343.75 564.764 2343.8Z" class="color1d1d1b svgShape"/><path fill="#1c1c1c" d="M605.105 2278.21C625.793 2277.48 646.505 2278.58 666.998 2281.51C668.86 2281.91 670.803 2281.61 672.459 2280.67C674.115 2279.73 675.369 2278.22 675.984 2276.42C676.476 2274.55 676.219 2272.57 675.266 2270.89C674.314 2269.21 672.743 2267.97 670.888 2267.43C649.118 2264.19 627.105 2262.89 605.105 2263.54C595.769 2263.85 595.73 2278.48 605.105 2278.13V2278.21Z" class="color1d1d1b svgShape"/><path fill="#1c1c1c" d="M1380.37 2465.33C1396.6 2455.6 1412.86 2446.62 1432.11 2445.14C1451.37 2443.66 1471.29 2447.01 1490.74 2448.8C1531.74 2452.69 1572.94 2452.37 1614.06 2452.18C1623.43 2452.18 1623.47 2437.55 1614.06 2437.59C1580.95 2437.59 1547.92 2437.9 1514.74 2436C1498.67 2435.06 1482.69 2433.35 1466.7 2431.68C1451.3 2429.66 1435.69 2429.77 1420.33 2432.03C1403.13 2435.1 1387.84 2443.7 1373.02 2452.72C1364.97 2457.55 1372.32 2470.15 1380.37 2465.33Z" class="color1d1d1b svgShape"/><path fill="#1c1c1c" d="M1367.81 2406.12C1380.42 2408.16 1393.24 2408.66 1405.97 2407.59C1407.9 2407.55 1409.74 2406.77 1411.1 2405.41C1412.46 2404.04 1413.25 2402.21 1413.29 2400.28C1413.25 2398.35 1412.47 2396.52 1411.11 2395.16C1409.74 2393.8 1407.9 2393.03 1405.97 2393.01C1400.06 2393.52 1394.12 2393.69 1388.19 2393.51C1385.28 2393.51 1382.36 2393.24 1379.48 2393.01C1378.08 2393.01 1376.68 2392.73 1375.32 2392.54C1374.97 2392.54 1373.18 2392.27 1374.46 2392.54L1371.7 2392.11C1369.83 2391.66 1367.87 2391.93 1366.2 2392.88C1364.53 2393.83 1363.28 2395.37 1362.71 2397.21C1362.23 2399.07 1362.49 2401.05 1363.44 2402.73C1364.39 2404.41 1365.96 2405.65 1367.81 2406.19V2406.12Z" class="color1d1d1b svgShape"/><path fill="#1c1c1c" d="M1389.63 2335.86C1405.19 2326.29 1424.37 2315.13 1443.51 2317.23C1453.04 2318.28 1459.07 2324.54 1467.48 2328.08C1477.39 2332.28 1487.78 2329.05 1497.7 2326.64C1541.73 2315.86 1586.89 2310.35 1632.22 2310.22C1658.12 2310.21 1683.98 2312.11 1709.6 2315.9C1711.46 2316.3 1713.4 2316 1715.06 2315.06C1716.72 2314.12 1717.97 2312.61 1718.58 2310.81C1719.08 2308.94 1718.82 2306.96 1717.87 2305.28C1716.91 2303.6 1715.34 2302.36 1713.49 2301.82C1666.76 2294.82 1619.33 2293.84 1572.35 2298.9C1549.34 2301.39 1526.48 2305.17 1503.89 2310.22C1498.44 2311.47 1493.07 2312.79 1487.67 2314.11C1482.83 2315.9 1477.53 2316.04 1472.61 2314.5C1468.49 2312.6 1465.06 2309.45 1460.94 2307.42C1456.16 2305.08 1451.02 2303.56 1445.73 2302.91C1423.05 2300.07 1400.95 2311.9 1382.24 2323.26C1374.23 2328.12 1381.54 2340.72 1389.59 2335.86H1389.63Z" class="color1d1d1b svgShape"/><path fill="#1c1c1c" d="M1978.68 2418.72C2005.06 2392.05 2034.57 2368.67 2066.56 2349.08C2074.81 2344.03 2083.21 2339.24 2091.77 2334.73C2093.95 2333.6 2099.55 2329.44 2102.31 2330.41C2103.36 2330.76 2104.18 2332.86 2104.76 2333.68C2106.03 2335.64 2107.63 2337.35 2109.51 2338.74C2117.29 2344.22 2127.13 2341.26 2135.69 2339.36L2166.81 2332.24L2237.65 2316.17C2246.79 2314.07 2242.9 2300.03 2233.76 2302.09L2169.53 2316.68L2137.44 2323.99C2132.73 2325.04 2127.95 2326.48 2123.2 2327.14C2118.45 2327.8 2117.71 2326.56 2115.03 2322.83C2108.77 2314.19 2099.04 2315.05 2090.29 2318.94C2081.54 2322.83 2073.25 2327.96 2065 2332.82C2048.62 2342.63 2032.83 2353.41 2017.74 2365.11C2000.33 2378.47 1983.83 2392.99 1968.37 2408.56C1961.76 2415.26 1972.26 2425.56 1978.68 2418.87V2418.72Z" class="color1d1d1b svgShape"/><path fill="#1c1c1c" d="M1928.07 2362.31C1955.46 2348.28 1982.27 2333.25 2008.52 2317.23C2016.53 2312.33 2009.22 2299.72 2001.17 2304.62C1974.92 2320.6 1948.1 2335.58 1920.72 2349.55C1912.35 2353.83 1919.74 2366.44 1928.07 2362.16V2362.31Z" class="color1d1d1b svgShape"/><path fill="#1c1c1c" d="M1408.11 1719.97C1406.2 1719.98 1404.35 1719.29 1402.92 1718.03C1401.48 1716.77 1400.56 1715.02 1400.33 1713.12L1385.43 1592.06C1385.31 1591.04 1385.38 1590 1385.66 1589.01C1385.93 1588.02 1386.4 1587.09 1387.04 1586.28C1387.67 1585.47 1388.46 1584.79 1389.35 1584.28C1390.25 1583.78 1391.24 1583.45 1392.26 1583.33C1393.28 1583.2 1394.32 1583.28 1395.31 1583.56C1396.3 1583.83 1397.23 1584.3 1398.04 1584.93C1398.85 1585.57 1399.53 1586.35 1400.04 1587.25C1400.54 1588.15 1400.87 1589.13 1400.99 1590.15L1415.89 1711.26C1416.02 1712.27 1415.94 1713.3 1415.67 1714.28C1415.4 1715.27 1414.93 1716.19 1414.3 1716.99C1413.68 1717.8 1412.89 1718.47 1412.01 1718.98C1411.12 1719.48 1410.14 1719.81 1409.12 1719.93L1408.11 1719.97Z" class="color1d1d1b svgShape"/><path fill="#1c1c1c" d="M1786.23 2017.37C1784.56 2017.37 1782.94 2016.82 1781.6 2015.82C1780.26 2014.82 1779.28 2013.41 1778.8 2011.81C1750.06 1914.95 1758.96 1774.94 1759.35 1769.03C1759.42 1768.01 1759.69 1767.01 1760.15 1766.09C1760.6 1765.17 1761.23 1764.35 1762 1763.68C1762.77 1763.01 1763.67 1762.49 1764.64 1762.16C1765.61 1761.84 1766.64 1761.7 1767.66 1761.77C1768.68 1761.84 1769.68 1762.11 1770.6 1762.56C1771.51 1763.02 1772.33 1763.65 1773.01 1764.42C1773.68 1765.19 1774.2 1766.09 1774.52 1767.06C1774.85 1768.03 1774.98 1769.06 1774.91 1770.08C1774.91 1771.48 1765.81 1913.2 1793.74 2007.38C1794.04 2008.36 1794.13 2009.39 1794.03 2010.4C1793.92 2011.42 1793.61 2012.41 1793.13 2013.31C1792.64 2014.21 1791.98 2015 1791.18 2015.65C1790.39 2016.29 1789.47 2016.77 1788.49 2017.06C1787.76 2017.27 1787 2017.37 1786.23 2017.37Z" class="color1d1d1b svgShape"/><path fill="#1c1c1c" d="M2503.74 1544.99H2021.36C2019.29 1544.99 2017.31 1544.17 2015.85 1542.71C2014.39 1541.26 2013.58 1539.28 2013.58 1537.21C2013.58 1535.15 2014.39 1533.17 2015.85 1531.71C2017.31 1530.25 2019.29 1529.43 2021.36 1529.43H2495.95V928.948H1658.4C1657.31 930.021 1655.92 930.747 1654.42 931.034C1652.91 931.322 1651.35 931.158 1649.94 930.564C1648.53 929.97 1647.32 928.971 1646.48 927.694C1645.63 926.417 1645.18 924.918 1645.18 923.385V921.168C1645.18 919.105 1646 917.126 1647.46 915.666C1648.92 914.207 1650.89 913.388 1652.96 913.388H2503.74C2505.8 913.388 2507.78 914.207 2509.24 915.666C2510.7 917.126 2511.52 919.105 2511.52 921.168V1537.21C2511.52 1539.28 2510.7 1541.26 2509.24 1542.71C2507.78 1544.17 2505.8 1544.99 2503.74 1544.99Z" class="color1d1d1b svgShape"/><path fill="#1c1c1c" d="M1652.96 1335.66C1650.89 1335.66 1648.92 1334.84 1647.46 1333.38C1646 1331.92 1645.18 1329.95 1645.18 1327.88V1066.5C1645.18 1064.44 1646 1062.46 1647.46 1061C1648.92 1059.54 1650.89 1058.72 1652.96 1058.72C1655.02 1058.72 1657 1059.54 1658.46 1061C1659.92 1062.46 1660.74 1064.44 1660.74 1066.5V1327.88C1660.74 1329.95 1659.92 1331.92 1658.46 1333.38C1657 1334.84 1655.02 1335.66 1652.96 1335.66Z" class="color1d1d1b svgShape"/><path fill="#1c1c1c" d="M2257.84 1762.45C2255.77 1762.45 2253.8 1761.63 2252.34 1760.18C2250.88 1758.72 2250.06 1756.74 2250.06 1754.67V1602.22C2250.06 1600.16 2250.88 1598.18 2252.34 1596.72C2253.8 1595.26 2255.77 1594.44 2257.84 1594.44C2259.9 1594.44 2261.88 1595.26 2263.34 1596.72C2264.8 1598.18 2265.62 1600.16 2265.62 1602.22V1754.67C2265.62 1756.74 2264.8 1758.72 2263.34 1760.18C2261.88 1761.63 2259.9 1762.45 2257.84 1762.45Z" class="color1d1d1b svgShape"/><path fill="#1c1c1c" d="M2574.38 1827.26H2212.87C2211.44 1827.26 2210.04 1826.87 2208.82 1826.13C2207.59 1825.39 2206.6 1824.33 2205.94 1823.06C2195.44 1802.71 2183.34 1781.16 2169.96 1758.95C2169.28 1757.77 2168.92 1756.44 2168.92 1755.08C2168.91 1753.72 2169.26 1752.39 2169.94 1751.21C2170.61 1750.03 2171.58 1749.04 2172.75 1748.35C2173.92 1747.66 2175.25 1747.29 2176.61 1747.28H2509.8C2528.97 1747.3 2547.35 1754.93 2560.9 1768.49C2574.45 1782.04 2582.07 1800.43 2582.08 1819.6C2582.05 1821.63 2581.23 1823.56 2579.79 1825C2578.35 1826.43 2576.41 1827.24 2574.38 1827.26ZM2217.69 1811.7H2566.05C2564.17 1798.14 2557.45 1785.71 2547.12 1776.71C2536.8 1767.71 2523.58 1762.74 2509.88 1762.72H2190.38C2200.3 1779.53 2209.44 1795.95 2217.69 1811.7Z" class="color1d1d1b svgShape"/><path fill="#1c1c1c" d="M2185.64 1579.77H2077.3C2075.23 1579.77 2073.25 1578.95 2071.79 1577.49C2070.34 1576.03 2069.52 1574.05 2069.52 1571.99C2069.52 1569.92 2070.34 1567.94 2071.79 1566.48C2073.25 1565.03 2075.23 1564.21 2077.3 1564.21H2185.64C2187.7 1564.21 2189.68 1565.03 2191.14 1566.48C2192.6 1567.94 2193.42 1569.92 2193.42 1571.99C2193.42 1574.05 2192.6 1576.03 2191.14 1577.49C2189.68 1578.95 2187.7 1579.77 2185.64 1579.77Z" class="color1d1d1b svgShape"/><path fill="#fff" d="M2725.2 1678.1V1716.34C2725.2 1720.85 2723.41 1725.17 2720.22 1728.36C2717.03 1731.55 2712.71 1733.34 2708.2 1733.34C2703.69 1733.34 2699.37 1731.55 2696.18 1728.36C2692.99 1725.17 2691.2 1720.85 2691.2 1716.34V1678.1C2691.2 1673.59 2692.99 1669.27 2696.18 1666.08C2699.37 1662.89 2703.69 1661.1 2708.2 1661.1C2712.71 1661.1 2717.03 1662.89 2720.22 1666.08C2723.41 1669.27 2725.2 1673.59 2725.2 1678.1Z" class="colord6f436 svgShape"/><path fill="#1c1c1c" d="M2708.2 1741.12C2701.63 1741.11 2695.33 1738.5 2690.69 1733.85C2686.05 1729.21 2683.43 1722.91 2683.42 1716.34V1678.1C2683.43 1671.53 2686.05 1665.23 2690.69 1660.59C2695.33 1655.94 2701.63 1653.33 2708.2 1653.32C2714.77 1653.33 2721.07 1655.94 2725.71 1660.59C2730.36 1665.23 2732.97 1671.53 2732.98 1678.1V1716.34C2732.97 1722.91 2730.36 1729.21 2725.71 1733.85C2721.07 1738.5 2714.77 1741.11 2708.2 1741.12ZM2708.2 1668.88C2705.78 1668.92 2703.48 1669.91 2701.78 1671.64C2700.09 1673.36 2699.14 1675.68 2699.14 1678.1V1716.34C2699.14 1718.79 2700.11 1721.13 2701.84 1722.86C2703.57 1724.59 2705.91 1725.56 2708.36 1725.56C2710.8 1725.56 2713.15 1724.59 2714.88 1722.86C2716.6 1721.13 2717.58 1718.79 2717.58 1716.34V1678.1C2717.58 1676.89 2717.35 1675.69 2716.88 1674.57C2716.42 1673.45 2715.74 1672.43 2714.89 1671.57C2714.03 1670.71 2713.01 1670.03 2711.89 1669.57C2710.77 1669.11 2709.57 1668.88 2708.36 1668.88H2708.2Z" class="color1d1d1b svgShape"/><path fill="#fff" d="M2818.68 1793.87V1816.16H2599.86V1793.87C2599.86 1767.97 2609.06 1742.91 2625.82 1723.15C2642.57 1703.39 2665.8 1690.23 2691.36 1686V1716.34C2691.36 1720.85 2693.15 1725.18 2696.34 1728.36C2699.52 1731.55 2703.85 1733.34 2708.36 1733.34C2712.87 1733.34 2717.19 1731.55 2720.38 1728.36C2723.57 1725.18 2725.36 1720.85 2725.36 1716.34V1685.65C2751.31 1689.5 2775.01 1702.55 2792.15 1722.41C2809.29 1742.28 2818.72 1767.64 2818.72 1793.87H2818.68Z" class="colord6f436 svgShape"/><path fill="#1c1c1c" d="M2818.68 1823.94H2599.86C2597.8 1823.94 2595.82 1823.12 2594.36 1821.67C2592.9 1820.21 2592.08 1818.23 2592.08 1816.16V1793.87C2591.99 1766.13 2601.79 1739.26 2619.72 1718.09C2637.65 1696.91 2662.54 1682.82 2689.92 1678.34C2691.04 1678.15 2692.19 1678.21 2693.29 1678.51C2694.39 1678.82 2695.4 1679.36 2696.27 1680.11C2697.13 1680.85 2697.83 1681.77 2698.29 1682.81C2698.76 1683.85 2699 1684.98 2698.98 1686.12V1716.46C2698.98 1718.9 2699.95 1721.25 2701.68 1722.98C2703.41 1724.71 2705.76 1725.68 2708.2 1725.68C2710.65 1725.68 2712.99 1724.71 2714.72 1722.98C2716.45 1721.25 2717.42 1718.9 2717.42 1716.46V1685.77C2717.42 1684.65 2717.66 1683.55 2718.12 1682.54C2718.59 1681.52 2719.26 1680.62 2720.11 1679.89C2720.95 1679.16 2721.94 1678.61 2723.02 1678.3C2724.09 1677.98 2725.22 1677.9 2726.33 1678.06C2754.15 1682.16 2779.57 1696.12 2797.95 1717.41C2816.34 1738.69 2826.45 1765.87 2826.46 1793.99V1816.28C2826.43 1818.32 2825.6 1820.27 2824.14 1821.71C2822.69 1823.14 2820.73 1823.94 2818.68 1823.94ZM2607.64 1808.38H2810.9V1793.87C2810.89 1771.06 2803.22 1748.92 2789.11 1731C2775 1713.08 2755.27 1700.42 2733.1 1695.06V1716.34C2733.1 1722.91 2730.49 1729.22 2725.84 1733.86C2721.19 1738.51 2714.89 1741.12 2708.32 1741.12C2701.75 1741.12 2695.44 1738.51 2690.8 1733.86C2686.15 1729.22 2683.54 1722.91 2683.54 1716.34V1695.61C2661.79 1701.24 2642.53 1713.96 2628.81 1731.75C2615.09 1749.55 2607.68 1771.4 2607.76 1793.87L2607.64 1808.38Z" class="color1d1d1b svgShape"/><path fill="#1c1c1c" d="M2064.54 849.006C2054.59 849.013 2044.86 846.07 2036.58 840.548C2028.3 835.025 2021.85 827.172 2018.04 817.982C2014.22 808.791 2013.22 798.677 2015.16 788.917C2017.1 779.157 2021.88 770.191 2028.92 763.153C2035.95 756.114 2044.91 751.32 2054.67 749.376C2064.43 747.432 2074.54 748.425 2083.74 752.231C2092.93 756.037 2100.79 762.484 2106.32 770.757C2111.85 779.029 2114.8 788.756 2114.8 798.706C2114.79 812.036 2109.49 824.818 2100.07 834.248C2090.64 843.678 2077.87 848.985 2064.54 849.006ZM2064.54 764.006C2057.66 763.998 2050.94 766.03 2045.22 769.844C2039.5 773.658 2035.04 779.083 2032.41 785.433C2029.78 791.782 2029.08 798.77 2030.42 805.513C2031.76 812.255 2035.07 818.448 2039.93 823.309C2044.79 828.17 2050.99 831.479 2057.73 832.818C2064.47 834.157 2071.46 833.466 2077.81 830.832C2084.16 828.198 2089.58 823.739 2093.4 818.021C2097.21 812.302 2099.24 805.58 2099.24 798.706C2099.23 789.506 2095.57 780.686 2089.06 774.181C2082.56 767.675 2073.74 764.016 2064.54 764.006Z" class="color1d1d1b svgShape"/><path fill="#1c1c1c" d="M2064.54 849.006C2054.59 849.013 2044.86 846.07 2036.58 840.548C2028.3 835.025 2021.85 827.172 2018.04 817.982C2014.22 808.791 2013.22 798.677 2015.16 788.917C2017.1 779.157 2021.88 770.191 2028.92 763.153C2035.95 756.114 2044.91 751.32 2054.67 749.376C2064.43 747.432 2074.54 748.425 2083.74 752.231C2092.93 756.037 2100.79 762.484 2106.32 770.757C2111.85 779.029 2114.8 788.756 2114.8 798.706C2114.79 812.036 2109.49 824.818 2100.07 834.248C2090.64 843.678 2077.87 848.985 2064.54 849.006ZM2064.54 764.006C2057.66 763.998 2050.94 766.03 2045.22 769.844C2039.5 773.658 2035.04 779.083 2032.41 785.433C2029.78 791.782 2029.08 798.77 2030.42 805.513C2031.76 812.255 2035.07 818.448 2039.93 823.309C2044.79 828.17 2050.99 831.479 2057.73 832.818C2064.47 834.157 2071.46 833.466 2077.81 830.832C2084.16 828.198 2089.58 823.739 2093.4 818.021C2097.21 812.302 2099.24 805.58 2099.24 798.706C2099.23 789.506 2095.57 780.686 2089.06 774.181C2082.56 767.675 2073.74 764.016 2064.54 764.006Z" class="color1d1d1b svgShape"/><path fill="#1c1c1c" d="M2884.54 1827.4H2238.78C2236.71 1827.4 2234.73 1826.58 2233.27 1825.12C2231.82 1823.66 2231 1821.68 2231 1819.62C2231 1817.56 2231.82 1815.58 2233.27 1814.12C2234.73 1812.66 2236.71 1811.84 2238.78 1811.84H2884.54C2886.61 1811.84 2888.58 1812.66 2890.04 1814.12C2891.5 1815.58 2892.32 1817.56 2892.32 1819.62C2892.32 1821.68 2891.5 1823.66 2890.04 1825.12C2888.58 1826.58 2886.61 1827.4 2884.54 1827.4Z" class="color1d1d1b svgShape"/><path fill="#1c1c1c" d="M2884.54 1874.33H2238.97C2236.91 1874.33 2234.93 1873.51 2233.47 1872.05C2232.01 1870.59 2231.19 1868.61 2231.19 1866.55C2231.19 1864.49 2232.01 1862.51 2233.47 1861.05C2234.93 1859.59 2236.91 1858.77 2238.97 1858.77H2884.54C2886.61 1858.77 2888.58 1859.59 2890.04 1861.05C2891.5 1862.51 2892.32 1864.49 2892.32 1866.55C2892.32 1868.61 2891.5 1870.59 2890.04 1872.05C2888.58 1873.51 2886.61 1874.33 2884.54 1874.33Z" class="color1d1d1b svgShape"/><path fill="#ffb391" d="M1733.09 1498.74C1729.83 1507.92 1712.94 1516.44 1698.43 1509.17C1683.92 1501.89 1674.82 1488.51 1678.09 1479.33C1681.36 1470.15 1695.44 1461.86 1709.95 1469.18C1724.46 1476.49 1736.32 1489.56 1733.09 1498.74Z" class="colorf9afd1 svgShape"/><path fill="#ffb391" d="M1822.3 1562.46C1819.07 1571.64 1802.18 1580.16 1787.67 1572.88C1773.16 1565.61 1764.06 1552.23 1767.29 1543.04C1770.52 1533.86 1784.68 1525.62 1799.19 1532.89C1813.7 1540.17 1825.56 1553.28 1822.3 1562.46Z" class="colorf9afd1 svgShape"/><path fill="#1c1c1c" d="M1782.81 1778.87L1848.63 1793.57L1819.96 1748.49L1782.81 1778.87Z" class="color1d1d1b svgShape"/><path fill="#1c1c1c" d="M1848.63 1801.35C1848.06 1801.37 1847.48 1801.3 1846.92 1801.16L1781.06 1786.49C1779.64 1786.17 1778.33 1785.46 1777.29 1784.44C1776.25 1783.41 1775.52 1782.11 1775.19 1780.69C1774.85 1779.27 1774.92 1777.79 1775.39 1776.41C1775.86 1775.02 1776.7 1773.8 1777.83 1772.88L1814.98 1742.46C1815.84 1741.73 1816.84 1741.19 1817.92 1740.89C1819 1740.58 1820.13 1740.51 1821.24 1740.69C1822.35 1740.86 1823.4 1741.27 1824.34 1741.89C1825.27 1742.51 1826.06 1743.33 1826.65 1744.28L1855.32 1789.41C1856.07 1790.59 1856.48 1791.94 1856.53 1793.33C1856.57 1794.73 1856.24 1796.1 1855.57 1797.32C1854.89 1798.54 1853.91 1799.56 1852.71 1800.27C1851.51 1800.98 1850.14 1801.35 1848.75 1801.35H1848.63ZM1800.08 1774.78L1831.98 1781.9L1818.1 1760.04L1800.08 1774.78Z" class="color1d1d1b svgShape"/><path fill="#1c1c1c" d="M2070.41 1599.61C2070.41 1599.61 2085.97 1638.51 2090.33 1631.9C2102.97 1612.45 2113.67 1588.83 2110.6 1591.32C2101.8 1598.75 2070.41 1599.61 2070.41 1599.61Z" class="color1d1d1b svgShape"/><path fill="#1c1c1c" d="M2089.16 1640.42H2088.38C2084.49 1640.03 2078.23 1639.4 2063.37 1602.56C2062.9 1601.4 2062.72 1600.15 2062.84 1598.9C2062.96 1597.65 2063.38 1596.46 2064.07 1595.41C2064.75 1594.36 2065.68 1593.49 2066.77 1592.87C2067.86 1592.25 2069.08 1591.91 2070.33 1591.87C2084.22 1591.48 2101.73 1588.79 2105.73 1585.41C2107.2 1584.12 2109.08 1583.41 2111.02 1583.41C2112.97 1583.41 2114.85 1584.12 2116.31 1585.41C2121.49 1589.92 2118.92 1595.8 2112.62 1608.75C2107.96 1618.23 2102.77 1627.44 2097.06 1636.33C2096.2 1637.63 2095.03 1638.69 2093.64 1639.41C2092.26 1640.12 2090.72 1640.47 2089.16 1640.42ZM2081.92 1606.73C2084.18 1611.71 2086.52 1616.49 2088.54 1620.03C2091.77 1614.62 2094.68 1609.26 2097.06 1604.47C2092.06 1605.49 2087.01 1606.24 2081.92 1606.73Z" class="color1d1d1b svgShape"/></svg>