<svg xmlns="http://www.w3.org/2000/svg" width="357" height="429" fill="none">
  <mask id="b" width="357" height="309" x="0" y="120" maskUnits="userSpaceOnUse" style="mask-type:alpha">
    <path fill="url(#a)" d="M41.98 120.75a6.2 6.2 0 0 0-4.06 3.07c-2.15 3.47-13.64 24.4 2.1 52.71.18 2.81 0 11.46-7.1 21.8-4.2 4.57-59.78 65.9-16.55 71.38 10.97 6.52 9.3 10.6 7.72 14.5-3.12 7.68-6.13 15.07 6.42 23.78-2.26 6.18-3.8 16.2 5.31 23.89.74 1.3 2.96 6.77-.7 21.32a5.58 5.58 0 0 0-.12.6c-.8 4.09-5.44 34.78 35.4 24.4a6.47 6.47 0 0 0 1.53-.62c4.13-1.98 46.45-21.3 45.33 16.16v.18h-.02v28.82a6.16 6.16 0 0 0 6.16 6.16h181.62c1.34 0 1.82.03 2.2.05 3.31.14 4.94.2 7.08-2.6 2.12-2.78 1.64-4.31.7-7.33a33 33 0 0 1-.64-2.22l-.06-.23a306.1 306.1 0 0 1-8.72-61.96c-.92-28.02 2.46-60.19 17.33-86.36 5-5.68 46.91-56.34 29.4-142.69a6.13 6.13 0 0 0-4.67-4.79 152.53 152.53 0 0 1-44.68 114.15 152.52 152.52 0 0 1-108.15 44.8 152.56 152.56 0 0 1-108.15-44.8 152.52 152.52 0 0 1-44.68-114.17z"/>
  </mask>
  <g mask="url(#b)">
    <circle cx="71.37" cy="218.5" r="106.92" fill="#59017C"/>
    <circle cx="70.84" cy="120.34" r="106.92" fill="#A0016A"/>
    <circle cx="107.35" cy="381.96" r="106.92" fill="#012A75"/>
    <circle cx="162.38" cy="281.56" r="80.25" fill="#004D8D"/>
    <circle cx="268.67" cy="404.03" r="106.92" fill="#00B746"/>
    <circle cx="324.66" cy="451.31" r="106.92" fill="#006736"/>
    <circle cx="257.96" cy="199.48" r="149.58" fill="#C9E501"/>
    <circle cx="357.37" cy="154.29" r="149.58" fill="#FCE701"/>
  </g>
  <path fill="#E9A060" d="m140.98 157.3-1.12-3.3c.96-.05.87-.55.61-1.25-.76-2.03-1.34-4.15-2.06-6.18-2.85-7.96-3.4-16.16-2.56-24.44a60.8 60.8 0 0 1 10.33-28.48c2.55-3.76 5.85-5.39 10.28-4.27l-.07 1.3c-3.27-.5-6.06.07-8.12 3.02-6.9 9.9-10.69 20.85-11.03 32.91-.35 12.27 2.98 23.52 9.5 33.9 2.45 3.88 5.42 6.22 10.24 5.06.18.71-1.4.45-.79 1.15.5.57 1.43 1.42 2.15.03-1.02 4.99 1.24 8.12 5.42 10.63 5.26 3.17 10.67 5.89 16.65 7.39 17.95 4.49 34.58 1.6 49.76-9.05 4.12-2.89 4.39-7.28.83-10.87-6.6-6.65-13.2-13.3-19.78-19.97-1.1-1.12-1.96-1.32-3.4-.36-8.08 5.41-16.22 5.46-24.23-.18-1.2-.86-1.86-.71-2.85.3a919.92 919.92 0 0 1-13.7 13.67c-2.58 2.52-4.85 5.36-7.86 7.43-.52-.04-1-.17-1.24-.7.3-.42.56-.9.93-1.26 6.75-6.74 13.48-13.5 20.32-20.16 1.24-1.2 1.27-1.88.33-3.28-5.34-7.95-5.47-16-.04-24.01.68-1.01 1.22-1.86.05-2.99-2.73-2.63-5.35-5.37-8.02-8.07-4.46-4.52-9.3-8.7-13.24-13.73l.8-.86c2.35 2.2 4.77 4.37 7.07 6.64 4.85 4.76 9.66 9.56 14.45 14.38 1.16 1.17 2.08 1.11 3.43.16 7.14-5.02 15.9-5.15 23.12-.25 1.95 1.32 3.07 1.12 4.68-.56 6.45-6.66 13.07-13.16 19.61-19.73 2.97-2.98 2.56-7.6-.86-10.19-18.22-13.81-43.74-15.17-63.86-3.83-4.64 2.62-10.22 5.09-8.35 12.34-.51-.32-.64-1.17-1.45-1.07-1.07-2.92-.41-6.26 3.28-9 20.26-15.07 49.82-15.31 70.38-.5 3.03 2.19 5 4.77 4.41 8.66-.18 1.21.17 1.4 1.23 1.24 3.77-.6 6.46 1.18 8.5 4.11 8.8 12.61 12.51 26.44 10.8 41.87-1 9-3.87 17.21-8.37 24.92-2.58 4.43-5.49 8.72-11.79 7.5-.34-.07-.85-.14-.67.67.53 2.35.35 4.62-1.04 6.71-.32.48-.1 1.03.45 1.36l-.43.83c-3.7 2.66-7.45 5.26-11.66 7.09-4.23 1.82-8.35 4.01-13.05 4.5l.1-1.02 1.18-.12c-.06-.1-.1-.3-.17-.3-.43-.08-.81-.01-.99.46-1.52-.27-2.99.1-4.4.5-1.3.38.05.55.15.83-.74.5-1.6.32-2.4.36-1.06-1.27-2.5-.69-3.73-.65a63 63 0 0 1-36.6-10.3c-3.55-2.29-6.25-4.85-5.64-9.5.13-1.02-.28-1.48-1.35-1.34-2.34.31-4.47-.51-6.63-1.26-.03-.66-.2-1.06-.88-.45-1.92-.53-1.94-2.83-3.47-3.73-.03-.42-.12-.79-.54-1l-.22-.56c-.07-.48-.43-.55-.8-.6v.01c-.18-1.07-.17-2.25-1.59-2.56zM183 115.15c-2.5 1.78-3.8 4.34-4.8 7.13-2.64 7.38.21 16.7 6.42 20.91 7.72 5.23 17.21 4.8 23.56-1.06 9-8.3 8.1-22-1.91-29.29-6.8-4.95-18.2-3.8-23.3 2.34l.03-.03zm71.45 10.64c.21-4.61-1.4-11.96-4.1-19.02-1.92-5.03-4.37-9.9-8.03-13.96-2.56-2.84-6.54-3.12-9-.68-7.13 7.02-14.16 14.12-21.26 21.15-.93.93-.95 1.58-.19 2.7 5.55 8 5.65 16.15.17 24.22-1.05 1.55-.8 2.44.4 3.6 6.57 6.41 13.1 12.88 19.65 19.31 4.12 4.05 8.23 3.74 11.54-1 6.98-9.99 10.6-21.08 10.82-36.33v.01z"/>
  <path fill="#E9A060" d="M182.96 115.18c1.27.24 1.9-.8 2.71-1.4 8.66-6.3 22-2.8 26.04 7.07 3.04 7.4 1.52 16.78-5.8 21.94-5.02 3.55-15.16 4.48-21.54-1a17.76 17.76 0 0 1-3.25-23.3c.7-1.04 2.08-1.77 1.88-3.34l-.03.03zm28.69 12.98c.56-8.28-7.1-15.92-15.43-16.04a16.25 16.25 0 0 0-16.5 16.22 16.14 16.14 0 0 0 16.36 16.02c8.54-.11 15.64-7.51 15.56-16.2h.01z"/>
  <path fill="#D72A26" d="M193.48 2.08c3.17 19.77.65 39.67 1.4 59.5.14 3.7-.28 3.75-3.84 4-8.36.58-16.4 2.43-23.77 6.59-1.8 1.02-2.66.81-3.73-1.05-6.93-12.19-14-24.3-21.02-36.45-2.12-3.67-4.11-7.41-6.32-11.02-2.26-3.69-1.37-8.69 2.86-10.85 7.8-4 16.09-6.78 24.54-9.04 7-1.87 14.16-2.74 21.32-3.7 2.87-.37 5.32.95 7.97 1.43l-.01.02c0 .38.2.56.57.57l.03-.01z"/>
  <path fill="#F1D502" d="m309.23 68.78.52.52c1.97 4.7 4.12 9.34 5.86 14.12 3.89 10.73 6.9 21.68 7.59 33.15.08 1.32.5 2.65.39 3.93a7.56 7.56 0 0 1-7.61 6.72c-18.35.02-36.69.02-55.03.01-2.85 0-3-.47-2.93-3.22.06-2.25-.45-4.54-.8-6.79a52.5 52.5 0 0 0-6.03-17.72c-1.03-1.8-.48-2.54 1.15-3.47 10.58-6.04 21.1-12.21 31.65-18.29 5.2-2.99 10.52-5.8 15.68-8.85 2.77-1.64 5.43-1.81 8.26-.38.38.19.86.18 1.3.27z"/>
  <path fill="#AC2577" d="m67.56 116.55.06-1.07c-.23-1.23 1.18-2.41.1-3.66 2.03-7.2 2.86-14.68 5.26-21.8 2.17-6.45 4.45-12.85 7.63-18.88 1.85-3.5 6.53-4.72 10.07-2.67 11.03 6.37 22.03 12.77 33.06 19.13 5.57 3.22 11.28 6.2 16.63 9.82-2.2 5.37-4.83 10.58-6.18 16.26a61.18 61.18 0 0 0-1.44 11.48c-.08 1.67-.71 2.2-2.19 2.16h-36.7c-4.66-.02-9.33-.02-14-.09-2.98-.04-6 .41-8.88-.72-2.86-2.73-3.71-6.15-3.42-9.95v-.01z"/>
  <path fill="#BFD61A" d="M306.62 188.98c-.33.2-.53.7-1.05.5-.74-2.1-2.75-.88-4.11-1.51-7.87-3.64-14.95-8.61-22.47-12.84-8.45-4.76-16.83-9.63-25.24-14.45-3.52-2.01-3.86-2.4-1.7-5.87 3.38-5.42 4.08-11.59 5.57-17.55.5-1.98.66-4 .56-6.05-.09-1.62.47-2.45 2.26-2.45 18.79.04 37.57 0 56.36.06 3.45 0 6.25 3.18 6.4 6.68.3 7.77-1.58 15.23-3.2 22.73-1.78 8.22-4.77 16.03-8.07 23.73-1.06 2.46-2.47 4.68-4.88 6.1-.24.14-.29.6-.43.91z"/>
  <path fill="#E5B62D" d="M272.05 24.53c.05 1.14.9 1.59 1.69 2.2a134.06 134.06 0 0 1 23.88 23.9c.9 1.19 1.9 2.33 2.74 3.57 4.31 6.33 3.38 10.3-3.2 14.1-8.4 4.86-16.79 9.73-25.17 14.6-6.24 3.62-12.48 7.27-18.74 10.87-3.37 1.93-3.64 1.84-5.97-1.14-1.9-2.44-3.73-4.93-5.72-7.28-3.46-4.09-7.8-7.15-12.19-10.12-1.14-.77-1.71-1.32-.77-2.91a1223 1223 0 0 0 13.94-24.35c4.53-8.07 9.55-15.85 13.7-24.14 1.78-3.55 7.53-4.58 10.9-2.14 1.53 1.1 2.74 2.85 4.93 2.84l-.02-.01z"/>
  <path fill="#33AA37" d="M302.01 191.06c2.13 4.35.66 8-2.2 11.4-.96 1.13-2 2.23-2.29 3.78-3.44 3.76-6.81 7.59-10.33 11.27a116.94 116.94 0 0 1-21.9 18.14c-1.74 1.1-5.39.22-7.45-1.67-.65-.6-1.19-1.3-1.77-1.95-.1-.52-.08-1.1-.33-1.52-3.04-5.36-6.09-10.71-9.19-16.04a7354.32 7354.32 0 0 0-17.6-30.08c-1.19-2.01-.57-3.21 1.37-4.22 1.46-.76 2.97-1.57 3.68-3.23 4.6-2.41 7.65-6.44 10.8-10.35 1.27-1.57 2.34-3.3 3.55-4.92.7-.94 1.24-1.6 2.75-.71 16.39 9.55 32.85 18.99 49.29 28.46.68.4 1.4.79 1.63 1.64h-.01z"/>
  <path fill="#DB305F" d="M87.84 60.54c.05-3.77 2.86-6.12 4.68-8.96 3.93-6.14 9.26-11.09 14.35-16.18 5.28-5.3 11.2-9.95 17.51-14.04 2.65-1.71 7.28-1.14 9.38 1.94 4.69 6.85 8.38 14.28 12.67 21.37 4.6 7.61 8.88 15.43 13.38 23.12.88 1.51 1.37 3.24 2.6 4.58.82.9.71 1.74-.45 2.61-2.82 2.12-5.71 4.13-8.37 6.5a58 58 0 0 0-10.44 12.12c-1 1.54-1.87 2.03-3.6 1-6.62-3.88-13.3-7.65-19.94-11.47L93.3 67.97c-2.9-1.67-5.67-3.44-5.46-7.43zM199.74 1.4c3.3-1.84 6.73-.58 10.1-.43 7.28.34 14.24 2.48 21.19 4.33a106.29 106.29 0 0 1 20.91 8.16c2.8 1.43 4.63 5.73 3.02 9.09-3.6 7.48-8.18 14.4-12.18 21.65-4.29 7.8-8.92 15.41-13.34 23.15-.86 1.52-2.11 2.8-2.66 4.54-.36 1.17-1.15 1.5-2.49.92-3.24-1.38-6.43-2.88-9.81-4a57.92 57.92 0 0 0-15.71-2.99c-1.83-.08-2.7-.6-2.68-2.61.06-7.67-.01-15.34-.03-23 0-10.13 0-20.25-.03-30.37 0-3.35.15-6.62 3.71-8.44z"/>
  <path fill="#612E7B" d="M132.05 128.59c1.38 2.15.7 4.65 1.01 6.96.97 7.27 3 14.16 6.28 20.67.96 1.89.6 2.8-1.15 3.76a967.83 967.83 0 0 0-16.56 9.46 12183.33 12183.33 0 0 0-28.86 16.75c-3.33 1.93-6.63 3.47-10.28.67a7.2 7.2 0 0 1-2.21-2.58c-5.86-12.1-9.9-24.75-11.53-38.13-.36-2.98-.69-5.96-1.03-8.94-.42-3.63 1.16-6.12 4.35-7.72.45-.23.8-.66 1.2-.99l58.8.1-.02-.01z"/>
  <path fill="#047337" d="M207.17 189.41c5.88-.36 11.08-2.8 16.27-5.26 2.94-1.4 2.95-1.26 4.54 1.6 4.41 7.94 8.98 15.8 13.52 23.66 4.27 7.41 8.59 14.8 12.88 22.2.27.46.5.93 1.05 1.13 1 3.24 1.06 6.33-1.42 9.02a.94.94 0 0 0-.66.85h-.02c-5.7 2.4-11.33 4.95-17.2 6.95-10 3.4-20.3 5.48-30.8 6.39-5.77.5-8.9-2.66-8.92-8.44-.03-17.89 0-35.77-.09-53.66 0-1.84.47-2.95 2.23-3.45 2.9-.08 5.8-.26 8.62-.98z"/>
  <path fill="#035A9E" d="M194.35 190.55c.07 1.06.21 2.12.21 3.17v53.45c-.01 6.33-2.86 9.29-9.1 8.75a127.34 127.34 0 0 1-37.79-9.04c-2.7-1.12-5.41-2.21-8.03-3.5-5.05-2.52-6.03-6.37-3.33-11.15 7.54-13.32 15.27-26.52 22.94-39.77 1.55-2.68 3.2-5.3 4.65-8.03.74-1.37 1.45-1.38 2.72-.75 3.63 1.8 7.17 3.87 11.31 4.34l1.04.29c.94.78 2.04.97 3.21.89l1.55.2.54.07c3.28 1.1 6.7.8 10.07 1.1v-.02z"/>
  <path fill="#22327F" d="M156.66 176.49c.27 2.02 2.16 2.44 3.46 3.35 3.02 2.1 3.1 2.04 1.32 5.13a21500.61 21500.61 0 0 1-27.04 46.64c-2.5 4.32-6.85 5.29-11.11 2.44a118.93 118.93 0 0 1-15.12-12.04 138.63 138.63 0 0 1-18.42-21.43c-3.37-4.78-2.52-9.06 2.6-12.04 14-8.14 28.04-16.2 42.07-24.28 1.68-.97 3.38-1.94 5-3 1.57-1 2.52-.55 3.46.94 2.75 4.35 6 8.32 9.83 11.8.99.89 1.93 1.84 3.38 1.88l.57.61z"/>
  <defs>
    <linearGradient id="a" x1="178.28" x2="178.28" y1="120.75" y2="429" gradientUnits="userSpaceOnUse">
      <stop stop-color="#AEBFFF"/>
      <stop offset="1" stop-color="#FFE7E3"/>
    </linearGradient>
  </defs>
</svg>
