<svg xmlns="http://www.w3.org/2000/svg" enable-background="new 0 0 64 64" viewBox="0 0 64 64"><path fill="none" stroke="#231f20" stroke-linecap="round" stroke-linejoin="round" stroke-miterlimit="10" stroke-width="2" d="M54.18,38.34c0,15.67-9.93,22.03-22.18,22.03S9.82,54.01,9.82,38.34C9.82,22.67,19.75,3.63,32,3.63
		S54.18,22.67,54.18,38.34z"/><path fill="none" stroke="#231f20" stroke-linecap="round" stroke-linejoin="round" stroke-miterlimit="10" stroke-width="2" d="M44.37,10.45c-1.42,3.73-2.21,7.95-2.21,12.41c0,10.42,4.33,19.49,10.74,24.24"/><path fill="none" stroke="#231f20" stroke-linecap="round" stroke-linejoin="round" stroke-miterlimit="10" stroke-width="2" d="M47.72 15.17c-.69 2.39-1.06 4.98-1.06 7.69 0 7.62 2.95 14.32 7.41 18.22M28.64 60.2c.17-.48.33-.97.48-1.46 3.77-12.51.39-24.59-7.55-26.98-3.77-1.13-7.9.12-11.59 3.08"/><path fill="none" stroke="#231f20" stroke-linecap="round" stroke-linejoin="round" stroke-miterlimit="10" stroke-width="2" d="M24.12 59.35c3.67-10.5 2.22-20.86-4.02-22.74C16.74 35.6 13.03 37 9.86 40.03M13.43 20.92c2.52-1.7 5.59-2.25 7.21-2.25 11.6 0 21.03 12.06 21.03 27.4 0 4.9-.96 9.5-2.65 13.5"/><path fill="none" stroke="#231f20" stroke-linecap="round" stroke-linejoin="round" stroke-miterlimit="10" stroke-width="2" d="M11.2 27.7c2.68-2.56 5.95-3.68 9.47-3.68 9.11 0 16.5 10.09 16.5 22.52 0 5.19-1.29 9.97-3.46 13.78M18.29 12.14c2.81 1.84 5.97 2.87 9.31 2.87 5.45 0 10.41-2.75 14.14-7.25M21.61 8.35c1.86.97 3.88 1.5 5.99 1.5 3.88 0 7.45-1.78 10.27-4.75"/></svg>