<svg xmlns="http://www.w3.org/2000/svg" enable-background="new 0 0 196.78 191.5" viewBox="0 0 196.78 191.5"><path fill="#fff" d="M121.06,134.15c0,0,5.1,14.54,8.65,18.5c3.55,3.97,18.84-7.71,18.84-7.71l27.05-22.69
		c0,0,11.75,13.44,9.53,17.84c-2.22,4.41-13.08,7.71-13.08,7.71s-21.28,20.93-29.49,25.99c-8.2,5.07-10.78,5.68-14.15,4.38
		c-3.37-1.3-5.03-1.28-7.86-7.35c-2.83-6.06-6.93-33.98-6.93-33.98L121.06,134.15z" class="colorffffff svgShape"/><path fill="none" stroke="#000" stroke-linecap="round" stroke-linejoin="round" stroke-miterlimit="10" stroke-width="2.078" d="M120.56,170.84c0,0,0.46,4.13,7.86,7.35c7.39,3.21,27.75-15.28,42.08-29.05" class="colorStroke000000 svgStroke"/><line x1="119.28" x2="127.85" y1="129.81" y2="149.87" fill="none" stroke="#000" stroke-linecap="round" stroke-linejoin="round" stroke-miterlimit="10" stroke-width="2.078" class="colorStroke000000 svgStroke"/><path fill="#170c07" d="M46.84,69.79c-4.79,5.59-12.38,24.64-7.73,34.99c5.76,12.84,13.43,9.77,25.81,10.81
		c12.38,1.05,16.47,3.05,17.15,11.09c0.68,8.04,7.7,2.46,17.07,4.78c9.37,2.32,48.83-12.45,40.93-42.63
		c-3.24-12.37-28.91-5.82-36.94-7.63s-3.89-10.7-9.54-15.89C87.93,60.12,62.44,51.58,46.84,69.79z" class="color080717 svgShape"/><path fill="#aebfff" d="M124.03,138.4c-1.04-4.13-1.95-6.98-2.85-9.32c-5.64-14.62-5.29-15.36-9.84-18.02
		c-5.08-2.97-12.92,0.76-15.6,6.64c-2.68,5.88,1.43,27.06,1.43,27.06S124.1,138.69,124.03,138.4z" class="color85bac6 svgShape"/><path d="M80.62,71.96c-2.67-4.73-7.78-7.81-13.12-9.13c-10.72-2.67-21.41,5.25-24.86,14.83c-1.53,4.25-1.62,8.82-4.17,12.73
		c-4.59,7.06-12.59,11.04-19.7,15.24c-6.17,3.64-12.36,7.89-15.76,14.1c-5.49,10.04-3.25,26.69,4.95,34.73
		c14.43,14.15,38.33,9.94,52.5-2.76c6.75-6.05,11.56-14.16,14.9-22.39c2.31-5.7,4.93-11.37,6.5-17.3c1.57-5.93,2.68-12,2.87-18.13
		c0.22-6.85-0.71-13.79-3.27-20.16C81.22,73.11,80.94,72.53,80.62,71.96z" class="color000000 svgShape"/><path fill="#aebfff" d="M87.75,111.14c0,0,11.09-7.35,25.88,25.72c8.49,18.98-3.7,54.65-3.7,54.65H47.54
		C47.54,191.5,57.72,167.59,87.75,111.14z" class="color85bac6 svgShape"/><path fill="#170c07" d="M187.61,146.62l-43.81,9.74c-1.53,0.34-3.06-0.62-3.4-2.14l-7.43-32.98l49.37-10.98l7.43,32.98
			C190.11,144.76,189.14,146.27,187.61,146.62z" class="color080717 svgShape"/><path fill="#ffb999" d="M194.66,40.52c-6.29-27.93-34.18-45.51-62.29-39.26c-28.11,6.25-45.8,33.96-39.51,61.89
			c4.21,18.71,18.13,32.73,35.3,38.1l4.38,19.46l50.9-11.32l-4.38-19.46C192.29,77.81,198.87,59.23,194.66,40.52z" class="colorf1cf25 svgShape"/><line x1="133.04" x2="192.43" y1="142.7" y2="129.49" fill="none" stroke="#170c07" stroke-width="8.313" class="colorStroke080717 svgStroke"/><line x1="129.26" x2="188.64" y1="125.88" y2="112.67" fill="none" stroke="#170c07" stroke-width="8.313" class="colorStroke080717 svgStroke"/><path fill="none" stroke="#fff" stroke-width="2.078" d="M148.3,115.42c0,0-9.76-45.13-17.1-57.69c-2.62-4.48-15.31-15.72-19.4-7.61
			c-4.08,8.11,25.01,26.5,33.94,9.13c5.36-10.43,2.99-39.96-6.64-35.5c-5.74,2.66-4.03,37.53,8.68,39.05
			c16.97,2.03,21.82-14.71,21.31-19.78c-0.51-5.07-15.82,8.11-13.27,25.87c2.55,17.75,9.7,43.49,9.7,43.49" class="colorStrokeffffff svgStroke"/><path fill="#fff" d="M90.92,140.99c0,0-7.32,16.71-2.44,18.83c11.14,4.85,50.03-25.33,50.03-25.33l16.92-7.7
			c0,0,2.85,3.8-2.92,7.31c-1.72,1.04,13.79,2.89,13.79,2.89s0.58,4.23-5.36,5.2c-5.94,0.98,4.58,2.1,4.58,2.1s0.26,2.51-4,4.26
			c-0.21,0.09,0.91,2.15,0.5,3.09c-1.05,2.42-4.34,2.57-6.96,2.75c-0.14,0.01,2.78,1.87,1.32,3.53s-20.77,0.65-20.77,0.65
			s-22.43,21.02-34.31,25.1c-11.88,4.09-21.75,6.19-28.84,0.84c-7.1-5.34-10.92-23.28-8.59-32.96
			C66.2,141.87,90.92,140.99,90.92,140.99z" class="colorffffff svgShape"/><path fill="none" stroke="#000" stroke-linecap="round" stroke-linejoin="round" stroke-miterlimit="10" stroke-width="2.078" d="M90.47,142.57c0,0-9.97,21.16,4.3,17.9c14.27-3.26,43.94-26.52,43.94-26.52l28.06,3c0,0,0.59,5.08-8.01,5.88
			" class="colorStroke000000 svgStroke"/><path fill="none" stroke="#000" stroke-linecap="round" stroke-linejoin="round" stroke-miterlimit="10" stroke-width="2.078" d="M145.27,141.13l21.66,2.78c0,0,0.07,5.11-7.94,5.1" class="colorStroke000000 svgStroke"/><path fill="none" stroke="#000" stroke-linecap="round" stroke-linejoin="round" stroke-miterlimit="10" stroke-width="2.078" d="M145.01,145.69l17.46,4.2c0,0-0.31,3.72-4.45,3.86s-6.72,0.04-6.72,0.04" class="colorStroke000000 svgStroke"/><path fill="none" stroke="#000" stroke-linecap="round" stroke-linejoin="round" stroke-miterlimit="10" stroke-width="2.078" d="M144.95,150.96l11.37,5.05c0,0,1.07,3.98-3.62,3.52c-5.4-0.53-19.74-1.92-19.74-1.92" class="colorStroke000000 svgStroke"/><path fill="none" stroke="#000" stroke-linecap="round" stroke-linejoin="round" stroke-miterlimit="10" stroke-width="2.078" d="M69.84,124.28c0,0-15.86,45.59,1.97,59.15c17.83,13.56,46.33-8.59,63.53-24.55" class="colorStroke000000 svgStroke"/><path fill="none" stroke="#000" stroke-linecap="round" stroke-linejoin="round" stroke-miterlimit="10" stroke-width="2.078" d="M141.91,133.97l12.7-7.63c0,0,5.69,3.59-3.55,8.63" class="colorStroke000000 svgStroke"/><ellipse cx="65.57" cy="102.45" fill="#fff" class="colorffffff svgShape" rx="8.32" ry="8.27"/><path fill="#fff" d="M88.08,81.93l-21.42,6.7l12.63,25.34c4.27,1.36,8.48,1.3,12.13-0.49c3.65-1.8,6.95,1.8,11.11,5.93L88.08,81.93
		z" class="colorffffff svgShape"/><path fill="#fff" stroke="#000" stroke-linecap="round" stroke-linejoin="round" stroke-miterlimit="10" stroke-width="2.078" d="M80.06,97.11c0,0,16.93,3,13.29-13.46c-0.79-3.55-5.57-7.68-12.1-11.65c-0.23-0.14,2.78-2.55,0.17-3.44
		c-8.2-2.8-20.09-4.03-28.36-1.6c0,0,18.23,18.57,12.12,29.04" class="colorffffff svgShape colorStroke000000 svgStroke"/><path fill="none" stroke="#000" stroke-linecap="round" stroke-linejoin="round" stroke-miterlimit="10" stroke-width="2.078" d="M54.58,67.21c8.87,5.7,14.75,15.75,15.36,26.23" class="colorStroke000000 svgStroke"/><path fill="none" stroke="#000" stroke-linecap="round" stroke-linejoin="round" stroke-miterlimit="10" stroke-width="2.078" d="M61,102.94c1.81-1.57,4.87-1.12,6.81-0.06" class="colorStroke000000 svgStroke"/><path fill="none" stroke="#000" stroke-linecap="round" stroke-linejoin="round" stroke-miterlimit="10" stroke-width="2.078" d="M75.03,84.49l7.2-4.83C82.24,79.66,84.4,92.64,75.03,84.49z" class="colorStroke000000 svgStroke"/><path d="M73.34,73.23c1.17,0.18,2.01,1.01,1.88,1.85c-0.13,0.84-1.19,1.36-2.36,1.18c-1.17-0.18-2.01-1.01-1.88-1.85
		C71.11,73.58,72.17,73.05,73.34,73.23z" class="color000000 svgShape"/><path fill="none" stroke="#000" stroke-linecap="round" stroke-linejoin="round" stroke-miterlimit="10" stroke-width="2.078" d="M68.23,76.1c-0.46-1.03-0.68-2.16-0.65-3.29" class="colorStroke000000 svgStroke"/><path fill="#aebfff" d="M60.77,151.32c0,0,4.55-24.64,9.19-32.83c5.55-9.81,12.4-10.57,17.68-10.57c5.89,0,10.75,7.17,10.05,13.59
		c-0.69,6.42-5.2,21.89-5.2,21.89S75.5,137.72,60.77,151.32z" class="color85bac6 svgShape"/><path fill="none" stroke="#fff" stroke-linecap="round" stroke-linejoin="round" stroke-miterlimit="10" stroke-width="2.078" d="M92.48,143.4c0,0,4.04-14.81,4.97-18.94" class="colorStrokeffffff svgStroke"/><path fill="none" stroke="#fff" stroke-linecap="round" stroke-linejoin="round" stroke-miterlimit="10" stroke-width="2.078" d="M108.08,123.54c0,0,6.93,9.18,7.86,23.88" class="colorStrokeffffff svgStroke"/><path fill="#fff" stroke="#000" stroke-linecap="round" stroke-linejoin="round" stroke-miterlimit="10" stroke-width="2.078" d="M185.69,149.35l7.97-3.26c1.69-0.66,2.52-2.56,1.86-4.24l0,0c-0.67-1.68-2.58-2.51-4.27-1.85l-7.97,3.26
			c-1.69,0.66-2.52,2.56-1.86,4.24l0,0C182.08,149.19,183.99,150.01,185.69,149.35z" class="colorffffff svgShape colorStroke000000 svgStroke"/><path fill="#fff" stroke="#000" stroke-linecap="round" stroke-linejoin="round" stroke-miterlimit="10" stroke-width="2.078" d="M181.87,144.68l11.26-4.4c1.62-0.63,2.42-2.46,1.78-4.07l-0.1-0.25c-0.64-1.61-2.47-2.41-4.1-1.77
			l-11.26,4.4c-1.62,0.63-2.42,2.46-1.78,4.07l0.1,0.25C178.41,144.52,180.25,145.31,181.87,144.68z" class="colorffffff svgShape colorStroke000000 svgStroke"/><path fill="#fff" stroke="#000" stroke-linecap="round" stroke-linejoin="round" stroke-miterlimit="10" stroke-width="2.078" d="M180.61,139.03l11.26-4.4c1.62-0.63,2.42-2.46,1.78-4.07l-0.1-0.25c-0.64-1.61-2.47-2.41-4.1-1.77
			l-11.26,4.4c-1.62,0.63-2.42,2.46-1.78,4.07l0.1,0.25C177.15,138.87,178.98,139.67,180.61,139.03z" class="colorffffff svgShape colorStroke000000 svgStroke"/><path fill="#fff" stroke="#000" stroke-linecap="round" stroke-linejoin="round" stroke-miterlimit="10" stroke-width="2.078" d="M179.66,132.95l11.01-4.31c1.69-0.66,2.52-2.56,1.86-4.24l0,0c-0.67-1.68-7.55-7.11-9.24-6.44l1.28,6.04
			l-7.32,2.86c-1.69,0.66-2.52,2.56-1.86,4.24l0,0C176.05,132.78,177.97,133.61,179.66,132.95z" class="colorffffff svgShape colorStroke000000 svgStroke"/></svg>