<svg width="281" height="306" viewBox="0 0 281 306" fill="none" xmlns="http://www.w3.org/2000/svg">
<g clip-path="url(#clip0_2407_432)">
<path d="M151.592 304.689L158.217 291.356C150.974 284.063 148.416 273.297 151.592 263.491L155.338 251.931L128.857 219.467C121.044 209.887 120.591 196.219 127.755 186.142L157.641 144.095L185.851 158.589L165.7 204.969L254.259 263.934C265.112 271.16 273.077 282.016 276.747 294.583L279.698 304.689H151.592Z" fill="#AEBFFF"/>
<path d="M262.328 242.877C268.72 236.439 268.72 226.002 262.327 219.565C255.935 213.128 245.57 213.128 239.177 219.566C232.785 226.003 232.785 236.44 239.178 242.877C245.571 249.315 255.935 249.314 262.328 242.877Z" fill="#1C1C1C"/>
<path d="M263.285 221.823C278.464 206.537 278.464 181.754 263.284 166.469C248.104 151.183 223.493 151.184 208.313 166.47C193.134 181.756 193.134 206.539 208.314 221.824C223.494 237.11 248.105 237.109 263.285 221.823Z" fill="#1C1C1C"/>
<path d="M249.461 234.503C257.075 226.836 257.074 214.406 249.461 206.74C241.847 199.073 229.504 199.074 221.89 206.74C214.277 214.407 214.277 226.837 221.891 234.503C229.504 242.17 241.848 242.17 249.461 234.503Z" fill="#1C1C1C"/>
<path d="M227.918 205.097C229.356 194.352 221.872 184.467 211.202 183.019C200.531 181.57 190.715 189.106 189.277 199.851C187.838 210.596 195.322 220.481 205.992 221.93C216.663 223.378 226.479 215.842 227.918 205.097Z" fill="#1C1C1C"/>
<path d="M265.869 232.08C274.733 230.29 280.478 221.602 278.699 212.676C276.921 203.75 268.294 197.966 259.43 199.757C250.566 201.547 244.821 210.235 246.6 219.161C248.378 228.087 257.005 233.871 265.869 232.08Z" fill="#1C1C1C"/>
<path d="M197.416 211.94C206.457 211.94 213.786 204.56 213.786 195.457C213.786 186.353 206.457 178.973 197.416 178.973C188.376 178.973 181.047 186.353 181.047 195.457C181.047 204.56 188.376 211.94 197.416 211.94Z" fill="#1C1C1C"/>
<path d="M220.465 187.653C215.455 195.231 205.293 197.284 197.768 192.236C190.244 187.191 188.204 176.958 193.217 169.381C198.227 161.803 208.39 159.75 215.914 164.798C223.439 169.843 225.475 180.076 220.465 187.653Z" fill="#1C1C1C"/>
<path d="M194.431 224.11C194.735 223.517 195.064 222.936 195.438 222.369L223.474 179.968L253.015 199.775L224.978 242.175C224.605 242.743 224.196 243.276 223.772 243.783L235.02 251.325C224.361 257.696 210.579 257.789 199.57 250.409C188.562 243.03 183.334 230.188 185.06 217.828L194.431 224.11Z" fill="white"/>
<path d="M205.952 174.556C207.085 175.315 207.944 176.332 208.514 177.477C218.641 165.422 236.357 162.664 249.724 171.625C262.81 180.401 267.215 197.379 260.694 211.28C260.773 211.328 260.853 211.369 260.929 211.42C264.412 213.755 265.353 218.49 263.035 221.998C260.716 225.506 256.014 226.453 252.53 224.119C252.045 223.794 251.615 223.417 251.232 223.012C240.914 230.854 226.4 231.715 215.028 224.09C203.193 216.153 198.465 201.509 202.49 188.495C200.809 188.664 199.064 188.268 197.55 187.254C194.066 184.92 193.126 180.184 195.444 176.676C197.765 173.172 202.468 172.221 205.952 174.556Z" fill="white"/>
<path d="M232.373 230.673C226.087 230.673 219.788 228.849 214.312 225.178C202.835 217.483 197.426 203.133 200.783 189.787C199.38 189.631 198.022 189.14 196.834 188.345C194.861 187.022 193.518 185.003 193.053 182.666C192.587 180.325 193.053 177.943 194.367 175.956C195.678 173.969 197.683 172.617 200.007 172.149C202.325 171.68 204.697 172.149 206.67 173.472C207.43 173.982 208.108 174.61 208.678 175.328C219.499 163.746 237.142 161.622 250.443 170.538C263.494 179.289 268.481 196.442 262.319 210.831C265.834 213.701 266.67 218.858 264.114 222.723C261.404 226.824 255.884 227.94 251.811 225.207C251.58 225.051 251.352 224.882 251.133 224.7C245.534 228.673 238.96 230.673 232.373 230.673ZM202.493 187.188C202.883 187.188 203.25 187.363 203.5 187.669C203.776 188.011 203.865 188.467 203.735 188.884C199.805 201.593 204.745 215.621 215.753 223.003C226.346 230.109 240.293 229.694 250.452 221.97C250.978 221.572 251.722 221.629 252.178 222.114C252.514 222.471 252.875 222.777 253.255 223.032C256.134 224.962 260.039 224.174 261.958 221.275C263.874 218.373 263.091 214.441 260.213 212.512C260.2 212.505 260.029 212.406 260.02 212.397C259.453 212.049 259.241 211.325 259.522 210.723C265.818 197.297 261.299 180.957 249.005 172.713C236.319 164.205 219.335 166.616 209.505 178.319C209.223 178.654 208.799 178.82 208.358 178.772C207.924 178.721 207.548 178.453 207.351 178.061C206.864 177.082 206.129 176.246 205.229 175.644C203.836 174.709 202.161 174.371 200.517 174.709C198.874 175.041 197.455 175.998 196.527 177.401C195.599 178.807 195.266 180.491 195.599 182.146C195.928 183.801 196.878 185.23 198.275 186.164C199.494 186.981 200.907 187.335 202.367 187.191C202.408 187.188 202.452 187.188 202.493 187.188Z" fill="#1C1C1C"/>
<path d="M257.343 161.567C269.308 169.59 275.42 183.134 274.587 196.611C269.165 197.092 263.55 195.794 258.667 192.519C247.409 184.971 244.258 169.772 251.466 158.33C253.483 159.229 255.45 160.298 257.343 161.567Z" fill="#1C1C1C"/>
<path d="M232.67 207.198C232.214 207.198 231.746 207.144 231.277 207.032C228.731 206.423 227.011 204.328 226.894 201.697L226.698 197.37C226.672 196.831 226.98 196.333 227.47 196.113C227.958 195.896 228.531 196.002 228.915 196.384C230.058 197.536 235.014 199.589 237.87 200.616C238.231 200.747 238.517 201.027 238.65 201.388C238.783 201.748 238.751 202.15 238.567 202.488L237.579 204.255C236.534 206.127 234.694 207.198 232.67 207.198ZM229.409 199.812L229.488 201.579C229.567 203.32 230.774 204.223 231.879 204.488C232.978 204.752 234.466 204.494 235.315 202.973L235.555 202.542C233.953 201.924 231.385 200.881 229.409 199.812Z" fill="#1C1C1C"/>
<path d="M249.378 205.674C246.959 205.674 244.59 204.957 242.528 203.576C239.77 201.726 237.892 198.907 237.24 195.635C236.587 192.363 237.24 189.031 239.077 186.253C242.87 180.52 250.588 178.96 256.279 182.777C259.037 184.627 260.915 187.446 261.568 190.718C262.217 193.99 261.568 197.322 259.728 200.097C257.891 202.874 255.091 204.765 251.842 205.422C251.022 205.591 250.199 205.674 249.378 205.674ZM241.239 187.701C239.789 189.898 239.273 192.532 239.789 195.119C240.305 197.705 241.791 199.934 243.969 201.398C246.151 202.862 248.767 203.378 251.335 202.862C253.904 202.342 256.121 200.846 257.571 198.652C259.021 196.455 259.538 193.821 259.021 191.235C258.505 188.648 257.023 186.419 254.841 184.955C250.341 181.939 244.239 183.17 241.239 187.701Z" fill="black"/>
<path d="M224.351 188.891C221.928 188.891 219.562 188.173 217.501 186.792C211.81 182.975 210.261 175.204 214.052 169.47C217.846 163.736 225.56 162.18 231.255 165.994C234.013 167.843 235.891 170.662 236.543 173.934C237.192 177.206 236.543 180.539 234.703 183.316C232.866 186.094 230.067 187.985 226.818 188.642C225.994 188.811 225.171 188.891 224.351 188.891ZM216.212 170.921C213.216 175.452 214.438 181.597 218.942 184.617C221.124 186.081 223.74 186.595 226.308 186.081C228.876 185.561 231.093 184.066 232.543 181.872C233.994 179.674 234.51 177.04 233.994 174.454C233.478 171.868 231.996 169.639 229.814 168.175C225.313 165.155 219.211 166.386 216.212 170.921Z" fill="black"/>
<path d="M260.13 211.817C259.525 211.817 258.984 211.386 258.857 210.767L256.802 200.445C256.662 199.737 257.115 199.048 257.821 198.904C258.521 198.764 259.208 199.22 259.351 199.928L261.406 210.251C261.546 210.959 261.093 211.647 260.386 211.791C260.301 211.807 260.215 211.817 260.13 211.817Z" fill="black"/>
<path d="M239.749 188.011C239.502 188.011 239.251 187.94 239.03 187.79L233.285 183.938C232.687 183.536 232.525 182.726 232.924 182.124C233.32 181.521 234.127 181.361 234.723 181.76L240.468 185.612C241.066 186.014 241.228 186.824 240.829 187.427C240.582 187.806 240.167 188.011 239.749 188.011Z" fill="black"/>
<path d="M247.479 189.344C246.497 190.827 246.713 192.708 247.96 193.544C249.208 194.379 251.013 193.853 251.992 192.37C252.974 190.887 252.758 189.006 251.51 188.17C250.266 187.335 248.461 187.858 247.479 189.344Z" fill="#1C1C1C"/>
<path d="M225.323 174.486C224.341 175.969 224.556 177.85 225.804 178.686C227.052 179.521 228.857 178.995 229.836 177.512C230.817 176.029 230.602 174.148 229.354 173.312C228.106 172.477 226.304 173.003 225.323 174.486Z" fill="#1C1C1C"/>
<path d="M95.96 174.203L51.4581 143.842C42.4 137.662 30.0949 140.028 23.9738 149.126C17.8527 158.223 20.2336 170.608 29.2916 176.788L73.7936 207.149C82.8516 213.329 95.1567 210.963 101.278 201.866C107.399 192.768 105.018 180.383 95.96 174.203Z" fill="#1C1C1C"/>
<path d="M100.153 177.825C102.193 174.796 107.754 162.824 105.673 161.405L59.6424 130.003C57.5618 128.584 48.5932 138.227 46.5537 141.26L100.153 177.825Z" fill="#FFB999"/>
<path d="M104.912 123.382C106.141 122.574 107.602 122.202 109.072 122.266C136.668 123.464 164.303 110.571 181.035 85.7013V85.7013C190.81 71.1708 184.349 52.7723 169.882 42.9038L145.083 25.9874C130.675 16.1587 111.25 16.9847 101.515 31.4565V31.4565C85.0072 55.9929 83.1957 86.1377 94.0385 111.294C94.8716 113.227 94.7255 115.459 93.5506 117.206V117.206C89.9345 122.581 96.3211 129.034 101.733 125.473L104.912 123.382Z" fill="#FFB999"/>
<path d="M108.58 63.9041L103.64 62.2905C106.027 54.8792 109.454 47.8284 113.827 41.326C116.735 37.0049 120.063 32.9421 123.721 29.2461L127.398 32.939C123.971 36.4022 120.852 40.2099 118.128 44.2599C114.03 50.354 110.816 56.9648 108.58 63.9041Z" fill="white"/>
<path d="M110.496 118.607L97.3213 109.619L71.3549 148.216L84.5298 157.204L110.496 118.607Z" fill="#FFB999"/>
<path d="M158.484 133.536C153.563 133.536 148.591 132.573 143.844 130.564L117.818 119.546L120.333 113.519L146.358 124.537C160.144 130.373 176.235 125.561 184.617 113.095L204.249 83.9124L173.796 63.1393L177.438 57.7275L213.265 82.168L189.991 116.765C182.768 127.506 170.797 133.536 158.484 133.536Z" fill="#FFB999"/>
<path d="M93.7498 103.126L73.9347 82.8756C61.2767 69.9379 59.4304 49.6335 69.5485 34.5974L92.8187 0L128.649 24.4405L125.007 29.8522L94.5542 9.07907L74.9227 38.2616C66.5368 50.7273 68.0664 67.5589 78.5615 78.2835L98.3766 98.5368L93.7498 103.126Z" fill="#FFB999"/>
<path d="M181.2 171.058C181.269 170.876 189.734 150.457 195.311 144.933C195.355 144.889 195.387 144.834 195.406 144.777C197.411 144.072 199.583 142.758 201.43 140.351C202.047 139.544 202.801 138.578 203.646 137.493C209.568 129.897 219.484 117.183 219.44 112.597C219.398 108.725 217.429 103.833 215.044 101.694C214.097 100.842 213.141 100.456 212.216 100.555C211.152 100.667 208.995 101.984 206.535 103.926C206.003 99.1393 195.143 90.7267 190.301 89.6871C185.985 88.7591 182.327 89.7381 180.006 92.4392C178.011 94.7608 177.079 97.4523 177.041 97.5671C176.981 97.7425 177.045 97.9307 177.19 98.0359C177.222 98.0582 177.257 98.0774 177.295 98.0901C177.307 98.0933 177.32 98.0933 177.33 98.0933C175.03 98.6195 173.716 100.093 172.845 101.078C170.993 103.173 171.898 106.764 171.933 106.885C171.94 106.914 171.955 106.936 171.968 106.962C170.306 107.118 168.804 107.584 167.686 108.355C165.093 110.138 165.79 114.989 165.954 115.939C165.562 116.65 163.978 119.855 165.394 123.149C166.391 125.474 167.322 126.884 168.573 128.21L168.57 128.213L152.71 150.466C152.644 150.559 152.793 150.431 152.815 150.543C152.834 150.645 152.957 150.645 153.043 150.705C153.049 150.712 153.056 150.715 153.065 150.721L180.905 170.841C181.01 170.904 181.038 171.061 181.155 171.019C181.263 170.981 181.155 171.172 181.2 171.058Z" fill="white"/>
<path d="M153.037 152.013C152.774 152.013 152.511 151.933 152.28 151.768C151.697 151.347 151.564 150.53 151.982 149.943L167.842 127.691C168.26 127.104 169.07 126.97 169.653 127.391C170.236 127.812 170.369 128.628 169.951 129.215L154.091 151.468C153.838 151.822 153.439 152.013 153.037 152.013Z" fill="black"/>
<path d="M206.145 105.441C205.461 105.441 204.891 104.902 204.849 104.207C204.644 100.575 194.51 92.3471 189.94 91.3649C185.221 90.3508 182.634 91.9995 181.291 93.5621C179.527 95.619 178.659 98.1001 178.65 98.1256C178.415 98.808 177.671 99.1684 177 98.9324C176.322 98.6964 175.961 97.9566 176.195 97.2709C176.237 97.1497 177.225 94.2988 179.328 91.8496C181.871 88.887 185.835 87.806 190.484 88.8073C195.213 89.8246 207.136 98.5784 207.443 104.057C207.484 104.778 206.936 105.396 206.221 105.438C206.195 105.441 206.17 105.441 206.145 105.441Z" fill="black"/>
<path d="M199.349 112.16C198.984 112.16 198.623 112.007 198.364 111.707C193.908 106.5 188.888 102.759 183.451 100.591C177.618 98.2626 175.594 100.552 174.112 102.226C172.889 103.611 173.399 105.68 173.406 105.699C173.583 106.394 173.171 107.109 172.481 107.294C171.784 107.479 171.084 107.071 170.894 106.379C170.856 106.238 169.998 102.944 172.167 100.488C173.697 98.7568 176.873 95.1533 184.404 98.1605C190.238 100.488 195.593 104.472 200.327 110.001C200.796 110.547 200.736 111.373 200.191 111.844C199.95 112.055 199.649 112.16 199.349 112.16Z" fill="black"/>
<path d="M170.669 130.94C170.369 130.94 170.068 130.835 169.821 130.624C167.449 128.564 166.058 126.973 164.57 123.507C162.945 119.724 163.756 109.972 167.18 107.619C170.441 105.374 175.477 105.734 179.03 107.086C184.468 109.159 191.793 112.712 195.802 117.872C196.245 118.439 196.147 119.262 195.58 119.708C195.016 120.155 194.199 120.053 193.759 119.485C190.117 114.804 183.239 111.49 178.108 109.536C174.714 108.241 170.733 108.343 168.646 109.781C166.689 111.127 165.596 119.313 166.955 122.473C168.256 125.509 169.368 126.782 171.518 128.647C172.06 129.119 172.123 129.945 171.651 130.49C171.395 130.787 171.03 130.94 170.669 130.94Z" fill="black"/>
<path d="M190.978 146.448C189.832 146.448 189.082 146.308 188.987 146.289C188.283 146.152 187.824 145.463 187.96 144.755C188.097 144.047 188.777 143.581 189.481 143.722C189.753 143.773 195.833 144.838 200.074 139.298C200.694 138.488 201.454 137.516 202.303 136.422C207.323 129.987 217.77 116.59 217.729 112.61C217.694 109.217 215.943 104.803 213.907 102.973C213.511 102.615 212.938 102.207 212.39 102.261C211.05 102.402 204.333 107.179 199.453 113.26C196.796 116.57 195.441 119.412 195.637 121.252C195.646 121.335 195.697 121.753 195.833 121.804C197.657 122.476 205.084 117.004 210.892 111.471C211.414 110.977 212.235 110.999 212.729 111.522C213.219 112.048 213.2 112.874 212.678 113.372C209.584 116.322 199.146 125.825 194.937 124.259C194.32 124.029 193.249 123.369 193.053 121.533C192.771 118.921 194.247 115.585 197.433 111.618C201.952 105.986 209.365 99.9526 212.121 99.6624C212.934 99.5795 214.211 99.7453 215.633 101.024C218.22 103.349 220.282 108.426 220.326 112.587C220.37 117.109 212.456 127.643 204.346 138.042C203.5 139.126 202.747 140.092 202.129 140.899C198.459 145.692 193.648 146.448 190.978 146.448Z" fill="black"/>
<path d="M180.877 172.132C180.712 172.132 180.541 172.1 180.379 172.033C179.717 171.759 179.404 170.994 179.676 170.324C180.025 169.476 188.284 149.481 194.111 143.705C194.621 143.198 195.441 143.205 195.948 143.718C196.451 144.232 196.445 145.061 195.932 145.568C190.482 150.973 182.159 171.121 182.077 171.322C181.871 171.829 181.386 172.132 180.877 172.132Z" fill="black"/>
<path d="M158.531 133.539C153.556 133.539 148.558 132.56 143.843 130.564L117.817 119.546C116.164 118.847 115.388 116.931 116.082 115.266C116.776 113.601 118.679 112.82 120.332 113.518L146.357 124.536C156.688 128.908 168.649 127.394 177.576 120.579C179.005 119.488 181.041 119.772 182.124 121.21C183.207 122.648 182.925 124.699 181.497 125.79C174.809 130.898 166.698 133.539 158.531 133.539Z" fill="black"/>
<path d="M204.238 95.5929L198.861 91.9256L204.254 83.9117L173.798 63.1385L177.44 57.7236L213.27 82.1673L204.238 95.5929Z" fill="black"/>
<path d="M159.943 216.134C159.721 216.134 159.493 216.076 159.288 215.952C158.67 215.585 158.464 214.785 158.825 214.163L164.583 204.306C164.947 203.684 165.742 203.477 166.359 203.84C166.977 204.207 167.183 205.007 166.822 205.629L161.064 215.483C160.82 215.904 160.387 216.134 159.943 216.134Z" fill="#8AA2FF"/>
<path d="M148.429 158.012C148.429 158.012 164.548 155.693 177.216 175.405L148.429 158.012Z" fill="#AEBFFF"/>
<path d="M194.151 129.355C192.542 129.355 190.934 128.624 189.765 127.295C183.859 120.582 175.001 120.473 174.912 120.473C174.197 120.47 173.617 119.883 173.617 119.163C173.617 118.442 174.197 117.858 174.916 117.858C175.324 117.858 185.008 117.945 191.71 125.56C192.59 126.558 193.869 126.973 194.968 126.609C196.419 126.131 196.808 125.337 196.352 123.774C196.15 123.082 196.545 122.355 197.233 122.151C197.923 121.947 198.642 122.345 198.845 123.037C199.696 125.962 198.575 128.168 195.776 129.09C195.247 129.269 194.699 129.355 194.151 129.355Z" fill="black"/>
</g>
<defs>
<clipPath id="clip0_2407_432">
<rect width="281" height="306" fill="white"/>
</clipPath>
</defs>
</svg>
