<svg xmlns="http://www.w3.org/2000/svg" enable-background="new 0 0 982.13 958.85" viewBox="0 0 982.13 958.85"><path fill="#8aa2ff" d="M320.41,192.43L199.79,761.43c-3.9,21.99-28.96,35.94-55.96,31.15l-48.89-8.68
				c-27-4.79-45.73-26.51-41.82-48.5L173.74,166.4L320.41,192.43z" class="colorff6700 svgShape"/><polygon fill="#fff" points="180.66 163.73 277.02 10.71 314.82 187.54" class="colorffffff svgShape"/><path fill="#ecedff" d="M275.11,21.43l34.43,161.01l-122.16-21.68L275.11,21.43L275.11,21.43z M278.92,0L173.95,166.7l146.16,25.94L278.92,0
						L278.92,0z" class="color000000 svgShape"/><polygon fill="#1c1c1c" points="227.53 81.61 299.08 94.31 278.92 0" class="color10101a svgShape"/><g fill="#ecedff" class="color000000 svgShape"><path fill="#fff" d="M325.81,954.75c-0.34-1.28-34.13-147.63-25.04-200.33c0.07-0.43,0.02-0.84-0.09-1.24
				c8.34-11.86,15.22-27.79,15.93-48.41c0.23-6.91,0.59-15.26,1-24.61c2.83-65.51,7.57-175.15-10.84-200.25
				c-15.55-21.2-45.86-40.31-67.56-42.61c-8.64-0.92-15.46,0.76-20.22,5c-5.46,4.85-12.24,20.71-18.21,41.24
				c-21.9-24.28-115.51-27.4-146.52-13.82c-27.65,12.1-44.09,32.07-46.29,56.23c-1.88,20.75,3.59,39.32,3.83,40.1
				c0.36,1.21,1.47,1.99,2.68,1.99c0.26,0,0.54-0.04,0.8-0.12c0.08-0.03,0.14-0.09,0.22-0.12C4.82,579.87,3.34,593.22,2.4,602.13
				c-2,18.95,17.26,35.14,17.91,35.67c0.16,0.13,0.33,0.2,0.51,0.28c-8.62,7.49-15.1,16.04-18.26,24.75
				c-7.34,20.17,15.71,44.14,20.39,48.73c0.63,5.49,4.52,29.47,25.42,42c14.75,8.85,25.49,12.92,37.69,15.23
				c0,0.01-0.01,0.02-0.01,0.04v185.93c0,0.77,0.32-0.52,0.88,0c0.52,0.49,1.2,0,1.91,0c0.06,0,0.12,0.01,0.17,0h234.26
				c0.84-0.05,1.61,0.68,2.1,0C325.86,954.08,326.02,955.56,325.81,954.75z" class="colorffffff svgShape"/><path d="M88.85,958.85c-2.27,0-4.1-1.83-4.1-4.1V768.82c0-2.27,1.83-4.1,4.1-4.1c2.27,0,4.1,1.83,4.1,4.1v185.93
						C92.95,957.02,91.11,958.85,88.85,958.85z" class="color000000 svgShape"/><path d="M14.47,569.34c-1.76,0-3.39-1.15-3.92-2.92c-0.24-0.79-5.78-19.59-3.87-40.59c2.24-24.65,18.95-45,47.06-57.3
						c31.69-13.87,128.35-10.35,148.92,15.13c1.42,1.76,1.15,4.34-0.62,5.77c-1.76,1.42-4.34,1.15-5.77-0.62
						c-17.95-22.23-110.89-25.18-139.26-12.77c-25.24,11.04-40.22,28.99-42.18,50.53c-1.77,19.37,3.51,37.32,3.56,37.5
						c0.65,2.17-0.58,4.46-2.75,5.11C15.26,569.28,14.87,569.34,14.47,569.34z" class="color000000 svgShape"/><path d="M22.18,641.77c-1,0-2-0.36-2.79-1.1c-0.83-0.77-20.34-19.2-18.29-38.68c1.65-15.68,4.72-44.86,55.14-57.46
						c40.86-10.22,85.62-9.6,133.03,1.85c2.2,0.53,3.56,2.75,3.02,4.94c-0.53,2.2-2.74,3.57-4.94,3.02
						c-46.11-11.12-89.54-11.75-129.12-1.87C13.38,563.7,10.8,588.21,9.26,602.85c-1.62,15.39,15.56,31.66,15.73,31.83
						c1.65,1.55,1.74,4.14,0.2,5.79C24.38,641.34,23.28,641.77,22.18,641.77z" class="color000000 svgShape"/><path d="M103.36,772.36c-0.12,0-0.24,0-0.37-0.02c-21-1.87-33.97-4.87-55.3-17.67c-23.75-14.25-54.48-69.97-46.36-92.3
						c8.64-23.76,36.58-40.82,60.43-47.18c37.82-10.08,91.64-19.55,133.28-7.41c2.17,0.63,3.42,2.91,2.79,5.09
						c-0.63,2.17-2.88,3.42-5.09,2.79c-39.83-11.62-92.06-2.35-128.87,7.46c-25.78,6.88-48.33,24.17-54.84,42.06
						c-6.33,17.41,20.52,69.05,42.88,82.47c19.95,11.97,32.11,14.78,51.81,16.53c2.25,0.2,3.92,2.19,3.72,4.45
						C107.25,770.76,105.46,772.36,103.36,772.36z" class="color000000 svgShape"/><path d="M217.14,679.03c-1.38,0-2.72-0.69-3.5-1.95c-1.19-1.93-0.58-4.45,1.35-5.64c0.19-0.12,19.27-12.03,20.02-25.57
						c0.31-5.61-2.8-11.01-9.24-16.04c-1.79-1.39-2.1-3.97-0.71-5.75c1.39-1.79,3.96-2.11,5.75-0.71
						c8.69,6.79,12.86,14.52,12.38,22.98c-1,17.83-22.98,31.51-23.91,32.09C218.61,678.84,217.87,679.03,217.14,679.03z" class="color000000 svgShape"/><path d="M267.33,783.15c-1.55,0-3.04-0.88-3.72-2.39c-0.95-2.05-0.05-4.49,2.01-5.44c1.73-0.8,42.35-20.16,44.1-70.78
						c0.24-6.94,0.6-15.33,1.01-24.73c2.61-60.34,7.46-172.67-9.51-195.81c-14.55-19.85-42.68-37.72-62.72-39.84
						c-6.62-0.72-11.65,0.4-14.91,3.29c-9.25,8.22-27.05,65.62-29.91,115.52c-1.75,30.58,2.28,52.27,11.65,62.74
						c3.8,4.25,6.46,4.15,8.12,3.67c17.61-4.87,37.66-76.62,46.16-120.71c0.43-2.22,2.56-3.68,4.8-3.25
						c2.22,0.43,3.68,2.58,3.25,4.8c-2.35,12.18-23.76,119.24-52.02,127.06c-4,1.13-10.1,0.95-16.41-6.11
						c-11.01-12.3-15.63-35.41-13.73-68.68c2.94-51.38,20.71-110.57,32.65-121.18c5.05-4.49,12.17-6.28,21.23-5.32
						c22.02,2.34,52.74,21.69,68.47,43.15c18.68,25.46,13.93,135.35,11.09,201.01c-0.4,9.38-0.76,17.74-1,24.66
						c-1.92,55.81-46.95,77.08-48.87,77.95C268.48,783.03,267.91,783.15,267.33,783.15z" class="color000000 svgShape"/><path d="M323.1,958.85c-1.86,0-3.54-1.27-3.99-3.17c-1.41-6.03-34.48-148.32-25.15-202.43c0.38-2.23,2.52-3.72,4.74-3.34
						c2.23,0.38,3.73,2.51,3.34,4.74c-9.05,52.49,24.71,197.71,25.05,199.17c0.52,2.2-0.85,4.41-3.06,4.93
						C323.73,958.82,323.41,958.85,323.1,958.85z" class="color000000 svgShape"/><rect width="8.2" height="147.57" x="107.07" y="762.52" fill="#2d2d2d" class="color282d33 svgShape" transform="rotate(-77.684 111.153 836.278)"/><path fill="#8aa2ff" d="M145.81,671.3c-67.87,0.88-85.74,30.63-88.96,41.62L29.08,859.78c-4.77,21.82,13.09,44.26,39.88,50.11
					l48.51,10.59c26.79,5.85,52.38-7.1,57.14-28.93l40.02-209.94C216.57,671.46,145.81,671.3,145.81,671.3z" class="colorff6700 svgShape"/><path fill="#fff" d="M130.36,917.79c-3.99,0-8.03-0.44-12.01-1.31l-48.51-10.59c-24.54-5.36-41.03-25.65-36.75-45.23
							l6.57-30.09l137.53,30.03l-6.57,30.09C167.13,906.64,150.58,917.79,130.36,917.79C130.36,917.79,130.37,917.79,130.36,917.79z
							" class="colorffffff svgShape"/><path d="M42.79,835.45l129.51,28.28l-5.7,26.08c-3.07,14.06-17.97,23.88-36.25,23.88c-3.69,0-7.44-0.41-11.13-1.22
							l-48.51-10.59c-11.12-2.43-20.75-8.17-27.11-16.16c-5.97-7.5-8.28-16.09-6.51-24.19L42.79,835.45L42.79,835.45z M36.53,825.68
							l-7.44,34.1c-4.77,21.82,13.09,44.26,39.88,50.11l48.51,10.59c4.35,0.95,8.68,1.41,12.88,1.41
							c21.67,0,40.27-12.05,44.26-30.33l7.44-34.1L36.53,825.68L36.53,825.68z" class="color000000 svgShape"/></g><g fill="#ecedff" class="color000000 svgShape"><path fill="#0f0f0f" d="M646.47,731.83l80.87,11.49c92.96,13.21,179.82-52.05,193.02-145.01l4.55-32.04
				c16.53-116.4-65.17-225.16-181.57-241.7l-13.4,30.79c-72.96-10.36-141.14,40.85-151.5,113.81L557.87,613.9
				C549.81,670.69,589.67,723.76,646.47,731.83z" class="color080717 svgShape"/><polygon fill="#fff" points="638.15 950.79 538.82 609.03 742.55 544.15 841.82 845.49" class="colorffffff svgShape"/><path fill="#0f0f0f" d="M638.15,954.88c-0.55,0-1.1-0.11-1.62-0.33c-1.13-0.48-1.98-1.45-2.32-2.62l-99.33-341.75
					c-0.62-2.14,0.57-4.38,2.69-5.05l203.73-64.88c2.16-0.68,4.44,0.49,5.14,2.63l99.27,301.34c0.63,1.91-0.22,4-2.01,4.93
					l-203.67,105.3C639.45,954.73,638.8,954.88,638.15,954.88z M543.88,611.73l96.83,333.12l196.13-101.41l-96.91-294.16
					L543.88,611.73z" class="color080717 svgShape"/><circle cx="772.54" cy="395.36" r="80.76" fill="#0f0f0f" class="color080717 svgShape" transform="rotate(-20.537 772.546 395.372)"/><path fill="#0f0f0f" d="M763.48,352.72c84.93,23.27,141.97,105.14,132.54,194.29c-21.35,10.18-46.14,14.43-71.73,10.8
				c-66.5-9.45-113.13-68.4-104.14-131.67C724.44,396,740.58,370.33,763.48,352.72z" class="color080717 svgShape"/><path fill="#0f0f0f" d="M875.66,464.75c35.12,80.75,7.11,176.52-68.25,225.08c-21.32-10.25-40.17-26.9-53.39-49.11
				c-34.34-57.73-17.65-131.01,37.28-163.69C817.46,461.47,847.58,457.95,875.66,464.75z" class="color080717 svgShape"/><circle cx="719.47" cy="402.8" r="80.76" fill="#0f0f0f" class="color080717 svgShape" transform="rotate(-30.334 719.429 402.816)"/><circle cx="726.54" cy="406.32" r="140.49" fill="#0f0f0f" class="color080717 svgShape" transform="rotate(-45.001 726.537 406.327)"/><path fill="#0f0f0f" d="M635.28,361.53c-6.45,45.42,25.14,87.47,70.56,93.92c45.42,6.45,87.47-25.14,93.92-70.56
				c6.45-45.42-25.14-87.47-70.56-93.92C683.78,284.52,641.73,316.11,635.28,361.53z" class="color080717 svgShape"/><path fill="#0f0f0f" d="M879.77,464.03c-1.25,0-2.49-0.57-3.29-1.65c-1.35-1.81-0.98-4.38,0.84-5.74
					c22.95-17.12,51.51-3.25,52.71-2.65c2.03,1,2.85,3.46,1.85,5.49c-1,2.02-3.46,2.86-5.49,1.86c-0.25-0.13-25.3-12.19-44.17,1.88
					C881.48,463.77,880.62,464.03,879.77,464.03z" class="color080717 svgShape"/><path fill="#0f0f0f" d="M881.81,460.63c-1.24,0-2.5-0.05-3.79-0.17c-2.25-0.2-3.92-2.19-3.72-4.45c0.2-2.25,2.15-3.91,4.45-3.72
					c23.45,2.08,38.43-21.33,38.58-21.57c1.2-1.91,3.72-2.51,5.65-1.3c1.91,1.2,2.5,3.72,1.31,5.64
					C923.6,436.16,908.04,460.63,881.81,460.63z" class="color080717 svgShape"/><path fill="#fff" d="M520.27,476.01c53.2-105.88,168.81-155.29,258.22-110.36c75.59,37.98,108.24,131.22,84.39,223.12
					c2.01,0.27,4.02,0.57,6.05,1.05c30.7,7.25,51.71,37.26,48,68.58c-4.17,35.19-36.43,59.88-71.32,54.92
					c-15.36-2.18-28.54-9.83-38.09-20.59c-59.71,67.23-149.28,92.73-221.69,56.35C496.42,704.14,467.07,581.89,520.27,476.01z" class="colorffffff svgShape"/><path fill="#0f0f0f" d="M657.06,769.88c-25.21,0-50.06-5.59-73.07-17.15C492.7,706.86,462.47,581.9,516.6,474.17
					c54.14-107.73,172.45-158.05,263.73-112.18c74.7,37.54,110.34,128.96,87.62,223.43c0.63,0.12,1.28,0.26,1.93,0.41
					c32.6,7.7,55.06,39.79,51.13,73.05c-2.14,18.09-11.26,34.16-25.68,45.26c-14.42,11.1-32.27,15.81-50.29,13.24
					c-14.1-2-27.24-8.57-37.44-18.62C765.04,745.01,710.24,769.88,657.06,769.88z M523.93,477.85L523.93,477.85
					c-52.1,103.68-23.5,223.71,63.74,267.55c69.3,34.83,156.42,12.56,216.78-55.41c0.78-0.88,1.89-1.38,3.07-1.38c0,0,0,0,0,0
					c1.17,0,2.29,0.5,3.06,1.38c9.29,10.48,21.93,17.31,35.6,19.25c15.8,2.24,31.48-1.88,44.14-11.62
					c12.65-9.73,20.65-23.84,22.54-39.72c3.46-29.19-16.26-57.35-44.87-64.11c-1.93-0.46-3.93-0.75-5.65-0.97
					c-1.17-0.16-2.21-0.8-2.86-1.77c-0.65-0.98-0.86-2.18-0.56-3.32c23.94-92.24-9.89-182.06-82.27-218.42
					C689.42,325.48,576.04,374.18,523.93,477.85z" class="color080717 svgShape"/><path fill="#0f0f0f" d="M726.45,507.98c-5.31,6.54-12.99,9.1-17.15,5.72c-4.16-3.38-3.23-11.42,2.08-17.95
				c5.31-6.54,12.99-9.1,17.15-5.72C732.7,493.4,731.76,501.44,726.45,507.98z" class="color080717 svgShape"/><path fill="#0f0f0f" d="M623.75,454.38c-5.31,6.54-12.99,9.1-17.15,5.72c-4.16-3.38-3.23-11.42,2.08-17.95s12.99-9.1,17.15-5.72
				C629.99,439.81,629.06,447.85,623.75,454.38z" class="color080717 svgShape"/><path fill="#0f0f0f" d="M765.39,506.84c-1.8,0-3.45-1.2-3.95-3.02c-5.39-19.73-27.93-26.9-28.15-26.97
					c-2.16-0.67-3.38-2.96-2.71-5.12c0.66-2.16,2.96-3.37,5.11-2.72c1.1,0.34,27.07,8.5,33.67,32.65c0.6,2.19-0.69,4.44-2.88,5.04
					C766.11,506.79,765.75,506.84,765.39,506.84z" class="color080717 svgShape"/><path fill="#0f0f0f" d="M648.21,578.27c-0.14,0-0.28-0.01-0.42-0.02c-2.4-0.24-58.88-6.18-77.91-25.86
					c-1.57-1.63-1.53-4.22,0.1-5.8c1.63-1.57,4.22-1.53,5.8,0.1c16.97,17.54,72.28,23.34,72.84,23.4c2.25,0.23,3.9,2.24,3.67,4.49
					C652.07,576.7,650.29,578.27,648.21,578.27z" class="color080717 svgShape"/><path fill="#0f0f0f" d="M614.98,501.81c-1.04,0-2.08-0.39-2.88-1.18c-1.61-1.59-1.63-4.19-0.04-5.8l51.73-52.44
					c-7.07-9-31.99-35.98-63.24-16.08c-1.91,1.22-4.44,0.66-5.66-1.25c-1.22-1.91-0.66-4.44,1.25-5.66
					c43.05-27.46,76.1,20.59,76.42,21.08c1.09,1.62,0.89,3.78-0.48,5.17l-54.2,54.93C617.1,501.4,616.04,501.81,614.98,501.81z" class="color080717 svgShape"/><path fill="#0f0f0f" d="M841.04,506.63l-55.59,111.4c-1.75,3.5-1.73,7.63,0.05,11.12l0,0c3.48,6.81,12.26,8.84,18.38,4.24
				l59.41-44.63L841.04,506.63z" class="color080717 svgShape"/><g class="color000000 svgShape"><path fill="#0f0f0f" d="M830.45,650.02c-0.47,0-0.95-0.08-1.42-0.26c-2.12-0.78-3.21-3.14-2.43-5.26
					c0.39-1.05,9.77-25.84,33.62-30.91c2.21-0.46,4.39,0.95,4.86,3.16c0.47,2.21-0.94,4.39-3.16,4.87
					c-19.37,4.12-27.55,25.51-27.63,25.73C833.68,649,832.11,650.02,830.45,650.02z" class="color080717 svgShape"/></g><path fill="#0f0f0f" d="M896.32,426.34c24.48,40.65,35.74,89.57,28.59,139.93l-3.42,24.08c-8.61,1.59-17.61,1.9-26.76,0.6
				c-45.42-6.45-77.01-48.5-70.56-93.92C829.57,459.01,859.94,430.78,896.32,426.34z" class="color080717 svgShape"/></g><path fill="#0f0f0f" d="M376.55,953.43c6.75-5.06,152.36-71.48,256.89-118.9c67.19-30.48,143.96-31.95,212.27-4.05h0
			c52.57,21.47,96.96,59.07,126.8,107.38l9.62,15.57H376.55z" class="color080717 svgShape"/><g fill="#ecedff" class="color000000 svgShape"><path d="M57.64,704.49c-0.97,0-1.94-0.34-2.72-1.03c-1.69-1.5-1.85-4.08-0.36-5.77c1.91-2.15,47.96-52.47,162.24-23.99
			c2.19,0.55,3.53,2.78,2.99,4.97c-0.55,2.19-2.79,3.52-4.97,2.99c-57.11-14.24-95.99-7.62-118.56,0.45
			c-24.35,8.7-35.44,20.9-35.55,21.02C59.89,704.03,58.77,704.49,57.64,704.49z" class="color000000 svgShape"/></g></svg>