<svg xmlns="http://www.w3.org/2000/svg" enable-background="new 0 0 887.31 959.55" viewBox="0 0 887.31 959.55"><path fill="#fff" d="M503.24,951.81l-3.64-38.18l0,0c-22.87-22.87-30.95-56.63-20.92-87.38l11.83-36.25l-83.62-101.8
			c-24.67-30.04-26.1-72.9-3.48-104.5l94.37-131.85l89.08,45.45l-63.63,145.44l279.64,184.9c34.27,22.66,59.42,56.7,71.01,96.11
			l9.32,31.69L503.24,951.81z" class="colorffffff svgShape"/><path fill="#8aa2ff" d="M883.2,959.55c-1.77,0-3.41-1.16-3.93-2.95l-9.32-31.69c-11.3-38.43-35.93-71.76-69.34-93.85l-279.63-184.9
			c-1.66-1.1-2.29-3.24-1.49-5.06l62.08-141.9l-82.5-42.09L406.75,586.1c-21.51,30.04-20.15,70.96,3.31,99.51l83.62,101.79
			c0.89,1.08,1.17,2.54,0.73,3.87l-11.83,36.25c-9.6,29.43-1.97,61.31,19.92,83.2c0.67,0.67,1.09,1.56,1.18,2.51l3.64,38.18
			c0.22,2.25-1.44,4.26-3.69,4.47c-2.31,0.21-4.26-1.44-4.47-3.69l-3.5-36.73c-23.28-24.05-31.28-58.58-20.87-90.48l11.13-34.11
			l-82.19-100.06c-25.81-31.41-27.3-76.44-3.64-109.49l94.36-131.85c1.18-1.65,3.39-2.19,5.2-1.27l89.09,45.45
			c1.93,0.98,2.76,3.31,1.89,5.3l-62.25,142.28l276.76,182.99c35.02,23.16,60.84,58.1,72.68,98.38l9.32,31.69
			c0.64,2.17-0.6,4.45-2.77,5.09C883.98,959.5,883.58,959.55,883.2,959.55z" class="color000000 svgShape"/><circle cx="791.81" cy="725.06" r="51.69" fill="#1c1c1c" class="color080717 svgShape" transform="rotate(-45.001 791.803 725.072)"/><circle cx="744.59" cy="608.8" r="122.74" fill="#1c1c1c" class="color080717 svgShape" transform="rotate(-45.001 744.585 608.815)"/><circle cx="744.2" cy="691.82" r="61.56" fill="#1c1c1c" class="color080717 svgShape" transform="rotate(-45.001 744.197 691.83)"/><circle cx="658.69" cy="634.88" r="61.56" fill="#1c1c1c" class="color080717 svgShape" transform="rotate(-82.322 658.707 634.902)"/><circle cx="829.34" cy="677.12" r="51.69" fill="#1c1c1c" class="color080717 svgShape" transform="rotate(-11.344 829.128 676.974)"/><circle cx="623.38" cy="612.91" r="51.69" fill="#1c1c1c" class="color080717 svgShape"/><path fill="#1c1c1c" d="M696.16,588.44c-15.82,23.76-47.91,30.2-71.67,14.37c-23.76-15.82-30.2-47.91-14.37-71.67
			c15.82-23.76,47.91-30.2,71.67-14.37C705.55,532.59,711.98,564.68,696.16,588.44z" class="color080717 svgShape"/><path fill="#fff" d="M613.95,702.76c0.96-1.86,2-3.68,3.18-5.46l88.53-132.96l93.28,62.11l-88.53,132.96
				c-1.18,1.78-2.47,3.45-3.81,5.04l35.52,23.65c-33.66,19.98-77.18,20.27-111.94-2.87c-34.76-23.14-51.27-63.41-45.82-102.17
				L613.95,702.76z" class="colorffffff svgShape"/><path fill="#1c1c1c" d="M688.47,806.84c-21.2,0-42.37-6.09-60.56-18.2c-34.74-23.13-53.42-64.8-47.61-106.16
				c0.2-1.4,1.1-2.59,2.38-3.17c1.29-0.58,2.78-0.45,3.95,0.33l25.89,17.24c0.39-0.64,0.79-1.26,1.19-1.87l88.53-132.96
				c0.6-0.9,1.54-1.53,2.61-1.75c1.05-0.21,2.17,0.01,3.08,0.61l93.29,62.11c0.9,0.6,1.53,1.54,1.75,2.61
				c0.21,1.07,0,2.17-0.61,3.08l-88.54,132.96c-0.4,0.6-0.82,1.21-1.26,1.81l31.84,21.2c1.17,0.78,1.86,2.11,1.83,3.52
				c-0.04,1.41-0.8,2.7-2.01,3.42C727.11,801.79,707.78,806.84,688.47,806.84z M587.72,690.22c-2.64,36.03,14.45,71.43,44.74,91.6
				c30.29,20.17,69.54,22.29,101.77,5.95l-29.9-19.91c-0.97-0.65-1.62-1.68-1.79-2.83c-0.16-1.16,0.17-2.33,0.92-3.22
				c1.37-1.64,2.53-3.17,3.54-4.68l86.26-129.55l-86.46-57.57l-86.26,129.55c-1,1.51-1.97,3.17-2.95,5.07
				c-0.53,1.04-1.49,1.8-2.61,2.09c-1.13,0.29-2.33,0.09-3.3-0.55L587.72,690.22z" class="color080717 svgShape"/><path fill="#fff" d="M650.33,547.37c3.58,2.38,6.29,5.57,8.09,9.16c31.98-37.8,87.92-46.45,130.13-18.35
				c41.32,27.52,55.23,80.76,34.64,124.35c0.25,0.15,0.5,0.28,0.74,0.44c11,7.32,13.97,22.17,6.65,33.17
				c-7.32,11-22.17,13.97-33.17,6.65c-1.53-1.02-2.89-2.2-4.1-3.47c-32.58,24.59-78.41,27.29-114.32,3.38
				c-37.37-24.89-52.3-70.81-39.59-111.62c-5.31,0.53-10.82-0.71-15.6-3.89c-11-7.32-13.97-22.17-6.65-33.17
				C624.48,543.03,639.33,540.05,650.33,547.37z" class="colorffffff svgShape"/><path fill="#1c1c1c" d="M733.76,723.34c-19.85,0-39.74-5.72-57.03-17.23c-36.24-24.13-53.32-69.13-42.72-110.98
				c-4.43-0.49-8.72-2.03-12.47-4.52c-6.23-4.15-10.47-10.48-11.94-17.81c-1.47-7.34,0-14.81,4.15-21.04
				c4.14-6.23,10.47-10.47,17.81-11.94c7.32-1.47,14.81,0,21.04,4.15v0c2.4,1.6,4.54,3.57,6.34,5.82
				c34.17-36.32,89.88-42.98,131.88-15.02c41.21,27.44,56.96,81.23,37.5,126.35c11.1,9,13.74,25.17,5.67,37.29
				c-8.56,12.86-25.99,16.36-38.85,7.79c-0.73-0.49-1.45-1.02-2.14-1.59C775.32,717.07,754.56,723.34,733.76,723.34z M639.41,586.98
				c1.23,0,2.39,0.55,3.18,1.51c0.87,1.07,1.15,2.5,0.74,3.81c-12.41,39.85,3.19,83.84,37.95,106.99
				c33.45,22.28,77.49,20.98,109.57-3.24c1.66-1.25,4.01-1.07,5.45,0.45c1.06,1.12,2.2,2.08,3.4,2.88
				c9.09,6.05,21.42,3.58,27.48-5.51c6.05-9.1,3.58-21.43-5.51-27.48c-0.04-0.02-0.58-0.33-0.61-0.36
				c-1.79-1.09-2.46-3.36-1.57-5.25c19.88-42.1,5.61-93.34-33.21-119.19c-40.06-26.68-93.69-19.12-124.73,17.58
				c-0.89,1.05-2.23,1.57-3.62,1.42c-1.37-0.16-2.56-1-3.18-2.23c-1.54-3.07-3.86-5.69-6.7-7.58c-4.4-2.93-9.69-3.99-14.88-2.93
				c-5.19,1.04-9.67,4.04-12.6,8.44c-2.93,4.41-3.98,9.69-2.93,14.88c1.04,5.19,4.04,9.67,8.45,12.6c3.85,2.56,8.31,3.67,12.92,3.22
				C639.14,586.98,639.28,586.98,639.41,586.98z" class="color080717 svgShape"/><path fill="#1c1c1c" d="M812.61,506.64c37.78,25.16,57.08,67.63,54.45,109.89c-17.12,1.51-34.85-2.56-50.27-12.83
			c-35.55-23.67-45.5-71.33-22.74-107.21C800.42,499.31,806.63,502.66,812.61,506.64z" class="color080717 svgShape"/><path fill="#1c1c1c" d="M734.7,649.73c-1.44,0-2.92-0.17-4.4-0.52c-8.04-1.91-13.47-8.48-13.84-16.73l-0.62-13.57
				c-0.08-1.69,0.89-3.25,2.44-3.94c1.54-0.68,3.35-0.35,4.56,0.85c3.61,3.61,19.26,10.05,28.28,13.27
				c1.14,0.41,2.04,1.29,2.46,2.42c0.42,1.13,0.32,2.39-0.26,3.45l-3.12,5.54C746.9,646.37,741.09,649.73,734.7,649.73z
				 M724.4,626.57l0.25,5.54c0.25,5.46,4.06,8.29,7.55,9.12c3.47,0.83,8.17,0.02,10.85-4.75l0.76-1.35
				C738.75,633.19,730.64,629.92,724.4,626.57z" class="color080717 svgShape"/><path fill="#e8f4fa" d="M787.46,644.95c-7.64,0-15.12-2.25-21.63-6.58c-8.71-5.8-14.64-14.64-16.7-24.9
				c-2.06-10.26,0-20.71,5.8-29.42l0,0c11.98-17.98,36.35-22.87,54.32-10.9c8.71,5.8,14.64,14.64,16.7,24.9
				c2.05,10.26,0,20.71-5.81,29.41c-5.8,8.71-14.64,14.64-24.9,16.7C792.65,644.69,790.05,644.95,787.46,644.95z M761.76,588.59
				c-4.58,6.89-6.21,15.15-4.58,23.26c1.63,8.11,6.32,15.1,13.2,19.69c6.89,4.59,15.15,6.21,23.26,4.59
				c8.11-1.63,15.11-6.32,19.69-13.2c4.58-6.89,6.21-15.15,4.58-23.26c-1.63-8.11-6.31-15.1-13.2-19.69
				C790.5,570.52,771.23,574.38,761.76,588.59L761.76,588.59z" class="colorff6700 svgShape"/><path fill="#e8f4fa" d="M708.43,592.32c-7.65,0-15.12-2.25-21.63-6.58c-17.97-11.97-22.86-36.34-10.89-54.32l0,0
				c11.98-17.98,36.34-22.86,54.32-10.9c8.71,5.8,14.64,14.64,16.7,24.9c2.05,10.26,0,20.71-5.81,29.42
				c-5.8,8.71-14.64,14.64-24.9,16.7C713.62,592.07,711.02,592.32,708.43,592.32z M682.73,535.97c-9.46,14.21-5.6,33.48,8.62,42.95
				c6.89,4.59,15.15,6.2,23.26,4.59c8.11-1.63,15.11-6.32,19.69-13.2c4.58-6.89,6.21-15.15,4.58-23.26
				c-1.63-8.11-6.31-15.1-13.2-19.69C711.47,517.89,692.2,521.75,682.73,535.97L682.73,535.97z" class="colorff6700 svgShape"/><path fill="#e8f4fa" d="M821.41,664.21c-1.91,0-3.62-1.35-4.02-3.29l-6.49-32.37c-0.44-2.22,0.99-4.38,3.22-4.83
				c2.21-0.44,4.38,0.99,4.83,3.21l6.49,32.37c0.44,2.22-0.99,4.38-3.22,4.83C821.95,664.18,821.68,664.21,821.41,664.21z" class="colorff6700 svgShape"/><path fill="#e8f4fa" d="M757.05,589.56c-0.78,0-1.57-0.22-2.27-0.69l-18.14-12.08c-1.89-1.26-2.4-3.8-1.14-5.69
				c1.25-1.89,3.8-2.39,5.68-1.14l18.14,12.08c1.89,1.26,2.4,3.8,1.14,5.69C759.68,588.92,758.37,589.56,757.05,589.56z" class="colorff6700 svgShape"/><path fill="#1c1c1c" d="M781.46,593.74c-3.1,4.65-2.42,10.55,1.52,13.17c3.94,2.62,9.64,0.97,12.73-3.68
			c3.1-4.65,2.42-10.55-1.52-13.17C790.26,587.44,784.56,589.08,781.46,593.74z" class="color080717 svgShape"/><path fill="#1c1c1c" d="M711.5,547.15c-3.1,4.65-2.42,10.55,1.52,13.17c3.94,2.62,9.64,0.97,12.73-3.68
			c3.1-4.65,2.42-10.55-1.52-13.17S714.6,542.5,711.5,547.15z" class="color080717 svgShape"/><g fill="#8aa2ff" class="color000000 svgShape"><rect width="55.39" height="318.14" x="119.54" y="465.81" class="color000000 svgShape" transform="rotate(-55.882 147.257 624.894)"/><rect width="124.79" height="294.85" x="135.36" y="402.86" class="color000000 svgShape" transform="rotate(-55.882 197.783 550.304)"/><rect width="124.79" height="294.85" x="135.36" y="402.86" class="color000000 svgShape" transform="rotate(-55.882 197.783 550.304)"/><path fill="#e8f4fa" d="M316.25,557.62c6.44-9.5,24-47.04,17.43-51.49l-145.35-98.47c-6.57-4.45-34.89,25.79-41.33,35.3
				L316.25,557.62z" class="colorff6700 svgShape"/><path fill="#e8f4fa" d="M337.26,382.99c89.49,6.35,180.11-34.13,234.39-114.25c15.16-22.38,34.06-57.64,41.52-82.22L381.51,29.59
				c-20.05,16.04-45.8,46.67-60.96,69.05c-54.28,80.12-58.24,179.31-19.16,260.05l-58.01,85.63L337.26,382.99z" class="colorff6700 svgShape"/><path fill="#fff" d="M342.86,200.39l-15.6-5.06c7.54-23.24,18.36-45.35,32.17-65.74c9.18-13.55,19.69-26.29,31.24-37.88
					l11.61,11.58c-10.82,10.86-20.67,22.8-29.27,35.5C360.07,157.9,349.92,178.63,342.86,200.39z" class="colorffffff svgShape"/><rect width="16.4" height="131.36" x="185.13" y="491.15" fill="#fff" class="colorffffff svgShape" transform="rotate(-55.882 193.356 556.843)"/><rect width="50.25" height="146.19" x="262.01" y="345.25" fill="#e8f4fa" class="colorff6700 svgShape" transform="rotate(34.116 287.114 418.311)"/><g class="color000000 svgShape"><path fill="#e8f4fa" d="M500.44,418.74c-15.54,0-31.24-3.02-46.23-9.32l-82.18-34.55l7.94-18.9l82.18,34.55
					c43.53,18.3,94.34,3.21,120.81-35.88l61.99-91.51l-96.16-65.14l11.5-16.97l113.13,76.64l-73.49,108.49
					C577.12,399.83,539.32,418.74,500.44,418.74z" class="colorff6700 svgShape"/><path fill="#e8f4fa" d="M296.03,323.38l-62.57-63.5c-39.97-40.57-45.8-104.24-13.85-151.39L293.09,0l113.14,76.64l-11.5,16.97
					l-96.16-65.14l-61.99,91.51c-26.48,39.09-21.65,91.87,11.49,125.5l62.57,63.51L296.03,323.38z" class="colorff6700 svgShape"/></g></g><g fill="#8aa2ff" class="color000000 svgShape"><path fill="#fff" d="M572.17,536.4c0.22-0.57,26.95-64.6,44.56-81.92c0.14-0.14,0.24-0.31,0.3-0.49
			c6.33-2.21,13.19-6.33,19.02-13.88c1.95-2.53,4.33-5.56,7-8.96c18.7-23.82,50.01-63.69,49.87-78.07
			c-0.13-12.14-6.35-27.48-13.88-34.19c-2.99-2.67-6.01-3.88-8.93-3.57c-3.36,0.35-10.17,4.48-17.94,10.57
			c-1.68-15.01-35.97-41.39-51.26-44.65c-13.63-2.91-25.18,0.16-32.51,8.63c-6.3,7.28-9.24,15.72-9.36,16.08
			c-0.19,0.55,0.01,1.14,0.47,1.47c0.1,0.07,0.21,0.13,0.33,0.17c0.04,0.01,0.08,0.01,0.11,0.01c-7.26,1.65-11.41,6.27-14.16,9.36
			c-5.85,6.57-2.99,17.83-2.88,18.21c0.02,0.09,0.07,0.16,0.11,0.24c-5.25,0.49-9.99,1.95-13.52,4.37
			c-8.19,5.59-5.99,20.8-5.47,23.78c-1.24,2.23-6.24,12.28-1.77,22.61c3.15,7.29,6.09,11.71,10.04,15.87c0,0-0.01,0.01-0.01,0.01
			l-50.08,69.78c-0.21,0.29,0.26-0.11,0.33,0.24c0.06,0.32,0.45,0.32,0.72,0.51c0.02,0.02,0.04,0.03,0.07,0.05l87.91,63.09
			c0.33,0.2,0.42,0.69,0.79,0.56C572.37,536.16,572.03,536.76,572.17,536.4z" class="colorffffff svgShape"/><path d="M483.24,476.68c-0.83,0-1.66-0.25-2.39-0.77c-1.84-1.32-2.26-3.88-0.94-5.72l50.08-69.78c1.32-1.84,3.88-2.26,5.72-0.94
					c1.84,1.32,2.26,3.88,0.94,5.72l-50.08,69.78C485.77,476.08,484.51,476.68,483.24,476.68z" class="color000000 svgShape"/><path d="M650.94,330.64c-2.16,0-3.96-1.69-4.09-3.87c-0.65-11.39-32.65-37.19-47.08-40.27c-14.9-3.18-23.07,1.99-27.31,6.89
					c-5.57,6.45-8.31,14.23-8.34,14.31c-0.74,2.14-3.09,3.27-5.21,2.53c-2.14-0.74-3.28-3.06-2.54-5.21c0.13-0.38,3.25-9.32,9.89-17
					c8.03-9.29,20.55-12.68,35.23-9.54c14.93,3.19,52.58,30.64,53.55,47.82c0.13,2.26-1.6,4.2-3.86,4.33
					C651.1,330.64,651.02,330.64,650.94,330.64z" class="color000000 svgShape"/><path d="M629.48,351.71c-1.15,0-2.29-0.48-3.11-1.42c-14.07-16.33-29.92-28.06-47.09-34.86c-18.42-7.3-24.81-0.12-29.49,5.13
					c-3.86,4.34-2.25,10.83-2.23,10.89c0.56,2.18-0.74,4.42-2.92,5c-2.2,0.58-4.41-0.7-5.01-2.87c-0.12-0.44-2.83-10.77,4.02-18.47
					c4.83-5.43,14.86-16.73,38.64-7.3c18.42,7.3,35.33,19.79,50.28,37.13c1.48,1.71,1.29,4.3-0.43,5.78
					C631.38,351.38,630.43,351.71,629.48,351.71z" class="color000000 svgShape"/><path d="M538.92,410.6c-0.95,0-1.9-0.33-2.68-0.99c-7.49-6.46-11.88-11.45-16.58-22.32c-5.13-11.86-2.57-42.44,8.24-49.82
					c10.3-7.04,26.2-5.91,37.42-1.67c17.17,6.5,40.3,17.64,52.96,33.82c1.4,1.78,1.09,4.36-0.7,5.76c-1.78,1.4-4.36,1.08-5.75-0.7
					c-11.5-14.68-33.22-25.07-49.42-31.2c-10.72-4.06-23.29-3.74-29.88,0.77c-6.18,4.22-9.63,29.89-5.34,39.8
					c4.11,9.52,7.62,13.51,14.41,19.36c1.71,1.48,1.91,4.07,0.42,5.78C541.21,410.12,540.06,410.6,538.92,410.6z" class="color000000 svgShape"/><path d="M603.05,459.23c-3.62,0-5.99-0.44-6.29-0.5c-2.22-0.43-3.67-2.59-3.24-4.81c0.43-2.22,2.58-3.68,4.8-3.24
					c0.86,0.16,20.06,3.5,33.45-13.87c1.96-2.54,4.36-5.59,7.04-9.02c15.85-20.18,48.84-62.19,48.71-74.67
					c-0.11-10.64-5.64-24.48-12.07-30.22c-1.25-1.12-3.06-2.4-4.79-2.23c-4.23,0.44-25.44,15.42-40.85,34.49
					c-8.39,10.38-12.67,19.29-12.05,25.06c0.03,0.26,0.19,1.57,0.62,1.73c5.76,2.11,29.21-15.05,47.55-32.4
					c1.65-1.55,4.24-1.48,5.8,0.16c1.55,1.65,1.49,4.24-0.16,5.8c-9.77,9.25-42.73,39.05-56.02,34.14
					c-1.95-0.72-5.33-2.79-5.95-8.55c-0.89-8.19,3.77-18.65,13.83-31.09c14.27-17.66,37.68-36.58,46.38-37.49
					c2.57-0.26,6.6,0.26,11.09,4.27c8.17,7.29,14.68,23.21,14.82,36.26c0.14,14.18-24.85,47.21-50.46,79.82
					c-2.67,3.4-5.05,6.43-7,8.96C626.67,456.86,611.48,459.23,603.05,459.23z" class="color000000 svgShape"/><path d="M571.15,539.77c-0.52,0-1.06-0.1-1.57-0.31c-2.09-0.86-3.08-3.26-2.22-5.36c1.1-2.66,27.18-65.36,45.58-83.47
					c1.61-1.59,4.2-1.57,5.8,0.04c1.59,1.61,1.57,4.21-0.05,5.8c-17.21,16.95-43.49,80.13-43.75,80.76
					C574.29,538.82,572.76,539.77,571.15,539.77z" class="color000000 svgShape"/></g><g fill="#8aa2ff" class="color000000 svgShape"><path fill="#e8f4fa" d="M500.59,418.75c-15.71,0-31.49-3.07-46.38-9.33l-82.18-34.55c-5.22-2.19-7.67-8.2-5.48-13.42
			c2.19-5.22,8.2-7.67,13.42-5.48l82.18,34.55c32.62,13.71,70.39,8.96,98.58-12.41c4.51-3.42,10.94-2.53,14.36,1.98
			c3.42,4.51,2.53,10.94-1.98,14.36C551.99,410.47,526.38,418.75,500.59,418.75z" class="colorff6700 svgShape"/></g><g fill="#8aa2ff" class="color000000 svgShape"><polygon fill="#e8f4fa" points="644.92 299.76 627.94 288.26 644.97 263.13 548.8 197.99 560.3 181.01 673.44 257.66" class="colorff6700 svgShape"/></g><g fill="#8aa2ff" class="color000000 svgShape"><path fill="#fff" d="M505.05,673.65l18.18-30.91L505.05,673.65z" class="colorffffff svgShape"/><path d="M505.05,677.75c-0.7,0-1.42-0.18-2.07-0.57c-1.95-1.15-2.6-3.66-1.46-5.61l18.18-30.91c1.15-1.95,3.66-2.6,5.61-1.46
			c1.95,1.15,2.6,3.66,1.46,5.61l-18.18,30.9C507.82,677.03,506.45,677.75,505.05,677.75z" class="color000000 svgShape"/></g><g fill="#8aa2ff" class="color000000 svgShape"><path fill="#fff" d="M468.69,495.49c0,0,50.9-7.27,90.9,54.54L468.69,495.49z" class="colorffffff svgShape"/><path d="M559.6,554.13c-1.35,0-2.66-0.66-3.45-1.87c-37.96-58.67-84.89-52.98-86.89-52.71c-2.26,0.32-4.31-1.26-4.62-3.49
			c-0.31-2.24,1.24-4.31,3.48-4.62c2.19-0.32,53.98-6.91,94.92,56.37c1.23,1.9,0.68,4.44-1.22,5.67
			C561.13,553.92,560.36,554.13,559.6,554.13z" class="color000000 svgShape"/></g><g fill="#8aa2ff" class="color000000 svgShape"><path d="M613.07,405.63c-5.08,0-10.16-2.29-13.85-6.46c-18.65-21.05-46.62-21.39-46.9-21.39c-2.26-0.01-4.09-1.85-4.09-4.11
			c0-2.26,1.83-4.09,4.1-4.09c1.29,0,31.87,0.27,53.03,24.15c2.78,3.13,6.82,4.43,10.29,3.29c4.58-1.5,5.81-3.99,4.37-8.89
			c-0.64-2.17,0.61-4.45,2.78-5.09c2.18-0.64,4.45,0.61,5.09,2.78c2.69,9.17-0.85,16.09-9.69,18.98
			C616.53,405.36,614.8,405.63,613.07,405.63z" class="color000000 svgShape"/></g></svg>