<svg xmlns="http://www.w3.org/2000/svg" enable-background="new 0 0 1153.06 975.72" viewBox="0 0 1153.06 975.72"><path fill="#1c1c1c" d="M793.55,855.02l250.4,108.46c25,10.42,42.95-15.22,66.71-27.35l0,0c36.88-18.83,47.51-58.1,23.67-87.44
		L940.04,609.54c-38.89-47.86-99.43-81.83-168.94-94.78L570.56,489.7v449.33h224.96L793.55,855.02z" class="color080717 svgShape"/><path fill="#1c1c1c" d="M327.56,868.41l-135.69,70.5c-57.13,25.47-136.94,9.36-160.7-2.77l26.8,10.39
		c-36.88-18.83-74.31-68.48-50.46-97.83l194.29-239.15c38.89-47.86,99.43-81.83,168.94-94.78l200.54-37.36v461.63H324.88
		L327.56,868.41z" class="color080717 svgShape"/><path fill="#fff" d="M573.06,913.93L573.06,913.93c-27.08-23.65-61.35-37.45-97.26-39.18l-209.02-10.06l6.97,39L573.06,913.93z" class="colorffffff svgShape"/><path fill="#1c1c1c" d="M573.05,918.03c-0.04,0-0.09,0-0.14,0l-299.32-10.23c-1.93-0.06-3.56-1.47-3.9-3.38l-6.96-39
			c-0.22-1.23,0.13-2.49,0.96-3.43c0.82-0.94,2.05-1.43,3.28-1.39l209.02,10.06c36.67,1.76,72.1,16.04,99.76,40.19
			c1.31,1.14,1.75,2.98,1.11,4.59C576.25,917.01,574.73,918.03,573.05,918.03z M277.19,899.71l283.73,9.7
			c-24.67-18.32-54.53-29.09-85.33-30.57l-203.89-9.81L277.19,899.71z" class="color080717 svgShape"/><path fill="#8aa2ff" d="M806.23,230.63c1.89-10.71-0.51-21.53-6.75-30.43c-4.92-7.03-11.8-12.11-19.72-14.92c1.36-1.44,2.72-2.88,3.88-4.53
				c6.24-8.91,8.64-19.72,6.75-30.43c-3.44-19.51-20.3-33.67-40.08-33.67c-0.09,0-0.19,0.02-0.28,0.02
				c4.89-11.41,4.68-24.86-1.99-36.42c-7.25-12.57-20.78-20.37-35.31-20.37c-4.83,0-9.6,0.94-14.11,2.62
				c0.11-1.97,0.23-3.94,0.06-5.93c-0.95-10.84-6.06-20.66-14.39-27.66c-7.33-6.15-16.62-9.53-26.17-9.53
				c-9.79,0-19,3.62-26.32,9.86c-3.55-11.96-12.4-22.19-24.99-26.77C602.31,0.83,597.62,0,592.87,0c-14.75,0-28.21,8.07-35.36,20.61
				c-7.43-9.95-19.2-16.5-32.55-16.5c-20.12,0-36.77,14.69-40.04,33.89c-6.52-4.3-14.24-6.81-22.38-6.81
				c-4.75,0-9.44,0.83-13.93,2.46c-10.22,3.73-18.39,11.2-22.99,21.07c-3.61,7.73-4.59,16.2-3.09,24.42
				c-3.05-0.72-6.19-1.15-9.4-1.15c-9.55,0-18.84,3.39-26.16,9.53c-8.34,7-13.45,16.81-14.4,27.66c-0.75,8.5,1.22,16.78,5.44,24
				c-12.66,1.5-24.09,8.88-30.54,20.05c-5.44,9.43-6.89,20.4-4.07,30.91c2.22,8.27,6.92,15.39,13.39,20.74
				c-11.2,5.62-19.6,16.17-21.91,29.24c-1.89,10.72,0.51,21.53,6.75,30.44c4.92,7.02,11.79,12.11,19.72,14.92
				c-8.54,9.05-12.95,21.79-10.63,34.96c3.44,19.51,20.29,33.67,40.08,33.67c0.09,0,0.19-0.02,0.28-0.02
				c-4.89,11.41-4.68,24.86,1.99,36.41c7.26,12.57,20.79,20.37,35.31,20.37c4.83,0,9.6-0.94,14.11-2.61
				c-0.11,1.97-0.23,3.94-0.06,5.93c0.95,10.84,6.06,20.66,14.39,27.66c7.33,6.15,16.62,9.53,26.17,9.53c9.79,0,19-3.63,26.31-9.86
				c3.55,11.96,12.4,22.19,24.99,26.77c4.49,1.64,9.18,2.46,13.93,2.46c14.75,0,28.21-8.07,35.37-20.61
				c7.43,9.95,19.2,16.5,32.55,16.5c20.12,0,36.77-14.69,40.04-33.89c6.52,4.3,14.24,6.81,22.38,6.81c4.75,0,9.44-0.83,13.94-2.47
				c10.22-3.72,18.38-11.2,22.98-21.06c3.6-7.73,4.59-16.2,3.09-24.43c3.05,0.72,6.19,1.15,9.39,1.15c9.55,0,18.84-3.39,26.17-9.53
				c15.39-12.92,18.71-34.84,8.92-51.65c12.68-1.49,24.11-8.87,30.57-20.06c5.44-9.42,6.89-20.4,4.07-30.91
				c-2.22-8.27-6.93-15.39-13.4-20.74C795.52,254.26,803.92,243.71,806.23,230.63z" class="color000000 svgShape"/><path fill="#fff" d="M607.17,497.01c0.35-2.45,0.6-4.94,0.6-7.49V298.75c0-28.95-23.44-52.41-52.37-52.48
						c-28.93,0.07-52.37,23.53-52.37,52.48v190.77c0,2.05-0.11,6.43,0.12,8.42c-16.84,1.3-30.41,2.22-34.25,3.4
						c-0.54,0.16-0.72,0.79-0.37,1.23c3.08,3.87,14.69,15.63,19.83,19.74c27.36,21.92,62.25,29.9,94.65,22.62
						c17.62-3.94,33.93-12.94,49.36-23.44c6.37-4.35,12.84-8.75,18.79-13.87c0.85-0.72,1.68-1.46,2.51-2.21
						c0.53-0.49,1.01-1.03,1.53-1.54C640.4,500.99,624.25,498.69,607.17,497.01z" class="colorffffff svgShape"/><path fill="#8aa2ff" d="M559.08,551.67c-26.13,0-51.9-9.05-73.28-26.18c-5.28-4.2-17.07-16.09-20.48-20.38c-1.02-1.29-1.33-2.97-0.85-4.51
						c0.48-1.53,1.69-2.73,3.24-3.2c3.67-1.12,12.69-1.85,29.66-3.14l1.54-0.12c0-0.95,0-1.98,0.01-3.06l0.01-1.57V298.75
						c0-31.13,25.33-56.51,56.46-56.58c31.15,0.07,56.48,25.45,56.48,56.58v190.77c0,1.24-0.05,2.5-0.16,3.83
						c15.75,1.66,30.63,3.84,44.28,6.48c1.5,0.29,2.71,1.39,3.15,2.86c0.44,1.47,0.02,3.05-1.07,4.11l-0.55,0.56
						c-0.35,0.36-0.7,0.72-1.06,1.05c-0.88,0.79-1.74,1.57-2.63,2.32c-5.99,5.15-12.49,9.59-18.78,13.88l-0.36,0.24
						c-18.98,12.91-35.11,20.55-50.78,24.05C575.68,550.76,567.36,551.67,559.08,551.67z M475.62,504.36
						c4.62,4.9,11.63,11.82,15.29,14.73c26.22,21,59.45,28.95,91.2,21.83c14.63-3.27,29.86-10.53,47.95-22.83l0.35-0.24
						c5.31-3.62,10.77-7.35,15.83-11.47c-12.33-2.14-25.57-3.92-39.49-5.29c-1.11-0.11-2.13-0.67-2.82-1.55
						c-0.69-0.88-0.99-2.01-0.83-3.12c0.38-2.63,0.56-4.83,0.56-6.9V298.75c0-26.62-21.65-48.32-48.27-48.38
						c-26.6,0.06-48.26,21.77-48.26,48.38l-0.01,192.41c-0.02,1.99-0.04,5,0.1,6.3c0.13,1.11-0.2,2.22-0.91,3.08
						c-0.71,0.86-1.74,1.39-2.85,1.48l-5.48,0.42C489.35,503.1,481.04,503.74,475.62,504.36z" class="color000000 svgShape"/><path fill="#fff" d="M555.27,246.26c0.04,0,0.08,0.01,0.12,0.01c0.04,0,0.08-0.01,0.12-0.01H555.27z" class="colorffffff svgShape"/><path fill="#8aa2ff" d="M555.52,250.36c-0.13,0-0.45,0-0.58-0.02c-2.17-0.21-3.83-2.1-3.72-4.28c0.1-2.09,1.72-3.74,3.77-3.89l0,0
						c0.01,0,0,0,0.02,0c0,0,0,0,0,0c0,0,0,0,0.01,0l0,0c0.07,0,0.14-0.01,0.2-0.01l0,0c0,0,0.01,0,0.01,0l0,0c0,0,0.01,0,0.01,0
						l0,0c0.01,0,0.01,0,0.02,0l0,0c0,0,0.01,0,0.01,0l0,0c0,0,0.01,0,0.01,0h0.24c2.27,0,4.1,1.83,4.1,4.1
						C559.62,248.53,557.78,250.36,555.52,250.36z" class="color000000 svgShape"/><path fill="#fff" d="M473.26,274.7c6.53,24.04,1.59,46.3-11.02,49.72c-12.61,3.42-28.13-13.29-34.65-37.33
					c-6.53-24.04-1.59-46.3,11.02-49.72C451.22,233.95,466.74,250.66,473.26,274.7z" class="colorffffff svgShape"/><path fill="#8aa2ff" d="M458.84,328.97c-6.37,0-13.04-3.48-19.21-10.13c-6.99-7.53-12.67-18.42-16-30.68c-7.23-26.62-1.12-50.68,13.91-54.75
					c15.02-4.1,32.45,13.59,39.68,40.21l0,0c7.23,26.62,1.12,50.68-13.91,54.75C461.85,328.78,460.35,328.97,458.84,328.97z
					 M441.84,241.05c-0.75,0-1.47,0.09-2.15,0.28c-8.93,2.43-14.47,21.37-8.14,44.69c2.99,11,7.99,20.67,14.09,27.24
					c5.37,5.79,11.01,8.4,15.53,7.2c8.93-2.42,14.47-21.38,8.14-44.69l0,0C463.46,254.25,450.78,241.05,441.84,241.05z" class="color000000 svgShape"/><ellipse cx="655.2" cy="280.89" fill="#fff" class="colorffffff svgShape" rx="45.1" ry="23.66" transform="rotate(-74.812 655.194 280.883)"/><path fill="#8aa2ff" d="M646.72,328.96c-1.48,0-2.96-0.19-4.4-0.58c-7.64-2.07-13.19-9.25-15.62-20.2c-2.22-10.03-1.61-22.3,1.71-34.55
					c3.32-12.25,9.01-23.15,15.99-30.68c7.64-8.22,16.06-11.61,23.68-9.53c15.02,4.08,21.13,28.13,13.91,54.75
					C675.47,312.22,660.61,328.96,646.72,328.96z M663.69,241.03c-4.05,0-8.76,2.63-13.27,7.49c-6.1,6.57-11.11,16.25-14.09,27.24
					l0,0c-2.98,11-3.56,21.88-1.62,30.63c1.71,7.72,5.27,12.84,9.76,14.06c8.94,2.39,23.29-11.13,29.62-34.44
					c6.33-23.32,0.79-42.27-8.14-44.69C665.22,241.13,664.47,241.03,663.69,241.03z M632.37,274.7h0.04H632.37z" class="color000000 svgShape"/><path fill="#fff" d="M553.1,453.24L553.1,453.24c-54.46,0-98.61-63.96-98.61-118.42V217.8c0-54.46,62.5-23.72,98.61-98.61l0,0
					c16.6,55.12,98.61,44.15,98.61,98.61v117.03C651.7,389.28,607.56,453.24,553.1,453.24z" class="colorffffff svgShape"/><path fill="#8aa2ff" d="M553.1,457.34c-56.89,0-102.7-67.02-102.7-122.52V217.8c0-29.33,17.1-36.51,36.89-44.84
					c19.74-8.3,44.32-18.64,62.12-55.55c0.73-1.52,2.32-2.41,4.01-2.31c1.69,0.13,3.12,1.29,3.6,2.91
					c7.48,24.83,29.57,35.51,50.92,45.84c23.53,11.38,47.86,23.15,47.86,53.94v117.03C655.81,390.32,609.99,457.34,553.1,457.34z
					 M552.55,129.13c-18.64,33.12-42.57,43.19-62.08,51.39c-19.2,8.07-31.87,13.41-31.87,37.28v117.03
					c0,51.78,42.16,114.32,94.5,114.32c52.35,0,94.51-62.54,94.51-114.32V217.8c0-25.65-20.03-35.34-43.23-46.56
					C584.89,161.82,563.1,151.28,552.55,129.13z" class="color000000 svgShape"/><path fill="#8aa2ff" d="M489.33,278.66c2.59,6.61,8.53,10.45,13.29,8.59c4.75-1.86,6.51-8.72,3.93-15.33c-2.59-6.61-8.53-10.45-13.29-8.59
				C488.5,265.19,486.74,272.06,489.33,278.66z" class="color000000 svgShape"/><g fill="#8aa2ff" class="color000000 svgShape"><path d="M521.86,257.45c-0.88,0-1.76-0.28-2.51-0.86c-4.49-3.48-10.71-5.65-17.52-6.14c-8.32-0.58-16.14,1.49-21.04,5.55
					c-1.75,1.44-4.33,1.2-5.77-0.54c-1.44-1.75-1.2-4.33,0.54-5.77c6.49-5.37,16.53-8.18,26.84-7.41c8.41,0.59,16.2,3.38,21.96,7.83
					c1.79,1.39,2.12,3.96,0.73,5.75C524.3,256.9,523.09,257.45,521.86,257.45z" class="color000000 svgShape"/></g><path fill="#8aa2ff" d="M594.96,278.66c2.59,6.61,8.53,10.45,13.29,8.59c4.75-1.86,6.51-8.72,3.93-15.33c-2.59-6.61-8.53-10.45-13.29-8.59
				C594.13,265.19,592.37,272.06,594.96,278.66z" class="color000000 svgShape"/><g fill="#8aa2ff" class="color000000 svgShape"><path d="M627.49,257.45c-0.88,0-1.76-0.28-2.5-0.86c-4.5-3.48-10.72-5.65-17.53-6.14c-8.3-0.58-16.13,1.49-21.04,5.55
					c-1.75,1.44-4.33,1.2-5.77-0.54c-1.44-1.75-1.2-4.33,0.54-5.77c6.49-5.37,16.52-8.18,26.84-7.41c8.4,0.59,16.21,3.38,21.96,7.83
					c1.79,1.39,2.12,3.96,0.74,5.75C629.93,256.9,628.72,257.45,627.49,257.45z" class="color000000 svgShape"/></g><g fill="#8aa2ff" class="color000000 svgShape"><path d="M547.9,323.55c-2.71,0-5.39-1.13-7.08-3.12c-3.38-3.98-3.03-9.3-2.82-12.48c1.2-18.37,2.86-36.95,4.92-55.22
					c0.26-2.25,2.27-3.86,4.54-3.62c2.25,0.26,3.87,2.29,3.62,4.54c-2.05,18.14-3.69,36.59-4.89,54.83
					c-0.17,2.63-0.24,5.31,0.89,6.64c0.13,0.14,0.38,0.24,0.85,0.22c0.62-1.83,2.49-3.04,4.48-2.73c2.24,0.32,3.79,2.41,3.46,4.65
					c-0.42,2.86-2.43,5.08-5.39,5.93C549.64,323.43,548.77,323.55,547.9,323.55z" class="color000000 svgShape"/></g><g fill="#8aa2ff" class="color000000 svgShape"><path d="M567.76,354.85c-3.28,0-6.5-0.57-9.51-1.73c-2.11-0.82-3.17-3.19-2.35-5.3c0.82-2.12,3.19-3.16,5.3-2.35
					c5.09,1.96,11.15,1.47,16.63-1.32c5.48-2.8,9.42-7.43,10.81-12.71c0.58-2.19,2.82-3.49,5.01-2.92c2.19,0.58,3.5,2.82,2.92,5.01
					c-1.99,7.52-7.46,14.05-15.01,17.91C577.14,353.71,572.39,354.85,567.76,354.85z" class="color000000 svgShape"/></g><path fill="#8aa2ff" d="M459.25,239.46c0,0,7.81-64.05,27.9-55.26c20.09,8.78,20.83,27.08,52.09,29.28c31.25,2.2,51.34-8.78,62.5,2.2
				c11.16,10.98,31.25,35.14,58.04,17.57c26.79-17.57,29.39-59.66-13.02-81.62c-42.41-21.96-106.03-25.25-141.75-27.45
				C469.29,121.98,432.46,186.76,459.25,239.46z" class="color000000 svgShape"/><g fill="#8aa2ff" class="color000000 svgShape"><path fill="#fff" d="M152.83,501.03l19.65-16.8c48.1-41.11,72.99-103.2,66.6-166.15l-13.45-132.59
					c-2.17-11.58-14.75-17.89-25.29-12.78c-5.62,2.72-9.24,8.38-10.03,14.57l-8.5,66.99c-3.17-7.64-10.64-13.17-19.68-13.24
					c-11.26-0.09-20.49,9.01-21.52,20.22l-0.42,4.56c-3.55-2.01-7.74-3.07-12.28-2.71c-10.51,0.82-18.68,9.59-19.64,20.09
					l-0.97,10.55c-11.16-3.64-23.19,2.38-26.95,13.53l-6.79,20.18c-2.9,8.62-2.72,18.1,1.1,26.35c3.28,7.09,7.34,8.98,11.43,9.95
					l-2.92,51.74C80.78,457.72,110.98,494.81,152.83,501.03L152.83,501.03z" class="colorffffff svgShape"/><path fill="#1c1c1c" d="M152.83,505.13c-0.2,0-0.4-0.02-0.6-0.04c-44.23-6.57-75.68-45.19-73.16-89.83l2.74-48.53
					c-3.82-1.5-7.75-4.43-10.88-11.2c-4.16-9-4.6-19.43-1.26-29.38l6.79-20.18c3.9-11.59,15.46-18.6,27.18-17.2l0.55-5.94
					c1.18-12.82,11.02-22.83,23.41-23.81c3.06-0.24,6.13,0.07,9.05,0.9c1.68-13,12.61-22.98,25.34-22.98c0.06,0,0.13,0,0.19,0
					c6.38,0.05,12.34,2.45,16.89,6.53l7.19-56.69c1-7.86,5.6-14.5,12.3-17.75c6.19-3,13.27-2.95,19.44,0.16
					c6.15,3.11,10.41,8.77,11.68,15.55l13.5,132.93c6.52,64.27-18.9,127.71-68.02,169.68l-19.65,16.79
					C154.75,504.78,153.8,505.13,152.83,505.13z M100.69,296.79c-7.24,0-14.03,4.58-16.45,11.79l-6.78,20.18
					c-2.67,7.95-2.35,16.23,0.93,23.33c2.7,5.84,5.63,6.96,8.65,7.67c1.94,0.46,3.26,2.24,3.15,4.22l-2.93,51.74
					c-2.25,39.77,25.31,74.25,64.36,80.96l18.21-15.56c47.07-40.23,71.44-101.03,65.18-162.63l-13.45-132.59
					c-0.74-3.9-3.41-7.45-7.26-9.39c-3.86-1.95-8.28-1.99-12.16-0.11c-4.14,2.01-7.11,6.37-7.74,11.4l-8.5,66.99
					c-0.24,1.84-1.68,3.3-3.52,3.55c-1.83,0.23-3.62-0.77-4.33-2.49c-2.68-6.45-8.93-10.66-15.92-10.71
					c-8.77,0.01-16.55,7.18-17.4,16.5l-0.42,4.55c-0.13,1.39-0.95,2.61-2.18,3.26c-1.23,0.64-2.7,0.62-3.92-0.06
					c-3.02-1.71-6.43-2.47-9.95-2.2c-8.26,0.65-15.08,7.69-15.88,16.39l-0.97,10.55c-0.12,1.24-0.79,2.37-1.83,3.05
					c-1.04,0.68-2.33,0.86-3.53,0.47C104.26,297.06,102.46,296.79,100.69,296.79z" class="color080717 svgShape"/><path fill="#1c1c1c" d="M142.63,346.61c-1.25,0-2.49-0.57-3.29-1.65c-3.53-4.73-5.31-10.58-5.03-16.49l2.1-64.87
					c0.07-2.22,1.89-3.97,4.09-3.97c0.05,0,0.09,0,0.14,0c2.26,0.07,4.04,1.97,3.96,4.23l-2.1,64.93
					c-0.19,4.07,1.02,8.05,3.41,11.26c1.35,1.81,0.98,4.38-0.84,5.74C144.34,346.35,143.48,346.61,142.63,346.61z" class="color080717 svgShape"/><path fill="#1c1c1c" d="M182.12,280.77c-0.02,0-0.04,0-0.06,0c-2.26-0.04-4.07-1.9-4.04-4.16l0.33-21.05
					c0.04-2.26,1.71-4.05,4.16-4.04c2.26,0.04,4.07,1.9,4.04,4.16l-0.33,21.05C186.19,278.97,184.36,280.77,182.12,280.77z" class="color080717 svgShape"/><path fill="#1c1c1c" d="M91.01,368.43c-2.73,0-5.49-0.44-8.18-1.34c-2.15-0.72-3.3-3.05-2.58-5.2c0.72-2.14,3.04-3.29,5.2-2.58
					c5.63,1.9,11.75,0.8,16.39-2.92c1.76-1.43,4.34-1.14,5.76,0.63c1.42,1.76,1.14,4.34-0.63,5.76
					C102.35,366.49,96.73,368.43,91.01,368.43z" class="color080717 svgShape"/><path fill="#1c1c1c" d="M126.97,424.55c-1.85,0-3.53-1.26-3.98-3.14l-1.04-4.34c-7.62-31.92,2.87-64.96,27.4-86.6l7.41-42.62
					c1.4-8.04,7.73-14.38,15.76-15.78c9.9-1.71,19.38,4.29,22.03,13.99l23.08,84.48c0.6,2.19-0.69,4.44-2.88,5.04
					c-2.17,0.58-4.44-0.69-5.04-2.88l-23.08-84.48c-1.53-5.59-7-9.07-12.71-8.07c-4.63,0.81-8.29,4.47-9.09,9.1l-7.66,44.06
					c-0.16,0.95-0.65,1.8-1.38,2.42c-22.98,19.61-32.9,50.05-25.88,79.44l1.04,4.34c0.53,2.2-0.83,4.42-3.03,4.95
					C127.61,424.51,127.28,424.55,126.97,424.55z" class="color080717 svgShape"/><g class="color000000 svgShape"><path fill="#1c1c1c" d="M125.47,377.95c-0.78,0-1.57-0.03-2.37-0.1c-6.8-0.62-12.94-3.86-17.3-9.1
					c-4.36-5.24-6.41-11.87-5.79-18.66l3.44-55.64c0.14-2.26,2.09-3.94,4.34-3.84c2.26,0.14,3.98,2.09,3.84,4.34l-3.45,55.77
					c-0.43,4.73,0.96,9.23,3.92,12.79c2.96,3.56,7.12,5.75,11.73,6.17c0.82,0.07,1.66,0.09,2.49,0.05c2.25-0.17,4.18,1.64,4.29,3.9
					c0.11,2.26-1.64,4.18-3.9,4.29C126.31,377.94,125.89,377.95,125.47,377.95z" class="color080717 svgShape"/></g><g class="color000000 svgShape"><path fill="#fff" d="M107.08,478.54L14.15,854.31c0,0,4.37,63.38,65.48,76.14c57.78,12.06,112.56-31.28,116.81-90.16
				l31.51-436.61L107.08,478.54z" class="colorffffff svgShape"/><path fill="#1c1c1c" d="M98.91,936.54c-6.71,0-13.45-0.68-20.1-2.07c-63.42-13.24-68.69-79.21-68.74-79.88
				c-0.03-0.42,0.01-0.85,0.11-1.27l92.93-375.77c0.54-2.2,2.77-3.52,4.97-3c2.2,0.54,3.54,2.77,3,4.97L18.29,854.63
				c0.63,6.75,7.38,60.36,62.18,71.8c25.73,5.37,52.7-0.76,74-16.84c22.08-16.66,35.89-42.03,37.88-69.6l31.51-436.61
				c0.16-2.26,2.19-3.96,4.38-3.79c2.26,0.16,3.96,2.13,3.79,4.38l-31.51,436.61c-2.16,29.93-17.15,57.47-41.12,75.56
				C141.73,929.49,120.45,936.54,98.91,936.54z" class="color080717 svgShape"/></g></g><g fill="#8aa2ff" class="color000000 svgShape"><path fill="#fff" d="M979.23,739.41l92.83,61.48c29.33,19.43,53.56,45.64,70.62,76.41l0,0c13.83,29.57,4.06,64.8-23.02,83.02l0,0
			c-26.53,17.86-62.03,14.21-84.38-8.67l-111.4-114.05L979.23,739.41z" class="colorffffff svgShape"/><path fill="#1c1c1c" d="M1082.7,975.72c-18.42,0-36.69-7.22-50.35-21.2l-111.4-114.04c-1.27-1.31-1.53-3.29-0.64-4.88l55.35-98.2
			c0.56-0.99,1.51-1.71,2.61-1.97c1.11-0.27,2.27-0.06,3.22,0.57l92.83,61.48c29.76,19.71,54.63,46.62,71.94,77.84
			c14.9,31.86,4.62,68.93-24.31,88.41C1109.98,971.79,1096.29,975.72,1082.7,975.72z M928.97,836.94l109.25,111.85
			c20.97,21.47,54.26,24.89,79.15,8.14c25.57-17.21,34.65-49.97,21.59-77.89c-16.54-29.81-40.5-55.74-69.16-74.73l-89.15-59.05
			L928.97,836.94z" class="color080717 svgShape"/></g><rect width="667.74" height="26.78" x="227.58" y="921.52" fill="#e8f4fa" class="colorff6700 svgShape"/><g fill="#8aa2ff" class="color000000 svgShape"><path fill="#fff" d="M557.17,947.99c-2.27,0-4.1-1.83-4.1-4.1v-10.72c0-2.27,1.83-4.1,4.1-4.1s4.1,1.83,4.1,4.1v10.72
			C561.27,946.15,559.44,947.99,557.17,947.99z" class="colorffffff svgShape"/></g><g fill="#8aa2ff" class="color000000 svgShape"><path fill="#fff" d="M583.95,947.99c-2.27,0-4.1-1.83-4.1-4.1v-10.72c0-2.27,1.83-4.1,4.1-4.1s4.1,1.83,4.1,4.1v10.72
			C588.05,946.15,586.22,947.99,583.95,947.99z" class="colorffffff svgShape"/></g><g fill="#8aa2ff" class="color000000 svgShape"><path fill="#fff" d="M565.91,915.27l291.91-95.07l-32.43-176.76l-28.59,9.79c-91.16,31.22-163.66,98.32-198.87,184.05
			L565.91,915.27z" class="colorffffff svgShape"/><path fill="#1c1c1c" d="M565.91,919.37c-1.12,0-2.22-0.46-3.01-1.31c-1.08-1.17-1.39-2.87-0.78-4.34l32.03-77.99
			c35.66-86.83,109.04-154.76,201.33-186.37l28.59-9.79c1.13-0.38,2.37-0.26,3.4,0.34c1.03,0.6,1.75,1.63,1.96,2.8l32.43,176.75
			c0.37,2.02-0.81,4-2.76,4.64l-291.91,95.08C566.76,919.31,566.34,919.37,565.91,919.37z M822.22,648.87l-24.08,8.25
			c-90.05,30.84-161.64,97.07-196.4,181.72l-28.66,69.79l280.07-91.22L822.22,648.87z" class="color080717 svgShape"/></g><g fill="#8aa2ff" class="color000000 svgShape"><path fill="#fff" d="M877.66,790.7l16.76,4.11c0,0-4.46,50.88,44.85,57.63c12.05,1.65,56.4-45.61,57.38-74.87
			c1.91-57.33-12.42-144.52-60.66-152.24c-48.24-7.72-123.75-5.48-123.75-5.48s-3.58,36.89,23.18,39.28
			c37.47,3.34,75.72,15.98,75.72,15.98l-109.2,23.24c0,0-0.54,20.18,8.61,36.36C819.72,750.9,826.32,779.21,877.66,790.7z" class="colorffffff svgShape"/><path fill="#1c1c1c" d="M996.66,781.67c-2.26,0-4.09-1.83-4.1-4.09c-0.11-40.59-5.93-136.29-57.49-148.25
				c-41.72-9.69-105.03-6-121.38-4.83c0.75,8.07,4.06,26.56,18.69,29.96c8.15,1.89,18.98,3.25,30.45,4.7
				c22.55,2.84,45.87,5.78,55.69,13.58c1.77,1.41,2.07,3.99,0.66,5.76c-1.41,1.77-3.98,2.07-5.76,0.66
				c-8.02-6.37-31.18-9.29-51.62-11.87c-11.68-1.47-22.72-2.86-31.28-4.84c-25.11-5.83-25.26-40.28-25.26-41.74
				c0.01-2.12,1.63-3.88,3.74-4.07c3.19-0.28,78.65-6.72,127.9,4.7c23.7,5.5,63.51,33.11,63.84,156.22c0.01,2.27-1.83,4.1-4.09,4.11
				C996.67,781.67,996.66,781.67,996.66,781.67z" class="color080717 svgShape"/><path fill="#1c1c1c" d="M813.45,732.81c-0.45,0-0.91-0.07-1.36-0.23c-18.11-6.37-16.99-27.12-13.87-37.21
				c0.46-1.48,1.71-2.58,3.25-2.83l147.39-24.39c2.25-0.4,4.34,1.14,4.71,3.38c0.37,2.23-1.14,4.34-3.38,4.71l-144.74,23.95
				c-1.24,5.81-2.96,20.32,9.36,24.65c2.13,0.75,3.26,3.09,2.51,5.23C816.73,731.76,815.14,732.81,813.45,732.81z" class="color080717 svgShape"/><path fill="#1c1c1c" d="M841.42,765.44c-5.77,0-10.23-0.11-12.77-0.38c-19.96-2.08-26.07-31.48-26.32-32.73
				c-0.22-1.12,0.03-2.29,0.7-3.22c0.67-0.93,1.71-1.53,2.84-1.66l151.47-17.53c2.27-0.27,4.29,1.35,4.54,3.6
				c0.26,2.25-1.35,4.28-3.6,4.54l-146.8,16.99c2.52,8.2,8.39,20.85,18.01,21.85c16.69,1.72,126.1-3.64,127.21-3.69
				c2.38-0.14,4.18,1.63,4.3,3.89c0.11,2.26-1.63,4.19-3.89,4.3C953.25,761.6,875.03,765.44,841.42,765.44z" class="color080717 svgShape"/><path fill="#1c1c1c" d="M920.21,799.87c-33.91,0-84.92-5.43-93.5-37.15c-0.59-2.19,0.7-4.44,2.89-5.03c2.17-0.57,4.43,0.7,5.03,2.89
				c9.09,33.62,86.23,32.83,115.22,29.68c2.19-0.25,4.27,1.38,4.52,3.64c0.24,2.25-1.38,4.27-3.64,4.52
				C949.24,798.58,936.76,799.87,920.21,799.87z" class="color080717 svgShape"/><path fill="#1c1c1c" d="M940.9,858.52c-0.18,0-0.36-0.01-0.54-0.04c-0.49-0.06-49.14-7.15-49.14-61c0-2.27,1.83-4.1,4.1-4.1
				s4.1,1.83,4.1,4.1c0,42.25,33.2,51.17,40.63,52.63c24.32-15.46,52.59-40.35,52.51-72.54c-0.11-40.59-5.93-136.29-57.49-148.25
				c-2.21-0.51-3.58-2.72-3.07-4.92c0.51-2.21,2.76-3.57,4.92-3.07c23.7,5.5,63.51,33.11,63.84,156.22
				c0.09,36.53-31.32,63.86-57.68,80.34C942.42,858.31,941.67,858.52,940.9,858.52z" class="color080717 svgShape"/></g><g fill="#8aa2ff" class="color000000 svgShape"><path fill="#fff" d="M863.77,888.96H626.06c-19.7,0-38.66,7.57-52.94,21.13l-3.19,3.03l0,0c-14.53-15.42-34.77-24.16-55.96-24.16
			H259.12v32.56h604.65V888.96z" class="colorffffff svgShape"/><path fill="#1c1c1c" d="M863.77,925.62H259.13c-2.27,0-4.1-1.83-4.1-4.1v-32.56c0-2.27,1.83-4.1,4.1-4.1h254.84
			c20.85,0,41.04,8.16,56.05,22.53l0.28-0.27c15.12-14.36,34.92-22.26,55.77-22.26h237.71c2.27,0,4.1,1.83,4.1,4.1v32.56
			C867.87,923.79,866.04,925.62,863.77,925.62z M263.23,917.42h596.44v-24.36H626.06c-18.74,0-36.53,7.11-50.12,20.01l-3.19,3.03
			c-0.79,0.75-1.9,1.07-2.94,1.13c-1.09-0.03-2.12-0.5-2.87-1.29c-13.7-14.54-33.01-22.88-52.98-22.88H263.23V917.42z" class="color080717 svgShape"/></g></svg>