<svg xmlns="http://www.w3.org/2000/svg" enable-background="new 0 0 1238.29 901.45" viewBox="0 0 1238.29 901.45"><path fill="#fff" d="M1209.51,436.21c-22.6-27.95-56.14-45.35-92-47.74l-49.6-3.29l-148.84,3.74l-44.14-9.59
		c-68.06-14.78-137.85,18.12-169.73,80.03l-65.14,126.5c-0.56,1.1-0.6,2.39-0.11,3.53c0.5,1.13,1.48,1.98,2.67,2.31l33.83,9.26
		l-17.81,48.57c-0.22,0.6-0.26,1.21-0.2,1.81c-11.7-0.06-23.48,1.07-35.19,3.53l-36.15,7.58c-0.78,0.16-1.5,0.55-2.06,1.11
		L484.34,764.28c-0.77,0.77-1.2,1.81-1.2,2.9c0,1.09,0.43,2.13,1.2,2.9l6.34,6.34c13.19,13.19,34.64,13.19,47.82,0l46.96-46.96
		l69.24,69.24c20,20,46.59,31.01,74.87,31.01h75.34l214.84,65.54c13.59,4.15,27.55,6.19,41.45,6.19c26.62,0,52.99-7.5,75.99-22.09
		c34.99-22.2,58.47-58.45,64.42-99.46l35.35-243.74C1242.12,500.59,1232.12,464.16,1209.51,436.21z" class="colorffffff svgShape"/><path fill="#fff" d="M365.41,689.1v84.56l8.27,0c15.13,0,27.4-12.27,27.4-27.4v-49.8L365.41,689.1z" class="colorffffff svgShape"/><path fill="#1c1c1c" d="M373.68,777.76h-8.27c-2.27,0-4.1-1.84-4.1-4.1V689.1c0-1.23,0.56-2.4,1.51-3.18
				c0.95-0.78,2.2-1.08,3.42-0.84l35.67,7.36c1.91,0.39,3.27,2.07,3.27,4.02v49.8C405.18,763.63,391.05,777.76,373.68,777.76z
				 M369.51,769.56h4.17c12.85,0,23.3-10.45,23.3-23.3V699.8l-27.47-5.67V769.56z" class="color080717 svgShape"/><path fill="#fff" d="M540.15,783.33h-75.96c-27,0-52.89-10.72-71.97-29.81l-72.14-72.14l-49.86,49.86
				c-11.61,11.61-30.42,11.61-42.03,0l-6.34-6.34l100.71-100.71l100.71-21.14l124.33,79.57H664.2v100.71H540.15z" class="colorffffff svgShape"/><path fill="#1c1c1c" d="M664.2,787.43H464.19c-28.29,0-54.87-11.01-74.87-31.01l-69.24-69.24l-46.96,46.96
				c-6.39,6.39-14.88,9.91-23.91,9.91c-9.03,0-17.53-3.52-23.91-9.91l-6.34-6.34c-1.6-1.6-1.6-4.2,0-5.8l100.71-100.71
				c0.56-0.56,1.28-0.95,2.06-1.11l100.71-21.14c1.04-0.23,2.15-0.02,3.05,0.56l123.32,78.93H664.2c2.27,0,4.1,1.84,4.1,4.1v100.71
				C668.3,785.6,666.47,787.43,664.2,787.43z M320.08,677.28c1.09,0,2.13,0.43,2.9,1.2l72.14,72.14
				c18.45,18.45,42.98,28.61,69.08,28.61H660.1v-92.51H547.61c-0.78,0-1.55-0.22-2.21-0.65L422.48,607.4l-97.87,20.54l-96.95,96.95
				l3.44,3.44c4.84,4.84,11.27,7.5,18.11,7.5c6.84,0,13.28-2.66,18.12-7.5l49.86-49.86C317.95,677.71,318.99,677.28,320.08,677.28z" class="color080717 svgShape"/><path fill="#fff" d="M343.81,691.13l-59.79,59.79l5.85,5.85c10.7,10.7,28.05,10.7,38.75,0l35.21-35.21L343.81,691.13z" class="colorffffff svgShape"/><path fill="#1c1c1c" d="M309.24,768.88c-8.07,0-16.13-3.07-22.28-9.21l-5.85-5.85c-1.6-1.6-1.6-4.2,0-5.8l59.79-59.79
				c0.87-0.87,2.07-1.33,3.32-1.18c1.23,0.12,2.33,0.8,3.01,1.82l20.02,30.42c1.07,1.63,0.85,3.78-0.52,5.15l-35.21,35.21
				C325.38,765.81,317.31,768.88,309.24,768.88z M289.82,750.92l2.95,2.95c9.08,9.08,23.86,9.08,32.95,0l32.85-32.85l-15.42-23.43
				L289.82,750.92z" class="color080717 svgShape"/><path fill="#fff" d="M358.54,693.59l-37.59,75.74l7.41,3.68c13.55,6.73,30,1.19,36.73-12.36l22.14-44.61L358.54,693.59z" class="colorffffff svgShape"/><path fill="#1c1c1c" d="M340.48,779.96c-4.7,0-9.47-1.06-13.95-3.28l-7.41-3.67c-0.97-0.48-1.72-1.34-2.06-2.37
				c-0.35-1.03-0.27-2.16,0.21-3.13l37.6-75.74c0.55-1.1,1.56-1.9,2.77-2.17c1.21-0.27,2.46,0.01,3.43,0.77l28.68,22.45
				c1.53,1.2,2.01,3.31,1.15,5.05l-22.14,44.61C363.25,773.54,352.08,779.96,340.48,779.96z M326.44,767.48l3.73,1.85
				c11.51,5.72,25.51,1,31.23-10.51l20.65-41.61l-22.09-17.29L326.44,767.48z" class="color080717 svgShape"/><path fill="#8aa2ff" d="M476.98,519.42L270.07,735.6l-17.59,49.92l47.3-17.88l206.9-216.17l-0.83-3.1
				c-3.6-13.43-13.77-24.1-27.01-28.34L476.98,519.42z" class="colorff6700 svgShape"/><path fill="#1c1c1c" d="M497.67,566.65c-1.06,0-2.12-0.41-2.92-1.23l-28.77-29.28c-1.59-1.62-1.57-4.21,0.05-5.8
					c1.62-1.59,4.21-1.57,5.8,0.05l28.77,29.28c1.59,1.62,1.57,4.21-0.05,5.8C499.75,566.26,498.71,566.65,497.67,566.65z" class="color080717 svgShape"/><path fill="#fff" d="M409.6,692.57H289l0.04,0.62c1.42,19.89,16.66,36.02,36.44,38.56l56.06,10.55L409.6,692.57z" class="colorffffff svgShape"/><path fill="#1c1c1c" d="M381.55,746.4c-0.25,0-0.5-0.02-0.76-0.07l-56.06-10.55c-21.39-2.74-38.22-20.55-39.77-42.3l-0.04-0.62
				c-0.08-1.13,0.31-2.25,1.09-3.09c0.77-0.83,1.86-1.31,3-1.31h120.6c2.27,0,4.1,1.84,4.1,4.1c0,2.26-1.83,4.1-4.1,4.1H293.59
				c2.81,16.13,15.91,28.89,32.41,31.02l56.29,10.59c2.23,0.42,3.69,2.56,3.27,4.79C385.2,745.03,383.48,746.4,381.55,746.4z" class="color080717 svgShape"/><path fill="#fff" d="M180.87,747c0-19.1,15.48-34.58,34.58-34.58H38.68C19.58,712.42,4.1,727.9,4.1,747
			c0,19.1,15.48,34.59,34.58,34.59h176.77C196.35,781.59,180.87,766.1,180.87,747z" class="colorffffff svgShape"/><path fill="#1c1c1c" d="M215.45,785.69H38.68C17.35,785.69,0,768.33,0,747c0-21.33,17.35-38.69,38.68-38.69h176.76
			c2.27,0,4.1,1.84,4.1,4.1c0,2.26-1.83,4.1-4.1,4.1c-16.81,0-30.48,13.68-30.48,30.49s13.67,30.48,30.48,30.48
			c2.27,0,4.1,1.84,4.1,4.1C219.55,783.85,217.72,785.69,215.45,785.69z M38.68,716.52C21.88,716.52,8.2,730.19,8.2,747
			s13.67,30.48,30.48,30.48h152.97c-9.06-7.09-14.89-18.12-14.89-30.48c0-12.37,5.83-23.4,14.9-30.49H38.68z" class="color080717 svgShape"/><path fill="#1c1c1c" d="M519.03,788.25H34.84c-2.27,0-4.1-1.84-4.1-4.1c0-2.26,1.83-4.1,4.1-4.1h484.19c2.27,0,4.1,1.84,4.1,4.1
			C523.13,786.41,521.29,788.25,519.03,788.25z" class="color080717 svgShape"/><path fill="#1c1c1c" d="M594.53,773.52l49.57-49.57h-54.71l-43.23,43.23l6.34,6.34C564.1,785.12,582.92,785.12,594.53,773.52z" class="color080717 svgShape"/><path fill="#1c1c1c" d="M573.51,786.32c-9.03,0-17.53-3.52-23.91-9.91l-6.34-6.34c-1.6-1.6-1.6-4.2,0-5.8l43.23-43.23
				c0.77-0.77,1.81-1.2,2.9-1.2h54.71c1.66,0,3.16,1,3.79,2.53c0.64,1.53,0.28,3.3-0.89,4.47l-49.57,49.57l0,0
				C591.04,782.8,582.54,786.32,573.51,786.32z M551.96,767.18l3.44,3.44c4.84,4.84,11.27,7.5,18.12,7.5
				c6.84,0,13.27-2.66,18.12-7.5l42.57-42.57h-43.11L551.96,767.18z M594.53,773.52h0.04H594.53z" class="color080717 svgShape"/><g fill="#e8f4fa" class="color000000 svgShape"><path fill="#1c1c1c" d="M652.17,773.52l49.57-49.57h-54.71l-43.23,43.23l6.34,6.34C621.75,785.12,640.56,785.12,652.17,773.52z" class="color080717 svgShape"/><path fill="#1c1c1c" d="M631.15,786.32c-9.03,0-17.53-3.52-23.91-9.91l-6.34-6.34c-1.6-1.6-1.6-4.2,0-5.8l43.23-43.23
				c0.77-0.77,1.81-1.2,2.9-1.2h54.71c1.66,0,3.16,1,3.79,2.53c0.64,1.53,0.28,3.3-0.89,4.47l-49.57,49.57
				C648.68,782.8,640.19,786.32,631.15,786.32z M609.6,767.18l3.44,3.44c4.84,4.84,11.27,7.5,18.11,7.5c6.84,0,13.28-2.66,18.12-7.5
				l0,0l42.57-42.57h-43.11L609.6,767.18z" class="color080717 svgShape"/></g><g fill="#e8f4fa" class="color000000 svgShape"><path fill="#1c1c1c" d="M787.17,712.89c-2.27,0-4.1-1.84-4.1-4.1v-78.64l-140.44-38.46c-1.19-0.33-2.17-1.17-2.67-2.3
			c-0.5-1.13-0.46-2.43,0.11-3.53l65.13-126.5c31.88-61.91,101.66-94.82,169.73-80.03l44.62,9.7c2.21,0.48,3.62,2.66,3.14,4.88
			c-0.48,2.21-2.65,3.62-4.88,3.14l-44.62-9.7c-64.43-14.01-130.51,17.15-160.7,75.78l-62.81,122l138.58,37.95
			c1.78,0.49,3.02,2.11,3.02,3.95v81.77C791.27,711.06,789.44,712.89,787.17,712.89z" class="color080717 svgShape"/></g><g fill="#e8f4fa" class="color000000 svgShape"><path fill="#fff" d="M1068.01,389.28l49.23,3.28c72.86,4.86,126.15,70.74,115.67,143.01l-35.35,243.73
			c-12.12,83.56-95.84,136.67-176.6,112.03l-215.43-65.72h-75.95c-27,0-52.89-10.72-71.97-29.81l-72.14-72.14l-49.86,49.86
			c-11.61,11.61-30.42,11.61-42.03,0l-6.34-6.34l100.71-100.71l36.15-7.59c41.38-8.68,84.51-0.78,120.12,22.01l68.77,44.02
			l185.38,8.47l20.48-172.05L1068.01,389.28z" class="colorffffff svgShape"/><path fill="#1c1c1c" d="M1061.2,901.45c-13.89,0-27.85-2.04-41.45-6.19l-214.84-65.55h-75.34c-28.29,0-54.88-11.01-74.87-31.01
			l-69.24-69.24l-46.96,46.96c-6.39,6.39-14.88,9.91-23.91,9.91c-9.03,0-17.53-3.52-23.91-9.91l-6.34-6.34c-1.6-1.6-1.6-4.2,0-5.8
			l100.71-100.71c0.56-0.56,1.28-0.95,2.06-1.11l36.15-7.59c42.69-8.97,86.43-0.95,123.17,22.57l67.85,43.42l180.47,8.24
			l20.03-168.26c0.27-2.25,2.29-3.84,4.56-3.59c2.25,0.27,3.86,2.31,3.59,4.56l-20.48,172.04c-0.26,2.13-2.22,3.63-4.26,3.61
			L812.8,729c-0.72-0.03-1.42-0.25-2.02-0.64l-68.78-44.01c-34.92-22.35-76.49-29.96-117.07-21.45l-34.95,7.34l-96.95,96.95
			l3.44,3.44c4.84,4.84,11.27,7.5,18.12,7.5c6.84,0,13.27-2.66,18.12-7.5l49.86-49.86c1.6-1.6,4.2-1.6,5.8,0l72.14,72.14
			c18.45,18.45,42.98,28.61,69.08,28.61h75.96c0.4,0,0.81,0.06,1.2,0.18l215.42,65.72c37.35,11.4,77.68,5.93,110.65-14.99
			c32.97-20.92,55.09-55.07,60.7-93.71l35.35-243.73c4.9-33.81-4.23-67.06-25.72-93.62c-21.49-26.56-52.09-42.44-86.17-44.71
			l-49.23-3.28c-2.26-0.15-3.97-2.1-3.82-4.36c0.15-2.26,2.18-4,4.36-3.82l49.23,3.28c35.87,2.39,69.4,19.79,92,47.74
			c22.61,27.95,32.61,64.38,27.45,99.95l-35.35,243.73c-5.95,41.01-29.43,77.26-64.42,99.46
			C1114.2,893.94,1087.83,901.45,1061.2,901.45z" class="color080717 svgShape"/></g><g fill="#e8f4fa" class="color000000 svgShape"><path fill="#1c1c1c" d="M787.17,713.1c-2.27,0-4.1-1.84-4.1-4.1V527.96c0-2.26,1.83-4.1,4.1-4.1c2.27,0,4.1,1.84,4.1,4.1V709
			C791.27,711.26,789.44,713.1,787.17,713.1z" class="color080717 svgShape"/></g><g fill="#e8f4fa" class="color000000 svgShape"><path fill="#fff" d="M681.28,599.7l-18.79,51.24L681.28,599.7z" class="colorffffff svgShape"/><path fill="#1c1c1c" d="M662.49,655.03c-0.47,0-0.95-0.08-1.41-0.25c-2.12-0.78-3.22-3.14-2.43-5.26l18.79-51.24
			c0.78-2.12,3.13-3.22,5.26-2.44c2.12,0.78,3.22,3.14,2.43,5.26l-18.79,51.24C665.73,654,664.16,655.03,662.49,655.03z" class="color080717 svgShape"/></g><g fill="#e8f4fa" class="color000000 svgShape"><path fill="#1c1c1c" d="M1047.53,737.47h-49.16c-2.27,0-4.1-1.84-4.1-4.1c0-2.26,1.83-4.1,4.1-4.1h49.16c2.27,0,4.1,1.84,4.1,4.1
			C1051.63,735.64,1049.79,737.47,1047.53,737.47z" class="color080717 svgShape"/></g><g fill="#e8f4fa" class="color000000 svgShape"><path fill="#1c1c1c" d="M917.58,300.7l42.36-6.31c48.69-7.26,82.6-53.03,75.34-101.72l-2.5-16.78
			c-9.08-60.97-66.4-103.42-127.37-94.34l-2.14,17.48c-38.22,5.69-64.83,41.62-59.13,79.84l11.3,75.81
			C859.86,284.42,887.83,305.13,917.58,300.7z" class="color080717 svgShape"/><ellipse cx="925.02" cy="202.06" fill="#1c1c1c" class="color080717 svgShape" rx="100.5" ry="94.38" transform="rotate(-24.533 925.07 202.069)"/><path fill="#1c1c1c" d="M909.3,386.26c24.29-18.56,38.68-48.9,35.41-81.55l-3.01-30.05l-79.73,7.88L909.3,386.26z" class="color080717 svgShape"/><path fill="#1c1c1c" d="M953.69,203.93c-7.37-31.38-33.32-56.47-64.2-59.34h0c-19.25-1.79-36.58,5.41-48.69,18.35
			c8.35-2.86,32.26-9.56,43.39,3.2C897.78,181.74,914.16,215.88,953.69,203.93z" class="color080717 svgShape"/><circle cx="837.28" cy="169.56" r="44.94" fill="#1c1c1c" class="color080717 svgShape" transform="rotate(-33.283 837.209 169.561)"/><path fill="#1c1c1c" d="M925.15,92.68c48.99-1.06,92.39,33.56,101.51,82.61c-9.77,8.82-22.32,15.01-36.55,17.13
			c-36.97,5.51-71.18-18.54-76.43-53.71C911.19,121.96,915.73,105.71,925.15,92.68z" class="color080717 svgShape"/><circle cx="909.62" cy="126.37" r="44.94" fill="#1c1c1c" class="color080717 svgShape" transform="rotate(-33.283 909.538 126.376)"/><path fill="#1c1c1c" d="M813.67,142.94c3.76,25.25,27.28,42.67,52.53,38.9c25.25-3.76,42.66-27.28,38.9-52.53
			c-3.76-25.25-27.28-42.67-52.53-38.9S809.91,117.7,813.67,142.94z" class="color080717 svgShape"/><path fill="#1c1c1c" d="M978.24,121.69c-0.17,0-0.34-0.01-0.51-0.03c-2.25-0.28-3.84-2.33-3.56-4.57
				c2.11-16.9,19.68-23.4,20.43-23.67c2.11-0.78,4.48,0.34,5.25,2.47c0.76,2.13-0.34,4.47-2.46,5.24
				c-0.26,0.09-13.61,5.17-15.08,16.97C982.05,120.17,980.28,121.69,978.24,121.69z" class="color080717 svgShape"/><path fill="#1c1c1c" d="M976.27,120.88c-1.14,0-2.28-0.47-3.09-1.41c-1.49-1.71-1.31-4.3,0.4-5.78c9-7.85,5.67-21.85,5.63-21.99
				c-0.54-2.19,0.79-4.42,2.98-4.97c2.18-0.56,4.42,0.77,4.97,2.96c0.2,0.77,4.64,18.98-8.19,30.18
				C978.19,120.54,977.23,120.88,976.27,120.88z" class="color080717 svgShape"/><path fill="#fff" d="M902.81,402.14l11.81-4.23l-20.59-45.11c-5.91,1.32-12.06,1.97-18.39,1.68
				c-38.53-1.73-68.36-34.37-66.63-72.9l1.21-26.87c-7.54-1.17-13.19-7.75-12.9-15.55l0,0c0.3-7.88,6.55-14.06,14.26-14.56
				l0.35-7.71c1.73-38.53,34.37-68.36,72.9-66.63l0,0c32.5,1.46,58.81,24.91,65.21,55.33c13.08-1.85,26.06,5.73,30.53,18.69
				c3.89,11.29,0.16,23.35-8.44,30.63l57.52,126.01l32.26,8.77c2.56,26.38-8.29,57.53-31.52,82.97
				c-36.9,40.43-91,51.13-120.82,23.91C886.21,475.29,884.73,437.12,902.81,402.14z" class="colorffffff svgShape"/><path fill="#1c1c1c" d="M950.89,515.77c-17.19,0-32.47-5.52-44.12-16.15c-23.96-21.87-27.02-61.8-7.61-99.36
				c0.48-0.92,1.29-1.63,2.26-1.98l7.61-2.73l-17.39-38.09c-5.45,0.98-10.88,1.36-16.2,1.12c-19.73-0.88-37.93-9.4-51.25-23.98
				c-13.33-14.58-20.17-33.47-19.29-53.2l1.06-23.56c-7.78-2.8-13.07-10.34-12.75-18.84c0.32-8.65,6.28-15.8,14.4-17.91l0.2-4.38
				c1.83-40.73,36.31-72.36,77.18-70.54c32.49,1.46,60.05,23.9,68.2,55.06c13.68-0.37,26.62,8.35,31.22,21.72
				c4.01,11.66,1.11,24.26-7.36,32.95l55.49,121.58l30.4,8.26c1.64,0.45,2.84,1.86,3,3.56c2.78,28.55-9.4,60.75-32.57,86.13
				c-18.43,20.2-41.62,33.9-65.29,38.58C962.2,515.19,956.45,515.77,950.89,515.77z M905.72,405.45
				c-16.89,33.79-14.31,69.04,6.58,88.1c13.44,12.27,32.69,16.67,54.2,12.42c21.97-4.35,43.57-17.16,60.83-36.07
				c20.86-22.86,32.2-51.43,30.68-77.01l-29.47-8.01c-1.17-0.32-2.15-1.15-2.65-2.25l-57.52-126.01c-0.76-1.67-0.32-3.64,1.08-4.83
				c7.63-6.46,10.46-16.73,7.22-26.17c-3.75-10.86-14.75-17.56-26.08-15.96c-2.15,0.3-4.14-1.1-4.59-3.22
				c-6.17-29.32-31.41-50.74-61.38-52.08c-36.17-1.57-66.99,26.51-68.62,62.72l-0.34,7.7c-0.09,2.09-1.75,3.78-3.84,3.91
				c-5.73,0.37-10.21,4.93-10.42,10.62c-0.21,5.61,3.84,10.49,9.43,11.35c2.07,0.32,3.56,2.15,3.47,4.24l-1.21,26.87
				c-0.79,17.54,5.3,34.34,17.15,47.3c11.84,12.96,28.03,20.53,45.57,21.32c5.63,0.25,11.48-0.28,17.31-1.59
				c1.9-0.41,3.82,0.54,4.63,2.3l20.59,45.11c0.48,1.04,0.49,2.24,0.04,3.3c-0.44,1.06-1.31,1.88-2.39,2.27L905.72,405.45z" class="color080717 svgShape"/><path fill="#1c1c1c" d="M952.33,246.24c-1.9,0-3.6-1.32-4.01-3.25c-3-14.2,8.33-21.86,8.81-22.18c1.89-1.25,4.44-0.73,5.68,1.16
				c1.24,1.88,0.73,4.41-1.14,5.66c-0.3,0.2-7.16,5-5.33,13.66c0.47,2.22-0.95,4.39-3.17,4.86
				C952.89,246.21,952.61,246.24,952.33,246.24z" class="color080717 svgShape"/><path fill="#1c1c1c" d="M832.02,267.79c-2.39,0-4.5-0.48-6.06-1.12c-2.09-0.86-3.09-3.26-2.22-5.36c0.86-2.08,3.24-3.07,5.31-2.24
				c0.95,0.36,9.14,3.04,15.03-9.16c0.99-2.03,3.44-2.89,5.47-1.91c2.04,0.99,2.9,3.44,1.91,5.48
				C846.03,264.71,838.1,267.79,832.02,267.79z" class="color080717 svgShape"/><path fill="#1c1c1c" d="M829.35,223.85c0.44,3.89,3.4,6.74,6.62,6.38c3.22-0.36,5.47-3.81,5.03-7.7s-3.4-6.74-6.62-6.38
			C831.16,216.52,828.91,219.97,829.35,223.85z" class="color080717 svgShape"/><path fill="#1c1c1c" d="M833.78,199.08c-0.86,2.3,3.6,6.08,9.96,8.45c6.36,2.37,12.2,2.43,13.06,0.14c0.86-2.3-3.6-6.08-9.96-8.45
			C840.48,196.85,834.63,196.79,833.78,199.08z" class="color080717 svgShape"/><path fill="#1c1c1c" d="M908.4,151.75c30.26-3.47,59.11,15.47,67.56,45.3c-5.54,6.02-12.95,10.57-21.63,12.7
			c-22.56,5.53-45.12-7.39-50.38-28.86C901.44,170.67,903.32,160.36,908.4,151.75z" class="color080717 svgShape"/><g class="color000000 svgShape"><path fill="#1c1c1c" d="M894.03,356.2c-1.84,0-3.51-1.25-3.98-3.11c-0.54-2.2,0.79-4.42,2.99-4.97c28.03-6.96,48.5-31.98,49.8-60.86
				c0.1-2.26,2.01-3.99,4.28-3.91c2.26,0.1,4.01,2.02,3.91,4.28c-1.46,32.48-24.49,60.63-56.01,68.45
				C894.69,356.17,894.36,356.2,894.03,356.2z" class="color080717 svgShape"/></g></g><g fill="#e8f4fa" class="color000000 svgShape"><path fill="#1c1c1c" d="M1208.77,678.79c-0.67,0-1.35-0.16-1.98-0.51c-44.45-24.57-94.64-34.63-145.12-29.09l-54.25,5.94
			c-2.29,0.23-4.28-1.38-4.53-3.63c-0.24-2.25,1.38-4.28,3.63-4.52l54.25-5.94c52.18-5.72,104.03,4.68,149.98,30.07
			c1.98,1.1,2.7,3.59,1.61,5.57C1211.61,678.03,1210.21,678.79,1208.77,678.79z" class="color080717 svgShape"/></g><path fill="#8aa2ff" d="M261.98,115.84v229.64c0,27.89,22.61,50.51,50.51,50.51h296.28c27.89,0,50.51-22.61,50.51-50.51v-25.25h88.39
		l-88.39-88.39v-116c0-27.89-22.61-50.51-50.51-50.51H312.49C284.59,65.33,261.98,87.95,261.98,115.84z" class="colorff6700 svgShape"/><g fill="#e8f4fa" class="color000000 svgShape"><path d="M457.9,264.08c-1.21,0-2.4-0.53-3.21-1.55c-15.54-19.51-34.14-36.11-55.29-49.32l-14.22-8.89
				c-39.54-24.7-56.8-72.83-41.98-117.03c17.59-52.48,74.62-80.86,127.08-63.27c44.2,14.82,72.2,57.6,68.08,104.04l-1.48,16.71
				c-2.22,25.03-0.14,50.04,6.17,74.36c0.57,2.19-0.75,4.43-2.94,5c-2.19,0.57-4.43-0.74-5-2.94c-6.55-25.22-8.7-51.18-6.4-77.14
				l1.48-16.71c3.78-42.64-21.93-81.93-62.52-95.54c-48.19-16.15-100.54,9.91-116.7,58.1c-13.61,40.59,2.25,84.79,38.56,107.47
				l14.22,8.89c21.93,13.7,41.23,30.92,57.35,51.16c1.41,1.77,1.12,4.35-0.65,5.76C459.69,263.78,458.79,264.08,457.9,264.08z" class="color000000 svgShape"/><path fill="#1c1c1c" d="M530.43,306.64L530.43,306.64c-23.86,11.88-52.83,2.17-64.71-21.69L454.29,262l86.4-43.02l11.43,22.95
			C564,265.79,554.29,294.76,530.43,306.64z" class="color080717 svgShape"/><path d="M483.9,248.2c-1.51,0-2.96-0.83-3.68-2.27l-32.49-65.25c-2.88,1.11-5.77,2-8.65,2.65c-18.9,4.21-33.36-3.56-35.93-13.18
				c-1.51-5.68,0.93-13.02,12.34-16.57c17.85-5.56,35.07,15.21,35.79,16.09c0.08,0.09,0.15,0.19,0.22,0.29
				c4.82-2.54,9.47-5.75,13.71-9.42c-1.05-1.94-1.96-3.56-2.7-4.78c-8.75-14.5-12.24-23.55-8.43-35.8
				c3.92-12.61,11.99-19.78,21.59-19.17c8.56,0.55,15.88,7.29,17.42,16.04c2.8,15.99-5.18,32.6-17.71,45.37
				c12.08,23.18,33.51,68.23,34.59,70.5c0.97,2.05,0.1,4.49-1.95,5.46c-2.03,0.98-4.49,0.1-5.46-1.94
				c-0.26-0.54-21.17-44.53-33.44-68.27c-4.36,3.61-9.07,6.77-13.93,9.33l32.37,65c1.01,2.03,0.18,4.49-1.85,5.5
				C485.14,248.07,484.51,248.2,483.9,248.2z M421.69,160.85c-1.27,0-2.52,0.17-3.74,0.55c-1.87,0.58-7.88,2.78-6.86,6.63
				c1.18,4.45,10.96,10.69,26.22,7.28c2.13-0.47,4.27-1.11,6.41-1.88C439.41,168.75,430.26,160.85,421.69,160.85z M474.57,108.95
				c-5.4,0-9.99,4.86-12.65,13.43c-2.65,8.55-1.02,14.81,7.62,29.13c0.52,0.86,1.11,1.9,1.77,3.09
				c9.8-10.73,15.86-23.99,13.69-36.36c-0.87-4.99-5.11-8.97-9.86-9.27C474.96,108.96,474.77,108.95,474.57,108.95z" class="color000000 svgShape"/></g><g fill="#e8f4fa" class="color000000 svgShape"><path fill="#1c1c1c" d="M555.25,80.57c-1.64,0-3.18-0.99-3.82-2.6c-0.83-2.11,0.21-4.49,2.32-5.32l40.97-16.09
			c2.1-0.83,4.48,0.21,5.31,2.32c0.83,2.11-0.21,4.49-2.32,5.32l-40.97,16.09C556.26,80.48,555.75,80.57,555.25,80.57z" class="color080717 svgShape"/></g><g fill="#e8f4fa" class="color000000 svgShape"><path fill="#1c1c1c" d="M526.34,36.33c-1.12,0-2.23-0.46-3.04-1.35c-1.52-1.68-1.39-4.27,0.3-5.79l31.15-28.13
			c1.68-1.52,4.27-1.39,5.79,0.29c1.52,1.68,1.39,4.27-0.3,5.79l-31.15,28.13C528.31,35.98,527.32,36.33,526.34,36.33z" class="color080717 svgShape"/></g><g fill="#e8f4fa" class="color000000 svgShape"><path fill="#1c1c1c" d="M602.74,139.86c-0.42,0-0.84-0.07-1.27-0.2l-40.7-13.23c-2.15-0.7-3.33-3.01-2.63-5.17
			c0.7-2.15,3-3.33,5.17-2.63l40.69,13.23c2.15,0.7,3.33,3.01,2.63,5.17C606.08,138.76,604.47,139.86,602.74,139.86z" class="color080717 svgShape"/></g></svg>