<svg width="233" height="254" viewBox="0 0 233 254" fill="none" xmlns="http://www.w3.org/2000/svg">
<g clip-path="url(#clip0_2407_432)">
<path d="M125.697 252.912L131.191 241.845C125.185 235.791 123.064 226.855 125.697 218.715L128.804 209.119L106.846 182.172C100.368 174.22 99.9923 162.875 105.932 154.51L130.713 119.608L154.104 131.639L137.396 170.138L210.827 219.083C219.826 225.081 226.43 234.092 229.473 244.524L231.921 252.912H125.697Z" fill="#AEBFFF"/>
<path d="M217.518 201.603C222.819 196.26 222.819 187.596 217.518 182.253C212.217 176.91 203.623 176.91 198.322 182.253C193.022 187.597 193.022 196.26 198.323 201.604C203.623 206.947 212.218 206.947 217.518 201.603Z" fill="#1C1C1C"/>
<path d="M218.311 184.128C230.898 171.44 230.897 150.868 218.31 138.18C205.723 125.492 185.316 125.492 172.729 138.181C160.143 150.869 160.143 171.441 172.73 184.129C185.317 196.817 205.724 196.817 218.311 184.128Z" fill="#1C1C1C"/>
<path d="M206.849 194.653C213.162 188.289 213.162 177.971 206.849 171.608C200.536 165.244 190.301 165.244 183.988 171.608C177.675 177.972 177.675 188.29 183.988 194.653C190.301 201.017 200.536 201.017 206.849 194.653Z" fill="#1C1C1C"/>
<path d="M188.984 170.244C190.177 161.325 183.972 153.12 175.124 151.918C166.276 150.715 158.137 156.971 156.944 165.89C155.751 174.809 161.957 183.014 170.804 184.216C179.652 185.419 187.792 179.163 188.984 170.244Z" fill="#1C1C1C"/>
<path d="M220.454 192.642C227.803 191.156 232.566 183.945 231.092 176.536C229.617 169.126 222.464 164.325 215.114 165.812C207.764 167.298 203.001 174.509 204.476 181.918C205.95 189.327 213.104 194.129 220.454 192.642Z" fill="#1C1C1C"/>
<path d="M163.694 175.924C171.191 175.924 177.268 169.798 177.268 162.241C177.268 154.685 171.191 148.559 163.694 148.559C156.198 148.559 150.121 154.685 150.121 162.241C150.121 169.798 156.198 175.924 163.694 175.924Z" fill="#1C1C1C"/>
<path d="M182.806 155.764C178.652 162.054 170.225 163.758 163.986 159.568C157.747 155.38 156.056 146.886 160.213 140.596C164.367 134.307 172.794 132.602 179.033 136.793C185.272 140.98 186.96 149.475 182.806 155.764Z" fill="#1C1C1C"/>
<path d="M161.218 186.026C161.47 185.533 161.743 185.051 162.053 184.58L185.3 149.385L209.795 165.826L186.548 201.021C186.238 201.492 185.899 201.934 185.547 202.355L194.874 208.616C186.036 213.905 174.608 213.981 165.48 207.856C156.352 201.731 152.017 191.071 153.448 180.811L161.218 186.026Z" fill="white"/>
<path d="M170.771 144.893C171.711 145.523 172.422 146.368 172.895 147.318C181.293 137.312 195.982 135.022 207.066 142.46C217.916 149.745 221.569 163.838 216.162 175.377C216.228 175.417 216.293 175.451 216.356 175.493C219.245 177.431 220.025 181.362 218.103 184.274C216.181 187.185 212.281 187.972 209.393 186.034C208.991 185.764 208.634 185.452 208.316 185.115C199.761 191.625 187.726 192.339 178.296 186.01C168.483 179.422 164.563 167.266 167.901 156.464C166.506 156.604 165.059 156.276 163.804 155.434C160.916 153.496 160.136 149.565 162.058 146.653C163.983 143.744 167.882 142.955 170.771 144.893Z" fill="white"/>
<path d="M192.679 191.474C187.466 191.474 182.243 189.96 177.703 186.913C168.187 180.525 163.702 168.614 166.485 157.536C165.322 157.406 164.196 156.998 163.211 156.339C161.575 155.241 160.462 153.565 160.076 151.625C159.69 149.682 160.076 147.704 161.165 146.055C162.252 144.406 163.915 143.284 165.842 142.895C167.764 142.506 169.731 142.895 171.367 143.993C171.997 144.417 172.559 144.938 173.032 145.534C182.005 135.92 196.634 134.157 207.662 141.558C218.484 148.821 222.62 163.06 217.51 175.004C220.424 177.386 221.118 181.666 218.998 184.875C216.751 188.279 212.174 189.205 208.797 186.937C208.605 186.807 208.416 186.667 208.235 186.516C203.592 189.814 198.141 191.474 192.679 191.474ZM167.903 155.378C168.226 155.378 168.531 155.524 168.738 155.778C168.967 156.061 169.04 156.44 168.933 156.786C165.674 167.335 169.77 178.98 178.898 185.108C187.682 191.005 199.246 190.661 207.67 184.25C208.106 183.919 208.723 183.967 209.101 184.369C209.38 184.665 209.679 184.92 209.994 185.131C212.381 186.733 215.619 186.079 217.21 183.673C218.799 181.264 218.15 178 215.763 176.399C215.753 176.393 215.611 176.311 215.603 176.303C215.133 176.015 214.957 175.414 215.191 174.914C220.411 163.769 216.664 150.206 206.47 143.363C195.951 136.301 181.868 138.302 173.717 148.017C173.483 148.295 173.132 148.432 172.767 148.393C172.407 148.35 172.094 148.128 171.932 147.802C171.527 146.99 170.918 146.296 170.172 145.796C169.017 145.02 167.628 144.74 166.265 145.02C164.902 145.296 163.726 146.09 162.956 147.254C162.187 148.422 161.911 149.819 162.187 151.193C162.46 152.567 163.248 153.753 164.406 154.529C165.417 155.206 166.588 155.5 167.798 155.381C167.832 155.378 167.869 155.378 167.903 155.378Z" fill="#1C1C1C"/>
<path d="M213.385 134.112C223.305 140.772 228.373 152.014 227.683 163.2C223.187 163.6 218.531 162.523 214.482 159.804C205.147 153.538 202.534 140.923 208.511 131.425C210.184 132.171 211.814 133.058 213.385 134.112Z" fill="#1C1C1C"/>
<path d="M192.926 171.988C192.548 171.988 192.16 171.943 191.771 171.85C189.66 171.345 188.234 169.606 188.137 167.422L187.974 163.83C187.953 163.382 188.208 162.969 188.615 162.787C189.019 162.607 189.494 162.694 189.812 163.012C190.76 163.967 194.87 165.672 197.238 166.524C197.537 166.633 197.774 166.866 197.884 167.165C197.994 167.464 197.968 167.798 197.816 168.078L196.997 169.545C196.13 171.099 194.604 171.988 192.926 171.988ZM190.222 165.857L190.287 167.324C190.353 168.769 191.353 169.518 192.27 169.738C193.181 169.958 194.415 169.743 195.119 168.481L195.319 168.123C193.99 167.61 191.86 166.744 190.222 165.857Z" fill="#1C1C1C"/>
<path d="M206.78 170.723C204.774 170.723 202.81 170.128 201.1 168.981C198.813 167.446 197.256 165.106 196.715 162.39C196.174 159.674 196.715 156.908 198.238 154.602C201.384 149.843 207.783 148.549 212.502 151.717C214.789 153.252 216.347 155.592 216.887 158.308C217.426 161.024 216.887 163.79 215.362 166.093C213.839 168.399 211.517 169.969 208.823 170.514C208.143 170.654 207.46 170.723 206.78 170.723ZM200.032 155.804C198.829 157.628 198.401 159.815 198.829 161.961C199.257 164.108 200.489 165.958 202.295 167.173C204.105 168.388 206.274 168.817 208.403 168.388C210.533 167.957 212.371 166.715 213.574 164.894C214.776 163.07 215.204 160.884 214.776 158.737C214.348 156.59 213.119 154.74 211.31 153.525C207.579 151.021 202.518 152.043 200.032 155.804Z" fill="black"/>
<path d="M186.028 156.791C184.019 156.791 182.058 156.196 180.348 155.05C175.629 151.881 174.345 145.43 177.489 140.671C180.634 135.911 187.031 134.619 191.753 137.785C194.04 139.321 195.597 141.661 196.138 144.376C196.676 147.092 196.138 149.859 194.612 152.164C193.089 154.47 190.768 156.04 188.074 156.585C187.391 156.725 186.708 156.791 186.028 156.791ZM179.279 141.875C176.795 145.637 177.809 150.737 181.543 153.244C183.352 154.459 185.521 154.885 187.651 154.459C189.78 154.028 191.619 152.786 192.821 150.965C194.024 149.141 194.452 146.955 194.024 144.808C193.596 142.661 192.367 140.811 190.558 139.596C186.826 137.089 181.766 138.111 179.279 141.875Z" fill="black"/>
<path d="M215.695 175.821C215.193 175.821 214.744 175.464 214.639 174.95L212.935 166.382C212.819 165.794 213.195 165.222 213.78 165.103C214.361 164.987 214.931 165.365 215.049 165.953L216.753 174.521C216.869 175.109 216.493 175.681 215.907 175.8C215.837 175.813 215.766 175.821 215.695 175.821Z" fill="black"/>
<path d="M198.795 156.061C198.59 156.061 198.382 156.002 198.198 155.878L193.435 152.68C192.939 152.347 192.805 151.674 193.136 151.174C193.464 150.674 194.134 150.541 194.627 150.872L199.391 154.07C199.887 154.403 200.021 155.076 199.69 155.576C199.485 155.891 199.141 156.061 198.795 156.061Z" fill="black"/>
<path d="M205.205 157.168C204.391 158.398 204.569 159.96 205.604 160.654C206.639 161.347 208.135 160.911 208.947 159.68C209.761 158.449 209.582 156.887 208.548 156.193C207.516 155.5 206.019 155.934 205.205 157.168Z" fill="#1C1C1C"/>
<path d="M186.834 144.835C186.02 146.066 186.198 147.628 187.233 148.321C188.268 149.015 189.764 148.578 190.576 147.347C191.39 146.116 191.211 144.554 190.177 143.861C189.142 143.167 187.648 143.604 186.834 144.835Z" fill="#1C1C1C"/>
<path d="M79.5626 144.597L42.6733 119.402C35.1595 114.271 24.954 116.233 19.8785 123.784C14.803 131.336 16.7796 141.618 24.2933 146.75L61.1827 171.944C68.6964 177.076 78.902 175.114 83.9775 167.562C89.053 160.01 87.0764 149.728 79.5626 144.597Z" fill="#1C1C1C"/>
<path d="M83.0442 147.606C84.7353 145.091 89.3464 135.154 87.6212 133.976L49.4535 107.911C47.7283 106.733 40.2917 114.737 38.6006 117.255L83.0442 147.606Z" fill="#FFB999"/>
<path d="M86.9884 102.416C88.0085 101.745 89.2214 101.436 90.4417 101.489C113.323 102.483 136.237 91.7806 150.11 71.1378V71.1378C158.217 59.0732 152.855 43.8031 140.852 35.6061L120.305 21.5749C108.357 13.416 92.2428 14.1026 84.1734 26.1111V26.1111C70.4849 46.4788 68.9832 71.5022 77.9752 92.3844C78.6654 93.9872 78.5444 95.8377 77.571 97.2861V97.2861C74.5722 101.748 79.875 107.101 84.365 104.144L86.9884 102.416Z" fill="#FFB999"/>
<path d="M90.032 53.0448L85.9355 51.7054C87.9155 45.5536 90.7567 39.7009 94.3831 34.3035C96.7937 30.7167 99.5535 27.3443 102.586 24.2764L105.635 27.3417C102.794 30.2164 100.207 33.377 97.9491 36.7388C94.5512 41.7973 91.8859 47.2847 90.032 53.0448Z" fill="white"/>
<path d="M91.6207 98.4517L80.6963 90.9912L59.1655 123.029L70.0898 130.49L91.6207 98.4517Z" fill="#FFB999"/>
<path d="M131.411 110.843C127.33 110.843 123.207 110.044 119.271 108.376L97.6914 99.2305L99.7764 94.2276L121.356 103.373C132.787 108.217 146.129 104.223 153.08 93.8755L169.358 69.6521L144.107 52.4091L147.127 47.917L176.834 68.2042L157.536 96.9223C151.546 105.838 141.62 110.843 131.411 110.843Z" fill="#FFB999"/>
<path d="M77.7346 85.6011L61.3043 68.7922C50.8085 58.053 49.2776 41.1991 57.6674 28.7181L76.9626 0L106.672 20.2872L103.652 24.7793L78.4016 7.53622L62.1236 31.7596C55.1702 42.107 56.4385 56.0783 65.1408 64.9804L81.5711 81.7919L77.7346 85.6011Z" fill="#FFB999"/>
<path d="M150.247 141.989C150.305 141.838 157.324 124.889 161.948 120.304C161.985 120.267 162.011 120.222 162.027 120.175C163.689 119.59 165.491 118.499 167.021 116.501C167.534 115.831 168.159 115.029 168.86 114.129C173.77 107.823 181.992 97.2695 181.955 93.4631C181.921 90.2495 180.288 86.1889 178.31 84.4127C177.525 83.7059 176.732 83.3856 175.965 83.4677C175.083 83.5604 173.295 84.6536 171.254 86.2657C170.813 82.2924 161.809 75.3094 157.794 74.4465C154.215 73.6762 151.182 74.4888 149.257 76.7309C147.603 78.658 146.831 80.8921 146.799 80.9874C146.749 81.133 146.802 81.2892 146.923 81.3765C146.949 81.395 146.978 81.4109 147.009 81.4215C147.02 81.4242 147.03 81.4242 147.038 81.4242C145.132 81.8609 144.042 83.0839 143.32 83.9018C141.784 85.6409 142.535 88.6216 142.564 88.7221C142.569 88.746 142.582 88.7645 142.593 88.7857C141.214 88.9154 139.969 89.3019 139.042 89.9424C136.892 91.4222 137.469 95.4484 137.606 96.2372C137.28 96.8275 135.967 99.4878 137.141 102.222C137.968 104.152 138.74 105.322 139.778 106.423L139.775 106.426L126.624 124.897C126.569 124.974 126.693 124.868 126.711 124.961C126.727 125.045 126.829 125.045 126.9 125.096C126.905 125.101 126.911 125.104 126.919 125.109L150.003 141.809C150.09 141.862 150.113 141.992 150.21 141.957C150.3 141.926 150.21 142.085 150.247 141.989Z" fill="white"/>
<path d="M126.895 126.181C126.677 126.181 126.459 126.115 126.267 125.977C125.784 125.628 125.674 124.95 126.02 124.463L139.171 105.992C139.518 105.505 140.19 105.393 140.673 105.743C141.156 106.092 141.266 106.77 140.92 107.257L127.769 125.728C127.559 126.022 127.228 126.181 126.895 126.181Z" fill="black"/>
<path d="M170.932 87.5233C170.364 87.5233 169.892 87.076 169.858 86.4989C169.687 83.4839 161.284 76.6544 157.495 75.8391C153.582 74.9974 151.437 76.3659 150.323 77.663C148.861 79.3703 148.141 81.4298 148.133 81.4509C147.939 82.0174 147.322 82.3165 146.765 82.1206C146.203 81.9248 145.904 81.3106 146.098 80.7415C146.132 80.6409 146.952 78.2744 148.695 76.2415C150.804 73.7824 154.092 72.885 157.946 73.7162C161.867 74.5606 171.753 81.8268 172.008 86.3745C172.042 86.9727 171.588 87.4863 170.995 87.5207C170.974 87.5233 170.953 87.5233 170.932 87.5233Z" fill="black"/>
<path d="M165.296 93.1011C164.994 93.1011 164.695 92.974 164.479 92.7252C160.785 88.4025 156.623 85.2975 152.114 83.4975C147.277 81.5651 145.599 83.4657 144.37 84.8554C143.356 86.0042 143.779 87.7222 143.784 87.7381C143.931 88.3151 143.59 88.9081 143.018 89.0616C142.44 89.2152 141.86 88.8763 141.702 88.3019C141.671 88.1854 140.959 85.451 142.758 83.4128C144.026 81.9754 146.66 78.9842 152.904 81.4804C157.741 83.4128 162.182 86.719 166.107 91.309C166.496 91.7616 166.446 92.4472 165.994 92.839C165.795 93.0137 165.545 93.1011 165.296 93.1011Z" fill="black"/>
<path d="M141.516 108.69C141.267 108.69 141.017 108.602 140.812 108.428C138.846 106.718 137.693 105.397 136.459 102.519C135.112 99.3799 135.784 91.2852 138.622 89.3316C141.327 87.4681 145.502 87.7672 148.449 88.8896C152.957 90.6102 159.031 93.559 162.355 97.842C162.723 98.3131 162.642 98.9961 162.172 99.3667C161.704 99.7373 161.027 99.6526 160.662 99.1814C157.642 95.2955 151.938 92.5452 147.684 90.9225C144.869 89.8478 141.569 89.9325 139.838 91.1263C138.215 92.2434 137.309 99.0384 138.436 101.662C139.515 104.182 140.437 105.238 142.22 106.786C142.669 107.178 142.721 107.864 142.33 108.316C142.118 108.563 141.816 108.69 141.516 108.69Z" fill="black"/>
<path d="M158.356 121.562C157.406 121.562 156.783 121.445 156.705 121.43C156.122 121.316 155.741 120.744 155.854 120.156C155.967 119.569 156.531 119.182 157.114 119.299C157.34 119.341 162.382 120.225 165.898 115.627C166.413 114.955 167.043 114.148 167.747 113.24C171.909 107.898 180.572 96.7774 180.537 93.4739C180.509 90.6574 179.056 86.9938 177.368 85.4744C177.04 85.1779 176.564 84.8391 176.11 84.8841C174.999 85.0006 169.43 88.9659 165.383 94.0139C163.18 96.7615 162.056 99.1201 162.219 100.647C162.227 100.716 162.269 101.063 162.382 101.105C163.894 101.664 170.052 97.1215 174.868 92.5288C175.301 92.1186 175.981 92.1371 176.391 92.5712C176.798 93.008 176.782 93.6936 176.349 94.1065C173.784 96.5551 165.129 104.443 161.639 103.144C161.127 102.953 160.239 102.405 160.076 100.88C159.843 98.7124 161.066 95.9436 163.708 92.6506C167.455 87.9759 173.602 82.9676 175.887 82.7267C176.562 82.6579 177.62 82.7956 178.799 83.857C180.944 85.7868 182.654 90.0009 182.691 93.4553C182.727 97.2089 176.165 105.952 169.44 114.584C168.739 115.484 168.114 116.286 167.602 116.956C164.559 120.935 160.57 121.562 158.356 121.562Z" fill="black"/>
<path d="M149.979 142.882C149.842 142.882 149.701 142.856 149.567 142.8C149.018 142.572 148.758 141.937 148.984 141.381C149.273 140.677 156.121 124.08 160.953 119.286C161.375 118.865 162.056 118.87 162.476 119.297C162.893 119.723 162.888 120.411 162.463 120.832C157.943 125.319 151.042 142.043 150.974 142.21C150.804 142.631 150.402 142.882 149.979 142.882Z" fill="black"/>
<path d="M131.45 110.846C127.325 110.846 123.181 110.034 119.271 108.376L97.6915 99.2308C96.3208 98.6511 95.6774 97.0602 96.2525 95.6785C96.8276 94.2967 98.4058 93.6481 99.7765 94.2279L121.356 103.373C129.922 107.003 139.84 105.745 147.243 100.088C148.427 99.1832 150.115 99.4188 151.013 100.613C151.911 101.806 151.678 103.508 150.493 104.414C144.947 108.654 138.223 110.846 131.45 110.846Z" fill="#FFB999"/>
<path d="M169.351 79.349L164.892 76.3049L169.364 69.6528L144.11 52.4098L147.13 47.915L176.84 68.2049L169.351 79.349Z" fill="#FFB999"/>
<path d="M132.622 179.406C132.438 179.406 132.249 179.358 132.079 179.255C131.567 178.951 131.396 178.286 131.695 177.77L136.469 169.588C136.771 169.072 137.43 168.9 137.942 169.201C138.454 169.506 138.625 170.17 138.326 170.686L133.552 178.866C133.35 179.215 132.99 179.406 132.622 179.406Z" fill="#8AA2FF"/>
<path d="M123.074 131.16C123.074 131.16 136.44 129.235 146.944 145.597L123.074 131.16Z" fill="#AEBFFF"/>
<path d="M160.987 107.373C159.653 107.373 158.319 106.767 157.35 105.663C152.453 100.091 145.108 100.001 145.035 100.001C144.441 99.998 143.961 99.511 143.961 98.9127C143.961 98.3145 144.441 97.8301 145.038 97.8301C145.376 97.8301 153.406 97.9016 158.963 104.223C159.693 105.051 160.754 105.395 161.665 105.094C162.868 104.697 163.191 104.037 162.812 102.74C162.644 102.166 162.973 101.562 163.542 101.393C164.115 101.224 164.711 101.555 164.879 102.129C165.585 104.556 164.656 106.388 162.334 107.153C161.896 107.301 161.442 107.373 160.987 107.373Z" fill="black"/>
</g>
<defs>
<clipPath id="clip0_2407_432">
<rect width="233" height="254" fill="white"/>
</clipPath>
</defs>
</svg>
