<svg xmlns="http://www.w3.org/2000/svg" enable-background="new 0 0 1137.88 954.6" viewBox="0 0 1137.88 954.6"><path fill="#1c1c1c" d="M802.11,75.15c-40.38-54.1-248.29-154.26-346.39,35.89C414.55,190.82,503.97,234,393.6,269.76
			c-110.38,35.76-186.77,53.61-215.49,99.72c-24.81,39.83-12.26,56.61,40.32,107.43c47.37,45.79-48.96,63.06-100.25,72.63
			C66.89,559.11,10.45,609.91,7.75,654.29c-18.76,308.72,391.1,361.56,624.3,239.49C805.48,803,977.19,309.69,802.11,75.15z" class="color080717 svgShape"/><path fill="#8aa2ff" d="M694,769.89l-35.66-305.47c-3.65-31.25-28.47-55.79-59.76-59.09l-42.59-7.12l-36.35-24.15
			c-45.44-41.25-117.61-28.44-146.08,25.93L219.55,694.15c-66.21,126.46,61.31,266.75,193.5,212.87l282.78-115.26L694,769.89z" class="colorff6700 svgShape"/><path fill="#1c1c1c" d="M4.11,623.81c-0.09,0-0.18,0-0.28-0.01c-2.26-0.15-3.98-2.11-3.82-4.38c2.8-41.39,57.4-91.51,110.22-101.19
				l1.87-0.34c33.99-6.22,97.27-17.8,103.41-38.91c1.78-6.1-1.73-13.28-10.41-21.34c-49.64-46.06-65.46-64.05-39.09-104.56
				c24.7-37.94,84.27-56.16,166.73-81.39c13.84-4.23,28.39-8.68,43.6-13.47c68.82-21.67,65.87-40.2,59.98-77.12
				c-2.81-17.64-6.31-39.59-2.3-66.77c5.2-35.19,35.48-65.25,87.56-86.91c38.74-16.12,75.34-21.95,76.89-22.19
				c2.26-0.36,4.34,1.18,4.7,3.42c0.35,2.24-1.18,4.34-3.43,4.69c-1.46,0.23-145.99,23.74-157.58,102.18
				c-3.83,25.93-0.58,46.3,2.28,64.27c6,37.61,9.96,62.46-65.62,86.25c-15.24,4.8-29.81,9.26-43.67,13.5
				c-80.8,24.71-139.18,42.57-162.25,78.01c-21.87,33.6-13.03,46.89,37.8,94.05c11.15,10.35,15.43,20.33,12.7,29.66
				c-7.57,25.98-69.1,37.24-109.82,44.7l-1.87,0.34c-49.66,9.1-100.93,55.49-103.51,93.66C8.06,622.15,6.26,623.81,4.11,623.81z" class="color080717 svgShape"/><path fill="#fff" d="M586.63,424.28c54.1-70.99,109.26-142.84,111.35-145.14l-48.65-101.99c0,0-79.67,113.38-137.98,190.55
					L586.63,424.28z" class="colorffffff svgShape"/><circle cx="718.78" cy="221.11" r="150.84" fill="#1c1c1c" class="color080717 svgShape" transform="rotate(-45.001 718.783 221.116)"/><path fill="#fff" d="M598.4,224.39c6.02-22.51,18.74-43.45,38.14-59.34c49.32-40.42,122.08-33.21,162.5,16.12
				c31.56,38.51,33.95,91.23,10.07,131.77c-0.43,32.9-14.79,65.39-42.22,87.87c-49.32,40.42-122.08,33.21-162.5-16.12
				c-21.35-26.05-29.31-58.61-24.86-89.51c-17.22,6.16-37.18,1.29-49.44-13.67c-15.59-19.03-12.81-47.09,6.22-62.69
				C555.11,203.42,582.71,205.98,598.4,224.39z" class="colorffffff svgShape"/><path fill="#1c1c1c" d="M693.93,431.09c-3.99,0-8-0.2-12.02-0.6c-31.79-3.15-60.44-18.49-80.69-43.2
					c-1.44-1.76-1.18-4.34,0.57-5.78c1.75-1.44,4.35-1.18,5.78,0.57c18.85,23.01,45.54,37.29,75.14,40.23
					c29.58,2.93,58.57-5.83,81.58-24.68c25.45-20.86,40.29-51.75,40.72-84.75c0.02-2.27,1.9-4.13,4.16-4.06
					c2.27,0.03,4.08,1.89,4.06,4.16c-0.46,35.43-16.4,68.6-43.73,91C747.92,421.67,721.46,431.09,693.93,431.09z" class="color080717 svgShape"/><path fill="#1c1c1c" d="M586.39,269.03c-2,0-3.76-1.46-4.06-3.51c-1.91-12.81-11.32-24.51-23.42-29.12
					c-2.12-0.81-3.19-3.18-2.38-5.3c0.81-2.12,3.2-3.19,5.3-2.38c15.02,5.72,26.26,19.69,28.63,35.59c0.33,2.24-1.22,4.33-3.46,4.67
					C586.8,269.02,586.59,269.03,586.39,269.03z" class="color080717 svgShape"/><path fill="#1c1c1c" d="M741.76,380.4c-7.31,0-14.86-2.19-21.54-6.42c-10.27-6.49-17.07-16.9-18.19-27.82
					c-0.23-2.26,1.41-4.28,3.67-4.51c2.24-0.27,4.27,1.41,4.51,3.67c0.86,8.44,6.25,16.55,14.41,21.71
					c8.15,5.16,17.8,6.55,25.79,3.71c2.14-0.75,4.49,0.36,5.25,2.5c0.76,2.14-0.36,4.49-2.5,5.25
					C749.53,379.77,745.68,380.4,741.76,380.4z" class="color080717 svgShape"/><path fill="#1c1c1c" d="M740.93,257.54c-1.13,0-2.25-0.46-3.07-1.37l-1.22-1.38c-8.53-9.73-26.3-29.96-53.37-7.31
					c-1.75,1.46-4.33,1.23-5.79-0.52c-1.46-1.74-1.23-4.33,0.51-5.79c33.23-27.8,56.19-1.65,64.82,8.19l1.18,1.33
					c1.51,1.69,1.36,4.29-0.33,5.8C742.88,257.2,741.9,257.54,740.93,257.54z" class="color080717 svgShape"/><path fill="#1c1c1c" d="M768.55,336.45c-1.57,0-3.07-0.91-3.76-2.43c-7.8-17.46-7.86-35.33-5.53-45.32
					c2.35-10.11,9.91-18.87,20.74-24.04c11.22-5.36,23.67-5.78,33.27-1.12c2.04,0.99,2.9,3.45,1.91,5.49
					c-0.99,2.04-3.46,2.89-5.49,1.91c-7.28-3.53-17.3-3.09-26.15,1.14c-8.56,4.09-14.5,10.83-16.28,18.49
					c-1.64,7.04-2.42,23.42,5.04,40.1c0.93,2.07,0,4.5-2.07,5.43C769.68,336.33,769.11,336.45,768.55,336.45z" class="color080717 svgShape"/><path fill="#1c1c1c" d="M811.48,271.34c-0.6,0-1.21-0.13-1.79-0.41c-6.22-3.01-14.33-3.17-22.24-0.46
					c-2.15,0.74-4.49-0.41-5.22-2.55c-0.74-2.15,0.4-4.48,2.55-5.22c9.95-3.42,20.34-3.12,28.49,0.83c2.04,0.99,2.9,3.45,1.91,5.49
					C814.47,270.49,813,271.34,811.48,271.34z" class="color080717 svgShape"/><path fill="#1c1c1c" d="M802.61,317.47c-13.5,0-22.8-12.03-26.54-16.88l-0.74-0.96c-1.4-1.79-1.09-4.37,0.69-5.77
					c1.79-1.41,4.37-1.09,5.77,0.69l0.78,1.01c8.33,10.77,18.01,19.32,32.29,9.02c1.84-1.32,4.41-0.9,5.73,0.93
					c1.32,1.84,0.91,4.41-0.93,5.74C813.42,315.75,807.72,317.47,802.61,317.47z" class="color080717 svgShape"/><path fill="#1c1c1c" d="M711.18,295.53c-13.49,0-22.8-12.03-26.54-16.88l-0.74-0.95c-1.4-1.79-1.09-4.37,0.69-5.77
					c1.79-1.4,4.37-1.09,5.77,0.69l0.78,1.01c8.33,10.77,18,19.31,32.29,9.02c1.85-1.32,4.41-0.91,5.73,0.93
					c1.32,1.84,0.91,4.41-0.93,5.74C721.99,293.81,716.28,295.53,711.18,295.53z" class="color080717 svgShape"/><path fill="#1c1c1c" d="M602.75,156.33c-12.74,15.17-24.55,31.14-35.78,47.4c-0.95,1.4-1.07,3.59,0.53,4.69
				c14.46,10.11,30.53,17.58,47.47,22.14c31,8.31,64.26,6.45,93.3-6.15c31.74-13.82,57.87-39.22,72.41-70.78
				c1.67-3.57-3.46-6.16-5.58-3.43c-4.9-14.79-19.85-24.76-33.98-29.92c-15.73-5.74-32.45-7-48.92-7.35
				c-17.82-0.43-34.7,0.44-50.54,9.07C626.26,130.33,613.9,143.1,602.75,156.33z" class="color080717 svgShape"/><g fill="#333b91" class="color000000 svgShape"><polygon fill="#fff" points="597.44 505.71 832.47 378.17 830.65 436.48 639.34 565.83" class="colorffffff svgShape"/><path fill="#1c1c1c" d="M639.34,569.94c-1.3,0-2.58-0.61-3.37-1.76l-41.9-60.12c-0.67-0.96-0.9-2.16-0.63-3.3
				c0.27-1.14,1.01-2.11,2.04-2.66l235.03-127.54c1.29-0.71,2.86-0.66,4.11,0.11c1.26,0.77,2,2.15,1.95,3.63l-1.82,58.3
				c-0.04,1.32-0.71,2.54-1.81,3.28l-191.3,129.36C640.94,569.71,640.14,569.94,639.34,569.94z M603.44,507.13l36.96,53.03
				L826.6,434.25l1.53-49.05L603.44,507.13z" class="color080717 svgShape"/></g><g fill="#333b91" class="color000000 svgShape"><polygon fill="#fff" points="610.19 520.29 832.47 398.22 870.73 401.86 639.34 565.83" class="colorffffff svgShape"/><path fill="#1c1c1c" d="M639.34,569.94c-0.26,0-0.53-0.02-0.79-0.08c-1.1-0.21-2.07-0.87-2.68-1.82l-29.15-45.55
				c-0.61-0.96-0.8-2.13-0.52-3.23c0.28-1.1,1.01-2.04,2-2.59l222.27-122.07c0.72-0.4,1.56-0.56,2.37-0.49l38.26,3.65
				c1.71,0.16,3.14,1.37,3.58,3.03c0.45,1.66-0.19,3.42-1.59,4.41L641.72,569.19C641.02,569.68,640.19,569.94,639.34,569.94z
				 M616.02,521.77l24.46,38.22L859.33,404.9l-25.99-2.48L616.02,521.77z" class="color080717 svgShape"/></g><g fill="#333b91" class="color000000 svgShape"><polygon fill="#fff" points="597.44 505.71 577.4 932.04 641.16 939.33 863.44 773.53 881.66 394.57 655.74 514.82" class="colorffffff svgShape"/><path fill="#1c1c1c" d="M641.16,943.44c-0.16,0-0.31-0.01-0.47-0.03l-63.77-7.29c-2.15-0.25-3.74-2.11-3.64-4.28l20.04-426.33
				c0.06-1.17,0.6-2.25,1.51-2.99s2.09-1.06,3.23-0.87l56.95,8.9l224.71-119.6c1.31-0.69,2.88-0.63,4.13,0.16
				c1.25,0.79,1.98,2.19,1.91,3.67l-18.22,378.96c-0.06,1.23-0.66,2.36-1.65,3.1l-222.28,165.8
				C642.91,943.16,642.04,943.44,641.16,943.44z M581.68,928.4l58.33,6.67L859.43,771.4l17.78-369.8L657.67,518.45
				c-0.79,0.42-1.69,0.57-2.56,0.43l-53.78-8.4L581.68,928.4z" class="color080717 svgShape"/></g><g fill="#333b91" class="color000000 svgShape"><path fill="#fff" d="M504.73,714.17l214.49-82.4c0,0,1.11-61.42,9.29-65.42c8.18-4,77.24-62.1,77.24-62.1s17.03,7.37,15.87,26.05
				c-1.16,18.68-23.32,27.04-26.38,38.57c-3.06,11.53,1.97,17.61,1.97,17.61s33.83-7.64,53.38-20.49
				c19.55-12.85,28.08-20.55,28.08-20.55s15.96,4.24,19.64,16.61c3.68,12.37,3.75,22.83,0.78,28.06
				c-2.97,5.22,7.81,19.48,4.76,29.75c-3.04,10.27-6.14,19.57-6.14,19.57s12.74,11.61,11.14,20.04c-1.61,8.43-7.57,15.4-7.57,15.4
				s4.05,12.15,0.67,20.12c-3.38,7.96-15.52,21.51-37.52,29.28c-22,7.77-84.6,17.11-84.6,17.11s-70.28,47.81-115.79,70.22
				c-45.51,22.42-116.74,46.24-116.74,46.24L504.73,714.17z" class="colorffffff svgShape"/><path d="M544.6,863.27c-1.84,0-3.52-1.25-3.98-3.11c-0.55-2.2,0.79-4.43,2.99-4.98c64.27-16.07,234.96-115.02,236.68-116.02
					c0.4-0.23,0.84-0.4,1.3-0.48c0.67-0.13,67.14-12.87,89.61-22.02c29.65-12.08,30.3-25.22,28.07-41.15
					c-0.32-2.25,1.25-4.32,3.5-4.64c2.24-0.33,4.32,1.25,4.64,3.5c2.98,21.26-1.52,37.02-33.11,49.9
					c-22.24,9.06-82.91,20.89-90.48,22.35C770.8,754.16,609.7,847.13,545.6,863.15C545.26,863.24,544.93,863.27,544.6,863.27z" class="color000000 svgShape"/><path d="M874.91,689.55c-2.01,0-3.76-1.47-4.06-3.51c-0.33-2.24,1.22-4.33,3.46-4.66c0.22-0.03,21.39-3.31,27.01-15.45
					c2.68-5.78,1.34-13.07-4-21.66c-1.2-1.93-0.61-4.46,1.32-5.66s4.46-0.6,5.66,1.32c6.89,11.1,8.39,21.02,4.46,29.48
					c-7.5,16.15-32.21,19.95-33.26,20.1C875.31,689.53,875.11,689.55,874.91,689.55z" class="color000000 svgShape"/><path d="M871.17,655.91c-2,0-3.75-1.46-4.06-3.5c-0.34-2.24,1.2-4.34,3.45-4.68c0.22-0.03,22.3-3.56,28.87-17.72
					c3.78-8.14,1.78-18.62-5.92-31.17c-1.19-1.93-0.58-4.46,1.35-5.65c1.93-1.19,4.46-0.58,5.65,1.35
					c9.25,15.05,11.38,28.16,6.36,38.96c-8.46,18.17-34,22.19-35.09,22.36C871.57,655.9,871.37,655.91,871.17,655.91z" class="color000000 svgShape"/><path d="M866,615.39c-1.66,0-3.23-1.01-3.84-2.66c-0.8-2.12,0.27-4.49,2.4-5.3c17.81-6.71,45.98-22.06,45.73-34.67
					c-0.27-14.15-22.62-20.67-29.02-22.24c-10.23,7.5-66.15,47.04-95.95,38.35c-2.18-0.64-3.43-2.92-2.79-5.1
					c0.63-2.18,2.91-3.43,5.1-2.79c23.5,6.86,73.1-25.23,90.24-38.16c0.92-0.7,2.09-0.98,3.24-0.76
					c1.51,0.29,36.95,7.24,37.41,30.55c0.44,22.49-45.79,40.54-51.06,42.52C866.98,615.3,866.49,615.39,866,615.39z" class="color000000 svgShape"/><path d="M503.99,717.01c-1.67,0-3.23-1.02-3.85-2.67c-0.79-2.12,0.28-4.49,2.41-5.29l213.79-80.06
					c0.98-17.16,4.13-60.97,10.92-68.67c6.78-7.68,41.33-36.96,56.19-46.36c13.87-8.79,21.06-14.42,21.12-14.47
					c1.5-1.18,3.61-1.18,5.1,0.01c8.68,6.92,22.54,24.43,12.83,41.17c-2.02,3.48-5.27,7.32-8.71,11.39
					c-7.96,9.42-16.99,20.1-12.7,27.74c1.11,1.98,0.41,4.48-1.57,5.59c-1.97,1.11-4.48,0.41-5.59-1.57
					c-7.08-12.61,4.38-26.17,13.59-37.07c3.2-3.79,6.22-7.36,7.87-10.21c6.73-11.59-3.63-23.72-8.52-28.51
					c-3.34,2.45-9.67,6.93-19.03,12.86c-14.08,8.91-48.06,37.65-54.42,44.86c-3.61,4.09-7.49,37.63-9.02,66.35
					c-0.09,1.63-1.14,3.06-2.66,3.63l-216.3,81C504.95,716.92,504.47,717.01,503.99,717.01z" class="color000000 svgShape"/></g><g fill="#333b91" class="color000000 svgShape"><path fill="#fff" d="M327.79,777.65c-1.72,0-3.32-1.09-3.9-2.81c-0.72-2.15,0.45-4.48,2.6-5.2l174.91-58.3
				c2.17-0.72,4.48,0.45,5.2,2.6c0.72,2.15-0.45,4.48-2.6,5.2l-174.91,58.3C328.66,777.58,328.22,777.65,327.79,777.65z" class="colorffffff svgShape"/></g><g fill="#333b91" class="color000000 svgShape"><path fill="#fff" d="M417.06,744.85c-0.63,0-1.26-0.14-1.86-0.45c-2.02-1.03-2.83-3.5-1.8-5.53l52.84-103.85
				c1.03-2.02,3.51-2.83,5.53-1.8c2.02,1.03,2.83,3.5,1.8,5.53l-52.84,103.85C420,744.03,418.56,744.85,417.06,744.85z" class="colorffffff svgShape"/></g><g fill="#333b91" class="color000000 svgShape"><path fill="#fff" d="M916.46,317.69l14.7-54.86l0.1-0.36c-23.65-41.4-17.84-95.05,17.5-130.39c42.34-42.34,110.98-42.34,153.31,0
				c42.34,42.34,42.34,110.98,0,153.31c-35.34,35.34-88.99,41.15-130.39,17.5l-0.36,0.1L916.46,317.69z" class="colorffffff svgShape"/><path fill="#1c1c1c" d="M916.46,321.8c-1.08,0-2.13-0.42-2.91-1.2c-1.04-1.04-1.44-2.55-1.06-3.97l14.36-53.61
				c-24.08-43.66-16.38-98.47,19-133.85c43.86-43.87,115.24-43.87,159.12,0c43.87,43.87,43.87,115.25,0,159.12
				c-35.38,35.38-90.16,43.08-133.85,18.99l-53.6,14.36C917.17,321.75,916.82,321.8,916.46,321.8z M971.63,298.85
				c0.75,0,1.53,0.14,2.09,0.47c40.69,23.26,92.28,16.33,125.44-16.84c40.67-40.67,40.67-106.84,0-147.5
				c-40.67-40.67-106.84-40.67-147.5,0c-33.17,33.17-40.09,84.75-16.84,125.44c0.53,0.94,0.68,2.04,0.41,3.09l-12.96,48.36
				l47.98-12.86C970.66,298.91,971.14,298.85,971.63,298.85z" class="color080717 svgShape"/><path fill="#8aa2ff" d="M1027.42,262.48c0,0,99.78-115.37,8.2-76.52c-30.06,12.75,6.38,29.15,6.38,29.15s-11.84-47.37-46.46-54.66
			C960.92,153.16,995.54,219.67,1027.42,262.48z" class="colorff6700 svgShape"/></g></svg>