<svg xmlns="http://www.w3.org/2000/svg" enable-background="new 0 0 1038.05 804.67" viewBox="0 0 1038.05 804.67"><path fill="#fff" d="M3.55,453.38l13.17,89.87c11.28,59.63,45.83,112.32,96.02,146.43v0c83.41,56.69,194.13,51.96,272.4-11.63
				l114.42-92.97L556,757.83l345.5,11.97l122.84-298.81c33.65-81.84-20.14-173.18-108.03-183.45l-220.06-25.72l-172.75,32.5
				L241.29,538.9l-90.65-99.2L3.55,453.38z" class="colorffffff svgShape"/><path fill="#1c1c1c" d="M901.5,773.35c-0.04,0-0.08,0-0.12,0l-345.5-11.97c-1.49-0.05-2.79-1.03-3.25-2.44l-54.84-167.84
				L387.38,680.8c-80.1,65.08-191.27,69.83-276.63,11.81c-51.34-34.9-85.98-87.71-97.52-148.71L0.04,453.89
				c-0.14-0.96,0.12-1.94,0.72-2.71c0.6-0.77,1.49-1.25,2.46-1.34l147.09-13.68c1.11-0.11,2.2,0.32,2.95,1.14l88.32,96.65
				l279.6-242.32c0.47-0.41,1.05-0.69,1.67-0.8l172.75-32.5c0.35-0.07,0.71-0.09,1.07-0.04l220.06,25.72
				c43,5.03,80.27,29.3,102.24,66.61c21.97,37.31,25.13,81.67,8.66,121.71L904.78,771.15C904.24,772.48,902.94,773.35,901.5,773.35z
				 M558.6,754.37l340.56,11.8l121.91-296.53c15.61-37.97,12.62-80.04-8.22-115.42c-20.83-35.38-56.17-58.4-96.95-63.17
				L696.38,265.4L525.1,297.62L243.61,541.58c-1.45,1.25-3.64,1.13-4.94-0.29l-89.46-97.9L7.6,456.57l12.62,86.17
				c11.16,58.98,44.73,110.18,94.51,144.01c82.75,56.24,190.52,51.64,268.17-11.45l114.42-92.97c0.91-0.73,2.12-0.98,3.24-0.65
				c1.12,0.33,2.01,1.19,2.37,2.3L558.6,754.37z" class="color080717 svgShape"/><path fill="#8aa2ff" d="M500.28,242.23c-16.29,6.53-27.7,19.78-32.52,35.2c-1.02,3.25-3.38,5.88-6.5,7.25l-0.21,0.09
			c-6.3,2.75-13.61-0.1-16.35-6.37l-28.93-66.17l-167.6,73.27c-26.06,11.39-37.95,41.76-26.56,67.82l73.27,167.6l70.01-30.61
			c3.68-3.49,5.01-9.01,2.86-13.93l-0.01-0.01c-1.43-3.26-4.19-5.73-7.58-6.81c-15.31-4.87-28.47-16.24-34.96-32.45
			c-10.72-26.73,1.22-58.04,27.03-70.82c28.81-14.26,63.34-1.44,76.07,27.67c6.61,15.12,5.96,31.55-0.37,45.47
			c-1.31,2.89-1.89,6.14-1.02,9.19c1.69,5.93,7.15,9.36,12.75,8.99l70.01-30.61l-28.68-65.61c-2.17-4.96-1.29-10.93,2.68-14.6
			c3.91-3.62,9.3-4.17,13.79-2.07c14.03,6.54,30.68,7.29,45.98,0.6c29.11-12.73,41.93-47.26,27.67-76.07
			C558.32,243.44,527.01,231.51,500.28,242.23z" class="color52d2d8 svgShape"/><path fill="#fff" d="M351.8,278.94c3.33-3.33,5.12-7.79,5.03-12.56c-0.08-4.72-1.99-9.19-5.38-12.57L238.72,141.06
			c-0.13-0.13-0.3-0.19-0.45-0.3c-0.01-0.01-0.02-0.03-0.03-0.05c-14.89-14.89-34.68-23.09-55.73-23.09
			c-21.05,0-40.85,8.2-55.73,23.09l-36.8,36.8C33.69,233.8,2.69,308.63,2.69,388.22v71.56c0,2.06,1.67,3.73,3.73,3.73
			c0.58,0,1.11-0.16,1.59-0.39c3.82,3.81,22.29,19.58,66.26,19.58c23.13,0,53.31-4.38,92.07-17.18c2.02-0.67,3.12-2.85,2.45-4.87
			c-0.1-0.29-0.28-0.51-0.43-0.76c0.29-0.53,0.5-1.11,0.5-1.76v-72.75c0-0.79-0.3-1.48-0.72-2.08
			c10.56-4.15,20.45-10.46,28.97-18.97l15.73-16.02l0.75-2.46c0.75-0.43-1.39-1.5,0.75-33.57c9.41-5.13,19.83-24.05,18.77-31.96
			l51.46,51.46c7.11,7.11,16.56,11.03,26.62,11.03c10.06,0,19.51-3.91,26.62-11.03c7.02-7.02,7.02-18.46,0-25.48l-17.43-17.43
			c1.98,0.32,3.96,0.52,5.95,0.52C335.63,289.38,344.83,285.91,351.8,278.94z" class="colorffffff svgShape"/><path fill="#fff" d="M773.97,211.28l14.15,50.9l24.01,13.18l-31.29,55.51c-19.69,34.93-71.54,29.67-83.81-8.51l-11.82-36.78
					L773.97,211.28z" class="colorffffff svgShape"/><path fill="#333b91" d="M741.02,357.82c-1.73,0-3.48-0.09-5.24-0.27c-19.88-2.02-36.02-15.09-42.14-34.11l-11.82-36.79
					c-0.44-1.37-0.01-2.88,1.1-3.8l88.77-74.29c0.92-0.78,2.18-1.03,3.33-0.67c1.15,0.36,2.04,1.28,2.36,2.44l13.75,49.46
					l22.7,12.46c0.83,0.46,1.45,1.23,1.71,2.14c0.26,0.91,0.14,1.89-0.32,2.72l-31.29,55.51
					C774.98,348.47,758.86,357.82,741.02,357.82z M689.31,286.76l11.09,34.51c5.24,16.3,19.07,27.49,36.1,29.22
					c17.02,1.73,32.83-6.46,41.24-21.37l29.53-52.38l-20.86-11.45c-0.84-0.46-1.45-1.24-1.71-2.16l-12.67-45.6L689.31,286.76z" class="color000000 svgShape"/><path fill="#333b91" d="M697.03,322.35c0.77,2.38,1.69,4.63,2.74,6.76c8.65-5.94,16.27-14.05,22.1-24.38l49.31-87.46l-2.63-1.44l-83.34,69.75
				L697.03,322.35z" class="color000000 svgShape"/><path fill="#333b91" d="M757.69,24.21c-36.88-19.06-85.39-10.04-93.16,4.36c-7.05-7.06-16.7-12.28-27.92-14.31
				c-26.2-4.73-50.93,9.68-55.23,32.18c-3.73,19.5,9.11,38.66,29.63,46.51c-5.93,13.25-10.58,27.78-13.54,43.26
				c-11.81,61.76,87.73,84.86,106.62,88.27c51.1,9.23,101.16-28.51,111.83-84.29C826.6,84.4,802.23,47.22,757.69,24.21z" class="color000000 svgShape"/><path fill="#333b91" d="M757.43,39.83c-14.53,2.74-26.36,8.96-33.52,18.74c-20.2,27.58-1.78,92.93,53.74,104.63c3.46,0.73,7.32-0.29,10.45,1.22
				C797.63,113.86,784.78,66.94,757.43,39.83z" class="color000000 svgShape"/><path fill="#333b91" d="M608.84,92.26c20.95,11.08,49.47,17.52,80.76,16.71c52.62-1.37,96.38-22.83,108.96-50.79
				c-14.39-27.49-37.08-46.6-65.29-51.36C685.06-1.32,635.37,34.92,608.84,92.26z" class="color000000 svgShape"/><path fill="#fff" d="M781.9,149.94c-8.11,0.21-15.57,2.91-21.68,7.33c-22.14-10.67-36.04-30.9-41.54-51.21
					c-9.26,1.64-19,2.64-29.07,2.9c-30.66,0.8-58.65-5.38-79.48-16.06c-5.66,13.13-10.1,27.49-12.94,42.77
					c-13.93,74.97,15.41,143.29,65.53,152.61c37.55,6.98,76.1-21.13,98.95-67.19c6.38,4.19,14.04,6.56,22.25,6.35
					c21.4-0.56,38.3-18.36,37.74-39.76C821.11,166.28,803.3,149.39,781.9,149.94z" class="colorffffff svgShape"/><path fill="#333b91" d="M674.19,292.9c-4.05,0-8.09-0.36-12.12-1.11c-25.45-4.73-46.54-23.83-59.4-53.77c-12.65-29.46-15.84-66.03-8.97-102.97
					c2.81-15.14,7.25-29.78,13.17-43.53c0.39-0.9,1.13-1.6,2.06-1.93c0.92-0.33,1.95-0.27,2.82,0.18
					c21.18,10.86,48.77,16.43,77.77,15.66c9.68-0.25,19.28-1.21,28.54-2.85c1.8-0.33,3.56,0.79,4.04,2.56
					c5.72,21.11,19.45,38.5,37.84,48.03c6.52-4.23,14.04-6.56,21.87-6.77c0,0,0,0,0,0c11.26-0.18,22.03,3.83,30.23,11.61
					c8.2,7.78,12.87,18.29,13.17,29.59c0.3,11.3-3.83,22.04-11.61,30.23c-7.78,8.2-18.29,12.88-29.59,13.17
					c-7.35,0.13-14.48-1.5-20.9-4.91C741.28,267.92,707.61,292.89,674.19,292.9z M611.95,97.76c-5,12.26-8.79,25.22-11.27,38.57
					c-6.61,35.58-3.59,70.69,8.52,98.87c11.9,27.7,31.14,45.31,54.18,49.6c34.93,6.52,72.24-19.13,95.12-65.28
					c0.45-0.91,1.27-1.58,2.25-1.85c0.99-0.27,2.03-0.1,2.88,0.46c6.03,3.96,13.04,6.03,20.21,5.76
					c9.41-0.24,18.15-4.14,24.63-10.96c6.48-6.82,9.91-15.76,9.66-25.16c-0.25-9.41-4.14-18.15-10.96-24.63
					c-6.82-6.48-15.8-9.96-25.16-9.66c-7.12,0.19-13.93,2.49-19.7,6.66c-1.05,0.76-2.45,0.89-3.62,0.32
					c-20.23-9.75-35.59-28-42.53-50.38c-8.63,1.38-17.51,2.19-26.45,2.43C661.09,113.21,633.66,108.04,611.95,97.76z" class="color000000 svgShape"/><path fill="#333b91" d="M665.12,30.48c-1.27,0-2.49-0.68-3.13-1.87C654.52,14.64,641.75,7.36,624.04,7c-13.68-0.27-25.29,3.83-25.41,3.87
					c-1.85,0.67-3.87-0.29-4.54-2.13c-0.66-1.84,0.29-3.87,2.13-4.54c0.51-0.18,51.17-17.94,72.02,21.07
					c0.92,1.73,0.27,3.88-1.46,4.8C666.26,30.35,665.68,30.48,665.12,30.48z" class="color000000 svgShape"/><path fill="#333b91" d="M601,165.98c1.13,5.88,5.08,10.06,8.82,9.35c3.74-0.72,5.86-6.07,4.73-11.95c-1.13-5.88-5.08-10.06-8.82-9.35
				C601.99,154.75,599.87,160.1,601,165.98z" class="color000000 svgShape"/><path fill="#333b91" d="M590.78,146.96c-1.33,0-2.61-0.76-3.21-2.04c-0.83-1.77-0.07-3.89,1.7-4.72c12.38-5.81,25.74-4.01,26.3-3.94
					c1.94,0.27,3.28,2.06,3.02,4c-0.27,1.94-2.08,3.32-4,3.02c-0.12-0.02-11.89-1.56-22.31,3.33
					C591.8,146.85,591.29,146.96,590.78,146.96z" class="color000000 svgShape"/><path fill="#333b91" d="M658.52,166.12c1.13,5.88,5.08,10.06,8.82,9.35c3.74-0.72,5.86-6.07,4.73-11.95c-1.13-5.88-5.08-10.06-8.82-9.35
				C659.51,154.89,657.39,160.24,658.52,166.12z" class="color000000 svgShape"/><path fill="#333b91" d="M688.67,152.42c-0.84,0-1.67-0.29-2.35-0.89c-0.16-0.14-15.86-13.82-32.26-8.81c-1.86,0.56-3.86-0.48-4.43-2.36
					c-0.57-1.87,0.49-3.86,2.36-4.43c20.25-6.16,38.28,9.62,39.04,10.3c1.46,1.3,1.59,3.54,0.29,5
					C690.62,152.02,689.65,152.42,688.67,152.42z" class="color000000 svgShape"/><path fill="#333b91" d="M635.12,202.34c-2.74,0-12.73-0.39-16.82-5.91c-1.32-1.78-2.58-4.83-1.11-9.22c2.83-8.47,7.74-35.91,7.79-36.19
					c0.34-1.93,2.18-3.21,4.11-2.87c1.93,0.34,3.21,2.19,2.87,4.12c-0.2,1.15-5.05,28.23-8.04,37.19c-0.6,1.81-0.1,2.49,0.09,2.74
					c1.63,2.22,7.89,3.14,11.52,3.03c2.1-0.06,3.58,1.51,3.63,3.46c0.05,1.96-1.49,3.58-3.45,3.63
					C635.59,202.34,635.39,202.34,635.12,202.34z" class="color000000 svgShape"/><g fill="#333b91" class="color000000 svgShape"><path d="M639.25,232.54c-3.95,0-6.53-0.64-6.62-0.67c-1.89-0.5-3.03-2.44-2.53-4.33c0.5-1.89,2.42-3.03,4.32-2.53
					c1.05,0.25,25.29,5.95,35.61-27.27c0.58-1.87,2.58-2.91,4.44-2.33c1.87,0.58,2.92,2.57,2.34,4.44
					C667.92,228.43,649.23,232.54,639.25,232.54z" class="color000000 svgShape"/></g><g fill="#333b91" class="color000000 svgShape"><path d="M766.06,184.07c-0.69,0-1.39-0.2-2-0.62c-1.61-1.1-2.03-3.3-0.93-4.92c0.45-0.65,11.18-16.11,28.9-13.77
					c1.94,0.25,3.31,2.03,3.06,3.97c-0.25,1.94-2.03,3.31-3.98,3.06c-13.34-1.76-21.78,10.23-22.13,10.74
					C768.3,183.53,767.19,184.07,766.06,184.07z" class="color000000 svgShape"/></g><g fill="#333b91" class="color000000 svgShape"><path fill="#8aa2ff" d="M628.49,743.32c17.54,0.54,33.3-7.03,43.9-19.22c2.23-2.57,5.46-4.04,8.86-4.04h0.23
				c6.87,0,12.43,5.55,12.43,12.39v72.22h182.92c28.44,0,51.5-23.06,51.5-51.5V570.25H693.9v72.22c0,6.84-5.55,12.39-12.39,12.39
				l0,0c-3.61,0-6.99-1.61-9.38-4.32c-10.23-11.62-25.19-18.97-41.89-18.97c-31.77,0-57.35,26.51-55.82,58.61
				C575.8,718.96,599.7,742.44,628.49,743.32z" class="color52d2d8 svgShape"/><path fill="#1c1c1c" d="M866.98,634.89c0.54-17.46-6.96-33.14-19.04-43.74c-2.68-2.35-4.22-5.72-4.22-9.28v-0.01
				c0-6.84,5.55-12.39,12.39-12.39h72.22V386.56c0-28.44-23.06-51.5-51.5-51.5H693.9v234.42h72.22c6.84,0,12.39,5.55,12.39,12.39
				l0,0c0,3.61-1.61,6.99-4.32,9.38c-11.62,10.23-18.97,25.19-18.97,41.89c0,31.77,26.51,57.35,58.62,55.82
				C842.61,687.58,866.09,663.68,866.98,634.89z" class="color080717 svgShape"/><path fill="#1c1c1c" d="M520.83,504.84c-0.54,17.54,7.03,33.3,19.22,43.9c2.57,2.23,4.04,5.46,4.04,8.86v0.23
				c0,6.87-5.55,12.43-12.39,12.43h-72.22v182.92c0,28.44,23.06,51.5,51.5,51.5H693.9V570.25h-72.22c-6.84,0-12.39-5.55-12.39-12.39
				l0,0c0-3.61,1.61-6.99,4.32-9.38c11.62-10.23,18.97-25.19,18.97-41.89c0-31.77-26.51-57.35-58.61-55.82
				C545.2,452.14,521.72,476.05,520.83,504.84z" class="color080717 svgShape"/></g><g fill="#333b91" class="color000000 svgShape"><path fill="#fff" d="M930.58,656.92l0.85,64.14c0,0,65.04-7.18,80.7-69.67c15.66-62.5,20.54-161.61-30.6-181.49
				c-51.14-19.88-125.35-72.96-122.79-32.76c1.92,30.12,89.8,82.1,89.8,82.1l-129.99-1.71c0,0-8.38,23.85-2.67,43.94
				c14.61,51.47,15.71,28.22,18.28,34.64C843.31,618.98,863.44,645.31,930.58,656.92z" class="colorffffff svgShape"/><path fill="#1c1c1c" d="M931.21,726.68c-1.46,0-2.83-0.91-3.34-2.36c-0.65-1.85,0.31-3.88,2.16-4.53
					c31.54-11.16,70.78-32.22,78.63-69.14c9.53-44.84,25.83-151.89-28.64-177.54l-106.54-47.9c-2.05-0.92-4.38-0.91-6.41,0.05
					c-2.03,0.95-3.54,2.73-4.14,4.89c-3.64,13.03,1.37,26.98,12.45,34.71l78.61,54.89c1.61,1.12,2,3.34,0.88,4.94
					c-1.12,1.6-3.33,2-4.94,0.88l-78.61-54.89c-13.55-9.46-19.67-26.51-15.23-42.44c1.16-4.15,4.06-7.58,7.97-9.41
					c3.9-1.83,8.4-1.86,12.33-0.09l106.6,47.93c24.49,11.53,61.22,50.93,32.62,185.46c-8.53,40.13-49.96,62.58-83.2,74.35
					C932.01,726.61,931.61,726.68,931.21,726.68z" class="color080717 svgShape"/><path fill="#1c1c1c" d="M822.54,557.96c-0.63,0-1.27-0.17-1.85-0.52c-17.69-10.86-11.71-32.69-6.07-42.72
					c0.66-1.17,1.94-1.88,3.26-1.8L985.47,521c1.96,0.09,3.47,1.76,3.37,3.71c-0.1,1.96-1.78,3.45-3.72,3.37l-165.29-7.97
					c-2.7,5.77-9.15,22.86,4.56,31.27c1.67,1.03,2.19,3.21,1.17,4.88C824.89,557.37,823.73,557.96,822.54,557.96z" class="color080717 svgShape"/><path fill="#1c1c1c" d="M973.29,623.3c-0.19,0-0.38-0.01-0.58-0.05c-5.02-0.82-123.26-20.28-141.75-26.33
					c-20.69-6.77-20.45-39.74-20.43-41.14c0.01-0.99,0.44-1.93,1.18-2.59c0.74-0.66,1.73-0.96,2.71-0.89l170.45,16.57
					c1.95,0.19,3.38,1.92,3.19,3.87c-0.19,1.95-1.92,3.37-3.87,3.19l-166.41-16.17c0.56,8.1,3.17,26.42,15.4,30.42
					c17.97,5.88,139.47,25.87,140.7,26.07c1.93,0.32,3.24,2.14,2.93,4.07C976.51,622.06,975,623.3,973.29,623.3z" class="color080717 svgShape"/><path fill="#1c1c1c" d="M957.26,662.38c-0.12,0-0.25-0.01-0.37-0.02c-5.06-0.53-123.97-13.57-126.77-67.52
					c-0.1-1.96,1.4-3.62,3.36-3.73c1.89-0.11,3.63,1.4,3.73,3.36c2.49,47.94,119.25,60.71,120.43,60.84c1.95,0.2,3.36,1.95,3.16,3.9
					C960.6,661.03,959.06,662.38,957.26,662.38z" class="color080717 svgShape"/></g><g fill="#333b91" class="color000000 svgShape"><path d="M326.34,289.38c-9.68,0-19.47-3.77-26.96-11.25c-1.46-1.46-1.46-3.82,0-5.27c1.46-1.46,3.82-1.46,5.27,0
					c11.77,11.77,30.56,12.13,41.88,0.81c1.89-1.89,2.9-4.43,2.85-7.16c-0.05-2.78-1.18-5.42-3.19-7.43L233.44,146.34
					c-1.46-1.46-1.46-3.82,0-5.27c1.46-1.46,3.82-1.46,5.27,0l112.74,112.74c3.39,3.39,5.29,7.85,5.38,12.57
					c0.08,4.77-1.71,9.23-5.03,12.56C344.83,285.91,335.63,289.38,326.34,289.38z" class="color000000 svgShape"/><path d="M311.2,342.81c-10.05,0-19.51-3.91-26.62-11.03L155.98,203.17c-1.46-1.46-1.46-3.82,0-5.27c1.46-1.46,3.82-1.46,5.27,0
					l128.61,128.61c11.77,11.77,30.92,11.77,42.69,0c4.12-4.12,4.12-10.82,0-14.94l-143.11-143.1c-1.46-1.46-1.46-3.82,0-5.27
					c1.46-1.46,3.82-1.46,5.27,0l143.11,143.1c7.02,7.02,7.02,18.46,0,25.48C330.71,338.89,321.26,342.81,311.2,342.81z" class="color000000 svgShape"/><path d="M198.69,319.62c-7.18,0-14.37-2.18-20.45-6.64c-1.66-1.22-2.02-3.55-0.8-5.21c1.22-1.66,3.55-2.02,5.21-0.8
					c10.73,7.88,25.95,6.71,35.39-2.72c10.63-10.63,10.63-27.93,0-38.56l-65.19-65.18c-1.46-1.46-1.46-3.82,0-5.27
					c1.46-1.46,3.82-1.46,5.27,0l65.19,65.18c13.54,13.54,13.54,35.57,0,49.11C216.64,316.19,207.68,319.62,198.69,319.62z" class="color000000 svgShape"/><path d="M123.05,312.98c-0.95,0-1.91-0.36-2.64-1.09L83.42,274.9c-1.46-1.46-1.46-3.82,0-5.27c1.46-1.46,3.82-1.46,5.27,0
					l36.99,36.99c1.46,1.46,1.46,3.82,0,5.27C124.96,312.62,124,312.98,123.05,312.98z" class="color000000 svgShape"/><path d="M138.7,352c-11.07,0-21.47-4.31-29.3-12.14l-23.78-23.77c-1.09-1.09-1.39-2.72-0.78-4.13
					c0.26-0.61,6.66-14.87,22.2-19.44c1.98-0.59,4.05,0.55,4.63,2.52c0.58,1.98-0.55,4.05-2.53,4.63
					c-8.9,2.62-14.12,9.55-16.29,13.11l21.81,21.81c6.42,6.42,14.95,9.95,24.02,9.95c9.07,0,17.61-3.54,24.02-9.95
					c13.25-13.25,13.25-34.8,0-48.05l-44.03-44.03c-1.46-1.46-1.46-3.82,0-5.27c1.46-1.46,3.82-1.46,5.27,0l44.03,44.03
					c16.15,16.15,16.15,42.44,0,58.59C160.17,347.69,149.76,352,138.7,352z" class="color000000 svgShape"/><path d="M136.83,389.25c-21.84,0-43.67-8.31-60.29-24.94c-1.46-1.46-1.46-3.82,0-5.27c1.46-1.46,3.82-1.46,5.27,0
					c30.34,30.34,79.7,30.34,110.05,0l21.66-21.66c1.46-1.46,3.82-1.46,5.27,0c1.46,1.46,1.46,3.82,0,5.27l-21.66,21.66
					C180.5,380.94,158.66,389.25,136.83,389.25z" class="color000000 svgShape"/><path d="M6.42,463.5c-2.06,0-3.73-1.67-3.73-3.73v-71.56c0-79.59,31-154.42,87.28-210.7l36.8-36.8
					c14.89-14.89,34.68-23.09,55.73-23.09c21.05,0,40.85,8.2,55.73,23.09c1.46,1.46,1.46,3.82,0,5.27c-1.46,1.46-3.82,1.46-5.27,0
					c-27.82-27.82-73.1-27.82-100.92,0l-36.8,36.8c-54.87,54.87-85.09,127.83-85.09,205.43v71.56
					C10.15,461.84,8.48,463.5,6.42,463.5z" class="color000000 svgShape"/><path d="M165.14,461.85c-2.06,0-3.73-1.67-3.73-3.73v-72.75c0-2.06,1.67-3.73,3.73-3.73s3.73,1.67,3.73,3.73v72.75
					C168.87,460.18,167.2,461.85,165.14,461.85z" class="color000000 svgShape"/></g><g fill="#333b91" class="color000000 svgShape"><path fill="#1c1c1c" d="M74.25,482.39c-48.27,0-65.73-19.09-66.77-20.28c-1.29-1.48-1.14-3.71,0.34-5c1.47-1.29,3.71-1.14,4.99,0.32
				c0.41,0.45,36.63,38.89,151.22,1.06c1.87-0.63,3.87,0.4,4.48,2.26c0.61,1.86-0.4,3.87-2.26,4.48
				C127.5,478.01,97.34,482.39,74.25,482.39z" class="color080717 svgShape"/></g><g fill="#333b91" class="color000000 svgShape"><path fill="#1c1c1c" d="M280.63,593.76c-1.07,0-2.12-0.48-2.82-1.39l-39.34-51.31c-1.19-1.56-0.9-3.78,0.66-4.97
				c1.56-1.19,3.78-0.9,4.97,0.66l39.34,51.31c1.19,1.56,0.9,3.78-0.66,4.97C282.14,593.52,281.38,593.76,280.63,593.76z" class="color080717 svgShape"/></g></svg>