<svg xmlns="http://www.w3.org/2000/svg" enable-background="new 0 0 700 700" viewBox="0 0 700 700"><path fill="#448cff" d="M460.5986938,579.9547119l-23.8106689,12.6231689          c-4.9959717,1.9974976-8.2722168,6.8357544-8.2722168,12.2162476v1.4556885h31.9449768l14.9179993-8.1613159          l9.3071594,8.1613159h13.3668213l-6.3717346-26.295105H460.5986938z" class="colorffae44 svgShape"/><polygon points="479.105 601.356 484.686 606.25 498.053 606.25 496.867 601.356" class="color000000 svgShape"/><path d="M428.9816895,601.3560181c-0.2993774,1.1047363-0.4658813,2.2568359-0.4658813,3.4381104v1.4556885h31.9449768          l8.945343-4.8937988H428.9816895z" class="color000000 svgShape"/><path d="M442.0460815,582.0663452c-1.041626-2.3536377-2.2341309-7.1444702,0.1123047-8.1835938           c2.3331299-1.0314941,5.0919189,3.0593872,6.1357422,5.4169922           c1.0441895,2.3563232,2.2122498,7.144043-0.1162109,8.1757813           C445.9131775,588.4787598,443.1576843,584.5765381,442.0460815,582.0663452z M442.4415894,574.5233765           c-1.8035583,0.7974243-0.6315002,5.2803345,0.2451172,7.2597656           c1.6298828,3.6796875,4.0117188,5.5791016,5.2080078,5.0517578           c1.8109131-0.7999268,0.6116028-5.3289185-0.2412109-7.2519531l0,0           C446.800415,577.6560059,444.2347412,573.7191162,442.4415894,574.5233765z" class="color000000 svgShape"/><path d="M440.5529175,587.0067749c-1.5242615-1.1375122-3.9232788-3.7126465-2.7910156-5.2265625           c1.1223755-1.5082397,4.271759,0.0455933,5.8037109,1.1894531l0,0           c2.4072266,1.796875,3.6308594,4.0908203,2.7861328,5.2226563           C445.2478027,589.6761475,442.1497192,588.2001953,440.5529175,587.0067749z M438.3224487,582.1981812           c-0.786438,1.0535889,1.491394,3.3840942,2.6484375,4.2480469c1.1469421,0.855896,4.0372314,2.3772583,4.8203125,1.328125           c0.5146484-0.6904297-0.4453125-2.6025391-2.6435547-4.2441406l0,0           C442.0505981,582.7123413,439.1020508,581.1555786,438.3224487,582.1981812z" class="color000000 svgShape"/><path fill="#448cff" d="M357.1463623,579.9547119l-23.8106384,12.6231689          c-4.9959717,1.9974976-8.2722168,6.8357544-8.2722168,12.2162476v1.4556885h31.9449768l14.9179688-8.1613159          l9.3071594,8.1613159h13.3668213l-6.3717346-26.295105H357.1463623z" class="colorffae44 svgShape"/><path d="M325.5293884,601.3560181c-0.2993774,1.1047363-0.4658813,2.2568359-0.4658813,3.4381104v1.4556885h31.9449463          l8.945343-4.8937988H325.5293884z" class="color000000 svgShape"/><path d="M338.5929565,582.0663452c-1.0408325-2.3518677-2.2327271-7.1434937,0.1132813-8.1835938           c2.3330078-1.0337524,5.0939331,3.0639038,6.1357422,5.4169922l0,0           c1.6865234,3.8085938,1.6357422,7.3994141-0.1162109,8.1757813           C342.4610291,588.4787598,339.7065125,584.5809937,338.5929565,582.0663452z M338.9894409,574.5233765           c-1.821228,0.8052368-0.6092224,5.3328247,0.2441406,7.2597656           c1.6289063,3.6796875,4.0078125,5.5908203,5.2089844,5.0517578c1.1992188-0.53125,1.3886719-3.5722656-0.2412109-7.2519531           l0,0C343.3941345,577.7595825,340.8102112,573.7067261,338.9894409,574.5233765z" class="color000000 svgShape"/><path d="M337.0997925,587.0067749c-2.4501953-1.828125-3.6494141-4.0751953-2.7900391-5.2265625           c1.1223755-1.5082397,4.271759,0.0455933,5.8037109,1.1894531l0,0           c2.4072266,1.796875,3.6308594,4.0908203,2.7861328,5.2226563           C341.7911072,589.6749878,338.7280884,588.2229614,337.0997925,587.0067749z M334.8703003,582.1981812           c-0.5146484,0.6904297,0.4462891,2.6044922,2.6474609,4.2480469           c2.1992188,1.640625,4.3037109,2.015625,4.8212891,1.3271484c0.5146484-0.6894531-0.4453125-2.6015625-2.6435547-4.2431641           l0,0C338.5984497,582.7123413,335.6499023,581.1555786,334.8703003,582.1981812z" class="color000000 svgShape"/><path fill="#fff" d="M349.3098145,234.6025085c0,0-14.2856445-1.754776-14.2856445-7.3934784         c0-5.1295319,10.7027893-0.7642059,10.7027893-0.7642059s-0.8178406-8.9605103-6.8972778-13.922348         c-6.0794678-4.9618225,2.6984558-8.4460602,11.3818665,4.9624939c0,0-2.3189697-5.1512604-7.3049622-11.1703491         c-4.9859924-6.019104,5.0620422-7.3423309,13.2340088,8.1682587c0,0,0.5432434-2.3466949-1.786499-7.5364838         c-2.3297729-5.1897736,9.4006958-5.5748444,14.8382568,18.5220337L349.3098145,234.6025085z" class="colorffffff svgShape"/><path d="M349.2667847,234.9501495c-0.5957031-0.0732422-14.5917969-1.8603516-14.5917969-7.7412109         c0-0.9951172,0.3652344-1.7451172,1.0849609-2.2285156c2.3203125-1.5566406,7.7753906,0.2685547,9.5449219,0.9267578         c-0.3027344-2.0332031-1.6777344-9.0175781-6.6972656-13.1132813         c-1.6152344-1.3183594-2.3759766-2.6835938-2.0878906-3.7451172         c0.1806641-0.6650391,0.7675781-1.1230469,1.6103516-1.2539063c2.125-0.3476563,5.6826172,1.3066406,9.34375,5.4648438         c-1.171875-1.8896484-2.7783203-4.2373047-4.8369141-6.7216797c-1.234375-1.4902344-1.6806641-2.8261719-1.2578125-3.7626953         c0.2822266-0.6240234,0.9199219-0.9824219,1.7949219-1.0087891c0.0380859-0.0009766,0.0761719-0.0019531,0.1142578-0.0019531         c3.0302734,0,8.1074219,3.5488281,12.5292969,11.3935547c-0.09375-1.1650391-0.4785156-3.1621094-1.7832031-6.0683594         c-0.4707031-1.0488281-0.4375-2.0146484,0.0898438-2.6513672c0.5341797-0.6435547,1.4931641-0.859375,2.625-0.5888672         c3.8642578,0.9257813,9.53125,7.1220703,12.7851563,21.5419922c0.0361328,0.1611328-0.0458984,0.3261719-0.1953125,0.3955078         C348.5012207,235.332016,349.4597168,234.9758759,349.2667847,234.9501495z M338.335144,225.0546417         c-0.8710938,0-1.6416016,0.1416016-2.1845703,0.5068359c-0.5224609,0.3505859-0.7763672,0.8896484-0.7763672,1.6474609         c0,5.0322266,12.6376953,6.8652344,13.8808594,7.0332031l19.5332031-8.9726563         c-3.1914063-13.9091797-8.5576172-19.8662109-12.2021484-20.7392578         c-0.8632813-0.2060547-1.5654297-0.078125-1.9228516,0.3554688         c-0.3505859,0.4228516-0.3476563,1.1220703,0.0097656,1.9169922         c2.3515625,5.2373047,1.8320313,7.6591797,1.8085938,7.7597656         c-0.0332031,0.1425781-0.1503906,0.2490234-0.2958984,0.2675781         c-0.140625,0.0253906-0.2871094-0.0537109-0.3544922-0.1835938         c-4.7255859-8.96875-10.0527344-12.1816406-12.5507813-12.1816406c-0.0292969,0-0.0576172,0-0.0849609,0.0009766         c-0.4199219,0.0126953-0.9648438,0.1269531-1.1777344,0.5976563         c-0.2988281,0.6601563,0.1347656,1.7919922,1.1582031,3.0273438         c4.9589844,5.9873047,7.3310547,11.1992188,7.3544922,11.2509766         c0.0751953,0.1669922,0.0087891,0.3632813-0.1523438,0.4511719         c-0.1611328,0.0849609-0.3623047,0.0351563-0.4609375-0.1171875         c-5.1220703-7.9101563-9.8847656-9.4707031-11.6787109-9.1894531         c-0.328125,0.0507813-0.8994141,0.2158203-1.0429688,0.7460938         c-0.1621094,0.5957031,0.2402344,1.7011719,1.8554688,3.0185547         c6.1230469,4.9980469,6.9902344,13.7910156,7.0244141,14.1621094         c0.0107422,0.1220703-0.0419922,0.2412109-0.140625,0.3134766c-0.0966797,0.0732422-0.2275391,0.0898438-0.3398438,0.0429688         C345.5402222,226.7470245,341.3439331,225.0546417,338.335144,225.0546417z" class="color000000 svgShape"/><path d="M435.9180908,187.9166565c2.1791077-2.8371124,5.8049622-4.4988251,9.3766785-4.297287          s6.9876099,2.2605896,8.8337097,5.3248291c4.4295044,7.3521576-0.5994873,17.6109619,3.5509033,25.1241913          c2.8248596,5.1136322,9.728363,7.3279266,15.1887512,5.2510834          c5.4603882-2.076828,9.0894775-7.9201355,9.0412903-13.7619476          c-0.0422058-5.1160889-4.0177307-6.2297211-7.0351563-3.8952637          c-1.6131897,1.2480621-1.4625549,5.5321198-3.4303589,4.9957581          c-1.3673096-0.3726959-0.5391541-6.3714905,0.4810791-9.3491669          c5.1745605-15.1026306,25.721344,0.8726196,22.9923706,15.7893677          c-1.0058899,5.4984436-4.8920593,10.1976166-9.691864,13.0622864          c-8.9408264,5.3361206-33.0787048,10.3615265-34.9838257-11.8201141          c-0.4249573-4.9481354-0.0360413-10.002243-1.230011-14.822937          c-0.6722717-2.7143402-1.9346313-5.4197388-4.1962585-7.0643158s-5.6841736-1.8984375-7.7451477-0.0084381" class="color000000 svgShape"/><path fill="#fff" d="M444.5092773,191.2924042c0,4.0554504-3.2936401,7.3393097-7.339325,7.3393097          c-4.0552063,0-7.3395081-3.2838593-7.3395081-7.3393097c0-4.0554352,3.2843018-7.3392944,7.3395081-7.3392944          C441.2156372,183.9531097,444.5092773,187.236969,444.5092773,191.2924042z" class="colorffffff svgShape"/><path d="M437.170105,198.9813995c-4.2402344,0-7.6894531-3.4492188-7.6894531-7.6894531          c0-4.2392578,3.4492188-7.6884766,7.6894531-7.6884766c4.2392578,0,7.6884766,3.4492188,7.6884766,7.6884766          C444.8585815,195.5321808,441.4093628,198.9813995,437.170105,198.9813995z M437.170105,184.3026886          c-3.8544922,0-6.9902344,3.1357422-6.9902344,6.9892578c0,3.8544922,3.1357422,6.9902344,6.9902344,6.9902344          c3.8535156,0,6.9892578-3.1357422,6.9892578-6.9902344          C444.1593628,187.4384308,441.0236206,184.3026886,437.170105,184.3026886z" class="color000000 svgShape"/><path fill="#fff" d="M283.9771729,209.7093201c-3.0099792-4.5378418-4.7857056-9.1437836-5.7881165-8.802597          c-2.1478882,0.7310028-0.5263672,6.4784088,0.8276978,9.8873138          c-2.1149597-2.8546295-3.9185486-5.6040649-4.7767029-4.8266449          c-2.6107483,2.3651276,8.3352356,25.6582642,8.3352356,25.6582642l19.6411438-6.5982819          c1.6086121-4.1720276,1.8692322-19.3119354-1.4842529-20.3147278          c-1.6906738-0.5079041-2.5372314,3.5977936-4.5395203,7.4143372          c-4.4032898-7.0088654-5.8422852-14.7870789-7.3883362-14.0306702          c-2.0841675,1.0196838-1.3484802,6.2679138-0.1047058,10.7138214          c-2.9239502-5.331131-4.3114929-10.5306396-5.7958069-9.9181976          C281.3150635,199.5474548,282.6634827,205.6873932,283.9771729,209.7093201z" class="colorffffff svgShape"/><path d="M282.2589722,231.7743683c-1.1318359-2.4072266-10.9785156-23.5986328-8.2539063-26.0664063          c0.1865234-0.1699219,0.4228516-0.2421875,0.6679688-0.21875c0.8125,0.0830078,1.7470703,1.1933594,3.2080078,3.1660156          c-0.7314453-2.2714844-1.5341797-5.5292969-0.7851563-7.1533203          c0.2158203-0.4667969,0.5449219-0.7783203,0.9804688-0.9257813          c1.1815796-0.4241638,2.3116455,2.5028839,4.8369141,6.7695313          c-0.8417969-3.1230469-1.8642578-8.0664063-0.1435547-8.7773438          c1.2705078-0.5292969,2.171875,1.4648438,3.6601563,4.7626953c0.3789063,0.8408203,0.7841797,1.7402344,1.2304688,2.671875          c-0.6503906-3.2080078-1.0078125-7.2431641,0.9892578-8.2207031          c0.2128906-0.1035156,0.4443359-0.1142578,0.6630859-0.0302734          c0.7861328,0.3017578,1.3916016,1.7255859,2.5771484,4.6591797          c1.0019531,2.4775391,2.3535156,5.8222656,4.2734375,9.0009766          c0.5009766-1.0126953,0.9296875-2.0371094,1.3154297-2.9570313          c1.0576172-2.5253906,1.8945313-4.5185547,3.3544922-4.0771484          c0.5830078,0.1738281,1.0869141,0.6865234,1.4970703,1.5224609c2.0107422,4.1005859,1.625,15.5908203,0.2119141,19.2529297          c-0.0371094,0.0976563-0.1162109,0.1728516-0.2148438,0.2060547l-19.640625,6.5986328          C282.5084534,232.0142517,282.3311462,231.9295502,282.2589722,231.7743683z M274.5783081,206.1845245          c-0.0410156,0-0.0693359,0.0117188-0.1025391,0.0429688c-1.7441406,1.5791016,4.1025391,16.0263672,8.2841797,24.9667969          l19.1855469-6.4453125c1.2949219-3.6416016,1.6347656-14.7089844-0.2441406-18.5400391          c-0.3203125-0.6542969-0.6806641-1.0449219-1.0693359-1.1611328          c-0.8564453-0.2353516-1.6230469,1.5664063-2.5068359,3.6777344          c-0.4619141,1.1015625-0.9853516,2.3496094-1.6230469,3.5634766          c-0.1273499,0.2460327-0.4706116,0.2417908-0.6054688,0.0244141c-2.1279297-3.3857422-3.5888672-7-4.6552734-9.6396484          c-0.2680969-0.6629639-1.7435608-4.5467224-2.2832031-4.2626953          c-1.5214844,0.7441406-1.4912109,4.6923828,0.078125,10.3046875          c0.0478516,0.171875-0.0400391,0.3515625-0.2050781,0.4189453c-0.1630859,0.0683594-0.3535156,0-0.4384766-0.15625          c-1.0361328-1.8886719-1.8681641-3.7324219-2.6015625-5.359375          c-1.0830078-2.4013672-2.0966797-4.6679688-2.7539063-4.4042969          c-1.0302734,0.4257813-0.4589844,5.0839844,1.2724609,10.3857422          c0.0537109,0.1660156-0.0224609,0.3476563-0.1806641,0.4238281          c-0.1572266,0.0761719-0.3466797,0.0253906-0.4443359-0.1220703          c-2.5142517-3.793045-4.7158203-8.6630859-5.3867188-8.6630859c0,0,0,0-0.0009766,0          c-0.2451172,0.0839844-0.4316406,0.2666016-0.5654297,0.5566406          c-0.7099609,1.5390625,0.296875,5.5634766,1.6103516,8.8691406          c0.1491699,0.3718414-0.3558044,0.6703644-0.6064453,0.3369141          c-1.3470764-1.8158417-3.3257751-4.7337799-4.1328125-4.8164063          C274.5939331,206.1845245,274.585144,206.1845245,274.5783081,206.1845245z" class="color000000 svgShape"/><path fill="#76abff" d="M157.8371582,126.7169571l36.4783478,92.8139572          c0.960022,2.4426422,3.4706879,3.9074249,6.069519,3.5411072l75.4338837-10.6325378          c9.5409851,7.177948,16.8837891,6.8543243,21.7793579-1.8201752l70.5194397-13.0398712          c3.5724182-0.6605835,5.6110229-4.4629211,4.184082-7.8039246l-35.9886475-84.2622223          c-1.2514038-2.929985-4.6702576-4.2543869-7.5689392-2.9320526l-9.9955444,4.5598145l-67.9098969,24.5917511          l-86.9034576-12.7016296C159.6255951,118.4012833,156.2439575,122.6633072,157.8371582,126.7169571z" class="colorffc176 svgShape"/><path fill="#fff" d="M357.4207458,171.513916c-33.0724487,1.3095245-61.3074646,21.9477539-69.5287781,28.5476532          c-1.5092468,1.2115936-3.5553284,1.5159607-5.3613586,0.8202667          c-47.3356171-18.2339935-79.2488708,13.9894409-79.2488708,13.9894409l-36.903244-88.749733          c-0.4924774-1.1843567-0.578064-2.5079193-0.216568-3.7385864          c9.2798157-31.5916061,65.5445251-19.0926514,87.7833557,5.0329971          c31.1031189-25.9550858,56.4196472-31.814209,67.0672913-33.1238785          c2.8390808-0.349205,5.5065308,1.500618,6.149292,4.287941          C331.8302307,118.8237534,357.4207458,171.513916,357.4207458,171.513916z" class="colorffffff svgShape"/><path d="M203.2814178,215.371048c-0.0322266,0-0.0644531-0.0029297-0.0957031-0.0097656          c-0.1640625-0.03125-0.3017578-0.1435547-0.3662109-0.2978516l-36.9033203-88.7490234          c-0.5410156-1.3017578-0.6240234-2.7480469-0.2333984-4.0732422          c2.7392578-9.3271484,9.7900391-15.5673828,20.3876953-18.0429688          c20.5292969-4.7949219,52.1230469,5.7167969,67.9189453,22.53125          c31.4912262-26.1572266,57.3027496-31.7460938,66.9619293-32.9335938          c3.1201172-0.3779297,5.9951172,1.625,6.6982422,4.671875          c4.6015625,19.9570313,29.9658203,72.3007813,30.2216797,72.8271484          c0.1573486,0.3272705-0.0734558,0.7042999-0.4306641,0.71875          c-32.9980469,1.3066406-61.3359375,22.0966797-69.2353516,28.4375          c-1.6367188,1.3154297-3.8798828,1.6572266-5.8544922,0.8974609          c-46.5000153-17.9140625-78.3984528,13.5546875-78.7138824,13.8740234          C203.54216,215.3183136,203.4132538,215.371048,203.2814178,215.371048z M186.2980194,105.1718292          c-10.2265625,2.3896484-17.0234375,8.3896484-19.65625,17.3515625          c-0.3251953,1.1064453-0.2548828,2.3164063,0.1982422,3.4072266l36.625,88.0791016          c4.4121094-4.0605469,35.4658203-30.4580078,79.2451324-13.5947266          c1.6435547,0.6308594,3.5097656,0.3486328,4.8681641-0.7431641          c7.8994141-6.3408203,36.0859375-27.0205078,69.0625-28.6240234          c-3.015625-6.2597656-25.6269531-53.5400391-29.9658203-72.3554688          c-0.5869141-2.5458984-2.9941406-4.234375-5.6015625-3.9042969          c-9.609375,1.1816406-35.3554688,6.7646484-66.8076324,33.0117188          c-0.203125,0.1708984-0.5078125,0.1513672-0.6875-0.0449219          C238.2368317,111.1128311,206.827301,100.3740311,186.2980194,105.1718292z" class="color000000 svgShape"/><path d="M219.01091,203.8446808c-0.1923828,0-0.3759766-0.1113281-0.4580078-0.2998047l-41.7246094-95.2236328          c-0.1103516-0.2529297,0.0048828-0.546875,0.2578125-0.6582031          c0.2490234-0.1064453,0.5478516,0.0039063,0.6582031,0.2578125l41.7246094,95.2236328          c0.1103516,0.2529297-0.0048828,0.546875-0.2578125,0.6582031          C219.1466522,203.8310089,219.0782928,203.8446808,219.01091,203.8446808z" class="color000000 svgShape"/><path d="M285.1105347,201.7021027c-0.1943359,0-0.3798828-0.1142578-0.4609375-0.3056641l-31.1631012-73.7871094          c-0.1074219-0.2539063,0.0117188-0.5478516,0.2666016-0.6552734c0.25-0.1044922,0.5458984,0.0117188,0.6552734,0.2666016          l31.1631012,73.7871094c0.1074219,0.2539063-0.0117188,0.5478516-0.2666016,0.6552734          C285.241394,201.6894073,285.1759644,201.7021027,285.1105347,201.7021027z" class="color000000 svgShape"/><path fill="#fff" d="M357.4207458,171.513916l0.1321716,12.2423859          c0.0321045,2.9729462-2.2496033,5.4386444-5.2122803,5.6876526          c-27.454834,2.3074341-51.7628479,11.3369598-58.6123657,16.5026855          c-7.2844543,5.5026093-13.9878845,2.5608521-13.9878845,2.5608521          c-27.6277008-5.9500732-48.3323822,5.0940399-54.3204803,8.8320618          c-1.1916504,0.7438812-2.6100769,1.0223694-3.9929199,0.7750854l-18.1480408-3.2451172          c0,0,31.8967896-32.2024231,79.2090607-14.0040894c1.8327637,0.7049561,3.906189,0.3974762,5.4379883-0.8311768          C296.1909485,193.404953,324.3937683,172.82164,357.4207458,171.513916z" class="colorffffff svgShape"/><path d="M222.4200897,218.7030792c-0.3603516,0-0.7216797-0.0322266-1.0810547-0.0966797l-18.1484375-3.2451172          c-0.1826172-0.0322266-0.3330078-0.1640625-0.3886719-0.3408203          c-0.0566406-0.1777344-0.0097656-0.3710938,0.1210938-0.5029297          c0.3222656-0.3232422,32.6689453-32.2236328,79.7451324-14.1191406          c1.6699219,0.6435547,3.5634766,0.3515625,4.9453125-0.7539063          c7.9580078-6.3837891,36.5107422-27.3125,69.7880859-28.6308594          c0.2575378-0.0200958,0.5152283,0.198288,0.5195313,0.4941406l0.1318359,12.2431641          c0.0351563,3.2021484-2.4560547,5.9208984-5.6699219,6.1914063          c-26.8779297,2.2578125-51.1591797,10.9775391-58.3535156,16.4033203          c-7.1865234,5.4287109-13.7578125,2.9248047-14.4404297,2.640625          c-27.511734-5.9042969-48.2119293,5.2246094-53.9043121,8.7773438          C224.6945038,218.3817902,223.564621,218.7030792,222.4200897,218.7030792z M204.3468475,214.551712l17.1679688,3.0703125          c1.2578125,0.2246094,2.5498047-0.0253906,3.640625-0.7060547          c5.7763672-3.6064453,26.7949219-14.9072266,54.6904449-8.8974609          c0.1572266,0.0585938,6.6318359,2.7773438,13.5810547-2.4716797          c7.2919922-5.4990234,31.8066406-14.3271484,58.8720703-16.6005859          c2.6953125-0.2265625,4.7832031-2.5039063,4.7539063-5.1835938l-0.1259766-11.7275391          c-32.7529297,1.4990234-60.8310547,22.0869141-68.6884766,28.3886719          c-1.6572266,1.3291016-3.9287109,1.6777344-5.9296875,0.9082031          C239.66716,184.9306183,209.307785,210.0507355,204.3468475,214.551712z" class="color000000 svgShape"/><path d="M222.486496,169.6698761c-0.1054688-0.2548828,0.015625-0.546875,0.2714844-0.6523438          c0.1689453-0.0683594,16.9921875-6.8789063,32.8105469-2.203125          c0.2646484,0.078125,0.4160156,0.3564453,0.3378906,0.6210938c-0.0791016,0.265625-0.3583984,0.4160156-0.6210938,0.3378906          c-15.4746094-4.5722656-31.9804688,2.1005859-32.1464844,2.1679688          C222.8928223,170.0451508,222.5936279,169.9317322,222.486496,169.6698761z" class="color000000 svgShape"/><path d="M227.4220428,179.4989777c-0.1054688-0.2548828,0.015625-0.546875,0.2714844-0.6523438          c0.1455078-0.0605469,14.6982422-5.9589844,28.3886871-1.9052734          c0.2646484,0.078125,0.4160156,0.3564453,0.3378906,0.6210938c-0.0791016,0.265625-0.3574219,0.4140625-0.621109,0.3378906          c-13.3525391-3.9492188-27.5820313,1.8125-27.7246094,1.8701172          C227.8283691,179.8742523,227.5291748,179.7608337,227.4220428,179.4989777z" class="color000000 svgShape"/><path d="M289.3322144,172.964798c-0.2070313-0.1835938-0.2265625-0.4990234-0.0439453-0.7060547          c0.1171875-0.1328125,12.0136719-13.328125,38.4042969-19.1640625          c0.2783203-0.0605469,0.5371094,0.1123047,0.5966797,0.3798828          c0.0595703,0.2705078-0.1103516,0.5371094-0.3798828,0.5966797          c-26.0488281,5.7597656-37.7558594,18.7197266-37.8710938,18.8496094          C289.8526611,173.1282806,289.5374756,173.1467896,289.3322144,172.964798z" class="color000000 svgShape"/><path d="M285.4718628,162.1151886c-0.1982422-0.1923828-0.203125-0.5087891-0.0117188-0.7070313          c0.1816406-0.1875,18.3232422-18.6474609,39.9248047-18.6474609c0.1074219,0,0.2128906,0,0.3203125,0.0009766          c0.2763672,0.0019531,0.4980469,0.2285156,0.4960938,0.5039063          c-0.0029297,0.2763672-0.2089844,0.5146484-0.5039063,0.4960938          c-0.1044922-0.0009766-0.2089844-0.0009766-0.3134766-0.0009766c-21.1728516,0-39.0263672,18.1591797-39.2050781,18.3427734          C285.9842224,162.3039093,285.6678772,162.3052673,285.4718628,162.1151886z" class="color000000 svgShape"/><path d="M282.5626831,151.7948761c-0.1992188-0.1904297-0.2070313-0.5068359-0.015625-0.7070313          c0.1816406-0.1894531,18.3701172-18.9941406,37.5722656-19.3583984c0.0039063,0,0.0068359,0,0.0097656,0          c0.2714844,0,0.4951172,0.2177734,0.5,0.4902344c0.0048828,0.2763672-0.2148438,0.5048828-0.4902344,0.5097656          c-18.7919922,0.3564453-36.6904297,18.8623047-36.8691406,19.0498047          C283.0796204,151.9788513,282.7613525,151.9855347,282.5626831,151.7948761z" class="color000000 svgShape"/><path d="M203.455246,191.4696808l-26.3583984-59.9775391c-0.1113281-0.2529297,0.0039063-0.5478516,0.2568359-0.6591797          c0.2519531-0.1083984,0.5478516,0.0039063,0.6591797,0.2568359l26.3583984,59.9775391          c0.1113281,0.2529297-0.0039063,0.5478516-0.2568359,0.6591797          C203.8587341,191.8371887,203.5666962,191.7214203,203.455246,191.4696808z" class="color000000 svgShape"/><path fill="#fff" d="M302.2164307,225.0273743c1.6086121-4.1720276,3.4031677-19.7195282-1.4842529-20.3147278          c-1.7523804-0.2134094-3.3309937,3.4532776-4.3693542,7.5484314c0,0-4.7763977,0.0024414-5.4043274,6.3274231" class="colorffffff svgShape"/><path d="M302.2160034,225.3769073c-0.0419922,0-0.0849609-0.0068359-0.1259766-0.0234375          c-0.1806641-0.0693359-0.2705078-0.2714844-0.2001953-0.4521484          c1.3183594-3.4169922,2.7685547-14.7441406,0.4394531-18.6230469          c-0.4443359-0.7392578-0.9804688-1.1376953-1.6386719-1.2177734          c-1.2607422-0.1640625-2.8076172,2.6337891-3.9892578,7.2861328          c-0.0390625,0.1542969-0.1787109,0.2626953-0.3378906,0.2636719          c-0.1816406,0.0019531-4.4697266,0.0957031-5.0566406,6.0126953          c-0.0195313,0.1923828-0.1679688,0.3398438-0.3828125,0.3144531          c-0.1923828-0.0195313-0.3330078-0.1904297-0.3144531-0.3828125          c0.5634766-5.6689453,4.4042969-6.5009766,5.4765625-6.6230469          c0.7939453-3.0566406,2.3964844-7.8505859,4.6884766-7.5664063c0.875,0.1064453,1.6005859,0.6289063,2.1542969,1.5527344          c2.4746094,4.1201172,1.0058594,15.625-0.3867188,19.2353516          C302.4894409,225.2919464,302.3566284,225.3769073,302.2160034,225.3769073z" class="color000000 svgShape"/><path d="M492.928772,384.3572388c0,0-25.7683411,12.649292-52.8730164,7.6530151         c-27.1047058-4.9962463-21.7337341-45.5908508-21.7337341-45.5908508S481.2251892,353.4716187,492.928772,384.3572388z" class="color000000 svgShape"/><polygon fill="#fff" points="435.976 358.464 433.996 371.392 430.883 391.668 414.682 497.246 411.664 516.912 411.664 516.922 401.945 580.282 346.191 580.282 375.9 358.464" class="colorffffff svgShape"/><path d="M401.944519,580.6317749h-55.7539063c-0.2138672,0-0.3751221-0.1873169-0.3466797-0.3964844l29.7099609-221.8173523          c0.0234375-0.1738281,0.1708984-0.3027344,0.3466797-0.3027344h60.0751953          c0.2180786,0,0.3779602,0.1945496,0.3457031,0.4023438l-34.03125,221.8173523          C402.263855,580.5057983,402.1173706,580.6317749,401.944519,580.6317749z M346.5910034,579.9325562h55.0527344          l33.9248047-221.1181335h-59.3613281L346.5910034,579.9325562z" class="color000000 svgShape"/><path d="M385.1261597,504.7519226c-0.0136719,0-0.0273438,0-0.0419922-0.0019531          c-0.1914063-0.0234375-0.328125-0.1972656-0.3056641-0.3896484l15.4199219-128.6171875          c0.0234375-0.1914063,0.1904297-0.3339844,0.3896484-0.3056641c0.1914063,0.0234375,0.328125,0.1972656,0.3056641,0.3896484          l-15.4199219,128.6171875C385.4523315,504.6220398,385.3009644,504.7519226,385.1261597,504.7519226z" class="color000000 svgShape"/><polygon points="433.996 371.392 430.883 391.668 414.682 497.246 413.768 372.953" class="color000000 svgShape"/><path fill="#6686ff" d="M395.5507507,291.0023804c-11.804657,11.5068359-26.3757629,18.3481445-42.8534851,18.007843          c-16.8550415-0.3473511-32.4853516-8.0978699-45.2272644-19.2401733          c-14.42276-12.6105957-27.0557556-31.12677-35.7924805-54.6933594l33.2549438-15.9398804          c19.8630371,49.1901855,62.2480469,43.1787109,93.0582886,22.6464233l-0.3326111,12.6191406l0.712677,2.2659607          L395.5507507,291.0023804z" class="color6680ff svgShape"/><path d="M391.1239624,294.9948425c-11.7903137,9.783905-25.0167236,14.2923279-38.4266968,14.0153809          c9.866272-21.4835815,25.5471191-43.6906738,25.5471191-43.6906738L391.1239624,294.9948425z" class="color000000 svgShape"/><polygon fill="#fff" points="411.611 358.465 450.015 580.28 504.387 580.28 474.681 358.465" class="colorffffff svgShape"/><path d="M504.3869019,580.6298218h-54.3720703c-0.1699219,0-0.3154297-0.1220703-0.3447266-0.2900391         l-38.4042969-221.8144226c-0.0365906-0.2114258,0.1246948-0.4091797,0.3447266-0.4091797h63.0703125         c0.1757813,0,0.3232422,0.1289063,0.3466797,0.3027344l29.7060547,221.8144226         C504.7620239,580.442749,504.6005249,580.6298218,504.3869019,580.6298218z M450.3097534,579.930603h53.6767578         l-29.6123047-221.1152039h-62.3476563L450.3097534,579.930603z" class="color000000 svgShape"/><path d="M467.413269,518.7108765c-0.1679688,0-0.3164063-0.1210938-0.3457031-0.2919922L441.710144,366.148407         c-0.03125-0.1904297,0.0976563-0.3710938,0.2880859-0.4033203c0.1933594-0.0273438,0.3710938,0.0986328,0.4033203,0.2880859         l25.3574219,152.2704773c0.03125,0.1904297-0.0976563,0.3710938-0.2880859,0.4033203         C467.451355,518.7098999,467.4318237,518.7108765,467.413269,518.7108765z" class="color000000 svgShape"/><path fill="#6686ff" d="M492.928772,384.3572388c0,0-20.348053-28.1880188-49.8571472-15.9223022         c-74.8334351,31.1052551-88.5256958,5.8998108-88.5256958,5.8998108s25.7602234-32.9510193,20.0666809-57.5436096         c-10.9088745-47.1195374,15.88974-72.0209045,29.4677124-78.7241821         c19.7719421-9.7611847,63.5409241-17.5326538,77.1569824,28.3024902         C495.8009949,315.3947144,492.928772,384.3572388,492.928772,384.3572388z" class="color6680ff svgShape"/><path fill="#fbfbfb" d="M408.7152405,206.7397003c-0.305603,6.2457428,1.1893311,13.0129242,6.0288696,14.2830048          c-3.691803,22.0402832-2.4185181,14.4385681-2.6939697,16.0830536          c-1.566864,6.5863037,13.5654602,2.0742493,17.9823914-5.172821l8.0987244-38.6769104          C421.3674622,186.2512817,408.9931641,186.5049896,408.7152405,206.7397003z" class="colorfbfbfb svgShape"/><path d="M429.9611206,232.2753448c-0.1894531-0.0400391-0.3105469-0.2255859-0.2714844-0.4140625l8.0390625-38.3935547          c-10.7851563-4.46875-18.2490234-5.1816406-22.8134766-2.1894531          c-3.828125,2.5117188-5.7412109,7.5703125-5.8505859,15.4667969          c-0.2900391,5.9375,1.0732422,12.7070313,5.7685547,13.9384766          c0.1748047,0.0458984,0.2861328,0.2177734,0.2558594,0.3964844l-0.9082031,5.4296875l-0.6298828,3.2822266          c-0.0371094,0.1884766-0.2167969,0.3115234-0.4101563,0.2773438          c-0.1894531-0.0361328-0.3134766-0.2197266-0.2773438-0.4101563l0.6289063-3.2734375l0.8554688-5.1142578          c-4.8535156-1.5380859-6.2792969-8.4755859-5.9824219-14.5488281          c0.1113281-8.1328125,2.1289063-13.3808594,6.1660156-16.0292969          c4.8798828-3.1992188,12.4199219-2.4882813,23.734375,2.2392578          c0.1552734,0.0654297,0.2421875,0.2304688,0.2080078,0.3945313l-8.0986328,38.6767578          C430.3340149,232.1970825,430.1444397,232.3135376,429.9611206,232.2753448z" class="color000000 svgShape"/><path fill="#fbfbfb" d="M413.3070374,213.6034851c0,0,1.5733643,1.9539337,4.3952942,0.698288" class="colorfbfbfb svgShape"/><path d="M415.8829956,215.0692902c-1.8173828,0-2.8359375-1.2294922-2.8486328-1.2460938           c-0.1210938-0.1503906-0.0976563-0.3691406,0.0527344-0.4912109           c0.1484375-0.1210938,0.3681641-0.0996094,0.4912109,0.0507813           c0.0585938,0.0703125,1.4521484,1.7226563,3.9814453,0.5996094           c0.1787109-0.0800781,0.3828125,0.0009766,0.4619141,0.1767578c0.0791016,0.1767578,0,0.3837891-0.1767578,0.4619141           C417.1144409,214.9462433,416.4591675,215.0692902,415.8829956,215.0692902z" class="color000000 svgShape"/><path d="M414.7441101,221.0227051l-0.9077148,5.4290161c3.7107239-0.5360718,6.9501343-2.3765106,9.611969-5.8200226          C420.1686096,221.9987793,417.1629028,222.4733582,414.7441101,221.0227051z" class="color000000 svgShape"/><path d="M413.491394,226.3944855l0.9082031-5.4296875c0.0398254-0.2453613,0.3183289-0.3686981,0.5244141-0.2421875          c2.0683594,1.2382813,4.7333984,1.109375,8.3896484-0.4140625c0.3391724-0.1374359,0.6265564,0.2598114,0.4121094,0.5371094          c-2.6171875,3.3847656-5.9277344,5.3876953-9.8398438,5.953125          C413.6335144,226.828476,413.4541626,226.6158752,413.491394,226.3944855z M415.0079956,221.5663605l-0.7460938,4.4628906          c3.15625-0.5576172,5.8076172-2.0664063,8.0615234-4.5898438          C419.3087769,222.4950714,416.9484253,222.536087,415.0079956,221.5663605z" class="color000000 svgShape"/><path d="M409.7274475,198.1494293c0,0,7.9519348-0.5727844,11.6057739-6.4327545          c0,0,1.3522034,14.5570679,16.1026611,14.5686493c4.7745972,0.0037537,9.4442139-16.1372833,0.6953735-21.3903046          C431.3469543,180.8215485,409.7652283,177.2857208,409.7274475,198.1494293z" class="color000000 svgShape"/><path fill="#fbfbfb" d="M434.9302063,203.3257294c2.4336853-1.0130005,5.2538147,0.1521912,6.2548218,2.5934601           c1.0206909,2.4457855-0.1447144,5.2663116-2.5858765,6.2668304           c-2.4459534,1.0207825-5.2660217-0.144516-6.2747498-2.598114           C431.6393127,206.9987946,432.2854004,204.3159027,434.9302063,203.3257294z" class="colorfbfbfb svgShape"/><path d="M434.7872925,212.5126495c-1.2734375-0.5273438-2.2636719-1.5185547-2.7861328-2.7919922           c-0.8369141-3.1484375,0.2675781-5.7685547,2.7998047-6.7197266           c2.6081543-1.0852203,5.6307373,0.1608887,6.7080078,2.7851563           c1.0935669,2.6249847-0.1527405,5.6484222-2.7773438,6.7246094           C437.4656677,213.0384979,436.0658875,213.0421295,434.7872925,212.5126495z M435.0646362,203.6493683           c-0.0039063,0.0019531-0.0078125,0.0029297-0.0117188,0.0048828           c-2.6416016,0.9882813-2.9667969,3.6669922-2.390625,5.84375c0.4375,1.0556641,1.2929688,1.9121094,2.3925781,2.3681641           c1.1015625,0.4550781,2.3115234,0.4560547,3.4091797-0.0029297           c2.2703857-0.9312897,3.3429565-3.5443726,2.3974609-5.8095703           C439.9359741,203.7952881,437.3263245,202.7049713,435.0646362,203.6493683z M434.9298706,203.3261261h0.0087891           H434.9298706z" class="color000000 svgShape"/><path fill="#fbfbfb" d="M415.5257874,204.4332581c-0.7307739,1.302124-1.4615784,2.604248-2.1923523,3.9063568           c-0.1140747,0.2032623-0.2250366,0.426239-0.026825,0.6672363           c0.3594666,0.4371185,1.4520874,0.6593475,2.3377075,0.7908173" class="colorfbfbfb svgShape"/><path d="M415.5929565,210.1435089c-1.421875-0.2109375-2.2109375-0.4931641-2.5566406-0.9150391           c-0.359375-0.4365234-0.1132813-0.8740234-0.0078125-1.0605469l2.1914063-3.9052734           c0.0947266-0.1708984,0.3105469-0.2294922,0.4765625-0.1347656           c0.1689453,0.0947266,0.2285156,0.3085938,0.1347656,0.4765625l-2.1923828,3.90625           c-0.1162109,0.2070313-0.1005859,0.2265625-0.0615234,0.2734375           c0.1503906,0.1835938,0.6396484,0.4472656,2.1191406,0.6679688           c0.1914063,0.0283203,0.3232422,0.2060547,0.2939453,0.3974609           C415.9613647,210.0483551,415.772522,210.1734467,415.5929565,210.1435089z" class="color000000 svgShape"/><path d="M408.6212769,208.5507355c-2.5499878-0.5287018-3.666626-3.5415802-3.1132813-6.2138672          c0.5543518-2.675766,2.7662659-4.9913788,5.3271484-4.4648438c2.1291199,0.4410706,3.7807007,2.9958496,3.1142578,6.2148438          C413.3776245,206.841095,411.0888672,209.0566406,408.6212769,208.5507355z M406.1935425,202.4794464          L406.1935425,202.4794464c-0.4700317,2.2690887,0.4088135,4.9375153,2.5703125,5.3857422          c1.9492188,0.4003906,3.9677734-1.3544922,4.5-3.9208984c0.4701233-2.268158-0.403717-4.9381714-2.5712891-5.3867188          C408.5223694,198.1054535,406.662323,200.2176361,406.1935425,202.4794464z" class="color000000 svgShape"/><path d="M420.0939331,210.5370636c-2.3271484-0.4824219-3.7236328-3.2695313-3.1142578-6.2138672l0,0          c0.6113281-2.9433594,2.9951172-4.9384766,5.328125-4.4658203c2.3271484,0.4824219,3.7236328,3.2705078,3.1132813,6.2158203          C424.8577576,208.7936554,422.609375,211.0567932,420.0939331,210.5370636z M417.6652222,204.4657745          c-0.53125,2.5654297,0.6220703,4.9814453,2.5712891,5.3857422c2.105896,0.4371643,4.0131226-1.5751801,4.4990234-3.9208984          c0.5322266-2.5664063-0.6210938-4.9833984-2.5703125-5.3876953          C420.210144,200.1376495,418.1964722,201.8974152,417.6652222,204.4657745L417.6652222,204.4657745z" class="color000000 svgShape"/><path d="M424.7833862,203.7128448c-0.0175781-0.1923828,0.125-0.3623047,0.3173828-0.3798828l12.3544922-1.1035156          c0.2021484-0.0166016,0.3632813,0.1259766,0.3798828,0.3173828c0.0175781,0.1923828-0.125,0.3623047-0.3173828,0.3798828          l-12.3544922,1.1035156C424.9761963,204.047226,424.8013306,203.9094238,424.7833862,203.7128448z" class="color000000 svgShape"/><path fill="#fbfbfb" d="M418.381012,201.9723663c-1.2594604-1.2847137-2.9100342-1.5751495-4.8955078-1.0146637" class="colorfbfbfb svgShape"/><path d="M418.1310425,202.2177277c-1.140625-1.1640625-2.6259766-1.4658203-4.5507813-0.9228516           c-0.1845703,0.0507813-0.3779297-0.0556641-0.4316406-0.2421875           c-0.0527344-0.1855469,0.0556641-0.3789063,0.2421875-0.4316406           c2.1572266-0.6064453,3.9228516-0.2373047,5.2402344,1.1064453           c0.1357422,0.1376953,0.1328125,0.359375-0.0048828,0.4951172           C418.4854126,202.3593292,418.2644348,202.3530426,418.1310425,202.2177277z" class="color000000 svgShape"/><path d="M409.0079956,201.8144073l-2.7226563-0.5644531c-0.1894531-0.0390625-0.3105469-0.2246094-0.2714844-0.4140625          s0.2226563-0.3085938,0.4140625-0.2714844l2.7226563,0.5644531          c0.1894531,0.0390625,0.3105469,0.2246094,0.2714844,0.4140625          C409.3828735,201.7320099,409.1980591,201.852417,409.0079956,201.8144073z" class="color000000 svgShape"/><path d="M409.8055725,202.8399048c-0.1422119,0.6860962,0.1027222,1.3110352,0.5575867,1.405304          c0.4468689,0.0926208,0.9200134-0.3834839,1.0621948-1.0695801          c0.1423035-0.6864777-0.1010132-1.3191986-0.5478821-1.4118195          C410.4226074,201.6695251,409.9478455,202.1534271,409.8055725,202.8399048z" class="color000000 svgShape"/><path d="M418.9768982,204.0769653c-0.1422119,0.6860962,0.1027222,1.3110199,0.5575867,1.405304          c0.4468689,0.0926208,0.9200134-0.3834839,1.0621948-1.0695801          c0.1423035-0.6864777-0.1010132-1.3191986-0.5478821-1.4118195          C419.5939331,202.9065857,419.1192017,203.3904877,418.9768982,204.0769653z" class="color000000 svgShape"/><g class="color000000 svgShape"><path fill="#4f70ed" d="M441.8270874,208.9976807c-1.1314697,4.9756165-4.9172974,8.3513794-8.4560547,7.5466461         c-3.5475769-0.8067474-5.5010376-5.4876556-4.3695679-10.4632721         c1.1292419-4.9656372,4.9149475-8.3419037,8.4625244-7.5351563         C441.0027466,199.3506317,442.9563293,204.0320435,441.8270874,208.9976807z" class="colored6d4f svgShape"/></g><g class="color000000 svgShape"><path fill="#fff" d="M438.8500061,190.5206451v16.0749664l-1.6585999-0.111145         c0,0-0.5763855-14.8872681-3.4589844-18.6536865c-2.012207-2.6291656-11.9382629-5.7321625-11.9382629-5.7321625         c2.126709-0.4094849,4.986908-0.4192505,8.6623535,0.0144196         C435.0943604,182.1209412,438.8500061,185.8827667,438.8500061,190.5206451z" class="colorffffff svgShape"/></g><g class="color000000 svgShape"><path fill="#fff" d="M441.143219,209.093338c-0.7889099,3.4692078-3.4285278,5.8229218-5.8959045,5.2618256         c-2.4735413-0.5624847-3.8355713-3.8262024-3.0466309-7.2954102c0.787323-3.4622498,3.4268799-5.81633,5.9003906-5.25383         C440.5684509,202.3670197,441.9305725,205.6310883,441.143219,209.093338z" class="colorffffff svgShape"/><path d="M435.170105,214.6972198c-3.0221863-0.6868591-4.0296631-4.5599518-3.3105469-7.7148438         c0.8300781-3.6464844,3.6669922-6.1181641,6.3183594-5.5175781c1.3076172,0.296875,2.3681641,1.2783203,2.9873047,2.7617188         C443.1448669,208.9686737,439.5043945,215.6779785,435.170105,214.6972198z M437.357605,202.0722198         c-2.0732422,0-4.1435547,2.1123047-4.8164063,5.0654297c-0.6131287,2.698349,0.141571,6.2737732,2.7832031,6.8769531         c3.6959839,0.8361053,6.9895325-5.2188416,5.1953125-9.5185547         C439.8145447,202.8091278,438.5768738,202.0722198,437.357605,202.0722198z" class="color000000 svgShape"/></g><g class="color000000 svgShape"><path d="M439.5257263,208.5419922c-0.3597107,1.5818787-1.563324,2.6551208-2.6884155,2.3992767         c-1.1278687-0.256485-1.7489014-1.7446747-1.3891907-3.3265533c0.3590088-1.5787201,1.5625916-2.6521149,2.6904602-2.3956299         C439.2636414,205.4749298,439.8847351,206.9632721,439.5257263,208.5419922z" class="color000000 svgShape"/></g><g class="color000000 svgShape"><path d="M336.0372925,350.3075867c-13.5703125-4.8066406-24.4306641-14.8496094-29.0498047-26.8642578         c-5.2369385-13.6269226-31.1901245-14.8507996-41.8417969-29.4892578         c-8.2626953-11.3535156-12.9287262-24.9707031-13.1377106-38.3408356         c-0.2041016-12.9990234,2.4707031-25.6269531,6.5498199-40.5878906         c0.0517578-0.1865234,0.2490234-0.2900391,0.4296875-0.2460938c0.1865234,0.0507813,0.296875,0.2431641,0.2460938,0.4296875         c-4.0634918,14.9042969-6.7285309,27.4765625-6.5263824,40.3925781         c0.2080078,13.2285309,4.8261871,26.7021637,13.0048981,37.9404449         c5.0410156,6.9287109,13.5556641,10.7753906,21.7900391,14.4970703         c8.9091797,4.0253906,17.3232422,7.828125,20.1396484,15.1523438         c4.5458984,11.8271484,15.2490234,21.7167969,28.6298828,26.4560547         c12.640625,4.4775391,26.2255859,4.1962891,37.2714844-0.7675781         c12.3681641-5.5585938,22.7050781-17.5820313,28.3603516-32.9863281         c5.1943359-14.1523438,6.2744141-29.5791016,6.6689453-44.1425781         c0.2690735-10.6093445,0.3312073-21.5726166,4.2998047-31.3437653         c4.3828125-10.7900391,14.7255859-27.796875,23.9990234-31.8261719         c0.1767578-0.0751953,0.3837891,0.0039063,0.4609375,0.1816406s-0.0048828,0.3837891-0.1816406,0.4609375         c-9.0927734,3.9501953-19.2919922,20.7675781-23.6298828,31.4472656         c-3.9204102,9.653656-3.9810181,20.5550079-4.2490234,31.0996246         c-0.3955078,14.6220703-1.4824219,30.1181641-6.7119141,44.3642578         c-5.71875,15.5800781-16.1904297,27.7480469-28.7294922,33.3837891         C362.015564,354.8283997,348.1412659,354.5938416,336.0372925,350.3075867z" class="color000000 svgShape"/></g><g class="color000000 svgShape"><path fill="#6686ff" d="M464.7120667,296.0074768c-1.4725952,1.3893127-2.9732361,2.6950073-4.4913635,3.9196777         c-26.4275513,21.2113342-58.5375061,16.0205994-83.5575256-6.5897217         c-14.2149963-12.8443298-26.5440369-31.5643005-34.8948669-55.27034l33.5107117-15.3948975         c19.057373,49.5078583,58.1319275,46.1387787,89.2732544,26.1121674         c0.3619385,1.3230896-1.3112488-4.7929077,3.539978,12.9396667L464.7120667,296.0074768z" class="color6680ff svgShape"/></g><g class="color000000 svgShape"><path d="M376.4259644,293.5937195c-14.8408203-13.4111328-26.9414063-32.5722656-34.9921875-55.4121246         c-0.0605469-0.1708984,0.0195313-0.3583984,0.1835938-0.4345703l33.5175781-15.3925781         c0.1976013-0.089035,0.405426,0.0157318,0.4726563,0.1923828         c15.0615234,39.1269684,41.0742188,42.4111481,60.2363281,38.2822418         c0.1953125-0.0410156,0.375,0.0791016,0.4160156,0.2675781c0.0410156,0.1894531-0.0791016,0.3759766-0.2675781,0.4160156         c-12.8310547,2.7705078-24.3945313,1.3417969-34.3671875-4.234375         c-11.2490234-6.2890778-20.1757813-17.7714996-26.5361328-34.1318512l-32.8886719,15.1035156         c8.0126953,22.5986481,20.0048828,41.5498199,34.6953125,54.824234         c24.683197,22.3603516,56.7260742,27.7504578,83.1074219,6.5830078         c1.5625-1.2666016,3.0673828-2.5810547,4.4716797-3.9033203c0.1416016-0.1328125,0.3613281-0.1279297,0.4951172,0.0146484         c0.1328125,0.140625,0.1259766,0.3623047-0.0146484,0.4951172c-1.4169922,1.3339844-2.9355469,2.6591797-4.5126953,3.9384766         C434.0611267,321.3693237,401.6859131,316.4786072,376.4259644,293.5937195z" class="color000000 svgShape"/></g><g class="color000000 svgShape"><path fill="#86b5ff" d="M246.0708771,139.5712738c2.728775,9.4853058-2.7494812,17.1760712-12.2344971,17.1760712         c-9.4853058,0-19.3885803-7.6907654-22.1173553-17.1760712c-2.7286072-9.484726,2.749649-17.175499,12.2349548-17.175499         C233.4389954,122.3957748,243.3422699,130.0865479,246.0708771,139.5712738z" class="colorffa186 svgShape"/></g><g class="color000000 svgShape"><path fill="#fff" d="M235.4104462,139.4370728l-5.655777,4.8521881         c-0.8843689,0.7587128-2.6352692-0.0086212-3.0183105-1.3227844l-2.8269501-9.6988678         c-0.3829193-1.3137665,0.9198151-2.081192,2.2463226-1.3232727l8.4827423,4.8466797         C235.7678375,137.4362946,236.1631622,138.7913208,235.4104462,139.4370728z" class="colorffffff svgShape"/></g><g class="color000000 svgShape"><polygon points="375.653 601.356 381.234 606.25 394.6 606.25 393.415 601.356" class="color000000 svgShape"/></g><g class="color000000 svgShape"><path d="M414.7388611,310.8682556c0,0.5903015-0.0288391,1.180603-0.1048279,1.7611694        c-10.3326111-1.6280518-19.8471375-5.889679-28.2816467-11.6513367        c2.9127197-3.6747437,7.4153137-6.0355225,12.4700928-6.0355225        C407.6087036,294.9425659,414.7388611,302.0727234,414.7388611,310.8682556z" class="color000000 svgShape"/></g><g class="color000000 svgShape"><path d="M280.5470581,243.895462c-0.0507813-0.1865234,0.0595703-0.3789063,0.2460938-0.4296875l28.5419922-7.7744141        c0.1816406-0.0507813,0.3769531,0.0585938,0.4296875,0.2460938c0.0507813,0.1865234-0.0595703,0.3789063-0.2460938,0.4296875        l-28.5419922,7.7744141C280.7844849,244.1911621,280.5974121,244.0785828,280.5470581,243.895462z" class="color000000 svgShape"/></g><g class="color000000 svgShape"><path d="M302.5734253,231.9755402c-1.4599609,0-2.6464844-1.1865234-2.6464844-2.6464844        s1.1865234-2.6464844,2.6464844-2.6464844s2.6464844,1.1865234,2.6464844,2.6464844        S304.0333862,231.9755402,302.5734253,231.9755402z M302.5734253,227.3817902        c-1.0732422,0-1.9472656,0.8740234-1.9472656,1.9472656s0.8740234,1.9472656,1.9472656,1.9472656        s1.9472656-0.8740234,1.9472656-1.9472656S303.6466675,227.3817902,302.5734253,227.3817902z" class="color000000 svgShape"/></g><g class="color000000 svgShape"><path d="M350.5353394,244.8593292c-1.4599609,0-2.6464844-1.1865234-2.6464844-2.6464844        c0-1.4589844,1.1865234-2.6455078,2.6464844-2.6455078s2.6464844,1.1865234,2.6464844,2.6455078        C353.1818237,243.6728058,351.9953003,244.8593292,350.5353394,244.8593292z M350.5353394,240.2665558        c-1.0732422,0-1.9472656,0.8730469-1.9472656,1.9462891s0.8740234,1.9472656,1.9472656,1.9472656        s1.9472656-0.8740234,1.9472656-1.9472656S351.6085815,240.2665558,350.5353394,240.2665558z" class="color000000 svgShape"/></g><g class="color000000 svgShape"><path d="M353.0109253,250.1855011c-0.1142578-0.15625-0.0800781-0.375,0.0761719-0.4882813l23.3642578-17.0605469        c0.1513672-0.1152344,0.3730469-0.0810547,0.4882813,0.0761719c0.1142578,0.15625,0.0800781,0.375-0.0761719,0.4882813        l-23.3642578,17.0605469C353.3491821,250.3735809,353.1270752,250.3448029,353.0109253,250.1855011z" class="color000000 svgShape"/></g><g class="color000000 svgShape"><path d="M501.6730347,560.3661499h-55.1669922c-0.1933594,0-0.3496094-0.15625-0.3496094-0.3496094        s0.15625-0.3496094,0.3496094-0.3496094h55.1669922c0.1933594,0,0.3496094,0.15625,0.3496094,0.3496094        S501.866394,560.3661499,501.6730347,560.3661499z" class="color000000 svgShape"/></g><g class="color000000 svgShape"><path d="M404.7062378,562.633728c-10.3218689-0.1951904-45.344635-0.8574219-55.6708984-1.0527344        c-0.1933594-0.0029297-0.3466797-0.1630859-0.3427734-0.3564453c0.0029297-0.1904297,0.1591797-0.3427734,0.3496094-0.3427734        c0.0019531,0,0.0039063,0,0.0068359,0l55.6640625,1.0527344c0.1933594,0.0029297,0.3466797,0.1630859,0.3427734,0.3564453        C405.0529175,562.4813843,404.8966675,562.633728,404.7062378,562.633728z" class="color000000 svgShape"/></g><g class="color000000 svgShape"><path d="M450.7560425,418.6874695c-0.0283203,0-0.0585938-0.0029297-0.0878906-0.0107422        c-6.6513672-1.7226563-11.5791016-5.2763672-14.6455078-10.5644531        c-6.4726563-11.1611328-2.40625-26.46875-2.3642578-26.6220703c0.0507813-0.1865234,0.2460938-0.2900391,0.4296875-0.2460938        c0.1865234,0.0507813,0.296875,0.2431641,0.2460938,0.4296875c-0.0410156,0.1503906-4.03125,15.1855469,2.2958984,26.0908203        c2.96875,5.1181641,7.7509766,8.5615234,14.2138672,10.234375c0.1865234,0.0488281,0.2998047,0.2392578,0.2509766,0.4267578        C451.053894,418.5829773,450.9122925,418.6874695,450.7560425,418.6874695z" class="color000000 svgShape"/></g><g class="color000000 svgShape"><path d="M231.7511444,552.2040405c-3.8671875-1.3525391-7.4511719-5.5117188-6.4980469-9.8730469          c0.8867188-4.0595703,4.9169922-6.3115234,9.1416016-8.1396484          c7.4560394-3.2278442,11.883728-7.7987671,7.0957031-14.4833984          c-1.450882-2.0244141-3.4808655-3.6349487-5.4257813-5.2021484          c-6.140625-4.9501648-12.1933594-10.1816101-17.9902344-15.5497742          c-3.4746094-3.2167969-6.7978516-6.4326172-9.2636719-10.3935547          c-8.8782806-14.2547913,1.2877045-27.2793274,14.6376953-27.4960938          c7.5058594-0.0878906,15.2509766,3.7226563,21.2285156,10.5478516          c5.2255859,5.9638672,8.6513672,13.5800781,9.6474609,21.4472656          c0.2353516,1.8613281,0.3466797,3.7832031,0.4550781,5.6416016          c0.2607422,4.4775391,0.5302734,9.1074219,2.5644684,13.0888672          c1.9924316,3.8956604,5.5560608,6.9237366,7.5527344,10.922821          c3.2516785,6.5193481,1.8091431,14.1918945,1.2509766,20.9804688          c-0.015625,0.1923828-0.1806641,0.3398438-0.3769531,0.3203125          c-0.1933594-0.015625-0.3359375-0.1845703-0.3203125-0.3769531          c0.5445557-6.6818237,1.9841309-14.2668457-1.1806641-20.6113281          c-1.9450989-3.8997803-5.5143433-6.9401245-7.5488281-10.9169922          c-2.1015778-4.1122742-2.3750153-8.8163757-2.6396637-13.3661804          c-0.1083984-1.8476563-0.21875-3.7578125-0.4521484-5.5947266          c-0.9775391-7.7294922-4.3447266-15.2138672-9.4794922-21.0742188          c-5.8408203-6.6699219-13.3603516-10.4033203-20.6894531-10.3095703          c-12.3363342,0.2009277-22.9081268,12.2069092-14.0556641,26.4277344          c2.4199219,3.8867188,5.7070313,7.0654297,9.1455078,10.2490234          c15.3226624,14.1897278,20.6392975,16.8519592,23.5087891,20.8573914          c3.9066925,5.4512939,2.8432922,11.1060791-7.3867188,15.5341797          c-4.0527344,1.7539063-7.9160156,3.8945313-8.7353516,7.6464844          c-0.8710938,3.9873047,2.4599609,7.8085938,6.0449219,9.0634766          c3.9013672,1.3642578,8.2763672,0.6054688,12.0419922-0.3144531          c4.7509766-1.1621094,9.4394531-2.7304688,13.933609-4.6621094          c0.1835938-0.0791016,0.3847656,0.0068359,0.4599609,0.1826172          c0.0761719,0.1777344-0.0058594,0.3837891-0.1826172,0.4599609          c-4.5312653,1.9472656-9.2558746,3.5283203-14.0449371,4.6992188          C240.0956116,552.9099121,235.719574,553.5925293,231.7511444,552.2040405z" class="color000000 svgShape"/><path d="M259.7833862,574.0682983c-0.1923828-0.0205078-0.3310547-0.1933594-0.3095703-0.3857422          c2.6884766-24.6123047-10.5175934-60.3837891-18.6298981-79.516571          c-0.0751953-0.1777344,0.0078125-0.3837891,0.1855469-0.4589844          c0.1757813-0.0722656,0.3837891,0.0087891,0.4589844,0.1855469          c8.1386719,19.195282,21.3877106,55.0966492,18.6806793,79.8661804          C260.1465759,573.9649048,259.9509888,574.0941162,259.7833862,574.0682983z" class="color000000 svgShape"/><path fill="#d7e6fe" d="M305.0787354,530.0263062c0.6079407-4.4905396-2.8207092-8.8919678-7.1291199-10.2962646         c-4.3083801-1.4042358-9.1381226-0.2432861-12.9953613,2.1349487         c-3.7763977,2.3283691-6.8345642,5.8044434-8.6628418,9.8467407         c-1.4855652,3.2844849-2.2513123,7.0409546-4.7644043,9.6253052         c-1.7388611,1.788208-4.1464233,2.8154907-5.8677063,4.6206055         c-2.5632935,2.6881104-4.5815125,7.6257324-4.0982056,10.9787598         c0.167511,1.1622925-0.588501,5.5016479,10.3536072,7.8414917c2.27771,0.4870605,4.2023621,2.2785645,6.5299072,2.19104         c2.3275757-0.0875244,4.7450867-1.7301025,4.9398804-4.0511475c0.1946716-2.319458-1.729126-4.211853-3.4981995-5.7245483         c-5.6354065-4.8187256-4.4991455-8.432312,2.4178162-11.192627         c4.1379089-1.6512451,8.2193604-3.4441528,12.2347412-5.3744507c2.344635-1.1270752,4.6940308-2.3190308,6.6582336-4.0248413         C303.1612549,534.8955688,304.7297363,532.604248,305.0787354,530.0263062" class="colorcad5ff svgShape"/><path d="M259.7306519,574.4276733c-0.1894531-0.0361328-0.3134766-0.2197266-0.2773438-0.4101563         c2.6542969-13.7988281,15.7402344-30.9296875,23.3046875-39.9130859         c0.1259766-0.1474609,0.3476563-0.1650391,0.4931641-0.0419922c0.1474609,0.1240234,0.1669922,0.3447266,0.0419922,0.4931641         c-7.5205078,8.9316406-20.5283203,25.9511719-23.1523438,39.5947266         C260.105957,574.3309326,259.9329834,574.4628906,259.7306519,574.4276733z" class="color000000 svgShape"/><path d="M263.1828003,574.4335327h-7.9775543c-0.1933594,0-0.3496094-0.15625-0.3496094-0.3496094        s0.15625-0.3496094,0.3496094-0.3496094h7.9775543c0.1933594,0,0.3496094,0.15625,0.3496094,0.3496094        S263.3761597,574.4335327,263.1828003,574.4335327z" class="color000000 svgShape"/></g><g class="color000000 svgShape"><path d="M452.1466675,129.473587c-0.15625-0.1152344-0.1894531-0.3339844-0.0751953-0.4892578       c2.1201172-2.8828125,1.4990234-6.953125-1.3837891-9.0732422c-2.8828125-2.1191406-6.9521484-1.4990234-9.0712891,1.3857422       c-0.1132813,0.1572266-0.3330078,0.1904297-0.4892578,0.0751953s-0.1894531-0.3339844-0.0751953-0.4892578       c2.3505859-3.1943359,6.8583984-3.8808594,10.0498047-1.5361328c3.2069397,2.3591766,3.885437,6.8548355,1.5341797,10.0517578       C452.5210266,129.5559692,452.299469,129.5858002,452.1466675,129.473587z" class="color000000 svgShape"/></g><g class="color000000 svgShape"><path d="M540.6749878,296.0605164c-0.15625-0.1152344-0.1894531-0.3339844-0.0751953-0.4892578       c2.1252441-2.8909607,1.5073242-6.9463501-1.3837891-9.0732422c-2.8878174-2.122467-6.9464111-1.5041199-9.0703125,1.3857422       c-0.1142578,0.1572266-0.3330078,0.1894531-0.4892578,0.0751953c-0.15625-0.1152344-0.1894531-0.3339844-0.0751953-0.4892578       c2.3584595-3.2087402,6.8599243-3.8829956,10.0488281-1.5361328c3.2024536,2.3538513,3.8894653,6.8493958,1.5341797,10.0517578       C541.0493164,296.1428833,540.8277588,296.1727295,540.6749878,296.0605164z" class="color000000 svgShape"/></g><g class="color000000 svgShape"><rect width="24.083" height="24.083" x="207.25" y="326.346" fill="#aebfff" class="color76c4ff svgShape" transform="rotate(-52.42 219.292 338.388)"/></g><g class="color000000 svgShape"><rect width="24.081" height="24.081" x="191.257" y="313.413" fill="#86b5ff" class="colorffa186 svgShape" transform="rotate(-.286 203.292 325.455)"/></g><g class="color000000 svgShape"><path d="M304.8771362,421.1278992c-0.15625-0.1152344-0.1894531-0.3339844-0.0751953-0.4892578      c2.1201172-2.8828125,1.4990234-6.953125-1.3837891-9.0732422c-2.894989-2.1262512-6.9496765-1.4996338-9.0703125,1.3857422      c-0.1132813,0.1572266-0.3330078,0.1894531-0.4892578,0.0751953s-0.1894531-0.3339844-0.0751953-0.4892578      c2.3516541-3.1994934,6.8461914-3.8910828,10.0488281-1.5361328c3.2069397,2.3591614,3.885437,6.8548279,1.5341797,10.0517578      C305.2514954,421.2102661,305.0299377,421.2401123,304.8771362,421.1278992z" class="color000000 svgShape"/></g></svg>