<svg xmlns="http://www.w3.org/2000/svg" enable-background="new 0 0 1301.79 813.88" viewBox="0 0 1301.79 813.88"><path fill="#8aa2ff" d="M63.52,533.76l-52.05,15.8C0.11,553-3.77,567.11,4.22,575.89l186.89,205.1c3.9,4.28,9.8,6.15,15.46,4.88
			l326.99-73.11l0,0c11.71,8.59,27.99,7.12,37.98-3.42l7.12-7.51l229.56-71.05l-256.89-207.7L63.52,533.76z" class="colorff6700 svgShape"/><path fill="#fff" d="M550.42,694.99l251.42-78.34L513.98,381.63l-163.65,51.6c-25.05,7.9-46.89,23.67-62.27,44.96l0,0
				L550.42,694.99z" class="colorffffff svgShape"/><path fill="#1c1c1c" d="M550.42,699.11c-0.94,0-1.87-0.33-2.62-0.94L285.45,481.35c-1.67-1.38-1.98-3.82-0.71-5.57
				c15.79-21.86,38.65-38.36,64.36-46.47l163.65-51.6c1.33-0.4,2.76-0.13,3.84,0.74l287.86,235.03c1.17,0.95,1.72,2.48,1.43,3.96
				c-0.28,1.48-1.37,2.69-2.81,3.14l-251.42,78.34C551.24,699.04,550.83,699.11,550.42,699.11z M293.7,477.51l257.62,212.9
				l242-75.41L513.1,386.21l-161.53,50.94C328.75,444.34,308.34,458.61,293.7,477.51z" class="color080717 svgShape"/><path fill="#fff" d="M550.42,694.99l3.33-8.66c9.49-24.67,28.87-44.25,53.45-53.99l161.39-41.2l33.25,25.51L550.42,694.99z" class="colorffffff svgShape"/><path fill="#1c1c1c" d="M550.42,699.11c-1.12,0-2.21-0.46-3-1.3c-1.08-1.15-1.4-2.81-0.84-4.29l3.33-8.66
				c9.88-25.67,30.2-46.2,55.77-56.34c0.16-0.06,0.33-0.12,0.5-0.16l161.39-41.2c1.2-0.32,2.52-0.05,3.52,0.72l33.25,25.5
				c1.22,0.93,1.81,2.47,1.55,3.98c-0.27,1.51-1.36,2.75-2.82,3.21l-251.42,78.34C551.24,699.04,550.83,699.11,550.42,699.11z
				 M608.47,636.26c-23.33,9.32-41.86,28.1-50.89,51.55l-0.28,0.73l235.75-73.46l-25.38-19.47L608.47,636.26z" class="color080717 svgShape"/><path fill="#fff" d="M550.42,694.99L297.02,488.4c-20.63-16.82-47.79-23.36-73.81-17.77L18.43,514.63l189.48,191.3L550.42,694.99
				z" class="colorffffff svgShape"/><path fill="#1c1c1c" d="M207.9,710.04c-1.1,0-2.15-0.44-2.92-1.22L15.5,517.52c-1.06-1.07-1.44-2.63-1.01-4.07
				c0.43-1.44,1.6-2.53,3.07-2.85l204.79-43.99c27.4-5.88,55.56,0.9,77.27,18.6l253.4,206.6c1.33,1.08,1.85,2.88,1.3,4.5
				c-0.55,1.63-2.05,2.74-3.76,2.79l-342.52,10.93C207.99,710.04,207.95,710.04,207.9,710.04z M26.63,517.07l182.93,184.69
				l329.75-10.52L294.42,491.59c-19.77-16.12-45.41-22.29-70.35-16.93L26.63,517.07z" class="color080717 svgShape"/><path fill="#fff" d="M550.42,694.99L207.9,760.58v-54.66l192.83-35.91c46.33-8.63,94.22-2.12,136.57,18.56L550.42,694.99z" class="colorffffff svgShape"/><path fill="#1c1c1c" d="M207.9,764.69c-0.95,0-1.87-0.33-2.62-0.94c-0.95-0.78-1.49-1.94-1.49-3.17v-54.66
				c0-1.98,1.41-3.68,3.36-4.04l192.83-35.91c46.86-8.72,96.27-2.01,139.12,18.91l13.13,6.41c1.59,0.77,2.5,2.48,2.27,4.23
				c-0.23,1.75-1.56,3.16-3.3,3.5l-342.52,65.59C208.42,764.67,208.16,764.69,207.9,764.69z M212.01,709.34v46.27l325.53-62.33
				l-2.05-1c-41.27-20.15-88.85-26.62-134.01-18.21L212.01,709.34z" class="color080717 svgShape"/><polygon fill="#fff" points="207.9 705.93 18.43 514.63 18.43 562 207.9 760.58" class="colorffffff svgShape"/><path fill="#1c1c1c" d="M207.9,764.69c-1.1,0-2.18-0.45-2.97-1.27L15.45,564.83c-0.73-0.77-1.14-1.78-1.14-2.84v-47.37
				c0-1.67,1.01-3.17,2.54-3.8c1.54-0.64,3.31-0.27,4.49,0.91l189.48,191.3c0.76,0.77,1.19,1.81,1.19,2.89v54.66
				c0,1.68-1.02,3.19-2.58,3.82C208.93,764.6,208.42,764.69,207.9,764.69z M22.53,560.35l181.26,189.98v-42.71l-181.26-183V560.35z" class="color080717 svgShape"/><path fill="#fff" d="M663.97,410.82c-0.44-0.65-1.03-1.18-1.72-1.54c0,0-90.71-44.04-121.84-62.72
		c-27.33-16.4-141.99,27.59-140.87,41.27L410.2,518.1c0.25,3.07,1.8,5.92,4.24,7.8c2.44,1.88,5.58,2.66,8.62,2.13
		c8.38-1.46,16.05-4.93,22.54-9.87l0.72,2.49c0.86,2.96,2.94,5.44,5.7,6.8c2.76,1.36,6,1.5,8.87,0.37c1.25-0.49,2.46-1.02,3.65-1.6
		c9.22-4.45,16.69-11.5,21.84-20.01l1.7,2.36c1.8,2.5,4.59,4.13,7.66,4.48c2.09,0.24,4.18-0.13,6.05-1.03
		c0.87-0.42,1.69-0.96,2.43-1.6c2.7-2.35,5.09-4.95,7.21-7.72c19.29,15.22,43.11,23.94,67.76,24.53l10.78,0.26l180.01,135.24
		c0.65,1.14,0.26-1.07,1.53-0.74c1.12,0.29,1.79-0.87,2.82-1.36c0.14-0.07,0.28-0.12,0.42-0.2l124.09-59.93
		c1.14-0.69,2.74-0.16,3.02-1.46c0.28-1.3,1.62,0.67,0.87-0.42L663.97,410.82z" class="colorffffff svgShape"/><path fill="#1c1c1c" d="M898.4,604.82c-0.89,0-1.78-0.29-2.53-0.88L657.75,417.03l-104.18-53.15
			c-13.34-7.09-112.12-2.28-139.42,15.69c-3.97,2.61-5.88,5.14-5.69,7.53l10.67,130.27c0.06,0.79,0.52,1.25,0.79,1.46
			c0.27,0.2,0.81,0.54,1.6,0.39c16.9-2.96,30.43-15.63,34.49-32.3l6.47-26.61c0.54-2.2,2.76-3.57,4.96-3.02
			c2.2,0.54,3.56,2.76,3.02,4.96l-6.47,26.61c-4.82,19.84-20.94,34.93-41.05,38.46c-2.85,0.48-5.77-0.23-8.04-1.99
			c-2.28-1.76-3.72-4.41-3.96-7.29l-10.67-130.27c-0.46-5.61,2.69-10.68,9.37-15.07c28.42-18.7,130.33-25.37,147.73-16.11
			l104.48,53.3c0.24,0.12,0.46,0.27,0.67,0.43l238.43,187.16c1.79,1.4,2.1,3.98,0.69,5.77C900.82,604.28,899.62,604.82,898.4,604.82
			z" class="color080717 svgShape"/><g fill="#333b91" class="color000000 svgShape"><path fill="#8aa2ff" d="M662.14,259.02l-16.92-18.84c-9.35-10.41-21.75-14.91-27.7-10.06L321.73,478.67l50.77,56.53l295.79-248.55
			C674.24,281.8,671.49,269.43,662.14,259.02z" class="colorff6700 svgShape"/><path fill="#1c1c1c" d="M608.22,237.7l50.77,56.53l9.3-7.58c5.95-4.85,3.2-17.23-6.15-27.63l-16.92-18.84
			c-9.35-10.41-21.75-14.91-27.7-10.06L608.22,237.7z" class="color080717 svgShape"/><polygon fill="#fff" points="322.41 486.26 364.55 533.18 292 550.94" class="colorffffff svgShape"/><path fill="#1c1c1c" d="M323.49,493.61l33.42,37.21l-57.53,14.08L323.49,493.61L323.49,493.61z M321.33,478.9l-36.71,78.07
					l87.57-21.43L321.33,478.9L321.33,478.9z" class="color080717 svgShape"/><polygon fill="#1c1c1c" points="319.63 542.92 303.68 526.17 284.77 557.15" class="color080717 svgShape"/></g><g fill="#333b91" class="color000000 svgShape"><path fill="#1c1c1c" d="M456.88,527.85c-1.56,0-3.11-0.35-4.54-1.06c-2.58-1.27-4.52-3.59-5.32-6.35l-2.93-10.09
			c-0.63-2.18,0.63-4.46,2.81-5.09c2.19-0.61,4.46,0.63,5.09,2.8l2.93,10.09c0.22,0.75,0.76,1.12,1.06,1.27
			c0.3,0.15,0.92,0.35,1.65,0.07c15.96-6.26,26.7-21.38,27.36-38.52l0.71-18.55c0.09-2.27,2.03-4.17,4.26-3.95
			c2.27,0.08,4.04,1.99,3.95,4.26l-0.71,18.55c-0.78,20.4-13.57,38.41-32.58,45.86C459.42,527.62,458.15,527.85,456.88,527.85z" class="color080717 svgShape"/></g><g fill="#333b91" class="color000000 svgShape"><path fill="#1c1c1c" d="M496.99,512.41c-0.39,0-0.78-0.02-1.17-0.06c-2.86-0.33-5.47-1.86-7.15-4.19l-6.15-8.52
			c-1.32-1.84-0.91-4.41,0.93-5.74c1.84-1.32,4.41-0.91,5.74,0.93l6.15,8.52c0.46,0.64,1.09,0.79,1.42,0.83
			c0.31,0.04,0.98,0.03,1.58-0.49c12.93-11.26,17.96-29.12,12.82-45.48c-0.68-2.16,0.52-4.47,2.69-5.15
			c2.16-0.67,4.47,0.52,5.15,2.69c6.13,19.47,0.14,40.73-15.26,54.14C501.86,511.52,499.46,512.41,496.99,512.41z" class="color080717 svgShape"/></g><g fill="#333b91" class="color000000 svgShape"><path fill="#fff" d="M564.72,399.65l-127.6,16.32c-8.92,1.14-14.35,10.42-10.97,18.75l0,0c6.63,16.36,22.67,26.92,40.31,26.55
			l47.74-1l0,0c32.28,20.83,71.2,28.81,109.08,22.34l5.35-0.91L564.72,399.65z" class="colorffffff svgShape"/><path fill="#1c1c1c" d="M597.33,488.93c-29.69,0-58.87-8.39-84.3-24.52l-46.49,0.98c-19.26,0.29-36.99-11.3-44.2-29.12
			c-2.09-5.16-1.68-10.88,1.13-15.69c2.81-4.81,7.6-7.98,13.13-8.69l127.6-16.32c2.26-0.25,4.31,1.3,4.6,3.56
			c0.28,2.25-1.3,4.31-3.56,4.6l-127.6,16.32c-2.98,0.38-5.56,2.09-7.07,4.68c-1.52,2.59-1.74,5.67-0.61,8.45
			c5.85,14.43,20.1,24,35.62,24c0.26,0,0.53,0,0.79-0.01l47.74-1c0.92-0.03,1.63,0.21,2.32,0.66
			c31.5,20.33,69.19,28.04,106.16,21.75l5.35-0.92c2.28-0.39,4.36,1.12,4.74,3.35c0.39,2.24-1.12,4.36-3.35,4.74l-5.35,0.92
			C615.1,488.18,606.19,488.93,597.33,488.93z" class="color080717 svgShape"/></g><g fill="#333b91" class="color000000 svgShape"><path fill="#1c1c1c" d="M774.31,664.75c-0.87,0-1.74-0.27-2.48-0.84L591.39,526.8l-12.19-0.29c-26.22-0.62-51.56-10.42-71.39-27.59
			c-1.71-1.48-1.9-4.08-0.41-5.8c1.49-1.71,4.08-1.9,5.8-0.41c18.38,15.93,41.89,25.01,66.19,25.59l13.52,0.32
			c0.87,0.02,1.7,0.31,2.39,0.84l181.5,137.92c1.81,1.37,2.15,3.95,0.78,5.76C776.78,664.19,775.55,664.75,774.31,664.75z" class="color080717 svgShape"/></g><g fill="#333b91" class="color000000 svgShape"><polygon fill="#fff" points="1110.57 516.18 905.12 510.34 835.17 331.41 1001.28 266.47" class="colorffffff svgShape"/><path fill="#1c1c1c" d="M1110.57,520.28c-0.04,0-0.08,0-0.12,0L905,514.45c-1.65-0.05-3.11-1.08-3.71-2.61l-69.95-178.93
			c-0.83-2.11,0.22-4.5,2.33-5.32l166.12-64.94c2.04-0.8,4.37,0.16,5.26,2.18l109.28,249.71c0.57,1.29,0.43,2.78-0.36,3.95
			C1113.21,519.61,1111.93,520.28,1110.57,520.28z M907.95,506.31l196.25,5.57L999.1,271.74L840.5,333.74L907.95,506.31z" class="color080717 svgShape"/></g><g fill="#333b91" class="color000000 svgShape"><path fill="#fff" d="M689.34,809.77l22.81-145.99c11.29-72.24,59.49-133.34,127.12-161.13l122.57-50.37
			c42.67-17.53,91.08-14.05,130.8,9.42l55.69,32.91c38.91,22.99,65.09,62.58,71.02,107.38l27.5,207.79H689.34z" class="colorffffff svgShape"/><path fill="#1c1c1c" d="M689.35,813.88c-0.21,0-0.42-0.02-0.64-0.05c-2.24-0.35-3.78-2.45-3.43-4.69l22.81-145.99
			c11.44-73.18,61.1-136.14,129.62-164.3l122.57-50.37c43.6-17.92,93.85-14.3,134.45,9.68l55.69,32.91
			c40.26,23.79,66.86,64.02,73,110.38l27.5,207.79c0.3,2.25-1.28,4.31-3.54,4.61c-2.26,0.29-4.31-1.29-4.61-3.54l-27.5-207.79
			c-5.8-43.84-30.97-81.88-69.04-104.38l-55.69-32.91c-38.38-22.68-85.91-26.1-127.14-9.16l-122.57,50.37
			c-65.87,27.07-113.63,87.61-124.62,157.97L693.4,810.41C693.09,812.43,691.34,813.88,689.35,813.88z" class="color080717 svgShape"/></g><g fill="#333b91" class="color000000 svgShape"><ellipse cx="826.27" cy="93.16" fill="#1c1c1c" class="color080717 svgShape" rx="125.52" ry="76.17"/><path fill="#fff" d="M984.16,347.43c34.04-26.31,58.58-65.79,65.67-112.41c14.33-94.19-48.34-179.72-139.22-195.68
					c-149.1-26.18-192.29,104.27-192,132.4c0.07,6.59,0.12,12.97,0.12,19.14c-1.22,10.36-1.52,20.61-0.96,30.68
					c-1.71,21.82-6.23,38.68-17.64,47.89c-17.47,14.11,41.39,170.22,176.56,103.71L984.16,347.43z" class="colorffffff svgShape"/><path fill="#1c1c1c" d="M813.02,393.73c-13.24,0-25.99-2.3-38.22-6.89c-30.84-11.59-50.67-34.93-61.86-52.48
					c-18.08-28.3-25.26-60.12-15.38-68.1c9.26-7.48,14.23-21.29,16.1-44.74c-0.55-10.21-0.22-20.6,0.98-30.87
					c0-6.09-0.05-12.37-0.12-18.86c-0.2-19.52,16.14-70.18,56.4-104.34c36.8-31.23,84.05-42.03,140.42-32.15
					c94.52,16.6,157.14,104.6,142.57,200.34c-7.01,46.1-30.88,86.96-67.22,115.04c-1.8,1.39-4.37,1.06-5.76-0.74
					c-1.39-1.79-1.06-4.37,0.74-5.76c34.65-26.79,57.43-65.77,64.12-109.77c13.89-91.29-45.79-175.19-135.87-191.01
					c-53.85-9.46-98.83,0.75-133.68,30.32c-40.73,34.56-53.63,84.62-53.49,97.98c0.06,6.61,0.12,13,0.12,19.19
					c0,0.16-0.01,0.32-0.03,0.48c-1.18,9.98-1.49,20.06-0.95,29.97c0.01,0.18,0.01,0.37,0,0.55c-2.04,26.06-7.94,41.72-19.15,50.77
					c-3.8,3.07-1.19,28.57,17.15,57.29c16.92,26.5,65.91,83.39,155.02,39.54c2.03-0.99,4.5-0.16,5.5,1.87c1,2.03,0.16,4.5-1.87,5.5
					C855.66,388.1,833.75,393.73,813.02,393.73z" class="color080717 svgShape"/><path fill="#1c1c1c" d="M928.79,2.02c-60.95-9.27-119.51,14.04-159.18,57.14c16.53-1.92,33.44-1.82,50.49,0.78
				c115.75,17.61,193.52,137.49,173.7,267.76c-1.1,7.24-2.52,14.33-4.16,21.31c46.62-27.56,81.23-75.88,90.18-134.73
				C1095.36,112.11,1027.74,17.07,928.79,2.02z" class="color080717 svgShape"/><path fill="#1c1c1c" d="M751.52,337.97c-1.51,0-2.97-0.84-3.69-2.29c-1.01-2.03-0.17-4.5,1.86-5.51
					c11.49-5.69,13.83-19.6,13.85-19.74c0.35-2.24,2.46-3.76,4.69-3.42c2.24,0.35,3.77,2.43,3.43,4.67
					c-0.11,0.74-2.94,18.24-18.33,25.86C752.76,337.83,752.13,337.97,751.52,337.97z" class="color080717 svgShape"/><path fill="#1c1c1c" d="M775.96,189.39c-1.89,0-3.59-1.31-4.01-3.23c-0.98-4.45-7.15-11.05-15.78-14.37
					c-5.05-1.95-14.94-4.21-24.46,2.55c-1.85,1.32-4.42,0.88-5.73-0.96c-1.32-1.85-0.88-4.42,0.96-5.73
					c9.37-6.67,20.79-7.92,32.18-3.53c10.55,4.07,19.12,12.41,20.85,20.28c0.49,2.22-0.91,4.41-3.13,4.9
					C776.55,189.36,776.25,189.39,775.96,189.39z" class="color080717 svgShape"/><path fill="#1c1c1c" d="M750.96,223.56c-1.36,4.98-5.37,8.23-8.96,7.25c-3.59-0.98-5.39-5.81-4.03-10.8
				c1.36-4.98,5.37-8.23,8.96-7.25C750.52,213.74,752.32,218.57,750.96,223.56z" class="color080717 svgShape"/><path fill="#1c1c1c" d="M1293.31,611.65c-0.28,0-0.58-0.03-0.87-0.09c-2.22-0.48-3.63-2.66-3.15-4.88
					c22.06-102.53-43.88-143.6-119.38-179.9c-38.29-18.41-65.76-55.43-81.64-110.04c-15.78-54.24-15.29-109.21-13.6-137.14
					c0.14-2.26,2.16-3.98,4.35-3.85c2.26,0.14,3.99,2.08,3.85,4.35c-1.66,27.4-2.14,81.29,13.29,134.35
					c15.2,52.27,41.21,87.57,77.31,104.92c75.44,36.27,147.15,80.74,123.85,189.03C1296.91,610.34,1295.2,611.65,1293.31,611.65z" class="color080717 svgShape"/><path fill="#1c1c1c" d="M786.57,47.02c0,0-15.02,64.37-2.15,94.41s8.76,113.57,120.16,87.97c39.29-9.03-45.06,190.96,21.46,223.15
				c66.52,32.18,137.32,60.08,118.01,145.91c-19.31,85.83,259.63,115.87,242.46-2.15c-17.17-118.01-75.1-130.89-141.61-171.65
				c-66.52-40.77-70.81-165.22-62.22-240.31C1091.26,109.25,926.04-30.22,786.57,47.02z" class="color080717 svgShape"/><circle cx="915.31" cy="242.28" r="49.35" fill="#fff" class="colorffffff svgShape" transform="rotate(-45.001 915.316 242.292)"/><g class="color000000 svgShape"><path fill="#1c1c1c" d="M898.15,252.83c-0.11,0-0.23,0-0.35-0.02c-2.26-0.18-3.94-2.17-3.75-4.43c0.1-1.16,2.66-28.48,28.43-37.85
					c2.14-0.77,4.49,0.33,5.26,2.46c0.78,2.13-0.33,4.49-2.46,5.26c-20.89,7.6-23.04,30.58-23.06,30.81
					C902.07,251.21,900.27,252.83,898.15,252.83z" class="color080717 svgShape"/></g></g><g fill="#333b91" class="color000000 svgShape"><path fill="#fff" d="M882.01,707.29l-12.3,99.75L882.01,707.29z" class="colorffffff svgShape"/><path fill="#1c1c1c" d="M869.72,811.15c-0.17,0-0.34-0.01-0.51-0.03c-2.26-0.28-3.85-2.33-3.58-4.58l12.3-99.75
			c0.28-2.26,2.37-3.86,4.58-3.58c2.26,0.28,3.85,2.33,3.58,4.58l-12.3,99.75C873.53,809.62,871.76,811.15,869.72,811.15z" class="color080717 svgShape"/></g><path fill="#1c1c1c" d="M765.86,548.79l-0.68-4.37c-7.08-45.63,13.07-91.21,51.58-116.69h0c16.86-11.15,30.97-25.99,41.27-43.38
		l52.67-82.88c0,0,84.37,77.57,128.44,148.94c29.17,47.23,19.13,122.98,5.47,92.92c-18.41-40.5-80.73-41.32-80.73-41.32
		C894.97,500.42,826.79,516.53,765.86,548.79L765.86,548.79z" class="color080717 svgShape"/></svg>