<svg xmlns="http://www.w3.org/2000/svg" enable-background="new 0 0 1184.12 881.38" viewBox="0 0 1184.12 881.38"><path fill="#fff" d="M360.84,475.64l30.04,17.85c18.56,11.03,42.54,4.93,53.57-13.63l87.74-147.64
			c11.03-18.56,4.93-42.54-13.63-53.57l-30.04-17.85c-18.56-11.03-42.54-4.93-53.57,13.63L347.2,422.07
			C336.18,440.63,342.28,464.61,360.84,475.64z" class="colorffffff svgShape"/><path fill="#8aa2ff" d="M410.77,503.07c-7.5,0-15.09-1.95-21.99-6.05l-30.04-17.85l0,0c-20.47-12.17-27.22-38.72-15.06-59.19l87.74-147.64
			c12.16-20.47,38.72-27.23,59.19-15.06l30.04,17.85c20.47,12.17,27.22,38.72,15.06,59.19l-87.74,147.64
			C439.91,495.53,425.52,503.07,410.77,503.07z M362.93,472.12l30.04,17.85c16.57,9.85,38.09,4.39,47.95-12.2l87.74-147.64
			c9.85-16.59,4.38-38.1-12.2-47.95l-30.04-17.85c-16.57-9.85-38.09-4.39-47.95,12.2l-87.74,147.64
			C340.87,440.75,346.35,462.26,362.93,472.12z" class="color000000 svgShape"/><ellipse cx="526.44" cy="193.75" fill="#1c1c1c" class="color080717 svgShape" rx="85.47" ry="137.89" transform="rotate(-86.686 526.466 193.75)"/><path fill="#fff" d="M318.82,263.09c7.36-13.19,27.45-16,44.88-6.28c2.16,1.2,4.18,2.55,6.04,4
					c6.5-77.72,68.45-136.79,140.18-132.64c72.99,4.22,128.41,72.29,123.8,152.02c-4.61,79.74-67.52,140.95-140.51,136.73
					c-59.66-3.45-107.56-49.57-120.56-109.83c-9.55,4.95-23.23,4.39-35.6-2.51C319.62,294.86,311.46,276.28,318.82,263.09z" class="colorffffff svgShape"/><path fill="#8aa2ff" d="M500.29,421.23c-2.43,0-4.87-0.07-7.32-0.21c-58.08-3.36-108.12-47.61-123.22-108.29c-10.47,3.4-23.3,1.79-34.7-4.56
					c-19.38-10.81-28.26-31.92-19.81-47.07c4.2-7.53,11.9-12.43,21.68-13.79c9.35-1.31,19.58,0.8,28.78,5.94
					c0.22,0.12,0.45,0.25,0.67,0.38c9.67-77.29,71.71-133.67,143.79-129.53c75.13,4.35,132.39,74.49,127.65,156.35
					C633.22,359.63,572.27,421.23,500.29,421.23z M372.65,302.99c0.6,0,1.19,0.13,1.75,0.39c1.16,0.54,1.99,1.6,2.26,2.84
					c13.04,60.48,59.97,103.32,116.79,106.6c70.66,4.13,131.7-55.52,136.18-132.87c4.47-77.35-49.33-143.61-119.94-147.69
					c-69.79-4.04-129.48,52.58-135.86,128.88c-0.12,1.5-1.06,2.81-2.44,3.41c-1.38,0.6-2.98,0.4-4.16-0.52
					c-1.73-1.35-3.59-2.58-5.51-3.65c-7.66-4.28-16.05-6.04-23.65-4.98c-7.18,1-12.74,4.44-15.66,9.67
					c-6.25,11.2,1.22,27.31,16.65,35.91c10.67,5.95,23.12,6.91,31.72,2.45C371.35,303.15,372,302.99,372.65,302.99z" class="color000000 svgShape"/><path fill="#1c1c1c" d="M512.42,86.73c49.98-9.1,96.59-0.34,124.14,20.22c7.58,5.66,0.95,17.46-7.95,14.22
				c-26.64-9.7-60.87-12.42-96.85-5.86c-74.04,13.48-127.38,61.06-119.15,106.27c0.33,1.8,0.78,3.55,1.29,5.29
				c-10.94-9.34-18.25-20.78-20.64-33.87C385.04,147.79,438.38,100.22,512.42,86.73z" class="color080717 svgShape"/><path fill="#1c1c1c" d="M287.08,182.33L287.08,182.33c18.29-54.87,72.7-89.26,130.11-82.24l101.84,12.46l-12.48,15.52
				c10.96-17.23,51.33,67.43-56.24,69.35c-22.58,0.4-31.04,24.14-37.68,47.22c-4.43,15.42-8.11,30.65-11.24,44.45
				c-1.61,7.1-32.62,5.38-31.65-28.28c-1.86-1.45-3.88-2.79-6.04-4c-17.43-9.72-37.52-6.91-44.88,6.28
				c-7.36,13.19,0.8,31.77,18.23,41.49c12.36,6.9,26.05,7.46,35.6,2.51c5.2,24.11,16,45.95,30.89,63.7l-27.83-1.61
				c-15.26-0.88-28.72-10.32-34.76-24.36l-11.51-26.78l-1.66-1.29C287.09,285.1,270.78,231.23,287.08,182.33z" class="color080717 svgShape"/><path fill="#8aa2ff" d="M593.01,283.26c-0.79,6.76,2.51,12.7,7.37,13.27c4.86,0.57,9.45-4.45,10.24-11.21c0.79-6.76-2.51-12.7-7.37-13.27
			C598.39,271.48,593.8,276.5,593.01,283.26z" class="color000000 svgShape"/><path fill="#8aa2ff" d="M503.66,274.89c-0.79,6.76,2.51,12.7,7.37,13.27c4.86,0.57,9.45-4.45,10.24-11.21c0.79-6.76-2.51-12.7-7.37-13.27
			C509.03,263.11,504.45,268.13,503.66,274.89z" class="color000000 svgShape"/><path fill="#8aa2ff" d="M516,359.83c-0.28,0-0.58-0.03-0.87-0.09c-10.12-1.99-19.14-8.57-24.13-17.6c-1.2-2.16-0.41-4.88,1.75-6.07
				c2.15-1.19,4.88-0.41,6.07,1.75c3.74,6.75,10.48,11.67,18.05,13.16c2.42,0.48,4,2.83,3.52,5.25
				C519.96,358.35,518.09,359.83,516,359.83z" class="color000000 svgShape"/><path fill="#8aa2ff" d="M556.29,319.82c-2.14,0-4.03-1.54-4.4-3.73c-0.41-2.43,1.23-4.74,3.66-5.15c6.84-1.16,11.88-7.26,11.72-14.19
				l-0.51-21.94c-0.06-2.47,1.89-4.51,4.36-4.57c2.43-0.09,4.51,1.89,4.57,4.36l0.51,21.93c0.27,11.34-7.97,21.32-19.16,23.21
				C556.79,319.8,556.54,319.82,556.29,319.82z" class="color000000 svgShape"/><path fill="#8aa2ff" d="M498.62,252.57c-0.97,0-1.96-0.32-2.78-0.97c-1.93-1.54-2.25-4.35-0.71-6.28c6.21-7.81,17.76-10.6,26.86-6.48
				c2.25,1.02,3.25,3.66,2.23,5.91c-1.02,2.25-3.65,3.25-5.91,2.23c-5.4-2.44-12.5-0.72-16.18,3.91
				C501.24,251.99,499.94,252.57,498.62,252.57z" class="color000000 svgShape"/><path fill="#8aa2ff" d="M616.9,263.9c-1,0-2-0.33-2.83-1.02c-4.52-3.71-9.91-6.44-15.58-7.89c-2.39-0.61-3.84-3.04-3.23-5.43
				c0.6-2.39,3.04-3.85,5.43-3.23c6.94,1.77,13.53,5.1,19.05,9.64c1.91,1.57,2.18,4.38,0.62,6.29
				C619.47,263.34,618.2,263.9,616.9,263.9z" class="color000000 svgShape"/><path fill="#ecedff" d="M373.06,461.45l107.17-19.24c31.38-5.63,62.9,9.13,78.66,36.85l210.95,370.99H431.88L373.06,461.45z" class="colorff6700 svgShape"/><polygon fill="#fff" points="427.78 850.05 765.74 850.05 621.53 596.43 389.39 596.43" class="colorffffff svgShape"/><path fill="#1c1c1c" d="M765.74,854.15H427.78c-2.03,0-3.75-1.48-4.05-3.49l-38.39-253.61c-0.18-1.18,0.16-2.38,0.95-3.29
			c0.78-0.91,1.91-1.43,3.11-1.43h232.14c1.47,0,2.83,0.79,3.56,2.07l144.21,253.61c0.72,1.27,0.71,2.82-0.02,4.09
			C768.55,853.37,767.2,854.15,765.74,854.15z M431.31,845.95h327.38L619.14,600.54H394.16L431.31,845.95z" class="color080717 svgShape"/><path fill="#ecedff" d="M133.9,574.61l111.13-146.12c27.13-35.68,78.28-42.11,113.4-14.27l51.93,41.16l22.62-24.03h1.02
		c42.97,0,79.96,30.33,88.39,72.46l19.3,368.59H90.91L133.9,574.61z" class="colorff6700 svgShape"/><g fill="#8aa2ff" class="color000000 svgShape"><path fill="#fff" d="M566.43,719.2h12.02c13.92,0,26.35-8.71,31.11-21.79l0,0c3.48-9.58-3.61-19.7-13.8-19.7h-101L566.43,719.2z" class="colorffffff svgShape"/><path fill="#1c1c1c" d="M578.45,723.3h-12.02c-2.27,0-4.1-1.84-4.1-4.1c0-2.26,1.83-4.1,4.1-4.1h12.02
				c12.15,0,23.1-7.67,27.26-19.09c1.2-3.29,0.73-6.82-1.28-9.69c-2.01-2.87-5.17-4.51-8.67-4.51h-101c-2.27,0-4.1-1.84-4.1-4.1
				c0-2.26,1.83-4.1,4.1-4.1h101c6.12,0,11.87,2.99,15.38,8.01c3.51,5.01,4.36,11.44,2.27,17.2
				C608.09,713.46,594.03,723.3,578.45,723.3z" class="color080717 svgShape"/><path fill="#fff" d="M133.9,574.61L24.67,718.55c-55.27,72.83,9.48,175.21,98.97,156.49l342.2-71.59l41.27,28.89
				c13.37,9.36,30.7,10.89,45.5,4.02l11.3-5.25l0,0c13.79,9.2,31.68,9.52,45.8,0.83l9.53-5.86l-88.92-83.24
				c11.06,6.1,64.41,27.9,96.84,30.44c9.01,0.71,17.75-3.26,23.36-10.34l2.96-3.74l-101.83-58.55c-32.25-16.9-42.48-26-67.18-22.65
				L237,711.66l65.38-71.67C302.39,639.99,260.89,574.61,133.9,574.61z" class="colorffffff svgShape"/><path fill="#1c1c1c" d="M102.24,881.38c-34.73,0-66.38-17.31-85.83-48.07c-23.54-37.23-21.63-82.16,5-117.25l109.23-143.94
				c0.78-1.02,1.99-1.62,3.27-1.62c127.78,0,170.2,64.54,171.95,67.29c0.99,1.56,0.81,3.59-0.43,4.96l-57.76,63.32l236.27-32.12
				c21.78-2.96,33.51,3.45,54.81,15.09c4.42,2.41,9.3,5.08,14.83,7.98l101.97,58.63c1.04,0.59,1.76,1.61,1.99,2.78
				c0.22,1.17-0.07,2.38-0.82,3.32l-2.96,3.74c-6.55,8.25-16.64,12.69-26.9,11.88c-22.76-1.78-54.54-12.5-76.15-21.08l71.35,66.79
				c0.93,0.87,1.41,2.13,1.28,3.4c-0.13,1.27-0.84,2.41-1.93,3.08l-9.53,5.86c-14.77,9.09-33.45,9.15-48.24,0.33l-9.27,4.31
				c-16.07,7.46-35.07,5.78-49.58-4.38l-39.82-27.87l-340.46,71.23C116.99,880.62,109.54,881.38,102.24,881.38z M135.93,578.71
				L27.94,721.03c-24.51,32.29-26.27,73.64-4.6,107.9c21.67,34.27,59.82,50.39,99.46,42.09L465,799.43c1.11-0.23,2.27,0,3.19,0.65
				l41.28,28.89c12.12,8.49,27.99,9.89,41.43,3.66l11.3-5.24c1.29-0.6,2.81-0.49,4,0.31c12.41,8.28,28.66,8.57,41.37,0.75l4.95-3.05
				l-85-79.57c-1.51-1.41-1.73-3.73-0.52-5.4c1.22-1.67,3.48-2.18,5.3-1.18c11.83,6.52,64.42,27.53,95.18,29.94
				c7.58,0.59,14.98-2.7,19.83-8.8l0-0.01l-97.71-56.17c-5.44-2.84-10.36-5.54-14.82-7.97c-21.05-11.51-30.67-16.75-49.77-14.16
				l-247.47,33.65c-1.73,0.26-3.38-0.63-4.18-2.16c-0.8-1.53-0.56-3.4,0.6-4.67l63.13-69.2c-3.95-5.09-14.57-17.21-33.98-29.21
				C239.92,596.14,199.09,579.07,135.93,578.71z" class="color080717 svgShape"/><g class="color000000 svgShape"><path fill="#fff" d="M499.79,774.53l64.12,56.58L499.79,774.53z" class="colorffffff svgShape"/><path fill="#1c1c1c" d="M563.91,835.21c-0.97,0-1.93-0.34-2.71-1.03l-64.13-56.58c-1.7-1.5-1.86-4.09-0.36-5.79
				c1.51-1.7,4.1-1.85,5.79-0.36l64.13,56.58c1.7,1.5,1.86,4.09,0.36,5.79C566.18,834.74,565.05,835.21,563.91,835.21z" class="color080717 svgShape"/></g><g class="color000000 svgShape"><path fill="#fff" d="M532.14,744.66l-21.36-17.27L532.14,744.66z" class="colorffffff svgShape"/><path fill="#1c1c1c" d="M532.13,748.76c-0.9,0-1.81-0.3-2.57-0.91l-21.36-17.27c-1.76-1.43-2.03-4.01-0.61-5.77
				c1.42-1.76,4-2.03,5.77-0.61l21.36,17.27c1.76,1.43,2.03,4.01,0.61,5.77C534.51,748.24,533.33,748.76,532.13,748.76z" class="color080717 svgShape"/></g></g><g fill="#8aa2ff" class="color000000 svgShape"><path fill="#fff" d="M302.38,644.09c-1.02,0-2.04-0.38-2.83-1.13c-1.64-1.57-1.7-4.16-0.13-5.8l66.99-70.11
			c1.56-1.63,4.16-1.7,5.79-0.13c1.64,1.57,1.7,4.16,0.13,5.8l-66.99,70.11C304.54,643.66,303.47,644.09,302.38,644.09z" class="colorffffff svgShape"/></g><path fill="#1c1c1c" d="M832.52,872.4H348.01v-8.88c0-16.2,13.13-29.33,29.33-29.33h455.17V872.4z" class="color080717 svgShape"/><path fill="#1c1c1c" d="M644.52,872.4h440.55l96.8-292.61c9.35-28.27-11.7-57.4-41.47-57.4H791.87c-18.84,0-35.55,12.08-41.47,29.96
		L644.52,872.4z" class="color080717 svgShape"/><g fill="#8aa2ff" class="color000000 svgShape"><circle cx="942.61" cy="704.22" r="31.03" fill="#fff" class="colorffffff svgShape" transform="rotate(-67.5 942.596 704.207)"/><path fill="#1c1c1c" d="M942.61,739.35c-19.37,0-35.12-15.76-35.12-35.13c0-19.37,15.76-35.13,35.12-35.13
			c19.37,0,35.13,15.76,35.13,35.13C977.74,723.59,961.98,739.35,942.61,739.35z M942.61,677.3c-14.85,0-26.92,12.08-26.92,26.93
			c0,14.85,12.08,26.93,26.92,26.93c14.85,0,26.93-12.08,26.93-26.93C969.54,689.38,957.46,677.3,942.61,677.3z" class="color080717 svgShape"/></g><g fill="#8aa2ff" class="color000000 svgShape"><path fill="#fff" d="M138.93,726.75L237,711.66L138.93,726.75z" class="colorffffff svgShape"/><path fill="#1c1c1c" d="M138.93,730.85c-1.99,0-3.74-1.45-4.05-3.48c-0.34-2.24,1.19-4.33,3.43-4.68l98.07-15.09
			c2.26-0.35,4.33,1.19,4.68,3.43c0.34,2.24-1.19,4.33-3.43,4.67l-98.07,15.09C139.34,730.83,139.13,730.85,138.93,730.85z" class="color080717 svgShape"/></g><path fill="#fff" d="M365.79,417.42l143.62,26.36l-2.56,10.69c-11.6,48.5-66.68,63.6-97.13,26.62L365.79,417.42z" class="colorffffff svgShape"/><g fill="#8aa2ff" class="color000000 svgShape"><path fill="#fff" d="M473.96,431.96l36.36,10L473.96,431.96z" class="colorffffff svgShape"/><path d="M510.32,446.06c-0.36,0-0.73-0.05-1.09-0.15l-36.36-10c-2.18-0.6-3.46-2.86-2.86-5.04c0.6-2.19,2.85-3.47,5.04-2.87
			l36.36,10c2.18,0.6,3.46,2.86,2.86,5.04C513.77,444.87,512.12,446.06,510.32,446.06z" class="color000000 svgShape"/></g><g fill="#8aa2ff" class="color000000 svgShape"><path fill="#fff" d="M476.69,425.6l-19.09,34.54L476.69,425.6z" class="colorffffff svgShape"/><path d="M457.59,464.24c-0.67,0-1.35-0.16-1.98-0.51c-1.98-1.1-2.7-3.59-1.61-5.57l19.09-34.54c1.09-1.98,3.58-2.71,5.57-1.6
			c1.98,1.1,2.7,3.59,1.61,5.57l-19.09,34.54C460.43,463.48,459.04,464.24,457.59,464.24z" class="color000000 svgShape"/></g><g fill="#8aa2ff" class="color000000 svgShape"><path fill="#1c1c1c" d="M1121.63,53.67H942.09c-2.27,0-4.1-1.84-4.1-4.1c0-2.26,1.83-4.1,4.1-4.1h179.54c2.27,0,4.1,1.84,4.1,4.1
				C1125.73,51.83,1123.89,53.67,1121.63,53.67z" class="color080717 svgShape"/><path fill="#1c1c1c" d="M1107.56,87.77H942.09c-2.27,0-4.1-1.84-4.1-4.1c0-2.26,1.83-4.1,4.1-4.1h165.47c2.27,0,4.1,1.84,4.1,4.1
				C1111.66,85.93,1109.83,87.77,1107.56,87.77z" class="color080717 svgShape"/><rect width="113.66" height="113.66" x="801.92" y="4.1" fill="#fff" class="colorffffff svgShape"/><path fill="#1c1c1c" d="M915.58,121.87H801.92c-2.27,0-4.1-1.84-4.1-4.1V4.1c0-2.26,1.83-4.1,4.1-4.1h113.66
				c2.27,0,4.1,1.84,4.1,4.1v113.67C919.68,120.03,917.85,121.87,915.58,121.87z M806.02,113.67h105.46V8.2H806.02V113.67z" class="color080717 svgShape"/><g class="color000000 svgShape"><path fill="#1c1c1c" d="M846.61,84.5c-1.05,0-2.1-0.4-2.9-1.2l-18.59-18.59c-1.6-1.6-1.6-4.2,0-5.8c1.6-1.6,4.2-1.6,5.8,0
				l15.69,15.69l41.72-41.71c1.6-1.6,4.2-1.6,5.8,0c1.6,1.6,1.6,4.2,0,5.8L849.51,83.3C848.71,84.1,847.66,84.5,846.61,84.5z" class="color080717 svgShape"/></g></g><g fill="#8aa2ff" class="color000000 svgShape"><path fill="#1c1c1c" d="M1121.63,220.02H942.09c-2.27,0-4.1-1.84-4.1-4.1c0-2.26,1.83-4.1,4.1-4.1h179.54c2.27,0,4.1,1.84,4.1,4.1
				C1125.73,218.18,1123.89,220.02,1121.63,220.02z" class="color080717 svgShape"/><path fill="#1c1c1c" d="M1107.56,254.12H942.09c-2.27,0-4.1-1.84-4.1-4.1c0-2.26,1.83-4.1,4.1-4.1h165.47c2.27,0,4.1,1.84,4.1,4.1
				C1111.66,252.28,1109.83,254.12,1107.56,254.12z" class="color080717 svgShape"/><rect width="113.66" height="113.66" x="801.92" y="170.45" fill="#fff" class="colorffffff svgShape"/><path fill="#1c1c1c" d="M915.58,288.21H801.92c-2.27,0-4.1-1.84-4.1-4.1V170.45c0-2.26,1.83-4.1,4.1-4.1h113.66
				c2.27,0,4.1,1.84,4.1,4.1v113.66C919.68,286.38,917.85,288.21,915.58,288.21z M806.02,280.01h105.46V174.55H806.02V280.01z" class="color080717 svgShape"/><g class="color000000 svgShape"><path fill="#1c1c1c" d="M846.61,250.85L846.61,250.85c-1.09,0-2.13-0.43-2.9-1.2l-18.59-18.59c-1.6-1.6-1.6-4.2,0-5.8s4.2-1.6,5.8,0
				l15.69,15.69l41.72-41.71c1.6-1.6,4.2-1.6,5.8,0c1.6,1.6,1.6,4.2,0,5.8l-44.61,44.61C848.74,250.42,847.7,250.85,846.61,250.85z" class="color080717 svgShape"/></g></g><g fill="#8aa2ff" class="color000000 svgShape"><path fill="#1c1c1c" d="M1121.63,386.37H942.09c-2.27,0-4.1-1.84-4.1-4.1c0-2.26,1.83-4.1,4.1-4.1h179.54c2.27,0,4.1,1.84,4.1,4.1
				C1125.73,384.53,1123.89,386.37,1121.63,386.37z" class="color080717 svgShape"/><path fill="#1c1c1c" d="M1107.56,420.46H942.09c-2.27,0-4.1-1.84-4.1-4.1c0-2.26,1.83-4.1,4.1-4.1h165.47c2.27,0,4.1,1.84,4.1,4.1
				C1111.66,418.63,1109.83,420.46,1107.56,420.46z" class="color080717 svgShape"/><rect width="113.66" height="113.66" x="801.92" y="336.8" fill="#fff" class="colorffffff svgShape"/><path fill="#1c1c1c" d="M915.58,454.56H801.92c-2.27,0-4.1-1.84-4.1-4.1V336.8c0-2.26,1.83-4.1,4.1-4.1h113.66
				c2.27,0,4.1,1.84,4.1,4.1v113.66C919.68,452.73,917.85,454.56,915.58,454.56z M806.02,446.36h105.46V340.9H806.02V446.36z" class="color080717 svgShape"/><g class="color000000 svgShape"><path fill="#1c1c1c" d="M846.61,417.2L846.61,417.2c-1.09,0-2.13-0.43-2.9-1.2l-18.59-18.59c-1.6-1.6-1.6-4.2,0-5.8
				c1.6-1.6,4.2-1.6,5.8,0l15.69,15.69l41.72-41.71c1.6-1.6,4.2-1.6,5.8,0c1.6,1.6,1.6,4.2,0,5.8L849.51,416
				C848.74,416.77,847.7,417.2,846.61,417.2z" class="color080717 svgShape"/></g></g></svg>