<svg xmlns="http://www.w3.org/2000/svg" viewBox="0 0 2000 2000"><path fill="#080808" d="M1174.54,1788.85l26.23,147.51H894.27s20.49-59,101.62-68,51.63-79.48,51.63-79.48Z" class="color570b7f svgShape"/><path fill="#080808" d="M1184.55,1193.89l157.35-11.48a640.62,640.62,0,0,1-45.9,306.5c-31.25-16.56-43.68-35.31-49.17-49.72-15.22-40,13.56-71-8.74-109.27-3.37-5.78-12.74-21.34-31.68-28.4-15.89-5.93-30.47-2.89-37-1.1Z" class="color570b7f svgShape"/><path fill="#b4a6fe" d="M1153.91,474.13c-1.8,1.18-16.45,10.45-34.33,4.57-18.19-6-24.4-22.63-25.09-24.59l37.22-72.17,36.23,12.2Z" class="colorff59cf svgShape"/><path fill="#3c17ff" d="M1163.28,407.3l4-9.35-37.34-12.58q-9,17.38-17.93,34.76a34.73,34.73,0,0,0,17.92,6.08C1150,427,1162.43,408.6,1163.28,407.3Z" class="colorff17b6 svgShape"/><circle cx="1159.6" cy="351.96" r="45.43" fill="#b4a6fe" class="colorff59cf svgShape"/><path fill="#b4a6fe" d="M1159.6,352l-41.07-19.29c-3.53,8-6.43,15-8.66,20.44-6.43,15.76-7.64,20.14-7.81,25.6-.12,3.54-.34,10.39,2.85,16.86,7.55,15.33,30.21,20.29,46.41,18.16,17.54-2.31,29-13.1,33.41-17.79,0,0,2.63-2.94,15.92-24.63Z" class="colorff59cf svgShape"/><path fill="#f9fcfe" d="M1110,450.28c-67.33-32.09-112.09-23-132.5-16.34-17,5.59-29.82,13.71-81.69,54.53-38,29.92-69.35,55.63-92,74.51L725,460.81,618,577.92a340.73,340.73,0,0,0,31.07,81.26c20.2,37.55,58,90.76,89.62,105.17,67.63,30.84,208.81-69.69,325.4-261.31Z" class="colorfff3ff svgShape"/><path fill="#0bc4f7" d="M448,845.08l-175.23,61q31.32-87.63,62.62-175.27l657.31-648c29.58-22.08,68.06-24.71,94.89-7.38,35.41,22.88,47.21,78.39,17.72,121.61Z" class="colorf7e00b svgShape"/><rect width="34.18" height="846.15" x="675.91" y="67.89" fill="#2100cd" class="color8f00cd svgShape" transform="rotate(45.41 693.003 490.958)"/><path fill="#2100cd" d="M1087.6,75.51c-26.83-17.33-65.31-14.7-94.89,7.38L938,136.83,1050.6,251.07l54.72-53.95C1134.81,153.9,1123,98.39,1087.6,75.51Z" class="color8f00cd svgShape"/><path fill="#080808" d="M295.93,841.33s39.75,1,41.63,42.23l-64.78,22.56Z" class="color570b7f svgShape"/><path fill="#9dd7ff" d="M761.69,783.69a2066.31,2066.31,0,0,0-130.94,287.89c-35.19,96.24-83.89,170-52.63,242a170.44,170.44,0,0,0,34.42,48.36c114.26,111.18,538.91,1.49,578.57-9l35.25-189.62-376.17,9.33L961.65,861.17Z" class="color00c1d7 svgShape"/><path fill="#9dd7ff" d="M842.12,789.39A2768.11,2768.11,0,0,0,969.33,1830.3l231.44-3.21-104.72-625s17.48-225.09,2.18-305.95S842.12,789.39,842.12,789.39Z" class="color00c1d7 svgShape"/><path fill="#f9fcfe" d="M1058.12,433.66A1615.49,1615.49,0,0,0,855.93,598.1C694.75,752.63,698.38,814.49,704,839.63a104.41,104.41,0,0,0,12.39,30.69,52.8,52.8,0,0,1,21.67-7.39c40.62-4.08,75.77,45,85.14,56.77,29.2,36.59,99.38,75.55,280.83,83.65,12.56.55,29.56-.87,43.62-11.35,42.68-31.84,24-121.66,16.73-164-13.67-80.15-21.37-196.8,5-357.68l-59.43-20Z" class="colorfff3ff svgShape"/><path fill="#f9fcfe" d="M1122.63,451.05a134.91,134.91,0,0,1,46.83,19.25h0s35.37,22.66,55.61,73c27.06,67.28,42,366.73-139.82,421.24C921.65,1013.57,731.71,813,748.79,753.7c1.28-4.47,3.69-8,5.75-16.31,10-40.37-15.92-81.15-40.94-110.47l65.72-49c24.41,28.66,59,59.5,96,54.38,7.52-1,11.16-3,16-4.19C915.84,622.17,957,640.06,1030,743.69a943.21,943.21,0,0,1,92.66-292.64Z" class="colorfff3ff svgShape"/><path fill="#b4a6fe" d="M1101,441.58s-8.63,41.22-2.55,43.57,58.21-26.39,58.21-26.39S1135.67,432.61,1101,441.58Z" class="colorff59cf svgShape"/><path fill="#eef9fc" d="M1110,424s-5.36-5.17-12.43,0-12.73,3.9-18.52,7.32c-6.74,4-9.7,15.33-15.34,37.89-4.81,19.2-4,21.74-2.59,23.3,7.29,8.22,34.49-5.88,37.25-7.33,0,0-1.07-30.14,2.55-43.57Z" class="colore4cae5 svgShape"/><path fill="#eef9fc" d="M1098.4,485.15s38.25-14.21,58.21-26.39l4.16-23.75s7.85.6,8.69,12.06c1,14.07,6.19,16.09,6,24.35-.24,14.18-13.74,24.42-26.08,33.78-14,10.61-33,25-44.46,17.75C1096.39,517.54,1094.64,501.73,1098.4,485.15Z" class="colore4cae5 svgShape"/><path fill="#2100cd" d="M1190,1875.72s-36.62-6.38-60.52,31.06-48.38-9.16-82-8.76-36,23.56-66.24,23.33-58.8-23-58.8-23-36.35,5.07-28.21,38h306.5Z" class="color8f00cd svgShape"/><path fill="#2100cd" d="M1281.5,1186.82s-1.86,18.09,28,55.93,6.77,78.08-4.78,98,19.36,82.9-37.72,127.89c0,0,3.52,25.44,29,20.28,0,0,11.25-16.33,23.64-45.8a387.47,387.47,0,0,0,13.31-36.64c12.63-41.09,16.46-79.93,17.2-88,5-54.55-1.23-102.22-8.25-136Z" class="color8f00cd svgShape"/><path fill="#b4a6fe" d="M849.54,630.76l-55.08-60.41-14.38-52.62-18.87,18.6A71.36,71.36,0,0,1,740.69,517c-11.48-16.45-12-33.19-23.9-36.65-1.68-.49-4.22-1.23-6.38,0-8.78,5,.42,35.75,3.19,44.58a114.22,114.22,0,0,1-13.45-17.79c-3.72-6.13-6.18-11.54-11.25-12.45a9.17,9.17,0,0,0-6.67,1.39c-2.48,1.94-6.63,9.82,15.18,54.38C694,544,677,512.72,666.2,515.78c-2.4.68-3.69,2.83-4.39,4,0,0-5.61,9.32,20.32,55.37-3.17-4.43-6-8.17-8.38-11.11-9.48-11.93-12.6-13.82-15.57-13.58a7.7,7.7,0,0,0-5,2.62c-7.66,9.28,16.42,42.9,30.45,59.8a249.75,249.75,0,0,0,39.88,38.34l21.2,46.43S802.64,699.13,849.54,630.76Z" class="colorff59cf svgShape"/><path fill="#eef9fc" d="M826.69,605.7s-36.61,60.06-95.17,69c0,0-13.13,5.77,0,14.34s23,48.33,23,48.33,72.11-.09,95-44.75,25.83-60.34,25.83-60.34-13,3.58-25.83-14.34S831.92,598.07,826.69,605.7Z" class="colore4cae5 svgShape"/><path fill="none" stroke="#454545" stroke-linecap="round" stroke-linejoin="round" d="M713.6,524.91s2.69,10.29,14.64,22.54" class="colorStroke570b7f svgStroke"/><path fill="none" stroke="#454545" stroke-linecap="round" stroke-linejoin="round" d="M693,541.16c-.23-.51,4.47,14.36,13.73,23" class="colorStroke570b7f svgStroke"/><path fill="none" stroke="#454545" stroke-linecap="round" stroke-linejoin="round" d="M678.85,569.17s7.87,13.77,14.14,19.48" class="colorStroke570b7f svgStroke"/><path fill="none" stroke="#454545" stroke-linecap="round" stroke-linejoin="round" d="M875.37,632.3s31.09-14.91,58,6.28,47.14,77.77,102.11,112.52,71.3,73.39,82.85,109.25" class="colorStroke570b7f svgStroke"/><path fill="none" stroke="#454545" stroke-linecap="round" stroke-linejoin="round" d="M1167.94,547.45s-66.73,66-122.11,210.58" class="colorStroke570b7f svgStroke"/><path fill="none" stroke="#454545" stroke-linecap="round" stroke-linejoin="round" d="M754.54,737.39s-13.85,36.81,24.39,52a280.75,280.75,0,0,1,37,17.92c29.33,17,60.72,49.8,87.26,77.73,29,30.49,73.91,77.81,127,87.11,16.12,2.82,71.39,8.88,144.57-56" class="colorStroke570b7f svgStroke"/><path fill="none" stroke="#454545" stroke-linecap="round" stroke-linejoin="round" d="M971.32,458.35s-57.74,62.58-106.74,172.54" class="colorStroke570b7f svgStroke"/><line x1="748.73" x2="725.69" y1="718.55" y2="751.87" fill="none" stroke="#454545" stroke-linecap="round" stroke-linejoin="round" class="colorStroke570b7f svgStroke"/><path fill="#080808" d="M1180.4,375.07s-12.84-.81-2.39-23.11c0,0-13.07-2.88-18.41-10.95s5.27-21.51,5.27-21.51-13.94-1.06-18.23,11.65-28.11,1.52-28.11,1.52L1111,350.25s-22.2-15.33-13.39-43.73,30.12-11.07,53.68-23.17,40.72-4.18,47,13.74c0,0,51.53,6,38.39,57.51s-74.17,70.3-74.17,70.3S1153.66,388.66,1180.4,375.07Z" class="color570b7f svgShape"/><ellipse cx="1185.82" cy="382.28" fill="#b4a6fe" class="colorff59cf svgShape" rx="21.03" ry="16.17" transform="rotate(-43.03 1185.869 382.283)"/><path fill="none" stroke="#454545" stroke-linecap="round" stroke-linejoin="round" d="M1193.22,380.92s4-6.5-.2-8.49-12.62,6.3-12.62,6.3,6.39,0,5.89,3.84-10.13,8.22-10.48,1.65" class="colorStroke570b7f svgStroke"/><path fill="none" stroke="#454545" stroke-linecap="round" stroke-linejoin="round" d="M830.71,972.17s-14.36,216.53,38.23,436.65" class="colorStroke570b7f svgStroke"/><polyline fill="none" stroke="#570b7f" stroke-linecap="round" stroke-linejoin="round" points="1098.49 1166.42 1096.05 1202.08 1124.03 1369.11"/><line x1="834.38" x2="725.55" y1="1182.41" y2="1196.94" fill="none" stroke="#454545" stroke-linecap="round" stroke-linejoin="round" class="colorStroke570b7f svgStroke"/><path fill="#080808" d="M1137.43,379.15c-5.56,5.92-13.3,6.87-17.52,3.59-3.14-2.44-3.58-6.62-3.66-7.92,2.28.69,4.7,1.34,7.24,1.94A116.54,116.54,0,0,0,1137.43,379.15Z" class="color570b7f svgShape"/><path fill="#2100cd" d="M999.68,1867.85s19.45,16.41,49.32,7.46,39-46.65,39-46.65H1051.5S1038,1857,999.68,1867.85Z" class="color8f00cd svgShape"/><path fill="#2100cd" d="M1246.86,1366.84s23.82-9,24.81-42.23-37.71-61.16-62.57-68.52l-8.33,43.67S1241.17,1320.25,1246.86,1366.84Z" class="color8f00cd svgShape"/><circle cx="1492.25" cy="881.96" r="21.61" fill="#080808" class="color570b7f svgShape"/><circle cx="1606.18" cy="881.96" r="21.61" fill="#080808" class="color570b7f svgShape"/><path fill="#080808" d="M1456.9,941.61a181.7,181.7,0,0,0,185.63,0c-9.87,51.75-57.13,86.11-104.37,80.46C1498.21,1017.29,1464.42,984.62,1456.9,941.61Z" class="color570b7f svgShape"/><path fill="#080808" d="M1649.09,775.82a188.31,188.31,0,0,0-136.63-33,186.73,186.73,0,0,0-34.82,8.52,177.39,177.39,0,0,0-32.41,15.22,171,171,0,0,0-52.14,48.35,166.42,166.42,0,0,0-27.37,65.45,185.6,185.6,0,0,0,1,71.08,201.48,201.48,0,0,0,26.42,66.08,183.59,183.59,0,0,0,48.43,52,198.09,198.09,0,0,0,64.23,30.54,185.6,185.6,0,0,0,35.18,6c3,.29,5.94.32,8.92.45,1.49.09,3,0,4.46,0l4.47,0c6-.25,11.9-.62,17.79-1.46A157,157,0,0,0,1643,1080.3a168.51,168.51,0,0,0,49.61-50.75,179.47,179.47,0,0,0,15.91-32,175.84,175.84,0,0,0,9.26-34.56c1-5.89,1.58-11.85,2-17.81.09-1.49.12-3,.18-4.48s.15-3,.11-4.48c0-3,0-6-.18-9a158.6,158.6,0,0,0-5.49-35.37,146,146,0,0,0-13.44-33.19,150.55,150.55,0,0,0-21.16-29c-1-1.15-2.07-2.17-3.12-3.24l-3.18-3.18c-2.17-2.08-4.43-4-6.65-6.07s-4.6-3.86-7-5.68-4.76-3.66-7.26-5.33a187.64,187.64,0,0,0-31.37-17.73,188.85,188.85,0,0,1,31.71,17.23c2.53,1.63,4.92,3.49,7.36,5.25s4.72,3.75,7.09,5.62,4.56,4,6.76,6l3.24,3.16c1.07,1.07,2.19,2.08,3.19,3.22a152.31,152.31,0,0,1,21.69,29,148.2,148.2,0,0,1,14,33.4,159.62,159.62,0,0,1,5.85,35.79c.24,3,.19,6.06.25,9.09.06,1.51-.06,3-.08,4.54s-.06,3-.15,4.54a183.61,183.61,0,0,1-11,53.22,181.73,181.73,0,0,1-15.94,32.66,176.24,176.24,0,0,1-22.32,28.73,161.95,161.95,0,0,1-95.75,48.73,178.31,178.31,0,0,1-18.17,1.54l-4.56,0c-1.52,0-3,.06-4.56,0-3-.12-6.09-.15-9.11-.44a189,189,0,0,1-35.91-6.06,204.5,204.5,0,0,1-34.18-12.52,202.2,202.2,0,0,1-31.39-18.48,187.31,187.31,0,0,1-49.32-53.16,205,205,0,0,1-26.75-67.38,189.24,189.24,0,0,1-.82-72.44,169.62,169.62,0,0,1,10.48-34.85,167.14,167.14,0,0,1,17.79-31.73,173.83,173.83,0,0,1,53.35-48.74,182.13,182.13,0,0,1,68.25-23.51,189.9,189.9,0,0,1,71.94,4.15,186,186,0,0,1,65,30.78Z" class="color570b7f svgShape"/><path fill="none" stroke="#454545" stroke-linecap="round" stroke-linejoin="round" stroke-width="3" d="M272.78,959.13s-62.29,411.09,199.42,638.14,333.42,6,241.4-26.29S624.06,1698.85,780,1771.75s322-253.35,617.19-138.62,423.28-396.25,270-573.71" class="colorStroke570b7f svgStroke"/></svg>