<svg xmlns="http://www.w3.org/2000/svg" xmlns:xlink="http://www.w3.org/1999/xlink" enable-background="new 0 0 1095.65 805.03" viewBox="0 0 1095.65 805.03"><g fill="#333b91" class="color000000 svgShape" display="none"><defs><rect id="a" width="6602.94" height="1370.62" x="-6133.17" y="-1068.06" fill="#333b91" class="color000000 svgShape"/></defs><use fill="#fff" overflow="visible" xlink:href="#a"/><clipPath id="b"><use overflow="visible" xlink:href="#a"/></clipPath><rect width="6602.94" height="1370.62" x="-6133.17" y="-1068.06" fill="#fff" class="colorffffff svgShape" clip-path="url(#b)"/><g class="color000000 svgShape"><rect width="302.93" height="234.11" x="12.53" y="-63.45" fill="#e4e8f7" class="colore4f1f7 svgShape"/></g></g><path fill="#fff" d="M118.81,484.3c-8.81,0-15.97-7.16-15.97-15.96V19.52c0-8.81,7.17-15.97,15.97-15.97h536.63
					c8.79,0,15.95,7.16,15.95,15.97v448.82c0,8.8-7.16,15.96-15.95,15.96H118.81z" class="colorffffff svgShape"/><path fill="#0f0f0f" d="M655.45,7.09c6.84,0,12.4,5.57,12.4,12.42v448.82c0,6.85-5.56,12.42-12.4,12.42H118.81
					c-6.85,0-12.43-5.57-12.43-12.42V19.52c0-6.85,5.57-12.42,12.43-12.42H655.45L655.45,7.09z M655.45,0H118.81
					c-10.77,0-19.52,8.74-19.52,19.52v448.82c0,10.77,8.75,19.51,19.52,19.51h536.63c10.76,0,19.5-8.74,19.5-19.51V19.52
					C674.94,8.74,666.21,0,655.45,0L655.45,0z" class="color080717 svgShape"/><path fill="#1c1c1c" d="M99.29,70.55V19.52C99.29,8.74,108.04,0,118.81,0h536.63c10.76,0,19.5,8.74,19.5,19.52v51.04H99.29z" class="color10101a svgShape"/><rect width="31.94" height="31.93" x="327.54" y="149.85" fill="#fff" class="colorffffff svgShape"/><path fill="#0f0f0f" d="M355.93,153.4v24.83h-24.85V153.4H355.93L355.93,153.4z M363.02,146.31h-39.04v39.02h39.04V146.31
						L363.02,146.31z" class="color080717 svgShape"/><rect width="31.94" height="31.93" x="405.59" y="149.85" fill="#fff" class="colorffffff svgShape"/><path fill="#0f0f0f" d="M433.98,153.4v24.83h-24.84V153.4H433.98L433.98,153.4z M441.07,146.31h-39.03v39.02h39.03V146.31
						L441.07,146.31z" class="color080717 svgShape"/><rect width="31.93" height="31.93" x="483.65" y="149.85" fill="#fff" class="colorffffff svgShape"/><path fill="#0f0f0f" d="M512.03,153.4v24.83h-24.84V153.4H512.03L512.03,153.4z M519.13,146.31H480.1v39.02h39.03V146.31
						L519.13,146.31z" class="color080717 svgShape"/><rect width="31.93" height="31.93" x="561.69" y="149.85" fill="#fff" class="colorffffff svgShape"/><path fill="#0f0f0f" d="M590.08,153.4v24.83h-24.84V153.4H590.08L590.08,153.4z M597.18,146.31h-39.03v39.02h39.03V146.31
						L597.18,146.31z" class="color080717 svgShape"/><rect width="31.93" height="31.94" x="171.43" y="227.91" fill="#fff" class="colorffffff svgShape"/><path fill="#0f0f0f" d="M199.81,231.46v24.85h-24.83v-24.85H199.81L199.81,231.46z M206.91,224.36h-39.02v39.03h39.02V224.36
						L206.91,224.36z" class="color080717 svgShape"/><rect width="31.94" height="31.94" x="249.47" y="227.91" fill="#fff" class="colorffffff svgShape"/><path fill="#0f0f0f" d="M277.87,231.46v24.85h-24.85v-24.85H277.87L277.87,231.46z M284.96,224.36h-39.03v39.03h39.03V224.36
						L284.96,224.36z" class="color080717 svgShape"/><rect width="39.04" height="39.03" x="323.99" y="224.36" fill="#8aa2ff" class="color52d2d8 svgShape"/><rect width="39.03" height="39.03" x="402.04" y="224.36" fill="#8aa2ff" class="color52d2d8 svgShape"/><rect width="31.93" height="31.94" x="483.65" y="227.91" fill="#fff" class="colorffffff svgShape"/><path fill="#0f0f0f" d="M512.03,231.46v24.85h-24.84v-24.85H512.03L512.03,231.46z M519.13,224.36H480.1v39.03h39.03V224.36
						L519.13,224.36z" class="color080717 svgShape"/><rect width="31.93" height="31.94" x="561.69" y="227.91" fill="#fff" class="colorffffff svgShape"/><path fill="#0f0f0f" d="M590.08,231.46v24.85h-24.84v-24.85H590.08L590.08,231.46z M597.18,224.36h-39.03v39.03h39.03V224.36
						L597.18,224.36z" class="color080717 svgShape"/><rect width="39.02" height="39.03" x="167.88" y="302.41" fill="#8aa2ff" class="color52d2d8 svgShape"/><rect width="39.03" height="39.03" x="245.93" y="302.41" fill="#8aa2ff" class="color52d2d8 svgShape"/><rect width="39.04" height="39.03" x="323.99" y="302.41" fill="#8aa2ff" class="color52d2d8 svgShape"/><g fill="#333b91" class="color000000 svgShape"><rect width="31.94" height="31.93" x="405.59" y="305.96" fill="#fff" class="colorffffff svgShape"/><path fill="#0f0f0f" d="M433.98,309.51v24.84h-24.84v-24.84H433.98L433.98,309.51z M441.07,302.41h-39.03v39.03h39.03V302.41
						L441.07,302.41z" class="color080717 svgShape"/></g><rect width="39.03" height="39.03" x="480.1" y="302.41" fill="#8aa2ff" class="color52d2d8 svgShape"/><g fill="#333b91" class="color000000 svgShape"><rect width="31.93" height="31.93" x="561.69" y="305.96" fill="#fff" class="colorffffff svgShape"/><path fill="#0f0f0f" d="M590.08,309.51v24.84h-24.84v-24.84H590.08L590.08,309.51z M597.18,302.41h-39.03v39.03h39.03V302.41
						L597.18,302.41z" class="color080717 svgShape"/></g><g fill="#333b91" class="color000000 svgShape"><rect width="31.93" height="31.94" x="171.43" y="384.01" fill="#fff" class="colorffffff svgShape"/><path fill="#0f0f0f" d="M199.81,387.56v24.85h-24.83v-24.85H199.81L199.81,387.56z M206.91,380.47h-39.02v39.04h39.02V380.47
						L206.91,380.47z" class="color080717 svgShape"/></g><g fill="#333b91" class="color000000 svgShape"><rect width="31.94" height="31.94" x="249.47" y="384.01" fill="#fff" class="colorffffff svgShape"/><path fill="#0f0f0f" d="M277.87,387.56v24.85h-24.85v-24.85H277.87L277.87,387.56z M284.96,380.47h-39.03v39.04h39.03V380.47
						L284.96,380.47z" class="color080717 svgShape"/></g><g fill="#333b91" class="color000000 svgShape"><rect width="31.94" height="31.94" x="327.54" y="384.01" fill="#fff" class="colorffffff svgShape"/><path fill="#0f0f0f" d="M355.93,387.56v24.85h-24.85v-24.85H355.93L355.93,387.56z M363.02,380.47h-39.04v39.04h39.04V380.47
						L363.02,380.47z" class="color080717 svgShape"/></g><g fill="#333b91" class="color000000 svgShape"><rect width="19.52" height="7.09" x="177.64" y="162.28" fill="#0f0f0f" class="color080717 svgShape"/></g><g fill="#333b91" class="color000000 svgShape"><rect width="19.52" height="7.09" x="255.69" y="162.28" fill="#0f0f0f" class="color080717 svgShape"/></g><g fill="#333b91" class="color000000 svgShape"><rect width="19.5" height="7.09" x="567.91" y="396.43" fill="#0f0f0f" class="color080717 svgShape"/></g><g fill="#333b91" class="color000000 svgShape"><rect width="19.53" height="7.09" x="489.85" y="396.43" fill="#0f0f0f" class="color080717 svgShape"/></g><g fill="#333b91" class="color000000 svgShape"><rect width="19.51" height="7.09" x="411.8" y="396.43" fill="#0f0f0f" class="color080717 svgShape"/></g><g fill="#333b91" class="color000000 svgShape"><rect width="175.63" height="7.09" x="313.95" y="35.48" fill="#fff" class="colorffffff svgShape"/></g><g fill="#333b91" class="color000000 svgShape"><rect width="19.5" height="7.09" x="138.33" y="35.48" fill="#fff" class="colorffffff svgShape"/></g><g fill="#333b91" class="color000000 svgShape"><rect width="19.52" height="7.09" x="616.41" y="35.48" fill="#fff" class="colorffffff svgShape"/></g><g fill="#333b91" class="color000000 svgShape"><path fill="#fff" d="M411.88,571.57L411.88,571.57L411.88,571.57c-14.76-50.72-71.97-88.04-71.97-88.04l-105.33,0.83l-82.5,0.03
				c0,0-8.21-49.68-14.81-66.45c-6.6-16.77-33.3-16.19-33.3-16.19l7.66,51.47c0,0-21.18-45.83-28.83-56.05
				c-7.64-10.22-32.55-9.08-32.55-9.08l12.58,32.37c0,0-15.29-20.44-28.45-25.49c-13.17-5.05-30.84,1.27-30.84,1.27l93.09,130.91
				l215.96,63.82l10.85,34.78l0,0l10.56,106.84h156.1C450.78,648,411.88,571.57,411.88,571.57z" class="colorffffff svgShape"/><path fill="#0f0f0f" d="M490.11,736.13h-156.1c-1.82,0-3.35-1.38-3.53-3.2l-10.53-106.47l-10.18-32.63L95.63,530.55
				c-0.76-0.23-1.43-0.7-1.89-1.35L0.66,398.29c-0.64-0.9-0.83-2.06-0.49-3.12c0.33-1.06,1.14-1.9,2.19-2.28
				c0.77-0.27,19.07-6.7,33.3-1.24c5.72,2.19,11.68,6.91,16.77,11.79l-5.47-14.07c-0.41-1.06-0.29-2.26,0.33-3.22
				c0.62-0.96,1.67-1.56,2.81-1.61c2.75-0.12,27.03-0.9,35.55,10.5c4.27,5.7,12.38,21.64,18.98,35.18l-4.16-27.95
				c-0.15-1.01,0.14-2.03,0.8-2.81c0.66-0.78,1.62-1.24,2.63-1.26c1.19,0.01,29.26-0.42,36.68,18.43
				c5.79,14.72,12.61,53.11,14.51,64.2l79.5-0.03l105.31-0.82c0.77-0.09,1.38,0.2,1.97,0.58c2.38,1.55,58.24,38.47,73.34,89.69
				c2.66,5.23,40.43,79.76,78.13,160.83c0.51,1.1,0.43,2.38-0.22,3.41C492.45,735.51,491.32,736.13,490.11,736.13z M337.22,729.03
				h147.32c-38.06-81.56-75.44-155.11-75.82-155.85c-0.1-0.2-0.18-0.4-0.24-0.62c-13.24-45.48-62.47-80.57-69.64-85.48l-104.23,0.82
				l-82.53,0.03c-1.74,0-3.22-1.25-3.5-2.97c-0.08-0.49-8.23-49.5-14.61-65.73c-4.21-10.69-18.7-13.19-25.86-13.77l7.03,47.23
				c0.26,1.75-0.8,3.42-2.49,3.92c-1.69,0.51-3.5-0.31-4.24-1.91c-0.21-0.46-21.11-45.61-28.45-55.42
				c-4.28-5.72-16.52-7.37-24.52-7.66l10.7,27.54c0.64,1.65-0.03,3.53-1.58,4.39c-1.55,0.86-3.5,0.45-4.56-0.97
				c-0.15-0.2-14.83-19.68-26.88-24.3c-7.94-3.04-18.01-1.41-23.77-0.02l89.47,125.83l214.78,63.47c1.14,0.34,2.03,1.22,2.38,2.35
				l10.85,34.78c0.07,0.23,0.12,0.47,0.14,0.71L337.22,729.03z" class="color080717 svgShape"/></g><g fill="#333b91" class="color000000 svgShape"><path d="M337.35,546.19c-1.53,0-2.94-0.99-3.4-2.53c-0.65-2.16-16.69-52.7-89.05-54.5c-75.07-1.87-93.67-2.05-93.85-2.05
					c-1.96-0.02-3.54-1.62-3.52-3.58c0.02-1.95,1.6-3.52,3.55-3.52c0.01,0,0.02,0,0.03,0c0.18,0,18.79,0.17,93.96,2.05
					c40.46,1.01,64.28,17.04,77.14,30.3c14.03,14.48,18.35,28.67,18.53,29.27c0.56,1.88-0.52,3.85-2.39,4.41
					C338.03,546.14,337.69,546.19,337.35,546.19z" class="color000000 svgShape"/><path d="M125,536.09c-1.75,0-3.28-1.3-3.51-3.09c-1.03-7.92-21.13-129.15-21.33-130.37c-0.32-1.93,0.99-3.76,2.92-4.08
					c1.93-0.35,3.76,0.98,4.08,2.92c0.83,5,20.33,122.58,21.37,130.62c0.25,1.94-1.12,3.72-3.06,3.97
					C125.31,536.08,125.16,536.09,125,536.09z" class="color000000 svgShape"/><path d="M107.32,533.73c-1.4,0-2.73-0.84-3.29-2.21L46.58,390.37c-0.74-1.82,0.13-3.88,1.95-4.62c1.82-0.76,3.88,0.13,4.62,1.95
					l57.45,141.15c0.74,1.82-0.13,3.88-1.95,4.62C108.21,533.64,107.76,533.73,107.32,533.73z" class="color000000 svgShape"/></g><path fill="#333b91" d="M334.01,732.58v72.46h691.84l-45.81-140.47C964.8,617.8,923.97,584,875.18,577.75L637.1,547.26
			c-42.35-5.42-84.2,13.21-108.5,48.32l-66.6,96.21L334.01,732.58z" class="color000000 svgShape"/><g fill="#333b91" class="color000000 svgShape"><path fill="#fff" d="M504.46,784.99c-1.33,0-2.6-0.75-3.21-2.03l-42.47-89.65c-0.84-1.77-0.08-3.88,1.69-4.72
				c1.77-0.84,3.89-0.09,4.73,1.69l42.47,89.65c0.84,1.77,0.08,3.88-1.69,4.72C505.49,784.88,504.97,784.99,504.46,784.99z" class="colorffffff svgShape"/></g><g fill="#333b91" class="color000000 svgShape"><circle cx="874.97" cy="423.67" r="144.06" class="color000000 svgShape" transform="rotate(-45.001 874.969 423.682)"/><circle cx="776.36" cy="343.1" r="95.33" class="color000000 svgShape" transform="rotate(-45.001 776.36 343.114)"/><circle cx="722.75" cy="297.92" r="57.04" class="color000000 svgShape" transform="rotate(-45.001 722.75 297.931)"/><ellipse cx="990.84" cy="366.54" class="color000000 svgShape" rx="97.16" ry="94.2" transform="rotate(-68.826 990.875 366.52)"/><path d="M1015.58,476.13c-1.69,0-3.18-1.21-3.49-2.92c-0.34-1.93,0.94-3.77,2.87-4.12c29.15-5.21,54.71-27.69,66.7-58.64
					c17.68-45.66,0.18-95.16-39.02-110.34c-1.83-0.71-2.73-2.76-2.03-4.59c0.71-1.83,2.77-2.73,4.59-2.03
					c42.85,16.6,62.17,70.21,43.07,119.52c-12.88,33.25-40.49,57.42-72.07,63.06C1016,476.11,1015.79,476.13,1015.58,476.13z" class="color000000 svgShape"/><circle cx="778.58" cy="297.19" r="129.5" class="color000000 svgShape" transform="rotate(-45.001 778.58 297.2)"/><circle cx="869.89" cy="288.03" r="129.5" class="color000000 svgShape" transform="rotate(-45.001 869.891 288.04)"/><path d="M882.68,419.95c-16.24,0-32.5-3.01-48.1-9.05c-33.14-12.83-59.3-37.81-73.66-70.32c-14.36-32.51-15.2-68.66-2.36-101.81
					l0,0c12.83-33.14,37.81-59.3,70.32-73.66c32.51-14.36,68.66-15.2,101.8-2.36c33.14,12.83,59.3,37.81,73.66,70.32
					c14.36,32.51,15.2,68.66,2.36,101.81c-12.83,33.14-37.81,59.3-70.32,73.66C919.18,416.14,900.95,419.95,882.68,419.95z
					 M765.19,241.34c-12.15,31.37-11.36,65.6,2.23,96.38c13.59,30.78,38.36,54.42,69.73,66.56c31.38,12.16,65.6,11.36,96.38-2.23
					c30.78-13.59,54.42-38.36,66.57-69.73c12.15-31.37,11.36-65.6-2.23-96.38c-13.59-30.78-38.36-54.42-69.73-66.56
					c-31.37-12.16-65.6-11.36-96.38,2.23C800.98,185.2,777.34,209.97,765.19,241.34L765.19,241.34z" class="color000000 svgShape"/><path d="M823.57,474.35c-0.43,0-0.86-0.08-1.28-0.24c-7.02-2.72-13.18-7.27-17.81-13.16c-2.18-2.76-4-5.8-5.42-9.02
					c-0.79-1.79,0.02-3.89,1.81-4.68c1.79-0.79,3.89,0.02,4.68,1.81c1.18,2.68,2.7,5.21,4.51,7.51c3.85,4.89,8.96,8.67,14.8,10.93
					c1.83,0.71,2.73,2.76,2.03,4.59C826.33,473.49,824.99,474.35,823.57,474.35z" class="color000000 svgShape"/><path fill="#fff" d="M821.4,467.73c21.92,8.49,46.22-1.77,53.4-22.88c6.63-19.5-4.57-41.84-24.97-49.86
					c-11.46-4.51-23.53-3.79-33.53,0.84c14.3-44.78,3.63-90.39-29.68-111.67c-41.85-26.74-103.57-4.94-137.84,48.7
					c-34.27,53.64-28.13,118.8,13.73,145.54c2.19,1.4,4.47,2.59,6.77,3.73l4.49,73.52l-29.65-3.8c-0.93,4.18-1.42,8.47-1.42,12.84
					c0,45.28,51.76,81.98,115.6,81.98c55.98,0,102.66-28.22,113.31-65.69l-51.37-6.58l-11.3-114.11
					C812.54,463.35,816.7,465.91,821.4,467.73z" class="colorffffff svgShape"/><path d="M758.29,650.22c-65.7,0-119.15-38.37-119.15-85.53c0-4.52,0.51-9.1,1.51-13.6c0.4-1.79,2.1-2.98,3.91-2.75l25.4,3.25
					l-4.1-67.21c-1.67-0.86-3.48-1.85-5.26-2.99c-43.44-27.76-50.08-95.25-14.81-150.45c17-26.6,41.11-46.47,67.89-55.93
					c27.08-9.58,53.67-7.39,74.86,6.15c32.21,20.58,45.1,63.74,33.14,108.93c9.57-2.65,19.98-2.14,29.46,1.59
					c22.13,8.7,34.26,33.06,27.03,54.31c-3.62,10.65-11.36,19.19-21.79,24.06c-11.18,5.22-24.39,5.57-36.24,0.99
					c-2.38-0.92-4.68-2.04-6.89-3.35l10.26,103.55l48.57,6.22c1.03,0.13,1.94,0.7,2.51,1.57c0.57,0.86,0.73,1.93,0.45,2.92
					C863.77,621.51,814.68,650.22,758.29,650.22z M646.96,555.79c-0.48,2.96-0.73,5.94-0.73,8.89c0,43.25,50.27,78.44,112.06,78.44
					c51.35,0,96.13-24.65,108.62-59.17l-47.14-6.03c-1.64-0.21-2.92-1.52-3.08-3.17l-11.3-114.11c-0.14-1.44,0.6-2.82,1.88-3.49
					c1.27-0.67,2.84-0.51,3.94,0.43c3.48,2.93,7.33,5.23,11.46,6.83c0,0,0,0,0,0c10.06,3.9,21.24,3.61,30.68-0.8
					c8.67-4.05,15.09-11.12,18.08-19.92c6.02-17.71-4.25-38.09-22.91-45.42c-10-3.94-21.2-3.65-30.74,0.76
					c-1.27,0.6-2.78,0.37-3.84-0.56c-1.05-0.93-1.46-2.4-1.03-3.74c14.21-44.5,2.87-87.75-28.21-107.61
					c-19.3-12.34-43.69-14.26-68.67-5.44c-25.29,8.94-48.12,27.78-64.27,53.06c-33.16,51.9-27.49,115,12.65,140.65
					c2.17,1.39,4.47,2.57,6.43,3.54c1.14,0.56,1.89,1.69,1.96,2.96l4.49,73.52c0.06,1.05-0.34,2.08-1.12,2.81
					c-0.77,0.72-1.81,1.04-2.87,0.93L646.96,555.79z" class="color000000 svgShape"/><path d="M817.5,401.81c-0.91-0.08-1.81-0.13-2.72-0.24c-50.56-6.11-85.41-63.31-77.83-127.75c0.09-0.73,0.2-1.44,0.3-2.17
				c18.2-2,36.02,1.45,51.28,11.17C823.98,305.41,834.54,354.61,817.5,401.81z" class="color000000 svgShape"/><path d="M703.23,491.88c-11.52,0-23.1-1.78-34.34-5.4c-1.86-0.6-2.89-2.6-2.29-4.47c0.6-1.86,2.6-2.88,4.46-2.29
					c29.36,9.46,61.25,5.54,87.48-10.76c1.66-1.03,3.85-0.53,4.89,1.14c1.03,1.66,0.52,3.85-1.14,4.88
					C744.33,486.16,723.87,491.88,703.23,491.88z" class="color000000 svgShape"/><path d="M677.01,325.15c0.49,3.17-6.23,6.85-15,8.21c-8.78,1.36-16.3-0.1-16.79-3.27c-0.49-3.17,6.23-6.85,15-8.21
				C669,320.51,676.51,321.98,677.01,325.15z" class="color000000 svgShape"/><ellipse cx="728.9" cy="354.49" class="color000000 svgShape" rx="7.21" ry="19.95" transform="rotate(-56.763 728.862 354.5)"/><path d="M672.29,384.06c-1.3,0-2.55-0.72-3.17-1.95c-2.62-5.22-2.28-11.51,0.88-16.41l14.13-21.89
					c1.06-1.65,3.26-2.12,4.91-1.06c1.65,1.06,2.12,3.26,1.06,4.9l-14.13,21.89c-1.84,2.84-2.02,6.35-0.5,9.38
					c0.88,1.75,0.17,3.88-1.58,4.76C673.37,383.94,672.82,384.06,672.29,384.06z" class="color000000 svgShape"/><path d="M687.02,440.79c-0.76,0-1.52-0.05-2.3-0.16c-8.57-1.2-15.49-8.94-20.59-23.01l0,0c-0.56-1.55-0.24-3.17,0.86-4.34
					c1.49-1.58,4.25-4.51,43.61,7.25c1.1,0.33,1.97,1.17,2.34,2.26c0.37,1.09,0.19,2.29-0.48,3.22
					C710,426.65,699.63,440.79,687.02,440.79z M672.27,418.93c2.94,6.86,7.37,13.82,13.43,14.67c5.65,0.8,11.71-3.81,15.62-7.8
					C689.99,422.58,678.09,419.67,672.27,418.93z M670.8,415.21L670.8,415.21C670.8,415.21,670.8,415.21,670.8,415.21
					C670.8,415.21,670.8,415.21,670.8,415.21z" class="color000000 svgShape"/><path d="M819.22,440.56c-0.32,0-0.65-0.05-0.98-0.14c-1.88-0.54-2.97-2.5-2.43-4.39c3.16-11.03,8.75-18.74,16.63-22.92
					c11.34-6,23.1-2.26,23.6-2.1c1.86,0.61,2.88,2.62,2.27,4.48c-0.61,1.86-2.6,2.88-4.46,2.27l0,0c-0.1-0.03-9.51-2.95-18.14,1.66
					c-6.07,3.25-10.46,9.5-13.06,18.57C822.18,439.55,820.76,440.56,819.22,440.56z" class="color000000 svgShape"/><path d="M667.92,357.48c-2.74,6.07-8.6,9.35-13.09,7.32c-4.49-2.03-5.91-8.59-3.17-14.66c2.74-6.07,8.6-9.35,13.09-7.32
				C669.24,344.84,670.66,351.41,667.92,357.48z" class="color000000 svgShape"/><path d="M719.14,380.76c-2.74,6.07-8.6,9.35-13.09,7.32c-4.49-2.03-5.91-8.59-3.17-14.66c2.74-6.07,8.6-9.35,13.09-7.32
				C720.46,368.12,721.88,374.68,719.14,380.76z" class="color000000 svgShape"/></g></svg>