<svg xmlns="http://www.w3.org/2000/svg" xmlns:xlink="http://www.w3.org/1999/xlink" enable-background="new 0 0 901.86 828.1" viewBox="0 0 901.86 828.1"><g fill="#333b91" class="color000000 svgShape" display="block"><defs><rect id="a" width="6602.94" height="1370.62" x="-6222.32" y="-29.04" fill="#333b91" class="color000000 svgShape"/></defs><use fill="#fff" overflow="visible" xlink:href="#a"/><clipPath id="b"><use overflow="visible" xlink:href="#a"/></clipPath><rect width="6602.94" height="1370.62" x="-6222.32" y="-29.04" fill="#fff" class="colorffffff svgShape" clip-path="url(#b)"/><g class="color000000 svgShape"><rect width="302.93" height="234.11" x="-76.61" y="113.62" fill="#e4e8f7" class="colore4f1f7 svgShape"/><rect width="302.93" height="234.11" x="-76.61" y="400.94" fill="#e4e8f7" class="colore4f1f7 svgShape"/><rect width="302.93" height="234.11" x="-76.61" y="688.25" fill="#e4e8f7" class="colore4f1f7 svgShape"/></g></g><path fill="#333b91" d="M356.49,534.73l23.69,171.11c6.36,45.93,40.65,80.34,81.87,82.16l209.14,9.21c45.47,2,84.57-36.1,89.39-87.11
			l22.49-238.13c6.17-65.33-45.66-118.58-102.82-105.63l-255.31,57.81C379.54,434.43,349.35,483.2,356.49,534.73z" class="color000000 svgShape"/><path fill="#333b91" d="M278.01,162.24L47.48,274.85C20.72,287.92,2.81,314.1,0.3,343.77l0,0c-3.87,45.93,29.73,86.51,75.58,91.27l205.28,21.31
			L278.01,162.24z" class="color000000 svgShape"/><path fill="#333b91" d="M697.46,268.96l69.9,54.37c64.02,49.79,105.7,122.92,115.93,203.38l17.39,136.82c11.1,87.33-56.96,164.57-144.98,164.57
			h-15.32c-93.47,0-162.92-86.54-142.68-177.79l3.82-17.24L697.46,268.96z" class="color000000 svgShape"/><path fill="#333b91" d="M647.1,54.28c-18.81,39.61-1.95,86.97,37.66,105.78s86.97,1.95,105.78-37.66s1.95-86.97-37.66-105.78
				C713.27-2.19,665.91,14.67,647.1,54.28z" class="color000000 svgShape"/><circle cx="778.49" cy="143.57" r="68.62" fill="#333b91" class="color000000 svgShape" transform="rotate(-11.976 778.541 143.581)"/><path fill="#fff" d="M743.71,142.08c9.36-8.41,23.23-10.84,35.29-5.03c15.21,7.32,22.18,25.87,15.55,41.39
					c-7.19,16.8-26.82,24.12-43.17,16.36c-3.5-1.66-6.53-3.91-9.1-6.52l-45.24,154.35l-41.34-12.12
					c-31.32-9.18-49.27-42.01-40.09-73.33l41.2-140.56L743.71,142.08z" class="colorffffff svgShape"/><path fill="#333b91" d="M697.04,346.17c-0.33,0-0.67-0.05-1-0.14l-41.34-12.11c-33.15-9.72-52.21-44.58-42.49-77.73l41.2-140.56
					c0.55-1.88,2.53-2.95,4.4-2.41l85.06,24.93c10.66-8.56,25.23-10.27,37.67-4.29c16.89,8.13,24.63,28.76,17.27,45.98
					c-3.85,8.99-10.99,15.85-20.12,19.3c-9.14,3.46-19.02,3.05-27.83-1.14c-2.01-0.95-3.92-2.1-5.73-3.43l-43.69,149.05
					C699.99,345.17,698.58,346.17,697.04,346.17z M659.22,121.02l-40.2,137.16c-8.61,29.39,8.29,60.31,37.68,68.92l37.93,11.12
					l44.24-150.94c0.35-1.21,1.32-2.14,2.54-2.44c1.22-0.31,2.51,0.06,3.39,0.96c2.39,2.43,5.11,4.39,8.09,5.8
					c7.06,3.35,14.97,3.68,22.28,0.91c7.3-2.76,13.03-8.25,16.1-15.46c5.89-13.78-0.31-30.28-13.83-36.79
					c-10.44-5.03-22.76-3.27-31.38,4.47c-0.91,0.82-2.19,1.1-3.37,0.77L659.22,121.02z" class="color000000 svgShape"/><path fill="#333b91" d="M748.65,172.52c-0.41,0-0.82-0.07-1.22-0.22c-1.84-0.68-2.78-2.72-2.1-4.56c3.36-9.12,8.59-15.3,15.54-18.35
					c10.01-4.4,19.78-0.47,20.19-0.3c1.81,0.75,2.67,2.82,1.93,4.63c-0.74,1.8-2.81,2.66-4.62,1.94l0,0
					c-0.07-0.03-7.51-2.95-14.72,0.26c-5.08,2.26-9.01,7.06-11.66,14.28C751.45,171.63,750.09,172.52,748.65,172.52z" class="color000000 svgShape"/><circle cx="677.07" cy="47.52" r="47.51" fill="#333b91" class="color000000 svgShape" transform="rotate(-17.926 677.076 47.511)"/><path fill="#333b91" d="M751.5,198.24c-0.51,0-1.03-0.11-1.52-0.34c-5.76-2.73-10.68-6.96-14.22-12.23c-1.67-2.48-3.02-5.15-4.02-7.97
					c-0.66-1.84,0.31-3.87,2.15-4.53c1.84-0.65,3.87,0.3,4.53,2.15c0.8,2.25,1.89,4.4,3.22,6.38c2.84,4.21,6.77,7.59,11.38,9.78
					c1.77,0.84,2.52,2.95,1.68,4.73C754.1,197.49,752.83,198.24,751.5,198.24z" class="color000000 svgShape"/><path fill="#fff" d="M751.1,128.29c11.54-34.4,4.71-69.7-20.13-88.29c-33.12-24.78-85.72-10.46-117.48,31.98
					c-31.76,42.45-30.66,96.95,2.46,121.73c24.84,18.59,60.64,15.18,90.38-5.59L751.1,128.29z" class="colorffffff svgShape"/><path fill="#333b91" d="M654.04,209.44c-14.77,0-28.7-4.26-40.22-12.89c-16.91-12.65-26.5-32.9-26.98-57.01c-0.48-23.78,7.97-48.53,23.81-69.69
					c32.88-43.95,87.81-58.61,122.45-32.7c25.4,19.01,33.79,55.22,21.37,92.26c-0.62,1.86-2.63,2.85-4.49,2.23
					c-1.86-0.62-2.86-2.63-2.24-4.49c11.43-34.08,4.01-67.17-18.9-84.32c-31.5-23.58-81.98-9.55-112.51,31.26
					c-14.89,19.9-22.84,43.09-22.39,65.29c0.44,21.88,9.02,40.16,24.14,51.47c22.91,17.14,56.76,14.92,86.23-5.66
					c1.61-1.12,3.82-0.72,4.94,0.88c1.12,1.6,0.73,3.82-0.88,4.94C690.86,203.25,671.84,209.44,654.04,209.44z" class="color000000 svgShape"/><path fill="#333b91" d="M746.05,146.66c-0.76-0.1-1.51-0.18-2.27-0.31c-42.03-7.32-66.13-59.78-53.81-117.17c0.14-0.65,0.3-1.28,0.45-1.93
				c15.51-1.13,30.21,2.61,42.17,11.87C760.37,60.62,764.74,105.04,746.05,146.66z" class="color000000 svgShape"/><path fill="#333b91" d="M637.4,67.32c0.21,2.66-5.59,5.3-12.97,5.9c-7.38,0.59-13.53-1.09-13.74-3.75c-0.21-2.66,5.59-5.3,12.97-5.9
				C631.03,62.98,637.19,64.66,637.4,67.32z" class="color000000 svgShape"/><path fill="#333b91" d="M691.89,104.99c-2.02,2.63-9.56,0.24-16.84-5.35c-7.28-5.58-11.55-12.24-9.54-14.87c2.02-2.63,9.56-0.24,16.84,5.35
				C689.64,95.7,693.91,102.36,691.89,104.99z" class="color000000 svgShape"/><path fill="#333b91" d="M630.08,116.56c-1.39,0-2.72-0.82-3.28-2.19c-1.94-4.69-1.24-10.12,1.81-14.16l13.08-17.31
					c1.18-1.57,3.4-1.88,4.97-0.69c1.56,1.18,1.87,3.41,0.69,4.97l-13.08,17.31c-1.57,2.08-1.91,4.76-0.92,7.18
					c0.75,1.81-0.11,3.88-1.92,4.63C630.99,116.47,630.53,116.56,630.08,116.56z" class="color000000 svgShape"/><path fill="#333b91" d="M670.21,118.13c-1.74,0-3.25-1.28-3.51-3.05c-1.25-8.79-6.32-8.39-6.54-8.39c-2,0.26-3.68-1.24-3.87-3.2
					c-0.18-1.95,1.25-3.68,3.2-3.86c4.15-0.44,12.48,2.12,14.24,14.45c0.28,1.94-1.07,3.74-3.01,4.01
					C670.55,118.12,670.38,118.13,670.21,118.13z" class="color000000 svgShape"/><g fill="#333b91" class="color000000 svgShape"><path d="M628.79,90c-0.92,0-1.84-0.36-2.54-1.07c-6.2-6.35-10.07-3.05-10.24-2.91c-1.47,1.3-3.71,1.17-5.01-0.3
					c-1.3-1.47-1.17-3.71,0.3-5.01c3.12-2.77,11.32-5.66,20.02,3.26c1.37,1.4,1.34,3.65-0.06,5.02C630.58,89.66,629.69,90,628.79,90
					z" class="color000000 svgShape"/></g><g fill="#333b91" class="color000000 svgShape"><path d="M636.37,136.83c-3.98,0-8.9-1.89-13.24-8.24c-1.1-1.62-0.69-3.82,0.93-4.93c1.62-1.1,3.82-0.69,4.93,0.93
					c5,7.33,9.39,4.75,9.57,4.64c1.67-1.03,3.85-0.51,4.88,1.16c1.03,1.67,0.51,3.85-1.16,4.88
					C640.92,136.1,638.83,136.83,636.37,136.83z" class="color000000 svgShape"/></g><path fill="#8aa2ff" d="M696.28,367.45c0-125.34-143.13-226.94-319.68-226.94c-176.55,0-319.68,101.61-319.68,226.94
			S200.04,594.39,376.6,594.39c12.37,0,24.57-0.52,36.57-1.49v57.5c0,17.18,22.08,24.21,32.01,10.19l60.57-85.5
			C617.96,539.87,696.28,460.16,696.28,367.45z" class="color52d2d8 svgShape"/><g fill="#333b91" class="color000000 svgShape"><path fill="#1c1c1c" d="M450.74,393.32c-3.5,0-7.2-0.16-11.09-0.5c-15.25-1.34-25.64-8.57-30.22-20.73
				c-2.65,1.96-5.48,3.92-8.49,5.86c-22.04,14.24-37.23,9.84-46.08,3.64c-6.92-4.84-12.02-12.19-15.5-20
				c-5.49,4.67-11.13,8.77-16.66,11.94c-18.64,10.69-34.75,11.14-46.6,1.28c-5.41-4.5-9.08-10.24-10.92-16.81
				c-13.48,1.63-24.83,0.9-25.77,0.83c-1.95-0.14-3.43-1.83-3.29-3.79c0.14-1.95,1.83-3.35,3.78-3.29
				c0.22,0.02,11.15,0.72,24.02-0.77c-0.66-7.8,0.9-16.44,4.78-25.36c6.18-14.24,18.92-28.61,30.32-27.18
				c4.72,0.6,10.8,4.04,12.89,17.1c1.68,10.47-0.7,19.33-7.1,26.32c-7.78,8.51-20.42,12.88-32.53,15.07
				c1.38,4.45,3.96,8.76,8.37,12.42c11.83,9.84,27.49,4.35,38.54-1.98c6.05-3.47,11.98-7.86,17.55-12.72
				c-3.09-9.6-3.85-18.96-2.62-24.38c3.11-13.67,23.65-39.8,36.21-39.8c0.09,0,0.17,0,0.26,0c2.24,0.07,7.59,1.13,8.99,9.55
				c2.06,12.36-14.5,37.69-34.7,56.64c3.01,7.44,7.64,14.62,14.07,19.11c10.29,7.2,23.13,5.93,38.16-3.79
				c3.76-2.43,7.21-4.88,10.37-7.34c-0.3-1.76-0.5-3.59-0.6-5.5c-1.16-21.34,11.33-48.43,23.46-50.84
				c5.75-1.16,10.65,1.4,12.77,6.64c3.83,9.44-1.23,30.64-27.7,52.48c2.64,8.78,9.36,16.95,24.88,18.31
				c46.7,4.12,60.96-19.65,61.54-20.66c0.97-1.69,3.13-2.29,4.83-1.32c1.7,0.97,2.3,3.11,1.34,4.81
				C507.37,369.67,493.54,393.32,450.74,393.32z M433.01,315.15c-0.39,0-0.83,0.05-1.31,0.14c-7.14,1.42-18.83,23.89-17.76,43.49
				c0.01,0.16,0.02,0.32,0.03,0.47c20.26-18.07,25.17-35.14,22.55-41.62C436.06,316.52,435.22,315.15,433.01,315.15z M297.4,305.47
				c-6.04,0-16.1,8.91-22.22,23c-1.57,3.62-4.78,12.29-4.18,21.5c10.88-1.95,22.01-5.71,28.56-12.88c4.92-5.39,6.66-12.06,5.32-20.4
				c-0.63-3.94-2.35-10.62-6.77-11.18C297.87,305.48,297.64,305.47,297.4,305.47z M370.23,297.59c-7.67,0-26.42,21.95-29.23,34.28
				c-0.89,3.91-0.46,10.47,1.42,17.53c18.36-17.88,31.53-39.81,30.13-48.18c-0.6-3.57-1.77-3.61-2.21-3.62
				C370.31,297.59,370.27,297.59,370.23,297.59z" class="color080717 svgShape"/></g><g fill="#333b91" class="color000000 svgShape"><path fill="#fff" d="M712.27,461.73c3.29-31.2,1.98-63.1,1.04-77.89c0.45-2.77,0.33-5.66-0.63-8.51
					c-27.76-82.03-74.31-109.94-76.28-111.09c-8.4-4.9-19.12-2.07-24.1,6.29c-0.13,0.22-0.19,0.45-0.31,0.67
					c-2.89-2.12-4.72-3.21-5.07-3.42c-8.41-4.89-19.12-2.07-24.1,6.29c-2.87,4.82-3.1,10.44-1.25,15.32
					c-8.09-3.6-17.7-0.7-22.35,7.09c-4.98,8.36-2.22,19.22,6.09,24.27c0.07,0.04,1.5,0.94,3.92,2.83
					c-3.67,0.52-7.21,2.12-10.05,4.93c-6.91,6.85-6.95,18.05-0.16,25.03c0.3,0.31,30.49,32.09,35.84,104.14
					c0,0-3.71,49.61,24.21,72.77l-17.55,102.61l0,0c53.3,13.09,108.91-10.08,137.15-57.14l13.84-23.07L712.27,461.73z" class="colorffffff svgShape"/><path fill="#1c1c1c" d="M631.74,640.29c-10.29,0-20.7-1.23-31.07-3.78c-1.81-0.44-2.96-2.21-2.65-4.04l17.21-100.63
					c-26.55-23.83-24.22-69.73-23.93-74.14c-5.26-69.98-34.54-101.37-34.84-101.68c-8.13-8.35-8.04-21.82,0.22-30
					c1.44-1.42,3.05-2.62,4.81-3.57c-8.41-6.5-10.86-18.46-5.32-27.76c4.38-7.34,12.61-11.13,20.71-10.2
					c-0.31-4.25,0.67-8.5,2.89-12.21c5.95-9.98,18.93-13.36,28.94-7.54c0.22,0.13,1.03,0.61,2.32,1.47
					c6.5-7.99,18.08-10.32,27.17-5.01c2.02,1.18,49.7,29.82,77.86,113.02c1.05,3.1,1.33,6.4,0.83,9.8c1,15.91,2.15,46.6-0.98,77.16
					l39.85,90.26c0.47,1.06,0.39,2.27-0.2,3.26l-13.84,23.07C717.98,617.29,676.15,640.29,631.74,640.29z M605.57,630.37
					c51.08,11.1,103.01-11.2,130.05-56.27l12.9-21.5l-39.49-89.44c-0.25-0.57-0.35-1.19-0.28-1.8c3.22-30.6,2.03-61.56,1.03-77.3
					c-0.02-0.27,0-0.53,0.04-0.8c0.39-2.39,0.23-4.68-0.49-6.8c-27.32-80.71-72.79-108.04-74.71-109.16
					c-6.66-3.88-15.3-1.62-19.27,5.04c-0.04,0.1-0.18,0.43-0.23,0.52c-0.48,0.91-1.34,1.57-2.34,1.79c-1,0.23-2.05,0.02-2.89-0.6
					c-2.83-2.08-4.58-3.11-4.77-3.22c-6.65-3.88-15.3-1.61-19.26,5.04c-2.18,3.67-2.54,8.13-0.98,12.25
					c0.51,1.34,0.16,2.85-0.88,3.84c-1.04,0.99-2.58,1.24-3.88,0.67c-6.53-2.91-14.2-0.47-17.86,5.66
					c-3.97,6.66-1.78,15.37,4.89,19.43l0,0c0,0,1.51,0.91,4.26,3.06c1.12,0.88,1.61,2.34,1.24,3.71c-0.37,1.37-1.52,2.39-2.93,2.59
					c-3.11,0.44-5.89,1.8-8.05,3.94c-5.5,5.46-5.55,14.45-0.11,20.03c0.32,0.32,31.39,33.07,36.83,106.35
					c0.01,0.18,0.01,0.35,0,0.53c-0.03,0.48-3.23,48.08,22.93,69.78c0.98,0.81,1.45,2.08,1.23,3.33L605.57,630.37z" class="color080717 svgShape"/><path fill="#fff" d="M677.01,363.33c0,0-28.6-63.91-65.02-92.12L677.01,363.33z" class="colorffffff svgShape"/><path fill="#1c1c1c" d="M677.01,366.87c-1.35,0-2.65-0.78-3.24-2.1c-0.28-0.63-28.67-63.43-63.96-90.76
					c-1.55-1.2-1.83-3.43-0.63-4.98c1.2-1.56,3.43-1.83,4.98-0.63c36.7,28.42,64.91,90.83,66.09,93.47c0.8,1.79,0,3.89-1.79,4.69
					C677.99,366.77,677.5,366.87,677.01,366.87z" class="color080717 svgShape"/><g class="color000000 svgShape"><path fill="#fff" d="M647.52,382.2c0,0-28.6-63.91-65.02-92.12L647.52,382.2z" class="colorffffff svgShape"/><path fill="#1c1c1c" d="M647.52,385.75c-1.35,0-2.65-0.78-3.24-2.1c-0.28-0.63-28.67-63.43-63.96-90.76
					c-1.55-1.2-1.83-3.43-0.63-4.98c1.2-1.55,3.42-1.83,4.98-0.63c36.7,28.42,64.91,90.83,66.09,93.47c0.8,1.79,0,3.89-1.79,4.69
					C648.5,385.65,648,385.75,647.52,385.75z" class="color080717 svgShape"/></g><g class="color000000 svgShape"><path fill="#fff" d="M622.65,400.5c-10.27-21.82-28.37-55.24-50.45-74.44L622.65,400.5z" class="colorffffff svgShape"/><path fill="#1c1c1c" d="M622.65,404.04c-1.33,0-2.61-0.75-3.21-2.04c-10.96-23.29-28.45-54.91-49.57-73.28
					c-1.48-1.29-1.63-3.53-0.35-5.01c1.29-1.48,3.52-1.63,5-0.35c22.04,19.18,40.08,51.71,51.33,75.61c0.84,1.77,0.07,3.89-1.7,4.72
					C623.67,403.94,623.16,404.04,622.65,404.04z" class="color080717 svgShape"/></g></g><g fill="#333b91" class="color000000 svgShape"><path fill="#fff" d="M97.92,249.99c0,0,3.46-69.08,65.81-102.98c49.96-27.16,79.29-4.72,73.48,13.15
				c-2.33,7.15-22.97,13.18-22.97,13.18s0.29,11.22-3.17,14.22c-3.46,3.01-1.69,13.61-2.91,20.74c-1.3,7.53-12.37,11.4-19.02,8.41
				c-6.65-3-28.4-7.07-28.4-7.07s6.26,11.71,7.2,20.74c0.65,6.19-11.18,15.1-21.71,10.74C135.7,236.77,118.39,226.16,97.92,249.99z" class="colorffffff svgShape"/><path fill="#1c1c1c" d="M202.73,195.32c-1.4,0-2.72-0.83-3.29-2.21c-0.74-1.81,0.13-3.88,1.94-4.62c2.08-0.86,7.78-4.04,9-8.24
					c0.61-2.1,0.04-4.35-1.74-6.87c-9.65-13.68-42.69-16.51-54.74-16.29c-0.01,0-0.02,0-0.03,0c-1.94,0-3.53-1.57-3.55-3.51
					c-0.02-1.96,1.55-3.56,3.51-3.58c1.93-0.02,46.84-0.22,60.61,19.29c3.82,5.41,3.6,10.04,2.74,12.96
					c-2.4,8.22-12.03,12.36-13.13,12.81C203.63,195.23,203.18,195.32,202.73,195.32z" class="color080717 svgShape"/><path fill="#1c1c1c" d="M192.94,219.28c-4.3,0-8.68-1.12-12.29-2.04c-1.03-0.26-1.99-0.51-2.86-0.7
					c-11.06-2.46-22.45-2.65-22.56-2.65c-1.96-0.03-3.52-1.64-3.5-3.6c0.03-1.94,1.61-3.5,3.55-3.5c0.02,0,0.03,0,0.05,0
					c0.49,0.01,12.21,0.19,24.01,2.82c0.94,0.21,1.97,0.47,3.07,0.75c5.1,1.3,12.09,3.08,15.98,0.46c2.01-1.35,3.29-4,3.83-7.87
					c0.3-2.18-0.64-4.36-2.89-6.68c-10.23-10.55-44.36-18.74-67.64-16.25c-1.93,0.21-3.7-1.2-3.9-3.15c-0.21-1.95,1.2-3.7,3.15-3.9
					c23.32-2.5,60.5,4.98,73.49,18.37c4.75,4.9,5.25,9.55,4.83,12.59c-0.82,5.96-3.15,10.26-6.9,12.78
					C199.51,218.62,196.25,219.28,192.94,219.28z" class="color080717 svgShape"/><path fill="#1c1c1c" d="M97.63,257.61c-0.5,0-0.99-0.1-1.46-0.32c-1.26-0.57-2.08-1.82-2.09-3.2c-0.01-0.94,0.35-94.6,96.14-120.12
					c21.09-5.63,35.69-4.49,43.37,3.38c8.64,8.85,4.83,22.34,4.66,22.92c-0.13,0.46-0.36,0.88-0.66,1.25
					c-0.43,0.53-10.84,13.07-25.99,13.35c-1.86-0.05-3.57-1.52-3.61-3.48c-0.04-1.96,1.52-3.57,3.48-3.61
					c10.22-0.19,18.13-8.01,20.14-10.2c0.51-2.38,1.75-10.35-3.12-15.3c-5.69-5.79-18.3-6.29-36.45-1.46
					c-74.07,19.74-87.77,82.36-90.3,104.97l18.7-16.23c0.89-0.78,2.11-1.06,3.26-0.74l25.04,6.83c0.25,0.08,6.39,2.05,10.56-0.53
					c2.2-1.36,3.53-3.81,4.08-7.5c0.4-2.68-0.26-5.06-2.02-7.29c-6.79-8.6-27.46-12.16-34.85-12.81c-1.95-0.17-3.39-1.89-3.22-3.84
					c0.17-1.95,1.88-3.41,3.84-3.23c1.21,0.1,29.74,2.74,39.8,15.48c2.99,3.79,4.16,8.06,3.47,12.72
					c-0.86,5.82-3.35,10.04-7.41,12.52c-7.02,4.3-15.93,1.38-16.31,1.25l-23.01-6.27l-23.71,20.57
					C99.3,257.31,98.47,257.61,97.63,257.61z" class="color080717 svgShape"/></g><g fill="#333b91" class="color000000 svgShape"><path fill="#fff" d="M815.42,723.12c-1.43,0-2.78-0.87-3.32-2.29l-62.91-166.72c-0.69-1.84,0.23-3.88,2.07-4.57
				c1.83-0.69,3.88,0.23,4.57,2.06l62.91,166.72c0.69,1.84-0.23,3.88-2.07,4.57C816.26,723.05,815.84,723.12,815.42,723.12z" class="colorffffff svgShape"/></g><g fill="#333b91" class="color000000 svgShape"><path fill="#fff" d="M698.24,821.03c-0.3,0-0.61-0.04-0.91-0.12c-125.96-33.48-99.59-186.93-99.31-188.48
				c0.35-1.93,2.2-3.23,4.12-2.85c1.93,0.35,3.21,2.19,2.86,4.12c-0.27,1.48-25.46,148.56,94.15,180.35
				c1.89,0.51,3.02,2.45,2.52,4.34C701.25,819.98,699.81,821.03,698.24,821.03z" class="colorffffff svgShape"/></g></svg>