<svg xmlns="http://www.w3.org/2000/svg" enable-background="new 0 0 942.09 827.92" viewBox="0 0 942.09 827.92"><path fill="#fff" d="M134.18,824.37L33.52,631.1l328.72-141.56l45.61,1.57c97.87-10.04,167.68,37.57,211.99,125.41l83.7,204.88
				L134.18,824.37z" class="colorffffff svgShape"/><path fill="#333b91" d="M134.18,827.92c-1.28,0-2.52-0.69-3.15-1.91L30.37,632.74c-0.46-0.87-0.53-1.9-0.2-2.83
				c0.33-0.93,1.03-1.68,1.94-2.07l328.72-141.56c0.48-0.21,1.01-0.31,1.53-0.28l45.37,1.56c95.31-9.68,167.75,33.16,215.28,127.37
				l83.82,205.14c0.74,1.81-0.13,3.88-1.94,4.62c-1.82,0.74-3.89-0.13-4.63-1.94l-83.7-204.89
				c-45.99-91.14-116.12-132.72-208.34-123.22c-0.16,0.01-0.32,0.03-0.48,0.01l-44.82-1.54L38.43,632.85l98.9,189.88
				c0.91,1.74,0.23,3.88-1.51,4.78C135.29,827.79,134.73,827.92,134.18,827.92z" class="color080717 svgShape"/><path fill="#fff" d="M650.57,577.77c-158.33,0-287.13-128.83-287.13-287.18c0-95.68,40.93-175.99,118.37-232.26
					C520.03,30.6,559.84,13.83,603.5,7.07c0.15-0.02,0.29-0.06,0.43-0.1l2.09-0.28c3.25-0.47,6.5-0.91,9.79-1.28
					c3.89-0.43,7.61-0.77,11.36-1.04c0.03,0,0.71-0.04,0.74-0.04c3.57-0.25,7.17-0.45,10.8-0.58c3.9-0.14,7.83-0.21,11.8-0.21
					c25.36,0.01,47.79,2.81,70.79,8.8c0.69,0.17,2.91,0.77,2.91,0.77c2.4,0.65,4.84,1.34,7.29,2.06c2.46,0.72,4.91,1.45,7.33,2.24
					c0.03,0.01,1.46,0.49,1.46,0.49c4.36,1.43,8.36,2.85,12.24,4.32l2.35,0.93c3.55,1.38,7.07,2.81,10.54,4.33
					c0.9,0.39,4.09,1.85,4.09,1.85c2.75,1.25,5.5,2.53,8.22,3.88c1.99,0.98,3.94,2,5.9,3.02c1.99,1.04,3.98,2.09,5.94,3.18
					c2.53,1.39,5.01,2.84,7.47,4.29l0.47,0.28c1.18,0.7,2.36,1.4,3.53,2.13c2.91,1.78,5.77,3.63,8.59,5.5l2.59,1.74
					c3.12,2.13,6.18,4.31,9.2,6.54l1.77,1.31c3.11,2.34,6.23,4.79,9.26,7.28l1.5,1.24c3,2.49,5.97,5.06,8.83,7.64l1.77,1.61
					c2.69,2.47,5.33,4.98,7.91,7.53c0.84,0.83,1.66,1.66,2.49,2.5c2.24,2.28,4.45,4.58,6.61,6.93c1.18,1.28,2.34,2.57,3.5,3.88
					c1.71,1.92,3.4,3.86,5.05,5.83c1.58,1.88,3.13,3.77,4.66,5.68c1.14,1.43,2.28,2.87,3.4,4.32c1.97,2.56,3.89,5.16,5.77,7.78
					l1.82,2.55c2.24,3.19,4.49,6.55,6.68,9.98c0,0.01,0.44,0.69,0.44,0.69c19.78,31.06,33.21,65.11,39.92,101.22l0.32,1.75
					c0.66,3.71,1.28,7.45,1.8,11.23c0.14,1,0.26,2,0.39,3l0.15,1.22c0.37,3.01,0.73,6.03,1.01,9.08c0.17,1.88,0.3,3.76,0.43,5.63
					l0.12,1.79c0.15,2.1,0.29,4.2,0.38,6.31c0.12,2.73,0.17,5.48,0.21,8.22c0.01,0.68,0.03,1.35,0.06,2.02
					c0.03,0.82,0.06,1.65,0.06,2.47l-0.04,1.59c-0.01,2.5-0.1,5.01-0.19,7.51l-0.07,2.08c-0.05,1.75-0.11,3.51-0.21,5.25
					c-0.07,1.3-0.18,2.6-0.29,3.9l-0.14,1.7c-0.24,3.18-0.49,6.34-0.83,9.48l-0.24,1.88C918.94,468.67,796.36,577.77,650.57,577.77z
					" class="colorffffff svgShape"/><path fill="#333b91" d="M650.5,7.1c0.07,0,0.14,0,0.19,0c25.21,0.01,46.71,2.69,69.76,8.69c0.6,0.15,1.2,0.31,1.8,0.47l1.01,0.27
					c2.39,0.65,4.8,1.33,7.25,2.06c2.42,0.71,4.83,1.43,7.24,2.21l0.43,0.13l0.27,0.1c0.24,0.09,0.48,0.18,0.73,0.26
					c4.22,1.39,8.28,2.82,12.09,4.27c0.43,0.16,0.86,0.33,1.28,0.5l1.04,0.41c3.87,1.51,7.28,2.91,10.42,4.28
					c0.94,0.41,1.86,0.83,2.79,1.26l1.22,0.56c2.42,1.1,5.27,2.42,8.14,3.84c1.96,0.97,3.89,1.97,5.81,2.98
					c1.97,1.03,3.93,2.06,5.88,3.14c2.17,1.2,4.51,2.54,7.36,4.23l0.37,0.22c1.2,0.71,2.4,1.42,3.59,2.16
					c2.74,1.68,5.51,3.46,8.47,5.43l0.29,0.19c0.76,0.51,1.52,1.01,2.28,1.53c2.99,2.04,6.04,4.21,9.11,6.48
					c0.57,0.42,1.14,0.84,1.71,1.27c3.08,2.32,6.16,4.74,9.15,7.19l1.49,1.23c2.97,2.47,5.9,5.01,8.72,7.55
					c0.58,0.53,1.16,1.06,1.74,1.59c2.7,2.48,5.33,4.98,7.82,7.45c0.83,0.82,1.64,1.64,2.45,2.46c2.36,2.39,4.49,4.63,6.53,6.85
					c1.17,1.26,2.31,2.54,3.45,3.81c1.69,1.9,3.36,3.82,5,5.77c1.56,1.85,3.08,3.72,4.58,5.6c1.13,1.42,2.26,2.83,3.37,4.29
					c1.81,2.36,3.68,4.87,5.69,7.66l0.36,0.51c0.48,0.67,0.96,1.34,1.44,2.03c2.2,3.13,4.42,6.44,6.59,9.83l0.22,0.35l0.23,0.35
					c19.53,30.66,32.79,64.28,39.42,99.96l0.17,0.96l0.13,0.75c0.72,4,1.3,7.63,1.78,11.12c0.14,0.97,0.26,1.94,0.37,2.92l0.15,1.23
					c0.33,2.68,0.71,5.84,1,8.98c0.17,1.87,0.3,3.75,0.43,5.64l0.06,0.87l0.06,0.87c0.14,2.06,0.28,4.11,0.37,6.19
					c0.12,2.67,0.16,5.44,0.2,8.11c0.01,0.69,0.03,1.39,0.06,2.08c0.03,0.79,0.06,1.57,0.06,2.36c0,0.19-0.01,0.39-0.02,0.58
					c-0.01,0.33-0.02,0.67-0.03,1c-0.01,2.43-0.1,4.86-0.18,7.29l-0.02,0.61l-0.05,1.56c-0.05,1.74-0.11,3.47-0.2,5.19
					c-0.07,1.27-0.18,2.54-0.28,3.8l-0.14,1.74c-0.25,3.34-0.49,6.35-0.82,9.35c-0.03,0.3-0.07,0.59-0.11,0.89l-0.13,0.98
					c-16.56,142.89-137.63,250.64-281.62,250.64c-156.37,0-283.59-127.24-283.59-283.63c0-94.5,40.43-173.82,116.91-229.38
					c37.76-27.4,77.06-43.96,120.15-50.64c0.19-0.03,0.37-0.07,0.56-0.11c0.15-0.02,0.29-0.04,0.43-0.06l0.66-0.09l0.85-0.11
					c3.76-0.55,6.82-0.95,9.56-1.25c0.06,0,0.22-0.02,0.28-0.03c3.77-0.41,7.48-0.75,11.04-1.01l0.19-0.01l0.54-0.03
					c3.89-0.27,7.39-0.46,10.69-0.57C642.65,7.17,646.57,7.1,650.5,7.1L650.5,7.1z M650.57,0c-0.01,0-0.02,0-0.03,0
					c-0.01,0-0.02,0-0.03,0v0c-4.01,0-7.98,0.07-11.92,0.21c-3.68,0.13-7.31,0.33-10.93,0.59c-0.25,0.02-0.5,0.02-0.75,0.04
					c-3.8,0.27-7.57,0.62-11.31,1.03c-0.06,0.01-0.13,0.01-0.19,0.02c-3.32,0.37-6.62,0.81-9.9,1.29c-0.51,0.07-1.04,0.13-1.55,0.21
					c-0.34,0.05-0.69,0.08-1.02,0.14l0.01,0.04c-44.44,6.88-84.6,23.87-123.23,51.91c-77.91,56.61-119.83,138.87-119.83,235.12
					c0,160.55,130.15,290.72,290.68,290.72c149.11,0,271.91-112.3,288.66-256.91c0.07-0.63,0.17-1.27,0.24-1.91
					c0.35-3.18,0.6-6.38,0.84-9.59c0.15-1.89,0.32-3.78,0.43-5.67c0.13-2.3,0.18-4.61,0.26-6.93c0.09-2.7,0.19-5.4,0.2-8.09
					c0-0.54,0.04-1.08,0.04-1.62c0-1.53-0.09-3.03-0.12-4.55c-0.04-2.78-0.09-5.55-0.21-8.32c-0.11-2.42-0.28-4.82-0.44-7.23
					c-0.16-2.23-0.3-4.46-0.51-6.68c-0.28-3.08-0.64-6.14-1.02-9.2c-0.18-1.42-0.34-2.85-0.54-4.27c-0.53-3.82-1.15-7.61-1.83-11.38
					c-0.11-0.59-0.21-1.18-0.31-1.76c-6.9-37.12-20.84-71.75-40.41-102.47c-0.15-0.24-0.3-0.47-0.45-0.7
					c-2.19-3.41-4.44-6.78-6.77-10.1c-0.61-0.87-1.22-1.72-1.84-2.59c-1.91-2.65-3.84-5.28-5.84-7.87
					c-1.13-1.47-2.29-2.93-3.44-4.38c-1.55-1.93-3.11-3.85-4.71-5.75c-1.68-1.99-3.39-3.96-5.12-5.91
					c-1.17-1.32-2.35-2.63-3.54-3.92c-2.19-2.37-4.42-4.71-6.69-7.01c-0.84-0.85-1.67-1.69-2.52-2.53
					c-2.62-2.59-5.29-5.13-8.01-7.63c-0.6-0.55-1.19-1.09-1.79-1.63c-2.92-2.64-5.9-5.21-8.93-7.74c-0.51-0.42-1.02-0.84-1.53-1.26
					c-3.07-2.52-6.2-4.97-9.38-7.37c-0.59-0.45-1.19-0.89-1.79-1.33c-3.05-2.26-6.15-4.47-9.31-6.62c-0.87-0.6-1.75-1.18-2.63-1.76
					c-2.86-1.9-5.75-3.76-8.69-5.57c-1.34-0.83-2.7-1.63-4.06-2.44c-2.5-1.48-5.01-2.94-7.56-4.34c-1.99-1.1-4-2.16-6.02-3.22
					c-1.98-1.03-3.96-2.07-5.97-3.06c-2.75-1.36-5.54-2.65-8.34-3.93c-1.37-0.62-2.74-1.26-4.13-1.86
					c-3.52-1.54-7.08-2.99-10.67-4.38c-0.8-0.31-1.59-0.64-2.39-0.94c-4.09-1.55-8.22-3-12.39-4.37c-0.35-0.11-0.68-0.25-1.03-0.36
					c-0.15-0.05-0.3-0.09-0.46-0.14c-2.45-0.79-4.92-1.53-7.41-2.26c-2.48-0.74-4.94-1.43-7.39-2.1c-0.98-0.26-1.95-0.53-2.93-0.78
					c-23.48-6.11-45.9-8.89-71.5-8.91C650.65,0,650.61,0,650.57,0L650.57,0z" class="color080717 svgShape"/><path fill="#1c1c1c" d="M650.57,290.59L479.72,55.47C531.68,17.77,586.39,0,650.57,0V290.59z" class="color10101a svgShape"/><path fill="#1c1c1c" d="M650.57,290.59L602.95,3.53C618.29,1.14,634.11,0,650.57,0V290.59z" class="color10101a svgShape"/><path fill="#8aa2ff" d="M650.51,290.59l276.44,89.86c49.61-152.65-33.91-316.7-186.58-366.27C709.81,4.28,682.7,0,650.51,0
								V290.59z" class="color52d2d8 svgShape"/><path fill="#fff" d="M941.92,438.39l-21.43-68.71c-1.18-3.78-4.16-6.7-7.97-7.79c-3.8-1.09-7.88-0.21-10.89,2.37
			c-8.1,6.94-12.21,17.41-10.99,28.01l3.24,28.24l-7.68,8.01l3.58-35.03c0.04-0.46,0.01-0.92-0.11-1.36l-15.24-56.5
			c-0.9-3.32-3.22-6-6.38-7.36c-3.16-1.36-6.71-1.2-9.73,0.44c-6.9,3.74-12.02,10.22-14.06,17.8l-0.49,1.83l-12.53-26.1
			c-0.76-1.6-2.54-2.45-4.27-2.03c-5.92,1.42-15.8,7.42-18.92,20.48c-0.97-0.49-2.01-0.87-3.14-0.97c-3.14-0.31-6.09,1.07-7.91,3.63
			c-6.87,9.62-9.06,21.68-6.02,33.1l7.19,26.98l-14.05,53.39l-62.17,31.97c-26.05,13.39-45.09,37.36-52.25,65.75L601,824.37
			c-0.29,1.15-0.02-0.92,0.72,0c0.72,0.88,1.79,0,2.93,0c0.05,0,0.1,0,0.14,0h154.69c1.82-0.07,3.33,1.8,3.58,0l36.63-262.85
			l141.07-119.14C941.91,441.41,942.37,439.84,941.92,438.39z" class="colorffffff svgShape"/><path fill="#333b91" d="M759.34,827.92c-0.16,0-0.33-0.01-0.49-0.03c-1.94-0.27-3.29-2.06-3.02-4l36.83-264.8
					c0.12-0.87,0.56-1.66,1.22-2.22l140.37-118.55l-20.73-66.46c-0.45-1.45-1.55-2.53-3.01-2.94c-1.46-0.42-2.96-0.09-4.12,0.89
					c-6.25,5.36-9.43,13.44-8.49,21.63l3.44,29.99c0.12,1.05-0.23,2.1-0.96,2.86l-16.94,17.68c-1.36,1.42-3.6,1.47-5.02,0.11
					c-1.42-1.35-1.46-3.6-0.11-5.01l15.79-16.48l-3.25-28.34c-1.21-10.53,2.88-20.93,10.92-27.82c2.95-2.53,6.95-3.39,10.69-2.33
					c3.74,1.08,6.67,3.94,7.82,7.65l21.43,68.71c0.42,1.36-0.01,2.85-1.1,3.77L799.49,561.41l-36.64,263.45
					C762.6,826.63,761.08,827.92,759.34,827.92z" class="color080717 svgShape"/><path fill="#333b91" d="M878.67,468.84c-0.12,0-0.24-0.01-0.36-0.02c-1.95-0.2-3.37-1.94-3.17-3.89l7.3-71.54l-15.07-55.87
					c-0.31-1.15-1.12-2.08-2.21-2.55c-1.1-0.47-2.32-0.41-3.37,0.15c-5.14,2.79-8.97,7.63-10.48,13.27l-2.37,8.79
					c-0.51,1.89-2.45,3.01-4.35,2.5c-1.89-0.51-3.01-2.46-2.5-4.35l2.37-8.79c2.02-7.52,7.11-13.96,13.96-17.67
					c2.97-1.61,6.45-1.76,9.54-0.44c3.1,1.33,5.38,3.96,6.26,7.22l15.24,56.5c0.11,0.42,0.15,0.86,0.1,1.29l-7.36,72.19
					C882.01,467.48,880.46,468.84,878.67,468.84z" class="color080717 svgShape"/><path fill="#333b91" d="M852.89,472.52c-0.17,0-0.34-0.01-0.51-0.04c-1.94-0.28-3.28-2.08-3-4.02l10.16-70.39l-33.48-69.76
					c-4.38,2.12-12.56,8.14-11.61,23.31c0.12,1.96-1.36,3.64-3.32,3.76c-1.96,0.11-3.64-1.36-3.76-3.32
					c-1.64-26.24,19.44-31.61,19.65-31.66c1.62-0.39,3.3,0.41,4.03,1.92l35.36,73.66c0.3,0.63,0.41,1.34,0.31,2.04l-10.31,71.45
					C856.14,471.25,854.62,472.52,852.89,472.52z" class="color080717 svgShape"/><path fill="#333b91" d="M604.64,827.92c-0.29,0-0.59-0.03-0.88-0.11c-1.9-0.48-3.04-2.42-2.56-4.31l68.7-268.91
					c7.15-28.33,26.15-52.24,52.14-65.6l62.25-32.02l14.09-53.54l-7.21-27.04c-3.03-11.36-0.85-23.36,5.99-32.92
					c1.78-2.49,4.65-3.82,7.72-3.54c3.05,0.28,5.65,2.1,6.95,4.88l28.8,61.52c0.3,0.65,0.4,1.37,0.29,2.07l-10.31,63.35
					c-0.31,1.93-2.16,3.24-4.07,2.93c-1.93-0.32-3.25-2.14-2.93-4.07l10.13-62.27l-28.33-60.53c-0.3-0.65-0.86-0.79-1.17-0.82
					c-0.31-0.02-0.89,0.01-1.3,0.59c-5.59,7.83-7.38,17.66-4.9,26.96l7.45,27.95c0.16,0.6,0.16,1.22,0,1.82l-14.73,55.98
					c-0.26,0.97-0.91,1.79-1.81,2.25l-63.66,32.74c-24.18,12.43-41.86,34.68-48.51,61.04l-68.7,268.91
					C607.67,826.85,606.23,827.92,604.64,827.92z" class="color080717 svgShape"/><circle cx="226.44" cy="202.41" r="97.09" fill="#333b91" class="color080717 svgShape" transform="rotate(-45.001 226.435 202.413)"/><path fill="#fff" d="M300.8,498.31l-8.58-0.39c6.78-13.65-15.58-115.38-15.58-115.38l99.19,3.97
				c-0.24,1.68,7.15,75.78,11.14,106.04l31.21-2.09c3.24,38.78-9.68,72.26-36.77,85.54c-40.53,19.86-97.37-13-126.97-73.4
				c-0.19-0.38-0.36-0.77-0.54-1.15L300.8,498.31z" class="colorffffff svgShape"/><path fill="#333b91" d="M355.73,585.37c-13.97,0-28.85-4.33-43.68-12.9c-24.58-14.21-46.17-38.47-60.79-68.3l-0.56-1.19
				c-0.51-1.06-0.46-2.3,0.14-3.32c0.59-1.01,1.65-1.67,2.83-1.75l35.7-2.39c3.6-11.65-7.87-74.37-16.19-112.22
				c-0.24-1.07,0.04-2.2,0.74-3.04c0.7-0.84,1.76-1.33,2.86-1.26l99.19,3.97c1,0.04,1.94,0.5,2.58,1.27
				c0.58,0.69,0.86,1.57,0.82,2.46c0.08,3.93,6.63,70.14,10.69,102.09l27.89-1.87c1.94-0.1,3.61,1.32,3.77,3.25
				c3.47,41.5-11.38,75.61-38.75,89.02C374.53,583.32,365.34,585.37,355.73,585.37z M259.43,504.63
				c13.94,26.94,33.77,48.75,56.16,61.69c22.92,13.25,45.74,15.56,64.25,6.48c23.93-11.73,37.2-41.65,35.04-78.57l-27.69,1.85
				c-1.88,0.08-3.51-1.22-3.75-3.08c-2.93-22.22-9.68-86.41-10.94-103.09l-91.43-3.66c4.76,22.1,18.12,87.01,15.56,108.31l4.33,0.2
				c1.88,0.09,3.37,1.62,3.38,3.51c0.02,1.88-1.43,3.45-3.31,3.58L259.43,504.63z" class="color080717 svgShape"/><circle cx="338.35" cy="299.1" r="110.66" fill="#333b91" class="color080717 svgShape" transform="rotate(-45.001 338.347 299.103)"/><path fill="#fff" d="M273.88,339.41c-5.39-16.35-6-34.44-0.45-52.12c14.12-44.95,62.01-69.95,106.97-55.83
				c35.09,11.03,57.92,42.65,59.57,77.37c13.05,20.51,17.33,46.4,9.48,71.41c-14.12,44.95-62.01,69.95-106.97,55.82
				c-23.75-7.46-41.84-24.36-51.6-45.26c-8.15,10.78-22.46,15.85-36.1,11.57c-17.34-5.45-26.98-23.92-21.53-41.27
				C238.63,343.97,256.72,334.39,273.88,339.41z" class="colorffffff svgShape"/><path fill="#333b91" d="M367.99,443.54c-8.8,0-17.75-1.32-26.58-4.09c-21.95-6.9-40.4-22.2-51.35-42.38
				c-9.49,9.24-23.47,12.73-36.35,8.69c-19.18-6.03-29.88-26.54-23.86-45.72c5.28-16.8,21.98-27.17,38.96-25.26
				c-4.15-16.06-3.75-32.73,1.22-48.55c7.12-22.65,22.62-41.16,43.67-52.15c21.05-10.98,45.11-13.11,67.75-6
				c35.05,11.01,59.86,42.94,62,79.65c13.72,22.06,17.14,48.82,9.37,73.58C440.92,419.22,405.78,443.54,367.99,443.54z
				 M290.88,387.25c0.12,0,0.25,0.01,0.37,0.02c1.24,0.13,2.32,0.9,2.84,2.03c9.68,20.73,27.7,36.55,49.45,43.38
				c43.02,13.53,89.01-10.49,102.52-53.5c7.24-23.05,3.93-48-9.08-68.44c-0.33-0.52-0.52-1.12-0.55-1.74
				c-1.62-34.14-24.57-63.94-57.09-74.15c-20.84-6.54-42.98-4.59-62.34,5.52c-19.36,10.1-33.63,27.15-40.18,47.99
				c-5.12,16.29-4.97,33.56,0.43,49.94c0.41,1.25,0.1,2.63-0.82,3.58c-0.91,0.95-2.28,1.31-3.55,0.94
				c-15.23-4.47-31.49,4.22-36.25,19.35c-4.85,15.45,3.77,31.97,19.21,36.82c11.79,3.71,24.73-0.45,32.2-10.33
				C288.72,387.77,289.77,387.25,290.88,387.25z" class="color080717 svgShape"/><g class="color000000 svgShape"><path fill="#333b91" d="M282.87,372.87c-0.98,0-1.95-0.4-2.65-1.19c-6.25-7.01-16.6-10.37-25.77-8.36
				c-1.92,0.41-3.81-0.79-4.22-2.71c-0.42-1.91,0.79-3.8,2.7-4.22c11.78-2.58,24.57,1.56,32.59,10.57c1.3,1.46,1.17,3.7-0.29,5.01
				C284.55,372.57,283.7,372.87,282.87,372.87z" class="color080717 svgShape"/></g><g class="color000000 svgShape"><path fill="#333b91" d="M409.87,371.12c-8.94,0-17.28-3.72-22.4-10.03c-1.24-1.52-1-3.76,0.52-4.99c1.52-1.23,3.76-1,4.99,0.52
				c3.85,4.74,10.18,7.45,17.29,7.4c6.97-0.11,13.34-3.08,17.04-7.95c1.19-1.56,3.41-1.86,4.97-0.68c1.56,1.18,1.86,3.41,0.68,4.97
				c-5,6.58-13.44,10.6-22.58,10.75C410.22,371.12,410.05,371.12,409.87,371.12z" class="color080717 svgShape"/></g><g class="color000000 svgShape"><path fill="#333b91" d="M347.71,298.2c-0.42,0-0.85-0.08-1.27-0.24c-1.83-0.7-2.74-2.75-2.04-4.58
				c7.59-19.76,25.89-13.43,31.91-11.35l0.84,0.29c1.86,0.62,2.85,2.64,2.23,4.49c-0.63,1.85-2.64,2.85-4.49,2.23l-0.9-0.3
				c-8.63-2.99-18.23-5.13-22.97,7.19C350.48,297.33,349.14,298.2,347.71,298.2z" class="color080717 svgShape"/></g><g class="color000000 svgShape"><path fill="#333b91" d="M423.4,328.85c-0.66,0-1.32-0.18-1.91-0.56c-12-7.7-19.33-18.83-21.97-26.03
				c-2.69-7.34-1.55-15.98,3.13-23.7c4.84-7.99,12.5-13.38,20.48-14.41c1.92-0.25,3.72,1.12,3.97,3.06
				c0.25,1.94-1.12,3.72-3.06,3.97c-5.77,0.75-11.65,4.98-15.33,11.06c-3.56,5.86-4.48,12.26-2.53,17.57
				c1.82,4.96,7.9,15.28,19.14,22.5c1.65,1.06,2.13,3.25,1.07,4.9C425.71,328.28,424.56,328.85,423.4,328.85z" class="color080717 svgShape"/></g><path fill="#333b91" d="M426.56,303.53c0.24,5.8-2.95,10.64-7.12,10.81c-4.17,0.17-7.75-4.39-7.99-10.18
			c-0.24-5.8,2.95-10.64,7.12-10.81C422.74,293.17,426.31,297.73,426.56,303.53z" class="color080717 svgShape"/><path fill="#333b91" d="M378.16,313.74c0.24,5.8-2.95,10.64-7.12,10.81c-4.17,0.17-7.75-4.39-7.99-10.18
			c-0.24-5.8,2.95-10.64,7.12-10.81C374.34,303.38,377.92,307.94,378.16,313.74z" class="color080717 svgShape"/><path fill="#333b91" d="M251.03,298.16c-1.74,14.02-2.63,28.15-3.08,42.23c-0.03,1.2,0.73,2.55,2.08,2.57
			c12.28,0.29,24.5-1.63,36.14-5.61c21.28-7.31,40.05-21.54,52.3-40.47c13.37-20.72,19.09-46.09,15.7-70.55
			c-0.37-2.78-4.35-2.29-4.56,0.17c-8.45-6.83-20.96-6.85-31.18-4.33c-11.37,2.8-21.64,8.66-31.41,14.95
			c-10.59,6.78-20.15,13.96-26.17,25.32C254.99,273.46,252.56,285.92,251.03,298.16z" class="color080717 svgShape"/><g class="color000000 svgShape"><path fill="#8aa2ff" d="M49.82,730.71l178.03,2.16c22.61,0.27,41.16-17.83,41.43-40.44l2.16-178.03
					c0.27-22.61-17.83-41.16-40.44-41.43l-178.03-2.16c-22.61-0.27-41.16,17.83-41.43,40.44L9.38,689.27
					C9.1,711.88,27.21,730.43,49.82,730.71z" class="color52d2d8 svgShape"/><polygon fill="#1c1c1c" points="253.88 579.73 253.88 514.48 188.64 514.48" class="color10101a svgShape"/><polygon fill="#1c1c1c" points="153.05 550.07 153.05 484.83 87.81 484.83" class="color10101a svgShape"/><polygon fill="#1c1c1c" points="58.16 556 34.43 532.28 11 555.71 10.42 603.74 34.43 579.73 58.16 603.45 141.19 520.41 117.47 496.69" class="color10101a svgShape"/><path fill="#1c1c1c" d="M212.37,532.28l-59.31,59.31l-23.72-23.72L9.4,687.8l-0.02,1.47c-0.15,12.64,5.45,24.01,14.36,31.63
				l105.59-105.59l23.72,23.73L236.09,556L212.37,532.28z" class="color10101a svgShape"/><polygon fill="#1c1c1c" points="245.89 687.83 245.89 622.59 180.64 622.59" class="color10101a svgShape"/><polygon fill="#1c1c1c" points="234.03 658.18 210.3 634.45 113.23 731.52 160.68 731.52" class="color10101a svgShape"/></g><g class="color000000 svgShape"><path fill="#fff" d="M98.61,778.46H54.8L6.33,728.48c-4.07-4.2-3.61-11,0.99-14.62l0,0c9.32-7.32,22.47-7.22,31.67,0.24
					l49.11,39.82L98.61,778.46z" class="colorffffff svgShape"/><path fill="#333b91" d="M98.61,782.01H54.8c-0.96,0-1.88-0.39-2.55-1.08L3.78,730.94c-2.64-2.72-4.01-6.45-3.75-10.23
					c0.25-3.79,2.11-7.3,5.09-9.64c10.69-8.4,25.54-8.29,36.1,0.28l49.11,39.82c0.45,0.36,0.8,0.83,1.03,1.36l10.52,24.54
					c0.47,1.09,0.36,2.35-0.3,3.35C100.92,781.41,99.81,782.01,98.61,782.01z M56.3,774.91h36.94l-8.05-18.79l-48.43-39.27
					c-7.97-6.46-19.17-6.55-27.25-0.21c-1.43,1.12-2.28,2.73-2.4,4.54c-0.12,1.81,0.51,3.52,1.77,4.82L56.3,774.91z" class="color080717 svgShape"/><path fill="#fff" d="M73.08,675.14H67.4c-4.06,0-7.35,3.29-7.35,7.34v95.97h34.44v-81.9C94.49,684.73,84.91,675.14,73.08,675.14
					z" class="colorffffff svgShape"/><path fill="#333b91" d="M94.49,782.01H60.05c-1.96,0-3.55-1.59-3.55-3.55v-95.97c0-6.01,4.89-10.89,10.89-10.89h5.68
					c13.77,0,24.96,11.2,24.96,24.96v81.9C98.04,780.42,96.45,782.01,94.49,782.01z M63.6,774.91h27.34v-78.35
					c0-9.85-8.02-17.87-17.87-17.87H67.4c-2.09,0-3.8,1.7-3.8,3.8V774.91z" class="color080717 svgShape"/><g class="color000000 svgShape"><path fill="#fff" d="M106.66,675.14h-5.68c-4.06,0-7.34,3.29-7.34,7.34v95.97h34.44v-81.9
					C128.08,684.73,118.49,675.14,106.66,675.14z" class="colorffffff svgShape"/><path fill="#333b91" d="M128.08,782.01H93.64c-1.96,0-3.55-1.59-3.55-3.55v-95.97c0-6.01,4.89-10.89,10.89-10.89h5.68
					c13.76,0,24.96,11.2,24.96,24.96v81.9C131.63,780.42,130.04,782.01,128.08,782.01z M97.19,774.91h27.34v-78.35
					c0-9.85-8.02-17.87-17.87-17.87h-5.68c-2.09,0-3.8,1.7-3.8,3.8V774.91z" class="color080717 svgShape"/></g><g class="color000000 svgShape"><path fill="#fff" d="M193.29,732.85l-31.62-0.84v-11.04c0-13.66-11.08-24.74-24.74-24.74h-1.21c-4.69,0-8.49,3.8-8.49,8.49
					v73.75h16.28c11.37,0,22.03-5.58,28.51-14.92l4.6-6.63L193.29,732.85z" class="colorffffff svgShape"/><path fill="#333b91" d="M143.5,782.01h-16.28c-1.96,0-3.55-1.59-3.55-3.55v-73.75c0-6.63,5.4-12.03,12.03-12.03h1.21
					c15.6,0,28.29,12.69,28.29,28.29v7.59l28.17,0.74c1.96,0.05,3.5,1.68,3.45,3.64c-0.05,1.96-1.67,3.45-3.64,3.45l-31.62-0.84
					c-1.92-0.05-3.45-1.62-3.45-3.55v-11.04c0-11.68-9.51-21.19-21.19-21.19h-1.21c-2.72,0-4.94,2.21-4.94,4.94v70.2h12.73
					c10.21,0,19.77-5.01,25.59-13.4l4.6-6.63c1.12-1.61,3.33-2.02,4.94-0.89c1.61,1.12,2.01,3.33,0.89,4.94l-4.6,6.63
					C167.78,775.86,156.04,782.01,143.5,782.01z" class="color080717 svgShape"/></g></g><g class="color000000 svgShape"><path fill="#fff" d="M272.19,824.37l-22.65-53.31c-11.13-23.97-35.15-39.3-61.58-39.3h-15.52L272.19,824.37z" class="colorffffff svgShape"/><path fill="#333b91" d="M272.19,827.92c-1.38,0-2.69-0.81-3.27-2.16l-22.65-53.3c-10.46-22.52-33.37-37.14-58.32-37.14h-15.52
				c-1.96,0-3.55-1.59-3.55-3.55c0-1.96,1.59-3.55,3.55-3.55h15.52c27.7,0,53.14,16.23,64.8,41.36l22.69,53.41
				c0.77,1.8-0.07,3.88-1.88,4.65C273.12,827.83,272.65,827.92,272.19,827.92z" class="color080717 svgShape"/></g></svg>