<svg xmlns="http://www.w3.org/2000/svg" enable-background="new 0 0 1251.44 967.84" viewBox="0 0 1251.44 967.84"><path fill="#fff" d="M1114.21,916.74L937.86,413.15c0-4.68-102.96-13.86-176.48-19.82c-45.4-3.68-89.75,14.88-118.98,49.81l0,0
			c-18.33,21.91-29.54,48.89-32.12,77.34l-36.02,396.27H1114.21z" class="colorffffff svgShape"/><path fill="#1c1c1c" d="M1110.34,918.1L934.42,415.74c-5.02-1.69-31.98-6.86-173.37-18.32c-44-3.57-87.18,14.51-115.5,48.35
			c-17.88,21.37-28.66,47.33-31.18,75.07l-36.02,396.27l-8.17-0.74l36.02-396.27c2.68-29.42,14.11-56.94,33.07-79.6
			c30.02-35.88,75.8-55.04,122.45-51.26c171.8,13.93,179.85,18.12,180.22,23.16l176.14,502.99L1110.34,918.1z" class="color080717 svgShape"/><path fill="#fff" d="M871.05,488.19l-60.1,13.94c-19.18,4.45-38.33-7.49-42.78-26.67l-43.09-185.76l140.79-32.66l40.48,174.52
				C912.25,456.94,896.44,482.3,871.05,488.19z" class="colorffffff svgShape"/><path fill="#1c1c1c" d="M802.9,507.15c-18.07,0-34.46-12.43-38.72-30.77l-43.09-185.76c-0.51-2.21,0.87-4.41,3.07-4.92l140.79-32.66
				c2.18-0.5,4.41,0.86,4.92,3.07l40.48,174.52c3.1,13.35,0.81,27.1-6.44,38.72c-7.25,11.62-18.59,19.73-31.94,22.83l-60.1,13.94
				C808.87,506.82,805.86,507.15,802.9,507.15z M730,292.76l42.16,181.77c3.93,16.95,20.91,27.54,37.86,23.6l60.1-13.94l0,0
				c11.21-2.6,20.74-9.41,26.83-19.18c6.09-9.77,8.01-21.32,5.41-32.53l-39.55-170.53L730,292.76z" class="color080717 svgShape"/><path fill="#1c1c1c" d="M756.54,411.82l-25.69-92.95l84.68-23.4l35.83,24.31C840.13,361.19,806.99,394.69,756.54,411.82z" class="color080717 svgShape"/><path fill="#1c1c1c" d="M798.14,325.68L798.14,325.68c-78.22,0-141.63-63.41-141.63-141.63v-7.54c0-78.22,63.41-141.63,141.63-141.63
			h0c78.22,0,141.63,63.41,141.63,141.63v7.54C939.77,262.27,876.36,325.68,798.14,325.68z" class="color080717 svgShape"/><path fill="#1c1c1c" d="M759.18,314.16L759.18,314.16c-65.28,0-118.2-52.92-118.2-118.2v-24.18c0-65.28,52.92-118.2,118.2-118.2l0,0
			c65.28,0,118.2,52.92,118.2,118.2v24.18C877.38,261.24,824.46,314.16,759.18,314.16z" class="color080717 svgShape"/><path fill="#fff" d="M654.63,200.22v-0.84c0-65.94,53.45-119.39,119.39-119.39h6.73c44.67,0,83.59,24.55,104.06,60.88l7.69-2.29
				c15.62-4.64,32.04,4.25,36.68,19.87c4.64,15.62-4.25,32.04-19.87,36.68l-9.2,2.74c0.01,0.51,0.04,1.01,0.04,1.52v45.72
				c0,65.94-53.45,119.39-119.39,119.39h-6.73c-61.15,0-111.53-45.98-118.53-105.25L654.63,200.22z" class="colorffffff svgShape"/><path fill="#1c1c1c" d="M780.75,368.59h-6.73c-62.57,0-115.27-46.8-122.6-108.87c-0.02-0.14-0.02-0.28-0.03-0.42l-0.86-59.02
				c0-0.02,0-0.04,0-0.06v-0.84c0-68.1,55.4-123.49,123.49-123.49h6.73c43.41,0,83.71,22.96,105.98,60.13l4.6-1.37
				c17.75-5.28,36.5,4.87,41.78,22.63c5.28,17.76-4.88,36.5-22.63,41.78l-6.23,1.85v44.19
				C904.24,313.19,848.84,368.59,780.75,368.59z M659.59,258.97c6.94,57.83,56.09,101.43,114.44,101.43h6.73
				c63.57,0,115.29-51.72,115.29-115.29L896,197.89c-0.02-1.83,1.18-3.44,2.93-3.96l9.2-2.73c13.42-3.99,21.1-18.16,17.11-31.58
				c-3.99-13.42-18.18-21.1-31.58-17.11l-7.69,2.29c-1.83,0.55-3.8-0.25-4.74-1.92c-20.44-36.26-58.94-58.79-100.49-58.79h-6.73
				c-63.57,0-115.29,51.72-115.29,115.29v0.81L659.59,258.97z" class="color080717 svgShape"/><path fill="#1c1c1c" d="M897.44,181.81c-1.97,0-3.71-1.42-4.04-3.43c-3.23-19.39,12.5-29.07,13.17-29.47
				c1.94-1.16,4.46-0.53,5.63,1.41c1.16,1.94,0.54,4.45-1.39,5.62c-0.51,0.31-11.61,7.33-9.32,21.1c0.37,2.23-1.14,4.35-3.37,4.72
				C897.89,181.8,897.67,181.81,897.44,181.81z" class="color080717 svgShape"/><path fill="#1c1c1c" d="M707.74,202.34c1.76,4.58-7.1,12.26-19.79,17.15c-12.7,4.89-24.42,5.13-26.18,0.55
			c-1.76-4.58,7.1-12.26,19.79-17.15C694.26,198,705.98,197.76,707.74,202.34z" class="color080717 svgShape"/><path fill="#1c1c1c" d="M798.96,195.78c-0.34,4.9-11.61,8.12-25.18,7.18c-13.57-0.93-24.3-5.66-23.96-10.56
			c0.34-4.9,11.61-8.12,25.18-7.18C788.57,186.15,799.29,190.87,798.96,195.78z" class="color080717 svgShape"/><path fill="#1c1c1c" d="M744.26,278.64c-0.14,0-0.28-0.01-0.42-0.02c-5.66-0.58-10.83-3.55-14.19-8.14
				c-3.36-4.59-4.62-10.41-3.48-15.98l6.51-31.5c0.46-2.22,2.63-3.65,4.84-3.19c2.22,0.46,3.64,2.63,3.19,4.85l-6.51,31.5
				c-0.69,3.35,0.04,6.72,2.06,9.47c2.02,2.76,5.01,4.47,8.41,4.83c2.25,0.23,3.89,2.25,3.66,4.5
				C748.12,277.07,746.34,278.64,744.26,278.64z" class="color080717 svgShape"/><path fill="#1c1c1c" d="M768.14,312.99c-3.42,0-6.98-0.72-10.68-2.16c-2.11-0.82-3.16-3.2-2.33-5.31c0.82-2.11,3.21-3.15,5.31-2.33
				c5.59,2.18,10.4,2.13,14.72-0.14c10.56-5.57,14.59-22.46,14.63-22.63c0.51-2.2,2.72-3.58,4.92-3.07c2.21,0.51,3.58,2.7,3.08,4.91
				c-0.19,0.84-4.89,20.68-18.76,28.02C775.6,312.09,771.97,312.99,768.14,312.99z" class="color080717 svgShape"/><path fill="#1c1c1c" d="M804.74,82.19c24.1,8.1,45.12,18.78,60.62,30.02c-0.54,4.39-1.5,8.76-2.95,13.06
			c-6.85,20.39-22.93,35.68-43.79,44.27c-12.6-2.09-26.08-5.44-39.85-10.07c-55.59-18.68-94.84-51.12-87.67-72.46
			C698.27,65.68,749.15,63.52,804.74,82.19z" class="color080717 svgShape"/><path fill="#1c1c1c" d="M777.25,231.46c0.36,8.31-3.63,15.23-8.91,15.46c-5.29,0.23-9.86-6.31-10.23-14.62
			c-0.36-8.31,3.63-15.23,8.91-15.46C772.31,216.61,776.89,223.15,777.25,231.46z" class="color080717 svgShape"/><path fill="#1c1c1c" d="M699.61,250.12c0.36,8.31-3.63,15.23-8.91,15.46c-5.29,0.23-9.86-6.31-10.23-14.62
			c-0.36-8.31,3.63-15.23,8.91-15.46C694.67,235.27,699.24,241.81,699.61,250.12z" class="color080717 svgShape"/><path fill="#1c1c1c" d="M828.88,54.56c-0.56,0-1.14-0.12-1.69-0.37c-2.06-0.94-2.97-3.37-2.03-5.43
				c9.09-20.02,35.96-18.82,37.08-18.75c2.26,0.12,3.99,2.05,3.87,4.31c-0.12,2.26-2.04,4.06-4.3,3.88
				c-0.24,0-22.42-0.95-29.19,13.95C831.93,53.67,830.44,54.56,828.88,54.56z" class="color080717 svgShape"/><path fill="#1c1c1c" d="M831.99,45.4c-0.44,0-0.88-0.07-1.32-0.22c-2.14-0.73-3.29-3.06-2.57-5.2c2.62-7.73-2.75-10.94-2.98-11.07
				c-1.96-1.13-2.63-3.64-1.5-5.6c1.13-1.96,3.64-2.64,5.6-1.5c3.96,2.29,10.45,9.59,6.65,20.8C835.3,44.32,833.7,45.4,831.99,45.4z
				" class="color080717 svgShape"/><g fill="#8aa2ff" class="color000000 svgShape"><path fill="#1c1c1c" d="M768.43,168.73c-0.3,0-0.6-0.03-0.9-0.1c-35.02-7.81-61.5-24.76-78.72-50.38c-1.26-1.88-0.77-4.43,1.12-5.69
				c1.87-1.27,4.42-0.76,5.69,1.12c16,23.81,40.8,39.61,73.7,46.95c2.21,0.49,3.6,2.68,3.11,4.89
				C772,167.44,770.3,168.73,768.43,168.73z" class="color080717 svgShape"/></g><path fill="#1c1c1c" d="M888.85,119.54l-2.46,92.85c-0.12,4.57-4.38,8.33-10.26,9.05h0c-6.57,0.8-13.06-2.42-14.9-7.41l-40.88-110.93
			L888.85,119.54z" class="color080717 svgShape"/><g fill="#8aa2ff" class="color000000 svgShape"><path fill="#1c1c1c" d="M530.41,737.78c8.08-36.77,12.85-86.9,12.64-155.32l-1.79-14.68c-5.12-41.97-35.69-76.39-76.77-86.42
			l-217.55-53.14c-36.76-8.98-75.47,3.21-100.46,31.64L15.34,737.78H530.41z" class="color080717 svgShape"/><path fill="#fff" d="M331.13,446.22l53.64,84.94c14.23,22.52,48.33,17.94,56.1-7.55l60.8-199.45l-119.75-38L331.13,446.22z" class="colorffffff svgShape"/><path fill="#1c1c1c" d="M410.94,549.78c-12,0-23.06-6.03-29.63-16.43l-53.64-84.93c-0.64-1.02-0.8-2.28-0.44-3.43l50.79-160.06
				c0.33-1.04,1.06-1.9,2.02-2.4c0.96-0.5,2.09-0.59,3.13-0.27l119.75,38c2.14,0.68,3.34,2.96,2.68,5.1l-60.8,199.45
				c-4.07,13.34-15.18,22.79-29.01,24.65C414.16,549.68,412.54,549.78,410.94,549.78z M335.62,445.65l52.63,83.32
				c5.71,9.05,15.81,13.79,26.46,12.36c10.6-1.43,19.13-8.67,22.26-18.91l59.61-195.57l-111.98-35.53L335.62,445.65z" class="color080717 svgShape"/><path fill="#1c1c1c" d="M359.06,380.8l30.03-94.63l112.59,35.73L469.53,423.2C429.47,426.41,388.52,411.99,359.06,380.8z" class="color080717 svgShape"/><path fill="#1c1c1c" d="M407.12,95.11l30.24,3.7c70.46,8.61,125.66,61.35,133.88,127.9l9.92,80.36
			c3.71,30.04-18.84,57.33-50.64,61.28l-122.01,15.16L407.12,95.11z" class="color080717 svgShape"/><path fill="#1c1c1c" d="M463.76,97.89l-35.17-2.48c-81.96-5.77-154.87,37.33-176.85,104.55l-26.54,81.16
			c-9.92,30.34,10.61,63.31,46.12,74.03l136.21,41.15L463.76,97.89z" class="color080717 svgShape"/><path fill="#1c1c1c" d="M451.6,132.26c-0.48,0-0.98-0.09-1.46-0.27c-2.12-0.8-3.18-3.17-2.37-5.29l28.15-74.02
				c3.75-9.85,2.04-20.3-4.8-29.41c-1.36-1.81-0.99-4.38,0.82-5.74c1.81-1.35,4.38-0.99,5.74,0.82
				c8.47,11.28,10.62,24.85,5.91,37.25l-28.15,74.02C454.81,131.26,453.26,132.26,451.6,132.26z" class="color080717 svgShape"/><path fill="#1c1c1c" d="M450.22,129.19l19.25-75.89c6.03-23.77-11.35-47.16-37.1-49.95l-28.52-3.08
			c-28.39-3.07-52.07,20.25-47.58,46.86l14.71,87.3L450.22,129.19z" class="color080717 svgShape"/><path fill="#fff" d="M254.64,227.43c5.85-19.7,26.57-30.92,46.27-25.06l0.64,0.19c16.32-56.65,58.91-97.06,108.89-97.06
				c55.28,0,101.5,49.45,113.15,115.63c17.19,0.75,32.11,13.41,35.05,31.07v0c3.37,20.27-10.33,39.44-30.6,42.81l-6.38,1.06
				c-14.23,61.34-58.62,106.09-111.21,106.09c-57.48,0-105.16-53.46-114.38-123.6l-16.36-4.86
				C260.01,267.84,248.78,247.13,254.64,227.43z" class="colorffffff svgShape"/><path fill="#1c1c1c" d="M410.44,406.26c-58.25,0-107.57-52.21-118.08-124.52l-13.83-4.11c-10.58-3.15-19.3-10.22-24.55-19.92
				c-5.26-9.7-6.42-20.87-3.28-31.45c3.14-10.58,10.22-19.3,19.92-24.55c8.69-4.71,18.54-6.14,28.13-4.12
				c18.04-57.71,62.51-96.2,111.68-96.2c55.82,0,103.42,47.5,116.61,115.91c17.9,2.24,32.63,16.17,35.62,34.21
				c3.74,22.47-11.5,43.79-33.97,47.53l-3.7,0.62C509.4,362.57,462.61,406.26,410.44,406.26z M290.26,204.91
				c-5.43,0-10.82,1.35-15.72,4.01c-7.78,4.21-13.45,11.2-15.96,19.68c0,0,0,0,0,0c-2.52,8.48-1.59,17.43,2.62,25.2
				c4.21,7.78,11.2,13.45,19.68,15.97l16.36,4.86c1.55,0.46,2.69,1.79,2.9,3.4c9.14,69.55,55.53,120.03,110.32,120.03
				c49.07,0,93.16-42.32,107.22-102.92c0.38-1.62,1.69-2.84,3.32-3.12l6.38-1.06c18.01-3,30.22-20.08,27.23-38.09
				c-2.55-15.34-15.66-26.97-31.18-27.64c-1.92-0.08-3.52-1.49-3.86-3.39c-11.45-65.04-57.34-112.24-109.11-112.24
				c-46.56,0-88.74,37.81-104.95,94.09c-0.3,1.05-1.01,1.94-1.97,2.46c-0.96,0.52-2.09,0.64-3.13,0.34l-0.64-0.19
				C296.62,205.37,293.43,204.91,290.26,204.91z M254.64,227.43h0.04H254.64z" class="color080717 svgShape"/><path fill="#1c1c1c" d="M359.41,114.03c15.86-10.5,33.68-16.41,52.53-16.41c56.92,0,104.5,53.72,116.5,125.61
			c3.76,0.17,7.4,0.96,10.85,2.23C472.39,228.84,404.12,185.78,359.41,114.03z" class="color080717 svgShape"/><path fill="#1c1c1c" d="M494.91,239.68c-0.13,0-0.27-0.01-0.4-0.02c-54.11-5.33-104.86-48.19-132.43-111.86
				c-0.9-2.08,0.06-4.49,2.13-5.39c2.1-0.91,4.49,0.06,5.39,2.13c26.39,60.94,74.56,101.92,125.7,106.96
				c2.25,0.22,3.9,2.23,3.68,4.48C498.78,238.1,496.99,239.68,494.91,239.68z" class="color080717 svgShape"/><path fill="#1c1c1c" d="M382.41,185.09c-1.29,0-2.57-0.61-3.36-1.75c-13.26-18.96-21.08-41.5-23.23-67.01
				c-0.19-2.26,1.48-4.24,3.74-4.43c2.21-0.17,4.24,1.48,4.43,3.74c2.03,24.04,9.36,45.24,21.78,63c1.3,1.86,0.85,4.41-1.01,5.71
				C384.04,184.85,383.22,185.09,382.41,185.09z" class="color080717 svgShape"/><path fill="#1c1c1c" d="M297.62,253.55c-0.22,0-0.45-0.02-0.68-0.06c-2.23-0.37-3.74-2.48-3.37-4.72
				c2.04-12.27-7.87-18.53-8.29-18.79c-1.92-1.18-2.53-3.7-1.36-5.63c1.17-1.93,3.67-2.55,5.6-1.39c0.62,0.37,15.12,9.3,12.14,27.16
				C301.33,252.13,299.59,253.55,297.62,253.55z" class="color080717 svgShape"/><path fill="#1c1c1c" d="M527.78,270.13c-2.03,0-3.79-1.49-4.06-3.55c-0.1-0.72-2.12-17.62,13.72-26.4c1.98-1.1,4.47-0.38,5.57,1.6
				c1.1,1.98,0.38,4.47-1.6,5.57c-10.88,6.03-9.62,17.68-9.56,18.18c0.27,2.24-1.32,4.29-3.56,4.57
				C528.13,270.12,527.95,270.13,527.78,270.13z" class="color080717 svgShape"/><path fill="#1c1c1c" d="M450.91,253.36c-0.53,7.53-4.84,13.37-9.63,13.03c-4.79-0.33-8.25-6.71-7.73-14.25
			c0.53-7.53,4.84-13.37,9.63-13.03C447.97,239.45,451.43,245.83,450.91,253.36z" class="color080717 svgShape"/><path fill="#1c1c1c" d="M373.94,252.42c0,7.55-3.9,13.67-8.7,13.67s-8.7-6.12-8.7-13.67c0-7.55,3.9-13.67,8.7-13.67
			S373.94,244.87,373.94,252.42z" class="color080717 svgShape"/><path fill="#1c1c1c" d="M412.51,356.54c-1.9,0-3.6-1.32-4.01-3.26c-0.47-2.22,0.95-4.39,3.17-4.86c21.69-4.57,32.1-20.42,32.2-20.58
				c1.22-1.9,3.76-2.45,5.67-1.23c1.9,1.23,2.45,3.76,1.23,5.67c-0.49,0.77-12.4,18.9-37.41,24.17
				C413.07,356.51,412.79,356.54,412.51,356.54z" class="color080717 svgShape"/><g class="color000000 svgShape"><path fill="#1c1c1c" d="M398.78,312.62c-0.3,0-0.61-0.03-0.92-0.1c-5.14-1.18-9.56-4.5-12.13-9.1c-2.57-4.6-3.07-10.1-1.38-15.1
				l9.38-27.67c0.73-2.15,3.06-3.29,5.2-2.57c2.14,0.73,3.29,3.06,2.57,5.2l-9.38,27.67c-0.96,2.84-0.69,5.85,0.77,8.47
				c1.46,2.62,3.88,4.43,6.8,5.11c2.21,0.51,3.59,2.71,3.08,4.91C402.34,311.34,400.65,312.62,398.78,312.62z" class="color080717 svgShape"/></g><g class="color000000 svgShape"><path fill="#e8f4fa" d="M462.83,105.07c-0.46,0-0.92-0.08-1.37-0.24c-56.93-20.24-96.81-2.94-97.2-2.76c-2.07,0.92-4.49,0-5.42-2.06
				c-0.93-2.06-0.01-4.49,2.05-5.42c1.73-0.78,43.1-18.9,103.32,2.51c2.13,0.76,3.25,3.1,2.49,5.24
				C466.1,104.02,464.52,105.07,462.83,105.07z" class="colorff6700 svgShape"/></g></g><g fill="#8aa2ff" class="color000000 svgShape"><path fill="#fff" d="M194.86,741.07c-0.54,0-1.09-0.11-1.62-0.34c-2.08-0.9-3.04-3.31-2.14-5.39L221.91,664
			c0.9-2.08,3.31-3.04,5.39-2.14c2.08,0.9,3.04,3.31,2.14,5.39l-30.81,71.35C197.96,740.15,196.45,741.07,194.86,741.07z" class="colorffffff svgShape"/></g><g fill="#8aa2ff" class="color000000 svgShape"><path fill="#fff" d="M613.32,900.57c36.45-119.4,74.37-238.71,113.76-357.94c-9.6-7.05-19.34-14.11-29.21-21.18
				c-76.16,2.34-151.38,4.74-225.67,7.19c-30.85,1.02-60.99,8.37-87.18,21.48l0,0c37.47,117.82,65.38,235.05,83.72,351.7
				C516.56,901.39,564.76,900.97,613.32,900.57z" class="colorffffff svgShape"/><path fill="#1c1c1c" d="M468.75,905.93c-2.02,0-3.74-1.47-4.05-3.46c-18.23-115.91-46.35-234.04-83.58-351.1
				c-0.61-1.92,0.27-4.01,2.07-4.91c26.54-13.29,57.28-20.86,88.88-21.91c74.29-2.45,149.52-4.85,225.69-7.19
				c0.92-0.03,1.78,0.24,2.51,0.76c9.88,7.08,19.63,14.15,29.25,21.21c1.43,1.05,2.02,2.9,1.47,4.59
				c-39.19,118.6-77.46,239-113.74,357.85c-0.52,1.71-2.09,2.89-3.89,2.9c-48.56,0.39-96.76,0.81-144.58,1.25
				C468.77,905.93,468.76,905.93,468.75,905.93z M613.32,900.58h0.04H613.32z M390,552.25c36.45,115.17,64.12,231.36,82.25,345.44
				c45.67-0.42,91.68-0.82,138.04-1.2c35.75-117.03,73.41-235.53,111.98-352.32c-8.45-6.19-16.99-12.38-25.64-18.59
				c-75.68,2.33-150.44,4.71-224.28,7.15C443.15,533.71,414.76,540.45,390,552.25z" class="color080717 svgShape"/><path fill="#e8f4fa" d="M749.09,537.38c-36.69,128.18-73.38,256.37-110.07,384.55c-98.5,12.02-193.02,24.28-283.53,36.79
			c8.18-136.42,16.36-272.85,24.55-409.27C377.28,549.27,755.7,531.43,749.09,537.38z" class="colorff6700 svgShape"/><path fill="#fff" d="M109.11,869.81C87.45,746.87,64.31,623.83,39.7,500.7c10.39-5.84,20.91-11.66,31.57-17.48
				c75.31,11.58,149.68,23.1,223.13,34.57c30.5,4.77,59.52,15.72,83.93,31.92l0,0C326.8,662.1,284.85,775.07,252.46,888.63
				C205.05,882.38,157.27,876.11,109.11,869.81z" class="colorffffff svgShape"/><path fill="#1c1c1c" d="M252.47,892.73c-0.18,0-0.36-0.01-0.54-0.04c-47.41-6.25-95.19-12.52-143.35-18.82
				c-1.77-0.23-3.2-1.59-3.5-3.36c-21.56-122.34-44.9-246.49-69.39-369.02c-0.35-1.74,0.46-3.51,2.01-4.38
				c10.4-5.84,20.94-11.67,31.61-17.5c0.79-0.43,1.7-0.59,2.59-0.45c75.31,11.58,149.69,23.1,223.13,34.57
				c31.25,4.88,60.84,16.14,85.56,32.55c1.68,1.12,2.3,3.29,1.46,5.12c-51.19,111.69-93.46,225.52-125.64,338.34
				C255.9,891.54,254.27,892.73,252.47,892.73z M112.62,866.14c45.96,6.01,91.59,12,136.87,17.97
				c31.86-111.02,73.44-222.98,123.63-332.88c-23.14-14.73-50.5-24.86-79.36-29.38c-72.99-11.4-146.9-22.84-221.74-34.35
				c-9.34,5.1-18.58,10.21-27.71,15.33C68.4,623.47,91.37,745.67,112.62,866.14z" class="color080717 svgShape"/><path fill="#e8f4fa" d="M18.5,492.81C39.34,624.5,60.18,756.19,81.01,887.88c96.31,23.9,188.63,47.57,276.96,70.98
			c8.46-136.41,16.93-272.81,25.39-409.22C386.1,549.81,12.67,486.1,18.5,492.81z" class="colorff6700 svgShape"/><g class="color000000 svgShape"><path fill="#1c1c1c" d="M331.69,950.41c-0.06,0-0.11,0-0.17,0c-2.26-0.09-4.02-2-3.93-4.26l15.65-392.74
				c0.09-2.26,2.03-4.02,4.26-3.93c2.26,0.09,4.02,2,3.93,4.26l-15.65,392.74C335.69,948.68,333.88,950.41,331.69,950.41z" class="color080717 svgShape"/></g><g class="color000000 svgShape"><path fill="#1c1c1c" d="M379.84,953.34c-0.11,0-0.22,0-0.33-0.01c-2.26-0.18-3.94-2.16-3.76-4.41l31.16-391.79
				c0.18-2.26,2.21-3.92,4.41-3.76c2.26,0.18,3.94,2.16,3.76,4.41l-31.16,391.79C383.75,951.72,381.96,953.34,379.84,953.34z" class="color080717 svgShape"/></g></g><g fill="#8aa2ff" class="color000000 svgShape"><path fill="#fff" d="M39.33,643.1l3.91,29.14l-21.88-16.19C12.91,649.79,7,640.69,4.71,630.43l0,0
				c-2.03-9.13,0.64-14.33,10.9-22.55l54.62-40.72l4.4,13.51c3.14,9.63,1.02,20.19-5.58,27.87L39.33,643.1z" class="colorffffff svgShape"/><path fill="#1c1c1c" d="M43.24,676.34c-0.86,0-1.72-0.27-2.44-0.8l-21.88-16.19c-9.25-6.84-15.71-16.79-18.21-28.02
				c-2.66-11.95,2.29-18.58,12.34-26.64l54.73-40.81c1.06-0.79,2.43-1.02,3.69-0.62c1.26,0.4,2.25,1.38,2.66,2.64l4.4,13.51
				c3.56,10.92,1.12,23.1-6.37,31.81l-28.52,33.18l3.66,27.31c0.22,1.63-0.56,3.24-1.98,4.07
				C44.69,676.15,43.96,676.34,43.24,676.34z M68.11,573.86l-50.04,37.31c-9.66,7.75-10.86,11.56-9.35,18.37
				c2.07,9.3,7.42,17.54,15.08,23.21l14.09,10.43l-2.62-19.53c-0.16-1.16,0.19-2.33,0.96-3.22l29.72-34.57
				c5.63-6.55,7.46-15.72,4.79-23.92L68.11,573.86z" class="color080717 svgShape"/><path fill="#fff" d="M50.79,682.34l4.64,34.6l-25.98-19.23c-10.04-7.43-17.05-18.23-19.77-30.42v0
				c-2.41-10.85,2.94-21.93,12.94-26.78l85.06-42.74l4.22,22.63c2.19,11.71-2.71,23.61-12.51,30.39L50.79,682.34z" class="colorffffff svgShape"/><path fill="#1c1c1c" d="M55.43,721.04c-0.86,0-1.72-0.27-2.44-0.8l-25.98-19.23c-10.83-8.02-18.4-19.67-21.33-32.82
				c-2.83-12.76,3.4-25.65,15.16-31.36l85-42.71c1.16-0.58,2.51-0.58,3.66-0.01c1.15,0.57,1.97,1.65,2.21,2.92l4.22,22.63
				c2.48,13.28-3.1,26.83-14.2,34.52l-46.54,30.2l4.3,32.03c0.22,1.63-0.56,3.24-1.98,4.07C56.87,720.85,56.15,721.04,55.43,721.04z
				 M104.65,603.89l-80.18,40.29c-8.38,4.06-12.79,13.19-10.78,22.22c2.49,11.22,8.96,21.17,18.2,28.01l18.19,13.46l-3.35-24.99
				c-0.21-1.57,0.5-3.12,1.83-3.98l48.61-31.55c8.35-5.78,12.59-16.09,10.7-26.2L104.65,603.89z" class="color080717 svgShape"/><g class="color000000 svgShape"><path fill="#fff" d="M56.89,727.86l4.64,34.6l-25.98-19.23C25.52,735.8,18.5,725,15.79,712.81l0,0
				c-2.41-10.85,2.94-21.93,12.94-26.78l77.87-38.76l4.22,22.63c2.19,11.71-2.71,23.61-12.51,30.39L56.89,727.86z" class="colorffffff svgShape"/><path fill="#1c1c1c" d="M61.53,766.56c-0.86,0-1.72-0.27-2.44-0.8l-25.98-19.23c-10.83-8.02-18.4-19.67-21.33-32.82
				c-2.83-12.76,3.4-25.65,15.16-31.36l77.84-38.74c1.15-0.57,2.5-0.57,3.66,0c1.15,0.57,1.97,1.65,2.2,2.92l4.22,22.63
				c2.48,13.28-3.1,26.83-14.2,34.52L61.3,729.85l4.3,32.06c0.22,1.63-0.56,3.24-1.98,4.07C62.98,766.37,62.26,766.56,61.53,766.56z
				 M103.57,653.36L30.55,689.7c-8.36,4.05-12.77,13.18-10.76,22.22c2.49,11.22,8.96,21.17,18.2,28.01l18.19,13.46l-3.35-24.99
				c-0.21-1.55,0.49-3.09,1.79-3.96l41.43-27.57c8.39-5.81,12.63-16.12,10.74-26.23L103.57,653.36z" class="color080717 svgShape"/></g><g class="color000000 svgShape"><path fill="#fff" d="M62.7,771.1l4.64,34.6l-25.98-19.23c-10.04-7.43-17.06-18.23-19.77-30.42l0,0
				c-2.41-10.85,2.94-21.93,12.94-26.78l67.68-32.81l4.22,22.63c2.19,11.71-2.71,23.61-12.51,30.39L62.7,771.1z" class="colorffffff svgShape"/><path fill="#1c1c1c" d="M67.34,809.8c-0.86,0-1.72-0.27-2.44-0.8l-25.98-19.23c-10.83-8.02-18.4-19.67-21.33-32.82
				c-2.84-12.76,3.39-25.65,15.16-31.36l67.68-32.81c1.15-0.56,2.49-0.55,3.64,0.03c1.14,0.57,1.95,1.65,2.19,2.91l4.22,22.63
				c2.48,13.28-3.09,26.83-14.2,34.51l-29.17,20.19l4.31,32.11c0.22,1.63-0.56,3.24-1.98,4.07C68.78,809.61,68.06,809.8,67.34,809.8
				z M99.17,702.5l-62.85,30.47c-8.33,4.04-12.74,13.16-10.73,22.2c2.49,11.22,8.96,21.17,18.2,28.01l18.19,13.46l-3.35-24.99
				c-0.2-1.53,0.46-3.04,1.73-3.92l31.23-21.62c8.45-5.85,12.7-16.16,10.81-26.27L99.17,702.5z" class="color080717 svgShape"/></g></g><g fill="#8aa2ff" class="color000000 svgShape"><path fill="#1c1c1c" d="M335.63,222.72c-0.89,0-1.78-0.29-2.53-0.88c-1.77-1.4-2.08-3.97-0.68-5.75c0.67-0.85,16.7-20.87,43.22-17.9
			c2.25,0.25,3.87,2.28,3.62,4.53c-0.25,2.25-2.32,3.9-4.53,3.62c-21.86-2.41-35.31,14.12-35.87,14.83
			C338.04,222.18,336.85,222.72,335.63,222.72z" class="color080717 svgShape"/></g><g fill="#8aa2ff" class="color000000 svgShape"><path fill="#fff" d="M795.92,757.74l-265.28-49.63l-59.66,20.63c-7.6,2.63-9.06,12.74-2.51,17.41l0,0
				c3.08,2.2,6.94,3.03,10.66,2.29l45.99-9.16l25.84,6.25l-92.09,34.54c-4.85,1.82-6.99,7.5-4.53,12.07l0,0
				c2.2,4.09,6.32,6.78,10.95,7.17l0,0l-6.26,3.15c-4.95,2.49-6.65,8.73-3.64,13.39c0,0,4.89,7.1,14.7,6.84
				c13.28-0.35,49.36-14.48,49.36-14.48l39.59,12.52l-38.39,23.16l-20.07,21.5c-3.31,3.54-1.96,9.31,2.58,11.02l0,0
				c13.57,4.62,18.95-0.45,31.34-7.66l4.27-2.49l60.95-25.01c0,0,73.15,35.22,99.2,33.07c19.24-1.59,35.13-18.8,35.13-18.8
				l53.53,19.18L795.92,757.74z" class="colorffffff svgShape"/><path fill="#1c1c1c" d="M512.54,882.28c-3.15,0-6.63-0.6-10.71-1.98c-3.54-1.33-6.07-4.22-6.9-7.77c-0.83-3.55,0.16-7.26,2.65-9.93
				l20.95-22.22l30.62-18.47l-29.57-9.35c-6.85,2.63-36.9,13.9-49.39,14.23c-11.92,0.37-17.93-8.25-18.18-8.61
				c-2.13-3.3-2.74-7.24-1.75-10.91c0.83-3.06,2.71-5.71,5.29-7.5c-1.96-1.51-3.61-3.43-4.82-5.68c-1.74-3.22-1.99-7.03-0.71-10.45
				c1.28-3.42,3.98-6.12,7.4-7.4l79.6-29.85l-11.98-2.9l-45.11,8.99c-4.81,0.97-9.85-0.12-13.84-2.97
				c-4.28-3.05-6.47-8.19-5.73-13.39c0.75-5.21,4.31-9.51,9.28-11.23l60.69-20.99l1.07,0.2l268.88,50.3l-9,125.99l-56.17-20.12
				c-5.02,4.8-19.08,16.77-35.86,18.15c-24.91,2.07-88.31-27.3-99.66-32.67l-59,24.22l-4.03,2.34c-1.53,0.89-2.94,1.74-4.28,2.55
				C525.44,878.96,519.95,882.28,512.54,882.28z M523.25,847.11l-19.68,21.08c-0.89,0.95-0.76,2.04-0.66,2.47
				c0.1,0.42,0.46,1.46,1.69,1.92c9.93,3.38,14.17,0.84,23.44-4.75c1.37-0.83,2.83-1.7,4.39-2.61l4.78-2.74l62.63-25.71l1.65,0.79
				c0.72,0.35,72.3,34.64,97.09,32.68c17.45-1.44,32.3-17.34,32.45-17.5l1.84-1.99l51,18.27l7.71-107.91l-260.62-48.76l-58.63,20.28
				c-2.09,0.72-3.53,2.46-3.84,4.65c-0.32,2.19,0.57,4.26,2.37,5.55c2.15,1.53,4.87,2.11,7.47,1.61l46.88-9.34l39.69,9.6
				L460.3,783.91c-1.22,0.46-2.15,1.38-2.61,2.6c-0.46,1.22-0.37,2.53,0.25,3.68c1.55,2.87,4.42,4.75,7.68,5.03l14.49,1.21
				l-19.26,9.69c-1.34,0.67-2.29,1.85-2.69,3.3c-0.39,1.45-0.16,2.94,0.65,4.21c0.07,0.08,3.92,5.04,11.15,4.97
				c10.3-0.27,38.12-10.34,47.98-14.2l1.35-0.53l49.62,15.7L523.25,847.11z" class="color080717 svgShape"/><g class="color000000 svgShape"><polygon fill="#fff" points="561.88 775.95 516.77 779.66 465.28 799.31" class="colorffffff svgShape"/><polygon fill="#1c1c1c" points="466.74 803.14 463.82 795.48 516.44 775.57 561.55 771.86 562.22 780.03 517.69 783.69" class="color080717 svgShape"/></g></g><g fill="#8aa2ff" class="color000000 svgShape"><path fill="#fff" d="M796.05,758.57l-8.48,116.12l267.65,82.4c78.99,24.32,162.63-20.58,186.01-99.86l0,0
			c12.79-43.38,5.1-90.23-20.89-127.25l-192.46-274.11c-22.81-32.48-60.01-51.82-99.7-51.82l0,0c-49.18,0-93.54,29.57-112.45,74.97
			l-14.28,34.27L796.05,758.57z" class="colorffffff svgShape"/><path fill="#1c1c1c" d="M1099.09,967.84c-15.08,0-30.24-2.26-45.08-6.83l-270.77-83.36l8.73-119.38l8.18,0.6l-8.24,112.87
			l264.52,81.44c37.15,11.43,76.47,7.61,110.71-10.78c34.24-18.39,59.16-49.04,70.15-86.32c12.51-42.43,5.11-87.53-20.31-123.73
			l-192.46-274.11c-22.02-31.36-58.03-50.08-96.35-50.08c-47.67,0-90.33,28.44-108.67,72.45l-14.28,34.27l-7.57-3.16l14.28-34.27
			c19.61-47.07,65.24-77.49,116.23-77.49c40.98,0,79.51,20.03,103.06,53.56l192.46,274.11c26.86,38.26,34.68,85.93,21.46,130.76
			c-11.62,39.4-37.95,71.8-74.14,91.23C1148.5,961.71,1123.91,967.84,1099.09,967.84z" class="color080717 svgShape"/></g><g fill="#8aa2ff" class="color000000 svgShape"><path fill="#fff" d="M1067.85,794.03l-271.93-36.28L1067.85,794.03z" class="colorffffff svgShape"/><rect width="8.2" height="274.34" x="927.78" y="638.72" fill="#1c1c1c" class="color080717 svgShape" transform="rotate(-82.397 931.93 775.892)"/></g><g fill="#8aa2ff" class="color000000 svgShape"><path fill="#fff" d="M1012.4,787.66L897.86,631.31L1012.4,787.66z" class="colorffffff svgShape"/><path fill="#1c1c1c" d="M1012.4,791.76c-1.26,0-2.51-0.58-3.31-1.68L894.56,633.74c-1.34-1.83-0.94-4.39,0.88-5.73
			c1.82-1.34,4.38-0.95,5.73,0.88l114.54,156.35c1.34,1.83,0.94,4.39-0.89,5.73C1014.09,791.5,1013.24,791.76,1012.4,791.76z" class="color080717 svgShape"/></g></svg>