<svg xmlns="http://www.w3.org/2000/svg" enable-background="new 0 0 700 700" viewBox="0 0 700 580"><path fill="#6686ff" d="M429.9366455,575.4534302c-0.5715027,1.6729126-2.1405029,2.815979-3.8965454,2.815979h-57.9596863       c-7.9489746,0-14.1419067-6.8995361-13.3002319-14.7964478l1.1014709-11.6585083l1.0390625-11.0037842h37.3859863       l-1.6521606,9.0296021c1.4173279-0.1817017-5.1343079,0.6581421,13.8613281-1.7768555       c9.715332-1.6313477,18.1422424,3.47052,22.1115112,11.0038452       C431.4066467,564.3292236,431.722229,570.2437134,429.9366455,575.4534302z" class="color6680ff svgShape"/><path d="M356.6261597,571.776062c2.3291016,3.8605347,6.5557556,6.4865112,11.449646,6.4865112h57.9638672       c1.7637329,0,3.3256531-1.1330566,3.8950806-2.8022461c0.418335-1.2263184,0.7029724-2.4573975,0.8846436-3.6842651       H356.6261597z" class="color000000 svgShape"/><path fill="#6686ff" d="M166.6288147,541.4899902l-9.022583-1.6520996l1.7702026,13.8610229       c0.1502075,0.9118652,0.2467346,1.8131104,0.2789459,2.7035522       c0.6403656,14.651123-13.9259186,25.4108276-27.6792297,20.7164917       c-1.6736298-0.5686646-2.8000946-2.1242676-2.8000946-3.8944092v-57.9653931       c0-7.9389648,6.8983307-14.1399841,14.7944641-13.29245l22.6582947,2.1349792V541.4899902z" class="color6680ff svgShape"/><path d="M135.6597443,503.8126221c-3.8605499,2.3291016-6.4865265,6.5557251-6.4865265,11.449646v57.9638672       c0,1.7637329,1.1330109,3.3256226,2.8022461,3.8950806c1.2263184,0.418335,2.4573669,0.7030029,3.6842804,0.8846436       V503.8126221z" class="color000000 svgShape"/><path fill="#fff" d="M570.144043,183.7848358v150.8837433c0,13.6679688-11.0717163,24.7503357-24.7503662,24.7503357       H305.3465576c-13.6679077,0-24.7395935-11.0823669-24.7395935-24.7503357V183.7848358H570.144043z" class="colorffffff svgShape"/><path d="M545.394043,359.7689514h-240.047821c-13.8339844,0-25.0888672-11.2600098-25.0888672-25.1003418V183.7848206       c0-0.1933594,0.15625-0.3500977,0.3496094-0.3500977H570.144043c0.1933594,0,0.3496094,0.1567383,0.3496094,0.3500977       v150.8837891C570.4936523,348.5089417,559.2338867,359.7689514,545.394043,359.7689514z M280.9565735,184.1349182v150.5336914       c0,13.4543457,10.9414063,24.4001465,24.3896484,24.4001465h240.047821       c13.4541016,0,24.4003906-10.9458008,24.4003906-24.4001465V184.1349182H280.9565735z" class="color000000 svgShape"/><path fill="#fff" d="M570.1485596,183.7820892v-26.529129c0-13.6687012-11.0809326-24.7496185-24.7496338-24.7496185       H305.3513794c-13.6688538,0-24.7496338,11.0809174-24.7496338,24.7496185v26.529129H570.1485596z" class="colorffffff svgShape"/><path d="M570.1489258,184.1322327H280.6020813c-0.1933594,0-0.3496094-0.1567383-0.3496094-0.3500977v-26.5290527       c0-13.8400879,11.2587891-25.0998535,25.0986328-25.0998535h240.047821       c13.8398438,0,25.0996094,11.2597656,25.0996094,25.0998535v26.5290527       C570.4985352,183.9754944,570.3422852,184.1322327,570.1489258,184.1322327z M280.9516907,183.4320374h288.8476257v-26.1789551       c0-13.4541016-10.9462891-24.3996582-24.4003906-24.3996582h-240.047821       c-13.4541016,0-24.3994141,10.9455566-24.3994141,24.3996582V183.4320374z" class="color000000 svgShape"/><path d="M324.7827454,155.0111389c-0.1933594,0-0.3496094-0.1567383-0.3496094-0.3500977V122.080719       c0-0.1933594,0.15625-0.3500977,0.3496094-0.3500977s0.3496094,0.1567383,0.3496094,0.3500977v32.5803223       C325.1323547,154.8544006,324.9761047,155.0111389,324.7827454,155.0111389z" class="color000000 svgShape"/><path d="M365.02005,155.0111389c-0.1933594,0-0.3496094-0.1567383-0.3496094-0.3500977V122.080719       c0-0.1933594,0.15625-0.3500977,0.3496094-0.3500977s0.3496094,0.1567383,0.3496094,0.3500977v32.5803223       C365.3696594,154.8544006,365.2134094,155.0111389,365.02005,155.0111389z" class="color000000 svgShape"/><path d="M405.2563782,155.0111389c-0.1933594,0-0.3496094-0.1567383-0.3496094-0.3500977V122.080719       c0-0.1933594,0.15625-0.3500977,0.3496094-0.3500977s0.3496094,0.1567383,0.3496094,0.3500977v32.5803223       C405.6059875,154.8544006,405.4497375,155.0111389,405.2563782,155.0111389z" class="color000000 svgShape"/><path d="M445.4936829,155.0111389c-0.1933594,0-0.3496094-0.1567383-0.3496094-0.3500977V122.080719       c0-0.1933594,0.15625-0.3500977,0.3496094-0.3500977s0.3496094,0.1567383,0.3496094,0.3500977v32.5803223       C445.8432922,154.8544006,445.6870422,155.0111389,445.4936829,155.0111389z" class="color000000 svgShape"/><path d="M485.730011,155.0111389c-0.1933594,0-0.3496094-0.1567383-0.3496094-0.3500977V122.080719       c0-0.1933594,0.15625-0.3500977,0.3496094-0.3500977s0.3496094,0.1567383,0.3496094,0.3500977v32.5803223       C486.0796204,154.8544006,485.9233704,155.0111389,485.730011,155.0111389z" class="color000000 svgShape"/><path d="M525.9672852,155.0111389c-0.1933594,0-0.3496094-0.1567383-0.3496094-0.3500977V122.080719       c0-0.1933594,0.15625-0.3500977,0.3496094-0.3500977s0.3496094,0.1567383,0.3496094,0.3500977v32.5803223       C526.3168945,154.8544006,526.1606445,155.0111389,525.9672852,155.0111389z" class="color000000 svgShape"/><path fill="#86b5ff" d="M439.2529602,209.3522949v19.0922089c0,2.9825592-2.4178467,5.4003906-5.4003906,5.4003906h-19.085083       c-2.9825439,0-5.4003906-2.4178314-5.4003906-5.4003906v-19.0922089c0-2.9825592,2.4178467-5.4003906,5.4003906-5.4003906       h19.085083C436.8351135,203.9519043,439.2529602,206.3697357,439.2529602,209.3522949z" class="colorffa186 svgShape"/><path fill="#d7e6fe" d="M490.0815125,209.3522949v19.0922089c0,2.9825592-2.4178467,5.4003906-5.4003906,5.4003906h-19.085083       c-2.9825439,0-5.4003906-2.4178314-5.4003906-5.4003906v-19.0922089c0-2.9825592,2.4178467-5.4003906,5.4003906-5.4003906       h19.085083C487.6636658,203.9519043,490.0815125,206.3697357,490.0815125,209.3522949z" class="colorcad5ff svgShape"/><path fill="#d7e6fe" d="M540.9100342,209.3522949v19.0922089c0,2.9825592-2.4178467,5.4003906-5.4003906,5.4003906h-19.085083       c-2.9825439,0-5.4003601-2.4178314-5.4003601-5.4003906v-19.0922089c0-2.9825592,2.4178162-5.4003906,5.4003601-5.4003906       h19.085083C538.4921875,203.9519043,540.9100342,206.3697357,540.9100342,209.3522949z" class="colorcad5ff svgShape"/><path fill="#d7e6fe" d="M337.5958862,255.3724976v19.0921936c0,2.9825745-2.4178467,5.4003906-5.4003906,5.4003906h-19.085083       c-2.9825439,0-5.4003906-2.4178162-5.4003906-5.4003906v-19.0921936c0-2.9825592,2.4178467-5.4003906,5.4003906-5.4003906       h19.085083C335.1780396,249.9721069,337.5958862,252.3899384,337.5958862,255.3724976z" class="colorcad5ff svgShape"/><path fill="#7586c6" d="M388.424408,255.3724976v19.0921936c0,2.9825745-2.4178162,5.4003906-5.4003906,5.4003906h-19.0850525       c-2.9825745,0-5.4003906-2.4178162-5.4003906-5.4003906v-19.0921936c0-2.9825592,2.4178162-5.4003906,5.4003906-5.4003906       h19.0850525C386.0065918,249.9721069,388.424408,252.3899384,388.424408,255.3724976z" class="color75c675 svgShape"/><path fill="#d7e6fe" d="M439.2529602,255.3724976v19.0921936c0,2.9825745-2.4178467,5.4003906-5.4003906,5.4003906h-19.085083       c-2.9825439,0-5.4003906-2.4178162-5.4003906-5.4003906v-19.0921936c0-2.9825592,2.4178467-5.4003906,5.4003906-5.4003906       h19.085083C436.8351135,249.9721069,439.2529602,252.3899384,439.2529602,255.3724976z" class="colorcad5ff svgShape"/><path fill="#86b5ff" d="M490.0815125,255.3724976v19.0921936c0,2.9825745-2.4178467,5.4003906-5.4003906,5.4003906h-19.085083       c-2.9825439,0-5.4003906-2.4178162-5.4003906-5.4003906v-19.0921936c0-2.9825592,2.4178467-5.4003906,5.4003906-5.4003906       h19.085083C487.6636658,249.9721069,490.0815125,252.3899384,490.0815125,255.3724976z" class="colorffa186 svgShape"/><path fill="#d7e6fe" d="M540.9100342,255.3724976v19.0921936c0,2.9825745-2.4178467,5.4003906-5.4003906,5.4003906h-19.085083       c-2.9825439,0-5.4003601-2.4178162-5.4003601-5.4003906v-19.0921936c0-2.9825592,2.4178162-5.4003906,5.4003601-5.4003906       h19.085083C538.4921875,249.9721069,540.9100342,252.3899384,540.9100342,255.3724976z" class="colorcad5ff svgShape"/><path fill="#d7e6fe" d="M337.5958862,301.3927002v19.0921936c0,2.9825439-2.4178467,5.4003906-5.4003906,5.4003906h-19.085083       c-2.9825439,0-5.4003906-2.4178467-5.4003906-5.4003906v-19.0921936c0-2.9825745,2.4178467-5.4003906,5.4003906-5.4003906       h19.085083C335.1780396,295.9923096,337.5958862,298.4101257,337.5958862,301.3927002z" class="colorcad5ff svgShape"/><path fill="#d7e6fe" d="M388.424408,301.3927002v19.0921936c0,2.9825439-2.4178162,5.4003906-5.4003906,5.4003906h-19.0850525       c-2.9825745,0-5.4003906-2.4178467-5.4003906-5.4003906v-19.0921936c0-2.9825745,2.4178162-5.4003906,5.4003906-5.4003906       h19.0850525C386.0065918,295.9923096,388.424408,298.4101257,388.424408,301.3927002z" class="colorcad5ff svgShape"/><path fill="#d7e6fe" d="M439.2529602,301.3927002v19.0921936c0,2.9825439-2.4178467,5.4003906-5.4003906,5.4003906h-19.085083       c-2.9825439,0-5.4003906-2.4178467-5.4003906-5.4003906v-19.0921936c0-2.9825745,2.4178467-5.4003906,5.4003906-5.4003906       h19.085083C436.8351135,295.9923096,439.2529602,298.4101257,439.2529602,301.3927002z" class="colorcad5ff svgShape"/><path fill="#d7e6fe" d="M490.0815125,301.3927002v19.0921936c0,2.9825439-2.4178467,5.4003906-5.4003906,5.4003906h-19.085083       c-2.9825439,0-5.4003906-2.4178467-5.4003906-5.4003906v-19.0921936c0-2.9825745,2.4178467-5.4003906,5.4003906-5.4003906       h19.085083C487.6636658,295.9923096,490.0815125,298.4101257,490.0815125,301.3927002z" class="colorcad5ff svgShape"/><path fill="#fff" d="M405.4099731,540.8141479h-53.8027039c0,0,12.7881775-87.3074646-7.6493225-82.1042175       c-17.0733032,4.3643799-29.2025452,13.8768616-45.1235046,19.1608887       c-4.9028625,1.6414185-10.1812134,2.8752136-16.0710754,3.4331055l-9.022583-75.9568787       c11.8119202-4.5380859,110.4485168-41.2720032,132.1198425-8.3466492       C428.915863,432.0392151,405.4099731,540.8141479,405.4099731,540.8141479z" class="colorffffff svgShape"/><path d="M405.4096985,541.1641846h-53.8027344c-0.214386,0-0.3771362-0.1917114-0.3466797-0.4008789       c0.1025391-0.6948242,10.0361328-69.6042175-2.0722656-80.5160828       c-1.4599609-1.3161621-3.1425781-1.7077637-5.1445313-1.1982422       c-9.1882629,2.3493042-16.7652588,6.1057739-25.2578125,10.3833008       c-6.2509766,3.1494141-12.7158203,6.4060059-19.8408203,8.770752       c-5.3818359,1.8015137-10.6640625,2.9299316-16.1484375,3.4492188       c-0.2128906,0.0209961-0.3583984-0.1188965-0.3808594-0.3071289l-9.0224609-75.9567871       c-0.0185547-0.1589355,0.0722656-0.3105469,0.2216797-0.3679199       c11.2705078-4.3293457,110.7314453-41.3452148,132.5380859-8.2124023       c22.8710938,34.7595215-0.1660156,142.9909363-0.4013672,144.0800476       C405.7173157,541.0491943,405.5747375,541.1641846,405.4096985,541.1641846z M352.011261,540.4639893h53.1152344       c1.2890625-6.1279297,22.5878906-109.6130066,0.4423828-143.2712097       c-21.3554688-32.4428711-119.078125,3.6494141-131.4482422,8.3835449l8.9501953,75.3459473       c5.3085938-0.5283203,10.4326172-1.6359863,15.6523438-3.3833008c7.0771484-2.348877,13.5185547-5.59375,19.7480469-8.7316895       c8.5211792-4.2932129,16.1445923-8.0706787,25.3994141-10.4365234       c2.2177734-0.5644531,4.1621094-0.1066895,5.7861328,1.3564453       C361.6860657,470.5682678,352.9077454,534.208374,352.011261,540.4639893z" class="color000000 svgShape"/><path d="M384.0845032,525.4825439c-0.0283203,0-0.0576172-0.0036621-0.0869141-0.0112305       c-0.1875-0.0480957-0.2998047-0.2387695-0.2519531-0.4260254c0.1191406-0.465332,11.828125-46.9916687,0.0029297-87.5348816       c-2.3095703-7.9196777-7.1220703-13.6245117-14.3027344-16.9562988       c-24.6933594-11.4572754-69.9814453,8.4121094-70.4365234,8.6137695       c-0.1767578,0.078125-0.3837891-0.0004883-0.4628906-0.1777344c-0.078125-0.1765137,0.0019531-0.3835449,0.1777344-0.4619141       c0.4589844-0.203125,46.0390625-20.197998,71.015625-8.609375c7.3720703,3.4204102,12.3115234,9.2731934,14.6806641,17.395752       c11.8798828,40.7307129,0.1230469,87.4379578,0.0029297,87.9049988       C384.3823547,525.3775635,384.2407532,525.4825439,384.0845032,525.4825439z" class="color000000 svgShape"/><path d="M333.15448,462.3039551c-11.8763123,4.8063049-21.9395447,11.4578857-34.3200378,15.566864l-1.3946838-55.3476563       L333.15448,462.3039551z" class="color000000 svgShape"/><path fill="#6686ff" d="M339.7077637,377.6076965c0,0-20.4914551-6.4907837-38.0708313-15.4711304h-8.5878601       l-26.9335327,29.8327026c12.2398682,10.3372192,50.7263489,21.7044983,50.7263489,21.7044983       C325.3709412,417.7660522,348.2368469,381.6999817,339.7077637,377.6076965z" class="color6680ff svgShape"/><path fill="#fff" d="M216.9535675,420.1166687c4.0723267,24.8166199,7.2215271,40.9845886,26.6086121,66.4821777       c12.2003326,16.0457153-76.8442078,11.9198303-76.8442078,11.9198303v51.9197998       c0,0,108.9182892,8.6444092,142.3158722-16.7304688c31.3852234-23.8459778-11.5758057-116.2601929-16.9099426-127.7352905       L216.9535675,420.1166687z" class="colorffffff svgShape"/><path d="M207.5766754,552.1583252c-22.9716797,0.0002441-40.4511719-1.3366699-40.8857422-1.3710938       c-0.1826172-0.0144043-0.3222656-0.1662598-0.3222656-0.348877v-51.9196472       c0-0.1969604,0.1625671-0.3572083,0.3662109-0.3496094c0.7158203,0.0332031,71.7138672,3.1965332,77.3007813-7.4421387       c0.6113281-1.1652832,0.3652344-2.4462891-0.7519531-3.9162598       c-19.140625-25.1733398-22.4589844-40.9389648-26.6757813-66.6374512c-0.0302734-0.1875,0.09375-0.3654785,0.28125-0.4006348       l75.1699371-14.1437988c0.15625-0.03125,0.3134766,0.0512695,0.3818359,0.1965332       c11.3583984,24.4306641,46.1376953,105.8745117,16.8046875,128.1613464       C289.3315735,549.1170654,242.2153473,552.1578369,207.5766754,552.1583252z M167.0678864,550.1138916       c6.5830078,0.486084,109.7392731,7.6396484,141.7539215-16.6845703       c28.8203125-21.8964539-5.4814453-102.4548035-16.9013672-127.0622253l-74.5664215,14.0302734       c4.1738281,25.3901367,7.5302734,41.0585938,26.4863281,65.989502c1.28125,1.6850586,1.5556641,3.2546387,0.8144531,4.6655273       c-5.6386719,10.7392578-71.4199219,8.1035156-77.5869141,7.8325195V550.1138916z" class="color000000 svgShape"/><path d="M229.320816,534.43396c-25.8505859,0.0009766-46.6015625-5.2246094-46.9121094-5.3046875       c-0.1875-0.0480957-0.2998047-0.2387695-0.2519531-0.4260254c0.0488281-0.1865234,0.234375-0.3005371,0.4257813-0.251709       c0.4658203,0.1193848,46.9921875,11.828125,87.5361481,0.0029297c7.9199219-2.3100586,13.625-7.1223145,16.9560547-14.3032227       c11.4560547-24.6933289-8.4121094-69.9811707-8.6142578-70.4357605       c-0.078125-0.1765137,0.0019531-0.3833008,0.1777344-0.4619141c0.1767578-0.0778809,0.3837891,0.0002441,0.4628906,0.1777344       c0.203125,0.4575195,20.1972656,46.0361328,8.6083984,71.0146179       c-3.4199219,7.3723145-9.2724609,12.3115234-17.3955078,14.6804199       C256.6684875,533.1065674,242.3452301,534.4334717,229.320816,534.43396z" class="color000000 svgShape"/><path fill="#6686ff" d="M292.8343811,416.8512878c-13.2700195,1.6600342-25.5999756,4.4400024-36.8300171,7.7399902       l10.1100464,33.0500488c0,0-58.0200195,27.039978-97.710022,21.7299805       c-0.2600098-0.0300293-0.5200195-0.0700073-0.7800293-0.1199951       c-22.1085358-3.2063599-32.8181915-15.4164734-35.2599487-36.2200317       c-6.1799927-62.3399658,25.2599487-96.8699951,51.9799805-112.7299805       c13.6300049-8.0800171,24.3699951-13.1199951,57.1599731-19.0100098       C291.0444031,302.3612976,339.9543762,410.9112854,292.8343811,416.8512878z" class="color6680ff svgShape"/><polygon points="262.433 359.419 294.566 420.311 268.385 403.636" class="color000000 svgShape"/><path fill="#76abff" d="M349.200592,300.2321777L239.1234894,473.9057007l-11.8213654-7.4703979l110.0771179-173.6734924         c2.0628967-3.2643738,6.3814697-4.2383728,9.6458435-2.1755066l0.0000305,0.0000305         C350.2894897,292.6492004,351.2634888,296.967804,349.200592,300.2321777z" class="colorffc176 svgShape"/><path d="M238.937027,474.2015686l-11.8212891-7.470459c-0.1634979-0.1024475-0.2136078-0.3191223-0.109375-0.4831543         l110.0771637-173.6733398c2.1683655-3.4299011,6.6965027-4.4520569,10.1279297-2.2841797         c3.4228516,2.1625977,4.4472656,6.7062988,2.2851563,10.1286621v0.0002441L239.4194489,474.092926         C239.3139954,474.2575989,239.0982208,474.3040161,238.937027,474.2015686z M227.7856598,466.3265686l11.2294922,7.0964355         l109.8896637-173.3781738v0.0002441c1.9560547-3.0959473,1.0292969-7.206543-2.0664063-9.1628418         c-3.1025085-1.9602661-7.2023621-1.0377197-9.1630859,2.0666504L227.7856598,466.3265686z M349.2007141,300.2320862         h0.0087891H349.2007141z" class="color000000 svgShape"/><path fill="#fff" d="M361.0219421,307.7025452L250.9448395,481.3760681l-11.8213501-7.4703674L349.200592,300.2321777        c2.0628967-3.2643738,6.3815002-4.2383728,9.645874-2.1754761l0,0        C362.1108398,300.1195679,363.0848389,304.4381714,361.0219421,307.7025452z" class="colorffffff svgShape"/><path d="M250.758316,481.6720276c-12.4680328-7.9242859-11.9158936-7.421051-11.9765625-7.6896973        c-0.0205078-0.0905762-0.0039063-0.1855469,0.0458984-0.263916l110.0771637-173.6738281        c2.1683655-3.4294128,6.6985168-4.4520874,10.1279297-2.2836914        c3.4228516,2.1623535,4.4472656,6.7060547,2.2851563,10.1286621v0.0002441L251.2407379,481.563385        C251.1352844,481.7280579,250.9195099,481.7744751,250.758316,481.6720276z M239.6069489,473.7970276l11.2294922,7.0964355        l109.8896637-173.3781738v0.0002441c1.9560547-3.0961914,1.0292969-7.2067871-2.0664063-9.1628418        c-3.1018066-1.9603271-7.2024841-1.0377502-9.1630859,2.0664063L239.6069489,473.7970276z M361.0220032,307.7025452h0.0087891        H361.0220032z" class="color000000 svgShape"/><path fill="#76abff" d="M372.8433228,315.1729126L262.7662048,488.8464355l-11.8213654-7.4703674l110.0771027-173.6735229         c2.0628967-3.2643738,6.3815002-4.2383728,9.645874-2.1754761l0,0         C373.9321899,307.5899658,374.906189,311.9085388,372.8433228,315.1729126z" class="colorffc176 svgShape"/><path d="M262.5796204,489.1422424c-12.4681702-7.9241028-11.9159088-7.4208069-11.9765778-7.6894531         c-0.0205078-0.0905762-0.0039063-0.1855469,0.0458984-0.263916l110.0771637-173.673584         c2.1673584-3.4283447,6.6982727-4.4529724,10.1279297-2.2841797         c3.4228516,2.1625977,4.4472656,6.7062988,2.2851563,10.1289063v0.0002441L263.0620422,489.0335999         C262.9565735,489.1982727,262.7408142,489.2446899,262.5796204,489.1422424z M251.4282379,481.2674866l11.2295074,7.0961914         l109.8896484-173.3779297v0.0002441c1.9560547-3.0961914,1.0292969-7.2067871-2.0664063-9.1630859         c-3.1011047-1.9606628-7.2025757-1.037323-9.1630859,2.0666504L251.4282379,481.2674866z M372.8432922,315.1730042h0.0087891         H372.8432922z" class="color000000 svgShape"/><path fill="#fff" d="M262.7651672,488.8453979l-9.7655182,15.4532776        c-6.188446,9.7928162-19.1437988,12.7146912-28.9365845,6.5262451h-0.0000458        c-9.7927856-6.188446-12.7146912-19.1438293-6.5262451-28.936615l9.7655182-15.4532776L262.7651672,488.8453979z" class="colorffffff svgShape"/><path d="M223.8764801,511.1207581c-4.8154297-3.0429688-8.1582031-7.7790527-9.4111328-13.3354492        c-1.2529297-5.5566406-0.2675781-11.2687988,2.7753906-16.0839844l9.765625-15.4533691        c0.1035156-0.1635742,0.3203125-0.2114258,0.4824219-0.1088867l35.4629059,22.4104004        c0.1640625,0.1028137,0.2132263,0.3189697,0.109375,0.4829102l-9.7656403,15.4533691        C247.0134735,514.4260254,233.8165894,517.4020996,223.8764801,511.1207581z M227.4116364,466.9178772l-9.5791016,15.1574707        c-2.9433594,4.6572266-3.8964844,10.1816406-2.6845703,15.5559082        c1.2119141,5.3740234,4.4443359,9.9545898,9.1015625,12.8977051        c9.6142578,6.0754089,22.3789063,3.1962585,28.4541016-6.4172363l9.5791168-15.1574707L227.4116364,466.9178772z" class="color000000 svgShape"/><rect width="7.596" height="41.95" x="239.207" y="459.875" fill="#86b5ff" class="colorffa186 svgShape" transform="rotate(-57.71 243.005 480.85)"/><path d="M258.5210266,495.5621643l-35.4629059-22.4104004c-0.1640625-0.1032715-0.2128906-0.3195801-0.109375-0.4829102        l4.0576172-6.4208984c0.1065216-0.1676025,0.3254089-0.2097473,0.4824219-0.1088867l35.4629059,22.4104004        c0.1640625,0.1032715,0.2128906,0.3195801,0.109375,0.4829102l-4.0576172,6.4208984        C258.8966064,495.6213684,258.677948,495.6626587,258.5210266,495.5621643z M223.727066,472.7469788l34.871109,22.036377        l3.6845703-5.8291016l-34.871109-22.036377L223.727066,472.7469788z" class="color000000 svgShape"/><path fill="#fff" d="M373.9178772,311.2845154c-0.0370178-2.2610168-1.2039185-4.4644165-3.2501526-5.7575073       c-2.8349609-1.7915039-6.4638367-1.2910156-8.7232361,1.0087585l-0.2624512-0.1658325       c1.1173706-3.0639648-0.0257568-6.5375977-2.833313-8.3118286c-2.8406677-1.795105-6.4695435-1.2946167-8.7290344,1.005127       l-0.2623596-0.165802c1.1184082-3.066864-0.0214539-6.5348816-2.8333435-8.3117981       c-2.2930603-1.4490967-5.109314-1.4008484-7.2979126-0.1100464       c4.4939575-3.1706238,18.1045227-12.6329956,27.6144714-17.7662659       c4.7262878-2.553009,8.4358826-4.0402222,9.5151367-3.1586304       C380.2124939,272.2739563,374.607666,307.0174866,373.9178772,311.2845154z" class="colorffffff svgShape"/><path d="M373.917511,311.6346741c-0.0078125,0-0.0166016-0.0004883-0.0253906-0.0009766       c-0.1806641-0.0131836-0.3222656-0.1625977-0.3242188-0.3439941c-0.0329895-2.114624-1.1120911-4.218689-3.0869141-5.4667969       c-2.6259766-1.6591797-6.1103516-1.2563477-8.2861328,0.958252c-0.1162109,0.1174316-0.2958984,0.1391602-0.4365234,0.0505371       l-0.2626953-0.1657715c-0.1396484-0.0878906-0.1992188-0.2609863-0.1425781-0.4157715       c1.0378418-2.84021,0.0389404-6.1704102-2.6914063-7.8962402c-2.6269531-1.6608887-6.1162109-1.2609863-8.2919922,0.9545898       c-0.1171875,0.1176758-0.2988281,0.1379395-0.4365234,0.0505371l-0.2626953-0.1657715       c-0.1396484-0.0878906-0.1992188-0.2609863-0.1425781-0.4157715c1.0639954-2.9111328-0.0151062-6.2051392-2.6904297-7.8959961       c-2.1171875-1.3381348-4.7753906-1.3781738-6.9335938-0.1044922c-0.1611328,0.0947266-0.3701172,0.0458984-0.4716797-0.1115723       c-0.1015625-0.1577148-0.0615234-0.3676758,0.0917969-0.4758301       c4.0537109-2.859375,18.0244141-12.5925293,27.6503906-17.7883301c7.4082031-4.0004883,9.2011719-3.6967773,9.9033203-3.121582       c3.567627,2.8970337-2.0109253,37.0884705-2.8144531,42.060791       C374.2358704,311.5111389,374.0884094,311.6346741,373.917511,311.6346741z M370.8540344,305.2311096       c1.4570313,0.920166,2.5214844,2.2905273,3.0517578,3.9069824c0.6187744-3.9310913,5.7767944-36.8421021,2.7294922-39.3156738       c-0.4765625-0.390625-2.296875-0.494873-9.1289063,3.1948242       c-8.2880859,4.4743652-19.8271484,12.3359375-25.4189453,16.2304688c1.75-0.2907715,3.5673828,0.0585938,5.1230469,1.0419922       c2.7702942,1.7502441,3.9663086,5.0276489,3.1884766,8.0407715c2.4150391-2.0112305,5.9355469-2.2751465,8.6367188-0.5683594       c2.7810364,1.7580261,3.9596252,5.0462952,3.1884766,8.0407715       C364.6325378,303.7950134,368.151062,303.5224609,370.8540344,305.2311096z" class="color000000 svgShape"/><path d="M377.819397,279.267395c-2.1860962,0.4784241-4.5646973,0.1246643-6.606842-1.165863       c-2.0192261-1.276001-3.3476868-3.2411194-3.8720093-5.3922119c4.7262878-2.553009,8.4358826-4.0402222,9.5151367-3.1586304       C377.879364,270.3811646,378.0699158,274.1973877,377.819397,279.267395z" class="color000000 svgShape"/><path fill="#6686ff" d="M208.0430908,374.1425476c0,0-37.5696869,43.736145-26.9182434,56.2522888       c11.9418488,14.0324402,72.324173-14.1950684,72.324173-14.1950684l12.6665192,41.4443054       c0,0-41.0822754,18.2774658-57.0887451,18.9604492" class="color6680ff svgShape"/><path d="M209.0268707,476.9547424c-0.1865234,0-0.3417969-0.1472168-0.3496094-0.3352051       c-0.0087891-0.1931152,0.1416016-0.3564453,0.3349609-0.364502       c15.0634766-0.6428223,53.0088043-17.190918,56.6777496-18.8056641l-12.4580231-40.7626953       c-14.7886658,6.8347778-61.8002319,26.3573608-72.3740234,13.9350586       c-10.7216797-12.5991211,25.3779297-54.9121094,26.9199219-56.7072754       c0.125-0.1469727,0.3457031-0.1635742,0.4941406-0.0373535c0.1464844,0.1257324,0.1630859,0.3469238,0.0371094,0.4934082       c-0.3740234,0.4350586-37.2548828,43.6508789-26.9179688,55.7976074       c10.1661224,11.9431458,57.7686462-7.6731262,71.9091797-14.2854004       c0.1909332-0.0884399,0.4189148,0.0083618,0.4833984,0.2148438l12.6670074,41.4443359       c0.0517578,0.1691895-0.03125,0.3500977-0.1923828,0.4221191       C223.6721344,476.8855896,209.1287384,476.9210205,209.0268707,476.9547424z" class="color000000 svgShape"/><path fill="#fff" d="M256.6843262,426.0961914c2.8752747-2.6546631,12.1447754-12.9498596,15.2374268-12.4013062       c2.0476074,0.3651733-0.4737549,5.3034058-2.5151978,9.5293884c7.6343689-2.337677,15.0444946-4.0848694,17.083252-2.4395447       c2.6508484,2.1408691-6.5812073,5.5917969-10.1653748,6.7797241c7.6343994-2.337677,13.8625793-3.8670654,15.9013367-2.2217407       c2.6508484,2.1408691-6.8657227,5.6240845-10.4498901,6.8120117c5.4634705-1.4889526,9.0507507-2.0083923,10.6300964-0.7338257       c2.6508789,2.1408691-6.2273254,5.4118042-9.8114624,6.5997314c3.480957-0.7261353,5.9489136-0.8563232,7.1013794,0.0737305       c2.6508789,2.1408997-5.9969177,5.4898987-9.6112671,6.5825195       c-3.7964172,1.1476746-16.7319946,4.6268005-16.7319946,4.6268005       C262.5933228,446.6610413,265.9509277,458.3464661,256.6843262,426.0961914z" class="colorffffff svgShape"/><path d="M263.0171204,449.4002991c-0.2567139-0.8924255-5.0039673-17.4124146-6.671875-23.2165527       c-0.0322266-0.125,0.0068359-0.2573242,0.1015625-0.3447266c0.5849609-0.5405273,1.4560547-1.4182129,2.4638672-2.4345703       c5.2792969-5.3232422,10.6132813-10.4833984,13.0722656-10.0541992       c0.3984375,0.0712891,0.7001953,0.2878418,0.8730469,0.6264648c0.6767578,1.3271484-0.6621094,4.298584-2.7861328,8.6801758       c9.5791016-2.8859863,14.875-3.5671387,16.6396484-2.1445313c2.0391541,1.6465759-1.3933716,3.6764832-3.7421875,4.8110352       c4.7470703-1.1726074,7.9960938-1.4482422,9.4785156-0.2531738c2.364502,1.9100342-2.6734619,4.3473816-5.4736328,5.5285645       c2.5947266-0.4245605,4.5380859-0.3505859,5.6533203,0.5495605c2.611969,2.1088562-3.3829956,4.7607727-6.5078125,5.9799805       c1.8388672-0.1362305,3.0566406,0.0944824,3.7978516,0.6936035c3.131958,2.52948-5.8662109,6.0213013-9.7294922,7.1899414       c-3.7578125,1.1362305-16.6123047,4.5949707-16.7421875,4.6296387       C263.2640991,449.6907959,263.0707092,449.5872498,263.0171204,449.4002991z M263.5942688,448.8761292       c2.0507813-0.5527344,12.9814453-3.5039063,16.3886719-4.5341797       c2.7762756-0.8392334,11.7358704-4.1641235,9.4931641-5.9753418c-0.9550781-0.7717285-3.1191406-0.7727051-6.8105469-0.003418       c-0.1806641,0.0400391-0.3603516-0.0725098-0.4091797-0.251709c-0.0478516-0.1789551,0.0517578-0.3647461,0.2275391-0.4230957       c2.6943054-0.8930664,11.9143066-4.2092896,9.7021484-5.9953613       c-1.6396484-1.3215332-5.9277344-0.3972168-10.3183594,0.7993164       c-0.1845703,0.0505371-0.3710938-0.0551758-0.4267578-0.2365723c-0.0546875-0.1813965,0.0449219-0.3735352,0.2246094-0.4333496       c2.6591187-0.8814697,12.5304871-4.4354248,10.3408203-6.2075195       c-1.9628906-1.583252-8.6464844,0.1616211-15.5791016,2.2841797c-0.1816406,0.0566406-0.3769531-0.0454102-0.4355469-0.2285156       c-0.0585938-0.1826172,0.0410156-0.3781738,0.2226563-0.4384766c2.690094-0.8913879,12.2566833-4.3954163,10.0556641-6.1750488       c-1.5683594-1.2644043-7.2060547-0.4238281-16.7607422,2.5019531       c-0.2934265,0.0889893-0.5499268-0.2138977-0.4179688-0.4868164c1.0001221-2.0634766,3.8092651-7.4673767,3.1416016-8.7775879       c-0.0732422-0.1435547-0.1884766-0.222168-0.3730469-0.255127c-2.2558594-0.3925781-8.8955078,6.270752-12.4521484,9.8579102       c-0.9306641,0.9377441-1.7441406,1.7583008-2.3330078,2.3127441       C260.9325867,439.6225281,259.7457275,435.4961548,263.5942688,448.8761292z" class="color000000 svgShape"/><path fill="#fff" d="M335.6412964,387.5064087c0.1816101-3.6469116-6.7146606-15.1434021-9.6076965-15.6115417       c-1.9160461-0.3082275-1.2140808,4.8174438-0.7157593,9.1680908       c-6.0059814-4.4077148-11.9960327-8.2262878-14.2980957-7.4040833       c-2.9937134,1.0704346,4.0772095,6.9502869,6.8690491,9.0992737       c-6.0059814-4.4077148-11.0218811-7.6708679-13.3239441-6.8486633       c-2.9936829,1.0704346,4.3179016,7.0662537,7.1097412,9.2152405c-4.3547058-2.9922791-7.35495-4.5533447-9.1382446-3.9164124       c-2.9937134,1.0704346,3.8208313,6.6828613,6.6126709,8.8318481c-2.8429871-1.7104797-4.9769592-2.5843506-6.2782593-2.1195679       c-2.9937134,1.0704346,3.5938721,6.6807556,6.4416199,8.7550964c2.9911804,2.178833,9.9572144,7.6853943,13.9259949,6.881012       C335.1132813,401.1499023,335.6385803,387.5609436,335.6412964,387.5064087z" class="colorffffff svgShape"/><path d="M309.1059875,396.9586487c-3.0710144-2.2352295-9.9221191-8.0912781-6.3535156-9.3676758       c0.8310547-0.2966309,1.9140625-0.1533203,3.4208984,0.484375c-2.3669739-2.0401001-6.697937-6.1434021-3.7548828-7.1965332       c1.2373047-0.4414063,2.9179688,0.0544434,5.0009766,1.1665039c-2.0782776-1.8967285-5.6334229-5.5136719-2.9726563-6.465332       c1.6523438-0.5878906,4.375,0.6047363,8.1171875,3.0273438c-1.6894836-1.7163086-3.9353333-4.4646912-1.6621094-5.2780762       c1.9951172-0.7128906,6.4443359,1.5070801,13.9765625,6.9794922c-0.5195313-4.4904785-0.7792969-7.5056152,0.2294922-8.4702148       c0.2607422-0.2509766,0.5996094-0.3496094,0.9814453-0.2890625       c3.2285156,0.5222168,10.0830078,12.3322754,9.9013672,15.9743652l-0.3496094-0.0166016l0.3496094,0.0175781       c-0.0253906,0.5688477-0.7558594,13.9572754-12.6826172,16.375       C319.2745972,404.7175903,312.4252319,399.4125366,309.1059875,396.9586487z M302.9888,388.2501526       c-2.5013123,0.8933105,4.3802185,6.5775452,6.5292969,8.1425781c3.1210022,2.3076172,9.9194031,7.5805054,13.6513672,6.8210449       c11.3964844-2.3103027,12.0976563-15.173584,12.1220703-15.7199707c0-0.0007324,0-0.0041504,0-0.0046387       c0.1777344-3.5673828-6.6992188-14.8256836-9.3134766-15.2487793       c-0.2089844-0.0336914-0.3183594,0.0378418-0.3867188,0.1040039c-0.8378906,0.8022461-0.3779297,4.7727051-0.0087891,7.9631348       l0.0830078,0.7155762c0.0341187,0.3019409-0.3075256,0.5031128-0.5546875,0.3220215       c-7.5087891-5.510498-12.2089844-7.9868164-13.9726563-7.3566895       c-2.4524231,0.8758545,4.9035645,6.9058838,6.9648438,8.4924316c0.1513672,0.1169434,0.1806641,0.3344727,0.0654297,0.4875488       c-0.1152344,0.1535645-0.3320313,0.1848145-0.4863281,0.0720215       c-5.4501953-3.9990234-10.8017578-7.5883789-12.9990234-6.8012695       c-2.4393921,0.8696289,5.1524963,7.0283508,7.2050781,8.6081543c0.1494141,0.1157227,0.1806641,0.329834,0.0693359,0.4831543       s-0.3242188,0.1899414-0.4814453,0.0827637c-3.4921875-2.4003906-6.9755859-4.5334473-8.8212891-3.8752441       c-2.4630737,0.8792419,4.6426086,6.635376,6.7080078,8.2248535c0.1464844,0.1130371,0.1796875,0.3212891,0.0751953,0.4746094       c-0.1044922,0.152832-0.3105469,0.197998-0.4697266,0.1025391       C307.5552368,389.4898071,304.513916,387.7041016,302.9888,388.2501526z M335.9907532,387.5233459h0.0087891H335.9907532z" class="color000000 svgShape"/><path fill="#fff" d="M195.3766937,325.0007019c0,0-8.5995636-16.6177673-10.4639282-21.2013855        c-4.1550293-10.2153931-0.5993652-18.8673096,8.64711-22.6282654        c8.5932617-3.4952393,17.2002411-1.1157837,21.9045715,7.7071838c2.8918152,1.4623718,6.1802368,3.996521,6.2849884,5.3190308        c0.1089478,1.2682495-1.6669312,1.8072815-3.8471985,2.3525085c0.7931061,6.3062744,1.566391,11.7736511-7.5446777,16.8798523        l3.9108582,5.5470886l2.1962585,17.7216187L195.3766937,325.0007019z" class="colorffffff svgShape"/><path d="M195.2424011,273.3293457c0,0,11.6213989-14.640564,19.1325989-6.5072327        c12.8949127,13.9629517-10.2918243,17.4495239-19.6398621,18.391571s4.0948181,11.3096008-3.6928558,18.1855469        c-5.3945618,4.76297-5.4958038,4.76297-5.4958038,4.76297s-25.9577026-19.4751892-5.9566193-24.1079712        c0,0-9.3412933-8.1818848,0.158371-15.2110291S195.2424011,273.3293457,195.2424011,273.3293457z" class="color000000 svgShape"/><path d="M195.0659332,325.1615295c-0.0859375-0.1662598-8.6289063-16.6845703-10.4775391-21.2304688        c-4.2190552-10.3744507-0.6081085-19.2412415,8.8398438-23.0842285c9.1679688-3.7277832,17.6992188-0.75,22.2929688,7.7695313        c2.5332031,1.2998047,6.2480469,3.9196777,6.3769531,5.5532227c0.1347656,1.5695801-1.9765625,2.1811523-3.8105469,2.644043        c0.7861328,6.239502,1.3935547,11.6469727-7.4208984,16.7294922l3.6875,5.2319336        c0.1113281,0.157959,0.0732422,0.3764648-0.0849609,0.487793c-0.1552734,0.1101074-0.3759766,0.0742188-0.4873047-0.0844727        l-3.9101563-5.5471191c-0.1204529-0.1723938-0.0647583-0.4064636,0.1152344-0.5070801        c8.0339508-4.5029297,8.322937-8.947876,7.3671875-16.5307617c-0.0214844-0.1757813,0.0908203-0.340332,0.2626953-0.3833008        c2.0107422-0.5026855,3.6679688-0.9987793,3.5839844-1.9831543c-0.0830078-1.0476074-3.0449219-3.4941406-6.0947266-5.036377        c-0.0644531-0.0324707-0.1171875-0.0839844-0.1503906-0.1477051        c-4.3994141-8.2509766-12.6240234-11.1435547-21.4638672-7.5476074        c-8.9444733,3.6383362-12.5899048,12.0065918-8.4550781,22.1721191        c1.8369141,4.5166016,10.3642578,21.0063477,10.4501953,21.1723633        c0.0888672,0.1716309,0.0224609,0.3828125-0.1494141,0.4716797        C195.3622742,325.4015808,195.152359,325.3302612,195.0659332,325.1615295z" class="color000000 svgShape"/><path fill="#fff" d="M189.1228333,307.4192505c-2.8606415,1.1635437-6.1243896-0.2128906-7.2879639-3.0736084        c-1.1635742-2.8606873,0.2130127-6.1239624,3.0736542-7.2875061        C191.7594299,294.2715759,195.9806061,304.6299133,189.1228333,307.4192505z" class="colorffffff svgShape"/><path d="M181.5102692,304.4774475c-1.234375-3.0351563,0.2314453-6.5090332,3.2666016-7.7434082        c4.9304047-2.0065613,9.7496033,2.9884949,7.7138672,7.8137207c-0.6162109,1.4628906-1.765625,2.5979004-3.2363281,3.1958008        C186.2001648,308.9858704,182.737381,307.4944153,181.5102692,304.4774475z M185.0405426,297.3824768        c-2.6777344,1.0891113-3.9707031,4.1535645-2.8818359,6.8312988c1.0898438,2.6784668,4.1572266,3.9697266,6.8320313,2.8813477        c1.296875-0.5275879,2.3115234-1.5288086,2.8554688-2.8193359        C193.6530304,299.9890442,189.3480682,295.6294556,185.0405426,297.3824768z" class="color000000 svgShape"/><path d="M209.8644867,290.2926331c0.304718,0.749176-0.0549469,1.6015625-0.7972717,1.9035034        c-0.7490845,0.3046875-1.6016235-0.0546265-1.9063416-0.8038025c-0.3020172-0.7425232,0.057663-1.5949097,0.8067474-1.8995972        C208.7099457,289.1907959,209.5624695,289.5501099,209.8644867,290.2926331z" class="color000000 svgShape"/><path fill="#fff" d="M203.3504639,288.837677c0,0,2.1559906-3.9414368,6.6387634-1.7604675" class="colorffffff svgShape"/><path d="M203.1821442,289.144928c-0.1699219-0.0927734-0.2314453-0.3054199-0.1386719-0.4750977        c0.0234375-0.0422363,2.3720703-4.2053223,7.0986328-1.9072266c0.1738281,0.0844727,0.2460938,0.2939453,0.1611328,0.4677734        c-0.0839844,0.1743164-0.2910156,0.2460938-0.4677734,0.1616211        c-4.1308594-2.0117188-6.0976563,1.4645996-6.1787109,1.6137695        C203.5654144,289.1730042,203.3554535,289.238678,203.1821442,289.144928z" class="color000000 svgShape"/><path fill="#fff" d="M210.3843689,302.7271423c0,0,4.478363,2.0163269,7.8032379-0.6811829" class="colorffffff svgShape"/><path d="M213.9946442,303.8097229c-2.0195313,0-3.6416016-0.7126465-3.7539063-0.7634277        c-0.1767578-0.0793457-0.2548828-0.2861328-0.1757813-0.4624023c0.0791016-0.1765137,0.2841797-0.2548828,0.4628906-0.1760254        c0.0419922,0.019043,4.328125,1.8920898,7.4394531-0.6335449c0.1503906-0.1213379,0.3701172-0.0993652,0.4921875,0.0512695        c0.1220703,0.1501465,0.0996094,0.3706055-0.0507813,0.4921875        C216.9936676,303.4659729,215.3979645,303.8097229,213.9946442,303.8097229z" class="color000000 svgShape"/><path d="M210.3575592,313.4296265l-9.5082855-0.2347412c0,0,3.0710602,4.4048462,11.8296051,3.5272827        L210.3575592,313.4296265z" class="color000000 svgShape"/><path d="M210.4126129,317.1891174c-7.1152344,0-9.7324219-3.6242676-9.8505859-3.7939453        c-0.0751953-0.1081543-0.0839844-0.2497559-0.0214844-0.3659668s0.1933594-0.1828613,0.3173828-0.184082l9.5087891,0.2346191        c0.1103516,0.0026855,0.2138672,0.0576172,0.2773438,0.1481934l2.3212891,3.2924805        c0.1555939,0.2221985,0.0119476,0.5239258-0.2509766,0.5498047        C211.8999176,317.1520081,211.133316,317.1891174,210.4126129,317.1891174z M201.6616364,313.565094        c1.1494141,1.0888672,4.2871094,3.3173828,10.3808594,2.8613281l-1.8691406-2.6513672L201.6616364,313.565094z" class="color000000 svgShape"/><path d="M199.5659332,240.3954163l-18.2802734-9.4960938h-35.4238281        c-12.0166016,0-21.7929688-9.7702637-21.7929688-21.7792969c0-11.9922028,9.7069092-21.7929688,21.7929688-21.7929688        h52.3291016c12.0087891,0,21.7783203,9.7763672,21.7783203,21.7929688        c0,12.0090332-9.7695313,21.7792969-21.7783203,21.7792969h-1.6474609l3.5097656,9.059082        C200.1701355,240.2592926,199.848877,240.5436859,199.5659332,240.3954163z M145.8618317,188.0272522        c-11.631012,0-21.09375,9.418808-21.09375,21.0927734c0,11.6230469,9.4628906,21.0791016,21.09375,21.0791016h35.5097656        c0.0566406,0,0.1113281,0.0136719,0.1611328,0.0395508l17.5332031,9.1081543l-3.359375-8.6711426        c-0.0890198-0.2282562,0.0797119-0.4765625,0.3261719-0.4765625h2.1582031        c11.6230469,0,21.0791016-9.4560547,21.0791016-21.0791016c0-11.6306152-9.4560547-21.0927734-21.0791016-21.0927734        H145.8618317z" class="color000000 svgShape"/><path fill="#7586c6" d="M187.9095917,208.6062927c0,8.77211-7.111557,15.8838196-15.8838196,15.8838196       c-8.7848663,0-15.8964233-7.1117096-15.8964233-15.8838196c0-8.7849426,7.111557-15.8964996,15.8964233-15.8964996       C180.7980347,192.7097931,187.9095917,199.8213501,187.9095917,208.6062927z" class="color75c675 svgShape"/><path d="M169.8969879,211.8680725l-4.2578125-4.498291c-0.1328125-0.1403809-0.1269531-0.3618164,0.0136719-0.4946289       c0.1386719-0.1337891,0.3613281-0.1264648,0.4941406,0.0134277l4.0205078,4.2475586l7.7412109-7.138916       c0.1416016-0.1313477,0.3642578-0.1218262,0.4941406,0.0200195c0.1318359,0.1420898,0.1220703,0.3635254-0.0195313,0.4946289       l-7.9951172,7.3730469C170.2467651,212.0150757,170.02771,212.0071869,169.8969879,211.8680725z" class="color000000 svgShape"/><path d="M372.5639954,267.2709045l-4.2578125-4.4985352c-0.1328125-0.1403809-0.1269531-0.3618164,0.0136719-0.4946289       c0.1396484-0.1330566,0.3623047-0.1264648,0.4941406,0.0136719l4.0205078,4.2475586l7.7402344-7.1391602       c0.1416016-0.1313477,0.3642578-0.1220703,0.4941406,0.0200195c0.1318359,0.1420898,0.1220703,0.3635254-0.0195313,0.4946289       l-7.9941406,7.373291C372.9137573,267.4179077,372.6947021,267.4100037,372.5639954,267.2709045z" class="color000000 svgShape"/><path d="M429.8315735,223.8771057l-11.0351563-11.0349121c-0.1367188-0.1367188-0.1367188-0.3583984,0-0.4951172        s0.3574219-0.1367188,0.4941406,0l11.0351563,11.0349121c0.1367188,0.1367188,0.1367188,0.3583984,0,0.4951172        C430.1891785,224.0136414,429.9685669,224.0140991,429.8315735,223.8771057z" class="color000000 svgShape"/><path d="M418.7964172,223.8771057c-0.1367188-0.1367188-0.1367188-0.3583984,0-0.4951172l11.0351563-11.0349121        c0.1367188-0.1367188,0.3574219-0.1367188,0.4941406,0s0.1367188,0.3583984,0,0.4951172l-11.0351563,11.0349121        C419.1540222,224.0136414,418.9334106,224.0140991,418.7964172,223.8771057z" class="color000000 svgShape"/><path d="M481.0620422,269.6195374l-11.0341797-11.0349121c-0.1367188-0.1367188-0.1367188-0.3583984,0-0.4951172        s0.3574219-0.1367188,0.4941406,0l11.0341797,11.0349121c0.1367188,0.1367188,0.1367188,0.3583984,0,0.4951172        C481.4196472,269.756073,481.1990356,269.7565308,481.0620422,269.6195374z" class="color000000 svgShape"/><path d="M470.0278625,269.6195374c-0.1367188-0.1367188-0.1367188-0.3583984,0-0.4951172l11.0341797-11.0349121        c0.1367188-0.1367188,0.3574219-0.1367188,0.4941406,0s0.1367188,0.3583984,0,0.4951172l-11.0341797,11.0349121        C470.3854675,269.756073,470.164856,269.7565308,470.0278625,269.6195374z" class="color000000 svgShape"/><path fill="#d7e6fe" d="M331.7571716,158.1470184c0,3.844223-3.1212769,6.9654388-6.9740295,6.9654388       c-3.8526611,0-6.973938-3.1212158-6.973938-6.9654388c0-3.8527222,3.1212769-6.9740448,6.973938-6.9740448       C328.6358948,151.1729736,331.7571716,154.2942963,331.7571716,158.1470184z" class="colorcad5ff svgShape"/><path fill="#d7e6fe" d="M371.9939575,158.1470184c0,3.844223-3.1212769,6.9654388-6.9740295,6.9654388       c-3.8526611,0-6.973938-3.1212158-6.973938-6.9654388c0-3.8527222,3.1212769-6.9740448,6.973938-6.9740448       C368.8726807,151.1729736,371.9939575,154.2942963,371.9939575,158.1470184z" class="colorcad5ff svgShape"/><path fill="#d7e6fe" d="M412.2307434,158.1470184c0,3.844223-3.1212769,6.9654388-6.9740295,6.9654388       c-3.8526611,0-6.973938-3.1212158-6.973938-6.9654388c0-3.8527222,3.1212769-6.9740448,6.973938-6.9740448       C409.1094666,151.1729736,412.2307434,154.2942963,412.2307434,158.1470184z" class="colorcad5ff svgShape"/><path fill="#d7e6fe" d="M452.4675293,158.1470184c0,3.844223-3.1212769,6.9654388-6.973999,6.9654388       c-3.8526917,0-6.9739685-3.1212158-6.9739685-6.9654388c0-3.8527222,3.1212769-6.9740448,6.9739685-6.9740448       C449.3462524,151.1729736,452.4675293,154.2942963,452.4675293,158.1470184z" class="colorcad5ff svgShape"/><path fill="#d7e6fe" d="M492.7043152,158.1470184c0,3.844223-3.1212769,6.9654388-6.973999,6.9654388       c-3.8526917,0-6.9739685-3.1212158-6.9739685-6.9654388c0-3.8527222,3.1212769-6.9740448,6.9739685-6.9740448       C489.5830383,151.1729736,492.7043152,154.2942963,492.7043152,158.1470184z" class="colorcad5ff svgShape"/><path fill="#d7e6fe" d="M532.9411011,158.1470184c0,3.844223-3.1212769,6.9654388-6.973999,6.9654388       c-3.8526611,0-6.973938-3.1212158-6.973938-6.9654388c0-3.8527222,3.1212769-6.9740448,6.973938-6.9740448       C529.8198242,151.1729736,532.9411011,154.2942963,532.9411011,158.1470184z" class="colorcad5ff svgShape"/><path d="M407.9878235,525.635376H353.495636c-0.1933594,0-0.3496094-0.1567383-0.3496094-0.3500977       s0.15625-0.3500977,0.3496094-0.3500977h54.4921875c0.1933594,0,0.3496094,0.1567383,0.3496094,0.3500977       S408.1811829,525.635376,407.9878235,525.635376z" class="color000000 svgShape"/><path d="M182.4956207,551.6719971c-0.1933594,0-0.3496094-0.1567383-0.3496094-0.3500977v-52.3788757       c0-0.1933594,0.15625-0.3500977,0.3496094-0.3500977s0.3496094,0.1567383,0.3496094,0.3500977v52.3788757       C182.8452301,551.5152588,182.6889801,551.6719971,182.4956207,551.6719971z" class="color000000 svgShape"/><path d="M253.2592926,463.0704651l-16.8300781-39.7021484c-0.0751953-0.1779785,0.0078125-0.3835449,0.1855469-0.4589844       c0.1777344-0.0742188,0.3828125,0.0070801,0.4589844,0.1855469l16.8300781,39.7021484       c0.0751953,0.1779785-0.0078125,0.3835449-0.1855469,0.4589844       C253.5358582,463.3323364,253.3334808,463.2450562,253.2592926,463.0704651z" class="color000000 svgShape"/><path d="M250.9595032,428.1076965c0,1.5495605-1.2572632,2.8165283-2.8165894,2.8165283       c-1.5496368,0-2.8165894-1.2669678-2.8165894-2.8165283c0-1.5593872,1.2669525-2.8165894,2.8165894-2.8165894       C249.70224,425.2911072,250.9595032,426.5483093,250.9595032,428.1076965z" class="color000000 svgShape"/><path d="M428.6261597,559.0631104c-2.4889832,1.855957-5.5787354,2.9395142-8.9259949,2.9395142       c-7.8531799,0-14.3008728-6.0292969-14.9874878-13.7108765l1.8023376-0.2252197       C416.2349243,546.435791,424.6566772,551.5317383,428.6261597,559.0631104z" class="color000000 svgShape"/><path d="M159.6553802,556.4024658c0.4398346,10.0631714-6.3082886,18.3239746-15.0519257,20.9417114       C141.6538696,567.1346436,149.0605774,556.8319092,159.6553802,556.4024658z" class="color000000 svgShape"/><path d="M536.3208008,540.9630127c-0.0703125-0.0922852-7.0322266-9.2436523-9.8710938-10.7058105        c-7.5683594-3.8948975-12.041748-4.0726929-9.6298828-15.706543        c1.925293-9.2796021-1.3759766-10.8287964-6.1552429-11.3009949c-6.5152283-0.6424255-7.4931946-4.3710938-5.3193359-8.230957        c1.0042114-1.7826843,2.4172363-3.118927,3.4169922-4.7839355c2.9394226-4.8894958,0.922699-12.1090393-4.1347656-14.763916        c-2.2690735-1.1897888-5.0699768-1.5728455-7.5185547-2.6325684        c-3.6513672-1.5803223-6.3466797-4.7111816-7.0351563-8.1708984        c-0.7695313-3.8688965,1.2460938-8.0444336,4.5869141-9.5061035c3.8447266-1.684082,8.1435547,0.121582,11.8720703,1.9431152        c9.454071,4.6181641,20.1698914,9.8525391,27.257782,18.7519531        c6.4990234,8.1621094,9.8583984,19.5385742,9.4580078,32.0339355        c-0.2460938,7.6945496-0.8164063,16.6235046-3.1777344,24.5065613        c-0.5058594,1.6899414-2.7832031,8.1557617-2.8798828,8.4301758        C537.0585327,541.2000732,536.5634155,541.2817383,536.3208008,540.9630127z M495.0610657,456.077301        c-2.9277344,1.2810059-4.6875,4.9685059-4.0068359,8.3950195c0.6259766,3.142334,3.0976563,5.9963379,6.4511719,7.447998        c2.4389648,1.0550842,5.1386108,1.3812561,7.5869141,2.6650391        c5.5672607,2.9215393,7.7615662,10.7866211,4.5273438,16.1645508        c-1.0120544,1.6832581-2.4791565,3.1184998-3.4033203,4.7595215        c-1.8627625,3.3086853-1.2972107,6.1684875,4.5458984,6.7451172c5.415802,0.5339661,9.0814514,2.5519409,7.0370789,12.4989929        c-2.2404175,10.8016357,1.4676514,10.6792603,9.1074219,14.614502l0,0        c2.5722656,1.324707,7.8935547,8.0009766,9.6464844,10.2570801c0.6552734-1.8713379,2.1699219-6.2131348,2.5605469-7.5153809        c2.3271484-7.7727051,2.890625-16.6210938,3.1347656-24.2514343        c0.3935547-12.2583008-2.8886719-23.4023438-9.2412109-31.3789063        c-6.9462891-8.7231445-17.5546875-13.9047852-26.914032-18.4765625        C502.6727905,456.3312378,498.5541382,454.54953,495.0610657,456.077301z" class="color000000 svgShape"/><path d="M535.2514648,556.9024658c-0.305542,0-0.5390015-0.2703247-0.4960938-0.5708008        c4.9902344-34.9291992-2.9384766-57.3632507-10.4677734-70.0324402        c-8.1542969-13.71875-17.6093445-19.2624512-17.704071-19.3168945        c-0.2392578-0.1376953-0.3222656-0.4433594-0.1845703-0.6826172c0.1367188-0.2387695,0.4423828-0.3237305,0.6826172-0.1845703        c0.0966797,0.0551758,9.7411804,5.6965332,18.0312195,19.6149902        c7.6298828,12.8125,15.6689453,35.4862976,10.6328125,70.7431335        C535.7094727,556.7225342,535.4956055,556.9024658,535.2514648,556.9024658z" class="color000000 svgShape"/><path fill="#7586c6" d="M551.7175903,541.4678345c2.9507446,0.1139526,6.1734619,0.9767456,8.6751709-0.59198        c2.3704224-1.4863892,3.0778198-4.5331421,3.9650879-7.1865845c0.8873291-2.6534424,2.7186279-5.5678711,5.5164795-5.5723877        c2.6459351-0.0042725,5.1578369,2.6914063,7.5736084,1.6119995c1.4090576-0.6295776,2.0203857-2.3369141,2.022583-3.880249        s-0.4486084-3.0569458-0.4904785-4.5997314c-0.1282349-4.7259521,4.2479248-9.0856323,8.9733276-8.9395142        c2.1062012,0.0651245,4.1187134,0.8883057,6.2141113,1.1107178c2.8056641,0.2977905,5.8201294-0.6086426,7.6603394-2.7473145        c1.840271-2.1386414,2.2156372-5.5574951,0.5213623-7.8135376c-1.8963013-2.5249634-5.4628906-2.9255371-8.6149902-3.1142883        c-8.7011719-0.5209961-17.7401733-0.990387-25.8218994,2.2758484        c-8.2276001,3.3251648-14.6055298,10.2844238-18.7205811,18.1467896        c-2.9490356,5.6346436-4.845459,11.7503662-6.2489014,17.9343262        c-0.3095093,1.3635254-0.9527588,4.5612183-0.9527588,4.5612183s0.7901611,0.1567383,2.1392822,0.3833618        C546.7199097,543.4816284,549.0811768,541.3660278,551.7175903,541.4678345z" class="color75c675 svgShape"/><path d="M535.5151367,556.90271c-0.3482666,0-0.5949707-0.3516235-0.4658203-0.6821289        c19.5966797-50.1811218,54.4853516-50.9972839,54.8359375-50.9997253c0.0009766,0,0.0019531,0,0.0029297,0        c0.2744141,0,0.4980469,0.2214355,0.5,0.4963379c0.0019531,0.2758789-0.2207031,0.5014648-0.4960938,0.5036621        c-0.34375,0.0026855-34.5751953,0.8500977-53.9111328,50.3634949        C535.9038086,556.7818604,535.715332,556.90271,535.5151367,556.90271z" class="color000000 svgShape"/><path fill="#d7e6fe" d="M524.6291504,553.6578369c-1.7067261,0.3121948-3.5205078,0.6152344-5.1333618-0.0244751         c-6.0765991-2.4099731-2.588562-10.3084717-14.3590393-7.2036133         c-2.0280762,0.5349731-4.5539551,0.5925293-5.8238525-1.0768433         c-1.5509949-2.0388184-0.1429443-5.1813965-1.3544617-7.4385376         c-2.3845825-4.442627-9.3016968-0.8397827-10.8997803-0.2789307         c-1.8863525,0.6620483-4.038269,1.0301514-5.8369446,0.1575928c-2.3153992-1.123291-3.3127441-4.132019-2.6209717-6.6107788         c0.6917419-2.4787598,2.7521057-4.3983154,5.0788269-5.4979858s4.9179993-1.4884033,7.4734497-1.7926636         c4.3999023-0.5238647,8.8614807-0.8349609,13.2555237-0.2637939         c7.3330383,0.953125,14.3137512,4.4324951,19.4894104,9.7139893         c3.5604248,3.6333008,6.2503662,8.1027222,7.8444214,12.930603c0.5215454,1.5795288,1.5095215,7.4514771,1.5095215,7.4514771         S526.6382446,553.2904053,524.6291504,553.6578369z" class="colorcad5ff svgShape"/><path d="M534.8530273,556.6624756c-0.1748047-0.2885742-17.8583984-28.7956543-43.1152039-25.5256348         c-0.2861328,0.0366211-0.5244141-0.1577148-0.5605469-0.4316406         c-0.0351563-0.2739258,0.1582031-0.5246582,0.4316406-0.5600586         c25.8964539-3.3537598,43.9189148,25.7033691,44.0976257,25.9975586         c0.1435547,0.2358398,0.0693359,0.5432129-0.1669922,0.6867676         C535.3052979,556.9727173,534.996521,556.8989868,534.8530273,556.6624756z" class="color000000 svgShape"/><path d="M545.7299805,556.9024658h-19.6767578c-0.2763672,0-0.5-0.223877-0.5-0.5s0.2236328-0.5,0.5-0.5h19.6767578        c0.2763672,0,0.5,0.223877,0.5,0.5S546.0063477,556.9024658,545.7299805,556.9024658z" class="color000000 svgShape"/><g class="color000000 svgShape"><rect width="17.438" height="17.438" x="585.227" y="406.053" fill="#aebfff" class="color76c4ff svgShape" transform="rotate(-52.42 593.946 414.772)"/></g><g class="color000000 svgShape"><rect width="17.436" height="17.436" x="573.647" y="396.689" fill="#86b5ff" class="colorffa186 svgShape" transform="rotate(-.286 582.357 405.412)"/></g><g class="color000000 svgShape"><path d="M95.1421051,322.4532776c-2.5625-4.1582031-1.265625-9.6259766,2.8925781-12.1884766       c4.1572266-2.5617676,9.6220703-1.262207,12.1845703,2.895752c0.1015625,0.1645508,0.0507813,0.380127-0.1142578,0.4814453       c-0.1669922,0.1015625-0.3798828,0.0505371-0.4814453-0.1142578c-2.359375-3.8293457-7.3925781-5.0256348-11.2216797-2.6672363       c-3.8291016,2.3603516-5.0244141,7.3959961-2.6640625,11.2255859c0.1015625,0.1645508,0.0507813,0.380127-0.1142578,0.4814453       C95.4571075,322.6697998,95.243248,322.6168823,95.1421051,322.4532776z" class="color000000 svgShape"/></g><g class="color000000 svgShape"><path d="M466.8589172,407.1583557c-2.5625-4.157959-1.2646484-9.6257324,2.8935547-12.1882324       c4.1657104-2.5667114,9.6150513-1.2730408,12.1835938,2.8955078c0.1015625,0.1645508,0.0507813,0.380127-0.1142578,0.4814453       c-0.1660156,0.1018066-0.3798828,0.0500488-0.4814453-0.1142578       c-2.3644104-3.8358459-7.3832397-5.0330811-11.2207031-2.6669922       c-3.8291016,2.3603516-5.0253906,7.3959961-2.6650391,11.2253418c0.1015625,0.1645508,0.0507813,0.380127-0.1142578,0.4814453       C467.1738892,407.3748779,466.9600525,407.3219604,466.8589172,407.1583557z" class="color000000 svgShape"/></g><g class="color000000 svgShape"><path d="M233.2788239,149.8441467c-0.1171875,0-0.2314453-0.059082-0.2978516-0.1665039       c-1.2421875-2.0146484-1.625-4.3918457-1.078125-6.6933594c0.5458984-2.302002,1.9560547-4.253418,3.9707031-5.494873       c2.0126953-1.2412109,4.3867188-1.6228027,6.6904297-1.0761719c2.3017578,0.5466309,4.2529297,1.9572754,5.4941406,3.9716797       c0.1015625,0.1645508,0.0507813,0.380127-0.1142578,0.4814453c-0.1669922,0.1015625-0.3798828,0.0505371-0.4814453-0.1142578       c-1.1435547-1.8552246-2.9404297-3.1542969-5.0605469-3.657959s-4.3076172-0.1518555-6.1611328,0.9909668       c-3.8291016,2.3601074-5.0244141,7.395752-2.6640625,11.2253418c0.1015625,0.1645508,0.0507813,0.380127-0.1142578,0.4814453       C233.4048004,149.827301,233.3413239,149.8441467,233.2788239,149.8441467z" class="color000000 svgShape"/></g><g class="color000000 svgShape"><path d="M168.6144104,471.8913269c0,2.5499878-0.3400269,5.0199585-0.9900513,7.3599854      c-20.0606995-2.9093628-32.363266-13.8018494-34.9099731-34.1600342c2.5200195-0.75,5.1900024-1.1499634,7.9500122-1.1499634      C156.1044006,443.9413147,168.6144104,456.4513245,168.6144104,471.8913269z" class="color000000 svgShape"/></g><g class="color000000 svgShape"><polygon points="387.722 540.811 355.872 551.401 356.872 540.811" class="color000000 svgShape"/></g><g class="color000000 svgShape"><polygon points="156.411 503.111 156.6 503.73 166.629 536.573 166.543 504.066" class="color000000 svgShape"/></g></svg>