<svg width="250" height="229" viewBox="0 0 250 229" fill="none" xmlns="http://www.w3.org/2000/svg">
<g clip-path="url(#clip0_620_375)">
<path d="M224.154 113.224C224.68 110.224 225.524 107.251 226.128 104.194C227.28 98.3432 227.241 92.2193 226.38 86.3236C224.691 74.8162 219.825 63.8766 213.148 54.9579C205.782 45.1151 194.704 37.1595 182.786 40.1547C170.393 43.2723 159.901 52.7867 147.849 57.1291C127.436 64.4779 106.771 51.0831 86.1961 51.5285C68.4396 51.9127 49.7995 58.2593 38.0998 73.9533C33.3181 80.3611 29.9961 89.0126 31.1258 97.4747C32.5072 107.813 40.1243 115.68 45.812 123.329C54.5252 135.053 57.8193 147.797 50.493 161.503C45.538 170.778 38.8716 178.973 39.4476 190.492C40.3704 208.919 57.4614 220.048 71.5547 225.014C85.8661 230.058 102.129 230.603 116.363 224.903C129.007 219.836 137.832 208.741 149.325 201.687C159.672 195.335 171.466 192.897 183.166 194.294C195.347 195.747 208.182 198.291 219.954 193.069C231.218 188.07 236.553 174.67 236.972 161.837C237.179 155.435 236.256 148.949 234.12 142.992C231.508 135.721 225.726 130.054 224.104 122.338C223.438 119.187 223.645 116.186 224.16 113.219L224.154 113.224Z" fill="#D6D6D6"/>
<path d="M152.222 222.693L223.628 196.02L224.148 190.33L153.257 217.003L152.222 222.693Z" fill="#CDCDCD" stroke="#999CA2" stroke-width="1.14" stroke-linecap="round" stroke-linejoin="round"/>
<path d="M140.193 128.401C138.962 128.401 137.771 127.972 136.759 127.153C135.556 126.185 134.762 124.782 134.516 123.201C134.427 122.611 134.835 122.054 135.428 121.965C136.015 121.87 136.58 122.277 136.669 122.872C136.832 123.919 137.352 124.843 138.129 125.472C138.878 126.073 139.773 126.335 140.668 126.196C141.557 126.062 142.335 125.545 142.866 124.743C143.196 124.242 143.873 124.108 144.376 124.437C144.879 124.765 145.019 125.439 144.684 125.94C143.811 127.259 142.502 128.111 140.998 128.339C140.73 128.378 140.461 128.401 140.193 128.401Z" fill="#999CA2"/>
<path d="M129.886 131.563C127.128 131.563 124.668 129.38 124.198 126.363C124.108 125.773 124.517 125.216 125.109 125.127C125.697 125.032 126.262 125.444 126.351 126.035C126.681 128.156 128.471 129.648 130.35 129.358C131.239 129.225 132.016 128.707 132.548 127.905C132.878 127.404 133.554 127.265 134.058 127.599C134.561 127.927 134.701 128.601 134.365 129.102C133.493 130.421 132.184 131.273 130.68 131.502C130.411 131.541 130.148 131.563 129.886 131.563Z" fill="#999CA2"/>
<path d="M120.462 135.176C119.231 135.176 118.035 134.747 117.028 133.929C115.825 132.96 115.031 131.557 114.785 129.976C114.696 129.386 115.104 128.829 115.697 128.74C116.29 128.645 116.849 129.057 116.938 129.648C117.101 130.694 117.621 131.618 118.398 132.247C119.147 132.854 120.048 133.11 120.937 132.971C121.826 132.832 122.604 132.32 123.135 131.518C123.465 131.017 124.142 130.878 124.645 131.212C125.148 131.54 125.288 132.214 124.953 132.715C124.08 134.035 122.771 134.886 121.267 135.115C120.999 135.154 120.73 135.176 120.462 135.176Z" fill="#999CA2"/>
<path d="M110.149 138.11C107.392 138.11 104.931 135.928 104.462 132.91C104.372 132.32 104.78 131.763 105.373 131.674C105.966 131.58 106.525 131.992 106.615 132.582C106.945 134.703 108.734 136.195 110.613 135.905C111.503 135.772 112.286 135.254 112.811 134.452C113.141 133.951 113.818 133.812 114.321 134.146C114.825 134.474 114.964 135.148 114.629 135.649C113.756 136.969 112.448 137.82 110.943 138.049C110.675 138.088 110.412 138.11 110.149 138.11Z" fill="#999CA2"/>
<path d="M99.6013 142.291C96.8442 142.291 94.3834 140.108 93.9137 137.091C93.8242 136.501 94.2325 135.944 94.8253 135.855C95.4181 135.76 95.9773 136.172 96.0668 136.763C96.3968 138.884 98.1864 140.376 100.066 140.086C100.955 139.953 101.738 139.435 102.263 138.633C102.593 138.132 103.27 137.993 103.773 138.327C104.277 138.655 104.417 139.329 104.081 139.83C103.209 141.15 101.9 142.001 100.395 142.23C100.127 142.269 99.8642 142.291 99.6013 142.291Z" fill="#999CA2"/>
<path d="M89.3782 146.015C88.1479 146.015 86.9566 145.587 85.9444 144.768C84.742 143.799 83.9478 142.397 83.7018 140.815C83.6123 140.225 84.0205 139.669 84.6134 139.58C85.2062 139.49 85.7654 139.891 85.8549 140.487C86.0171 141.534 86.5372 142.458 87.3146 143.087C88.064 143.688 88.9644 143.95 89.8536 143.811C90.7428 143.677 91.5258 143.159 92.0515 142.358C92.3815 141.857 93.0582 141.717 93.5615 142.051C94.0648 142.38 94.2046 143.053 93.8691 143.555C92.9966 144.874 91.688 145.726 90.1836 145.954C89.9151 145.993 89.6467 146.015 89.3782 146.015Z" fill="#999CA2"/>
<path d="M154.174 219.224L213.271 197.551" stroke="#999CA2" stroke-width="0.57" stroke-linecap="round" stroke-linejoin="round"/>
<path d="M152.619 221.028L190.464 207.099" stroke="#999CA2" stroke-width="0.57" stroke-linecap="round" stroke-linejoin="round"/>
<path d="M81.062 143.51V150.235L152.222 222.692L153.257 217.003L81.062 143.51Z" fill="#CDCDCD" stroke="#999CA2" stroke-width="1.14" stroke-linecap="round" stroke-linejoin="round"/>
<path d="M82.1245 148.788L124.371 190.842" stroke="#999CA2" stroke-width="0.57" stroke-linecap="round" stroke-linejoin="round"/>
<path d="M102.079 166.848L146.143 211.742" stroke="#999CA2" stroke-width="0.57" stroke-linecap="round" stroke-linejoin="round"/>
<path d="M81.062 143.51L153.257 217.003L224.148 190.33L150.679 120.239L81.062 143.51Z" fill="white" stroke="#999CA2" stroke-width="1.14" stroke-linecap="round" stroke-linejoin="round"/>
<path d="M80.1839 142.352L13.3188 80.2275L81.8113 58.9663L150.147 119.137L80.1839 142.352Z" fill="#CDCDCD" stroke="#999CA2" stroke-width="1.14" stroke-linecap="round" stroke-linejoin="round"/>
<path d="M23.5532 80.6449L43.1273 74.5767" stroke="#999CA2" stroke-width="1.21" stroke-linecap="round" stroke-linejoin="round"/>
<path d="M26.439 82.8776L46.013 76.8093" stroke="#999CA2" stroke-width="1.21" stroke-linecap="round" stroke-linejoin="round"/>
<path d="M92.9628 144.039C92.7559 144.039 92.5489 143.983 92.3644 143.861C91.8611 143.532 91.7212 142.859 92.0568 142.358C92.6105 141.523 92.823 140.487 92.6608 139.44C92.4091 137.798 91.2571 136.479 89.803 136.156C89.2158 136.022 88.8466 135.443 88.9753 134.859C89.1095 134.274 89.6911 133.907 90.2783 134.035C92.5993 134.552 94.4225 136.59 94.8139 139.106C95.06 140.688 94.7245 142.263 93.8744 143.549C93.6675 143.866 93.3151 144.039 92.9628 144.039Z" fill="#999CA2"/>
<path d="M103.169 140.314C102.962 140.314 102.755 140.259 102.571 140.136C102.067 139.808 101.928 139.134 102.263 138.633C102.817 137.798 103.029 136.763 102.867 135.716C102.615 134.074 101.463 132.754 100.009 132.431C99.4221 132.298 99.053 131.719 99.1872 131.134C99.3159 130.55 99.8975 130.182 100.49 130.316C102.811 130.834 104.634 132.871 105.026 135.387C105.272 136.969 104.936 138.544 104.086 139.83C103.879 140.147 103.527 140.32 103.175 140.32L103.169 140.314Z" fill="#999CA2"/>
<path d="M143.777 126.424C143.57 126.424 143.363 126.369 143.179 126.246C142.676 125.918 142.536 125.244 142.871 124.743C143.425 123.908 143.637 122.872 143.475 121.826C143.224 120.183 142.072 118.864 140.617 118.541C140.03 118.407 139.661 117.828 139.79 117.244C139.918 116.659 140.506 116.292 141.093 116.42C143.414 116.938 145.237 118.975 145.628 121.492C145.874 123.073 145.539 124.648 144.689 125.934C144.482 126.252 144.13 126.424 143.777 126.424Z" fill="#999CA2"/>
<path d="M133.453 129.586C133.246 129.586 133.039 129.531 132.855 129.408C132.351 129.08 132.211 128.406 132.547 127.905C133.101 127.07 133.313 126.034 133.151 124.988C132.899 123.346 131.747 122.026 130.293 121.703C129.706 121.57 129.337 120.991 129.466 120.406C129.6 119.821 130.181 119.454 130.769 119.582C133.09 120.1 134.913 122.137 135.304 124.654C135.55 126.235 135.215 127.81 134.365 129.096C134.158 129.414 133.805 129.586 133.453 129.586Z" fill="#999CA2"/>
<path d="M124.041 133.2C123.834 133.2 123.627 133.144 123.443 133.022C122.939 132.693 122.799 132.019 123.135 131.518C123.689 130.683 123.901 129.648 123.739 128.601C123.487 126.959 122.335 125.639 120.881 125.316C120.294 125.183 119.925 124.604 120.053 124.019C120.188 123.435 120.769 123.067 121.356 123.195C123.677 123.713 125.501 125.751 125.892 128.267C126.138 129.848 125.803 131.424 124.953 132.71C124.746 133.027 124.393 133.2 124.041 133.2Z" fill="#999CA2"/>
<path d="M113.723 136.133C113.516 136.133 113.309 136.078 113.124 135.955C112.621 135.627 112.481 134.953 112.817 134.452C113.37 133.617 113.583 132.582 113.421 131.535C113.169 129.893 112.017 128.573 110.563 128.25C109.976 128.117 109.606 127.538 109.735 126.953C109.869 126.369 110.451 126.001 111.038 126.129C113.359 126.647 115.182 128.685 115.574 131.201C115.82 132.782 115.484 134.358 114.634 135.644C114.427 135.961 114.075 136.133 113.723 136.133Z" fill="#999CA2"/>
<path d="M210.502 188.638L213.254 187.63" stroke="#999CA2" stroke-width="0.57" stroke-linecap="round" stroke-linejoin="round"/>
<path d="M156.176 208.613L208.003 189.556" stroke="#999CA2" stroke-width="0.57" stroke-linecap="round" stroke-linejoin="round"/>
<path d="M157.63 200L207.091 181.818" stroke="#999CA2" stroke-width="0.57" stroke-linecap="round" stroke-linejoin="round"/>
<path d="M150.013 202.801L154.342 201.208" stroke="#999CA2" stroke-width="0.57" stroke-linecap="round" stroke-linejoin="round"/>
<path d="M143.855 196.989L200.928 176.006" stroke="#999CA2" stroke-width="0.57" stroke-linecap="round" stroke-linejoin="round"/>
<path d="M137.692 191.176L194.765 170.194" stroke="#999CA2" stroke-width="0.57" stroke-linecap="round" stroke-linejoin="round"/>
<path d="M186.208 165.267L188.608 164.387" stroke="#999CA2" stroke-width="0.57" stroke-linecap="round" stroke-linejoin="round"/>
<path d="M131.529 185.37L182.785 166.525" stroke="#999CA2" stroke-width="0.57" stroke-linecap="round" stroke-linejoin="round"/>
<path d="M125.372 179.558L182.444 158.575" stroke="#999CA2" stroke-width="0.57" stroke-linecap="round" stroke-linejoin="round"/>
<path d="M119.209 173.746L176.281 152.763" stroke="#999CA2" stroke-width="0.57" stroke-linecap="round" stroke-linejoin="round"/>
<path d="M113.046 167.933L170.124 146.95" stroke="#999CA2" stroke-width="0.57" stroke-linecap="round" stroke-linejoin="round"/>
<path d="M106.883 162.127L163.961 141.144" stroke="#999CA2" stroke-width="0.57" stroke-linecap="round" stroke-linejoin="round"/>
<path d="M155.779 136.072L157.798 135.332" stroke="#999CA2" stroke-width="0.57" stroke-linecap="round" stroke-linejoin="round"/>
<path d="M100.726 156.315L154.023 136.718" stroke="#999CA2" stroke-width="0.57" stroke-linecap="round" stroke-linejoin="round"/>
<path d="M111.603 144.239L151.635 129.52" stroke="#999CA2" stroke-width="0.57" stroke-linecap="round" stroke-linejoin="round"/>
<path d="M94.5625 150.502L105.585 146.449" stroke="#999CA2" stroke-width="0.57" stroke-linecap="round" stroke-linejoin="round"/>
<g style="mix-blend-mode:multiply">
<path d="M114.36 165.545C120.137 166.297 119.629 156.454 118.163 153.147C116.016 155.563 114.992 158.937 115.429 162.132C115.529 162.873 115.719 163.63 116.189 164.22C116.659 164.805 117.464 165.178 118.18 164.955C118.723 164.782 119.114 164.326 119.455 163.875C120.518 162.472 121.222 160.735 122.341 159.449C123.885 160.49 129.393 162.271 128.599 158.441C128.163 156.326 129.22 156.571 130.355 157.601C130.825 158.024 131.563 157.795 132.145 157.539C134.013 156.721 135.875 155.908 137.743 155.09C138.47 154.772 139.225 154.444 140.019 154.405C142.704 154.266 144.465 156.754 147.099 155.001C148.207 154.266 148.475 152.273 149.901 151.516C150.919 150.976 152.105 150.92 153.246 150.77C157.205 150.246 159.23 148.164 162.887 146.277" stroke="#CDCDCD" stroke-width="1.14" stroke-linecap="round" stroke-linejoin="round"/>
</g>
<g style="mix-blend-mode:multiply">
<path d="M118.846 171.686C121.01 172.048 122.861 170.082 124.774 169.448C127.218 168.635 128.286 167.644 130.635 166.636C133.733 165.311 137.38 164.699 136.736 160.028C136.295 161.693 136.244 163.535 135.903 165.283C138.414 166.525 139.096 164.398 139.354 162.483C140.377 162.472 140.892 162.283 141.82 161.988C141.814 162.338 141.932 162.734 141.921 163.073C143.129 163.558 143.593 163.229 143.85 162.166C145.187 161.915 145.662 160.668 146.792 160.362C147.083 163.485 147.877 166.219 147.692 169.409C145.55 169.988 145.215 166.291 145.757 164.76C146.328 163.146 147.927 162.283 148.52 160.601C148.643 160.802 148.548 161.047 148.615 161.269C151.305 159.666 154.773 160.1 157.435 158.224C158.273 157.634 158.872 156.454 159.761 156.042C161.691 155.151 162.272 156.198 163.715 154.099" stroke="#CDCDCD" stroke-width="1.14" stroke-linecap="round" stroke-linejoin="round"/>
</g>
<g style="mix-blend-mode:multiply">
<path d="M138.33 190.041C142.217 188.905 143.911 179.313 142.832 175.783C141.523 171.513 139.723 176.195 139.303 178.489C138.968 180.326 138.431 185.169 140.153 186.567C143.967 189.651 146.283 183.31 146.775 180.448C146.948 182.241 145.858 184.451 146.3 186.383C149.392 186.745 150.925 184.178 150.729 181.534C151.529 182.263 151.674 183.332 151.266 184.435C154.219 184.229 153.732 179.263 154.073 177.27C153.9 178.672 154.034 180.309 154.979 181.434C155.768 182.369 157.272 182.781 158.262 182.057C159.252 181.334 159.056 179.43 157.854 179.179C157.854 183.199 157.854 187.218 157.854 191.238C157.854 191.583 157.848 191.956 157.652 192.245C157.255 192.824 156.282 192.685 155.829 192.151C155.376 191.616 155.309 190.865 155.298 190.163C155.242 186.216 156.467 180.81 159.537 178.116C159.75 178.528 159.688 178.862 159.688 179.329C160.275 179.107 160.756 178.611 160.958 178.021C161.159 178.906 161.685 180.025 162.585 179.869C162.887 179.819 163.139 179.613 163.379 179.419C164.856 178.21 166.455 177.403 167.445 175.677C167.591 176.112 167.736 176.551 167.881 176.986C168.116 176.145 168.916 175.594 169.71 175.221C170.907 174.653 172.216 174.324 173.541 174.258C174.682 174.196 175.879 174.319 176.913 173.84C177.378 173.623 177.78 173.3 178.205 173.022C179.357 172.265 180.716 171.819 182.092 171.752" stroke="#CDCDCD" stroke-width="1.14" stroke-linecap="round" stroke-linejoin="round"/>
</g>
<path d="M92.253 84.2971C92.253 84.2971 101.179 73.1126 104.193 69.1042C107.208 65.1014 109.4 62.0227 109.4 62.0227C109.4 62.0227 111.011 63.2865 110.541 64.7228C110.071 66.1591 99.4339 80.5782 97.0571 84.2637C94.6802 87.9436 95.0325 92.5644 95.2003 94.1622C95.3737 95.7544 90.6927 90.5268 92.253 84.2971Z" fill="white" stroke="#999CA2" stroke-width="1.27" stroke-linecap="round" stroke-linejoin="round"/>
<path d="M109.4 62.0283C109.4 62.0283 114.953 54.34 119.075 47.9377C123.197 41.5354 129.22 31.9264 130.652 30.6459C132.083 29.3599 132.425 32.7058 131.96 34.9438C131.496 37.1763 126.575 43.4282 123.241 48.5501C119.914 53.6719 117.856 57.3518 114.992 60.72C112.129 64.0882 112.291 64.244 110.535 64.734C108.779 65.2239 109.087 63.4702 109.394 62.0339L109.4 62.0283Z" fill="#999CA2" stroke="#999CA2" stroke-width="1.27" stroke-linecap="round" stroke-linejoin="round"/>
<path d="M90.3401 85.4272C90.9553 81.2797 92.3423 73.6192 95.53 71.203C98.7178 68.7924 108.337 70.6407 109.142 70.7966C109.942 70.9525 122.615 73.7361 126.474 76.1021C130.333 78.4682 132.939 85.3048 133.929 89.2853C134.919 93.2659 137.044 99.9465 137.368 100.42C137.368 100.42 140.578 101.834 142.34 101.661C144.102 101.489 146.451 93.3438 151.383 88.5282C156.316 83.7125 158.872 83.0556 164.319 83.501C169.766 83.9408 190.464 89.547 192.556 91.6013C194.653 93.6611 195.962 98.2764 195.503 101.628C195.045 104.979 195.71 108.642 195.716 109.277C195.716 109.917 197.656 111.972 197.187 113.731C196.717 115.49 196.42 119.315 194.983 119.805C193.546 120.295 182.976 120.044 175.118 118.981C167.266 117.917 156.344 113.208 149.113 109.906C141.881 106.605 138.353 105.196 133.068 105.23C127.783 105.263 117.537 105.491 108.074 103.32C98.6116 101.149 92.1801 97.2074 90.4072 95.4649C88.6344 93.7224 89.7249 89.5692 90.3401 85.4217V85.4272ZM147.004 104.979C149.594 108.787 160.024 112.545 165.644 114.104C171.259 115.663 184.732 118.441 188.238 116.503C191.751 114.566 193.596 103.075 193.249 99.0947C192.903 95.1142 191.286 92.8929 191.286 92.8929C184.374 88.6339 162.719 84.1523 158.251 85.9394C153.777 87.7209 149.493 93.4886 147.921 98.126C146.35 102.758 147.004 104.985 147.004 104.985V104.979ZM101.799 98.4211C108.712 102.519 119.612 103.721 123.935 103.855C128.258 103.988 132.408 101.728 132.536 96.7843C132.665 91.8407 130.048 83.5678 129.069 81.185C128.09 78.8022 124.88 77.3882 124.88 77.3882C120.54 75.345 102.577 70.8411 99.5343 71.3366C96.4976 71.8377 93.8019 76.4752 93.2091 83.1781C92.6107 89.8754 94.8869 94.3236 101.799 98.4267V98.4211Z" fill="#999CA2" stroke="#999CA2" stroke-width="1.27" stroke-linecap="round" stroke-linejoin="round"/>
<path d="M195.235 109.127C195.235 109.127 197.013 111.827 198.283 109.906C199.552 107.986 215.922 89.7029 215.922 89.7029C215.922 89.7029 216.559 89.5414 216.408 90.8163C216.257 92.0912 199.116 115 198.478 116.125C197.846 117.244 195.123 117.583 194.48 117.11C193.837 116.637 195.229 109.132 195.229 109.132L195.235 109.127Z" fill="white" stroke="#999CA2" stroke-width="1.27" stroke-linecap="round" stroke-linejoin="round"/>
<path d="M214.803 90.3432C214.803 90.3432 215.597 89.0627 217.331 85.2269C219.065 81.3911 220.138 73.8921 220.407 66.0757C220.675 58.2649 220.966 53.6386 222.414 55.0638C223.863 56.489 222.621 64.155 222.353 70.2066C222.09 76.2303 220.194 82.3375 219.73 85.5275C219.383 87.9437 217.532 91.7573 216.246 91.7684C214.96 91.7795 215.122 91.4566 214.797 90.3432H214.803Z" fill="#999CA2" stroke="#999CA2" stroke-width="1.27" stroke-linecap="round" stroke-linejoin="round"/>
<path d="M109.142 190.275L116.178 198.208L105.708 195.859L31.2207 150.491L34.649 144.902L109.142 190.275Z" fill="white" stroke="#999CA2" stroke-width="1.44" stroke-linecap="round" stroke-linejoin="round"/>
<g style="mix-blend-mode:multiply" opacity="0.5">
<path d="M109.142 190.275L116.178 198.208L105.708 195.859L31.2207 150.491L34.649 144.902L109.142 190.275Z" fill="#CDCDCD"/>
<path d="M109.142 190.275L116.178 198.208L105.708 195.859L31.2207 150.491L34.649 144.902L109.142 190.275Z" stroke="#999CA2" stroke-width="1.44" stroke-linecap="round" stroke-linejoin="round"/>
</g>
<path d="M33.869 146.168L31.998 149.212L106.489 194.582L108.36 191.538L33.869 146.168Z" stroke="#999CA2" stroke-width="0.72" stroke-linecap="round" stroke-linejoin="round"/>
<path d="M109.154 190.286L105.731 195.864L116.178 198.208L109.154 190.286Z" fill="white" stroke="#999CA2" stroke-width="1.44" stroke-linecap="round" stroke-linejoin="round"/>
<path d="M110.954 197.033L116.178 198.208L112.665 194.25L110.954 197.033Z" fill="#CDCDCD" stroke="#999CA2" stroke-width="1.44" stroke-linecap="round" stroke-linejoin="round"/>
<path d="M24.5935 142.619C23.6483 144.161 24.1349 146.177 25.684 147.118L31.2207 150.491L34.6546 144.907L29.1179 141.534C27.5687 140.593 25.5442 141.077 24.5991 142.619H24.5935Z" fill="white" stroke="#999CA2" stroke-width="1.44" stroke-linecap="round" stroke-linejoin="round"/>
<path d="M24.5935 142.619C23.6483 144.161 24.1349 146.177 25.684 147.118L28.3349 148.732L31.7688 143.148L29.1179 141.534C27.5687 140.593 25.5442 141.077 24.5991 142.619H24.5935Z" fill="#999CA2" stroke="#999CA2" stroke-width="1.44" stroke-linecap="round" stroke-linejoin="round"/>
<path d="M174.894 116.03L172.931 114.655C172.316 114.227 171.539 114.098 170.817 114.31C168.77 114.911 164.872 116.437 163.726 117.617C162.266 119.115 161.808 121.809 162.507 123.084C163.206 124.359 166.08 125.968 166.08 125.968L178.093 118.691L174.894 116.03Z" fill="white" stroke="#999CA2" stroke-width="0.95" stroke-miterlimit="10"/>
<g style="mix-blend-mode:multiply" opacity="0.5">
<path d="M174.894 116.03L172.931 114.655C172.316 114.227 171.539 114.098 170.817 114.31C168.77 114.911 164.872 116.437 163.726 117.617C162.266 119.115 161.808 121.809 162.507 123.084C163.206 124.359 166.08 125.968 166.08 125.968L178.093 118.691L174.894 116.03Z" fill="#CDCDCD"/>
<path d="M174.894 116.03L172.931 114.655C172.316 114.227 171.539 114.098 170.817 114.31C168.77 114.911 164.872 116.437 163.726 117.617C162.266 119.115 161.808 121.809 162.507 123.084C163.206 124.359 166.08 125.968 166.08 125.968L178.093 118.691L174.894 116.03Z" stroke="#999CA2" stroke-width="0.95" stroke-miterlimit="10"/>
</g>
<path d="M176.141 115.468L166.606 119.799C166.606 119.799 163.396 121.609 164.408 127.148L220.082 167.956C220.082 167.956 222.017 169.359 225.512 168.173C229.008 166.987 232.593 162.884 233.359 159.416C234.131 155.947 231.703 154.856 231.228 154.472C230.753 154.088 178.009 115.886 178.009 115.886C178.009 115.886 177.025 115.251 176.136 115.474L176.141 115.468Z" fill="white" stroke="#999CA2" stroke-width="0.95" stroke-miterlimit="10"/>
<g style="mix-blend-mode:multiply" opacity="0.5">
<path d="M176.141 115.468L166.606 119.799C166.606 119.799 163.396 121.609 164.408 127.148L220.082 167.956C220.082 167.956 222.017 169.359 225.512 168.173C229.008 166.987 232.593 162.884 233.359 159.416C234.131 155.947 231.703 154.856 231.228 154.472C230.753 154.088 178.009 115.886 178.009 115.886C178.009 115.886 177.025 115.251 176.136 115.474L176.141 115.468Z" fill="#CDCDCD"/>
<path d="M176.141 115.468L166.606 119.799C166.606 119.799 163.396 121.609 164.408 127.148L220.082 167.956C220.082 167.956 222.017 169.359 225.512 168.173C229.008 166.987 232.593 162.884 233.359 159.416C234.131 155.947 231.703 154.856 231.228 154.472C230.753 154.088 178.009 115.886 178.009 115.886C178.009 115.886 177.025 115.251 176.136 115.474L176.141 115.468Z" stroke="#999CA2" stroke-width="0.95" stroke-miterlimit="10"/>
</g>
<path d="M229.623 165.289C226.122 168.551 221.872 169.693 220.132 167.844C218.393 165.996 219.825 161.848 223.331 158.592C226.832 155.329 231.083 154.188 232.822 156.036C234.561 157.885 233.13 162.032 229.623 165.289Z" fill="white" stroke="#999CA2" stroke-width="0.95" stroke-miterlimit="10"/>
<g style="mix-blend-mode:multiply">
<path d="M229.623 165.289C226.122 168.551 221.872 169.693 220.132 167.844C218.393 165.996 219.825 161.848 223.331 158.592C226.832 155.329 231.083 154.188 232.822 156.036C234.561 157.885 233.13 162.032 229.623 165.289Z" fill="#595959"/>
<path d="M229.623 165.289C226.122 168.551 221.872 169.693 220.132 167.844C218.393 165.996 219.825 161.848 223.331 158.592C226.832 155.329 231.083 154.188 232.822 156.036C234.561 157.885 233.13 162.032 229.623 165.289Z" stroke="#999CA2" stroke-width="0.95" stroke-miterlimit="10"/>
</g>
<path d="M178.02 115.88C178.02 115.88 177.036 115.245 176.147 115.468L166.612 119.799C166.612 119.799 163.401 121.609 164.414 127.148L202.913 155.368C202.639 154.071 202.689 152.167 204.16 149.901C205.53 147.791 211.654 144.395 214.971 142.664C199.323 131.318 178.02 115.886 178.02 115.886V115.88Z" fill="#999CA2" stroke="#999CA2" stroke-width="1.27" stroke-linecap="round" stroke-linejoin="round"/>
<path d="M222.196 158.491L201.856 143.805C200.514 142.859 200.631 140.838 202.074 140.058L205.223 138.349C205.978 137.943 206.895 137.998 207.589 138.499L229.086 153.999" fill="white"/>
<path d="M222.196 158.491L201.856 143.805C200.514 142.859 200.631 140.838 202.074 140.058L205.223 138.349C205.978 137.943 206.895 137.998 207.589 138.499L229.086 153.999" stroke="#999CA2" stroke-width="0.95" stroke-miterlimit="10"/>
<g style="mix-blend-mode:multiply" opacity="0.5">
<path d="M222.196 158.491L201.856 143.805C200.514 142.859 200.631 140.838 202.074 140.058L205.223 138.349C205.978 137.943 206.895 137.998 207.589 138.499L229.086 153.999" fill="#CDCDCD"/>
<path d="M222.196 158.491L201.856 143.805C200.514 142.859 200.631 140.838 202.074 140.058L205.223 138.349C205.978 137.943 206.895 137.998 207.589 138.499L229.086 153.999" stroke="#999CA2" stroke-width="0.95" stroke-miterlimit="10"/>
</g>
</g>
<path d="M19.7284 11.25V7.164H21.9964C23.5984 7.164 24.3184 7.92 24.3184 9.216C24.3184 10.476 23.5984 11.25 21.9964 11.25H19.7284ZM26.4244 9.216C26.4244 7.182 24.9664 5.49 21.9964 5.49H17.6764V18H19.7284V12.924H21.9964C25.2544 12.924 26.4244 10.998 26.4244 9.216ZM32.6475 9.648C34.1775 9.648 35.3835 10.62 35.4195 12.15H29.9295C30.1455 10.584 31.2615 9.648 32.6475 9.648ZM37.2915 15.048H35.0775C34.6995 15.822 33.9975 16.434 32.7375 16.434C31.2255 16.434 30.0555 15.444 29.9115 13.806H37.4895C37.5435 13.464 37.5615 13.14 37.5615 12.798C37.5615 9.882 35.5635 7.92 32.7375 7.92C29.8035 7.92 27.7875 9.918 27.7875 13.032C27.7875 16.146 29.8935 18.162 32.7375 18.162C35.1675 18.162 36.7335 16.776 37.2915 15.048ZM46.7089 18H48.7429V12.15C48.7429 9.378 46.9969 7.92 44.6749 7.92C43.4869 7.92 42.3889 8.406 41.7229 9.216V8.082H39.6709V18H41.7229V12.456C41.7229 10.638 42.7129 9.702 44.2249 9.702C45.7189 9.702 46.7089 10.638 46.7089 12.456V18ZM60.1221 15.642L57.3321 8.082H55.0461L58.9521 17.838L56.9361 22.662H59.0601L65.1441 8.082H63.0201L60.1221 15.642ZM76.2327 13.032C76.2327 9.918 74.0007 7.92 71.1747 7.92C68.3487 7.92 66.1167 9.918 66.1167 13.032C66.1167 16.146 68.2587 18.162 71.0847 18.162C73.9287 18.162 76.2327 16.146 76.2327 13.032ZM68.2047 13.032C68.2047 10.782 69.5907 9.702 71.1387 9.702C72.6687 9.702 74.1267 10.782 74.1267 13.032C74.1267 15.282 72.6147 16.38 71.0847 16.38C69.5367 16.38 68.2047 15.282 68.2047 13.032ZM87.3332 8.082H85.2812V13.608C85.2812 15.426 84.2912 16.362 82.7792 16.362C81.2852 16.362 80.2952 15.426 80.2952 13.608V8.082H78.2612V13.914C78.2612 16.686 80.0252 18.144 82.3472 18.144C83.5172 18.144 84.6332 17.658 85.2812 16.812V18H87.3332V8.082ZM92.1826 12.78C92.1826 10.674 93.1186 10.044 94.6306 10.044H95.1526V7.92C93.7486 7.92 92.7586 8.532 92.1826 9.522V8.082H90.1306V18H92.1826V12.78ZM101.895 18H103.947V4.68H101.895V18ZM106.731 18H108.783V8.082H106.731V18ZM107.775 6.768C108.495 6.768 109.071 6.192 109.071 5.454C109.071 4.716 108.495 4.14 107.775 4.14C107.037 4.14 106.461 4.716 106.461 5.454C106.461 6.192 107.037 6.768 107.775 6.768ZM111.819 18H113.889V9.756H115.725V8.082H113.889V7.38C113.889 6.246 114.321 5.814 115.581 5.814V4.104C112.989 4.104 111.819 5.094 111.819 7.38V8.082H110.649V9.756H111.819V18ZM121.809 9.648C123.339 9.648 124.545 10.62 124.581 12.15H119.091C119.307 10.584 120.423 9.648 121.809 9.648ZM126.453 15.048H124.239C123.861 15.822 123.159 16.434 121.899 16.434C120.387 16.434 119.217 15.444 119.073 13.806H126.651C126.705 13.464 126.723 13.14 126.723 12.798C126.723 9.882 124.725 7.92 121.899 7.92C118.965 7.92 116.949 9.918 116.949 13.032C116.949 16.146 119.055 18.162 121.899 18.162C124.329 18.162 125.895 16.776 126.453 15.048ZM128.329 7.344H129.733L129.949 3.654H128.095L128.329 7.344ZM139.414 15.228C139.306 11.646 133.708 12.762 133.708 10.764C133.708 10.098 134.284 9.648 135.382 9.648C136.498 9.648 137.164 10.242 137.236 11.106H139.288C139.18 9.126 137.704 7.92 135.454 7.92C133.114 7.92 131.638 9.198 131.638 10.782C131.638 14.418 137.398 13.302 137.398 15.246C137.398 15.93 136.768 16.434 135.58 16.434C134.446 16.434 133.672 15.768 133.6 14.958H131.476C131.566 16.758 133.24 18.162 135.616 18.162C137.956 18.162 139.414 16.902 139.414 15.228ZM160.546 18H162.58V12.15C162.58 9.378 160.816 7.92 158.494 7.92C157.054 7.92 155.65 8.676 155.038 9.882C154.354 8.586 153.04 7.92 151.474 7.92C150.286 7.92 149.206 8.406 148.54 9.216V8.082H146.488V18H148.54V12.456C148.54 10.638 149.53 9.702 151.042 9.702C152.536 9.702 153.526 10.638 153.526 12.456V18H155.56V12.456C155.56 10.638 156.55 9.702 158.062 9.702C159.556 9.702 160.546 10.638 160.546 12.456V18ZM174.731 13.032C174.731 9.918 172.499 7.92 169.673 7.92C166.847 7.92 164.615 9.918 164.615 13.032C164.615 16.146 166.757 18.162 169.583 18.162C172.427 18.162 174.731 16.146 174.731 13.032ZM166.703 13.032C166.703 10.782 168.089 9.702 169.637 9.702C171.167 9.702 172.625 10.782 172.625 13.032C172.625 15.282 171.113 16.38 169.583 16.38C168.035 16.38 166.703 15.282 166.703 13.032ZM190.907 18H192.941V12.15C192.941 9.378 191.177 7.92 188.855 7.92C187.415 7.92 186.011 8.676 185.399 9.882C184.715 8.586 183.401 7.92 181.835 7.92C180.647 7.92 179.567 8.406 178.901 9.216V8.082H176.849V18H178.901V12.456C178.901 10.638 179.891 9.702 181.403 9.702C182.897 9.702 183.887 10.638 183.887 12.456V18H185.921V12.456C185.921 10.638 186.911 9.702 188.423 9.702C189.917 9.702 190.907 10.638 190.907 12.456V18ZM199.818 9.648C201.348 9.648 202.554 10.62 202.59 12.15H197.1C197.316 10.584 198.432 9.648 199.818 9.648ZM204.462 15.048H202.248C201.87 15.822 201.168 16.434 199.908 16.434C198.396 16.434 197.226 15.444 197.082 13.806H204.66C204.714 13.464 204.732 13.14 204.732 12.798C204.732 9.882 202.734 7.92 199.908 7.92C196.974 7.92 194.958 9.918 194.958 13.032C194.958 16.146 197.064 18.162 199.908 18.162C202.338 18.162 203.904 16.776 204.462 15.048ZM213.88 18H215.914V12.15C215.914 9.378 214.168 7.92 211.846 7.92C210.658 7.92 209.56 8.406 208.894 9.216V8.082H206.842V18H208.894V12.456C208.894 10.638 209.884 9.702 211.396 9.702C212.89 9.702 213.88 10.638 213.88 12.456V18ZM218.945 15.246C218.945 17.262 220.043 18 221.807 18H223.427V16.29H222.167C221.303 16.29 221.015 15.984 221.015 15.246V9.756H223.427V8.082H221.015V5.616H218.945V8.082H217.775V9.756H218.945V15.246ZM232.806 15.228C232.698 11.646 227.1 12.762 227.1 10.764C227.1 10.098 227.676 9.648 228.774 9.648C229.89 9.648 230.556 10.242 230.628 11.106H232.68C232.572 9.126 231.096 7.92 228.846 7.92C226.506 7.92 225.03 9.198 225.03 10.782C225.03 14.418 230.79 13.302 230.79 15.246C230.79 15.93 230.16 16.434 228.972 16.434C227.838 16.434 227.064 15.768 226.992 14.958H224.868C224.958 16.758 226.632 18.162 229.008 18.162C231.348 18.162 232.806 16.902 232.806 15.228Z" fill="#999CA2"/>
<defs>
<clipPath id="clip0_620_375">
<rect width="224" height="199" fill="white" transform="translate(13 30)"/>
</clipPath>
</defs>
</svg>
