<svg width="370" height="421" viewBox="0 0 370 421" fill="none" xmlns="http://www.w3.org/2000/svg">
<g clip-path="url(#clip0_575_290)">
<path d="M190.667 421C289.71 421 370 414.824 370 407.207C370 399.589 289.71 393.413 190.667 393.413C91.6235 393.413 11.3333 399.589 11.3333 407.207C11.3333 414.824 91.6235 421 190.667 421Z" fill="#FF852D"/>
<g style="mix-blend-mode:multiply">
<path d="M328.687 120.53L325.368 128.331L325.898 128.558L329.217 120.757L328.687 120.53Z" fill="#B0B6FF"/>
<path d="M326.66 118.84L320.111 124.203L320.475 124.651L327.024 119.288L326.66 118.84Z" fill="#B0B6FF"/>
<path d="M325.651 116.347L317.371 118.053L317.486 118.619L325.767 116.913L325.651 116.347Z" fill="#B0B6FF"/>
<path d="M317.758 111.369L317.598 111.924L325.718 114.282L325.878 113.727L317.758 111.369Z" fill="#B0B6FF"/>
<path d="M326.93 111.924L320.83 106.049L321.229 105.635L327.329 111.51L326.93 111.924Z" fill="#B0B6FF"/>
<path d="M326.953 102.176L326.407 102.359L329.085 110.404L329.631 110.221L326.953 102.176Z" fill="#B0B6FF"/>
<path d="M333.062 101.67L331.706 110.043L332.274 110.136L333.63 101.763L333.062 101.67Z" fill="#B0B6FF"/>
<path d="M334.644 111.301L334.186 110.95L339.261 104.169L339.723 104.515L334.644 111.301Z" fill="#B0B6FF"/>
<path d="M343.606 109.303L335.97 112.942L336.217 113.464L343.853 109.825L343.606 109.303Z" fill="#B0B6FF"/>
<path d="M345.048 116.397L336.603 116.061L336.626 115.478L345.07 115.819L345.048 116.397Z" fill="#B0B6FF"/>
<path d="M336.005 118.042L335.717 118.542L343.04 122.781L343.328 122.281L336.005 118.042Z" fill="#B0B6FF"/>
<path d="M334.293 120.072L333.807 120.381L338.326 127.55L338.813 127.241L334.293 120.072Z" fill="#B0B6FF"/>
<path d="M331.84 121.021L331.266 121.068L331.948 129.522L332.522 129.476L331.84 121.021Z" fill="#B0B6FF"/>
<path d="M20.6971 217.783L14.6265 232.051L15.5941 232.466L21.6647 218.198L20.6971 217.783Z" fill="#FF852D"/>
<path d="M16.991 214.665L5.01355 224.474L5.68169 225.295L17.6592 215.486L16.991 214.665Z" fill="#FF852D"/>
<path d="M15.1352 210.178L-0.0098877 213.295L0.20241 214.333L15.3475 211.216L15.1352 210.178Z" fill="#FF852D"/>
<path d="M0.744632 201.033L0.452148 202.047L15.3031 206.36L15.5956 205.346L0.744632 201.033Z" fill="#FF852D"/>
<path d="M17.492 202.048L6.34009 191.308L7.07025 190.543L18.2222 201.288L17.492 202.048Z" fill="#FF852D"/>
<path d="M17.5269 184.205L16.5289 184.539L21.4269 199.254L22.4248 198.919L17.5269 184.205Z" fill="#FF852D"/>
<path d="M28.6999 183.276L26.2228 198.589L27.2613 198.758L29.7385 183.445L28.6999 183.276Z" fill="#FF852D"/>
<path d="M31.6054 200.906L30.7618 200.268L40.0453 187.863L40.8888 188.5L31.6054 200.906Z" fill="#FF852D"/>
<path d="M47.9773 197.2L34.0126 203.856L34.466 204.814L48.4307 198.157L47.9773 197.2Z" fill="#FF852D"/>
<path d="M35.2256 208.543L35.1833 209.602L50.6313 210.222L50.6735 209.163L35.2256 208.543Z" fill="#FF852D"/>
<path d="M34.1306 213.256L33.6049 214.17L46.9966 221.922L47.5223 221.008L34.1306 213.256Z" fill="#FF852D"/>
<path d="M30.9644 216.945L30.0714 217.511L38.3372 230.622L39.2302 230.055L30.9644 216.945Z" fill="#FF852D"/>
<path d="M26.4758 218.713L25.4271 218.798L26.6751 234.261L27.7238 234.176L26.4758 218.713Z" fill="#FF852D"/>
<path d="M329.633 219.063C325.937 219.063 322.93 216.046 322.93 212.337C322.93 208.628 325.937 205.611 329.633 205.611C333.329 205.611 336.336 208.628 336.336 212.337C336.336 216.046 333.329 219.063 329.633 219.063ZM329.633 206.553C326.458 206.553 323.873 209.147 323.873 212.333C323.873 215.518 326.458 218.112 329.633 218.112C332.807 218.112 335.392 215.518 335.392 212.333C335.392 209.147 332.807 206.553 329.633 206.553Z" fill="#B0B6FF"/>
<path d="M34.322 133.108C30.6258 133.108 27.619 130.091 27.619 126.382C27.619 122.673 30.6258 119.656 34.322 119.656C38.0181 119.656 41.0249 122.673 41.0249 126.382C41.0249 130.091 38.0181 133.108 34.322 133.108ZM34.322 120.598C31.1428 120.598 28.5623 123.192 28.5623 126.377C28.5623 129.563 31.1474 132.157 34.322 132.157C37.4966 132.157 40.0816 129.563 40.0816 126.377C40.0816 123.192 37.4966 120.598 34.322 120.598Z" fill="#B0B6FF"/>
<path d="M107.27 90.6628C107.27 92.0872 106.726 93.416 105.732 94.44C104.739 95.4366 103.388 95.9827 101.968 95.9827H92.9479V105.057C92.9479 106.459 92.4036 107.81 91.4104 108.811C89.3968 110.805 85.8957 110.805 83.8821 108.811C82.9116 107.815 82.3447 106.459 82.3447 105.057V95.9827H73.3016C71.9048 95.9827 70.5578 95.4366 69.5601 94.44C68.5442 93.4206 68 92.0872 68 90.6628C68 89.2384 68.5669 87.9096 69.5601 86.9084C70.5533 85.9118 71.9048 85.3384 73.3016 85.3384H82.3447V76.2869C82.3447 74.8852 82.9116 73.5063 83.8821 72.5325C85.8957 70.4892 89.3968 70.4892 91.3878 72.5325C92.4036 73.5063 92.9479 74.8852 92.9479 76.2869V85.3384H101.968C103.388 85.3384 104.739 85.9072 105.732 86.9084C106.726 87.905 107.27 89.2612 107.27 90.6628Z" fill="#ED8EB2"/>
<path d="M105.732 86.9084C104.739 85.9118 103.388 85.3384 101.968 85.3384H92.9479V76.2869C92.9479 74.8852 92.4036 73.5063 91.3878 72.5325C89.4014 70.4892 85.8957 70.4892 83.8821 72.5325C82.9116 73.5063 82.3447 74.8852 82.3447 76.2869V85.3384H73.3016C71.9048 85.3384 70.5578 85.9072 69.5601 86.9084C68.5669 87.905 68 89.2612 68 90.6628C68 92.0645 68.5442 93.416 69.5601 94.44C70.5533 95.4366 71.9048 95.9827 73.3016 95.9827H82.3447V105.057C82.3447 106.459 82.9116 107.81 83.8821 108.811C85.8957 110.805 89.3968 110.805 91.4104 108.811C92.4036 107.815 92.9479 106.459 92.9479 105.057V95.9827H101.968C103.388 95.9827 104.739 95.4366 105.732 94.44C106.726 93.4206 107.27 92.0872 107.27 90.6628C107.27 89.2384 106.726 87.9096 105.732 86.9084ZM104.077 92.7516C103.51 93.3205 102.776 93.6072 101.973 93.6072H90.5896V105.057C90.5896 105.84 90.2812 106.577 89.7596 107.123C88.6485 108.215 86.6576 108.215 85.5918 107.146C85.0249 106.577 84.7166 105.817 84.7166 105.057V93.6072H73.3061C72.5261 93.6072 71.7914 93.3205 71.2472 92.7516C70.6803 92.1828 70.3719 91.4456 70.3719 90.6628C70.3719 89.8801 70.6803 89.1429 71.2472 88.5968C71.7914 88.0279 72.5261 87.7185 73.3061 87.7185H84.7166V76.296C84.7166 75.5132 85.0249 74.776 85.5692 74.2072C86.0907 73.6838 86.8481 73.4017 87.6508 73.4017C88.5488 73.4244 89.1882 73.6884 89.7324 74.2345C90.2766 74.7578 90.585 75.5178 90.585 76.3005V87.723H101.968C102.771 87.723 103.506 88.0325 104.073 88.6013C104.594 89.1247 104.902 89.8846 104.902 90.6674C104.902 91.4501 104.594 92.2101 104.073 92.7562L104.077 92.7516Z" fill="#ED8EB2"/>
</g>
<path d="M346.821 189.165C346.821 190.12 346.449 191.03 345.778 191.718C345.093 192.405 344.186 192.778 343.215 192.778H337.079V198.935C337.079 199.891 336.707 200.801 336.036 201.488C334.667 202.849 332.299 202.849 330.93 201.488C330.258 200.801 329.873 199.891 329.873 198.935V192.778H323.737C322.785 192.778 321.877 192.405 321.193 191.718C320.508 191.03 320.136 190.12 320.136 189.165C320.136 188.209 320.521 187.28 321.193 186.612C321.864 185.943 322.785 185.551 323.737 185.551H329.873V179.394C329.873 178.438 330.258 177.51 330.93 176.836C332.299 175.462 334.667 175.462 336.023 176.836C336.707 177.51 337.079 178.434 337.079 179.394V185.551H343.215C344.181 185.551 345.093 185.924 345.778 186.612C346.449 187.285 346.821 188.209 346.821 189.165Z" fill="white"/>
<path d="M335.9 401.764H64.3174C73.365 392.234 85.0838 383.115 100.054 376.703C119.469 368.384 137.342 367.615 148.63 368.165V332.451C141.637 334.54 132.821 336.524 122.531 337.388C110.54 338.389 100.186 337.561 92.2085 336.333C92.1904 336.333 92.1768 336.319 92.1586 336.31C91.5509 336.005 90.984 335.664 90.4534 335.286C81.306 328.928 83.3514 313.847 84.7936 303.813C84.8571 303.307 84.9342 302.811 85.0022 302.338C85.0203 302.193 85.0385 302.051 85.0566 301.919C85.6099 297.664 84.8208 296.217 79.1337 289.255C73.2652 282.051 82.0725 275.839 82.0725 275.839C82.0725 275.839 84.0271 277.8 79.1337 270.938C74.2494 264.071 85.0022 254.587 85.0022 254.587C80.7527 254.377 77.5192 254.136 75.0747 253.89C69.5101 253.34 65.9727 247.592 68.0317 242.368C70.4398 236.242 75.7777 226.963 85.7958 212.988C85.5781 210.449 85.3514 206.853 85.3423 202.517C85.3423 201.656 85.3514 200.774 85.3695 199.85C85.6915 183.808 89.3423 159.539 106.517 140.121C106.712 139.902 106.911 139.675 107.12 139.456C107.623 138.892 108.136 138.332 108.676 137.791C116.707 129.426 126.463 123.101 137.206 118.723C137.796 118.477 138.381 118.241 138.98 118.018C160.739 109.63 186.272 109.021 209.528 115.414C210.458 115.651 211.379 115.915 212.299 116.202C229.288 121.303 244.925 130.186 256.766 142.519C282.871 169.683 282.726 205.397 282.639 209.871C282.508 216.984 281.578 223.646 280.091 229.83C279.95 230.449 279.787 231.068 279.628 231.673C276.499 243.615 271.311 253.74 265.814 261.932C265.451 262.473 265.093 262.997 264.721 263.52C255.506 276.717 245.719 284.508 243.397 286.306V347.491C243.433 355.933 243.465 364.375 243.501 372.821C255.252 371.942 291.419 370.777 326.376 394.592C329.778 396.908 332.948 399.311 335.9 401.764Z" fill="#181054"/>
<g style="mix-blend-mode:screen">
<path d="M280.095 229.83C279.955 230.449 279.791 231.068 279.633 231.678C271.224 230.031 263.533 226.263 257.76 220.697C251.805 214.958 247.882 207.559 244.077 200.396C241.642 195.8 239.12 191.053 236.095 186.812C224.966 171.189 205.424 161.559 186.299 162.301C179.379 162.57 172.449 164.081 165.732 165.555C161.324 166.515 156.762 167.516 152.213 168.163C142.209 169.592 128.254 169.487 118.562 160.941C112.24 155.366 109.061 147.393 107.129 139.456C107.633 138.896 108.145 138.332 108.685 137.791C110.526 145.823 113.551 153.982 119.814 159.512C128.961 167.58 142.34 167.648 151.945 166.274C156.431 165.637 160.952 164.645 165.333 163.685C172.113 162.201 179.129 160.658 186.222 160.394C205.982 159.625 226.15 169.564 237.642 185.692C240.735 190.038 243.292 194.844 245.76 199.499C249.487 206.53 253.347 213.798 259.079 219.327C264.617 224.656 272.004 228.269 280.1 229.83H280.095Z" fill="#181054"/>
<path d="M146.317 219.982C138.526 207.768 122.644 194.029 106.222 192.755C98.2358 192.127 91.229 194.512 85.3695 199.85C85.3514 200.774 85.3423 201.656 85.3423 202.517C90.5305 197.224 96.7119 194.562 103.796 194.562C104.544 194.562 105.311 194.589 106.077 194.648C113.968 195.263 121.741 198.899 128.485 203.854C135.224 208.815 140.952 215.09 144.726 221.011C151.447 231.551 156.367 247.87 148.109 259.169C145.769 262.369 142.44 265.081 139.224 267.707C133.71 272.194 128.009 276.84 127.261 284.021C127.129 285.295 127.175 286.601 127.211 287.858C127.279 290.265 127.356 292.527 126.263 294.392C124.644 297.15 120.975 298.065 117.664 298.702C106.998 300.759 95.8956 302.434 85.0566 301.919C85.0385 302.051 85.0203 302.192 85.0022 302.338C84.9342 302.811 84.8571 303.307 84.7936 303.813C86.2267 303.876 87.6553 303.917 89.0884 303.917C98.78 303.917 108.571 302.393 118.014 300.577C121.741 299.853 125.877 298.807 127.896 295.353C129.261 293.023 129.184 290.37 129.111 287.798C129.07 286.611 129.034 285.373 129.147 284.221C129.819 277.818 134.97 273.623 140.422 269.181C143.728 266.478 147.152 263.688 149.637 260.293C158.472 248.22 153.374 231.027 146.317 219.982Z" fill="#181054"/>
<path d="M227.061 242.959C231.642 242.959 236.431 244.156 241.433 246.937C248.526 250.882 257.138 256.448 264.721 263.52C265.093 262.997 265.451 262.473 265.814 261.932C258.141 254.832 249.506 249.258 242.354 245.271C236.98 242.281 231.859 240.998 226.975 240.998C212.385 240.998 199.878 252.425 188.939 263.843C181.41 271.693 169.782 286.906 176.44 300.654C181.36 310.821 192.227 313.592 202.744 316.273C206.404 317.206 209.864 318.084 212.98 319.263C219.247 321.629 223.243 326.703 227.097 331.613C231.406 337.074 235.85 342.722 243.397 344.474V342.526C236.762 340.811 232.78 335.759 228.59 330.43C224.567 325.324 220.417 320.041 213.655 317.483C210.431 316.264 206.925 315.372 203.206 314.43C193.12 311.849 182.68 309.196 178.145 299.826C171.995 287.116 183.116 272.653 190.304 265.163C200.93 254.072 213.066 242.959 227.061 242.959Z" fill="#181054"/>
<path d="M200.512 189.479C192.331 184.759 183.76 184.8 176.372 189.592C168.912 194.439 164.685 202.221 165.043 210.421C165.224 214.599 166.816 217.957 169.415 219.641C170.893 220.592 172.526 220.97 174.222 220.97C176.821 220.97 179.596 220.087 182.308 219.05L196.122 213.721C200.562 212.009 204.712 210.144 206.807 206.244C207.614 204.742 207.977 203.145 207.977 201.543C207.977 196.751 204.744 191.918 200.512 189.479ZM205.138 205.338C203.356 208.669 199.537 210.362 195.451 211.941L181.628 217.27C177.605 218.822 173.465 219.992 170.449 218.039C167.501 216.128 167.007 212.019 166.93 210.335C166.608 202.817 170.512 195.663 177.397 191.194C180.803 188.996 184.481 187.89 188.254 187.89C190.122 187.89 192.018 188.159 193.905 188.7C195.8 189.242 197.696 190.052 199.574 191.135C204.336 193.884 207.796 200.391 205.138 205.338Z" fill="#181054"/>
<path d="M212.299 116.202C200.249 122.072 187.324 125.858 174.98 129.067C169.442 130.505 163.714 131.806 158.131 131.806C154.621 131.806 151.17 131.292 147.864 129.972C143.066 128.061 138.961 123.692 137.206 118.727C137.796 118.482 138.381 118.24 138.98 118.022C140.535 122.523 144.24 126.482 148.567 128.202C156.626 131.42 165.796 129.485 174.508 127.224C186.095 124.216 198.181 120.698 209.533 115.414C210.463 115.651 211.383 115.92 212.299 116.206V116.202Z" fill="#181054"/>
<path d="M193.147 366.063C192.254 366.177 191.374 366.281 190.485 366.386C185.206 362.172 180.236 357.53 175.401 353.02C169.968 347.951 164.354 342.708 158.381 338.139C148.159 330.33 132.526 321.633 116.063 324.514C108.753 325.797 101.302 329.383 93.2789 335.504C92.9206 335.782 92.5578 336.055 92.2086 336.333C92.1904 336.333 92.1814 336.323 92.1632 336.314C91.5555 336.009 90.9886 335.668 90.458 335.286C91.0068 334.849 91.5691 334.412 92.136 333.984C100.404 327.686 108.122 323.977 115.737 322.644C132.88 319.645 149.016 328.592 159.533 336.628C165.583 341.243 171.234 346.522 176.694 351.623C181.955 356.543 187.379 361.603 193.152 366.067L193.147 366.063Z" fill="#181054"/>
</g>
<g style="mix-blend-mode:screen">
<path d="M82.0725 275.839C82.0725 275.839 97.5147 281.273 108.848 269.545" stroke="#181054" stroke-width="5" stroke-miterlimit="10"/>
</g>
<path d="M252.503 214.694C252.503 225.362 242.499 242.304 214.984 236.033C214.984 236.033 197.959 247.533 181.143 237.389L177.469 234.886L173.796 237.389C156.98 247.533 139.959 236.033 139.959 236.033C113.764 242.004 103.438 226.936 102.508 216.274C102.458 215.732 102.435 215.209 102.435 214.694C102.435 204.023 112.444 195.868 112.444 195.868C108.068 184.568 119.946 177.037 119.946 177.037C119.401 175.421 118.816 172.804 119.419 169.796C121.079 161.569 130.027 158.406 130.612 158.21C131.991 154.979 134.966 149.322 140.975 144.913C147.333 140.253 159.728 135.051 169.261 141.045C174.086 144.08 176.39 148.854 177.469 151.898C178.376 149.4 180.603 144.412 185.678 141.045C194.358 135.283 205.968 137.823 213.134 143.165C219.043 147.561 221.469 153.509 222.422 156.444C222.916 156.608 230.277 159.143 233.841 165.277C234.617 166.606 235.215 168.108 235.519 169.796C236.041 172.663 235.574 175.203 234.989 177.037C234.989 177.037 246.871 184.568 242.494 195.868C242.494 195.868 252.499 204.023 252.499 214.694H252.503Z" fill="#EEBACC"/>
<path d="M177.483 151.939C181.506 158.77 181.279 162.888 180.209 165.432C178.916 168.495 176.571 168.859 175.864 172.117C175.034 175.935 177.891 177.105 178.472 182.584C179.02 187.767 176.626 188.191 177.025 193.633C177.451 199.472 180.29 200.005 179.923 204.391C179.465 209.88 174.925 210.235 174.707 215.15C174.485 220.187 179.161 221.853 179.306 227.928C179.374 230.873 178.345 233.307 177.478 234.882" stroke="#DB6B93" stroke-width="1.5" stroke-miterlimit="10"/>
<path d="M149.333 240.174C149.333 240.174 150.308 222.736 169.769 225.143" stroke="#DB6B93" stroke-width="1.5" stroke-miterlimit="10"/>
<path d="M142.045 213.106C142.045 213.106 134.045 223.273 147.646 229.157C147.646 229.157 151.66 231.441 150.635 234.882" stroke="#DB6B93" stroke-width="1.5" stroke-miterlimit="10"/>
<path d="M155.642 187.69C155.642 187.69 173.474 179.016 178.422 198.871" stroke="#DB6B93" stroke-width="1.5" stroke-miterlimit="10"/>
<path d="M155.642 162.274C155.642 162.274 171.274 153.159 175.723 173.232" stroke="#DB6B93" stroke-width="1.5" stroke-miterlimit="10"/>
<path d="M157.773 214.977C157.773 214.977 168.871 218.126 175.719 211.868" stroke="#DB6B93" stroke-width="1.5" stroke-miterlimit="10"/>
<path d="M136.98 182.607C136.98 182.607 115.116 198.389 128.717 210.162C128.717 210.162 115.651 214.176 122.05 227.551" stroke="#DB6B93" stroke-width="1.5" stroke-miterlimit="10"/>
<path d="M130.612 158.215C130.612 158.215 127.646 165.751 136.98 171.635" stroke="#DB6B93" stroke-width="1.5" stroke-miterlimit="10"/>
<path d="M156.834 176.327C156.834 176.327 162.998 174.98 164.676 185.761" stroke="#DB6B93" stroke-width="1.5" stroke-miterlimit="10"/>
<path d="M212.59 237.53C212.59 237.53 211.614 220.092 192.154 222.499" stroke="#DB6B93" stroke-width="1.5" stroke-miterlimit="10"/>
<path d="M219.882 210.458C219.882 210.458 227.882 220.624 214.281 226.508C214.281 226.508 210.268 228.793 211.293 232.233" stroke="#DB6B93" stroke-width="1.5" stroke-miterlimit="10"/>
<path d="M200.571 184.65C200.571 184.65 182.739 175.976 177.791 195.831" stroke="#DB6B93" stroke-width="1.5" stroke-miterlimit="10"/>
<path d="M200.957 152.335C200.957 152.335 185.324 143.22 180.875 163.293" stroke="#DB6B93" stroke-width="1.5" stroke-miterlimit="10"/>
<path d="M196.726 213.543C196.726 213.543 185.628 216.692 178.78 210.435" stroke="#DB6B93" stroke-width="1.5" stroke-miterlimit="10"/>
<path d="M219.066 181.615C219.066 181.615 242.975 194.061 231.215 207.682C231.215 207.682 244.721 209.757 240.317 223.919" stroke="#DB6B93" stroke-width="1.5" stroke-miterlimit="10"/>
<path d="M223.887 156.781C223.887 156.781 226.852 164.317 217.519 170.201" stroke="#DB6B93" stroke-width="1.5" stroke-miterlimit="10"/>
<path d="M199.379 173.287C199.379 173.287 193.215 171.94 191.537 182.721" stroke="#DB6B93" stroke-width="1.5" stroke-miterlimit="10"/>
<g style="mix-blend-mode:multiply" opacity="0.5">
<path d="M252.503 214.695C252.503 225.362 242.499 242.304 214.984 236.033C214.984 236.033 197.959 247.533 181.143 237.389L177.469 234.886L173.796 237.389C156.98 247.533 139.959 236.033 139.959 236.033C113.764 242.004 103.438 226.936 102.508 216.274C122.957 215.6 149.837 211.691 178.426 198.871C192.159 192.714 214.172 182.844 233.846 165.287C234.621 166.615 235.22 168.117 235.524 169.806C236.045 172.673 235.578 175.212 234.993 177.046C234.993 177.046 246.875 184.577 242.499 195.877C242.499 195.877 252.503 204.032 252.503 214.704V214.695Z" fill="#EEBACC"/>
</g>
<g opacity="0.47">
<path d="M202.308 131.392C202.381 131.005 202.472 130.61 202.571 130.223V130.2L202.594 130.145C202.794 129.363 203.043 128.603 203.338 127.884C205.333 122.914 209.415 119.46 214.245 118.646C215.56 118.423 216.916 118.395 218.277 118.568C219.524 118.723 220.735 119.005 221.869 119.41C225.184 120.589 228.05 122.841 230.386 126.109L230.594 126.254L230.626 126.45C230.708 126.564 230.789 126.687 230.875 126.823L231.066 126.96L231.098 127.151C231.134 127.096 231.17 127.046 231.197 127.001C231.837 126.05 232.553 125.162 233.32 124.361C234.635 122.992 236.159 121.822 237.85 120.894C238.127 120.743 238.408 120.598 238.703 120.457L238.834 120.393H238.839C240.186 119.76 241.583 119.319 242.989 119.082C243.778 118.95 244.576 118.882 245.365 118.878C245.937 118.878 246.503 118.91 247.043 118.973C247.442 119.019 247.859 119.082 248.272 119.169C249.433 119.41 250.553 119.806 251.61 120.338C253.297 121.194 254.78 122.386 256.023 123.874C256.259 124.152 256.494 124.457 256.721 124.775L256.776 124.816L256.862 124.976C259.007 128.075 260.014 131.579 260.027 136.007V136.03V136.052C259.941 138.027 259.615 139.989 259.057 141.877C258.522 143.711 257.76 145.518 256.794 147.247C256.431 147.893 256.045 148.521 255.655 149.104C254.562 150.751 253.247 152.362 251.742 153.887C250.667 154.974 249.565 156.03 248.458 157.022C244.694 160.408 240.535 163.439 236.109 166.019C234.748 166.811 233.342 167.576 231.937 168.286C231.723 168.395 231.478 168.472 231.211 168.518C230.449 168.645 229.537 168.504 228.889 168.154C225.07 166.11 221.488 163.762 218.245 161.186C216.295 159.635 214.426 157.969 212.698 156.244C210.757 154.301 209.156 152.513 207.814 150.774C207.134 149.9 206.494 149.008 205.923 148.116C205.846 148.003 205.773 147.889 205.701 147.775C205.342 147.206 205.02 146.656 204.735 146.123C204.426 145.554 204.163 145.022 203.932 144.499C201.977 140.212 201.433 135.797 202.304 131.383L202.308 131.392Z" fill="#ED8EB2"/>
</g>
<path d="M207.633 143.775C207.841 144.248 208.077 144.713 208.327 145.177C208.585 145.659 208.866 146.132 209.161 146.601C209.224 146.701 209.288 146.801 209.356 146.901C209.873 147.702 210.426 148.481 211.016 149.236C212.336 150.943 213.819 152.549 215.333 154.069C216.893 155.63 218.531 157.086 220.245 158.447C223.188 160.786 226.349 162.838 229.687 164.627C230.204 164.904 231.075 164.982 231.574 164.736C232.834 164.099 234.068 163.43 235.279 162.725C239.202 160.435 242.862 157.773 246.24 154.738C247.238 153.846 248.209 152.913 249.156 151.957C250.449 150.642 251.596 149.254 252.567 147.789C252.921 147.261 253.247 146.724 253.551 146.178C254.381 144.699 255.039 143.147 255.506 141.541C255.982 139.93 256.263 138.255 256.34 136.521C256.327 132.858 255.524 129.8 253.633 127.083C253.633 127.083 253.633 127.078 253.628 127.074C253.415 126.769 253.193 126.473 252.957 126.195C251.9 124.93 250.653 123.943 249.279 123.246C248.399 122.8 247.465 122.473 246.503 122.273C246.163 122.204 245.823 122.145 245.474 122.109C245.016 122.054 244.549 122.027 244.077 122.031C242.231 122.04 240.331 122.473 238.481 123.36C238.24 123.479 238 123.601 237.755 123.733C236.304 124.53 235.02 125.517 233.9 126.682C233.243 127.369 232.635 128.12 232.091 128.93C231.238 130.2 231.188 130.191 230.367 128.93C230.363 128.921 230.354 128.912 230.349 128.903C230.209 128.689 230.068 128.48 229.923 128.28V128.275C228.009 125.554 225.61 123.519 222.612 122.459C221.66 122.122 220.649 121.881 219.574 121.749C214.086 121.067 209.243 124.239 207.102 129.563C206.853 130.173 206.644 130.819 206.472 131.483C206.472 131.492 206.472 131.497 206.467 131.506C206.376 131.852 206.299 132.202 206.231 132.548C205.447 136.512 206.032 140.275 207.633 143.789V143.775Z" fill="#ED8EB2"/>
<g style="mix-blend-mode:screen">
<g style="mix-blend-mode:screen">
<path d="M211.27 130.928C211.601 131.069 212.123 129.367 214.168 127.729C216.059 126.213 217.637 126.041 217.569 125.713C217.479 125.29 214.658 124.871 212.825 126.386C210.993 127.902 210.866 130.755 211.27 130.933V130.928Z" fill="#ED8EB2"/>
</g>
<g style="mix-blend-mode:screen">
<path d="M210.603 132.544C210.667 132.912 210.417 133.263 210.05 133.326C209.683 133.39 209.333 133.14 209.27 132.771C209.206 132.403 209.456 132.052 209.823 131.988C210.191 131.925 210.54 132.175 210.603 132.544Z" fill="#ED8EB2"/>
</g>
</g>
<path d="M269.601 384.443C268.399 389.954 267.202 395.47 266 400.981C269.41 401.309 272.821 401.636 276.231 401.959C277.855 396.954 279.483 391.948 281.106 386.942C277.27 386.109 273.437 385.276 269.601 384.443Z" fill="#E49580"/>
<path d="M276.884 398.055C276.218 398.487 274.34 399.579 271.737 399.488C268.834 399.388 266.898 397.886 266.313 397.4C262.748 401.969 259.247 403.843 256.685 404.704C253.438 405.796 250.481 405.682 248.621 408.067C247.315 409.746 247.193 411.848 247.274 413.305C257.882 413.031 268.49 412.763 279.102 412.49C278.363 407.68 277.624 402.865 276.884 398.055Z" fill="#FBFAF8"/>
<path d="M278.674 410.132L247.396 410.932L247.413 411.605L278.691 410.805L278.674 410.132Z" fill="#6A61F1"/>
<path d="M262.426 405.596C262.15 405.168 261.651 404.563 260.862 404.103C260.072 403.643 259.311 403.507 258.807 403.475L258.852 402.801C259.673 402.856 260.485 403.106 261.202 403.52C261.918 403.939 262.54 404.531 262.993 405.227L262.431 405.596H262.426Z" fill="#6A61F1"/>
<path d="M264.39 404.085C263.991 403.475 263.451 402.956 262.825 402.592C262.036 402.132 261.274 401.996 260.771 401.964L260.816 401.291C261.637 401.345 262.449 401.591 263.165 402.01C263.882 402.428 264.503 403.02 264.957 403.716L264.394 404.085H264.39Z" fill="#6A61F1"/>
<path d="M335.537 384.443C336.739 389.954 337.936 395.47 339.138 400.981C335.728 401.309 332.317 401.636 328.907 401.959C327.283 396.954 325.655 391.948 324.032 386.942C327.868 386.109 331.701 385.276 335.537 384.443Z" fill="#E49580"/>
<path d="M328.254 398.055C328.921 398.487 330.798 399.579 333.401 399.488C336.304 399.388 338.24 397.886 338.825 397.4C342.39 401.969 345.891 403.843 348.454 404.704C351.701 405.796 354.658 405.682 356.517 408.067C357.823 409.746 357.95 411.848 357.864 413.305C347.256 413.031 336.649 412.763 326.036 412.49C326.775 407.68 327.515 402.865 328.254 398.055Z" fill="#FBFAF8"/>
<path d="M326.496 410.16L326.479 410.834L357.757 411.634L357.774 410.96L326.496 410.16Z" fill="#6A61F1"/>
<path d="M342.717 405.596C342.993 405.168 343.492 404.563 344.281 404.103C345.07 403.643 345.832 403.507 346.336 403.475L346.29 402.801C345.469 402.856 344.653 403.106 343.941 403.52C343.224 403.939 342.603 404.531 342.15 405.227L342.712 405.596H342.717Z" fill="#6A61F1"/>
<path d="M340.753 404.085C341.152 403.475 341.692 402.956 342.317 402.592C343.107 402.132 343.868 401.996 344.372 401.964L344.327 401.291C343.506 401.345 342.689 401.591 341.977 402.01C341.261 402.428 340.639 403.02 340.186 403.716L340.748 404.085H340.753Z" fill="#6A61F1"/>
<path d="M263.351 389.063C264.186 390.077 266.766 392.94 271.197 394.014C276.644 395.334 280.966 393.008 281.941 392.448C284.023 384.626 286.027 376.63 287.955 368.475C293.828 343.573 298.349 319.572 301.796 296.659C302.58 297.014 303.365 297.36 304.15 297.715C306.136 306.184 308.122 314.657 310.113 323.126C314.032 346.035 317.955 368.948 321.864 391.857C322.49 392.416 326.721 396.089 332.535 395.22C336.091 394.687 338.44 392.726 339.37 391.857C339.002 381.303 338.562 370.659 338.032 359.919C336.871 336.383 335.347 313.292 333.506 290.67C332.676 280.54 331.782 270.505 330.834 260.562C330.671 260.566 330.512 260.576 330.349 260.58C315.211 261.062 300.063 261.545 284.925 262.023C284.653 263.242 284.372 264.471 284.095 265.704C283.556 268.148 283.011 270.601 282.476 273.067C280.88 280.481 279.329 287.999 277.837 295.621C271.487 328.05 266.78 359.264 263.351 389.053V389.063Z" fill="#FCB17E"/>
<path d="M312.635 282.005C319.374 282.005 326.15 280.908 332.512 278.77L332.463 278.624C324.34 281.354 315.537 282.383 307.007 281.591C298.399 280.795 289.864 278.128 282.317 273.887L282.245 274.019C289.809 278.274 298.367 280.945 306.993 281.741C308.862 281.914 310.748 282.001 312.635 282.001V282.005Z" fill="#27283A"/>
<path d="M304.213 297.824L305.596 281.518L305.447 281.509L304.077 297.623L300.648 296.563L300.349 280.813L300.195 280.817L300.499 296.677L304.213 297.824Z" fill="#27283A"/>
<path d="M337.193 393.481L337.347 393.468L328.862 280.335L328.707 280.349L337.193 393.481Z" fill="#27283A"/>
<path d="M295.75 295.071L295.706 295.215L304.137 297.816L304.181 297.672L295.75 295.071Z" fill="#27283A"/>
<path d="M299.699 296.337L278.807 393.709L278.958 393.742L299.85 296.37L299.699 296.337Z" fill="#27283A"/>
<g style="mix-blend-mode:multiply" opacity="0.7">
<path d="M282.472 273.077C283.224 273.705 283.927 274.26 284.558 274.742C301.37 287.63 322.227 289.723 330.181 290.433C331.619 290.561 332.785 290.634 333.497 290.679C332.517 280.554 331.465 270.524 330.336 260.589C315.197 261.072 300.05 261.554 284.911 262.032C284.639 263.251 284.358 264.48 284.082 265.713C283.542 268.157 282.998 270.61 282.463 273.077H282.472Z" fill="#FF852D"/>
</g>
<path d="M286.322 228.811C285.193 242.846 284.068 256.876 282.939 270.91C287.877 273.422 295.977 276.794 306.512 277.923C317.682 279.12 326.775 277.286 332.227 275.743C331.583 265.281 330.893 254.764 330.168 244.197C329.791 238.727 329.406 233.275 329.011 227.837C329.07 227.864 329.129 227.887 329.184 227.914C323.288 221.302 324.798 210.489 325.973 201.706C319.429 199.29 313.583 199.527 310.268 199.936C300.748 198.202 293.175 200.555 286.508 204.451L286.322 228.816V228.811Z" fill="#FF852D"/>
<path d="M299.252 186.129L300.617 197.301L300.694 197.943L300.957 200.118L301.193 202.066L301.569 205.142C302.454 205.602 304.735 206.612 307.687 206.235C311.651 205.72 313.968 203.076 314.499 202.435C314.091 198.512 313.683 194.594 313.27 190.685C313.193 189.897 313.111 189.115 313.025 188.341C313.007 188.195 312.993 188.054 312.975 187.909C312.803 186.234 312.63 184.573 312.458 182.903C312.249 182.784 311.868 182.58 311.333 182.361C310.98 182.22 310.567 182.074 310.1 181.952H310.095C309.832 181.879 309.56 181.815 309.265 181.77C309.215 181.765 309.156 181.751 309.093 181.738C308.054 181.565 306.834 181.542 305.501 181.829H305.483C303.098 182.343 301.438 183.631 300.413 184.691C299.773 185.346 299.397 185.906 299.252 186.134V186.129Z" fill="#DC9C7A"/>
<path d="M299.252 186.129L300.617 197.301C301.347 197.361 304.735 197.565 307.769 195.122C311.07 192.464 311.442 188.696 311.497 188.05C311.714 188.118 312.281 188.277 313.025 188.341C312.83 186.525 312.649 184.718 312.458 182.898C308.381 180.177 301.401 182.147 299.252 186.129Z" fill="#C9623E"/>
<path d="M316.268 166.747C312.358 162.861 305.406 161.823 300.667 165.409C296.258 168.741 296.109 174.297 296.1 175.048C295.007 181.847 294.131 183.426 295.537 191.645C304.317 199.54 312.372 188.323 315.791 182.393C315.755 182.429 315.714 182.443 315.664 182.438C316.635 181.829 318.254 180.609 319.193 178.529C321.075 174.352 318.984 169.446 316.272 166.752L316.268 166.747Z" fill="#DC9C7A"/>
<path d="M296.422 172.368C296.744 172.336 296.916 171.298 297.007 170.397C298.762 171.198 303.374 168.786 303.692 167.366C305.778 170.825 310.272 172.613 314.154 171.539C313.837 172.267 313.574 173.009 313.374 173.774C313.184 174.475 313.048 175.198 312.948 175.922C312.821 176.918 312.785 177.933 312.839 178.934C312.875 179.553 312.943 180.163 313.048 180.773C313.311 182.366 313.81 183.922 314.54 185.365C315.469 185.36 316.993 185.219 318.508 184.341C319.819 183.576 320.789 182.479 321.474 181.219C322.449 179.458 322.848 177.401 322.807 175.558C322.803 175.18 322.776 174.807 322.735 174.447C322.639 173.633 322.308 171.289 320.426 169.159C318.862 167.38 317.034 166.665 316.177 166.392C315.968 165.541 315.265 163.18 313.034 161.423C311.093 159.894 309.079 159.675 307.764 159.53C306.698 159.416 304.15 159.161 301.451 160.549C300.227 161.177 299.356 161.942 298.803 162.511C298.041 163.029 295.488 164.927 295.188 167.962C294.98 170.092 295.932 172.413 296.422 172.372V172.368Z" fill="#27283A"/>
<g style="mix-blend-mode:screen">
<path d="M312.839 178.934C312.875 179.553 312.943 180.163 313.048 180.773C313.052 180.768 313.052 180.755 313.061 180.75C313.678 182.12 315.361 182.898 316.798 182.48C318.236 182.056 319.234 180.486 319.016 179.003C319.696 179.881 320.499 180.7 321.474 181.219C322.449 179.458 322.848 177.401 322.807 175.558C322.485 175.59 322.163 175.576 321.841 175.526C320.454 175.312 319.193 174.415 318.535 173.169C318.254 174.689 316.989 175.986 315.479 176.29C314.626 176.463 313.723 176.313 312.952 175.922C312.825 176.918 312.789 177.933 312.844 178.934H312.839Z" fill="#27283A"/>
</g>
<path d="M317.669 181.292C317.646 181.182 317.623 181.078 317.592 180.973C317.41 180.341 317.084 179.835 316.621 179.553C315.315 178.761 313.415 180.008 312.381 182.338C311.342 184.673 311.565 187.203 312.871 188C314.177 188.791 316.077 187.549 317.111 185.214C317.723 183.845 317.896 182.407 317.669 181.292ZM315.995 183.94C315.723 183.863 315.537 183.658 315.238 183.631C314.998 183.608 314.753 183.64 314.535 183.749C314.336 184.072 314.304 184.341 314.444 184.759C314.49 184.891 314.399 185.019 314.258 185.014C313.61 184.996 313.823 184.04 314.009 183.681C314.399 182.93 315.048 182.388 315.846 182.152C316.032 182.097 316.032 182.37 315.914 182.448C315.587 182.661 315.261 182.907 314.975 183.194C315.052 183.176 315.134 183.167 315.215 183.167C315.574 183.167 316.113 183.303 316.218 183.699C316.254 183.845 316.145 183.986 315.991 183.94H315.995Z" fill="#DC9C7A"/>
<path d="M315.995 183.94C315.723 183.863 315.537 183.658 315.238 183.631C314.998 183.608 314.753 183.64 314.535 183.749C314.336 184.072 314.304 184.341 314.444 184.759C314.49 184.891 314.399 185.019 314.258 185.014C313.61 184.996 313.823 184.04 314.009 183.681C314.399 182.93 315.048 182.388 315.846 182.152C316.032 182.097 316.032 182.37 315.914 182.447C315.587 182.661 315.261 182.907 314.975 183.194C315.052 183.176 315.134 183.167 315.215 183.167C315.574 183.167 316.113 183.303 316.218 183.699C316.254 183.845 316.145 183.986 315.991 183.94H315.995Z" fill="#DC9C7A"/>
<path d="M315.918 182.448C315.592 182.661 315.265 182.907 314.98 183.194C314.875 183.303 314.771 183.417 314.685 183.535C314.626 183.613 314.576 183.676 314.54 183.745C314.34 184.068 314.308 184.336 314.449 184.755C314.494 184.887 314.404 185.014 314.263 185.01C313.614 184.991 313.828 184.036 314.014 183.676C314.404 182.925 315.052 182.384 315.85 182.147C316.036 182.093 316.036 182.366 315.918 182.443V182.448Z" fill="#C9623E"/>
<path d="M315.995 183.94C315.723 183.863 315.537 183.658 315.238 183.631C314.998 183.608 314.753 183.64 314.535 183.749C314.472 183.776 314.408 183.817 314.349 183.863C314.236 183.954 314.095 183.795 314.186 183.69C314.404 183.449 314.667 183.262 314.975 183.198C315.052 183.18 315.134 183.171 315.215 183.171C315.574 183.171 316.113 183.308 316.218 183.704C316.254 183.849 316.145 183.99 315.991 183.945L315.995 183.94Z" fill="#C9623E"/>
<g style="mix-blend-mode:multiply">
<path d="M300.975 182.93L299.429 182.73C298.794 182.648 298.036 182.47 297.782 181.829C297.465 181.014 298.254 180.241 298.63 179.867C299.624 178.894 300.481 177.788 301.179 176.582C301.329 176.322 301.479 176.045 301.488 175.763L301.878 175.776C301.864 176.149 301.692 176.477 301.519 176.782C300.803 178.02 299.923 179.153 298.907 180.154C298.422 180.632 297.95 181.192 298.145 181.692C298.322 182.143 298.948 182.279 299.479 182.348L301.025 182.548L300.975 182.939V182.93Z" fill="#DC9C7A"/>
</g>
<g style="mix-blend-mode:multiply">
<path d="M296.349 173.774C296.349 173.774 299.492 171.612 301.342 174.575C301.342 174.575 300.222 169.314 296.349 173.774Z" fill="#27283A"/>
</g>
<g style="mix-blend-mode:multiply">
<path d="M305.524 175.576C305.524 175.576 309.134 174.356 310.109 177.71C310.109 177.71 310.458 172.345 305.524 175.576Z" fill="#27283A"/>
</g>
<path d="M299.274 175.612C299.016 176.295 298.581 176.764 298.299 176.659C298.018 176.554 297.995 175.913 298.254 175.23C298.513 174.547 298.948 174.079 299.229 174.183C299.51 174.288 299.533 174.93 299.274 175.612Z" fill="#27283A"/>
<path d="M307.429 177.888C307.161 178.566 306.717 179.03 306.435 178.916C306.154 178.807 306.145 178.165 306.413 177.487C306.68 176.809 307.125 176.35 307.406 176.459C307.687 176.568 307.696 177.21 307.429 177.888Z" fill="#27283A"/>
<g style="mix-blend-mode:multiply">
<g style="mix-blend-mode:multiply">
<path d="M306.998 185.529C306.181 186.279 304.372 187.722 301.9 187.972C300.172 188.15 299.188 187.636 298.939 187.494C298.54 187.271 297.769 186.839 297.633 186.102C297.538 185.569 297.869 185.356 297.687 184.819C297.519 184.323 297.152 184.25 296.984 183.704C296.88 183.362 296.916 183.044 296.962 182.839C297.134 182.898 297.311 182.957 297.488 183.021C299.025 183.54 300.68 184.04 302.449 184.5C303.216 184.7 303.968 184.882 304.698 185.042C305.415 185.205 306.118 185.351 306.798 185.488C306.862 185.501 306.93 185.515 306.993 185.524L306.998 185.529Z" fill="#DBB4EA"/>
</g>
</g>
<g style="mix-blend-mode:multiply">
<path d="M306.998 185.529C306.181 186.279 304.372 187.722 301.9 187.972C300.172 188.15 299.188 187.636 298.939 187.495C298.54 187.272 297.769 186.839 297.633 186.102C298.762 184.159 303.737 184.882 304.698 185.046C305.415 185.21 306.118 185.356 306.798 185.492C306.862 185.506 306.93 185.519 306.993 185.529H306.998Z" fill="#DBB4EA"/>
</g>
<path d="M306.803 185.492C305.628 185.879 303.782 186.193 301.451 185.651C298.807 185.042 297.841 183.836 297.492 183.021C299.03 183.54 300.685 184.04 302.454 184.5C303.964 184.891 305.424 185.219 306.807 185.488L306.803 185.492Z" fill="white"/>
<g style="mix-blend-mode:multiply" opacity="0.35">
<path d="M298.785 191.24C298.721 191.185 298.671 191.121 298.63 191.053C298.544 190.903 298.531 190.707 298.59 190.534C298.639 190.375 298.744 190.257 298.884 190.198C299.043 190.125 299.247 190.157 299.401 190.279C299.542 190.389 299.61 190.553 299.578 190.707L299.365 190.666C299.379 190.589 299.338 190.507 299.265 190.448C299.175 190.375 299.057 190.357 298.97 190.393C298.889 190.43 298.825 190.502 298.794 190.603C298.753 190.721 298.766 190.848 298.821 190.948C298.925 191.135 299.17 191.249 299.419 191.226C299.642 191.208 299.85 191.076 299.991 190.871C300.136 190.666 300.186 190.425 300.127 190.211C300.073 189.997 299.909 189.811 299.682 189.702C299.456 189.592 299.211 189.583 299.011 189.674L298.921 189.479C299.179 189.36 299.492 189.374 299.773 189.506C300.054 189.642 300.258 189.879 300.331 190.157C300.404 190.434 300.34 190.739 300.163 190.999C299.982 191.258 299.719 191.417 299.433 191.444C299.188 191.467 298.948 191.39 298.78 191.244L298.785 191.24Z" fill="#DC9C7A"/>
</g>
<path d="M314.159 199.167C314.036 200.005 313.769 201.056 313.175 202.139C311.297 205.552 307.678 206.553 306.803 206.772C305.846 206.335 304.054 205.356 302.594 203.381C301.692 202.162 301.215 200.969 300.957 200.118C300.426 200.059 299.846 200.027 299.215 200.027C298.2 200.027 296.889 200.118 295.714 200.487L305.519 215.673L321.864 200.496L314.159 199.172V199.167Z" fill="#FF852D"/>
<path d="M305.764 210.344L305.805 210.33C308.227 209.598 312.757 207.695 315.882 203.154C316.589 202.125 317.193 201.015 317.669 199.845C317.678 199.822 317.687 199.804 317.692 199.786L317.551 199.731C317.551 199.731 317.542 199.763 317.533 199.781C317.061 200.942 316.462 202.048 315.76 203.063C312.676 207.536 308.218 209.434 305.805 210.166C303.383 207.964 301.406 205.397 299.927 202.539C299.492 201.688 299.106 200.833 298.78 200C298.753 199.932 298.73 199.873 298.707 199.809L298.63 199.818L298.558 199.845C298.585 199.923 298.608 199.986 298.639 200.055C298.966 200.892 299.351 201.747 299.791 202.608C301.288 205.493 303.288 208.082 305.737 210.307L305.769 210.335L305.764 210.344Z" fill="#27283A"/>
<path d="M309.664 241.826L309.719 241.685C298.739 237.617 293.111 227.86 293.057 227.76L292.925 227.837C292.98 227.937 298.635 237.74 309.669 241.831L309.664 241.826Z" fill="#27283A"/>
<path d="M296.875 246.826L304.728 223.583C305.123 222.415 306.387 221.793 307.547 222.188L324.426 227.931C325.59 228.327 326.21 229.595 325.817 230.758L317.963 254.001C317.568 255.169 316.303 255.796 315.139 255.4L298.26 249.657C297.096 249.261 296.472 247.991 296.866 246.823L296.875 246.826Z" fill="#27283A"/>
<g style="mix-blend-mode:screen" opacity="0.5">
<path d="M299.383 239.428L296.88 246.832C296.485 247.997 297.107 249.267 298.272 249.663L301.483 250.755C301.483 250.755 301.492 250.732 301.492 250.719C301.637 250.095 301.229 249.481 300.78 249.021C300.762 249.003 300.744 248.985 300.726 248.966L298.521 248.216C298.059 248.061 297.814 247.556 297.968 247.092L300.567 239.405C300.549 239.364 300.526 239.328 300.499 239.292C300.322 239.064 299.982 238.987 299.723 239.109C299.578 239.178 299.474 239.292 299.383 239.428Z" fill="#27283A"/>
</g>
<g style="mix-blend-mode:screen" opacity="0.5">
<path d="M322.172 228.274L324.317 229.002C324.78 229.157 325.025 229.662 324.871 230.126L323.143 235.237C323.32 235.596 323.637 235.887 324.027 235.951C324.041 235.951 324.059 235.951 324.073 235.956L325.828 230.763C326.222 229.594 325.601 228.329 324.435 227.933L322.404 227.241C322.163 227.541 322.05 227.924 322.172 228.274Z" fill="#27283A"/>
</g>
<path d="M305.685 224.246L298.165 246.501C297.9 247.287 298.319 248.14 299.102 248.406L315.251 253.9C316.034 254.167 316.884 253.746 317.149 252.96L324.669 230.705C324.935 229.919 324.515 229.067 323.732 228.8L307.583 223.306C306.801 223.039 305.951 223.46 305.685 224.246Z" fill="white"/>
<g style="mix-blend-mode:multiply" opacity="0.6">
<path d="M307.619 248.466L314.925 250.951C315.057 250.996 315.197 250.923 315.242 250.791C315.288 250.659 315.215 250.518 315.084 250.473L307.778 247.988C307.646 247.943 307.506 248.015 307.46 248.147C307.415 248.279 307.487 248.42 307.619 248.466Z" fill="#B0B6FF"/>
</g>
<g style="mix-blend-mode:multiply" opacity="0.6">
<path d="M307.279 249.467L314.585 251.952C314.716 251.997 314.857 251.924 314.902 251.792C314.948 251.66 314.875 251.519 314.744 251.474L307.438 248.989C307.306 248.944 307.165 249.016 307.12 249.148C307.075 249.28 307.147 249.422 307.279 249.467Z" fill="#B0B6FF"/>
</g>
<g style="mix-blend-mode:multiply" opacity="0.6">
<path d="M315.438 250.828C315.369 251.028 315.478 251.246 315.678 251.315C315.877 251.383 316.095 251.274 316.163 251.073C316.231 250.873 316.122 250.655 315.923 250.587C315.723 250.518 315.506 250.627 315.438 250.828Z" fill="#B0B6FF"/>
</g>
<g style="mix-blend-mode:multiply" opacity="0.6">
<path d="M315.088 251.861C315.02 252.061 315.129 252.279 315.329 252.348C315.528 252.416 315.746 252.307 315.814 252.107C315.882 251.906 315.773 251.688 315.574 251.62C315.374 251.551 315.156 251.661 315.088 251.861Z" fill="#B0B6FF"/>
</g>
<g style="mix-blend-mode:multiply" opacity="0.6">
<path d="M300.508 246.099L305.605 247.833C305.737 247.879 305.877 247.806 305.923 247.674C305.968 247.542 305.896 247.401 305.764 247.355L300.667 245.622C300.535 245.576 300.394 245.649 300.349 245.781C300.304 245.913 300.376 246.054 300.508 246.099Z" fill="#B0B6FF"/>
</g>
<g style="mix-blend-mode:multiply" opacity="0.6">
<path d="M300.172 247.101L305.27 248.835C305.401 248.88 305.542 248.807 305.587 248.675C305.633 248.543 305.56 248.402 305.428 248.357L300.331 246.623C300.199 246.577 300.059 246.65 300.014 246.782C299.968 246.914 300.041 247.055 300.172 247.101Z" fill="#B0B6FF"/>
</g>
<g style="mix-blend-mode:multiply" opacity="0.6">
<path d="M306.358 247.774C306.313 247.902 306.385 248.043 306.512 248.088C306.639 248.134 306.78 248.061 306.825 247.933C306.871 247.806 306.798 247.665 306.671 247.619C306.544 247.574 306.404 247.647 306.358 247.774Z" fill="#B0B6FF"/>
</g>
<g style="mix-blend-mode:multiply" opacity="0.6">
<path d="M306.018 248.775C305.973 248.903 306.045 249.044 306.172 249.089C306.299 249.135 306.44 249.062 306.485 248.935C306.531 248.807 306.458 248.666 306.331 248.621C306.204 248.575 306.063 248.648 306.018 248.775Z" fill="#B0B6FF"/>
</g>
<g style="mix-blend-mode:multiply" opacity="0.6">
<path d="M308.567 233.348L318.59 236.757C318.771 236.816 318.966 236.72 319.025 236.543C319.084 236.365 318.989 236.165 318.812 236.106L308.789 232.697C308.608 232.638 308.413 232.734 308.354 232.911C308.295 233.093 308.39 233.289 308.567 233.348Z" fill="#B0B6FF"/>
</g>
<g style="mix-blend-mode:multiply" opacity="0.6">
<path d="M308.104 234.718L318.127 238.127C318.308 238.186 318.503 238.09 318.562 237.913C318.621 237.731 318.526 237.535 318.349 237.476L308.326 234.067C308.145 234.008 307.95 234.104 307.891 234.281C307.832 234.459 307.927 234.659 308.104 234.718Z" fill="#B0B6FF"/>
</g>
<g style="mix-blend-mode:multiply" opacity="0.6">
<path d="M319.292 236.588C319.202 236.866 319.347 237.162 319.619 237.257C319.891 237.353 320.19 237.203 320.286 236.93C320.376 236.652 320.231 236.356 319.959 236.261C319.683 236.165 319.388 236.315 319.292 236.588Z" fill="#B0B6FF"/>
</g>
<g style="mix-blend-mode:multiply" opacity="0.6">
<path d="M318.816 237.999C318.721 238.272 318.871 238.572 319.143 238.668C319.415 238.764 319.714 238.613 319.809 238.34C319.905 238.063 319.755 237.767 319.483 237.671C319.211 237.576 318.911 237.726 318.816 237.999Z" fill="#B0B6FF"/>
</g>
<g style="mix-blend-mode:multiply" opacity="0.6">
<path d="M307.406 236.743L317.429 240.152C317.605 240.211 317.805 240.115 317.864 239.938C317.923 239.756 317.828 239.56 317.651 239.501L307.628 236.092C307.451 236.033 307.252 236.129 307.193 236.306C307.134 236.484 307.229 236.684 307.406 236.743Z" fill="#B0B6FF"/>
</g>
<g style="mix-blend-mode:multiply" opacity="0.6">
<path d="M306.939 238.117L316.961 241.526C317.138 241.585 317.338 241.49 317.397 241.312C317.456 241.135 317.361 240.934 317.184 240.875L307.161 237.467C306.984 237.408 306.785 237.503 306.726 237.681C306.667 237.858 306.762 238.058 306.939 238.117Z" fill="#B0B6FF"/>
</g>
<g style="mix-blend-mode:multiply" opacity="0.6">
<path d="M318.127 239.983C318.032 240.256 318.181 240.557 318.453 240.652C318.73 240.748 319.025 240.598 319.12 240.325C319.215 240.051 319.066 239.751 318.794 239.656C318.517 239.56 318.222 239.71 318.127 239.983Z" fill="#B0B6FF"/>
</g>
<g style="mix-blend-mode:multiply" opacity="0.6">
<path d="M317.651 241.399C317.555 241.676 317.705 241.972 317.977 242.068C318.249 242.163 318.549 242.013 318.644 241.74C318.739 241.467 318.589 241.167 318.317 241.071C318.045 240.975 317.746 241.126 317.651 241.399Z" fill="#B0B6FF"/>
</g>
<g style="mix-blend-mode:multiply" opacity="0.6">
<path d="M307.297 226.781L312.395 228.515C312.526 228.561 312.667 228.488 312.712 228.356C312.757 228.224 312.685 228.083 312.553 228.037L307.456 226.303C307.324 226.258 307.184 226.331 307.138 226.463C307.093 226.595 307.166 226.736 307.297 226.781Z" fill="#B0B6FF"/>
</g>
<g style="mix-blend-mode:multiply" opacity="0.6">
<path d="M306.957 227.783L312.054 229.516C312.186 229.562 312.327 229.489 312.372 229.357C312.417 229.225 312.345 229.084 312.213 229.039L307.116 227.305C306.984 227.259 306.844 227.332 306.798 227.464C306.753 227.596 306.825 227.737 306.957 227.783Z" fill="#B0B6FF"/>
</g>
<g style="mix-blend-mode:multiply" opacity="0.6">
<path d="M313.147 228.451C313.102 228.579 313.175 228.72 313.302 228.765C313.429 228.811 313.569 228.738 313.614 228.611C313.66 228.483 313.587 228.342 313.46 228.297C313.333 228.251 313.193 228.324 313.147 228.451Z" fill="#B0B6FF"/>
</g>
<g style="mix-blend-mode:multiply" opacity="0.6">
<path d="M312.807 229.453C312.762 229.58 312.834 229.721 312.961 229.767C313.088 229.812 313.229 229.739 313.274 229.612C313.32 229.484 313.247 229.343 313.12 229.298C312.993 229.252 312.853 229.325 312.807 229.453Z" fill="#B0B6FF"/>
</g>
<path d="M310.916 223.869C310.812 224.174 310.871 224.501 311.043 224.784C311.215 225.066 311.506 225.302 311.868 225.425L319.293 227.951C320.023 228.201 320.785 227.905 320.989 227.296C321.093 226.991 321.034 226.663 320.866 226.381C320.694 226.099 320.404 225.862 320.041 225.739L312.617 223.214C311.891 222.968 311.125 223.259 310.921 223.869H310.916Z" fill="#B0B6FF"/>
<path d="M314.444 223.878C314.145 224.761 314.762 225.767 315.819 226.126C316.875 226.486 317.973 226.062 318.272 225.179C318.571 224.297 317.955 223.291 316.898 222.931C315.841 222.572 314.744 222.995 314.444 223.878ZM315.206 224.137C315.388 223.605 316.05 223.35 316.685 223.569C317.324 223.787 317.692 224.392 317.515 224.925C317.333 225.457 316.671 225.712 316.036 225.494C315.397 225.275 315.03 224.67 315.206 224.137Z" fill="#B0B6FF"/>
<g style="mix-blend-mode:multiply" opacity="0.6">
<path d="M310.916 223.869C310.812 224.174 310.871 224.501 311.043 224.784C311.215 225.066 311.506 225.302 311.868 225.425L319.293 227.951C320.023 228.201 320.785 227.905 320.989 227.296L310.921 223.869H310.916Z" fill="#B0B6FF"/>
</g>
<path d="M325.977 201.706C327.56 201.706 329.887 201.948 332.091 203.317C333.188 203.995 334.263 204.96 338.141 212.041C340.912 217.102 342.404 220.351 342.825 221.275C343.819 223.455 344.594 225.307 345.134 226.645C343.791 227.896 341.982 229.343 339.651 230.627C335.655 232.829 331.909 233.585 329.442 233.867C327.85 230.386 325.936 225.166 325.161 218.576C324.326 211.486 325.134 205.584 325.977 201.702V201.706Z" fill="#FF852D"/>
<path d="M329.379 233.908L329.51 233.831C327.052 229.744 325.315 225.321 324.345 220.692C323.007 214.317 323.188 207.559 324.857 201.151L324.712 201.11C323.034 207.541 322.853 214.321 324.195 220.724C325.17 225.371 326.912 229.808 329.379 233.908Z" fill="#FF852D"/>
<path d="M287.097 227.473C287.156 228.247 287.324 229.971 286.281 230.877C285.583 231.482 284.612 231.491 283.986 231.428C282.195 229.576 280.24 227.3 278.322 224.556C276.73 222.285 275.456 220.105 274.431 218.13C275.211 215.973 276.893 212.228 280.426 208.747C283.107 206.103 285.859 204.592 287.746 203.741C287.193 210.094 287.292 214.694 287.501 217.798C287.719 221.016 286.839 224.251 287.093 227.469L287.097 227.473Z" fill="#FF852D"/>
<path d="M287.023 213.122L286.309 229.786L286.463 229.792L287.177 213.129L287.023 213.122Z" fill="#FF852D"/>
<path d="M340.272 259.538C335.043 262.387 299.796 249.098 299.796 249.098L304.345 244.229L329.633 246.727L329.329 233.821V233.589L329.32 233.503C329.383 233.612 329.447 233.717 329.51 233.826L329.447 233.867C331.909 233.585 335.655 232.834 339.655 230.627C340.512 230.153 341.302 229.657 342.023 229.161C342.921 238.873 344.113 257.445 340.272 259.538Z" fill="#DC9C7A"/>
<path d="M276.889 221.703C272.957 226.618 269.02 231.532 265.088 236.447C256.549 232.233 248.005 228.019 239.465 223.805C237.288 227.487 238.118 226.081 235.941 229.762C245.383 236.447 254.825 243.137 264.263 249.822C267.07 251.811 270.939 251.206 273.011 248.461C277.433 242.6 281.859 236.743 286.281 230.882L276.889 221.703Z" fill="#DC9C7A"/>
<path d="M222.698 213.507C222.88 213.307 223.383 212.82 224.2 212.628C224.857 212.483 225.401 212.597 225.664 212.674C225.941 212.465 226.408 212.178 227.043 212.019C228.054 211.768 228.902 212.005 229.265 212.132C229.723 212.378 230.181 212.615 230.639 212.861C230.707 212.897 230.776 212.942 230.853 212.983C232.503 213.93 234.785 215.495 236.984 217.957C239.279 220.524 240.599 223.073 241.347 224.829C241.347 224.838 241.338 224.838 241.333 224.847C239.937 226.572 238.54 228.301 237.138 230.026L235.946 229.753L228.286 227.996C228.286 227.996 226.753 226.804 225.084 225.457C223.12 223.869 220.966 222.053 220.875 221.68C220.875 221.68 221.465 220.875 222.957 221.179C223.923 221.371 225.261 222.03 227.061 223.664L228.88 223.81L224.952 219.013L220.635 216.274C220.635 216.274 220.254 213.834 222.707 213.507H222.698Z" fill="#DC9C7A"/>
<path d="M221.315 214.103L225.964 217.061L229.859 221.452" stroke="#C9623E" stroke-miterlimit="10"/>
<path d="M224.195 212.629L228.299 215.236L232.567 219.273" stroke="#C9623E" stroke-miterlimit="10"/>
<path d="M227.039 212.019L231.302 214.667L233.125 216.629" stroke="#C9623E" stroke-miterlimit="10"/>
<path d="M265.088 236.443L267.383 237.967" stroke="#C9623E" stroke-miterlimit="10"/>
<path d="M295.76 246.728L296.762 247.606L296.091 246.582C295.85 246.218 295.823 245.745 296.041 245.367C296.15 245.176 296.258 245.021 296.349 244.903C296.268 244.793 295.882 244.234 295.995 243.469C296.131 242.591 296.821 242.154 296.921 242.095C296.853 241.908 296.712 241.449 296.857 240.903C297.093 239.997 297.914 239.619 298.027 239.569C298.159 239.469 298.562 239.191 299.143 239.196C299.592 239.196 299.918 239.369 300.068 239.455L301.32 239.856L300.807 238.695C300.199 238.691 299.143 238.258 299.143 238.258C298.807 238.017 298.476 237.772 298.141 237.53C298.095 237.467 297.964 237.253 297.986 236.957C298.009 236.602 298.236 236.393 298.286 236.347L302.798 236.957L305.097 239.483C305.097 239.483 305.102 239.492 305.102 239.496L305.442 239.865L309.927 244.78C309.165 247.164 308.408 249.544 307.646 251.925C306.676 252.052 305.401 252.125 303.923 251.947C302.676 251.802 301.619 251.515 300.794 251.228C299.501 250.978 298.821 250.951 297.388 250.473C297.079 250.223 296.694 249.895 296.385 249.64C296.218 249.331 295.601 248.898 295.497 248.247C295.497 248.247 295.388 247.251 295.76 246.723V246.728Z" fill="#DC9C7A"/>
<path d="M297.388 240.174L300 242.095" stroke="#C9623E" stroke-miterlimit="10"/>
<path d="M296.531 242.281L299.143 244.202" stroke="#C9623E" stroke-miterlimit="10"/>
<path d="M296.082 244.202L298.694 246.122" stroke="#C9623E" stroke-miterlimit="10"/>
<path d="M295.76 246.646L298.372 248.566" stroke="#C9623E" stroke-miterlimit="10"/>
<path d="M329.51 233.826L329.447 233.867C329.406 233.776 329.365 233.685 329.324 233.589C329.274 233.485 329.224 233.375 329.179 233.262C329.224 233.344 329.27 233.421 329.32 233.503C329.383 233.612 329.447 233.717 329.51 233.826Z" fill="#6A61F1"/>
<path d="M329.51 233.826L329.447 233.867L329.379 233.908C329.361 233.881 329.342 233.849 329.329 233.821C326.889 229.739 325.161 225.334 324.195 220.72C322.853 214.321 323.034 207.541 324.712 201.11L324.857 201.147C323.188 207.554 323.007 214.312 324.345 220.688C325.27 225.107 326.893 229.334 329.179 233.262C329.224 233.344 329.27 233.421 329.32 233.503C329.383 233.612 329.447 233.717 329.51 233.826Z" fill="#27283A"/>
<path d="M304.211 51.6309C304.211 52.8915 303.721 54.0974 302.837 55.003C301.934 55.9086 300.732 56.4047 299.458 56.4047H291.363V64.5278C291.363 65.7884 290.873 66.9944 289.989 67.9C288.179 69.693 285.054 69.693 283.249 67.9C282.365 66.9944 281.853 65.7884 281.853 64.5278V56.4047H273.757C272.501 56.4047 271.299 55.9132 270.397 55.003C269.494 54.0974 269 52.8915 269 51.6309C269 50.3703 269.512 49.1462 270.397 48.2588C271.299 47.3532 272.501 46.8571 273.757 46.8571H281.853V38.734C281.853 37.4734 282.365 36.2492 283.249 35.3618C285.059 33.5461 288.184 33.5461 289.971 35.3618C290.873 36.2492 291.367 37.4734 291.367 38.734V46.8571H299.463C300.741 46.8571 301.939 47.3486 302.841 48.2588C303.726 49.1462 304.215 50.3703 304.215 51.6309H304.211Z" fill="#FCB17E"/>
</g>
<path d="M150.709 34.4932L144.639 48.7609L145.606 49.1754L151.677 34.9078L150.709 34.4932Z" fill="#B0B6FF"/>
<path d="M146.996 31.3727L135.018 41.182L135.687 42.0035L147.664 32.1942L146.996 31.3727Z" fill="#B0B6FF"/>
<path d="M145.145 26.8939L130 30.0107L130.212 31.0495L145.357 27.9327L145.145 26.8939Z" fill="#B0B6FF"/>
<path d="M130.743 17.7527L130.451 18.7668L145.302 23.0794L145.594 22.0652L130.743 17.7527Z" fill="#B0B6FF"/>
<path d="M147.493 18.761L136.341 8.01657L137.076 7.25659L148.223 17.9965L147.493 18.761Z" fill="#B0B6FF"/>
<path d="M147.539 0.909416L146.541 1.2439L151.439 15.9584L152.437 15.6239L147.539 0.909416Z" fill="#B0B6FF"/>
<path d="M158.702 2.20834e-05L156.224 15.3132L157.263 15.4824L159.74 0.169186L158.702 2.20834e-05Z" fill="#B0B6FF"/>
<path d="M161.607 17.6142L160.768 16.9771L170.051 4.57617L170.895 5.21328L161.607 17.6142Z" fill="#B0B6FF"/>
<path d="M177.976 13.9083L164.011 20.5651L164.465 21.5228L178.429 14.866L177.976 13.9083Z" fill="#B0B6FF"/>
<path d="M165.226 25.2575L165.184 26.317L180.632 26.9369L180.674 25.8774L165.226 25.2575Z" fill="#B0B6FF"/>
<path d="M164.13 29.9896L163.604 30.9041L176.995 38.6585L177.521 37.7441L164.13 29.9896Z" fill="#B0B6FF"/>
<path d="M160.972 33.6553L160.079 34.2222L168.345 47.3324L169.238 46.7655L160.972 33.6553Z" fill="#B0B6FF"/>
<path d="M156.469 35.4241L155.42 35.5093L156.668 50.9723L157.717 50.8871L156.469 35.4241Z" fill="#B0B6FF"/>
<defs>
<clipPath id="clip0_575_290">
<rect width="370" height="411" fill="white" transform="translate(0 10)"/>
</clipPath>
</defs>
</svg>
