<svg width="369" height="395" viewBox="0 0 369 395" fill="none" xmlns="http://www.w3.org/2000/svg">
<ellipse cx="174" cy="370" rx="146" ry="25" fill="#BABCFF"/>
<g clip-path="url(#clip0_575_289)">
<g style="mix-blend-mode:multiply" opacity="0.4">
<path d="M147.018 281.801C129.185 275.887 94.7342 264.457 77.0632 230.307C56.0479 189.696 67.5463 133.306 104.376 103.173C148.027 67.458 254.282 66.8304 261.059 137.943C265.412 137.567 286.376 136.216 302.176 151.027C319 166.799 317.755 189.475 317.246 198.859C315.626 228.527 296.931 248.611 290.802 255.013C254.245 293.172 192.238 296.797 147.025 281.801H147.018Z" fill="#C2BFF9"/>
</g>
<path d="M3.45465 306.707C3.45465 306.707 12.7137 388.061 97.9163 350.824C97.9163 350.824 81.9321 268.843 3.45465 306.707Z" fill="#767AF9"/>
<g style="mix-blend-mode:multiply">
<path d="M97.7101 351.09C63.0014 323.46 3.95555 307.194 3.36627 307.031L3.54306 306.389C4.1397 306.551 63.3108 322.847 98.1299 350.566L97.7174 351.09H97.7101Z" fill="#767AF9"/>
</g>
<g style="mix-blend-mode:multiply">
<path d="M24.3005 313.396L7.59437 322.951L7.27026 322.375L23.527 313.071L20.065 299.648L20.7059 299.485L24.3005 313.396Z" fill="#767AF9"/>
</g>
<g style="mix-blend-mode:multiply">
<path d="M40.8003 319.621L40.432 319.724C25.6926 323.726 13.4209 336.175 13.2956 336.301L12.8242 335.835C12.9494 335.71 25.1475 323.335 39.8943 319.178C38.8262 316.615 32.7787 301.597 35.2537 296.842L35.843 297.152C33.3385 301.966 40.5793 319.096 40.653 319.266L40.8003 319.621Z" fill="#767AF9"/>
</g>
<g style="mix-blend-mode:multiply">
<path d="M56.9024 326.525L56.431 326.613C28.3223 331.87 22.5621 346.498 22.5031 346.645L21.8844 346.416C21.9433 346.269 27.733 331.457 55.849 326.052C54.0591 322.973 43.7614 304.551 49.4848 297.167L50.0078 297.573C44.1592 305.112 56.5267 325.912 56.6593 326.118L56.9024 326.532V326.525Z" fill="#767AF9"/>
</g>
<g style="mix-blend-mode:multiply">
<path d="M72.4373 334.285L71.9512 334.351C46.2217 337.74 32.3294 354.095 32.1895 354.258L31.6812 353.83C31.8212 353.66 45.6914 337.32 71.3766 333.753C69.5425 330.423 58.604 309.882 63.2814 301.516L63.8633 301.841C59.0606 310.443 72.0616 333.62 72.1942 333.857L72.4373 334.285Z" fill="#767AF9"/>
</g>
<g style="mix-blend-mode:multiply">
<path d="M86.3738 342.51L85.9024 342.562C58.0662 345.663 45.8313 359.36 45.7061 359.5L45.2052 359.065C45.3231 358.924 57.5801 345.191 85.3573 341.957C83.8841 338.885 75.531 320.92 76.9379 311.499L77.5935 311.595C76.113 321.489 86.0571 341.883 86.1528 342.082L86.3591 342.51H86.3738Z" fill="#767AF9"/>
</g>
<path d="M359.247 317.546C359.247 317.546 297.049 271.264 267.57 354.531C267.57 354.531 334.557 396.545 359.247 317.546Z" fill="#767AF9"/>
<g style="mix-blend-mode:multiply">
<path d="M267.614 354.863L267.519 354.199C309.092 348.004 358.57 317.568 359.071 317.258L359.424 317.826C358.931 318.137 309.328 348.646 267.622 354.856L267.614 354.863Z" fill="#767AF9"/>
</g>
<g style="mix-blend-mode:multiply">
<path d="M353.053 334.218L341.098 327.691L345.318 309.889L345.974 310.044L341.871 327.344L353.369 333.628L353.053 334.218Z" fill="#767AF9"/>
</g>
<g style="mix-blend-mode:multiply">
<path d="M344.847 346.224C343.145 341.373 326.631 335.319 326.461 335.245L326.1 335.112L326.277 334.772C333.054 321.961 332.413 305.37 332.406 305.208L333.076 305.178C333.083 305.348 333.724 321.821 327.051 334.75C329.57 335.695 343.801 341.211 345.48 346.003L344.847 346.224Z" fill="#767AF9"/>
</g>
<g style="mix-blend-mode:multiply">
<path d="M335.382 355.786C333.96 346.852 311.597 341.971 311.368 341.92L310.897 341.816L311.155 341.41C325.732 318.506 319.361 305.038 319.294 304.905L319.891 304.602C319.957 304.735 326.439 318.351 311.965 341.366C315.331 342.141 334.638 346.926 336.03 355.676L335.367 355.779L335.382 355.786Z" fill="#767AF9"/>
</g>
<g style="mix-blend-mode:multiply">
<path d="M323.449 362.631C320.627 353.734 296.194 347.745 295.951 347.686L295.465 347.568L295.752 347.162C310.079 327.108 307.781 306.884 307.759 306.684L308.422 306.603C308.444 306.81 310.75 327.012 296.585 347.155C300.157 348.063 321.335 353.778 324.082 362.432L323.441 362.638L323.449 362.631Z" fill="#767AF9"/>
</g>
<g style="mix-blend-mode:multiply">
<path d="M307.811 365.858C301.94 358.422 281.418 352.117 281.212 352.05L280.755 351.91L281.043 351.526C296.931 330.202 295.399 312.842 295.377 312.665L296.04 312.599C296.054 312.776 297.609 330.172 281.853 351.548C285.005 352.545 302.75 358.371 308.326 365.437L307.803 365.85L307.811 365.858Z" fill="#767AF9"/>
</g>
<path d="M301.874 226.836C301.874 226.836 321.084 212.017 301.874 190.671C301.874 190.671 279.739 205.719 301.874 226.836Z" fill="#5349DB"/>
<path d="M204.414 347.723C218.66 341.115 231.816 332.66 243.505 322.589C280.122 291.068 295.082 250.73 301.189 222.443L300.445 222.281C294.368 250.45 279.466 290.625 243.012 322.006C231.374 332.025 218.277 340.443 204.097 347.022L204.414 347.716V347.723Z" fill="#181054"/>
<path d="M295.627 241.508C295.627 241.508 295.708 216.388 270.642 218.633C270.642 218.633 269.412 243.76 295.627 241.508Z" fill="#5349DB"/>
<path d="M286.022 263.873C286.022 263.873 288.563 241.198 265.707 240.747C265.707 240.747 262.127 263.312 286.022 263.873Z" fill="#5349DB"/>
<path d="M275.953 283.588C275.953 283.588 279.002 266.893 262.068 265.387C262.068 265.387 258.252 281.941 275.953 283.588Z" fill="#5349DB"/>
<path d="M266.848 295.97C266.848 295.97 268.918 277.533 250.334 277.164C250.334 277.164 247.424 295.513 266.848 295.97Z" fill="#5349DB"/>
<path d="M282.133 303.088C282.133 303.088 269.868 292.19 260.13 305.496C260.13 305.496 271.901 316.963 282.133 303.088Z" fill="#5349DB"/>
<path d="M270.951 329.087C270.951 329.087 260.86 310.62 243.373 322.441C243.373 322.441 252.617 341.381 270.951 329.087Z" fill="#5349DB"/>
<path d="M225.79 307.445C225.79 307.445 215.073 322.929 231.514 332.239C231.514 332.239 242.946 317.243 225.79 307.445Z" fill="#5349DB"/>
<path d="M278.236 280.265C278.236 280.265 291.944 292.242 302.618 277.393C302.618 277.393 289.455 264.782 278.236 280.265Z" fill="#5349DB"/>
<path d="M251.652 314.201C251.652 314.201 258.23 297.211 240.669 292.19C240.669 292.19 233.311 308.885 251.652 314.201Z" fill="#5349DB"/>
<path d="M316.142 258.217C316.142 258.217 299.141 243.036 285.58 261.481C285.58 261.481 301.888 277.445 316.142 258.217Z" fill="#5349DB"/>
<path d="M327.308 230.078C327.308 230.078 305.026 218.574 295.62 241.973C295.62 241.973 317.379 254.503 327.308 230.078Z" fill="#5349DB"/>
<path d="M56.2394 270.194C56.2394 270.194 33.7216 257.169 51.1127 231.754C51.1127 231.754 76.7685 244.602 56.2394 270.194Z" fill="#5349DB"/>
<path d="M98.0783 336.234C99.9125 337.947 101.791 339.601 103.713 341.203C109.216 345.781 115.16 349.961 121.37 353.63L121.782 352.921C115.609 349.274 109.702 345.117 104.236 340.568C82.0867 322.146 65.8005 296.081 57.1234 265.188L56.3352 265.409C64.3052 293.785 78.6689 318.114 98.0783 336.234Z" fill="#181054"/>
<path d="M64.9534 284.902C64.9534 284.902 61.3146 258.21 88.2742 257.043C88.2742 257.043 93.1357 283.573 64.9534 284.902Z" fill="#5349DB"/>
<path d="M74.7428 307.46C74.7428 307.46 68.8279 283.721 93.0621 279.992C93.0621 279.992 100.06 303.465 74.7428 307.46Z" fill="#5349DB"/>
<path d="M92.3992 329.316C92.3992 329.316 86.7936 312.008 104.575 307.999C104.575 307.999 110.976 325.055 92.3992 329.316Z" fill="#5349DB"/>
<path d="M109.297 345.006C109.297 345.006 97.4007 329.079 114.387 318.631C114.387 318.631 127.019 334.012 109.297 345.006Z" fill="#5349DB"/>
<path d="M78.8826 343.441C78.8826 343.441 88.0532 328.415 102.196 339.003C102.196 339.003 93.7103 354.457 78.8826 343.441Z" fill="#5349DB"/>
<path d="M86.418 324.162C86.418 324.162 73.5422 338.841 60.0992 324.575C60.0992 324.575 72.3047 309.306 86.418 324.162Z" fill="#5349DB"/>
<path d="M42.0746 307.622C42.0746 307.622 57.9926 289.074 75.0228 306.751C75.0228 306.751 59.9446 326.037 42.0746 307.622Z" fill="#5349DB"/>
<path d="M29.6629 277.253C29.6629 277.253 51.7167 261.858 65.0271 285.39C65.0271 285.39 43.673 301.804 29.6629 277.253Z" fill="#5349DB"/>
<path d="M96.885 325.823C111.109 295.298 106.778 250.25 106.733 249.8L107.47 249.726C107.514 250.176 111.867 295.431 97.5553 326.14L96.885 325.83V325.823Z" fill="#181054"/>
<path d="M129.561 253.514C129.568 254.57 129.472 258.033 126.953 260.624C123.793 263.881 118.099 264.434 113.179 261.606C114.313 264.287 113.709 266.878 112.295 267.669C110.512 268.665 107.897 266.576 107.455 266.221C105.636 264.767 105.01 262.847 104.796 262.049C90.7418 262.419 88.7235 253.27 88.7235 253.27C88.7235 253.27 87.0883 248.131 93.7913 250.427C90.1231 246.817 90.3072 242.106 92.1929 240.592C93.7398 239.352 97.0029 239.81 99.721 242.017C98.535 238.037 100.833 234.648 103.043 234.331C105.002 234.05 107.691 236.081 108.369 239.485C108.656 235.387 112.228 232.994 114.726 233.585C117.009 234.132 118.998 237.321 118.092 240.873C119.992 238.717 122.747 237.978 124.53 238.872C126.865 240.046 128.021 244.299 125.458 247.784C127.005 246.669 129.016 246.772 130.135 247.828C131.549 249.15 131.527 251.926 129.568 253.499L129.561 253.514Z" fill="white"/>
<path d="M120.007 252.997C119.771 255.869 115.256 257.833 109.93 257.398C104.597 256.955 100.472 254.274 100.708 251.402C100.944 248.53 105.459 246.566 110.785 247.001C116.118 247.444 120.243 250.125 120.007 252.997Z" fill="#EEBACC"/>
<path d="M266.885 337.755L266.244 337.393C267.276 335.57 291.79 292.766 313.865 288.505L314.005 289.229C292.261 293.423 267.143 337.319 266.885 337.763V337.755Z" fill="#181054"/>
<path d="M334.291 296.007C333.894 296.982 332.45 300.135 329.135 301.538C324.966 303.303 319.5 301.597 316.068 297.071C316.068 299.987 314.514 302.136 312.901 302.313C310.875 302.542 309.276 299.589 309.004 299.094C307.892 297.049 308.054 295.033 308.172 294.213C295.082 289.074 296.776 279.867 296.776 279.867C296.776 279.867 297.263 274.491 302.544 279.224C300.562 274.469 302.559 270.201 304.886 269.544C306.794 269.005 309.623 270.696 311.265 273.79C311.715 269.662 315.155 267.432 317.305 268.001C319.221 268.51 320.907 271.427 320.208 274.823C322.064 271.154 326.285 270.349 328.347 271.87C330.24 273.258 330.837 276.979 328.62 279.896C331.205 278.648 334.034 279.04 335.323 280.561C337.017 282.554 336.435 286.925 332.715 289.133C334.579 288.712 336.383 289.591 337.009 290.994C337.798 292.766 336.7 295.313 334.284 296L334.291 296.007Z" fill="white"/>
<path d="M325.695 291.806C324.362 294.361 319.442 294.412 314.705 291.932C309.969 289.451 307.199 285.367 308.532 282.813C309.866 280.258 314.786 280.206 319.523 282.687C324.259 285.168 327.029 289.251 325.695 291.806Z" fill="#EEBACC"/>
<path d="M259.858 124.254L265.486 124.276C265.876 117.616 263.644 116.715 270.848 117.04C271.732 117.04 272.454 117.764 272.446 118.657L272.424 124.298C279.068 124.69 279.967 122.452 279.643 129.674C279.643 130.56 278.921 131.283 278.03 131.276L272.402 131.254C272.012 137.914 274.244 138.815 267.04 138.49C266.156 138.49 265.434 137.766 265.441 136.873L265.463 131.232L259.836 131.209C258.952 131.209 258.23 130.486 258.237 129.592C258.444 128.182 257.442 124.202 259.865 124.254H259.858Z" fill="#767AF9"/>
<g style="mix-blend-mode:multiply" opacity="0.3">
<path d="M278.03 131.283L272.402 131.261C272.012 137.914 274.244 138.822 267.04 138.497C266.156 138.497 265.434 137.774 265.441 136.88L265.456 131.232L259.828 131.217C258.944 131.217 258.223 130.486 258.223 129.6C258.318 128.913 258.142 127.628 258.208 126.484C260.123 127.399 262.267 128.049 264.572 128.374C270.303 129.171 275.673 127.724 279.201 124.845C279.709 125.509 279.768 126.883 279.636 129.681C279.636 130.567 278.914 131.283 278.022 131.283H278.03Z" fill="#ED8EB2"/>
</g>
<path d="M88.7751 184.025L94.4027 183.959C94.69 177.299 92.4433 176.427 99.6547 176.642C100.539 176.634 101.268 177.343 101.283 178.229L101.349 183.87C107.993 184.158 108.862 181.906 108.649 189.135C108.656 190.021 107.949 190.752 107.065 190.767L101.437 190.833C101.15 197.493 103.397 198.365 96.1853 198.15C95.3013 198.158 94.5721 197.449 94.5574 196.563L94.4911 190.922L88.8635 190.988C87.9795 190.996 87.2503 190.287 87.2356 189.401C87.4197 187.99 86.359 184.018 88.7751 184.033V184.025Z" fill="white"/>
<g style="mix-blend-mode:multiply" opacity="0.3">
<path d="M107.057 190.767L101.43 190.833C101.143 197.493 103.389 198.365 96.1779 198.151C95.294 198.165 94.5647 197.449 94.5574 196.556L94.4911 190.914L88.8635 190.981C87.9795 190.996 87.2503 190.279 87.2356 189.386C87.324 188.699 87.1251 187.415 87.1693 186.27C89.0992 187.156 91.25 187.776 93.563 188.064C99.3085 188.773 104.656 187.245 108.14 184.313C108.656 184.963 108.737 186.344 108.649 189.142C108.663 190.028 107.949 190.759 107.057 190.767Z" fill="#ED8EB2"/>
</g>
<mask id="mask0_575_289" style="mask-type:luminance" maskUnits="userSpaceOnUse" x="0" y="0" width="369" height="370">
<path d="M369 0H0.699768V369.188H369V0Z" fill="white"/>
</mask>
<g mask="url(#mask0_575_289)">
<path d="M160.505 306.943C166.052 310.31 170.958 314.939 177.138 316.911C188.415 320.514 200.282 314.393 212.06 313.263C220.612 312.451 229.333 314.297 237.782 312.717C246.223 311.137 254.842 304.189 253.766 295.646C252.33 284.238 235.344 278.781 235.941 267.299C236.22 261.931 240.463 257.708 242.621 252.783C245.642 245.879 244.397 237.772 241.509 230.816C238.622 223.861 234.217 217.651 230.703 210.983C223.315 196.962 219.993 181.212 216.752 165.692C199.295 165.632 181.83 165.566 164.372 165.507C161.102 165.492 157.787 165.492 154.627 166.327C147.313 168.268 139.807 175.534 136.551 182.327C130.356 195.241 139.659 211.087 135.137 224.415C133.126 230.344 129.156 235.365 125.414 240.378C121.672 245.392 118.003 250.723 116.751 256.859C115.499 262.995 117.252 270.164 122.482 273.583C120.095 279.615 112.965 282.133 108.752 287.058C99.9125 297.396 108.582 315.567 122.29 314.327C126.96 313.906 131.27 311.757 135.453 309.638C144.897 304.868 150.237 300.711 160.491 306.935L160.505 306.943Z" fill="#27283A"/>
<path d="M200.805 293.689C214.594 293.851 249.464 295.823 260.381 317.214C264.41 325.107 263.534 334.979 263.534 334.979C263.254 346.143 258.783 354.236 257.309 357.093C252.89 365.681 250.488 389.862 245.863 437.872C245.863 437.872 245.177 444.953 240.949 493.442L118.217 490.163C114.976 445.159 111.728 400.155 108.487 355.151C106.299 353.785 97.3123 347.849 94.5574 336.374C91.751 324.656 96.6715 312.303 104.281 306.389C105.179 305.688 105.923 305.222 106.962 304.58C114.91 299.677 122.423 298.909 126.887 298.378C135.151 297.388 145.081 295.764 157.802 293.438L200.79 293.704L200.805 293.689Z" fill="#DC9C7A"/>
<path d="M351.69 442.22C340.096 422.713 291.929 351.349 282.361 329.227C282.228 328.924 281.543 327.529 280.623 325.624C275.739 315.427 267.32 307.364 256.934 302.933C256.882 302.911 256.838 302.889 256.786 302.867C250.267 300.091 246.29 298.378 240.507 297.986C237.775 297.802 235.499 297.971 233.974 298.149C236.368 322.5 238.769 346.852 241.163 371.204C247.203 374.231 253.243 377.258 259.283 380.286C275.687 401.529 292.092 422.772 308.488 444.015C302.271 449.767 295.995 455.777 289.683 462.061C276.512 475.167 264.476 488.17 253.501 500.848C257.324 507.53 261.147 514.205 264.977 520.887C294.021 505.706 316.746 493.641 332.31 486.213C336.03 484.433 348.751 478.43 353.811 466.86C354.437 465.42 356.051 461.817 356.051 456.988C356.051 449.708 352.809 444.111 351.69 442.228V442.22Z" fill="#DC9C7A"/>
<path d="M199.383 298.333C196.532 300.157 189.999 303.782 180.946 304.115C170.368 304.491 162.715 300.127 159.909 298.333L160.034 279.084L160.203 252.177H198.926C199.007 260.019 199.081 267.846 199.155 275.687C199.236 283.233 199.309 290.787 199.383 298.333Z" fill="#DC9C7A"/>
<path d="M199.155 275.687C190.838 278.338 181.594 279.822 171.849 279.822C167.812 279.822 163.871 279.571 160.041 279.084L160.211 252.177H198.934C199.015 260.019 199.088 267.846 199.162 275.687H199.155Z" fill="#C8623E"/>
<path d="M136.544 198.025L142.436 222.384C142.864 227.183 144.182 234.781 148.602 242.866C148.675 242.999 149.088 243.767 149.545 244.543C154.06 252.236 167.687 269.175 183.553 267.299C188.098 266.76 191.317 264.855 194.809 262.788C202.293 258.35 206.219 252.687 210.034 247.186C213.297 242.483 217.43 235.911 219.588 226.489C220.214 223.743 220.494 220.937 220.494 218.116C220.494 210.806 220.494 203.489 220.494 196.179C238.968 134.082 121.289 127.946 136.544 198.025Z" fill="#DC9C7A"/>
<path d="M182.876 230.218C181.83 230.218 180.578 230.041 179.296 229.45C177.13 228.461 175.782 227.169 175.296 225.589C174.663 223.558 175.701 221.845 176.909 219.866C177.366 219.113 177.837 218.338 178.265 217.481C179.929 214.107 180.519 210.06 180.01 205.468L181.115 205.342C181.653 210.156 181.027 214.402 179.266 217.976C178.817 218.877 178.331 219.682 177.867 220.449C176.755 222.273 175.885 223.713 176.364 225.264C176.637 226.128 177.44 227.383 179.767 228.439C181.793 229.362 183.716 229.125 184.688 228.904L184.938 229.989C184.445 230.1 183.738 230.218 182.898 230.218H182.876Z" fill="#C9623E"/>
<g style="mix-blend-mode:multiply">
<path d="M181.277 241.833C180.998 241.833 180.725 241.833 180.452 241.833C174.869 241.737 169.389 240.681 164.159 238.68L164.593 237.528C169.691 239.47 175.031 240.504 180.475 240.6C186.478 240.703 192.341 239.669 197.954 237.528L198.389 238.68C192.886 240.777 187.133 241.84 181.285 241.84L181.277 241.833Z" fill="#C8623E"/>
</g>
<path d="M225.96 206.354L220.494 218.116C219.949 209.691 219.411 201.274 218.866 192.856C214.063 192.723 207.721 191.933 200.827 189.268C195.155 187.075 190.396 184.107 186.456 180.924C180.511 176.125 176.423 170.831 173.875 166.939C172.924 165.492 172.188 164.237 171.65 163.277C171.65 163.277 171.23 164.074 170.435 165.411C168.718 168.32 165.264 173.799 160.66 179.255C155.762 185.037 149.567 190.789 142.753 193.388L144.794 218.256C144.794 218.256 132.338 204.301 132.323 183.87C132.323 178.229 133.266 172.093 135.689 165.618C135.763 165.426 135.792 165.33 135.844 165.197C138.783 157.569 146.031 151.456 153.684 148.827C163.459 145.475 172.121 145.504 172.121 145.504C176.114 143.998 192.245 138.431 208.819 146.029C212.671 147.793 221.135 151.817 226.74 161.497C231.668 169.996 231.742 178.266 231.558 181.854C229.687 190.014 227.816 198.18 225.945 206.339L225.96 206.354Z" fill="#27283A"/>
<path d="M161.028 190.39C157.389 190.649 155.563 190.781 154.067 191.195C151.946 191.778 147.379 193.425 142.982 198.579L158.701 194.569L170.759 194.939L171.871 190.331L161.021 190.39H161.028Z" fill="#27283A"/>
<path d="M199.435 191.084C203.088 191.062 204.908 191.047 206.44 191.343C208.598 191.756 213.283 193.041 218.063 197.833L202.086 195.064L190.087 196.378L188.614 191.874L199.435 191.084Z" fill="#27283A"/>
<g style="mix-blend-mode:multiply" opacity="0.32">
<path d="M142.812 220.531C143.637 221.852 148.079 218.626 156.483 218.648C164.446 218.67 168.578 221.594 169.175 220.531C170.052 218.943 162.457 209.603 153.839 210.673C146.863 211.545 141.81 218.914 142.812 220.531Z" fill="#DC9C7A"/>
</g>
<g style="mix-blend-mode:multiply" opacity="0.32">
<path d="M193.461 222.34C194.286 223.661 198.727 220.435 207.132 220.457C215.095 220.479 219.227 223.403 219.824 222.34C220.7 220.752 213.106 211.412 204.488 212.482C197.512 213.354 192.459 220.723 193.461 222.34Z" fill="#DC9C7A"/>
</g>
<g style="mix-blend-mode:screen" opacity="0.5">
<path d="M170.994 164.687C169.256 167.626 165.772 173.171 161.109 178.68C160.829 178.303 160.564 177.904 160.321 177.498C155.909 186.595 143.055 190.279 134.518 184.897C133.774 184.424 133.089 183.907 132.47 183.353C132.47 177.646 133.42 171.443 135.873 164.901C138.105 166.917 140.823 168.401 143.748 169.132C148.602 170.351 153.942 169.457 158.141 166.74C160.535 165.189 163.135 162.487 165.161 160.471C166.899 162.147 168.873 163.558 170.994 164.687Z" fill="#27283A"/>
</g>
<g style="mix-blend-mode:screen" opacity="0.5">
<path d="M232.788 181.315C227.816 183.309 222.129 183.472 217.312 181.042C213.997 185.783 208.038 188.529 202.293 187.961C196.547 187.4 191.229 183.545 188.894 178.251C188.378 179.004 187.811 179.713 187.178 180.37C181.167 175.519 177.035 170.166 174.464 166.23C177.933 167.486 181.66 168.032 185.343 167.759C192.695 167.22 199.744 163.425 204.252 157.584C210.351 163.69 219.485 166.541 227.971 165.13C230.968 170.838 232.368 176.317 232.788 181.315Z" fill="#27283A"/>
</g>
<path d="M144.138 219.046C147.011 226.932 146.068 234.515 142.031 236C137.995 237.484 132.389 232.293 129.509 224.407C126.636 216.529 127.579 208.938 131.616 207.454C135.652 205.97 141.258 211.161 144.138 219.046Z" fill="#DC9C7A"/>
<path d="M139.984 226.77L138.879 226.681C138.886 226.585 139.578 217.134 135.387 215.222C134.894 215 133.214 214.336 132.139 215.155C131.292 215.805 131.004 217.245 131.432 218.744L130.364 219.046C129.811 217.082 130.246 215.207 131.468 214.269C133.037 213.073 135.218 213.915 135.851 214.203C140.742 216.433 140.02 226.349 139.991 226.77H139.984Z" fill="#C9623E"/>
<path d="M133.457 224.348C130.783 215.923 135.247 214.254 135.439 214.188L135.807 215.236C135.66 215.288 132.19 216.676 134.518 224.008L133.457 224.348Z" fill="#C9623E"/>
<path d="M140.971 233.364C140.971 235.66 139.114 237.521 136.824 237.521C134.533 237.521 132.677 235.66 132.677 233.364C132.677 231.067 134.533 229.207 136.824 229.207C139.114 229.207 140.971 231.067 140.971 233.364Z" fill="white"/>
<path d="M218.277 220.582C215.404 228.468 216.347 236.051 220.383 237.535C224.42 239.012 230.026 233.829 232.906 225.943C235.778 218.064 234.836 210.474 230.799 208.99C226.762 207.506 221.157 212.696 218.277 220.582Z" fill="#DC9C7A"/>
<path d="M222.424 228.306C222.394 227.885 221.665 217.976 226.563 215.746C227.197 215.458 229.377 214.609 230.946 215.812C232.169 216.75 232.604 218.626 232.051 220.59L230.983 220.287C231.403 218.788 231.123 217.341 230.276 216.691C229.201 215.871 227.521 216.536 227.028 216.757C222.836 218.67 223.529 228.121 223.536 228.217L222.431 228.306H222.424Z" fill="#C9623E"/>
<path d="M228.958 225.876L227.897 225.537C230.224 218.205 226.755 216.824 226.608 216.765L226.976 215.716C227.168 215.783 231.631 217.444 228.958 225.876Z" fill="#C9623E"/>
<g style="mix-blend-mode:multiply">
<path d="M167.304 238.466C173.05 235.217 176.04 235.195 177.72 235.918C178.206 236.125 181.211 237.528 181.211 237.528C181.211 237.528 181.97 236.775 183.17 236.192C183.951 235.815 185.248 235.49 187.826 235.918C189.387 236.177 191.951 236.812 194.875 238.576C192.157 244.941 185.749 248.737 179.325 247.976C174 247.341 169.389 243.664 167.304 238.466Z" fill="#EEBACC"/>
</g>
<path d="M142.768 193.395C144.079 203.363 145.169 213.863 145.943 224.865C147.136 241.685 147.445 257.523 147.173 272.21C144.72 272.763 140.138 273.435 134.813 271.914C132.021 271.117 129.811 269.943 128.22 268.916C133.708 257.043 135.026 247.341 135.24 240.806C136.256 210.622 135.166 200.735 135.166 200.735C134.982 199.066 134.452 194.614 136.787 193.011C138.518 191.83 141.125 192.686 142.753 193.403L142.768 193.395Z" fill="#27283A"/>
<path d="M155.113 209.595C155.253 209.381 155.445 209.093 155.688 208.768C156.859 206.546 158.715 204.404 161.161 204.308C166.081 204.109 169.293 212.372 168.733 213.191C168.306 213.811 165.838 209.994 161.824 209.972C160.697 209.972 159.695 210.267 158.818 210.695C158.818 210.695 158.833 210.695 158.841 210.695C158.539 210.843 158.259 210.998 157.986 211.168C157.957 211.19 157.927 211.205 157.89 211.227C157.765 211.308 157.64 211.389 157.522 211.471C157.5 211.485 157.485 211.5 157.463 211.515C157.213 211.692 156.97 211.877 156.749 212.061C156.653 212.143 156.557 212.216 156.469 212.298C156.424 212.335 156.388 212.372 156.343 212.408C156.262 212.475 156.181 212.549 156.108 212.615C156.041 212.674 155.975 212.733 155.909 212.792C155.857 212.837 155.806 212.888 155.754 212.933C155.614 213.066 155.482 213.184 155.356 213.294C155.32 213.331 155.275 213.361 155.239 213.398C155.187 213.442 155.143 213.486 155.091 213.523C155.04 213.568 154.995 213.597 154.951 213.634C154.914 213.664 154.878 213.693 154.848 213.715C154.789 213.76 154.73 213.789 154.679 213.819C154.657 213.826 154.642 213.834 154.627 213.841C154.583 213.856 154.546 213.863 154.509 213.863C154.495 213.863 154.48 213.863 154.472 213.863C154.428 213.863 154.391 213.841 154.362 213.804C154.362 213.797 154.355 213.782 154.347 213.774C154.333 213.752 154.318 213.723 154.303 213.686C154.303 213.686 154.303 213.678 154.303 213.671C154.288 213.627 154.281 213.568 154.274 213.509C153.485 213.117 152.572 212.527 151.666 211.611C150.871 210.799 150.252 209.928 149.788 209.13C151.57 209.293 153.338 209.455 155.121 209.61L155.113 209.595Z" fill="#27283A"/>
<path d="M207.515 209.595C207.375 209.381 207.184 209.093 206.941 208.768C205.769 206.546 203.913 204.404 201.468 204.308C196.547 204.109 193.336 212.372 193.895 213.191C194.323 213.811 196.79 209.994 200.805 209.972C201.932 209.972 202.933 210.267 203.81 210.695C203.81 210.695 203.795 210.695 203.788 210.695C204.09 210.843 204.37 210.998 204.642 211.168C204.672 211.19 204.701 211.205 204.738 211.227C204.863 211.308 204.989 211.389 205.106 211.471C205.129 211.485 205.143 211.5 205.165 211.515C205.416 211.692 205.659 211.877 205.88 212.061C205.976 212.143 206.071 212.216 206.16 212.298C206.204 212.335 206.241 212.372 206.285 212.408C206.366 212.475 206.447 212.549 206.521 212.615C206.587 212.674 206.653 212.733 206.72 212.792C206.771 212.837 206.823 212.888 206.874 212.933C207.014 213.066 207.147 213.184 207.272 213.294C207.309 213.331 207.353 213.361 207.39 213.398C207.441 213.442 207.486 213.486 207.537 213.523C207.589 213.568 207.633 213.597 207.677 213.634C207.714 213.664 207.751 213.693 207.78 213.715C207.839 213.76 207.898 213.789 207.95 213.819C207.972 213.826 207.987 213.834 208.001 213.841C208.045 213.856 208.082 213.863 208.119 213.863C208.134 213.863 208.149 213.863 208.156 213.863C208.2 213.863 208.237 213.841 208.266 213.804C208.266 213.797 208.274 213.782 208.281 213.774C208.296 213.752 208.311 213.723 208.325 213.686C208.325 213.686 208.325 213.678 208.325 213.671C208.34 213.627 208.347 213.568 208.355 213.509C209.143 213.117 210.056 212.527 210.962 211.611C211.758 210.799 212.377 209.928 212.841 209.13C211.058 209.293 209.29 209.455 207.508 209.61L207.515 209.595Z" fill="#27283A"/>
<path d="M165.382 323.01C159.091 316.903 145.957 312.023 145.825 311.971L146.186 310.982C146.731 311.181 159.658 315.995 166.111 322.249L165.382 323.002V323.01Z" fill="#C9623E"/>
<path d="M191.848 323.01L191.118 322.257C197.571 315.995 210.498 311.188 211.043 310.989L211.404 311.978C211.272 312.03 198.138 316.911 191.848 323.017V323.01Z" fill="#C9623E"/>
<path d="M233.583 165.145C233.583 165.551 233.466 165.942 233.252 166.334C232.751 167.257 231.676 168.128 230.114 168.955C222.733 172.839 204.385 175.49 182.957 175.327C165.978 175.194 150.981 173.326 141.855 170.572C136.941 169.088 133.722 167.345 132.824 165.47C132.654 165.116 132.566 164.739 132.573 164.37C132.595 162.738 134.371 161.21 137.531 159.858C141.324 158.241 147.099 156.868 154.215 155.886C162.428 154.749 172.423 154.114 183.2 154.195C204.105 154.357 222.011 157.148 229.65 161.003C230.652 161.505 231.477 162.022 232.103 162.568C233.075 163.395 233.591 164.259 233.583 165.152V165.145Z" fill="#6A61F1"/>
<g style="mix-blend-mode:screen">
<path d="M227.204 164.466C226.785 164.65 226.343 164.828 225.886 164.99C225.157 165.271 224.383 165.536 223.573 165.787C223.124 165.928 222.66 166.068 222.188 166.201C220.509 166.681 218.689 167.117 216.723 167.515C216.119 167.641 215.507 167.759 214.881 167.877C213.459 168.136 211.964 168.379 210.417 168.593C209.644 168.704 208.856 168.807 208.053 168.903C200.679 169.797 192.135 170.21 183.067 170.018C173.462 169.804 164.527 168.926 156.999 167.589C156.587 167.515 156.181 167.441 155.776 167.368C153.81 166.998 151.946 166.592 150.193 166.171C149.964 166.12 149.729 166.053 149.508 165.994C147.077 165.381 144.875 164.709 142.959 163.986H142.952C142.878 163.956 142.797 163.927 142.724 163.897C141.096 163.262 139.667 162.605 138.481 161.933C138.451 161.918 138.422 161.896 138.4 161.889C138.12 156.093 138.886 150.141 140.831 144.323C148.896 120.075 174.28 107.264 197.512 115.711C217.437 122.954 229.333 143.481 227.197 164.481L227.204 164.466Z" fill="#DB6B93"/>
</g>
<path d="M223.573 165.787C223.124 165.928 222.66 166.068 222.188 166.201C220.509 166.681 218.689 167.117 216.723 167.515C216.119 167.641 215.507 167.759 214.881 167.877C213.459 168.136 211.964 168.379 210.417 168.593C209.644 168.704 208.856 168.807 208.053 168.903C200.679 169.797 192.135 170.21 183.067 170.018C173.462 169.804 164.527 168.926 156.999 167.589C156.587 167.515 156.181 167.441 155.776 167.368C153.81 166.998 151.946 166.592 150.193 166.171C149.964 166.12 149.729 166.053 149.508 165.994C147.077 165.381 144.875 164.709 142.959 163.986H142.952C142.878 163.956 142.797 163.927 142.724 163.897C142.319 158.308 142.989 152.534 144.867 146.9C152.226 124.793 175.377 113.112 196.562 120.806C214.903 127.473 225.761 146.472 223.566 165.795L223.573 165.787Z" fill="#ED8EB2"/>
<path d="M216.723 167.515C216.119 167.641 215.507 167.759 214.881 167.877C213.459 168.135 211.964 168.379 210.417 168.593C209.644 168.704 208.856 168.807 208.053 168.903C200.679 169.797 192.135 170.21 183.067 170.018C173.462 169.804 164.527 168.926 156.999 167.589C156.587 167.515 156.181 167.441 155.776 167.368C153.81 166.998 151.946 166.592 150.193 166.171C149.964 166.12 149.729 166.053 149.508 165.994C148.727 160.508 149.176 154.749 151.04 149.152C157.22 130.596 176.637 120.791 194.418 127.252C210.609 133.136 219.86 150.474 216.715 167.537L216.723 167.515Z" fill="#DB6B93"/>
<path d="M210.41 168.593C209.636 168.704 208.848 168.807 208.045 168.903C200.672 169.797 192.127 170.21 183.06 170.018C173.455 169.804 164.52 168.926 156.992 167.589C156.579 167.515 156.174 167.441 155.769 167.368C154.62 162.169 154.819 156.587 156.616 151.168C161.721 135.839 177.771 127.732 192.474 133.07C206.557 138.187 214.284 153.804 210.403 168.601L210.41 168.593Z" fill="#EEBACC"/>
<g style="mix-blend-mode:multiply" opacity="0.5">
<path d="M197.905 158.762C201.132 158.447 203.512 155.767 203.222 152.776C202.931 149.784 200.08 147.615 196.853 147.93C193.626 148.244 191.245 150.925 191.536 153.916C191.826 156.907 194.678 159.077 197.905 158.762Z" fill="#EEBACC"/>
</g>
<g style="mix-blend-mode:multiply" opacity="0.5">
<path d="M163.621 151.928C163.813 154.926 166.59 157.178 169.823 156.956C173.057 156.735 175.524 154.121 175.326 151.116C175.134 148.118 172.357 145.866 169.123 146.088C165.89 146.309 163.422 148.923 163.621 151.928Z" fill="#EEBACC"/>
</g>
<path d="M170.184 148.052C170.28 149.492 171.473 150.584 172.851 150.488C174.228 150.392 175.274 149.145 175.186 147.705C175.09 146.265 173.897 145.172 172.519 145.268C171.142 145.364 170.096 146.612 170.184 148.052Z" fill="#181054"/>
<path d="M191.582 150.503C191.833 150.732 193.026 148.834 195.052 148.797C197.07 148.76 198.308 150.606 198.588 150.341C198.941 150.001 197.659 146.368 195.207 146.294C192.614 146.213 191.251 150.2 191.575 150.503H191.582Z" fill="#181054"/>
<path d="M177.513 151.478C177.513 151.478 182.957 159.452 188.968 151.699" stroke="#181054" stroke-width="2" stroke-linecap="round" stroke-linejoin="round"/>
<g style="mix-blend-mode:multiply">
<path d="M167.076 150.976L163.533 154.188" stroke="#EEBACC" stroke-miterlimit="10"/>
<path d="M168.991 152.453C168.306 153.885 167.621 155.325 166.936 156.757" stroke="#EEBACC" stroke-miterlimit="10"/>
<path d="M171.4 153.464C171.134 154.8 170.877 156.13 170.611 157.466" stroke="#EEBACC" stroke-miterlimit="10"/>
</g>
<g style="mix-blend-mode:multiply">
<path d="M196.518 152.327L196.827 157.104" stroke="#EEBACC" stroke-miterlimit="10"/>
<path d="M198.86 151.744C199.552 153.176 200.252 154.601 200.945 156.034" stroke="#EEBACC" stroke-miterlimit="10"/>
<path d="M201.151 150.481C202.027 151.515 202.911 152.556 203.788 153.59" stroke="#EEBACC" stroke-miterlimit="10"/>
</g>
<path d="M86.8231 260.13C85.6077 256.777 84.385 253.425 83.1696 250.073L78.8973 224.245L75.914 196.917C75.914 196.917 68.828 195.581 67.6715 205.01C66.515 214.439 63.2666 220.752 63.2666 220.752L52.8069 211.737C47.0909 206.465 40.7414 205.401 37.9276 207.86C37.4267 208.296 36.2334 209.544 36.0934 212.534C35.4526 213.007 33.0807 214.852 32.3073 218.249C31.6886 220.959 32.4325 223.159 32.7566 223.994C31.9169 224.193 29.9723 224.798 28.4402 226.593C25.6116 229.893 26.7533 234.227 26.8638 234.626C26.083 236.088 24.9781 238.673 24.9708 242.003C24.9708 243.354 25.1475 244.543 25.3685 245.517C26.4366 248.722 27.5047 251.926 28.5727 255.131L64.2684 283.728C65.5795 283.536 80.3631 281.188 85.3131 269.241C86.6905 265.911 86.9483 262.699 86.8231 260.137V260.13Z" fill="#DC9C7A"/>
<path d="M68.4744 258.203C68.4744 258.203 51.5473 237.934 63.2666 220.745" stroke="#C9623E" stroke-miterlimit="10"/>
<path d="M60.4455 228.35C60.4455 228.35 38.8925 217.858 36.0934 212.527" stroke="#C9623E" stroke-miterlimit="10"/>
<path d="M56.2763 226.666C57.9042 229.738 57.2854 233.068 55.3187 234.493C53.8602 235.542 52.0556 235.269 51.4736 235.158C45.2346 231.436 38.9883 227.715 32.7493 223.994" stroke="#C9623E" stroke-miterlimit="10"/>
<path d="M49.588 234.552C51.2453 237.402 51.1127 240.814 49.3081 243.117C47.6286 245.259 45.1242 245.635 44.4981 245.709C38.5611 241.899 32.6167 238.097 26.6797 234.286" stroke="#C9623E" stroke-miterlimit="10"/>
<path d="M44.4907 245.709C44.4907 245.709 43.2016 253.241 39.3492 253.713C35.4894 254.193 24.9781 244.956 24.9781 244.956" stroke="#C9623E" stroke-miterlimit="10"/>
<path d="M64.2684 283.721C56.7035 315.139 50.3614 342.924 45.2125 366.153C30.5468 432.326 29.1988 453.407 39.6659 459.764C52.2176 467.377 78.6615 445.853 89.5927 434.741C107.787 416.244 114.004 395.105 116.294 384.79C131.903 319.237 129.251 300.785 122.629 297.905C115.433 294.782 102.233 309.52 101.017 310.9C83.5378 330.726 85.0405 357.861 84.0461 357.809C83.3021 357.772 82.9707 342.665 85.5782 265.527C85.5782 265.527 67.7967 272.704 64.2757 283.721H64.2684Z" fill="#DC9C7A"/>
<path d="M132.448 294.73C131.675 300.467 127.491 334.647 145.817 346.335C148.756 348.21 151.88 350.189 160.896 350.278C198.698 350.655 216.236 353.652 223.153 344.29C230.077 334.927 241.362 296.775 241.362 296.775C246.002 297.61 250.93 298.961 255.983 301.08C283.436 312.591 295.73 338.84 299.811 348.905C284.991 356.768 270.17 364.632 255.357 372.496C252.168 412.833 248.978 453.178 245.789 493.515L112.641 490.377C112.354 449.589 112.066 408.794 111.779 368.006C110.387 369.911 108.987 371.816 107.595 373.721C96.9735 363.783 86.3443 353.844 75.7225 343.906C80.6062 316.874 96.0822 296.716 115.05 293.342C119.094 292.626 125.016 292.36 132.456 294.73H132.448Z" fill="#6A61F1"/>
<path d="M86.8231 260.13C86.882 301.198 86.9409 342.274 86.9999 383.342L39.1135 394.942L63.7969 279.822C65.1818 269.094 71.2219 260.949 78.772 259.414C80.4146 259.081 83.2064 258.838 86.8157 260.122L86.8231 260.13Z" fill="#DC9C7A"/>
<path d="M86.9999 354.457C86.9999 354.457 90.5135 380.898 84.2524 394.935" stroke="#C9623E" stroke-miterlimit="10"/>
<path d="M226.615 237.521C226.615 239.817 224.759 241.678 222.468 241.678C220.177 241.678 218.321 239.817 218.321 237.521C218.321 235.224 220.177 233.364 222.468 233.364C224.759 233.364 226.615 235.224 226.615 237.521Z" fill="white"/>
<path d="M153.574 294.191C158.929 305.023 170.088 311.809 182.117 311.543C194.256 311.277 205.187 303.886 209.997 292.692" stroke="white" stroke-miterlimit="10"/>
</g>
<path d="M97.467 168.394C107.33 166.356 118.099 172.957 120.92 182.6C121.583 184.874 125.141 183.907 124.471 181.618C121.863 172.691 113.621 165.913 104.487 164.606C101.806 164.222 99.1464 164.281 96.4873 164.828C95.515 165.027 94.9478 166.179 95.1983 167.102C95.4782 168.113 96.4873 168.593 97.467 168.394Z" fill="#EEBACC"/>
<path d="M240.574 125.081C238.894 127.281 237.215 129.482 235.535 131.689C233.215 129.142 230.902 126.602 228.582 124.054C228.169 125.716 227.757 127.37 227.344 129.031C229.503 130.537 231.653 132.044 233.812 133.543C232.272 135.61 230.733 137.67 229.186 139.738L231.3 141.783L236.294 134.916L242.025 139.738L243.329 138.091L237.392 132.93L243.329 126.388L240.581 125.081H240.574Z" fill="#EEBACC"/>
<path d="M260.403 162.915C260.064 162.915 259.733 162.886 259.416 162.819C257.574 162.457 255.622 160.958 255.637 158.898C255.652 156.292 258.488 155.258 259.35 155C261.022 154.512 262.517 154.756 263.57 155.686C264.859 156.824 265.272 158.839 264.535 160.471C263.777 162.155 262.031 162.922 260.388 162.922L260.403 162.915ZM260.978 156.233C260.513 156.233 260.079 156.329 259.77 156.417C259.151 156.602 257.125 157.318 257.11 158.906C257.103 160.235 258.65 161.165 259.703 161.372C260.963 161.623 262.613 161.18 263.202 159.866C263.666 158.825 263.408 157.51 262.605 156.801C262.119 156.373 261.523 156.24 260.97 156.24L260.978 156.233Z" fill="#EEBACC"/>
<path d="M139.932 119.801C139.593 119.801 139.269 119.772 138.952 119.705C137.111 119.344 135.159 117.845 135.174 115.785C135.188 113.178 138.024 112.144 138.886 111.886C140.558 111.399 142.053 111.635 143.107 112.573C144.396 113.71 144.808 115.726 144.072 117.35C143.313 119.034 141.56 119.801 139.925 119.801H139.932ZM140.507 113.119C140.042 113.119 139.608 113.215 139.299 113.304C138.68 113.488 136.654 114.205 136.639 115.792C136.632 117.121 138.179 118.051 139.232 118.258C140.492 118.509 142.142 118.059 142.731 116.752C143.195 115.711 142.937 114.397 142.134 113.688C141.648 113.259 141.052 113.127 140.507 113.127V113.119Z" fill="#EEBACC"/>
<path d="M273.736 127.768C271.496 127.768 269.272 127.296 267.209 126.321C261.405 123.589 259.357 118.088 258.864 116.464C258.053 113.717 257.081 108.401 259.711 103.646C260.44 102.324 262.672 98.2926 266.001 98.4845C266.9 98.5288 267.776 98.8833 268.594 99.533L268.719 99.6512C269.898 101.017 270.428 102.893 270.936 104.716C271.194 105.632 271.437 106.496 271.747 107.227L271.784 107.338C273.33 112.853 277.404 114.589 280.674 115.977C282.847 116.9 284.726 117.697 285.226 119.447C285.595 120.739 285.109 122.29 283.694 124.328L283.606 124.453L283.481 124.542C280.556 126.676 277.124 127.768 273.728 127.768H273.736ZM265.795 100.323C264.373 100.323 262.871 101.741 261.324 104.539C259.018 108.711 259.902 113.474 260.631 115.94C261.066 117.372 262.878 122.245 267.997 124.653C272.527 126.786 277.986 126.203 282.28 123.139C283.26 121.699 283.658 120.628 283.466 119.949C283.208 119.048 281.706 118.406 279.967 117.668C276.535 116.206 271.835 114.205 270.038 107.884C269.692 107.057 269.426 106.119 269.176 105.211C268.727 103.624 268.263 101.977 267.393 100.921C266.9 100.545 266.399 100.345 265.913 100.323C265.876 100.323 265.839 100.323 265.802 100.323H265.795Z" fill="#EEBACC"/>
<path d="M226.88 200.69C227.86 195.972 230.232 191.32 233.915 188.138C235.742 186.558 238.401 184.948 240.868 184.823C243.292 184.705 245.597 185.827 247.225 187.599C250.68 191.365 250.017 197.833 245.479 200.402C244.654 200.868 241.966 202.374 241.502 200.993C241.185 200.055 241.31 198.793 241.377 197.818C241.465 196.652 241.715 195.5 242.076 194.392C243.542 189.866 246.989 186.085 250.997 183.641C253.096 182.364 255.387 181.397 257.81 180.954C260.027 180.548 262.694 180.651 264.447 182.246C266.237 183.87 266.951 186.602 267.047 188.958C267.136 191.084 266.752 193.277 265.648 195.116C264.867 196.423 262.333 199.206 260.874 197.427C259.239 195.426 259.166 192.369 259.755 189.977C260.182 188.234 261.022 186.514 261.869 184.926C262.819 183.161 264.057 181.507 265.788 180.444C269.809 177.971 274.943 179.329 278.472 182.061C279.496 182.859 280.409 183.789 281.241 184.786C282.383 186.159 284.328 184.188 283.193 182.829C279.444 178.318 273.301 175.224 267.386 176.782C262.377 178.104 259.769 182.497 257.869 186.957C256.587 189.962 256.175 193.536 257.361 196.644C257.928 198.128 258.79 199.708 260.27 200.447C261.817 201.222 263.556 200.624 264.926 199.745C269.669 196.711 270.701 190.058 269.132 184.993C268.152 181.832 266.09 179.196 262.79 178.34C259.821 177.572 256.602 178.14 253.781 179.211C248.234 181.315 243.255 185.443 240.574 190.796C239.285 193.373 238.519 196.223 238.555 199.118C238.57 200.469 238.622 202.02 239.535 203.105C240.537 204.286 242.054 204.434 243.491 204.146C245.678 203.696 247.991 202.367 249.464 200.705C251.652 198.239 252.514 194.85 252.035 191.608C251.07 185.074 244.065 180.267 237.716 182.711C231.779 184.993 227.565 190.154 225.326 196.002C224.84 197.279 224.464 198.601 224.184 199.945C223.823 201.687 226.483 202.426 226.851 200.683L226.88 200.69Z" fill="#EEBACC"/>
<path d="M88.0238 146.988C85.9465 146.988 84.2082 145.652 82.735 144.515C81.9542 143.917 81.2249 143.356 80.481 142.972C78.2343 141.827 74.6471 142.255 73.2107 142.492C69.5498 143.097 66.0583 142.344 63.8706 140.469C62.1691 139.014 61.2631 136.946 61.2557 134.473C60.0108 127.119 62.5079 116.959 68.0914 114.079C70.4779 112.846 74.404 112.469 79.516 117.66C80.8419 119.085 81.9836 120.724 83.0885 122.312C85.3499 125.568 87.4934 128.64 91.0217 129.976C94.388 131.254 95.5445 133.513 95.9201 135.189C96.5904 138.202 95.3308 141.812 92.6275 144.611C92.0088 145.253 91.3385 145.91 90.484 146.353C89.6148 146.804 88.7972 146.988 88.0238 146.988ZM76.4518 140.373C78.0944 140.373 79.877 140.601 81.3207 141.332C82.212 141.79 83.0443 142.433 83.8546 143.053C86.1086 144.781 87.6186 145.755 89.6369 144.714C90.2409 144.404 90.7713 143.88 91.3016 143.326C93.5409 141.008 94.6458 137.973 94.1154 135.595C93.7177 133.801 92.4507 132.494 90.3662 131.704C86.3001 130.168 83.8988 126.713 81.5711 123.368C80.4589 121.765 79.4055 120.252 78.1828 118.945C74.7208 115.438 71.6049 114.352 68.9237 115.733C64.2463 118.147 61.9407 127.665 63.0751 134.251L63.0898 134.333V134.414C63.0898 136.385 63.7454 137.958 65.0566 139.08C66.8391 140.601 69.7708 141.2 72.9087 140.683C73.8147 140.535 75.0891 140.38 76.4444 140.38L76.4518 140.373Z" fill="#EEBACC"/>
<path d="M127.903 123.383C122.769 128.625 117.635 133.86 112.501 139.103C111.705 139.915 112.516 141.163 113.569 140.934C114.659 140.698 115.484 140.077 116.155 139.206C116.515 138.733 116.221 137.98 115.764 137.707C115.204 137.367 114.622 137.633 114.269 138.098C113.952 138.512 113.481 138.711 112.994 138.815C113.348 139.428 113.702 140.04 114.063 140.646C119.197 135.403 124.331 130.168 129.465 124.926C130.452 123.914 128.905 122.364 127.918 123.375L127.903 123.383Z" fill="#EEBACC"/>
<path d="M115.573 124.032C118.593 129.792 121.502 135.603 124.287 141.48C124.891 142.758 126.776 141.643 126.18 140.373C123.395 134.495 120.486 128.684 117.466 122.925C116.81 121.677 114.917 122.784 115.573 124.032Z" fill="#EEBACC"/>
<path d="M121.62 120.599C120.169 128.212 118.327 135.743 116.096 143.171C115.69 144.53 117.804 145.106 118.21 143.754C120.434 136.334 122.283 128.795 123.734 121.182C123.999 119.801 121.885 119.211 121.62 120.599Z" fill="#EEBACC"/>
<path d="M110.932 132.849C117.355 132.155 123.83 132.177 130.253 132.915C130.842 132.982 131.351 132.361 131.351 131.815C131.351 131.165 130.842 130.789 130.253 130.715C123.837 129.976 117.355 129.954 110.932 130.648C110.343 130.715 109.834 131.106 109.834 131.748C109.834 132.295 110.335 132.908 110.932 132.849Z" fill="#EEBACC"/>
</g>
<defs>
<clipPath id="clip0_575_289">
<rect width="369" height="370" fill="white"/>
</clipPath>
</defs>
</svg>
