<svg width="316" height="385" viewBox="0 0 316 385" fill="none" xmlns="http://www.w3.org/2000/svg">
<g style="mix-blend-mode:multiply" opacity="0.4">
<path d="M102.655 295C80.3803 287.637 37.3409 273.407 15.2582 230.879C-10.9986 180.31 3.36729 110.105 49.376 72.5847C103.908 28.1127 236.644 27.3307 245.116 115.874C250.554 115.407 276.749 113.727 296.477 132.161C317.492 151.799 315.944 180.035 315.302 191.72C313.273 228.664 289.924 253.669 282.265 261.64C236.6 309.154 159.134 313.671 102.655 295Z" fill="#FF63A5"/>
</g>
<path d="M279.255 178.025L278.311 177.693C277.683 172.445 276.611 168.604 276.227 167.328C272.043 153.428 261.645 140.684 247.471 130.271V130.268C229.384 116.981 205.139 107.492 179.768 104.244C179.689 103.952 179.641 103.791 179.641 103.791L179.675 104.23C164.66 102.316 149.258 102.594 134.507 105.561C127.36 106.998 120.365 109.066 113.64 111.827C105.034 115.359 85.399 124.739 69.1176 142.817H69.1141C61.7956 150.945 55.1533 160.822 50.4985 172.723C45.4284 185.684 44.1377 197.382 43.8734 205.308C39.888 217.391 42.8504 230.509 51.4219 239.33C55.5824 243.61 61.6926 246.93 70.5628 248.186C70.5525 248.189 70.5422 248.192 70.5422 248.192C71.2321 278.095 114.419 280.078 114.419 280.078L107.767 290.682L127.443 296.684L149.653 275.084C161.89 274.604 171.237 267.055 171.237 267.055C205.17 279.162 237.207 262.038 230.73 231.545C230.73 231.545 246.342 232.046 259.681 223.602H259.695H259.688C263.179 221.386 266.516 218.574 269.372 214.969C278.613 203.312 279.44 189.155 278.479 179.226C278.987 178.464 279.258 178.012 279.258 178.012L279.255 178.025Z" fill="#C2BFF9"/>
<path d="M262.016 180.773C262.819 189.467 262.029 201.741 254.007 211.869C251.498 215.021 248.576 217.49 245.514 219.425V219.599C245.514 219.599 245.412 219.599 245.257 219.593C234.338 226.38 221.815 226.428 220.281 226.397V226.435L220.112 226.397C222.254 236.466 219.601 244.866 213.879 250.871C213.734 250.418 213.542 249.976 213.319 249.557C210.923 245.006 204.545 242.773 198.428 245.181V226.472L197.724 225.828C197.717 226.044 197.71 226.26 197.707 226.472H176.507C178.968 220.642 177.413 214.746 173.609 212.353C171.701 211.149 169.02 210.703 166.775 211.629C162.673 213.327 160.218 219.548 162.384 226.472H140.511V245.335C145.794 242.907 151.722 244.307 154.74 248.309C156.937 251.231 157.64 255.617 155.739 258.992C153.222 263.461 146.539 265.426 140.511 262.415V272.844L132.177 280.949L129.526 283.531L123.773 281.772L112.267 278.267L118.106 268.966C118.106 268.966 84.4858 267.419 80.0885 245.315C79.8139 243.957 79.6525 242.52 79.6182 240.997C79.6182 240.997 79.6251 240.997 79.6388 240.99C71.8602 239.886 66.5018 236.974 62.8528 233.225C61.1708 231.493 59.7325 229.573 58.5585 227.518L84.2455 226.332V169.616L63.6526 170.964C66.9446 163.645 71.0948 157.266 75.6534 151.727C76.5459 150.643 77.4521 149.594 78.3687 148.579L78.2932 148.428C78.2932 148.428 78.4339 148.356 78.6639 148.246C88.2549 137.696 99.1297 130.563 107.492 126.094C111.525 123.933 114.979 122.397 117.419 121.395C118.871 120.799 120.34 120.239 121.82 119.715C126.344 118.113 130.989 116.851 135.712 115.901L135.853 115.795C135.853 115.795 135.874 115.829 135.898 115.86C137.429 115.555 138.966 115.284 140.511 115.047C151.939 113.27 163.716 113.264 175.233 114.718C175.182 114.519 175.144 114.402 175.144 114.395L175.47 114.296C175.47 114.296 175.518 114.478 175.597 114.766C182.775 115.692 189.846 117.194 196.67 119.19C210.93 123.36 224.087 129.705 234.791 137.569L234.952 137.515C234.952 137.515 234.986 137.6 235.021 137.737C243.558 144.045 250.509 151.322 255.195 159.224C257.272 162.722 258.899 166.351 260.018 170.069C260.378 171.276 261.446 175.09 261.964 180.251C262.318 179.709 262.517 179.387 262.527 179.366L262.819 179.534C262.805 179.565 262.524 180.028 262.016 180.773Z" fill="#6A61F1"/>
<path d="M84.2455 226.332L58.5585 227.518H58.5551C54.4736 220.385 53.5193 211.612 56.2277 203.388V203.381L56.0972 203.281C56.1419 203.22 56.1968 203.172 56.2448 203.113C56.492 196.165 57.6488 186.027 62.0393 174.802C62.5507 173.495 63.0897 172.216 63.6526 170.964L84.2421 169.616V226.332H84.2455Z" fill="#8D8BF2"/>
<path d="M155.742 258.992C153.226 263.458 146.542 265.426 140.511 262.415V280.949H123.598C123.667 281.223 123.725 281.501 123.773 281.775L112.27 278.267L118.106 268.966C118.106 268.966 84.4858 267.419 80.0919 245.315C81.5268 245.582 82.9445 246.155 84.2455 247.043V226.332L140.511 226.472V245.335C145.794 242.907 151.726 244.307 154.74 248.309C156.94 251.234 157.64 255.617 155.742 258.996V258.992Z" fill="#8D8BF2"/>
<path d="M84.2456 169.616H105.343C102.93 176.105 104.457 182.734 108.796 186.099C109.112 186.342 113.259 189.467 117.344 188.133C122.287 186.517 125.713 178.838 123.43 169.616H140.511V189.919C145.883 187.018 152.103 188.448 154.908 192.54C156.865 195.393 157.057 199.395 155.344 202.372C152.828 206.745 146.357 208.638 140.508 205.754V226.332H121.92C124.305 233.184 121.992 239.666 117.67 241.748C115.222 242.928 112.226 242.65 110.018 241.443C105.724 239.097 103.623 232.814 105.844 226.332H84.2421V206.759C77.1021 210.363 69.4506 208.076 66.8657 203.223C64.9159 199.56 65.7638 194.546 68.7194 191.37C72.4507 187.361 79.1583 186.716 84.2765 190.358C84.2662 183.444 84.2524 176.53 84.2421 169.619L84.2456 169.616Z" fill="#F1CB30"/>
<path d="M156.751 148.428C156.69 148.52 156.624 148.61 156.559 148.699C156.508 148.771 156.453 148.846 156.398 148.915C156.374 148.949 156.35 148.976 156.326 149.007C156.267 149.079 156.209 149.155 156.147 149.223C156.079 149.306 156.006 149.391 155.927 149.474C155.77 149.645 155.608 149.813 155.437 149.978C155.375 150.036 155.313 150.095 155.251 150.149C155.227 150.173 155.2 150.197 155.176 150.221C155.066 150.317 154.956 150.41 154.843 150.506C154.548 150.746 154.235 150.976 153.912 151.189C153.727 151.309 153.535 151.425 153.343 151.535C153.15 151.648 152.951 151.751 152.752 151.847C152.653 151.895 152.55 151.943 152.447 151.988C152.141 152.128 151.825 152.255 151.506 152.368C151.4 152.41 151.29 152.444 151.183 152.478C151.074 152.516 150.964 152.547 150.854 152.581C150.634 152.643 150.415 152.701 150.191 152.753C149.968 152.801 149.738 152.849 149.508 152.886C149.282 152.927 149.055 152.955 148.825 152.982C146.103 153.288 143.161 152.711 140.511 151.065V169.616H123.43C125.709 178.838 122.283 186.514 117.344 188.133C113.255 189.463 109.112 186.339 108.793 186.095C104.457 182.734 102.923 176.105 105.343 169.613H84.2421V151.062C81.3346 152.317 78.2966 152.464 75.6569 151.724C76.5494 150.64 77.4522 149.594 78.3687 148.575L78.2932 148.424C78.2932 148.424 78.4339 148.352 78.6674 148.243C88.2584 137.693 99.1332 130.559 107.495 126.091C108.113 126.759 108.824 127.315 109.61 127.74C109.788 127.836 113.207 129.609 116.582 128.128C119.407 126.883 121.422 123.7 121.823 119.715C126.348 118.113 130.996 116.851 135.716 115.901L135.856 115.795C135.856 115.795 135.874 115.829 135.901 115.86C137.432 115.555 138.97 115.284 140.515 115.047V134.706C143.134 132.607 146.292 131.784 149.23 132.079C149.604 132.116 149.975 132.171 150.336 132.243L150.391 132.254C150.524 132.284 150.662 132.312 150.796 132.346C151.197 132.442 151.592 132.562 151.976 132.703C151.98 132.703 151.983 132.706 151.987 132.706C152.158 132.768 152.33 132.837 152.498 132.912C152.587 132.95 152.67 132.984 152.752 133.022C152.92 133.097 153.089 133.18 153.25 133.265C153.332 133.31 153.415 133.355 153.494 133.396C153.497 133.399 153.501 133.399 153.501 133.403C153.662 133.492 153.823 133.584 153.974 133.684C154.132 133.783 154.283 133.886 154.434 133.989C155.038 134.421 155.595 134.918 156.092 135.481C159.288 139.113 159.309 144.696 156.755 148.424L156.751 148.428Z" fill="#BDE45B"/>
<path d="M183.763 194.796C182.778 196.772 182.596 199.43 183.709 201.563C185.734 205.445 191.926 207.338 198.425 204.79C198.184 212.02 197.947 219.246 197.707 226.476H176.507C178.971 220.645 177.416 214.75 173.613 212.356C171.701 211.152 169.023 210.71 166.775 211.636C162.676 213.33 160.218 219.551 162.388 226.476H140.515V205.757C146.364 208.642 152.831 206.745 155.347 202.376C157.057 199.402 156.868 195.403 154.911 192.543C152.103 188.455 145.887 187.021 140.515 189.919V169.619H160.919C160.761 169.287 157.898 163.017 161.162 158.298C164.99 152.766 175.116 152.416 178.892 157.773C181.1 160.905 180.863 165.596 178.57 169.623H197.711V190.53C191.542 188.661 185.768 190.791 183.767 194.8L183.763 194.796Z" fill="#FF3A82"/>
<path d="M181.467 141.105C181.333 142.134 180.677 147.118 184.004 150.311C187.011 153.198 192.208 153.6 196.67 151.065V169.616H178.563C180.859 165.586 181.093 160.901 178.889 157.767C175.113 152.413 164.99 152.763 161.162 158.291C157.891 163.01 160.757 169.28 160.915 169.613H140.515V151.062C143.161 152.708 146.107 153.284 148.829 152.979C149.059 152.955 149.285 152.924 149.512 152.883C149.742 152.842 149.972 152.794 150.195 152.749C150.418 152.698 150.638 152.639 150.857 152.578C150.967 152.543 151.077 152.512 151.187 152.475C151.293 152.44 151.403 152.406 151.51 152.365C151.832 152.252 152.145 152.128 152.45 151.984C152.557 151.936 152.66 151.888 152.756 151.844C152.958 151.744 153.154 151.641 153.346 151.531C153.538 151.422 153.731 151.305 153.916 151.185C154.242 150.972 154.551 150.743 154.846 150.503C154.96 150.407 155.069 150.314 155.179 150.218C155.203 150.194 155.231 150.17 155.255 150.146C155.317 150.091 155.378 150.033 155.44 149.974C155.612 149.81 155.773 149.642 155.931 149.47C156.007 149.388 156.082 149.302 156.151 149.22C156.212 149.151 156.271 149.079 156.329 149.004C156.353 148.973 156.377 148.946 156.401 148.911C156.456 148.843 156.511 148.771 156.563 148.695C156.628 148.606 156.693 148.517 156.755 148.424C159.312 144.7 159.288 139.113 156.092 135.481C155.595 134.918 155.038 134.418 154.434 133.989C154.283 133.883 154.132 133.78 153.974 133.684C153.82 133.584 153.659 133.492 153.501 133.402C153.501 133.399 153.497 133.399 153.494 133.396C153.171 133.217 152.842 133.053 152.498 132.909C152.33 132.837 152.158 132.768 151.987 132.703C151.983 132.703 151.98 132.699 151.976 132.699C151.465 132.514 150.933 132.363 150.391 132.25L150.336 132.24C149.972 132.171 149.601 132.116 149.23 132.075C146.292 131.787 143.134 132.61 140.515 134.706V115.04C151.942 113.264 163.72 113.257 175.237 114.711C175.185 114.509 175.147 114.392 175.147 114.385L175.473 114.286C175.473 114.286 175.521 114.467 175.6 114.756C182.778 115.682 189.85 117.184 196.674 119.176V134.421C192.318 132.013 187.426 132.106 184.464 134.651C182.047 136.726 181.639 139.823 181.47 141.092L181.467 141.105Z" fill="#84E9B0"/>
<path d="M255.198 169.616H233.926C236.349 175.103 234.578 181.04 230.476 183.503C227.657 185.19 223.583 185.331 220.696 183.211C216.992 180.495 215.904 174.544 218.973 169.616H196.677V151.065C192.215 153.596 187.018 153.195 184.011 150.311C180.684 147.118 181.336 142.134 181.474 141.105C181.642 139.836 182.05 136.743 184.467 134.665C187.429 132.12 192.318 132.027 196.677 134.435V119.19C210.937 123.36 224.094 129.705 234.798 137.569L234.959 137.515C234.959 137.515 234.993 137.604 235.028 137.738C243.561 144.048 250.516 151.322 255.202 159.228V169.619L255.198 169.616Z" fill="#8D8BF2"/>
<path d="M239.919 195.99C238.721 199.152 239.675 202.815 241.608 205.277C244.557 209.036 250.083 210.401 255.198 208.378V226.472H234.286C235.68 218.893 232.535 212.586 228.087 211.187C224.62 210.096 221.256 212.263 220.765 212.593C216.793 215.244 214.97 220.735 216.33 226.472H197.707C197.951 219.243 198.184 212.017 198.428 204.787C191.926 207.335 185.734 205.445 183.708 201.56C182.596 199.426 182.778 196.772 183.763 194.796C185.761 190.787 191.538 188.657 197.711 190.526V169.619H218.973C215.904 174.548 216.996 180.498 220.696 183.214C223.583 185.334 227.654 185.19 230.476 183.503C234.581 181.04 236.353 175.103 233.929 169.616H255.205V190.207C248.261 188.177 241.739 191.209 239.926 195.99H239.919Z" fill="#5349DB"/>
<g style="mix-blend-mode:multiply">
<path d="M284.499 94.9849L281.635 101.688L282.092 101.883L284.957 95.1801L284.499 94.9849Z" fill="#B0B6FF"/>
<path d="M282.733 93.5191L277.082 98.1273L277.397 98.5126L283.048 93.9044L282.733 93.5191Z" fill="#B0B6FF"/>
<path d="M281.859 91.3689L274.713 92.8344L274.813 93.3215L281.959 91.856L281.859 91.3689Z" fill="#B0B6FF"/>
<path d="M275.05 87.0965L274.911 87.5742L281.919 89.6002L282.057 89.1224L275.05 87.0965Z" fill="#B0B6FF"/>
<path d="M282.965 87.5756L277.703 82.5306L278.05 82.1705L283.312 87.219L282.965 87.5756Z" fill="#B0B6FF"/>
<path d="M282.991 79.2046L282.519 79.3622L284.83 86.2747L285.302 86.1172L282.991 79.2046Z" fill="#B0B6FF"/>
<path d="M288.269 78.7693L287.099 85.9629L287.59 86.0427L288.76 78.849L288.269 78.7693Z" fill="#B0B6FF"/>
<path d="M289.628 87.0372L289.23 86.7388L293.61 80.9119L294.009 81.2102L289.628 87.0372Z" fill="#B0B6FF"/>
<path d="M297.357 85.3266L290.768 88.4526L290.981 88.9019L297.571 85.7758L297.357 85.3266Z" fill="#B0B6FF"/>
<path d="M291.318 90.6238L291.298 91.1207L298.587 91.4119L298.606 90.915L291.318 90.6238Z" fill="#B0B6FF"/>
<path d="M290.79 92.8247L290.541 93.2555L296.86 96.8973L297.109 96.4665L290.79 92.8247Z" fill="#B0B6FF"/>
<path d="M289.327 94.5805L288.906 94.8464L292.806 101.005L293.227 100.739L289.327 94.5805Z" fill="#B0B6FF"/>
<path d="M287.207 95.3894L286.711 95.4296L287.3 102.694L287.796 102.654L287.207 95.3894Z" fill="#B0B6FF"/>
<path d="M18.6959 178.51L13.4602 190.768L14.2969 191.124L19.5326 178.866L18.6959 178.51Z" fill="#FF3A82"/>
<path d="M15.495 175.856L5.16052 184.283L5.73571 184.988L16.0702 176.561L15.495 175.856Z" fill="#FF3A82"/>
<path d="M13.8943 172.003L0.826782 174.681L1.00954 175.571L14.0771 172.894L13.8943 172.003Z" fill="#FF3A82"/>
<path d="M1.47297 164.139L1.22009 165.012L14.0339 168.717L14.2867 167.844L1.47297 164.139Z" fill="#FF3A82"/>
<path d="M15.9311 165.013L6.3092 155.784L6.93739 155.129L16.5627 164.358L15.9311 165.013Z" fill="#FF3A82"/>
<path d="M15.9639 149.682L15.1011 149.97L19.3271 162.611L20.19 162.323L15.9639 149.682Z" fill="#FF3A82"/>
<path d="M25.6022 148.889L23.4648 162.044L24.3628 162.19L26.5001 149.035L25.6022 148.889Z" fill="#FF3A82"/>
<path d="M28.1103 164.029L27.3826 163.484L35.398 152.828L36.1223 153.373L28.1103 164.029Z" fill="#FF3A82"/>
<path d="M42.2364 160.852L30.1874 166.571L30.5777 167.392L42.6268 161.673L42.2364 160.852Z" fill="#FF3A82"/>
<path d="M31.2306 170.594L31.1942 171.502L44.5231 172.035L44.5594 171.127L31.2306 170.594Z" fill="#FF3A82"/>
<path d="M30.2849 174.64L29.8303 175.427L41.385 182.087L41.8396 181.3L30.2849 174.64Z" fill="#FF3A82"/>
<path d="M27.5561 177.817L26.7874 178.303L33.9193 189.565L34.688 189.079L27.5561 177.817Z" fill="#FF3A82"/>
<path d="M23.6871 179.327L22.7804 179.401L23.8572 192.685L24.7639 192.611L23.6871 179.327Z" fill="#FF3A82"/>
<path d="M52.2473 29.637L47.0094 41.8942L47.846 42.251L53.0839 29.9939L52.2473 29.637Z" fill="#FF3A82"/>
<path d="M49.0406 26.9573L38.7062 35.3843L39.2814 36.0884L49.6158 27.6614L49.0406 26.9573Z" fill="#FF3A82"/>
<path d="M47.4505 23.109L34.3829 25.7866L34.5657 26.6769L47.6332 23.9993L47.4505 23.109Z" fill="#FF3A82"/>
<path d="M35.0129 15.2494L34.76 16.1224L47.5738 19.8273L47.8266 18.9543L35.0129 15.2494Z" fill="#FF3A82"/>
<path d="M49.4757 16.1158L39.8503 6.88663L40.482 6.23157L50.1039 15.4607L49.4757 16.1158Z" fill="#FF3A82"/>
<path d="M49.5134 0.783968L48.6506 1.0719L52.8767 13.713L53.7395 13.425L49.5134 0.783968Z" fill="#FF3A82"/>
<path d="M59.142 -0.00143775L57.0046 13.1539L57.9026 13.2996L60.0399 0.144184L59.142 -0.00143775Z" fill="#FF3A82"/>
<path d="M61.6549 15.1349L60.9271 14.5862L68.9391 3.9303L69.6668 4.47561L61.6549 15.1349Z" fill="#FF3A82"/>
<path d="M75.7765 11.9488L63.7274 17.6676L64.1177 18.4885L76.1668 12.7698L75.7765 11.9488Z" fill="#FF3A82"/>
<path d="M64.7686 21.7004L64.7323 22.6085L78.0612 23.1411L78.0975 22.2329L64.7686 21.7004Z" fill="#FF3A82"/>
<path d="M63.8373 25.767L63.3826 26.5542L74.9361 33.216L75.3908 32.4288L63.8373 25.767Z" fill="#FF3A82"/>
<path d="M61.1024 28.9158L60.3336 29.4017L67.4656 40.6645L68.2343 40.1786L61.1024 28.9158Z" fill="#FF3A82"/>
<path d="M57.2235 30.4292L56.3168 30.5026L57.3936 43.7866L58.3002 43.7133L57.2235 30.4292Z" fill="#FF3A82"/>
<path d="M285.3 179.634C282.111 179.634 279.516 177.041 279.516 173.855C279.516 170.669 282.111 168.076 285.3 168.076C288.489 168.076 291.084 170.669 291.084 173.855C291.084 177.041 288.489 179.634 285.3 179.634ZM285.3 168.885C282.557 168.885 280.329 171.115 280.329 173.852C280.329 176.588 282.56 178.818 285.3 178.818C288.039 178.818 290.27 176.588 290.27 173.852C290.27 171.115 288.039 168.885 285.3 168.885Z" fill="#B0B6FF"/>
<path d="M30.4549 105.78C27.2659 105.78 24.6708 103.187 24.6708 100.001C24.6708 96.8151 27.2659 94.2223 30.4549 94.2223C33.6439 94.2223 36.239 96.8151 36.239 100.001C36.239 103.187 33.6439 105.78 30.4549 105.78ZM30.4549 95.0317C27.7122 95.0317 25.4843 97.2609 25.4843 99.9978C25.4843 102.735 27.7156 104.964 30.4549 104.964C33.1942 104.964 35.4255 102.735 35.4255 99.9978C35.4255 97.2609 33.1942 95.0317 30.4549 95.0317Z" fill="#B0B6FF"/>
<path d="M91.008 101.349C91.008 102.573 90.5377 103.715 89.6795 104.593C88.8214 105.451 87.6577 105.921 86.4322 105.921H78.6502V113.716C78.6502 114.92 78.18 116.083 77.3218 116.94C75.5848 118.655 72.564 118.655 70.8271 116.94C69.9895 116.083 69.4986 114.92 69.4986 113.716V105.921H61.6961C60.4912 105.921 59.3275 105.451 58.4693 104.593C57.5905 103.715 57.1202 102.573 57.1202 101.349C57.1202 100.124 57.6111 98.9824 58.4693 98.125C59.3275 97.2676 60.4912 96.7771 61.6961 96.7771H69.4986V89.0021C69.4986 87.7983 69.9895 86.6151 70.8271 85.7783C72.564 84.0223 75.5848 84.0223 77.3012 85.7783C78.18 86.6151 78.6502 87.7983 78.6502 89.0021V96.7771H86.4322C87.6577 96.7771 88.8214 97.2676 89.6795 98.125C90.5377 98.9824 91.008 100.145 91.008 101.349Z" fill="#FF4D98"/>
<path d="M89.6795 98.1218C88.8214 97.2644 87.6577 96.7739 86.4322 96.7739H78.6502V88.999C78.6502 87.7952 78.18 86.6119 77.3012 85.7751C75.5848 84.0191 72.5606 84.0191 70.8271 85.7751C69.9895 86.6119 69.4986 87.7952 69.4986 88.999V96.7739H61.6961C60.4912 96.7739 59.3275 97.2644 58.4693 98.1218C57.6111 98.9792 57.1202 100.142 57.1202 101.346C57.1202 102.549 57.5905 103.712 58.4693 104.59C59.3275 105.447 60.4912 105.917 61.6961 105.917H69.4986V113.713C69.4986 114.917 69.9895 116.079 70.8271 116.937C72.564 118.652 75.5848 118.652 77.3218 116.937C78.18 116.079 78.6502 114.917 78.6502 113.713V105.917H86.4322C87.6577 105.917 88.8214 105.447 89.6795 104.59C90.5377 103.712 91.008 102.57 91.008 101.346C91.008 100.121 90.5377 98.9792 89.6795 98.1218ZM88.2481 103.143C87.7572 103.633 87.1256 103.877 86.4288 103.877H76.6043V113.713C76.6043 114.385 76.34 115.02 75.8903 115.489C74.9292 116.429 73.2128 116.429 72.2963 115.51C71.8054 115.02 71.5411 114.368 71.5411 113.713V103.877H61.6961C61.0232 103.877 60.3882 103.633 59.9179 103.143C59.427 102.652 59.1627 102.021 59.1627 101.346C59.1627 100.67 59.427 100.039 59.9179 99.5691C60.3882 99.0787 61.0198 98.8146 61.6961 98.8146H71.5411V88.999C71.5411 88.3268 71.8054 87.6923 72.2757 87.2018C72.7254 86.7526 73.3776 86.5091 74.0744 86.5091C74.8502 86.5296 75.4029 86.7526 75.8732 87.2224C76.3434 87.6717 76.6078 88.3233 76.6078 88.999V98.8146H86.4322C87.1256 98.8146 87.7607 99.0787 88.2515 99.5691C88.7012 100.018 88.9655 100.67 88.9655 101.346C88.9655 102.021 88.7012 102.673 88.2515 103.143H88.2481Z" fill="#FF4D98"/>
<path d="M270.031 18.4994C270.031 19.5832 269.609 20.6155 268.843 21.3974C268.064 22.176 267.027 22.6012 265.925 22.6012H258.94V29.5806C258.94 30.6643 258.518 31.6966 257.752 32.4786C256.19 34.0219 253.496 34.0219 251.934 32.4786C251.172 31.7001 250.729 30.6643 250.729 29.5806V22.6012H243.743C242.658 22.6012 241.625 22.1794 240.843 21.3974C240.063 20.6189 239.638 19.5832 239.638 18.4994C239.638 17.4156 240.081 16.3662 240.843 15.6014C241.622 14.8228 242.658 14.3976 243.743 14.3976H250.729V7.41826C250.729 6.33449 251.168 5.2816 251.934 4.52022C253.496 2.95973 256.19 2.95973 257.735 4.52022C258.514 5.2816 258.94 6.33449 258.94 7.41826V14.3976H265.925C267.027 14.3976 268.064 14.8194 268.843 15.6014C269.605 16.3627 270.031 17.4156 270.031 18.4994Z" fill="#B0B6FF"/>
</g>
<path d="M230.218 336.927C230.218 336.927 241.206 338.971 241.34 322.533V297.764C244.306 299.29 247.269 300.82 250.234 302.346C257.951 299.472 265.668 296.595 273.381 293.721C261.357 287.431 249.332 281.137 237.307 274.847C237.307 274.847 229.192 275.324 224.88 281.511C223.168 283.97 222.515 286.642 222.296 289.43C221.201 303.258 229.25 333.347 230.218 336.927Z" fill="#DA9A7A"/>
<path d="M247.79 321.929C247.79 321.929 252.322 341.928 237.726 341.928L233.14 326.096C233.14 326.096 223.13 287.348 228.135 286.515C233.14 285.682 253.571 286.515 259.41 294.431C265.249 302.346 265.665 310.68 265.665 310.68C265.665 310.68 257.323 312.347 253.986 310.68C250.65 309.013 246.198 309.432 246.198 309.432L247.787 321.929H247.79Z" fill="#DA9A7A"/>
<path d="M186.015 286.258L203.529 294.016C204.603 287.63 208.977 283.12 213.81 282.722C216.388 282.509 219.903 283.401 221.54 286.031C223.768 289.615 222.165 295.881 216.457 299.849C223.521 303.794 230.586 307.738 237.647 311.682L246.198 294.016C249.943 299.057 256.805 299.836 260.842 296.554C264.552 293.536 264.988 287.815 262.678 283.826C259.829 278.912 253.969 278.613 253.571 278.599C255.933 273.184 258.298 267.765 260.66 262.35L241.893 252.767C247.677 251.039 251.082 245.075 249.699 239.416C248.305 233.709 242.449 229.964 236.998 231.14C231.059 232.423 226.992 239.251 229.171 245.939C224.098 243.216 219.024 240.493 213.951 237.77C210.865 243.192 207.782 248.614 204.696 254.036C209.468 255.518 212.718 259.273 212.979 263.416C213.01 263.924 213.178 267.453 210.772 269.761C207.71 272.694 201.583 272.594 196.437 268.602C192.963 274.487 189.486 280.373 186.012 286.261L186.015 286.258Z" fill="#BDE45B"/>
<path d="M230.218 289.849C230.218 289.849 234.389 271.932 250.235 296.097L264.83 289.777C264.83 289.777 291.52 299.013 293.188 318.177C294.856 337.342 306.95 363.593 306.95 363.593C306.95 363.593 301.033 372.432 295.5 376.5C289.967 380.568 278.613 384.424 278.613 384.424L251.488 352.343L230.218 289.849Z" fill="#DA9A7A"/>
<path d="M257.924 317.615C255.219 306.157 249.84 296.444 249.785 296.348L250.684 295.847C250.739 295.947 256.187 305.779 258.926 317.382L257.924 317.618V317.615Z" fill="#C8623E"/>
<path d="M230.833 337.459C230.599 337.459 230.383 337.452 230.191 337.442L230.246 336.413C231.67 336.488 234.43 336.348 236.936 334.568C240.136 332.294 241.79 328.178 241.251 323.833L242.274 323.706C242.861 328.429 241.045 332.911 237.537 335.408C235.117 337.13 232.494 337.459 230.836 337.459H230.833Z" fill="#C8623E"/>
<path d="M238.433 342.463C237.976 342.463 237.695 342.439 237.681 342.439L237.77 341.413C237.842 341.42 245.055 341.989 246.177 336.896L247.183 337.116C246.105 342.003 240.486 342.459 238.433 342.459V342.463Z" fill="#C8623E"/>
<path d="M230.711 289.667L229.736 289.998L251.006 352.494L251.981 352.163L230.711 289.667Z" fill="#C8623E"/>
<path d="M230.685 283.075C230.853 282.321 231.152 281.549 231.753 281.062C232.13 280.757 232.601 280.585 233.074 280.475C235.237 279.985 237.575 280.764 239.233 282.235C240.891 283.706 241.91 285.798 242.387 287.962C242.696 289.369 242.786 290.85 242.394 292.236C241.502 295.388 237.365 297.305 234.75 294.962C231.78 292.304 229.817 286.957 230.689 283.072L230.685 283.075Z" fill="#EAB89A"/>
<path d="M77.871 331.982C77.871 331.982 66.8829 334.026 66.749 317.588V292.819C63.7831 294.345 60.8207 295.874 57.8548 297.401C50.1381 294.527 42.4213 291.649 34.708 288.775C46.7328 282.485 58.7576 276.192 70.7824 269.902C70.7824 269.902 78.8974 270.379 83.2088 276.566C84.9218 279.025 85.574 281.696 85.7937 284.485C86.8887 298.313 78.839 328.401 77.871 331.982Z" fill="#AF6859"/>
<path d="M60.299 316.981C60.299 316.981 55.7678 336.979 70.3637 336.979L74.9498 321.148C74.9498 321.148 84.9596 282.4 79.9547 281.566C74.9498 280.733 54.5183 281.566 48.6792 289.482C42.8402 297.397 42.4248 305.731 42.4248 305.731C42.4248 305.731 50.7663 307.398 54.1029 305.731C57.4395 304.065 61.8917 304.483 61.8917 304.483L60.3024 316.981H60.299Z" fill="#AF6859"/>
<path d="M38.1716 274.727L77.9534 313.105L91.6705 299.057C93.761 303.77 98.6355 306.263 102.988 305.224C106.424 304.404 109.006 301.509 109.771 298.272C110.777 294.023 108.614 289.369 104.361 287.064C108.59 282.952 112.819 278.84 117.052 274.727L101.962 258.622C100.527 262.998 96.5244 265.625 92.7003 265.131C89.8786 264.768 87.5135 262.751 86.5283 260.333C84.9939 256.581 86.7068 251.697 90.9874 249.026C86.5283 244.228 82.0692 239.433 77.6135 234.635L62.5233 248.683C61.8402 243.216 57.2266 239.275 52.2355 239.43C47.6425 239.574 43.8699 243.154 42.974 247.311C41.8824 252.39 45.1812 257.939 50.8624 259.647C46.6333 264.672 42.4042 269.7 38.1716 274.724V274.727Z" fill="#FF3A82"/>
<path d="M77.871 284.9C77.871 284.9 73.7003 266.983 57.8549 291.149L43.2589 284.828C43.2589 284.828 16.5696 294.064 14.9013 313.229C13.233 332.393 1.13953 358.644 1.13953 358.644C5.0995 371.605 11.6032 375.957 29.4766 379.475L56.6019 347.395L77.871 284.9Z" fill="#AF6859"/>
<path d="M50.1656 312.67L49.1632 312.433C51.9025 300.83 57.3502 290.998 57.4052 290.898L58.3045 291.399C58.2496 291.495 52.8705 301.211 50.1656 312.666V312.67Z" fill="#7B2A1F"/>
<path d="M77.2565 332.51C75.5985 332.51 72.9725 332.177 70.5524 330.459C67.0442 327.966 65.2283 323.483 65.8153 318.757L66.8382 318.884C66.2993 323.233 67.9504 327.345 71.1532 329.619C73.6591 331.402 76.4224 331.539 77.8435 331.464L77.8985 332.493C77.7062 332.503 77.4934 332.51 77.26 332.51H77.2565Z" fill="#7B2A1F"/>
<path d="M69.6565 337.517C67.6037 337.517 61.9809 337.061 60.9031 332.174L61.9089 331.954C63.0314 337.044 70.2435 336.478 70.3156 336.471L70.4048 337.497C70.4048 337.497 70.1096 337.521 69.6531 337.521L69.6565 337.517Z" fill="#7B2A1F"/>
<path d="M77.3794 284.754L56.1202 347.254L57.0953 347.585L78.3545 285.085L77.3794 284.754Z" fill="#7B2A1F"/>
<path d="M77.4042 278.126C77.236 277.372 76.9374 276.6 76.3366 276.113C75.959 275.808 75.4887 275.636 75.015 275.527C72.8524 275.036 70.5147 275.815 68.8567 277.286C67.1987 278.757 66.1792 280.849 65.7021 283.013C65.3931 284.42 65.3039 285.901 65.6952 287.287C66.5877 290.439 70.7241 292.356 73.3399 290.013C76.3092 287.355 78.2727 282.009 77.4008 278.123L77.4042 278.126Z" fill="#EAB89A"/>
</svg>
