<svg width="370" height="465" viewBox="0 0 370 465" fill="none" xmlns="http://www.w3.org/2000/svg">
<g clip-path="url(#clip0_411_209)">
<g style="mix-blend-mode:multiply">
<path d="M26.5581 254.893L22.6195 264.119L23.2469 264.387L27.1855 255.161L26.5581 254.893Z" fill="#AEB6FF"/>
<path d="M24.1502 252.859L16.3793 259.202L16.8106 259.731L24.5815 253.387L24.1502 252.859Z" fill="#AEB6FF"/>
<path d="M22.9503 249.954L13.1243 251.97L13.2613 252.638L23.0874 250.623L22.9503 249.954Z" fill="#AEB6FF"/>
<path d="M13.6154 244.039L13.4258 244.695L23.061 247.484L23.2506 246.828L13.6154 244.039Z" fill="#AEB6FF"/>
<path d="M24.4783 244.699L17.2461 237.753L17.7189 237.264L24.9512 244.211L24.4783 244.699Z" fill="#AEB6FF"/>
<path d="M24.5004 233.164L23.8534 233.38L27.0312 242.895L27.6782 242.679L24.5004 233.164Z" fill="#AEB6FF"/>
<path d="M31.7506 232.592L30.1417 242.494L30.815 242.603L32.4239 232.701L31.7506 232.592Z" fill="#AEB6FF"/>
<path d="M33.6329 243.962L33.0903 243.552L39.1133 235.528L39.6559 235.938L33.6329 243.962Z" fill="#AEB6FF"/>
<path d="M44.256 241.563L35.1958 245.868L35.4885 246.484L44.5487 242.18L44.256 241.563Z" fill="#AEB6FF"/>
<path d="M35.9866 248.9L35.9594 249.582L45.9819 249.983L46.0092 249.301L35.9866 248.9Z" fill="#AEB6FF"/>
<path d="M35.2692 251.937L34.9283 252.528L43.6168 257.541L43.9577 256.95L35.2692 251.937Z" fill="#AEB6FF"/>
<path d="M33.214 254.34L32.6376 254.704L38.0004 263.182L38.5769 262.817L33.214 254.34Z" fill="#AEB6FF"/>
<path d="M30.307 255.479L29.6271 255.534L30.4368 265.533L31.1167 265.478L30.307 255.479Z" fill="#AEB6FF"/>
<path d="M159.604 237.039C157.209 237.039 155.255 235.086 155.255 232.69C155.255 230.294 157.209 228.341 159.604 228.341C161.999 228.341 163.953 230.294 163.953 232.69C163.953 235.086 161.999 237.039 159.604 237.039ZM159.604 228.953C157.542 228.953 155.868 230.628 155.868 232.69C155.868 234.752 157.542 236.427 159.604 236.427C161.666 236.427 163.34 234.752 163.34 232.69C163.34 230.628 161.666 228.953 159.604 228.953Z" fill="#AEB6FF"/>
<path d="M332.116 206.827C329.721 206.827 327.767 204.873 327.767 202.478C327.767 200.082 329.721 198.129 332.116 198.129C334.511 198.129 336.465 200.082 336.465 202.478C336.465 204.873 334.511 206.827 332.116 206.827ZM332.116 198.741C330.054 198.741 328.38 200.416 328.38 202.478C328.38 204.54 330.054 206.215 332.116 206.215C334.178 206.215 335.852 204.54 335.852 202.478C335.852 200.416 334.178 198.741 332.116 198.741Z" fill="#AEB6FF"/>
<path d="M155.349 131.698C152.953 131.698 151 129.745 151 127.349C151 124.954 152.953 123 155.349 123C157.744 123 159.697 124.954 159.697 127.349C159.697 129.745 157.744 131.698 155.349 131.698ZM155.349 123.612C153.287 123.612 151.612 125.287 151.612 127.349C151.612 129.411 153.287 131.086 155.349 131.086C157.411 131.086 159.085 129.411 159.085 127.349C159.085 125.287 157.411 123.612 155.349 123.612Z" fill="#AEB6FF"/>
<path d="M241.487 114.71C241.487 115.633 241.131 116.494 240.487 117.153C239.844 117.796 238.968 118.153 238.046 118.153H232.193V124.021C232.193 124.929 231.837 125.805 231.193 126.448C229.891 127.735 227.612 127.735 226.31 126.448C225.682 125.805 225.31 124.929 225.31 124.021V118.153H219.442C218.535 118.153 217.659 117.796 217.015 117.153C216.357 116.494 216 115.633 216 114.71C216 113.788 216.372 112.927 217.015 112.284C217.659 111.64 218.535 111.268 219.442 111.268H225.31V105.415C225.31 104.508 225.682 103.616 226.31 102.988C227.612 101.671 229.891 101.671 231.178 102.988C231.837 103.616 232.193 104.508 232.193 105.415V111.268H238.046C238.968 111.268 239.844 111.64 240.487 112.284C241.131 112.927 241.487 113.803 241.487 114.71Z" fill="#AEB6FF"/>
<path d="M240.487 112.284C239.844 111.64 238.968 111.268 238.046 111.268H232.193V105.415C232.193 104.508 231.837 103.616 231.178 102.988C229.891 101.671 227.612 101.671 226.31 102.988C225.682 103.616 225.31 104.508 225.31 105.415V111.268H219.442C218.535 111.268 217.659 111.64 217.015 112.284C216.372 112.927 216 113.803 216 114.71C216 115.618 216.357 116.494 217.015 117.153C217.659 117.796 218.535 118.153 219.442 118.153H225.31V124.021C225.31 124.929 225.682 125.805 226.31 126.448C227.612 127.735 229.891 127.735 231.193 126.448C231.837 125.805 232.193 124.929 232.193 124.021V118.153H238.046C238.968 118.153 239.844 117.796 240.487 117.153C241.131 116.494 241.487 115.633 241.487 114.71C241.487 113.788 241.131 112.927 240.487 112.284ZM239.41 116.059C239.038 116.432 238.565 116.61 238.046 116.61H230.658V124.014C230.658 124.518 230.457 124.998 230.123 125.347C229.403 126.053 228.108 126.053 227.418 125.363C227.046 124.991 226.852 124.502 226.852 124.014V116.61H219.449C218.946 116.61 218.465 116.424 218.116 116.059C217.744 115.687 217.55 115.214 217.55 114.71C217.55 114.207 217.752 113.726 218.116 113.377C218.473 113.005 218.946 112.811 219.449 112.811H226.852V105.423C226.852 104.919 227.054 104.438 227.403 104.074C227.744 103.733 228.232 103.554 228.751 103.554C229.333 103.57 229.751 103.74 230.1 104.089C230.457 104.43 230.651 104.919 230.651 105.423V112.811H238.038C238.557 112.811 239.038 113.013 239.402 113.377C239.743 113.718 239.937 114.207 239.937 114.71C239.937 115.214 239.735 115.711 239.402 116.059H239.41Z" fill="#AEB6FF"/>
</g>
<path d="M280.397 284.183C280.397 301.014 264.561 327.745 221.012 317.845C221.012 317.845 194.068 335.986 167.441 319.985L161.627 316.039L155.821 319.985C129.202 335.986 102.258 317.845 102.258 317.845C60.7944 327.265 44.4463 303.495 42.9735 286.679C42.8959 285.827 42.8572 284.989 42.8572 284.183C42.8572 267.352 58.7015 254.483 58.7015 254.483C51.7715 236.659 70.5769 224.782 70.5769 224.782C69.7165 222.232 68.7863 218.107 69.7475 213.355C72.3753 200.385 86.5297 195.392 87.4599 195.082C89.6458 189.988 94.3511 181.065 103.862 174.103C113.924 166.754 133.551 158.543 148.643 168.002C156.279 172.793 159.922 180.321 161.627 185.127C163.061 181.181 166.588 173.32 174.619 168.002C187.634 159.388 204.819 162.536 216.245 170.064C216.873 170.483 217.485 170.909 218.082 171.351C218.284 171.506 218.493 171.653 218.687 171.816C227.609 178.693 231.306 187.771 232.787 192.299C233.57 192.554 245.22 196.555 250.864 206.23C252.096 208.331 253.034 210.703 253.522 213.355C254.313 217.704 253.662 221.58 252.786 224.441C252.755 224.557 252.724 224.674 252.685 224.782C252.685 224.782 255.019 226.255 257.739 228.945C262.739 233.884 269.049 242.939 264.561 254.483C264.561 254.483 280.397 267.352 280.397 284.183Z" fill="#FFBACD"/>
<path d="M161.651 185.182C168.015 195.958 167.666 202.455 165.96 206.471C163.914 211.301 160.201 211.874 159.085 217.022C157.775 223.046 162.294 224.891 163.209 233.535C164.077 241.707 160.286 242.381 160.914 250.963C161.589 260.173 166.085 261.011 165.503 267.934C164.774 276.594 157.589 277.152 157.248 284.904C156.899 292.851 164.294 295.479 164.526 305.069C164.635 309.713 163.007 313.55 161.635 316.039" stroke="#F76B95" stroke-width="1.5" stroke-miterlimit="10"/>
<path d="M117.102 324.381C117.102 324.381 118.645 296.867 149.449 300.666" stroke="#F76B95" stroke-width="1.5" stroke-miterlimit="10"/>
<path d="M105.56 281.679C105.56 281.679 92.9017 297.719 114.42 307.007C114.42 307.007 120.776 310.612 119.149 316.039" stroke="#F76B95" stroke-width="1.5" stroke-miterlimit="10"/>
<path d="M127.086 241.582C127.086 241.582 155.31 227.899 163.147 259.22" stroke="#F76B95" stroke-width="1.5" stroke-miterlimit="10"/>
<path d="M127.086 201.486C127.086 201.486 151.829 187.105 158.868 218.774" stroke="#F76B95" stroke-width="1.5" stroke-miterlimit="10"/>
<path d="M130.458 284.633C130.458 284.633 148.023 289.603 158.868 279.733" stroke="#F76B95" stroke-width="1.5" stroke-miterlimit="10"/>
<path d="M97.5449 233.559C97.5449 233.559 62.9417 258.46 84.4602 277.036C84.4602 277.036 63.7789 283.369 73.9102 304.472" stroke="#F76B95" stroke-width="1.5" stroke-miterlimit="10"/>
<path d="M87.4676 195.082C87.4676 195.082 82.7779 206.974 97.5447 216.254" stroke="#F76B95" stroke-width="1.5" stroke-miterlimit="10"/>
<path d="M128.97 223.651C128.97 223.651 138.729 221.526 141.38 238.536" stroke="#F76B95" stroke-width="1.5" stroke-miterlimit="10"/>
<path d="M217.23 320.21C217.23 320.21 215.687 292.696 184.882 296.495" stroke="#F76B95" stroke-width="1.5" stroke-miterlimit="10"/>
<path d="M228.764 277.501C228.764 277.501 241.422 293.541 219.904 302.829C219.904 302.829 213.548 306.434 215.175 311.861" stroke="#F76B95" stroke-width="1.5" stroke-miterlimit="10"/>
<path d="M198.199 236.784C198.199 236.784 169.976 223.1 162.139 254.421" stroke="#F76B95" stroke-width="1.5" stroke-miterlimit="10"/>
<path d="M198.812 185.802C198.812 185.802 174.069 171.421 167.03 203.091" stroke="#F76B95" stroke-width="1.5" stroke-miterlimit="10"/>
<path d="M192.114 282.369C192.114 282.369 174.549 287.338 163.705 277.469" stroke="#F76B95" stroke-width="1.5" stroke-miterlimit="10"/>
<path d="M227.477 231.992C227.477 231.992 265.32 251.63 246.709 273.113C246.709 273.113 268.088 276.384 261.119 298.735" stroke="#F76B95" stroke-width="1.5" stroke-miterlimit="10"/>
<path d="M235.105 192.818C235.105 192.818 239.794 204.711 225.028 213.991" stroke="#F76B95" stroke-width="1.5" stroke-miterlimit="10"/>
<path d="M196.316 218.859C196.316 218.859 186.556 216.735 183.905 233.744" stroke="#F76B95" stroke-width="1.5" stroke-miterlimit="10"/>
<g style="mix-blend-mode:multiply" opacity="0.5">
<path d="M280.397 284.183C280.397 301.015 264.561 327.746 221.012 317.846C221.012 317.846 194.068 335.987 167.441 319.985L161.627 316.039L155.821 319.985C129.202 335.987 102.258 317.846 102.258 317.846C60.7946 327.265 44.4464 303.495 42.9736 286.68C75.3366 285.61 117.885 279.447 163.139 259.22C180.689 251.374 206.78 239.714 232.57 220.93C233.958 219.929 235.337 218.898 236.725 217.844C241.484 214.231 246.213 210.363 250.864 206.23C252.096 208.331 253.034 210.704 253.523 213.355C254.313 217.704 253.662 221.581 252.786 224.441C252.755 224.558 252.724 224.674 252.685 224.783C252.685 224.783 255.019 226.256 257.74 228.946C262.739 233.884 269.049 242.939 264.561 254.483C264.561 254.483 280.397 267.352 280.397 284.183Z" fill="#FFBACD"/>
</g>
<path d="M257.739 228.945C247.321 229.744 245.887 224.053 245.887 224.053C245.887 224.053 245.453 223.952 244.686 223.774C244.523 223.735 244.345 223.697 244.151 223.65C244.135 223.642 244.128 223.642 244.112 223.642C243.833 223.573 243.531 223.503 243.197 223.425C242.887 223.356 242.554 223.278 242.205 223.193C240.717 222.844 238.88 222.41 236.888 221.945C236.492 221.852 236.089 221.758 235.686 221.665C234.663 221.425 233.616 221.177 232.57 220.929C230.803 220.518 229.027 220.092 227.361 219.696C219.377 217.805 221.594 203.656 221.594 203.656C214.485 197.198 211.718 191.213 211.718 191.213L216.245 170.064C216.873 170.482 217.485 170.909 218.082 171.351C218.284 171.506 218.493 171.653 218.687 171.816C227.609 178.692 231.306 187.771 232.787 192.298C233.57 192.554 245.221 196.555 250.864 206.23C252.096 208.331 253.034 210.703 253.523 213.355C254.313 217.704 253.662 221.58 252.786 224.441C252.755 224.557 252.724 224.673 252.685 224.782C252.685 224.782 255.019 226.255 257.739 228.945Z" fill="#AEB6FF"/>
<path d="M74.2899 269.469L91.452 261.615L105.335 246.249L125.21 250.033L135.621 245.621L146.992 269.469L137.962 278.438L144.14 292.711L131.605 308.782L114.288 297.936L100.955 291.61L83.0492 294.897L74.2899 269.469Z" fill="#AEB6FF"/>
<path d="M137.962 278.446L144.14 292.711L131.605 308.782L130.373 308.015L139.551 296.238L133.38 281.974L142.403 273.004L131.032 249.149L120.629 253.568L101.94 250.009L105.335 246.257L125.21 250.04L135.621 245.621L146.992 269.476L137.962 278.446Z" fill="#F76B95"/>
<path d="M257.739 228.945C247.321 229.744 245.887 224.053 245.887 224.053C245.887 224.053 245.453 223.952 244.686 223.774C244.523 223.735 244.345 223.689 244.151 223.65C244.135 223.642 244.128 223.642 244.112 223.642C243.833 223.573 243.531 223.503 243.197 223.425C242.887 223.348 242.554 223.27 242.205 223.193C240.717 222.844 238.88 222.41 236.888 221.945C236.492 221.852 236.089 221.758 235.686 221.665C234.663 221.425 233.616 221.177 232.57 220.929C230.803 220.518 229.027 220.092 227.361 219.696C219.377 217.805 221.594 203.656 221.594 203.656C214.485 197.198 211.718 191.213 211.718 191.213L216.245 170.064C216.873 170.482 217.485 170.909 218.082 171.351C218.284 171.506 218.493 171.653 218.687 171.816L215.222 187.972C215.222 187.972 217.997 193.957 225.097 200.423C225.097 200.423 222.88 214.564 230.865 216.463C232.733 216.905 234.74 217.378 236.725 217.843C243.213 219.371 249.399 220.813 249.399 220.813C249.399 220.813 249.941 222.968 252.786 224.441C252.755 224.557 252.724 224.673 252.685 224.782C252.685 224.782 255.019 226.255 257.739 228.945Z" fill="#F76B95"/>
<g style="mix-blend-mode:screen">
<path d="M111.58 224.414C118.165 216.393 117.002 204.551 108.982 197.965C100.962 191.378 89.1217 192.541 82.5363 200.563C75.9509 208.584 77.1139 220.425 85.134 227.012C93.154 233.598 104.994 232.435 111.58 224.414Z" fill="#FCE064"/>
</g>
<path d="M106.569 226.724C114.437 221.468 116.555 210.829 111.3 202.96C106.045 195.091 95.4067 192.973 87.5391 198.229C79.6714 203.485 77.5535 214.124 82.8085 221.993C88.0635 229.861 98.7015 231.98 106.569 226.724Z" fill="#FCE064"/>
<path d="M99.5838 226.631C107.401 225.23 112.602 217.757 111.201 209.939C109.8 202.121 102.328 196.919 94.5109 198.32C86.694 199.721 81.4928 207.194 82.8936 215.012C84.2945 222.83 91.7669 228.032 99.5838 226.631Z" fill="#FDCB02"/>
<path d="M107.358 214.355C106.32 220.046 100.862 223.821 95.1727 222.783C89.4831 221.744 85.708 216.286 86.7468 210.595C87.7855 204.905 93.2426 201.129 98.9323 202.168C104.622 203.207 108.397 208.665 107.358 214.355Z" fill="#FF962F"/>
<path d="M104.847 213.898C104.064 218.201 99.9401 221.054 95.638 220.271C91.3358 219.488 88.4833 215.363 89.2662 211.06C90.0491 206.758 94.1729 203.905 98.4751 204.688C102.777 205.471 105.63 209.595 104.847 213.906V213.898Z" stroke="#FEFDFB" stroke-miterlimit="10"/>
<g style="mix-blend-mode:screen">
<path d="M256.996 316.419C263.582 308.398 262.419 296.556 254.399 289.97C246.379 283.383 234.538 284.546 227.953 292.568C221.368 300.589 222.531 312.431 230.551 319.017C238.571 325.603 250.411 324.44 256.996 316.419Z" fill="#FCE064"/>
</g>
<path d="M252.36 318.461C260.087 312.999 261.924 302.308 256.463 294.58C251.003 286.853 240.312 285.016 232.586 290.477C224.86 295.938 223.023 306.63 228.483 314.357C233.944 322.085 244.634 323.922 252.36 318.461Z" fill="#FCE064"/>
<path d="M250.586 316.338C257.142 311.856 258.823 302.907 254.341 296.35C249.859 289.793 240.911 288.112 234.355 292.595C227.8 297.078 226.119 306.027 230.601 312.583C235.083 319.14 244.031 320.821 250.586 316.338Z" fill="#FDCB02"/>
<path d="M252.778 306.348C251.739 312.038 246.282 315.814 240.593 314.775C234.903 313.736 231.128 308.278 232.167 302.588C233.205 296.897 238.663 293.122 244.352 294.161C250.042 295.2 253.817 300.657 252.778 306.348Z" fill="#FF962F"/>
<path d="M250.267 305.891C249.484 310.194 245.36 313.047 241.058 312.264C236.756 311.481 233.903 307.356 234.686 303.046C235.469 298.743 239.593 295.89 243.895 296.673C248.197 297.456 251.05 301.58 250.267 305.891Z" stroke="#FEFDFB" stroke-miterlimit="10"/>
</g>
<path d="M176.586 388.488C274.017 388.488 353 381.046 353 371.865C353 362.685 274.017 355.243 176.586 355.243C79.1558 355.243 0.172729 362.685 0.172729 371.865C0.172729 381.046 79.1558 388.488 176.586 388.488Z" fill="#E7E5FD"/>
<path d="M312.349 445.698C309.953 445.698 308 443.745 308 441.349C308 438.954 309.953 437 312.349 437C314.744 437 316.697 438.954 316.697 441.349C316.697 443.745 314.744 445.698 312.349 445.698ZM312.349 437.612C310.287 437.612 308.612 439.287 308.612 441.349C308.612 443.411 310.287 445.086 312.349 445.086C314.411 445.086 316.085 443.411 316.085 441.349C316.085 439.287 314.411 437.612 312.349 437.612Z" fill="#AEB6FF"/>
<g opacity="0.4">
<g style="mix-blend-mode:screen">
<path d="M182.967 450.375C189.553 442.354 188.39 430.512 180.37 423.926C172.35 417.339 160.509 418.503 153.924 426.524C147.339 434.545 148.502 446.387 156.522 452.973C164.542 459.559 176.382 458.396 182.967 450.375Z" fill="#FCE064"/>
</g>
<path d="M178.331 452.417C186.058 446.956 187.894 436.264 182.434 428.536C176.973 420.809 166.283 418.972 158.557 424.433C150.831 429.894 148.994 440.586 154.454 448.313C159.915 456.041 170.605 457.878 178.331 452.417Z" fill="#FCE064"/>
<path d="M176.557 450.294C183.113 445.812 184.794 436.863 180.312 430.306C175.83 423.749 166.882 422.068 160.326 426.551C153.771 431.034 152.09 439.983 156.572 446.539C161.054 453.096 170.002 454.777 176.557 450.294Z" fill="#FDCB02"/>
<path d="M178.749 440.304C177.71 445.994 172.253 449.77 166.564 448.731C160.874 447.692 157.099 442.234 158.138 436.544C159.176 430.853 164.633 427.078 170.323 428.117C176.013 429.156 179.788 434.614 178.749 440.304Z" fill="#FF962F"/>
<path d="M176.238 439.847C175.455 444.15 171.331 447.003 167.029 446.22C162.727 445.437 159.874 441.312 160.657 437.002C161.44 432.699 165.564 429.846 169.866 430.629C174.168 431.412 177.021 435.537 176.238 439.847Z" stroke="#FEFDFB" stroke-miterlimit="10"/>
</g>
<path d="M204.401 354.624C208.951 351.104 219.679 344.538 230.896 350.151C231.02 350.213 231.275 350.802 231.384 350.934C231.989 351.655 232.934 352.066 233.81 352.345C238.523 353.849 243.414 350.818 247.74 353.469C247.895 353.562 248.05 353.671 248.151 353.818C248.282 354.019 248.306 354.267 248.321 354.508C248.376 355.415 248.43 356.361 248.05 357.182C247.81 357.702 247.414 358.136 246.988 358.516C245.693 359.679 244.228 359.942 242.748 360.725C240.949 361.671 239.128 362.509 237.213 363.199C234.81 364.059 232.19 364.842 229.624 364.974C224.78 365.222 221.121 364.385 218.392 363.741C212.602 362.377 207.966 360.144 204.618 358.152C203.323 357.384 203.215 355.547 204.408 354.624H204.401Z" fill="#FFBACD"/>
<path d="M248.042 357.19C247.802 357.71 247.407 358.144 246.98 358.524C245.686 359.687 244.221 359.95 242.74 360.733C240.942 361.679 239.12 362.516 237.206 363.206C234.81 364.067 232.182 364.85 229.617 364.974C224.772 365.222 221.113 364.393 218.385 363.749C212.594 362.377 207.966 360.152 204.61 358.152C203.316 357.384 203.207 355.555 204.401 354.632C204.587 354.485 204.781 354.337 204.99 354.182C205.153 354.454 205.385 354.686 205.688 354.865C209.044 356.865 213.672 359.09 219.462 360.462C222.191 361.106 225.849 361.935 230.694 361.687C233.26 361.563 235.888 360.78 238.283 359.919C240.198 359.229 242.019 358.392 243.818 357.446C245.298 356.663 246.763 356.4 248.058 355.237C248.159 355.144 248.252 355.058 248.345 354.958C248.383 355.725 248.368 356.5 248.042 357.19Z" fill="#F76B95"/>
<path d="M54.4873 417.71C54.4873 418.633 54.1307 419.494 53.4873 420.153C52.844 420.796 51.968 421.153 51.0456 421.153H45.1931V427.021C45.1931 427.929 44.8365 428.805 44.1931 429.448C42.8909 430.735 40.6119 430.735 39.3096 429.448C38.6818 428.805 38.3097 427.929 38.3097 427.021V421.153H32.4417C31.5348 421.153 30.6589 420.796 30.0155 420.153C29.3566 419.494 29 418.633 29 417.71C29 416.788 29.3721 415.927 30.0155 415.284C30.6589 414.64 31.5348 414.268 32.4417 414.268H38.3097V408.415C38.3097 407.508 38.6818 406.616 39.3096 405.988C40.6119 404.671 42.8909 404.671 44.1777 405.988C44.8365 406.616 45.1931 407.508 45.1931 408.415V414.268H51.0456C51.968 414.268 52.844 414.64 53.4873 415.284C54.1307 415.927 54.4873 416.803 54.4873 417.71Z" fill="#AEB6FF"/>
<path d="M53.4873 415.284C52.844 414.64 51.968 414.268 51.0456 414.268H45.1931V408.415C45.1931 407.508 44.8365 406.616 44.1777 405.988C42.8909 404.671 40.6119 404.671 39.3096 405.988C38.6818 406.616 38.3097 407.508 38.3097 408.415V414.268H32.4417C31.5348 414.268 30.6589 414.64 30.0155 415.284C29.3721 415.927 29 416.803 29 417.71C29 418.618 29.3566 419.494 30.0155 420.153C30.6589 420.796 31.5348 421.153 32.4417 421.153H38.3097V427.021C38.3097 427.929 38.6818 428.805 39.3096 429.448C40.6119 430.735 42.8909 430.735 44.1931 429.448C44.8365 428.805 45.1931 427.929 45.1931 427.021V421.153H51.0456C51.968 421.153 52.844 420.796 53.4873 420.153C54.1307 419.494 54.4873 418.633 54.4873 417.71C54.4873 416.788 54.1307 415.927 53.4873 415.284ZM52.4099 419.059C52.0378 419.432 51.5649 419.61 51.0456 419.61H43.6583V427.014C43.6583 427.518 43.4567 427.998 43.1234 428.347C42.4025 429.053 41.108 429.053 40.4181 428.363C40.046 427.991 39.8522 427.502 39.8522 427.014V419.61H32.4495C31.9456 419.61 31.465 419.424 31.1162 419.059C30.7441 418.687 30.5503 418.214 30.5503 417.71C30.5503 417.207 30.7519 416.726 31.1162 416.377C31.4728 416.005 31.9456 415.811 32.4495 415.811H39.8522V408.423C39.8522 407.919 40.0538 407.438 40.4026 407.074C40.7437 406.733 41.232 406.554 41.7514 406.554C42.3328 406.57 42.7513 406.74 43.1002 407.089C43.4567 407.43 43.6505 407.919 43.6505 408.423V415.811H51.0378C51.5572 415.811 52.0378 416.013 52.4021 416.377C52.7432 416.718 52.937 417.207 52.937 417.71C52.937 418.214 52.7354 418.711 52.4021 419.059H52.4099Z" fill="#AEB6FF"/>
<path d="M305.288 129.122C305.714 129.463 306.365 130.099 306.551 131.029C306.916 132.913 305.11 134.743 303.567 135.472C300.342 136.983 296.808 134.309 296.342 133.944C295.653 133.409 293.296 131.572 293.25 128.882C293.18 124.843 298.389 120.586 301.962 122.075C304.117 122.974 305.451 125.874 305.296 129.13L305.288 129.122Z" fill="#222338"/>
<path d="M271.809 341.002C270.235 347.406 268.669 353.817 267.096 360.221C271.088 360.702 275.072 361.19 279.064 361.671C281.118 355.872 283.173 350.065 285.227 344.266C280.754 343.181 276.281 342.088 271.809 341.002Z" fill="#EF9C79"/>
<path d="M280.428 354.926C279.646 355.43 277.444 356.709 274.39 356.601C270.987 356.484 268.716 354.732 268.034 354.158C263.856 359.5 259.747 361.694 256.74 362.702C252.934 363.981 249.461 363.842 247.283 366.632C245.748 368.594 245.608 371.051 245.701 372.757C258.143 372.439 270.584 372.121 283.033 371.804C282.165 366.175 281.297 360.554 280.428 354.926Z" fill="#FBF9F7"/>
<path d="M282.515 369.044L245.831 369.979L245.851 370.77L282.535 369.835L282.515 369.044Z" fill="#6E61F4"/>
<path d="M263.468 363.741C263.142 363.245 262.561 362.539 261.631 361.997C260.708 361.462 259.809 361.299 259.22 361.26L259.274 360.469C260.243 360.531 261.189 360.826 262.026 361.307C262.863 361.795 263.592 362.485 264.127 363.299L263.468 363.733V363.741Z" fill="#6E61F4"/>
<path d="M265.77 361.973C265.305 361.26 264.669 360.655 263.933 360.229C263.011 359.694 262.111 359.531 261.522 359.492L261.577 358.702C262.546 358.764 263.491 359.058 264.328 359.539C265.173 360.027 265.894 360.717 266.429 361.539L265.77 361.973Z" fill="#6E61F4"/>
<path d="M299.397 342.111C299.761 348.631 300.118 355.159 300.482 361.679C304.396 360.981 308.319 360.291 312.233 359.593C312.505 353.508 312.776 347.414 313.047 341.328C308.497 341.592 303.947 341.848 299.397 342.111Z" fill="#EF9C79"/>
<path d="M312.342 356.275C311.567 356.779 309.389 358.035 306.365 357.934C302.993 357.818 300.746 356.082 300.071 355.516C295.932 360.803 291.862 362.974 288.886 363.974C285.118 365.237 281.677 365.106 279.522 367.866C278.002 369.812 277.863 372.246 277.956 373.928C290.281 373.618 302.598 373.3 314.923 372.99C314.063 367.424 313.21 361.85 312.35 356.283L312.342 356.275Z" fill="#FBF9F7"/>
<path d="M314.418 370.263L278.09 371.189L278.11 371.971L314.438 371.045L314.418 370.263Z" fill="#6E61F4"/>
<path d="M295.544 365.005C295.219 364.508 294.645 363.811 293.722 363.276C292.808 362.741 291.924 362.586 291.335 362.547L291.389 361.764C292.343 361.826 293.288 362.113 294.118 362.593C294.947 363.074 295.668 363.764 296.195 364.57L295.544 364.997V365.005Z" fill="#6E61F4"/>
<path d="M297.831 363.26C297.366 362.555 296.738 361.958 296.009 361.531C295.094 360.996 294.211 360.841 293.622 360.803L293.676 360.02C294.629 360.082 295.575 360.368 296.405 360.849C297.234 361.337 297.955 362.02 298.482 362.826L297.831 363.252V363.26Z" fill="#6E61F4"/>
<path d="M301.877 136.037L308.016 175.46C306.156 174.15 303.257 172.731 301.389 171.428C301.784 172.08 302.187 172.723 302.583 173.374C298.404 174.77 293.971 175.196 289.583 175.607C287.289 175.824 284.994 176.041 282.692 176.258C282.297 176.297 281.801 176.282 281.63 175.925C281.459 175.568 282.219 175.243 282.196 175.638C278.847 175.692 275.498 175.747 272.15 175.801C277.142 171.808 277.576 164.497 277.599 158.102C277.607 154.597 277.622 151.093 277.63 147.581C277.646 141.798 277.87 135.448 281.731 131.138C284.498 128.052 288.955 126.579 293.017 127.416C297.079 128.254 300.552 132.107 301.877 136.037Z" fill="#222338"/>
<path d="M315.497 296.262C315.659 268.004 315.652 253.498 311.442 234.923C309.458 226.194 307.164 219.131 305.474 214.394C304.792 211.231 304.102 208.068 303.42 204.905C297.497 204.835 291.567 204.765 285.645 204.703H273.491V212.805C273.491 212.805 262.445 226.798 264.282 250.738C266.127 274.679 266.909 301.115 266.909 301.115L270.537 349.065C276.211 349.879 281.878 350.694 287.552 351.5C287.436 322.582 287.319 293.673 287.211 264.755C291.11 293.704 295.009 322.644 298.916 351.593L315.109 347.468C315.194 338.382 315.357 320.257 315.497 296.262Z" fill="#140755"/>
<path d="M268.964 341.328V349.058L289.529 352.004L289.699 344.639L268.964 341.328Z" fill="#908DF7"/>
<path d="M295.583 344.879C302.606 344.235 309.629 343.592 316.659 342.948C316.729 345.414 316.791 347.887 316.861 350.352L298.885 352.236L295.59 344.879H295.583Z" fill="#908DF7"/>
<path d="M288.056 151.248L288.498 155.512L288.537 155.884L289.296 163.342L300.97 160.799L298.497 144.317L298.358 143.403L297.071 143.232L296.366 143.139L293.823 145.62L288.056 151.248Z" fill="#FCA87A"/>
<path d="M288.056 151.248L288.498 155.512C289.351 155.791 290.381 155.791 291.622 155.342C295.133 154.062 297.311 148.511 298.497 144.317L298.358 143.402L297.071 143.232L293.823 145.62L288.064 151.248H288.056Z" fill="#E46239"/>
<path d="M303.427 160.094C303.761 161.931 300.164 164.11 295.397 164.978C290.63 165.839 286.498 165.056 286.165 163.218C285.831 161.381 289.428 159.194 294.195 158.334C298.962 157.473 303.094 158.256 303.427 160.094Z" fill="#FCA87A"/>
<path d="M301.327 133.712C301.265 135.115 301.21 136.518 301.156 137.914C301.055 138.867 300.9 139.898 300.676 140.976C300.583 141.41 300.482 141.86 300.365 142.317C300.218 142.922 300.048 143.511 299.869 144.062C299.738 144.232 299.614 144.403 299.482 144.558C299.412 144.643 299.342 144.728 299.28 144.814C299.001 145.163 298.73 145.48 298.482 145.736C298.381 145.845 298.288 145.938 298.203 146.023C297.854 146.364 297.552 146.581 297.327 146.605C297.304 146.605 297.288 146.605 297.265 146.605C297.226 146.605 297.187 146.605 297.149 146.581C297.118 146.566 297.087 146.535 297.071 146.496C296.978 146.341 296.97 146.046 296.924 146.046C296.908 146.046 296.9 146.062 296.893 146.07C296.846 146.147 296.8 146.225 296.745 146.302C296.583 146.535 296.381 146.752 296.172 146.953C295.652 147.45 295.056 147.884 294.614 148.442C293.304 150.093 290.172 151.667 289.978 151.768C288.606 152.45 286.568 153.435 283.94 153.272C283.048 153.21 282.064 153.14 281.126 152.481C280.134 151.783 279.793 150.853 279.18 149.116C278.444 147.015 278.219 145.194 278.227 143.829C278.227 143.79 278.227 143.752 278.227 143.713C278.242 142.558 278.413 141.751 278.552 141.418C278.614 141.255 278.676 141.085 278.715 140.914C278.769 140.697 278.801 140.488 278.816 140.271C278.816 140.24 278.816 140.201 278.816 140.162C278.832 139.86 278.816 139.542 278.769 139.239C278.731 138.991 278.692 138.743 278.653 138.503C278.583 137.898 278.552 137.309 278.552 136.751C278.552 136.611 278.552 136.472 278.552 136.34C278.552 136.332 278.552 136.324 278.552 136.317C278.552 136.131 278.568 135.952 278.583 135.774C278.793 132.673 279.979 130.285 281.025 128.75C281.165 128.541 281.304 128.347 281.444 128.169C281.754 127.781 282.095 127.424 282.452 127.091C285.351 124.354 289.521 123.323 293.374 124.463C297.575 125.711 300.691 129.324 301.319 133.696L301.327 133.712Z" fill="#FCA87A"/>
<path d="M288.506 135.27C289.041 135.247 289.808 135.285 290.676 135.565C292.095 136.022 293.009 136.883 293.459 137.363C292.095 137.084 290.723 136.797 289.358 136.518C288.227 136.665 287.103 136.813 285.971 136.96L285.49 135.673L288.506 135.262V135.27Z" fill="#222338"/>
<path d="M281.343 135.766L282.033 137.162L279.297 137.247L278.483 137.658L277.979 135.96L281.343 135.766Z" fill="#222338"/>
<path d="M301.893 135.239C301.893 135.503 301.893 135.766 301.877 136.038C301.699 139.224 300.311 142.209 298.916 145.085C298.637 144.636 299.094 144.659 298.761 144.256C297.815 143.077 297.652 141.023 298.335 139.682C296.11 139.589 293.916 138.782 292.149 137.418C291.839 137.177 291.544 136.922 291.265 136.658C290.885 136.286 290.521 135.906 290.172 135.503C288.831 133.937 287.847 132.154 287.692 130.068C287.327 132.743 287.529 135.022 288.738 137.449C285.25 135.728 283.234 131.487 283.405 127.603C282.428 130.906 280.576 133.945 278.103 136.325C276.956 131.735 278.149 128.603 281.855 125.673C285.568 122.742 291.017 122.223 295.218 124.401C298.009 125.843 300.141 128.432 301.187 131.386C301.629 132.634 301.869 133.937 301.893 135.255V135.239Z" fill="#222338"/>
<path d="M300.9 143.534C300.528 145.542 299.048 146.961 297.59 146.69C296.133 146.418 295.257 144.573 295.629 142.557C296.001 140.55 297.482 139.131 298.939 139.402C300.396 139.674 301.272 141.519 300.9 143.534Z" fill="#FCA87A"/>
<path d="M299.521 142.867C299.35 142.751 299.172 142.666 298.962 142.65C298.753 142.635 298.559 142.658 298.358 142.72C298.249 142.751 298.149 142.805 298.056 142.867C298.125 142.72 298.211 142.581 298.304 142.441C298.474 142.193 298.668 141.929 298.869 141.712C298.978 141.604 298.823 141.433 298.699 141.511C298.381 141.72 298.125 141.945 297.908 142.263C297.699 142.573 297.536 142.914 297.435 143.271C297.35 143.565 297.296 143.875 297.358 144.178C297.412 144.449 297.575 144.782 297.893 144.798C298.125 144.813 298.187 144.519 298.009 144.403C297.691 144.193 297.738 143.782 297.838 143.441C297.893 143.379 297.955 143.325 298.032 143.286C298.164 143.216 298.335 143.147 298.459 143.108C298.753 143.023 299.079 143.061 299.35 143.185C299.435 143.224 299.528 143.185 299.575 143.108C299.614 143.038 299.621 142.914 299.544 142.86L299.521 142.867Z" fill="#E66239"/>
<path d="M298.49 145.806C298.459 145.961 298.311 146.062 298.164 146.031C298.009 146 297.908 145.853 297.939 145.705C297.97 145.55 298.117 145.449 298.265 145.48C298.42 145.511 298.521 145.659 298.49 145.806Z" fill="white"/>
<path d="M299.838 144.891C299.807 145.046 299.66 145.147 299.513 145.116C299.358 145.085 299.257 144.938 299.288 144.79C299.319 144.635 299.466 144.534 299.614 144.565C299.769 144.596 299.869 144.744 299.838 144.891Z" fill="white"/>
<g style="mix-blend-mode:screen">
<path d="M301.892 135.239C301.094 135.123 300.334 134.836 299.73 134.378C299.079 135.208 298.11 135.774 297.063 135.937C296.025 136.1 294.932 135.727 294.063 135.13C293.598 136.014 292.916 136.766 292.141 137.41C291.831 137.169 291.536 136.914 291.257 136.65C290.877 136.278 290.513 135.898 290.164 135.495C291.622 134.541 292.676 132.975 292.986 131.254C293.777 132.231 294.691 132.998 295.947 132.991C297.203 132.983 298.443 132.378 299.226 131.394C299.544 130.983 299.683 130.51 299.846 130.014C300.032 130.549 300.559 131.06 301.187 131.37C301.629 132.619 301.869 133.921 301.892 135.239Z" fill="#222338"/>
</g>
<g style="mix-blend-mode:multiply" opacity="0.32">
<path d="M295.699 140.588C295.924 141.86 294.172 143.232 291.777 143.666C289.381 144.1 287.257 143.418 287.025 142.147C286.8 140.875 288.552 139.503 290.947 139.069C293.342 138.635 295.466 139.317 295.699 140.588Z" fill="#FCA87A"/>
</g>
<g style="mix-blend-mode:multiply" opacity="0.32">
<path d="M280.366 142.744C280.351 143.565 279.529 144.279 278.312 144.666C278.188 143.426 278.273 142.542 278.39 142.17C278.444 141.992 278.483 141.798 278.498 141.604C278.529 141.364 278.537 141.131 278.529 140.899C278.529 140.86 278.529 140.821 278.529 140.782C279.661 141.232 280.389 141.945 280.374 142.744H280.366Z" fill="#FCA87A"/>
</g>
<path d="M282.32 144.449C281.901 144.186 280.622 143.379 280.824 142.255C280.886 141.906 281.079 141.62 281.273 141.348C281.327 141.271 281.374 141.201 281.428 141.123C281.823 140.503 282.002 139.72 281.916 138.984L282.374 138.929C282.475 139.782 282.273 140.643 281.816 141.364C281.761 141.449 281.707 141.527 281.653 141.604C281.482 141.844 281.327 142.077 281.281 142.333C281.18 142.883 281.599 143.449 282.568 144.054L282.32 144.442V144.449Z" fill="#E66239"/>
<g style="mix-blend-mode:multiply">
<path d="M287.227 146.426C286.451 146.535 285.878 146.426 285.482 146.294C284.304 145.907 283.707 145 282.986 145.263C282.731 145.356 282.568 145.573 282.219 145.55C282.033 145.535 281.862 145.418 281.514 145.248C280.824 145.418 281.111 146.829 281.638 146.907C281.049 149.481 282.769 149.853 284.754 148.752C285.669 148.333 285.769 148.171 286.072 147.992C286.234 147.915 286.498 147.767 286.738 147.488C287.095 147.077 287.196 146.628 287.227 146.426Z" fill="#EAB6EE"/>
</g>
<g style="mix-blend-mode:multiply">
<path d="M284.614 147.387C283.436 147.48 282.405 147.302 281.653 147.093L281.738 146.752C282.808 147.054 284.475 147.287 286.319 146.69C287.157 146.418 287.947 146.007 288.66 145.457L288.862 145.744C288.11 146.318 287.288 146.744 286.42 147.031C285.792 147.232 285.188 147.349 284.614 147.387Z" fill="#E66239"/>
</g>
<path d="M280.917 139.325C281.002 140.077 280.824 140.72 280.514 140.751C280.204 140.782 279.878 140.208 279.793 139.449C279.708 138.697 279.886 138.053 280.196 138.022C280.506 137.983 280.832 138.565 280.917 139.325Z" fill="#222338"/>
<path d="M288.467 138.906C288.498 139.666 288.265 140.286 287.955 140.301C287.645 140.317 287.366 139.712 287.335 138.952C287.304 138.193 287.537 137.572 287.847 137.557C288.157 137.541 288.436 138.146 288.467 138.906Z" fill="#222338"/>
<path d="M293.366 170.18C292.932 170.18 292.513 170.118 292.126 170.002C289.444 169.157 287.211 164.916 288.164 159.947L288.692 160.048C287.792 164.738 289.823 168.723 292.288 169.49C293.474 169.862 295.056 169.545 296.521 168.653C298.916 167.18 300.59 164.544 301.11 161.404L301.637 161.49C301.086 164.777 299.327 167.552 296.8 169.103C295.645 169.808 294.451 170.18 293.374 170.18H293.366Z" fill="#80663D"/>
<path d="M265.879 172.514C265.879 172.514 258.15 192.57 253.375 193.555L243.5 187.787C243.5 187.787 236.5 193.275 238.655 199.64C240.81 206.005 253.088 210.719 255.739 211.091C258.391 211.463 267.437 208.61 270.894 201.726C274.351 194.841 277.909 184.91 277.909 184.91C277.909 184.91 280.111 170.141 265.871 172.522L265.879 172.514Z" fill="#908DF7"/>
<path d="M228.834 182.274L242.027 171.708L257.561 175.491L267.003 183.569L268.623 202.144L255.143 208.207L239.748 201.71L228.834 182.274Z" fill="#FFBACD"/>
<path d="M287.436 156.357C291.784 156.823 296.141 157.288 300.489 157.753C300.381 159.024 300.28 160.296 300.172 161.567C301.745 161.466 304.892 161.49 308.28 163.172C310.287 164.172 311.714 165.42 312.628 166.374L303.365 212.704L273.289 208.827C273.289 208.827 268.599 172.328 274.723 166.521C275.599 165.692 278.126 164.552 282.568 162.211C283.986 161.459 285.157 160.862 285.924 160.474C286.428 159.102 286.932 157.737 287.436 156.365V156.357Z" fill="white"/>
<path d="M300.497 157.753C298.226 161.49 295.986 165.575 293.877 170.025C286.909 184.701 283.545 198.586 281.909 209.928C280.459 205.215 279.118 199.276 278.653 192.345C277.816 179.863 280.196 169.614 282.351 162.978C283.831 162.156 285.32 161.327 286.8 160.505C287.017 159.117 287.227 157.737 287.444 156.35C285.862 156.474 283.203 156.9 280.335 158.435C276.87 160.288 274.863 162.823 273.925 164.195C273.925 164.195 266.328 169.948 265.305 173.917C264.282 177.887 266.476 185.12 271.46 185.569L273.506 211.68C273.506 211.68 299.42 215.991 305.706 213.913L311.117 180.926C311.117 180.926 316.683 178.228 316.287 172.491C316.032 168.831 315.318 166.095 314.861 165.25C310.97 158.024 301.079 157.753 300.505 157.745L300.497 157.753Z" fill="#908DF7"/>
<path d="M302.234 176.32L316.264 174.219C316.264 174.219 320.396 216.999 295.381 212.432C270.367 207.866 267.778 196.904 267.778 196.904L271.863 190.833L296.04 193.105L302.234 176.313V176.32Z" fill="#908DF7"/>
<path d="M271.863 190.834L296.04 193.105L302.234 176.321" stroke="#140755" stroke-width="0.5" stroke-miterlimit="10"/>
<path d="M315.497 186.391C315.497 186.391 318.047 218.107 290.079 211.587C286.847 210.471 283.157 208.959 279.227 206.897C275.142 204.757 271.685 202.486 268.855 200.385" stroke="#140755" stroke-width="0.5" stroke-miterlimit="10"/>
<path d="M297.296 163.312L303.621 161.714L302.397 159.916L305.195 158.443" stroke="#140755" stroke-width="0.5" stroke-miterlimit="10"/>
<path d="M282.351 162.986L280.909 160.552L283.01 159.916L282.506 157.458" stroke="#140755" stroke-width="0.5" stroke-miterlimit="10"/>
<path d="M268.623 202.144L255.15 208.207L254.794 208.052L265.755 203.121L264.142 184.546L254.693 176.468L240.422 172.994L242.027 171.708L257.561 175.499L267.01 183.569L268.623 202.144Z" fill="#F76B95"/>
<path d="M280.909 245.474L286.715 253.925L297.071 337.824" stroke="#6E61F4" stroke-miterlimit="10"/>
<path d="M283.421 213.122C283.421 213.122 282.095 224.154 284.219 226.573C286.343 228.992 287.94 213.122 287.94 213.122" stroke="#6E61F4" stroke-miterlimit="10"/>
<path d="M229.229 191.95C229.314 192.268 231.338 194.578 231.338 194.578C231.338 194.578 234.027 198.09 234.283 198.292C234.547 198.493 237.368 198.02 237.368 198.02L237.058 196.594C237.988 195.648 238.911 194.702 239.841 193.756C240.019 193.253 239.81 192.725 239.415 192.532C239.128 192.392 238.771 192.438 238.485 192.64C237.609 193.346 236.733 194.043 235.857 194.749L237.616 192.082L239.515 190.198C239.857 189.756 239.764 189.12 239.353 188.802C238.973 188.508 238.399 188.547 238.043 188.911C238.616 188.213 238.492 187.298 237.996 186.934C237.663 186.686 237.159 186.686 236.717 186.895L233.066 189.554L233.306 188.392L235.585 186.515C235.624 186.438 235.787 186.043 235.616 185.616C235.461 185.221 235.082 184.934 234.632 184.88C233.198 185.95 231.764 187.019 230.338 188.089L229.237 191.958L229.229 191.95Z" fill="#EF9C79"/>
<path d="M234.175 192.516C234.175 192.516 234.097 192.531 234.066 192.516C234.004 192.485 233.981 192.415 234.012 192.353L234.647 191.097C234.647 191.097 234.671 191.066 234.686 191.051L238.446 188.36C238.5 188.314 238.578 188.337 238.616 188.391C238.655 188.446 238.64 188.523 238.585 188.562L234.857 191.237L234.237 192.462C234.237 192.462 234.206 192.5 234.182 192.516H234.175Z" fill="#E46239"/>
<path d="M232.446 190.462C232.407 190.485 232.353 190.477 232.314 190.446C232.26 190.4 232.252 190.33 232.299 190.275L232.965 189.477C233.004 189.423 233.082 189.415 233.136 189.461C233.19 189.508 233.198 189.578 233.151 189.632L232.485 190.431C232.485 190.431 232.462 190.454 232.446 190.462Z" fill="#E46239"/>
<path d="M297.327 214.487C297.327 214.487 293.916 232.17 310.086 229.395" stroke="#6E61F4" stroke-miterlimit="10"/>
<path d="M275.63 212.417C274.08 222.301 269.987 225.806 266.747 226.976" stroke="#6E61F4" stroke-miterlimit="10"/>
<path d="M267.778 177.266C267.778 177.266 268.964 183.546 271.452 185.577L271.863 190.834" stroke="#140755" stroke-width="0.5" stroke-miterlimit="10"/>
<path d="M250.995 184.414C250.546 184.957 250.647 185.701 251.073 186.011C251.383 186.236 251.848 186.228 252.236 185.988C253.554 185.585 254.871 185.189 256.189 184.786C256.189 184.786 252.724 187.352 253.933 189.585C253.933 189.585 254.98 191.213 256.189 190.12C256.189 190.12 255.972 191.562 257.112 192.043C257.685 192.291 258.36 192.058 258.755 191.578L259.29 190.926C259.018 191.655 259.15 192.415 259.623 192.834C260.111 193.268 260.794 193.175 260.902 193.159C261.669 193.043 262.367 192.353 262.375 192.345C262.375 192.345 264.437 192.198 265.468 193.733C266.499 195.268 268.561 196.47 270.971 194.749C273.374 193.027 270.452 187.701 267.878 185.98C265.297 184.259 261.104 181.336 261.104 181.336C260.197 181.135 258.956 180.988 257.522 181.158C254.096 181.577 251.833 183.569 250.995 184.399V184.414Z" fill="#EF9C79"/>
<path d="M256.181 190.112C256.181 190.112 256.716 187.632 258.507 186.391" stroke="#E46239" stroke-width="0.5" stroke-miterlimit="10"/>
<path d="M258.956 191.291C258.956 191.291 259.491 188.81 261.282 187.57" stroke="#E46239" stroke-width="0.5" stroke-miterlimit="10"/>
<path d="M159.217 374.96C145.388 379.193 139 381.162 132.024 375.417C131.729 375.184 131.194 374.913 130.822 374.843L124.272 373.533C123.319 373.339 122.73 372.331 123.102 371.432C123.288 370.99 123.59 370.51 124.079 370.06C124.73 369.463 125.699 368.905 127.14 368.54C131.489 367.439 136.008 364.532 147.047 365.036C150.426 365.183 153.643 366.579 156.062 368.944C157.627 370.471 159.178 372.107 159.72 373.301C160.1 374.107 160.03 374.711 159.217 374.96Z" fill="#FFBACD"/>
<path d="M159.217 374.959C145.388 379.192 139 381.162 132.024 375.417C131.729 375.184 131.195 374.913 130.823 374.843L124.272 373.533C123.319 373.339 122.73 372.331 123.102 371.432C123.288 370.99 123.59 370.509 124.079 370.06L136.427 373.13L141.465 377.332L159.721 373.3C160.1 374.107 160.031 374.711 159.217 374.959Z" fill="#F76B95"/>
<path d="M35.8264 355.12C32.0669 360.043 28.2996 364.966 24.5401 369.889C21.8348 367.253 19.1372 364.617 16.4319 361.981C19.4705 357.058 22.5014 352.143 25.54 347.22C28.9662 349.856 32.4002 352.484 35.8264 355.12Z" fill="#C66858"/>
<path d="M35.346 373.843C35.8421 374.37 36.2995 374.603 37.5242 374.603C41.6403 374.603 43.617 380.975 43.617 380.975H24.6411C20.0444 376.006 15.4477 371.036 10.851 366.067C13.9283 362.245 17.0057 358.43 20.0909 354.608C20.4087 355.422 21.3931 357.601 23.7729 359.198C26.4317 360.973 29.1292 360.888 29.9587 360.826L32.4934 371.246L35.346 373.843Z" fill="#FEFDFB"/>
<path d="M31.3695 375.176C31.7959 374.812 32.5013 374.331 33.4857 374.083C34.4624 373.843 35.3073 373.936 35.8499 374.052L36.0127 373.331C35.3926 373.192 34.4236 373.091 33.3074 373.362C32.1834 373.641 31.3695 374.2 30.8889 374.611L31.3695 375.169V375.176Z" fill="#140755"/>
<path d="M29.7571 372.982C30.1834 372.618 30.8888 372.137 31.8733 371.889C32.85 371.649 33.6949 371.742 34.2375 371.858L34.4003 371.137C33.5089 370.943 32.5787 370.951 31.695 371.168C30.571 371.447 29.7571 372.005 29.2765 372.416L29.7571 372.974V372.982Z" fill="#140755"/>
<path d="M25.3309 379.711L42.9348 379.518L42.927 378.781L25.6642 378.967L12.1764 363.578L11.6183 364.067L25.3309 379.711Z" fill="#140755"/>
<path d="M74.5457 360.058C70.7862 364.981 67.0189 369.904 63.2594 374.827C60.5541 372.191 57.8566 369.555 55.1512 366.92C58.1899 361.997 61.2207 357.081 64.2594 352.158C67.6856 354.794 71.1195 357.423 74.5457 360.058Z" fill="#C66858"/>
<path d="M74.0653 378.781C74.5614 379.308 75.0187 379.541 76.2435 379.541C80.3596 379.541 82.3362 385.914 82.3362 385.914H63.3603C58.7636 380.944 54.1669 375.975 49.5702 371.005C52.6476 367.183 55.725 363.369 58.8101 359.547C59.1279 360.361 60.1124 362.539 62.4921 364.136C65.1509 365.912 67.8485 365.827 68.6779 365.765L71.2127 376.184L74.0653 378.781Z" fill="#FEFDFB"/>
<path d="M70.0886 380.115C70.515 379.751 71.2204 379.27 72.2048 379.022C73.1815 378.781 74.0264 378.875 74.5691 378.991L74.7318 378.27C74.1117 378.13 73.1428 378.029 72.0265 378.301C70.9025 378.58 70.0886 379.138 69.608 379.549L70.0886 380.107V380.115Z" fill="#140755"/>
<path d="M68.4763 377.921C68.9027 377.556 69.6081 377.076 70.5925 376.827C71.5692 376.587 72.4141 376.68 72.9567 376.796L73.1195 376.075C72.2281 375.882 71.2979 375.889 70.4142 376.106C69.2902 376.386 68.4763 376.944 67.9957 377.355L68.4763 377.913V377.921Z" fill="#140755"/>
<path d="M64.0501 384.65L81.654 384.456L81.6462 383.72L64.3834 383.906L50.8956 368.517L50.3375 368.998L64.0501 384.65Z" fill="#140755"/>
<path d="M84.7083 253.684C85.0494 252.731 86.1423 249.296 84.5998 245.536C83.2355 242.203 80.6077 240.613 79.662 240.04C72.6236 235.783 63.7402 240.381 63.0038 240.768C56.0661 247.963 57.973 257.142 63.3836 259.646C60.4768 263.957 57.4227 268.345 54.3685 272.585C55.6398 276.578 60.1822 279.896 64.1588 280.299C66.4998 276.353 69.7089 271.996 72.608 268.732C74.887 270.337 79.0109 274.764 80.9333 270.267C81.4836 268.787 81.5069 268.391 82.4138 266.655C83.4525 266.531 83.7781 264.856 83.2588 264.383C83.5146 264.158 83.7083 263.964 83.8324 263.825C84.4525 263.135 84.9098 262.305 84.9874 261.739C85.0184 261.499 85.0339 261.212 85.0339 261.212C85.0416 261.018 85.0416 260.856 85.0416 260.739C85.2199 260.763 86.6152 260.902 87.5531 259.902C87.9485 259.483 88.1112 259.01 88.181 258.724C87.026 257.049 85.8633 255.367 84.7083 253.692V253.684Z" fill="#C66858"/>
<path d="M86.3902 246.622C86.3127 246.847 86.2041 247.064 86.0491 247.265C84.7313 248.994 81.3284 248.653 80.2121 246.947C79.716 247.498 79.1037 247.94 78.4293 248.242C77.8247 248.513 77.2975 248.575 76.2743 248.699C75.7007 248.769 74.9178 248.847 73.9644 248.854C73.9799 249.234 74.0186 251.196 72.5148 252.824C71.2125 254.227 69.6002 254.475 69.1506 254.529C67.6701 254.188 66.8871 254.475 66.4453 254.816C65.3368 255.677 65.8717 257.266 64.3911 259.305C63.9648 259.887 63.585 260.414 62.9648 260.514C61.9726 260.67 60.9804 259.631 60.058 258.623C56.7946 255.064 55.8566 249.87 57.6782 245.412C58.996 242.172 61.3913 239.342 64.4686 237.675C71.135 234.078 80.5067 236.179 85.0647 242.172C85.9018 243.265 86.894 245.156 86.3979 246.629L86.3902 246.622Z" fill="#222338"/>
<g style="mix-blend-mode:multiply">
<path d="M74.5537 270.159C74.2126 269.887 73.856 269.608 73.4762 269.337C73.1894 269.128 72.9026 268.926 72.6235 268.74C71.0034 270.577 69.3136 272.671 67.6315 275.027C67.4609 275.268 67.2904 275.508 67.1199 275.748C66.7013 274.678 66.306 273.531 65.9571 272.291C64.5929 267.507 64.3603 263.212 64.4843 259.956C64.4843 259.879 64.4688 259.801 64.4611 259.724V259.662L67.3912 252.281L70.0112 257.894L69.2128 262.623L74.5537 270.151V270.159Z" fill="#C66858"/>
</g>
<path d="M65.0579 255.785C64.9727 257.847 66.1199 259.561 67.6082 259.623C69.0965 259.685 70.3755 258.065 70.4608 256.002C70.5461 253.94 69.3988 252.227 67.9105 252.165C66.4222 252.103 65.1432 253.723 65.0579 255.785Z" fill="#C66858"/>
<g style="mix-blend-mode:multiply">
<path d="M67.1664 253.692C67.678 253.53 68.1586 253.948 68.2904 254.08C69.3368 255.096 68.2439 257.561 68.1974 257.662L67.9183 257.538C67.9183 257.538 68.9338 255.251 68.1198 254.344C67.895 254.382 67.1121 254.638 67.0424 256.452H66.7401C66.8021 254.793 67.4377 254.274 67.8408 254.103C67.678 253.995 67.461 253.902 67.2517 253.971C66.9726 254.057 66.7711 254.398 66.7401 254.824L66.4377 254.801C66.4765 254.251 66.7556 253.809 67.1586 253.685L67.1664 253.692Z" fill="#C66858"/>
</g>
<path d="M83.8635 259.623C83.8635 259.623 83.91 259.623 83.9255 259.607C84.0805 259.476 84.3053 259.429 84.5224 259.476C84.7472 259.522 84.9254 259.67 85.003 259.856C85.0185 259.887 85.0572 259.902 85.0882 259.887C85.1192 259.871 85.1347 259.832 85.1192 259.801C85.0262 259.576 84.8092 259.414 84.5456 259.352C84.2821 259.29 84.0185 259.352 83.8325 259.507C83.8092 259.53 83.8015 259.569 83.8325 259.6C83.8402 259.607 83.848 259.615 83.8635 259.615V259.623Z" fill="#972B1E"/>
<g style="mix-blend-mode:multiply">
<path d="M78.9954 262.507C79.8558 262.995 80.8557 263.483 81.972 263.918C82.4138 264.088 82.8479 264.235 83.2587 264.367" stroke="#C66858" stroke-width="0.5" stroke-miterlimit="10"/>
</g>
<path d="M82.5688 254.933C82.406 255.491 82.0882 255.886 81.8557 255.816C81.6231 255.747 81.5689 255.243 81.7317 254.685C81.8944 254.126 82.2123 253.731 82.4448 253.801C82.6774 253.87 82.7316 254.374 82.5688 254.933Z" fill="#222338"/>
<path d="M84.0493 253.49C84.0493 253.49 81.2743 250.909 79.0186 253.537C79.0186 253.537 80.8944 248.536 84.0493 253.49Z" fill="#222338"/>
<path d="M28.9743 345.274L19.3313 354.616C24.7264 355.57 30.1215 356.523 35.5089 357.469C44.3225 350.445 53.136 343.414 61.9496 336.39L46.3689 330.831L28.9743 345.274Z" fill="#140755"/>
<path d="M16.5175 325.939C19.06 313.163 23.0676 303.193 26.3697 296.355C29.7882 289.261 36.8654 276.368 47.8184 269.74C49.7408 268.577 55.2987 265.22 57.1901 266.933C58.2211 267.864 57.7715 269.74 57.7715 269.74C58.7869 270.337 60.1822 270.988 61.9186 271.345C66.5308 272.283 70.3136 270.461 71.6391 269.74L94.7544 297.836L74.1274 311.17L71.2825 305.937C70.7632 308.418 66.9339 325.388 53.5159 330.622C46.5859 333.319 39.1831 332.079 32.7338 330.994C25.7884 329.831 20.2692 327.683 16.5175 325.939Z" fill="#6E61F4"/>
<path d="M16.5173 325.939C16.5173 325.939 10.1764 346.677 23.5247 352.523C23.5247 352.523 29.5554 353.624 33.0282 353.624C33.0282 353.624 54.2366 354.174 64.4687 347.228L58.9805 357.647L77.8092 363.865C77.8092 363.865 107.792 325.288 99.9322 315.233C92.0721 305.177 67.9646 315.233 67.9646 315.233C67.9646 315.233 58.0116 326.931 47.2524 329.311C36.4931 331.692 16.5095 325.947 16.5095 325.947L16.5173 325.939Z" fill="#140755"/>
<path d="M64.4764 347.22C64.4764 347.22 78.6309 339.886 83.6306 330.164" stroke="#6E61F4" stroke-miterlimit="10"/>
<path d="M89.3281 301.348C89.3281 301.348 97.2657 307.992 101.258 305.906C105.25 303.813 112.56 297.2 112.56 297.2L117.784 301.759C117.784 301.759 104.552 317.752 98.1029 318.45C91.6613 319.148 78.5378 308.325 78.5378 308.325L89.3281 301.348Z" fill="#C66858"/>
<path d="M71.2824 305.938L66.7012 298.379" stroke="#140755" stroke-width="0.5" stroke-miterlimit="10"/>
<path d="M81.7627 282.044L92.6847 272.423L98.1573 258.801H117.56L123.645 272.058L119.854 280.734L117.784 295.65L102.708 297.2H92.956L81.7627 282.044Z" fill="#FFBACD"/>
<path d="M123.644 272.058L119.854 280.733L117.777 295.649L102.7 297.2H98.1572L113.234 295.649L115.304 280.733L119.094 272.058L113.017 258.793H117.567L123.644 272.058Z" fill="#F76B95"/>
<path d="M112.56 297.2C112.56 297.2 110.118 294.417 112.56 289.013C115.001 283.609 116.389 282.834 116.567 283.4C116.738 283.966 117.087 286.509 115.521 288.199C115.521 288.199 117.087 290.517 119.001 288.199C120.916 285.881 119.001 283.245 119.001 283.245L119.854 280.741C119.854 280.741 123.179 283.796 123.179 286.059C123.179 288.323 124.226 293.378 123.179 294.766C122.133 296.161 117.784 301.758 117.784 301.758L112.56 297.2Z" fill="#C66858"/>
<path d="M95.8628 273.624C95.9403 274.345 93.5141 275.245 92.1963 275.741C91.5762 275.973 91.0491 276.136 90.7002 276.237L82.8091 282.524L82.3828 283.284L80.6542 280.299C80.6542 280.299 83.9409 271.438 92.1963 272.384C94.8629 272.686 95.8086 273.144 95.8628 273.624Z" fill="#C66858"/>
<path d="M174.442 67.3009L170.504 76.5271L171.131 76.795L175.07 67.5688L174.442 67.3009Z" fill="#AEB6FF"/>
<path d="M172.024 65.2901L164.253 71.6333L164.684 72.1618L172.455 65.8186L172.024 65.2901Z" fill="#AEB6FF"/>
<path d="M170.826 62.3827L161 64.3982L161.137 65.0665L170.963 63.051L170.826 62.3827Z" fill="#AEB6FF"/>
<path d="M161.487 56.4819L161.297 57.1372L170.932 59.9259L171.122 59.2706L161.487 56.4819Z" fill="#AEB6FF"/>
<path d="M172.35 57.1262L165.117 50.1798L165.59 49.6914L172.822 56.6378L172.35 57.1262Z" fill="#AEB6FF"/>
<path d="M172.379 45.5905L171.732 45.8066L174.91 55.3218L175.557 55.1057L172.379 45.5905Z" fill="#AEB6FF"/>
<path d="M179.63 45L178.021 54.9021L178.695 55.0115L180.304 45.1095L179.63 45Z" fill="#AEB6FF"/>
<path d="M181.512 56.3895L180.962 55.9786L186.985 47.9546L187.535 48.3655L181.512 56.3895Z" fill="#AEB6FF"/>
<path d="M192.126 53.9869L183.065 58.2915L183.358 58.9077L192.418 54.6031L192.126 53.9869Z" fill="#AEB6FF"/>
<path d="M183.854 61.3354L183.827 62.0171L193.85 62.4179L193.877 61.7362L183.854 61.3354Z" fill="#AEB6FF"/>
<path d="M183.145 64.3935L182.804 64.9844L191.492 69.9988L191.833 69.4079L183.145 64.3935Z" fill="#AEB6FF"/>
<path d="M181.097 66.7642L180.521 67.1289L185.884 75.6067L186.46 75.2419L181.097 66.7642Z" fill="#AEB6FF"/>
<path d="M178.183 67.9022L177.503 67.9573L178.312 77.9565L178.992 77.9014L178.183 67.9022Z" fill="#AEB6FF"/>
<path d="M124.469 69H32.6818C27.887 69 24 72.8875 24 77.683V137.378C24 142.174 27.887 146.061 32.6818 146.061H124.469C129.263 146.061 133.15 142.174 133.15 137.378V77.683C133.15 72.8875 129.263 69 124.469 69Z" fill="#6E61F4"/>
<path d="M78.9359 86.4592H78.215V132.967H78.9359V86.4592Z" fill="#AEB6FF"/>
<path d="M106.772 115.376C106.772 117.896 104.733 119.935 102.214 119.935C99.6944 119.935 97.6558 117.896 97.6558 115.376C97.6558 112.857 99.6944 110.818 102.214 110.818C104.733 110.818 106.772 112.857 106.772 115.376Z" fill="#AEB6FF"/>
<path d="M118.453 116.074C118.453 117.942 116.934 119.462 115.066 119.462C113.198 119.462 111.678 117.942 111.678 116.074C111.678 114.206 113.198 112.686 115.066 112.686C116.934 112.686 118.453 114.206 118.453 116.074Z" fill="#AEB6FF"/>
<path d="M103.028 100.887C103.028 102.887 101.408 104.507 99.4076 104.507C97.4077 104.507 95.7876 102.887 95.7876 100.887C95.7876 98.8864 97.4077 97.2661 99.4076 97.2661C101.408 97.2661 103.028 98.8864 103.028 100.887Z" fill="#AEB6FF"/>
<path d="M91.8112 107.197C91.8112 109.198 90.1911 110.818 88.1912 110.818C86.1913 110.818 84.5712 109.198 84.5712 107.197C84.5712 105.197 86.1913 103.577 88.1912 103.577C90.1911 103.577 91.8112 105.197 91.8112 107.197Z" fill="#AEB6FF"/>
<path d="M97.1908 127.641C97.1908 130.091 95.2064 132.084 92.7492 132.084C90.2919 132.084 88.3075 130.099 88.3075 127.641C88.3075 125.184 90.2919 123.199 92.7492 123.199C95.2064 123.199 97.1908 125.184 97.1908 127.641Z" fill="#AEB6FF"/>
<path d="M99.888 102.117L99.1737 102.214L100.577 112.5L101.291 112.402L99.888 102.117Z" fill="#AEB6FF"/>
<path d="M90.3574 107.928L90.0048 108.556L99.5845 113.931L99.9372 113.302L90.3574 107.928Z" fill="#AEB6FF"/>
<path d="M99.8631 117.086L93.2419 125.617L93.8114 126.06L100.433 117.529L99.8631 117.086Z" fill="#AEB6FF"/>
<path d="M105.596 114.885L105.58 115.606L115.864 115.839L115.88 115.119L105.596 114.885Z" fill="#AEB6FF"/>
<path d="M106.88 79.1329H55.4873C54.7509 79.1329 54.1462 78.5282 54.1462 77.7916C54.1462 77.0551 54.7509 76.4504 55.4873 76.4504H106.88C107.617 76.4504 108.221 77.0551 108.221 77.7916C108.221 78.5282 107.617 79.1329 106.88 79.1329Z" fill="#AEB6FF"/>
<path d="M127.128 93.0335H109.477C109.19 93.0335 108.958 92.8009 108.958 92.5141C108.958 92.2272 109.19 91.9946 109.477 91.9946H127.128C127.414 91.9946 127.647 92.2272 127.647 92.5141C127.647 92.8009 127.414 93.0335 127.128 93.0335Z" fill="#AEB6FF"/>
<path d="M127.213 96.3748H109.562C109.276 96.3748 109.043 96.1422 109.043 95.8554C109.043 95.5685 109.276 95.3359 109.562 95.3359H127.213C127.5 95.3359 127.732 95.5685 127.732 95.8554C127.732 96.1422 127.5 96.3748 127.213 96.3748Z" fill="#AEB6FF"/>
<path d="M118.306 100.189H109.64C109.353 100.189 109.12 99.9564 109.12 99.6696C109.12 99.3827 109.353 99.1501 109.64 99.1501H118.306C118.593 99.1501 118.825 99.3827 118.825 99.6696C118.825 99.9564 118.593 100.189 118.306 100.189Z" fill="#AEB6FF"/>
<path d="M118.306 104.329H109.64C109.353 104.329 109.12 104.097 109.12 103.81C109.12 103.523 109.353 103.29 109.64 103.29H118.306C118.593 103.29 118.825 103.523 118.825 103.81C118.825 104.097 118.593 104.329 118.306 104.329Z" fill="#AEB6FF"/>
<path d="M51.4406 127.052C61.5022 127.052 69.6879 118.865 69.6879 108.802C69.6879 98.7391 61.5022 90.5522 51.4406 90.5522C41.3791 90.5522 33.1934 98.7391 33.1934 108.802C33.1934 118.865 41.3791 127.052 51.4406 127.052ZM51.4406 91.7384C60.8511 91.7384 68.5097 99.398 68.5097 108.81C68.5097 118.222 60.8511 125.881 51.4406 125.881C42.0302 125.881 34.3716 118.222 34.3716 108.81C34.3716 99.398 42.0302 91.7384 51.4406 91.7384Z" fill="#AEB6FF"/>
<path d="M46.5263 109.732C46.5263 110.709 45.9992 111.5 45.348 111.5C44.6969 111.5 44.1698 110.709 44.1698 109.732C44.1698 108.756 44.6969 107.965 45.348 107.965C45.9992 107.965 46.5263 108.756 46.5263 109.732Z" fill="#AEB6FF"/>
<path d="M58.2931 109.732C58.2931 110.709 57.766 111.5 57.1149 111.5C56.4638 111.5 55.9366 110.709 55.9366 109.732C55.9366 108.756 56.4638 107.965 57.1149 107.965C57.766 107.965 58.2931 108.756 58.2931 109.732Z" fill="#AEB6FF"/>
<path d="M51.2315 117.974C53.5027 117.974 55.3476 116.129 55.3476 113.857C55.3476 113.531 55.084 113.268 54.7584 113.268C54.4329 113.268 54.1693 113.531 54.1693 113.857C54.1693 115.477 52.8515 116.803 51.2237 116.803C49.5959 116.803 48.2781 115.485 48.2781 113.857C48.2781 113.531 48.0145 113.268 47.689 113.268C47.3634 113.268 47.0999 113.531 47.0999 113.857C47.0999 116.129 48.9525 117.974 51.2237 117.974H51.2315Z" fill="#AEB6FF"/>
<path d="M239.156 413.227L237.349 417.459L237.636 417.582L239.443 413.349L239.156 413.227Z" fill="#AEB6FF"/>
<path d="M238.058 412.327L234.493 415.237L234.69 415.478L238.255 412.568L238.058 412.327Z" fill="#AEB6FF"/>
<path d="M237.508 410.993L233 411.917L233.063 412.223L237.571 411.298L237.508 410.993Z" fill="#AEB6FF"/>
<path d="M233.205 408.265L233.119 408.565L237.539 409.845L237.626 409.545L233.205 408.265Z" fill="#AEB6FF"/>
<path d="M238.203 408.567L234.882 405.381L235.103 405.16L238.418 408.346L238.203 408.567Z" fill="#AEB6FF"/>
<path d="M238.213 403.292L237.917 403.391L239.375 407.756L239.671 407.657L238.213 403.292Z" fill="#AEB6FF"/>
<path d="M241.532 403L240.793 407.543L241.101 407.593L241.839 403.05L241.532 403Z" fill="#AEB6FF"/>
<path d="M242.402 408.229L242.149 408.04L244.911 404.361L245.164 404.549L242.402 408.229Z" fill="#AEB6FF"/>
<path d="M247.267 407.103L243.11 409.077L243.244 409.359L247.401 407.385L247.267 407.103Z" fill="#AEB6FF"/>
<path d="M243.458 410.491L243.445 410.803L248.043 410.987L248.056 410.675L243.458 410.491Z" fill="#AEB6FF"/>
<path d="M243.124 411.875L242.969 412.146L246.955 414.446L247.11 414.175L243.124 411.875Z" fill="#AEB6FF"/>
<path d="M242.21 412.992L241.946 413.158L244.406 417.048L244.67 416.881L242.21 412.992Z" fill="#AEB6FF"/>
<path d="M240.874 413.494L240.563 413.519L240.935 418.106L241.246 418.081L240.874 413.494Z" fill="#AEB6FF"/>
<path d="M313.274 30.7161L309.971 38.4521L310.497 38.6768L313.8 30.9407L313.274 30.7161Z" fill="#AEB6FF"/>
<path d="M311.233 29.0048L304.717 34.3235L305.079 34.7667L311.594 29.448L311.233 29.0048Z" fill="#AEB6FF"/>
<path d="M310.239 26.6006L302 28.2905L302.115 28.8509L310.354 27.1609L310.239 26.6006Z" fill="#AEB6FF"/>
<path d="M302.39 21.6275L302.231 22.177L310.31 24.5153L310.469 23.9658L302.39 21.6275Z" fill="#AEB6FF"/>
<path d="M305.834 15.9343L305.438 16.3469L311.505 22.1722L311.901 21.7595L305.834 15.9343Z" fill="#AEB6FF"/>
<path d="M311.534 12.5173L310.991 12.6985L313.656 20.6768L314.198 20.4956L311.534 12.5173Z" fill="#AEB6FF"/>
<path d="M317.592 12L316.245 20.303L316.809 20.3946L318.157 12.0917L317.592 12Z" fill="#AEB6FF"/>
<path d="M319.193 21.5586L318.731 21.2141L323.788 14.4861L324.243 14.8306L319.193 21.5586Z" fill="#AEB6FF"/>
<path d="M328.102 19.565L320.504 23.1731L320.749 23.6898L328.347 20.0818L328.102 19.565Z" fill="#AEB6FF"/>
<path d="M321.148 25.7031L321.125 26.2747L329.529 26.6108L329.552 26.0392L321.148 25.7031Z" fill="#AEB6FF"/>
<path d="M320.579 28.2853L320.293 28.7808L327.578 32.9853L327.864 32.4898L320.579 28.2853Z" fill="#AEB6FF"/>
<path d="M318.847 30.2598L318.364 30.5657L322.86 37.6741L323.344 37.3683L318.847 30.2598Z" fill="#AEB6FF"/>
<path d="M316.399 31.2041L315.829 31.2502L316.508 39.6344L317.078 39.5883L316.399 31.2041Z" fill="#AEB6FF"/>
<path d="M56.1608 9.55085C56.1608 10.2334 55.8943 10.8899 55.4134 11.3775C54.9194 11.8715 54.2694 12.138 53.574 12.138H49.1673V16.5454C49.1673 17.2279 48.9008 17.8845 48.4198 18.372C47.4384 19.3471 45.7355 19.3471 44.754 18.372C44.2731 17.878 43.9936 17.2279 43.9936 16.5454V12.138H39.5868C38.9044 12.138 38.2479 11.8715 37.7605 11.3775C37.2665 10.8834 37 10.2334 37 9.55085C37 8.8683 37.2795 8.20525 37.7605 7.72421C38.2414 7.24317 38.9044 6.96365 39.5868 6.96365H43.9936V2.56282C43.9936 1.88027 44.2731 1.21722 44.754 0.736181C45.7355 -0.245394 47.4384 -0.245394 48.4133 0.736181C48.9073 1.21722 49.1738 1.88027 49.1738 2.56282V6.97015H53.5805C54.2759 6.97015 54.9259 7.23667 55.4199 7.73071C55.9008 8.21175 56.1673 8.8748 56.1673 9.55735L56.1608 9.55085Z" fill="#AEB6FF"/>
<path d="M320.666 3H254.28C250.259 3 247 6.25961 247 10.2805V59.7168C247 63.7377 250.259 66.9973 254.28 66.9973H320.666C324.687 66.9973 327.946 63.7377 327.946 59.7168V10.2805C327.946 6.25961 324.687 3 320.666 3Z" fill="#6E61F4"/>
<path d="M309.312 12.7183H266.629C266.018 12.7183 265.511 12.2178 265.511 11.6003C265.511 10.9892 266.011 10.4822 266.629 10.4822H309.312C309.923 10.4822 310.43 10.9827 310.43 11.6003C310.43 12.2113 309.929 12.7183 309.312 12.7183Z" fill="#AEB6FF"/>
<path d="M312.568 29.2426H297.905C297.671 29.2426 297.476 29.0476 297.476 28.8136C297.476 28.5795 297.671 28.3845 297.905 28.3845H312.568C312.802 28.3845 312.997 28.5795 312.997 28.8136C312.997 29.0476 312.802 29.2426 312.568 29.2426Z" fill="#AEB6FF"/>
<path d="M312.633 32.0182H297.97C297.736 32.0182 297.541 31.8232 297.541 31.5892C297.541 31.3552 297.736 31.1602 297.97 31.1602H312.633C312.867 31.1602 313.062 31.3552 313.062 31.5892C313.062 31.8232 312.867 32.0182 312.633 32.0182Z" fill="#AEB6FF"/>
<path d="M312.893 46.6379H298.23C297.996 46.6379 297.801 46.4428 297.801 46.2088C297.801 45.9748 297.996 45.7798 298.23 45.7798H312.893C313.127 45.7798 313.322 45.9748 313.322 46.2088C313.322 46.4428 313.127 46.6379 312.893 46.6379Z" fill="#AEB6FF"/>
<path d="M312.964 49.4069H298.301C298.067 49.4069 297.872 49.2119 297.872 48.9779C297.872 48.7438 298.067 48.5488 298.301 48.5488H312.964C313.198 48.5488 313.393 48.7438 313.393 48.9779C313.393 49.2119 313.198 49.4069 312.964 49.4069Z" fill="#AEB6FF"/>
<path d="M312.73 53.6908H298.067C297.833 53.6908 297.638 53.4958 297.638 53.2618C297.638 53.0278 297.833 52.8328 298.067 52.8328H312.73C312.964 52.8328 313.159 53.0278 313.159 53.2618C313.159 53.4958 312.964 53.6908 312.73 53.6908Z" fill="#AEB6FF"/>
<path d="M312.795 56.4665H298.132C297.898 56.4665 297.703 56.2715 297.703 56.0374C297.703 55.8034 297.898 55.6084 298.132 55.6084H312.795C313.029 55.6084 313.224 55.8034 313.224 56.0374C313.224 56.2715 313.029 56.4665 312.795 56.4665Z" fill="#AEB6FF"/>
<path d="M305.236 35.1903H298.035C297.801 35.1903 297.606 34.9953 297.606 34.7613C297.606 34.5273 297.801 34.3323 298.035 34.3323H305.236C305.47 34.3323 305.665 34.5273 305.665 34.7613C305.665 34.9953 305.47 35.1903 305.236 35.1903Z" fill="#AEB6FF"/>
<path d="M305.236 38.6227H298.035C297.801 38.6227 297.606 38.4277 297.606 38.1937C297.606 37.9597 297.801 37.7646 298.035 37.7646H305.236C305.47 37.7646 305.665 37.9597 305.665 38.1937C305.665 38.4277 305.47 38.6227 305.236 38.6227Z" fill="#AEB6FF"/>
<path d="M267.714 46.8002L267.48 29.8599C267.48 28.2933 266.18 27.0127 264.588 27.0127C263.307 27.0127 262.196 27.8318 261.826 29.0084C260.415 29.1644 259.317 30.3475 259.317 31.7711C259.317 31.8491 259.317 31.9271 259.33 32.0051C258.205 32.5316 257.432 33.6497 257.432 34.9498C257.432 35.4243 257.536 35.8924 257.737 36.3149C256.944 36.8544 256.457 37.7515 256.457 38.7071C256.457 39.4026 256.704 40.0397 257.12 40.5402C256.697 40.9822 256.463 41.5608 256.463 42.1783C256.463 43.1989 257.113 44.07 258.03 44.421C257.809 44.811 257.692 45.2466 257.692 45.7016C257.692 47.1577 258.894 48.3473 260.383 48.3473C260.532 48.3473 260.682 48.3343 260.825 48.3083C261.416 49.5499 262.677 50.356 264.1 50.356C266.096 50.356 267.721 48.7568 267.721 46.7937L267.714 46.8002ZM264.094 49.3744C262.95 49.3744 261.949 48.6528 261.605 47.5803C261.566 47.4502 261.468 47.3462 261.345 47.2812C261.221 47.2227 261.078 47.2162 260.948 47.2617C260.76 47.3267 260.565 47.3657 260.37 47.3657C259.447 47.3657 258.693 46.6247 258.693 45.7081C258.693 45.2466 258.894 44.8045 259.239 44.486C259.336 44.4015 259.395 44.252 259.401 44.122C259.408 43.9855 259.362 43.849 259.265 43.7515C259.167 43.654 259.037 43.5955 258.894 43.5955C258.101 43.5955 257.458 42.9649 257.458 42.1848C257.458 41.8078 257.607 41.4633 257.867 41.1968C258.316 41.4633 258.836 41.6193 259.395 41.6193C259.674 41.6193 259.902 41.3983 259.902 41.1253C259.902 40.8522 259.674 40.6312 259.395 40.6312C258.322 40.6312 257.445 39.7732 257.445 38.7136C257.445 38.031 257.822 37.3875 258.4 37.0624L258.628 36.952C258.758 36.8869 258.855 36.7699 258.888 36.6334C258.927 36.4969 258.901 36.3474 258.816 36.2304C258.556 35.8534 258.42 35.4113 258.42 34.9563C258.42 33.7017 259.453 32.6876 260.727 32.6876C262.001 32.6876 263.035 33.7082 263.035 34.9563C263.035 35.2293 263.262 35.4503 263.541 35.4503C263.821 35.4503 264.048 35.2293 264.048 34.9563C264.048 33.1557 262.56 31.693 260.734 31.693C260.591 31.693 260.454 31.7061 260.311 31.7191C260.337 30.757 261.143 29.9769 262.131 29.9769C262.716 29.9769 263.268 30.2564 263.613 30.7245C263.775 30.9455 264.087 30.9975 264.315 30.835C264.542 30.6725 264.594 30.367 264.432 30.1459C264.048 29.6194 263.483 29.2424 262.859 29.0799C263.158 28.4363 263.821 28.0008 264.575 28.0008C265.615 28.0008 266.46 28.8328 266.46 29.8599L266.661 44.304C266.453 44.0895 266.213 43.9075 265.953 43.7515C265.712 43.6084 265.407 43.6865 265.264 43.9205C265.121 44.1545 265.199 44.46 265.433 44.603C266.213 45.0711 266.7 45.9096 266.7 46.8067C266.7 48.2238 265.53 49.3744 264.087 49.3744H264.094Z" fill="#AEB6FF"/>
<path d="M261.78 39.7926C262.32 39.7926 262.82 39.5781 263.171 39.1881C263.412 38.9216 263.555 38.603 263.594 38.2715C263.724 38.2585 263.853 38.239 263.983 38.2065C264.36 38.1155 264.711 37.953 265.017 37.7255C265.238 37.563 265.283 37.2509 265.121 37.0299C264.952 36.8089 264.64 36.7634 264.412 36.9324C264.211 37.0819 263.983 37.1859 263.743 37.2444C263.256 37.3614 262.755 37.2834 262.333 37.0299C261.904 36.7764 261.605 36.3734 261.488 35.8988C261.436 35.6778 261.416 35.4568 261.449 35.2358C261.481 34.9627 261.286 34.7157 261.007 34.6832C260.727 34.6507 260.48 34.8457 260.448 35.1123C260.402 35.4503 260.428 35.7948 260.513 36.1328C260.695 36.8674 261.163 37.4849 261.819 37.875C262.066 38.018 262.326 38.1285 262.593 38.1935C262.573 38.3105 262.515 38.4275 262.424 38.5315C262.235 38.746 261.943 38.837 261.631 38.7915C261.358 38.7525 261.098 38.9345 261.052 39.2011C261.007 39.4741 261.195 39.7276 261.475 39.7666C261.579 39.7796 261.683 39.7926 261.787 39.7926H261.78Z" fill="#AEB6FF"/>
<path d="M273.609 39.2923C273.401 39.1102 273.083 39.1297 272.901 39.3377C272.719 39.5458 272.738 39.8578 272.946 40.0398C273.109 40.1828 273.18 40.4038 273.148 40.6314C273.102 40.9109 272.914 41.1449 272.621 41.2684C272.368 41.3789 272.251 41.6714 272.361 41.9184C272.446 42.107 272.628 42.2175 272.823 42.2175C272.888 42.2175 272.959 42.2045 273.024 42.1785C273.629 41.9184 274.045 41.3984 274.142 40.7874C274.233 40.2218 274.032 39.6628 273.609 39.2987V39.2923Z" fill="#AEB6FF"/>
<path d="M265.387 42.2369C265.491 41.9834 265.361 41.6973 265.101 41.5933C264.796 41.4763 264.477 41.4178 264.146 41.4243C263.431 41.4373 262.768 41.7428 262.281 42.2889C261.8 42.8219 261.546 43.524 261.559 44.2585C261.559 44.629 261.637 44.9931 261.78 45.3311C261.858 45.5261 262.047 45.6431 262.248 45.6431C262.313 45.6431 262.378 45.6301 262.437 45.6041C262.696 45.5001 262.82 45.2141 262.716 44.9606C262.625 44.7331 262.573 44.499 262.573 44.2455C262.567 43.758 262.729 43.2965 263.047 42.9454C263.346 42.6074 263.749 42.4254 264.178 42.4124C264.373 42.4124 264.562 42.4449 264.744 42.5164C265.004 42.6139 265.296 42.4904 265.4 42.2369H265.387Z" fill="#AEB6FF"/>
<path d="M279.836 42.0744C279.823 41.4569 279.576 40.8848 279.147 40.4493C279.563 39.9227 279.784 39.2792 279.771 38.5966C279.751 37.6476 279.251 36.7635 278.439 36.2305C278.627 35.8014 278.725 35.3334 278.712 34.8589C278.686 33.5588 277.88 32.4602 276.749 31.9596C276.749 31.8816 276.755 31.7971 276.749 31.7191C276.716 30.289 275.598 29.1384 274.181 29.0084C273.785 27.8448 272.654 27.0518 271.373 27.0778C269.775 27.1103 268.507 28.4169 268.54 29.977L268.683 46.8913C268.683 46.8913 268.683 46.9173 268.683 46.9303C268.728 48.8674 270.34 50.4145 272.303 50.4145C272.303 50.4145 272.355 50.4145 272.381 50.4145C273.804 50.382 275.046 49.55 275.611 48.2954C275.761 48.3149 275.904 48.3214 276.06 48.3214C277.542 48.2889 278.718 47.0798 278.686 45.6172C278.673 45.1686 278.549 44.7331 278.322 44.3496C278.634 44.2261 278.92 44.031 279.154 43.7905C279.608 43.329 279.849 42.718 279.829 42.0744H279.836ZM278.432 43.1015C278.166 43.3745 277.808 43.5305 277.425 43.537C277.288 43.537 277.158 43.615 277.061 43.7125C276.97 43.8165 276.924 43.9595 276.937 44.0961C276.95 44.2261 277.009 44.3431 277.106 44.4276C277.464 44.7331 277.672 45.1751 277.678 45.6367C277.698 46.5467 276.963 47.3073 276.034 47.3268C275.897 47.3268 275.767 47.3138 275.637 47.2878C274.974 47.1058 274.513 46.5077 274.513 45.8317C274.513 45.4807 274.636 45.1361 274.87 44.8631C275.046 44.6551 275.02 44.3431 274.805 44.1676C274.591 43.9921 274.272 44.0245 274.097 44.2326C273.72 44.6811 273.512 45.2466 273.512 45.8317C273.512 46.6963 273.967 47.4828 274.675 47.9378C274.259 48.8154 273.375 49.4005 272.368 49.42C270.925 49.4655 269.736 48.3279 269.697 46.9173V46.8913C269.684 46.0072 270.152 45.1621 270.912 44.6811C271.146 44.5316 271.218 44.2261 271.068 43.9985C270.919 43.771 270.607 43.6995 270.373 43.849C270.113 44.0115 269.879 44.2001 269.677 44.4211L269.554 29.9705C269.541 29.4764 269.729 29.0084 270.074 28.6444C270.425 28.2869 270.893 28.0853 271.393 28.0723C272.14 28.0463 272.816 28.4689 273.128 29.1124C272.504 29.2879 271.952 29.678 271.575 30.211C271.419 30.4385 271.477 30.744 271.705 30.9001C271.932 31.0561 272.251 30.9976 272.407 30.77C272.738 30.2955 273.284 30.003 273.869 29.99C274.844 29.9575 275.683 30.731 275.728 31.6931C275.592 31.6801 275.449 31.6736 275.306 31.6736C274.422 31.6931 273.596 32.0506 272.979 32.6812C272.368 33.3117 272.043 34.1373 272.056 35.0084C272.056 35.2814 272.29 35.4894 272.569 35.4959C272.849 35.4959 273.07 35.2619 273.063 34.9889C273.05 34.3843 273.278 33.8058 273.707 33.3702C274.136 32.9347 274.708 32.6812 275.325 32.6682C275.949 32.6552 276.528 32.8762 276.97 33.2987C277.418 33.7148 277.665 34.2803 277.685 34.8914C277.698 35.3464 277.568 35.7949 277.314 36.1785C277.236 36.2955 277.21 36.445 277.249 36.5815C277.288 36.718 277.386 36.835 277.522 36.8935L277.724 36.9845C278.335 37.3095 278.725 37.9401 278.744 38.6291C278.757 39.1427 278.562 39.6237 278.205 39.9942C277.847 40.3648 277.36 40.5728 276.84 40.5858C276.56 40.5858 276.339 40.8198 276.346 41.0928C276.346 41.3658 276.58 41.5804 276.853 41.5804C276.853 41.5804 276.859 41.5804 276.866 41.5804C277.412 41.5674 277.938 41.4114 278.387 41.1318C278.653 41.3918 278.809 41.7364 278.816 42.1069C278.822 42.4839 278.686 42.8415 278.419 43.1145L278.432 43.1015Z" fill="#AEB6FF"/>
<path d="M275.345 35.1123C275.072 35.1123 274.831 35.3138 274.818 35.5868C274.812 35.7819 274.76 35.9639 274.682 36.1329C274.5 36.5099 274.162 36.7959 273.726 36.9259C273.278 37.0624 272.777 37.0234 272.329 36.8154C272.101 36.7114 271.9 36.5684 271.725 36.3929C271.53 36.1979 271.211 36.1849 271.01 36.3734C270.808 36.5619 270.802 36.8739 270.99 37.0755C271.244 37.342 271.549 37.5565 271.894 37.7125C272.303 37.901 272.745 37.9985 273.18 37.9985C273.466 37.9985 273.746 37.9595 274.019 37.875C274.727 37.6605 275.286 37.1925 275.592 36.5554C275.728 36.2629 275.813 35.9509 275.826 35.6323C275.839 35.3593 275.624 35.1253 275.345 35.1123Z" fill="#AEB6FF"/>
<path d="M288.273 17.9316H287.675V56.5576H288.273V17.9316Z" fill="#AEB6FF"/>
<defs>
<clipPath id="clip0_411_209">
<rect width="367" height="278" fill="white" transform="translate(3 101)"/>
</clipPath>
</defs>
</svg>
