<svg xmlns="http://www.w3.org/2000/svg" enable-background="new 0 0 700 700" viewBox="0 0 700 700"><line x1="380.175" x2="375.097" y1="252.679" y2="254.349" fill="#fff"/><path d="M374.7646484,254.4586029c-0.0605469-0.1835938,0.0390625-0.3813477,0.2226563-0.4418945l5.078125-1.6704102             c0.1816406-0.0595703,0.3818359,0.0395508,0.4414063,0.2231445             c0.0605469,0.1835938-0.0390625,0.3813477-0.2226563,0.4418945l-5.078125,1.6704102             C375.0190735,254.7423859,374.8235779,254.6401672,374.7646484,254.4586029z" class="color000000 svgShape"/><line x1="386.675" x2="376.647" y1="245.869" y2="248.654" fill="#fff"/><path d="M376.3105469,248.7481537c-0.0517578-0.1865234,0.0566406-0.3793945,0.2431641-0.4311523l10.0273438-2.7851563             c0.1865234-0.0478516,0.3798828,0.0576172,0.4306641,0.2436523             c0.0517578,0.1865234-0.0566406,0.3793945-0.2431641,0.4311523l-10.0273438,2.7851563             C376.5446777,249.0440063,376.3601074,248.926651,376.3105469,248.7481537z" class="color000000 svgShape"/><line x1="383.098" x2="375.357" y1="241.331" y2="243.645" fill="#fff"/><path d="M375.0214844,243.7447357c-0.0556641-0.1850586,0.0498047-0.3798828,0.234375-0.4355469l7.7412109-2.3139648             c0.1865234-0.0537109,0.3808594,0.0498047,0.4355469,0.2353516             c0.0556641,0.1850586-0.0498047,0.3798828-0.234375,0.4355469l-7.7412109,2.3139648             C375.2609558,244.0361023,375.0739441,243.9220886,375.0214844,243.7447357z" class="color000000 svgShape"/><path d="M360.4472656,261.8052979c-1.6220703,0-3.4931641-0.2358398-5.7216797-0.9150391              c-0.1279297-0.0390625-0.2226563-0.1484375-0.2431641-0.2807617l-2.8896484-18.4780426              c-0.0253906-0.1635742,0.0664063-0.3222656,0.2207031-0.3813477              c0.1132813-0.0429688,11.3574219-4.3603516,14.6240234-8.3955078              c0.8154297-1.0058594,1.7333984-1.4741211,2.5878906-1.3188477              c0.7744141,0.1401367,1.4013672,0.7700195,1.7216797,1.7285156              c0.421875,1.2617188,0.3261719,3.331543-1.1181641,5.3896484              c4.2109375-1.3969727,17.2226563-5.4604492,19.5390625-3.1435547              c0.5791016,0.5839844,0.6005859,1.1484375,0.5175781,1.519043              c-0.2060547,0.9130859-1.2910156,1.8442383-3.2958984,2.8198242              c3.0263672-0.4501953,4.8828125-0.2939453,5.6425781,0.4672852              c0.4599609,0.4633789,0.6347656,0.96875,0.5195313,1.5029297              c-0.2285156,1.0581055-1.6396484,2.1396484-4.2998047,3.2895508              c0.6484375,0.1083984,1.1191406,0.3129883,1.4248047,0.6162109              c0.5976563,0.5996094,0.6074219,1.1801758,0.5117188,1.5620117              c-0.3945313,1.5566406-3.4941406,3.2426758-9.2177734,5.0146484              c0.5429688,0.5668945,0.7275391,1.1708984,0.5458984,1.793457              c-0.8095703,2.7871246-9.3740234,5.0254059-15.7460938,6.4663239              C363.967865,261.469574,362.4461975,261.8052979,360.4472656,261.8052979z M355.1396484,260.2833252              c4.7265625,1.3959961,7.6542969,0.7333984,10.2441406,0.1484375l0.2324219-0.0527344              c9.5820313-2.1669922,14.7060547-4.1787109,15.2285156-5.9785309              c0.1113281-0.3823242-0.0253906-0.7597656-0.4169922-1.152832              c-0.0878906-0.0898438-0.2197266-0.1728516-0.3925781-0.2480469              c-0.1347656-0.0585938-0.21875-0.1948242-0.2099609-0.3417969              c0.0087891-0.1464844,0.1083984-0.2719727,0.2490234-0.3144531              c7.7568359-2.3261719,9.2412109-3.9604492,9.4355469-4.7280273              c0.0488281-0.1938477,0.0683594-0.4975586-0.3271484-0.8945313c-0.2519531-0.2490234-0.8867188-0.5400391-2.5-0.5014648              c-0.0019531,0-0.0048828,0-0.0078125,0c-0.1669922,0-0.3115234-0.1181641-0.34375-0.2827148              c-0.0322266-0.1674805,0.0595703-0.3339844,0.21875-0.3945313              c4.3515625-1.65625,5.1992188-2.8227539,5.3173828-3.3706055c0.0625-0.2915039-0.0458984-0.5732422-0.3310547-0.8613281              c-0.4589844-0.4594727-2.1552734-1.0229492-8.3623047,0.3623047              c-0.1767578,0.0366211-0.3613281-0.0664063-0.4121094-0.2441406              c-0.0517578-0.1772461,0.0429688-0.3642578,0.2167969-0.4267578              c4.9326172-1.7822266,5.8916016-3.0366211,6.0234375-3.6254883              c0.0429688-0.1884766,0.0546875-0.4838867-0.3300781-0.871582              c-1.7460938-1.7470703-12.8925781,1.2553711-19.9599609,3.6977539              c-0.1484375,0.0527344-0.3193359-0.0048828-0.4072266-0.1391602s-0.0732422-0.3115234,0.0361328-0.4291992              c1.96875-2.1259766,2.1689453-4.371582,1.7421875-5.6479492              c-0.2363281-0.7084961-0.6679688-1.168457-1.1826172-1.2617188              c-0.5888672-0.1044922-1.2714844,0.2739258-1.9179688,1.0708008              c-3.1386719,3.8764648-12.8769531,7.8110352-14.6542969,8.5068359L355.1396484,260.2833252z" class="color000000 svgShape"/><path d="M363.7978516,245.713974c-0.0556641-0.1850586,0.0488281-0.3803711,0.2333984-0.4365234              c2.1962891-0.6650391,3.6015625-1.6381836,4.1748047-2.8916016              c0.5683594-1.2402344,0.1054688-2.3110352,0.0859375-2.355957c-0.078125-0.1762695,0-0.3833008,0.1767578-0.4624023              c0.1689453-0.0771484,0.3798828-0.0024414,0.4609375,0.1743164              c0.0253906,0.0556641,0.6142578,1.387207-0.0800781,2.9204102              c-0.6572266,1.4511719-2.2099609,2.5566406-4.6152344,3.2851563              C364.0444336,246.004364,363.8528442,245.8946991,363.7978516,245.713974z" class="color000000 svgShape"/><path fill="#20a4fb" d="M363.3930969,265.2830811c-7.6817017,3.835968-14.7557983,6.8945618-21.2718506,9.2861328           c-12.6334839,4.652832-23.1747742,6.8147888-31.9524231,7.3927307           c-1.9527893,0.129425-3.815918,0.1790466-5.5993958,0.1590881           c-19.4185791-0.209198-28.9136658-8.6381531-33.1680603-12.7232056           c-1.1057739-1.065918-1.8530273-1.8330994-2.3313904-2.0919189l2.2617188-34.8420715           c34.5927124,21.2222443,61.8225098,11.2982941,84.499115,2.6105194L363.3930969,265.2830811z" class="colored6d4f svgShape"/><path fill="#ff7676" d="M376.3917847,357.566864c-1.9690857,9.6596375-10.3703308,15.3199158-18.5015564,15.2807312             c-11.1454773-0.0537109-18.9871826-9.1776123-18.9406128-18.8511047             c0.0600281-12.4680481,11.3989563-20.8650513,22.5307922-18.6009216             C372.1932983,337.5834961,378.3737488,347.841217,376.3917847,357.566864z" class="colorffc176 svgShape"/><path fill="#ff7676" d="M452.0814209,241.0014038c-4.7919617,23.4920959-20.1928101,33.1734924-40.1923523,43.240509             c-19.5623169,9.8965454-29.4400635,16.9004211-32.5446167,32.1423645             c-0.7004395,3.4266052-2.7050171,6.1126709-5.9631042,7.99823             c-3.2838135,1.8860168-6.7870483,2.3923035-10.5294495,1.6390991             c-3.9692993-0.8138428-7.0684204-2.7197266-9.2069397-5.6773376             c-2.1270142-2.9301453-2.901001-6.157959-2.1967163-9.6368713             c1.8235168-8.9437561,5.0589905-16.5928955,9.6351318-22.7169495             c9.2971191-12.4625854,18.5986938-18.0048218,34.8102112-26.4077454             c12.2060547-6.1584167,24.8443604-12.4169006,27.3997803-24.904541             c4.8088379-23.6356506-11.2617493-34.7123413-34.8047791-39.5079651             c-12.551178-2.5696259-27.0075989-2.4398193-39.1386414,1.9941101             c-16.8461609,6.9092102-28.112793-17.9030609-8.2592163-24.91539             c16.8069458-6.4069519,33.3105164-8.0726929,55.2608643-3.6165619             C434.098175,178.3224182,459.6413574,203.8511353,452.0814209,241.0014038z" class="colorffc176 svgShape"/><path fill="#ff7676" d="M173.3817444,227.2926636c0.4468536,3.2488556-1.7122955,6.2910309-5.1384277,6.7782745             c-3.1295319,0.4318085-6.2249756-1.7595367-6.6826019-5.1509552             c-0.4405212-3.1923523,1.8409424-6.2291718,5.0571747-6.6729279             C170.0363312,221.7782135,172.9540253,224.1841888,173.3817444,227.2926636z" class="colorffc176 svgShape"/><path fill="#ff7676" d="M183.2092438,183.8470306c1.6043396,11.6755219-8.0460663,15.7074127-12.6785278,23.650528             c-2.7730103,4.7708588,0.3096924,6.6800842-2.0464325,9.4299622             c-2.4570465,2.8485565-7.4646606,1.8372955-7.967041-1.7792358             c-0.7321472-5.3245239,0.722168-10.0607605,3.334198-13.666687             c4.937912-6.8336792,11.0946503-10.2961426,10.3268585-15.9099274             c-1.0407257-7.545639-6.9887543-9.1642914-14.5063019-8.129303             c-4.0085754,0.5478363-8.3030243,2.0992889-11.4541321,4.6901855             c-4.3167572,3.8394318-10.2398071-2.4012604-5.0687866-6.5594025             c4.3377075-3.6679382,9.0812378-5.8914337,16.0885468-6.8608856             C171.2892761,167.053421,181.5737305,171.9855957,183.2092438,183.8470306z" class="colorffc176 svgShape"/><path fill="#6685ff" d="M339.0879211,583.062439l-60.2792358,5.8331909               c-1.989563,0.1871948-3.8749695-0.947998-4.6353455-2.791748l-3.8748474-9.4473877l-4.6143494-11.2290649               l11.5827942-0.5l34.6864014-1.4790039l8.8955994,5.7600098l5.1872864-0.0203857l3.8956909-0.0213623               c3.3853149-0.0101318,6.6456299,1.2191772,9.1768494,3.4585571               c0.218689,0.177002,0.4269714,0.3748169,0.635376,0.583374l2.1248474,2.125               C344.5773315,578.0419312,342.910614,582.687561,339.0879211,583.062439z" class="color6680ff svgShape"/><path fill="#6685ff" d="M235.7163696,593.9471436l-58.5500946-15.4886475               c-1.927124-0.5106812-3.3020172-2.229248-3.3748779-4.229126               c-1.0567474-30.6175537-0.6917267-20.0413208-0.7707977-22.3325195l11.7703705,3.145752l31.3635101,8.3951416               l7.2810059,11.1771851l5.3540039,1.9581299l3.1768951,1.166748               c2.9374695,1.0726929,5.4165649,3.124939,7.0310211,5.7808838               c0.2812653,0.458252,0.5312347,0.9271851,0.7500763,1.4164429l1.2603302,2.729187               C242.601532,591.1559448,239.4246368,594.9267578,235.7163696,593.9471436z" class="color6680ff svgShape"/><path d="M304.5682068,282.1243591c-19.4160156-0.2080078-28.9157104-8.6453247-33.1655273-12.7284546              l13.7807617-20.5620575C285.1834412,248.833847,298.0684509,260.2399292,304.5682068,282.1243591z" class="color000000 svgShape"/><path d="M183.3876953,361.7609253c0,0,5.8963013,12.0916748,46.0191956,11.5662842              c41.2792969-0.5405579,9.1972351-31.9769897,9.1972351-31.9769897              C220.4745178,338.5690308,202.0663452,345.4710693,183.3876953,361.7609253z" class="color000000 svgShape"/><path fill="#fff" d="M254.145813,457.0788574c-8.1989288,34.1289368-32.850235,107.7096558-32.850235,107.7096558              l-48.2744751-12.6366577c0,0,13.2782135-55.8473816,21.4957275-88.99823              c8.4151917-33.9483337-16.2584534-91.4934998-2.0896149-131.0464172l64.1785583,19.2739258              C256.6057739,351.381134,261.9274902,424.6867676,254.145813,457.0788574z" class="colorffffff svgShape"/><path d="M221.2070313,565.1270752l-48.2744141-12.6367188c-0.1835938-0.0478516-0.2958984-0.234375-0.2519531-0.4194336              c0.1328125-0.5585938,13.3720703-56.2285156,21.4960938-89.0014648              c8.4185181-33.9639893-16.3176727-91.3332825-2.0791016-131.0805664              c0.0625-0.1748047,0.2490234-0.2700195,0.4296875-0.2172852l64.1787109,19.2739258              c0.1386719,0.0419922,0.2382813,0.1655273,0.2480469,0.3100586              c0.0537109,0.7333984,5.2373047,73.730957-2.46875,105.8046875l-0.3398438-0.081543l0.3398438,0.081543              c-8.1074219,33.753418-32.6113281,107.003418-32.8574219,107.7397461              C221.5708466,565.0701294,221.3914032,565.1746216,221.2070313,565.1270752z M173.4414063,551.9000244              l47.6259766,12.4672852c1.7548828-5.253418,24.90625-74.7685547,32.7382813-107.3701172l0,0              c7.4589844-31.0488281,2.7910156-100.6923828,2.4677734-105.3505859l-63.6279297-19.1083984              c-13.9233093,39.5273438,10.649292,96.6577759,2.2109375,130.6992188              C187.0615234,494.6837158,174.5566406,547.2130127,173.4414063,551.9000244z" class="color000000 svgShape"/><path fill="#ff8686" d="M213.7252655,383.7789612c0,5.1244812-4.1539917,9.2784729-9.2704773,9.2784729              c-5.1242981,0-9.270462-4.1539917-9.270462-9.2784729c0-5.1163025,4.1461639-9.2703857,9.270462-9.2703857              C209.5712738,374.5085754,213.7252655,378.6626587,213.7252655,383.7789612z" class="colorffa186 svgShape"/><path d="M205.2539825,375.490509c0,0,12.2983246,94.6668091,32.2428436,139.1961365l11.8954163-34.5022583              L205.2539825,375.490509z" class="color000000 svgShape"/><path fill="#ff8686" d="M217.8678436,464.5154114c0,5.1245117-4.154007,9.2785034-9.2704773,9.2785034              c-5.1243134,0-9.2704773-4.1539917-9.2704773-9.2785034c0-5.116272,4.1461639-9.2703552,9.2704773-9.2703552              C213.7138367,455.2450562,217.8678436,459.3991394,217.8678436,464.5154114z" class="colorffa186 svgShape"/><path d="M201.4277344,544.2296143c-0.1582031-0.1103516-0.1972656-0.328125-0.0869141-0.4868164              c0.1816406-0.2617188,18.1210938-26.6049805,14.0117188-66.7900391              c-4.1269531-40.3671875,2.9570313-97.4897461,3.0283203-98.0625              c0.0244141-0.190918,0.1943359-0.3320313,0.3916016-0.3032227              c0.1914063,0.0239258,0.3271484,0.1992188,0.3037109,0.390625              c-0.0722656,0.5717773-7.1455078,57.6166992-3.0263672,97.9038086              c4.1357422,40.4555664-13.9511719,66.9975586-14.1347656,67.2607422              C201.8078918,544.2982788,201.5908203,544.3422241,201.4277344,544.2296143z" class="color000000 svgShape"/><path fill="#fff" d="M319.5759277,562.5656128l-53.8899231,2.7229614              c0,0-62.8139801-172.5676575-67.4307861-227.2915039h67.0087891L319.5759277,562.5656128z" class="colorffffff svgShape"/><path d="M265.6855469,565.6387939c-0.1464844,0-0.2783203-0.0917969-0.3291016-0.2304688              c-0.6279297-1.7260742-62.8818359-173.237793-67.4501953-227.3818359              c-0.0182953-0.2033997,0.1440582-0.3793945,0.3486328-0.3793945h67.0087891              c0.1611328,0,0.3017578,0.1108398,0.3398438,0.2680664l54.3125,224.5683594              c0.0518494,0.2145386-0.1045837,0.4204102-0.3222656,0.4316406l-53.890625,2.7231445              C265.6972656,565.6383057,265.6914063,565.6387939,265.6855469,565.6387939z M198.6367188,338.34729              c4.7314453,53.5180664,64.6083984,219.1850586,67.2890625,226.5786133l53.2109375-2.6884766L264.9882813,338.34729              H198.6367188z" class="color000000 svgShape"/><path fill="#ff8686" d="M280.8606567,451.655426c0,5.1244812-4.1539917,9.2784729-9.2704773,9.2784729              c-5.1243286,0-9.2704773-4.1539917-9.2704773-9.2784729c0-5.1163025,4.1461487-9.2703857,9.2704773-9.2703857              C276.706665,442.3850403,280.8606567,446.5391235,280.8606567,451.655426z" class="colorffa186 svgShape"/><path d="M289.7275391,547.4454346c-0.1914063-0.0273438-0.3242188-0.2045898-0.296875-0.3959961              c3.0380859-21.0888672,0.3369141-42.6035156-7.8095703-62.2182617              c-3.7636719-9.0634766-8.7167969-17.7504883-13.5068359-26.1513672              c-2.0878906-3.6630859-4.2470703-7.4506836-6.28125-11.222168              c-15.9707031-29.6074219-26.2285156-61.5385742-30.4882813-94.9067383              c-0.0244141-0.1918945,0.1113281-0.3671875,0.3037109-0.3916016              c0.1962891-0.0268555,0.3662109,0.1113281,0.3916016,0.3027344              c4.2480469,33.2827148,14.4785156,65.1318359,30.4082031,94.6635742              c2.0302734,3.7641602,4.1884766,7.5478516,6.2744141,11.2075195              c4.8007813,8.4194336,9.7646484,17.1259766,13.5449219,26.2294922              c8.1953125,19.7314453,10.9111328,41.3735352,7.8564453,62.5864258              C290.0961914,547.34021,289.9187622,547.4735107,289.7275391,547.4454346z" class="color000000 svgShape"/><path fill="#20a4fb" d="M290.2865295,296.5750732c-3.3416443,34.4741211-16.3642578,68.6927795-16.3642578,68.6927795              c-4.8934326-2.6803894-10.3952026-4.6907043-16.2760925-6.1630554              c-38.3625641-9.6280518-74.2584839,2.8328552-74.2584839,2.8328552              c22.6969147-144.8638153,76.1540833-134.3816986,79.5662842-133.2884064              C288.8934326,237.0165253,293.1784668,266.8882446,290.2865295,296.5750732z" class="colored6d4f svgShape"/><path d="M225.2636719,552.7637939l-47.5078125-16.9829102c-0.1816406-0.0649414-0.2763672-0.265625-0.2109375-0.4472656              c0.0644531-0.1821289,0.2626953-0.2758789,0.4472656-0.2119141L225.5,552.1046143              c0.1816406,0.0649414,0.2763672,0.265625,0.2109375,0.4472656              C225.6482697,552.7284546,225.4532013,552.8301392,225.2636719,552.7637939z" class="color000000 svgShape"/><path fill="#fff" d="M367.3907166,295.6396484c4.2770996-0.2940369,8.0077515-1.3912354,8.2726135-0.6020508                c0.5675659,1.6909485-3.8040161,3.4310303-6.5841064,4.2182007                c2.7963257-0.0467224,5.3781433-0.2374878,5.3010864,0.6705322                c-0.2344055,2.7624817-20.0392151,7.0839233-20.0392151,7.0839233l-5.2440186-15.4213257                c1.8437805-3.0021362,11.1963196-10.4151611,13.4245911-8.8018799                c1.1248474,0.8122253-1.0411377,3.3068848-2.4744568,6.384552                c6.4888306-0.6075745,12.0444641-3.4341431,12.3088989-2.1067505                c0.3564148,1.7894287-3.2798767,3.8434448-6.6564331,5.1960754                c4.7325745-0.7276611,8.6495056-2.3514099,8.9745789-1.1315002                C375.0221863,292.4351501,370.5352783,294.5336914,367.3907166,295.6396484z" class="colorffffff svgShape"/><path d="M354.0097656,307.1231689l-5.2441406-15.4213867                c-0.0341797-0.0986328-0.0214844-0.2070313,0.0332031-0.2958984                c1.6269531-2.6494141,8.6679688-8.4160156,12.2080078-9.121582                c0.734375-0.1464844,1.3144531-0.0732422,1.7197266,0.2192383                c1.3646851,0.9848633-0.5988464,3.2931213-2.0898438,6.2539063                c2.8496094-0.3310547,5.53125-1.0732422,7.5253906-1.6245117                c2.4228516-0.6708984,3.6132813-0.9780273,4.2060547-0.6137695                c0.1767578,0.1088867,0.2910156,0.2739258,0.3310547,0.4775391                c0.3251953,1.628418-1.9873047,3.2358398-4.1875,4.371582c3.7472229-0.8261414,6.1446838-1.6687317,6.5-0.3286133                c0.3642578,1.3637695-2.7597656,2.9833984-5.1083984,3.9912109                c0.7363281-0.0957031,1.4296875-0.199707,2.0507813-0.2929688                c2.5175781-0.3779297,3.7871094-0.5693359,4.0410156,0.1884766                c0.1210938,0.3618164,0.0820313,0.7363281-0.1162109,1.1123047                c-0.6171875,1.1704102-2.7539063,2.1738281-4.4824219,2.8217773                c1.6943359-0.0161133,2.7060547,0.0644531,3.1298828,0.5151367                c0.1513672,0.1601563,0.2207031,0.3608398,0.2021484,0.5805664                c-0.2441406,2.8735352-16.9638672,6.6650391-20.3134766,7.3959961                C354.2541809,307.3907776,354.0695801,307.2996216,354.0097656,307.1231689z M349.4824219,291.635376                l5.0888672,14.9663086c8.0986328-1.7866211,19.3154297-4.9990234,19.4599609-6.7050781                c-0.3486328-0.3959961-2.2382813-0.3505859-3.9042969-0.3129883l-1.0419922,0.0224609                c-0.1650391,0.0185547-0.3271484-0.125-0.3525391-0.2988281                c-0.0253906-0.1743164,0.0820313-0.340332,0.2509766-0.3881836                c2.6826172-0.7597656,5.6640625-2.0463867,6.2763672-3.2070313                c0.1074219-0.203125,0.1308594-0.387207,0.0712891-0.5629883                c-0.2373047-0.175293-1.8505859,0.0673828-3.2734375,0.2807617                c-1.3125,0.1972656-2.9472656,0.4423828-4.6425781,0.559082                c-0.4239807,0.0249329-0.5094299-0.5493774-0.140625-0.6791992                c3.9707031-1.3964844,7.2705078-3.3076172,7.0615234-4.0898438                c-0.1942749-0.7220154-4.672699,0.7855835-8.5839844,1.3867188                c-0.1679688,0.0297852-0.34375-0.0820313-0.390625-0.253418s0.0429688-0.3510742,0.2080078-0.4169922                c4.1630859-1.6679688,6.6923828-3.5527344,6.4443359-4.8027344                c-0.2333984-0.2739258-2.1357422,0.2509766-3.6650391,0.6738281                c-2.1640625,0.5986328-5.1279297,1.418457-8.2695313,1.7128906                c-0.2576904,0.0306091-0.4657288-0.2460938-0.3496094-0.496582                c1.2731323-2.730835,3.3563232-5.3981934,2.5869141-5.9526367                c-0.2363281-0.1713867-0.6425781-0.2050781-1.1728516-0.1000977                C357.8769531,283.6217041,351.1728516,289.0762939,349.4824219,291.635376z" class="color000000 svgShape"/><path fill="#20a4fb" d="M232.9800873,274.9567261c26.2257538,49.9371643,76.9260101,67.1518555,126.7996674,34.6841431               l-6.6746216-32.6826172c-40.0197144,14.5723267-71.9075012,13.5266724-86.1767883-28.9499054" class="colored6d4f svgShape"/><path d="M286.9638672,323.4034424c-3.7783203-1.1303711-7.5214844-2.5791016-11.125-4.3066406               c-17.5488281-8.3994141-32.4775391-23.6069336-43.1699219-43.9780273               c-0.0898438-0.1708984-0.0244141-0.3828125,0.1464844-0.4726563               c0.1748047-0.0883789,0.3837891-0.0229492,0.4726563,0.1474609               c10.6230469,20.2363281,25.4414063,35.3378906,42.8535156,43.671875               c3.5703125,1.7119141,7.2792969,3.1474609,11.0234375,4.2670898               c0.1845703,0.0556641,0.2900391,0.2504883,0.234375,0.4355469               C287.347168,323.3447266,287.1607056,323.4596558,286.9638672,323.4034424z" class="color000000 svgShape"/><path d="M308.0789185,326.1973572c-11.2613831-0.068634-22.0788879-2.6174622-32.0886841-7.4161987               c0.0991516-0.2737427,0.1982422-0.5473022,0.3056335-0.8177795               c3.3702087-8.4899902,12.9832458-12.6328125,21.473114-9.2626343               C304.9477234,311.5504456,309.0322266,318.8730774,308.0789185,326.1973572z" class="color000000 svgShape"/><path d="M342.1212463,274.5692139c-12.6334839,4.652832-23.1747742,6.8147888-31.9524231,7.3927307               c-0.8768005-9.0769653,5.778656-17.137146,14.8553772-18.0240173               C332.6361084,263.2008972,339.5507202,267.7340088,342.1212463,274.5692139z" class="color000000 svgShape"/><path d="M347.5205078,316.5772705l-8.7773438-25.7626953c-0.0625-0.1831055,0.0351563-0.3818359,0.2177734-0.4443359               c0.1875-0.0625,0.3818359,0.0361328,0.4443359,0.21875l8.7773438,25.7626953               c0.0625,0.1831055-0.0351563,0.3818359-0.2177734,0.4443359               C347.7771606,316.8585815,347.5820923,316.7571716,347.5205078,316.5772705z" class="color000000 svgShape"/><path d="M346.2197266,292.6929932c-1.6871643-0.6690369-2.5185852-2.5888977-1.8476563-4.2783203               c0.6728516-1.6914063,2.5917969-2.5273438,4.28125-1.8544922               c1.6980896,0.6731567,2.5172729,2.5917358,1.84375,4.2856445c0,0,0,0,0,0.0004883               C349.8265381,292.53479,347.9080811,293.362915,346.2197266,292.6929932z M345.0224609,288.6734619               c-0.5273438,1.3295898,0.125,2.8408203,1.4550781,3.3691406               c1.3300781,0.5268555,2.8408203-0.1245117,3.3691406-1.4545898l0,0               c0.5276489-1.3301392-0.1065369-2.8434753-1.4511719-3.3774414               C347.0531311,286.6799011,345.5494385,287.3483887,345.0224609,288.6734619z" class="color000000 svgShape"/><path fill="#fff" d="M253.1026001,365.2678528c11.2046814,5.9692078,15.9284363,14.7297974,16.4650879,25.2938843" class="colorffffff svgShape"/><path d="M269.5673828,390.9117432c-0.1855469,0-0.3398438-0.1455078-0.3496094-0.3325195              c-0.5732422-11.293457-5.8984375-19.472168-16.2802734-25.0024414              c-0.1699219-0.0913086-0.234375-0.3032227-0.1435547-0.4736328              c0.0898438-0.1708984,0.3007813-0.2353516,0.4736328-0.1445313              c10.6162109,5.65625,16.0625,14.0249023,16.6494141,25.5854492              c0.0097656,0.1928711-0.1386719,0.3574219-0.3320313,0.3671875              C269.5791016,390.9117432,269.5732422,390.9117432,269.5673828,390.9117432z" class="color000000 svgShape"/><path d="M277.8787842,187.4789124c4.2976685,1.5721588,7.0738525,5.4913177,1.9078369,21.2033234               c-5.1659851,15.7119904-16.0508118-19.410202-16.0508118-19.410202S268.552002,184.0670319,277.8787842,187.4789124z" class="color000000 svgShape"/><path fill="#fff" d="M256.2389221,216.696228l2.0985413,11.8916016l15.7417603,6.0020142l-3.8694153-12.5320892               c-0.0210571,0.0000458-0.0420532,0.0106201-0.0525818,0.0106354               c0.010498-0.0105438,0.0315247-0.0105896,0.0525513-0.0211487               c7.6500854,0.3070679,8.3866272-4.6024628,9.9524231-9.5461884               c1.4821777,0.0492096,3.9968567-0.301178,4.5404053-1.028656               c1.0432434-1.3962097-1.9013977-4.2319031-2.8940735-6.342514               c-0.0537415-0.5149231-0.1074219-1.0403748-0.2136841-1.5657043               c-1.4150696-7.7435913-8.6038513-12.058548-16.0720825-9.645462               C256.1159363,196.9576416,251.4807434,208.7628326,256.2389221,216.696228z" class="colorffffff svgShape"/><path d="M273.9541016,234.917099l-15.7412109-6.0019531c-0.1142578-0.0439453-0.1982422-0.1450195-0.2197266-0.2661133               l-2.0878906-11.8286133c-4.831543-8.1539764-0.0463867-20.1470337,9.5097656-23.2348633               c3.6992188-1.1953125,7.4560547-0.8286133,10.5751953,1.0361328               c3.1318359,1.871582,5.2441406,5.0253906,5.9492188,8.8793945               c0.1064453,0.5249023,0.1611328,1.0522461,0.2138672,1.5620117               c0.2832031,0.5805664,0.8164063,1.3486328,1.3320313,2.0913086               c1.15625,1.6640625,2.3515625,3.3852539,1.4970703,4.5273438               c-0.640625,0.8583984-3.1357422,1.1733398-4.5566406,1.1733398c-0.0029297,0-0.0058594,0-0.0078125,0               c-0.109375,0.3500977-0.2148438,0.6992188-0.3193359,1.0458984               c-1.3212891,4.3725586-2.5722656,8.5097656-9.2177734,8.5102539c-0.0644531,0-0.1298828-0.0004883-0.1962891-0.0009766               l3.7285156,12.0766602C274.4987183,234.7594452,274.2337646,235.0203094,273.9541016,234.917099z                M258.6484375,228.3316498l14.8847656,5.675293l-3.6210938-11.7285156               c-0.0214844-0.0239258-0.0390625-0.0512695-0.0517578-0.081543               c-0.0956726-0.2289581,0.0087585-0.4149933,0.2294922-0.4775391               c0.0507813-0.0249023,0.0791016-0.0239258,0.1337891-0.0214844               c6.6962891,0.269043,7.8652344-3.5625,9.2050781-7.9990234               c0.1298828-0.4321289,0.2617188-0.8676758,0.3994141-1.3032227               c0.0478516-0.1499023,0.1865234-0.2646484,0.3457031-0.2441406               c1.5605469,0.0527344,3.8447266-0.347168,4.2480469-0.8886719               c0.5517578-0.7382813-0.5439453-2.3168945-1.5107422-3.7094727               c-0.5322266-0.7661133-1.0830078-1.5585938-1.4189453-2.2744141               c-0.0166016-0.0356445-0.0273438-0.0737305-0.03125-0.112793               c-0.0546875-0.5239258-0.1083984-1.0341797-0.2089844-1.5327148               c-0.6689453-3.6591797-2.6650391-6.644043-5.6201172-8.4111328               c-2.9443359-1.7597656-6.4970703-2.1035156-10.0019531-0.9707031               c-7.2832031,2.3535156-12.0771484,10.4101563-10.6865234,17.9594727               c0.0009766,0.0004883,0.0009766,0.0004883,0.0009766,0.0009766               c0.5046997,2.7818756,1.5965271,4.1915894,1.6396484,4.4233398L258.6484375,228.3316498z" class="color000000 svgShape"/><path d="M262.1601257,184.5460358c-8.0702972,1.1360168-19.1919403,9.3950348-19.7672577,16.5610809               c-0.399826,4.9813232,3.546463,10.0927429-1.3878021,16.6691742               c-3.4865112,4.6464081-8.4095154,7.9676208-13.2297058,11.2101135               c-4.820282,3.2419586-9.7319641,6.5873413-13.1791534,11.2630615               c-3.7356415,5.0666199-5.49823,11.549942-4.8424988,17.8105927               c0.655838,6.2605896,3.7235718,12.2376099,8.4280548,16.4205933               c2.9391327,2.6132507,6.9937897,4.6665955,10.9354706,1.6690674               c1.2447052-0.9465637,2.1762543-2.2599792,2.7669983-3.7078247               c1.8801117-4.6079407,0.7958069-9.4422302,1.0124817-14.2010803               c0.3841858-8.4394836,5.1587677-16.5588837,12.3475952-20.9964905               c4.6841736-2.8921967,10.5154114-4.5056,13.5919952-9.0708008               c2.1856079-3.2432098,2.5142822-7.4580383,1.7487183-11.292923               c-0.2584839-1.2948608-0.6363525-2.5559387-1.0819092-3.7958679               c8.1841125-4.3242645,17.7605591-18.245224,14.0388489-19.2074738               C273.5419617,193.8772583,278.5431213,182.2398376,262.1601257,184.5460358z" class="color000000 svgShape"/><path fill="#fff" d="M262.2187195,211.1620178c-0.6368103-2.1640015-2.9303589-3.4121399-5.0929871-2.7632751               c-2.1761932,0.6382141-3.4244385,2.9320831-2.7753143,5.0943604               c0.6382446,2.1763611,2.931778,3.4244843,5.1067657,2.7742004" class="colorffffff svgShape"/><path d="M258.2792969,216.7906342c-1.8910522,0-3.6890411-1.2344513-4.2646484-3.1987305               c-0.7041168-2.3440399,0.6435089-4.8344879,3.0126953-5.5292969               c2.3414917-0.7036591,4.834198,0.6446991,5.5273438,3.0009766               c0.0546875,0.1850586-0.0517578,0.3798828-0.2373047,0.4345703               c-0.1894531,0.0556641-0.3798828-0.0517578-0.4345703-0.2373047               c-0.5787964-1.9647217-2.6651917-3.1249847-4.65625-2.5268555               c-2.0090179,0.588501-3.1303253,2.6946411-2.5410156,4.6586914               c0.5840302,1.9907074,2.6767578,3.1354828,4.6708984,2.5390625               c0.1875-0.0546875,0.3808594,0.0498047,0.4355469,0.2353516               c0.0556641,0.1850586-0.0498047,0.3798828-0.234375,0.4355469               C259.1367188,216.7281342,258.7070313,216.7906342,258.2792969,216.7906342z" class="color000000 svgShape"/><path d="M277.6585999,204.0827484c0.1836243,0.5686951,0.79776,0.8830872,1.3599854,0.7015381               c0.5687561-0.18367,0.8829956-0.7978821,0.6993408-1.3665619               c-0.1836853-0.5688477-0.7956543-0.8765411-1.3644104-0.6928711               C277.7912903,202.9064178,277.474884,203.513916,277.6585999,204.0827484z" class="color000000 svgShape"/><path fill="#fff5f5" d="M278.5389709,199.8824615c-1.820343-0.2805939-3.5254822,0.9692078-3.8059998,2.7892914" class="colorfbfbfb svgShape"/><path d="M274.6796875,203.0176849c-0.1904297-0.0292969-0.3212891-0.2080078-0.2919922-0.3989258               c0.3077393-2.0032349,2.1804504-3.392807,4.2050781-3.0820313               c0.1904297,0.0292969,0.3212891,0.2080078,0.2919922,0.3989258               c-0.0283203,0.1904297-0.2021484,0.3251953-0.3994141,0.2924805               c-0.7822266-0.1201172-1.5751953,0.0708008-2.2197266,0.543457               c-0.6435547,0.4716797-1.0654297,1.1655273-1.1865234,1.9536133               C275.0499878,202.9160919,274.8704529,203.0478058,274.6796875,203.0176849z" class="color000000 svgShape"/><path d="M270.2098083,222.0577545c0,0-2.3193054,0.4483032-5.3082886-0.7761383               c1.8028564,1.8204956,3.792572,3.0241699,5.9328613,3.7308197               C270.769104,224.7037354,270.1859741,221.9449615,270.2098083,222.0577545z" class="color000000 svgShape"/><path d="M270.7246094,225.3448334c-2.2597656-0.746582-4.3027344-2.0302734-6.0722656-3.8168945               c-0.2689514-0.2711945,0.03479-0.7168121,0.3818359-0.5698242               c2.8447266,1.1645508,5.0869141,0.7607422,5.1103516,0.7558594               c0.1806641-0.0400391,0.3691406,0.0859375,0.4082031,0.2729492l0.6240234,2.953125               C271.2323303,225.208313,270.9758606,225.4285736,270.7246094,225.3448334z M266.3515625,222.1319427               c1.2285156,1.0102539,2.5712891,1.7944336,4.0107422,2.3417969l-0.4277344-2.0253906               C269.3398438,222.5118256,268.0263672,222.5630951,266.3515625,222.1319427z" class="color000000 svgShape"/><g class="color000000 svgShape"><path fill="#fff" d="M274.3689575,214.1960449c0,0,1.2445374,2.6329498,4.5370789,2.2435455" class="colorffffff svgShape"/><path d="M278.2597656,216.8287201c-2.9970703,0-4.1943359-2.456543-4.2070313-2.4833984              c-0.0820313-0.1743164-0.0078125-0.3818359,0.1660156-0.4648438              c0.1738281-0.0820313,0.3828125-0.0097656,0.4667969,0.1650391              c0.046875,0.0986328,1.1835938,2.4033203,4.1796875,2.0463867              c0.1835938-0.0214844,0.3662109,0.1142578,0.3886719,0.3066406              c0.0224609,0.1918945-0.1142578,0.3657227-0.3066406,0.3886719              C278.7080078,216.8155365,278.4794922,216.8287201,278.2597656,216.8287201z" class="color000000 svgShape"/></g><g class="color000000 svgShape"><path d="M315.9892578,547.9351807c-8.2785645-0.0716553-47.7142334-0.4128418-56.1542969-0.4858398              c-0.1933594-0.0019531-0.3486328-0.159668-0.3466797-0.3530273              c0.0009766-0.1923828,0.1572266-0.347168,0.3496094-0.347168c0.0009766,0,0.0019531,0,0.0029297,0l56.1513672,0.4858398              c0.1933594,0.0019531,0.3486328,0.159668,0.3466797,0.3530273              C316.3378906,547.7803955,316.1816406,547.9351807,315.9892578,547.9351807z" class="color000000 svgShape"/></g><g class="color000000 svgShape"><path d="M342.6201172,265.4488525c-0.1904297-0.0307617-0.3203125-0.2109375-0.2890625-0.4018555l4.328125-26.468277              c0.0322266-0.1899414,0.2050781-0.3217773,0.4023438-0.2885742              c0.1904297,0.0307617,0.3203125,0.2109375,0.2890625,0.4018555l-4.328125,26.468277              C342.9902039,265.3554382,342.8041077,265.4810486,342.6201172,265.4488525z" class="color000000 svgShape"/></g><g class="color000000 svgShape"><path d="M184.7909698,555.0426025v0.218689c0,5.9261475-5.1567993,10.7139893-11.3121185,9.9473877              l-0.458252-13.3118286L184.7909698,555.0426025z" class="color000000 svgShape"/></g><g class="color000000 svgShape"><path d="M277.4962158,567.0315552c0,4.5622559-3.041626,8.406311-7.1977234,9.624939l-4.6143494-11.2290649              l11.5827942-0.5C277.4233398,565.6044312,277.4962158,566.3128662,277.4962158,567.0315552z" class="color000000 svgShape"/></g><g class="color000000 svgShape"><path d="M281.4335938,581.9219971c-0.1826172,0-0.3359375-0.140625-0.3486328-0.324707              c-0.0146484-0.1928711,0.1308594-0.3603516,0.3232422-0.3745117l46.421875-3.3598633              c0.2226563-0.0161133,0.3613281,0.1313477,0.3740234,0.3237305              c0.0146484,0.1928711-0.1308594,0.3603516-0.3232422,0.3745117              C317.9069519,579.282959,291.4075317,581.2003174,281.4335938,581.9219971z" class="color000000 svgShape"/></g><g class="color000000 svgShape"><path d="M229.7050781,586.6685791l-46.5117188-13.331543c-0.1855469-0.0532227-0.2929688-0.2470703-0.2402344-0.4326172              c0.0537109-0.1865234,0.2460938-0.2939453,0.4335938-0.2402344l46.5117188,13.331543              c0.1855469,0.0532227,0.2929688,0.2470703,0.2402344,0.4326172              C230.0839691,586.6156616,229.8896637,586.7216797,229.7050781,586.6685791z" class="color000000 svgShape"/></g><g class="color000000 svgShape"><path d="M339.1087646,572.6252441c-1.395874,1.5105591-3.3957214,2.447937-5.6144104,2.447937              c-3.625,0-6.6560364-2.510498-7.4581299-5.8851318l3.8956909-0.0213623              C333.3172302,569.1565552,336.5775452,570.3858643,339.1087646,572.6252441z" class="color000000 svgShape"/></g><g class="color000000 svgShape"><path d="M238.997406,583.5206909c-1.0312042,0.6352539-2.2498322,1.0100708-3.5518799,1.0100708              c-3.7395477,0-6.7601776-3.0308228-6.7601776-6.7598877c0-0.4064331,0.0312805-0.8122559,0.1041412-1.1978149              l3.1768951,1.166748C234.9038544,578.8125,237.3829498,580.8647461,238.997406,583.5206909z" class="color000000 svgShape"/></g><g class="color000000 svgShape"><path d="M558.5146484,133.4971771h-9.1816406c-0.1826172,0-0.3339844-0.140625-0.3486328-0.3222656         c-0.0048828-0.0527344-0.4609375-5.28125-4.0292969-7.5874023c-2.1484375-1.3891602-5.0039063-1.4609375-8.4892578-0.2148438         c-0.1777344,0.0615234-0.3701172-0.0229492-0.4414063-0.1953125         c-5.8544922-14.0947266-15.3847656-19.4555664-21.7919922-18.46875         c-5.5078125,0.8500977-9.0644531,5.8710938-9.7578125,13.7758789         c-0.0206299,0.2466125-0.2892456,0.3963318-0.5117188,0.2788086c-3.5759277-1.8813782-5.632843-0.6432877-7.3291016,3.059082         c-0.1250305,0.269249-0.5484314,0.2768326-0.6513672-0.0375977         c-2.9335938-9.0112305-10.2802734-15.4619141-17.8662109-15.6865234         c-6.5380859-0.2001953-12.1660156,4.3549805-15.3554688,12.4833984         c-0.090332,0.2268906-0.3757324,0.2927628-0.5546875,0.137207c-2.75-2.3652344-5.7480469-3.1040039-8.6621094-2.1401367         c-4.5966797,1.5205078-8.5048828,7.1318359-10.1982422,14.6455078         c-0.0361328,0.159668-0.1777344,0.2729492-0.3417969,0.2729492h-10.7675781         c-0.1933594,0-0.3496094-0.1567383-0.3496094-0.3500977s0.15625-0.3500977,0.3496094-0.3500977h10.4892578         c1.7802734-7.6147461,5.8261719-13.3046875,10.5986328-14.8828125         c3.0273438-1.0009766,6.1191406-0.3237305,8.9648438,1.9628906         c3.3330078-8.1386719,9.1181641-12.6884766,15.8476563-12.4785156c7.6464844,0.2265625,15.0449219,6.5,18.2353516,15.3642578         c1.713562-3.2810059,4.005249-4.4711609,7.4541016-2.8496094         c0.8271484-7.8457031,4.6542969-13.0249023,10.2998047-13.8959961         c6.5957031-1.0268555,16.40625,4.371582,22.4169922,18.5869141c3.5605469-1.2084961,6.5195313-1.0751953,8.7949219,0.3974609         c3.3681641,2.1791992,4.1523438,6.5615234,4.3095703,7.7954102h8.8671875         c0.1933594,0,0.3496094,0.1567383,0.3496094,0.3500977S558.7080078,133.4971771,558.5146484,133.4971771z" class="color000000 svgShape"/></g><g class="color000000 svgShape"><path d="M326.140625,451.4302979c-0.1826172-0.0629883-0.2792969-0.262207-0.2167969-0.4448242         c0.0644531-0.1831055,0.2617188-0.2792969,0.4453125-0.2163086         c5.1231995,1.769989,10.7015991-0.9459534,12.4658203-6.0839844         c1.7597656-5.1259766-0.9716797-10.734375-6.0869141-12.5024414         c-0.1826172-0.0629883-0.2792969-0.262207-0.2167969-0.4448242c0.0644531-0.1831055,0.2617188-0.2797852,0.4453125-0.2163086         c5.4794922,1.8930664,8.4052734,7.9003906,6.5205078,13.3911133         C337.6112061,450.4058838,331.6402588,453.3319702,326.140625,451.4302979z" class="color000000 svgShape"/></g><g class="color000000 svgShape"><path d="M150.9492188,364.9161377c-5.5878906-1.5454102-8.8847656-7.3569336-7.3486328-12.9550781         c1.5377045-5.6039734,7.3127289-8.8947449,12.921875-7.3447266c0.1855469,0.0517578,0.2949219,0.2446289,0.2431641,0.4306641         c-0.0507813,0.1860352-0.2402344,0.2978516-0.4306641,0.2441406         c-5.2256775-1.4454041-10.6217651,1.6173706-12.0585938,6.8554688         c-1.4355469,5.2265625,1.6425781,10.6523438,6.8603516,12.0947266         c0.1855469,0.0517578,0.2949219,0.2441406,0.2431641,0.4306641         C151.3288116,364.8608398,151.1317902,364.9674683,150.9492188,364.9161377z" class="color000000 svgShape"/></g><g class="color000000 svgShape"><path fill="#ff8686" d="M267.6520386,405.926178c0,5.1244812-4.1539917,9.2784729-9.2704468,9.2784729         c-5.1243286,0-9.2704926-4.1539917-9.2704926-9.2784729c0-5.1163025,4.1461639-9.2703857,9.2704926-9.2703857         C263.4980469,396.6557922,267.6520386,400.8098755,267.6520386,405.926178z" class="colorffa186 svgShape"/></g><g class="color000000 svgShape"><path fill="#ff8686" d="M278.3788757,522.081604c0,5.1245117-4.1539917,9.2785034-9.2704773,9.2785034         c-5.1242981,0-9.2704468-4.1539917-9.2704468-9.2785034c0-5.116272,4.1461487-9.2703857,9.2704468-9.2703857         C274.224884,512.8112183,278.3788757,516.965332,278.3788757,522.081604z" class="colorffa186 svgShape"/></g><g class="color000000 svgShape"><path fill="#ff8686" d="M205.2539825,521.1812744c0,5.1245117-4.1539917,9.2785034-9.270462,9.2785034         c-5.1243134,0-9.2704773-4.1539917-9.2704773-9.2785034c0-5.116272,4.1461639-9.2703857,9.2704773-9.2703857         C201.0999908,511.9108887,205.2539825,516.0650024,205.2539825,521.1812744z" class="colorffa186 svgShape"/></g><g class="color000000 svgShape"><path d="M417.0029297,326.5377197c-0.1826172-0.0629883-0.2792969-0.262207-0.2167969-0.4448242         c0.0644531-0.1831055,0.2617188-0.277832,0.4453125-0.2167969         c5.1230164,1.7713318,10.7015991-0.9459534,12.4658203-6.0839844         c1.7597656-5.1259766-0.9716797-10.734375-6.0869141-12.5024414         c-0.1826172-0.0629883-0.2792969-0.262207-0.2167969-0.4448242c0.0644531-0.1831055,0.2636719-0.2797852,0.4453125-0.2163086         c5.4794922,1.8930664,8.4052734,7.9003906,6.5205078,13.3911133         C428.4783325,325.4988403,422.5171204,328.4444275,417.0029297,326.5377197z" class="color000000 svgShape"/></g><g class="color000000 svgShape"><rect width="23.295" height="23.295" x="430.396" y="418.506" fill="#8aa2ff" class="color76c4ff svgShape" transform="rotate(-61.073 442.044 430.153)"/></g><g class="color000000 svgShape"><rect width="23.292" height="23.292" x="413.221" y="408.466" fill="#ff8686" class="colorffa186 svgShape" transform="rotate(-8.939 424.867 420.113)"/></g><g class="color000000 svgShape"><path d="M476.2304688,554.9718018c-2.7177734-3.3999023-1.3447266-8.3916016,0.65625-11.6333008          c2.0950928-3.3933716,5.1011658-6.31073,6.4931641-9.9780273c2.500946-6.5802612-0.5877686-13.8534546-3.5244141-20.0864258          c-2.4726563-5.2617188-5.0302734-10.7021484-4.6865234-16.5117188          c0.8190308-13.7594299,17.4110107-29.5179443,28.4111328-20.2451172          c7.3477478,6.1944275,4.0813293,16.2363586-0.3349609,24.7070313          c-3.3015747,6.3114929-7.6856995,15.088623-1.5654297,20.7744141          c1.7952576,1.6672974,7.7047729,4.3292236,1.9863281,12.1196289          c-1.7636719,2.4018555-3.8701172,4.5136719-6.2636719,6.2792969          c-0.2148438,0.7944336-1.40625,5.1362305-2.0830078,6.6210938c-1.7714844,3.8891602-4.5449219,7.109375-7.8085938,9.0678711          C483.9843445,558.2043457,478.8569031,558.257019,476.2304688,554.9718018z M475.8681641,496.8033447          c-0.3339844,5.6323242,2.1845703,10.9907227,4.6210938,16.1728516          c3.049408,6.4876709,6.1315613,13.8247681,3.5449219,20.6333008          c-1.4456787,3.8056641-4.4624634,6.7114258-6.5517578,10.097168          c-1.8818359,3.0478516-3.1953125,7.7124023-0.7050781,10.8276367          c2.3945313,2.996582,7.2480469,2.828125,10.3740234,0.9516602c3.1425781-1.8857422,5.8173828-4.9960938,7.53125-8.7573242          c0.7060547-1.5498047,2.0625-6.5805664,2.0761719-6.6313477c0.0205078-0.0771484,0.0673828-0.1445313,0.1308594-0.1918945          c2.3769531-1.737793,4.4667969-3.8242188,6.2119141-6.2011719          c5.3363342-7.2723999-0.0716553-9.4990234-1.8984375-11.1928711          c-6.2970276-5.848938-2.1356506-14.811554,1.4208984-21.6103516          c4.2425842-8.1373901,7.5577698-17.9025879,0.5048828-23.8486328          C492.705719,468.2645874,476.6583252,483.4989319,475.8681641,496.8033447z" class="color000000 svgShape"/><path d="M494.1640625,566.7906494c-0.1826172-0.0634766-0.2792969-0.2631836-0.2148438-0.4458008          c0.0820313-0.2358398,8.0820313-23.8613281-2.5869141-48.6772461          c-3.3466797-7.7841797-5.0322266-15.9018555-5.0097656-24.1279297c0-0.1928711,0.1572266-0.3491211,0.3496094-0.3491211          h0.0009766c0.1933594,0.0004883,0.3496094,0.1577148,0.3486328,0.3510742          c-0.0214844,8.1298828,1.6455078,16.1538086,4.953125,23.8496094          c10.7802734,25.0737305,2.6875,48.9458008,2.6044922,49.184082          C494.5471191,566.7559814,494.3487854,566.8545532,494.1640625,566.7906494z" class="color000000 svgShape"/><path fill="#7586c6" d="M500.7391663,551.5175171c-1.3822327-3.0391235-2.724762-8.6628418,0.2065735-10.2611694           c0.8676758-0.4731445,1.9128113-0.4382324,2.8736572-0.6694336           c2.2882385-0.5505981,3.9614868-2.6147461,4.7285156-4.8397827s0.7896729-4.6260376,0.864624-6.9783936           c0.0859985-2.7000122,0.2650757-5.4594116,1.3144226-7.9487305           c1.0493164-2.4892578,3.1317444-4.6954956,5.7854919-5.2005005           c2.8574829-0.5437622,5.8289185,1.026062,7.5599365,3.3635864           c1.7310181,2.3375854,2.3910522,5.3101196,2.5532837,8.2143555           c0.1436768,2.5723267-0.0877075,5.2312012-1.2156982,7.5475464           c-1.7268066,3.5460205-5.2520142,5.7836914-8.4488525,8.09375           c-3.1968994,2.3100586-6.4305115,5.2227783-7.0175171,9.1229858           c-0.3665466,2.4354858,0.3700867,4.8914185,0.4702759,7.3522339           c0.1002197,2.4608765-0.7396545,5.3067017-3.0231934,6.2293091           c-2.2595215,0.9129639-4.9134521-0.5950317-6.1197205-2.7125244           c-1.2062988-2.1174927-1.6315002-4.6668091-1.4248657-7.0950317           C499.9375,554.6616821,500.7391663,551.5175171,500.7391663,551.5175171z" class="color75c675 svgShape"/><path d="M494.2617188,566.8043213c-0.1904297-0.0336914-0.3173828-0.2158203-0.2832031-0.4057617           c0.0273438-0.1533203,2.8994141-15.4516602,16.2880859-25.6806641           c4.0820313-3.1181641,7.3857422-6.9057617,9.8173828-11.2568359           c0.0947266-0.1699219,0.3105469-0.2285156,0.4765625-0.1347656           c0.1689453,0.0942383,0.2285156,0.3076172,0.1347656,0.4765625           c-2.4794922,4.4350586-5.8447266,8.2944336-10.0029297,11.4716797           c-13.1660156,10.0585938-15.9980469,25.0966797-16.0244141,25.2470703           C494.6333618,566.715332,494.4464111,566.8394775,494.2617188,566.8043213z" class="color000000 svgShape"/></g></svg>