<svg xmlns="http://www.w3.org/2000/svg" enable-background="new 0 0 100 100" viewBox="0 0 100 100"><path fill="#ffb999" d="M49.963,67.429c-1.242,0-2.423-0.108-3.572-0.263v2.385c0,1.977,1.62,3.582,3.609,3.582
		c1.99,0,3.609-1.605,3.609-3.582v-2.39c-1.218,0.179-2.444,0.268-3.644,0.268C49.966,67.429,49.966,67.429,49.963,67.429z" class="color9769ad svgShape"/><path fill="#ffb999" d="M50,5C30.977,5,15.5,19.763,15.5,37.911v48.625c0,4.667,3.824,8.464,8.525,8.464
		c4.698,0,8.521-3.797,8.521-8.464v-3.759c0-2.445,2.003-4.435,4.463-4.435c2.463,0,4.466,1.989,4.466,4.435v3.759
		C41.476,91.203,45.299,95,50,95s8.524-3.797,8.524-8.464v-3.759c0-2.445,2.003-4.435,4.463-4.435c2.462,0,4.466,1.989,4.466,4.435
		v3.759c0,4.667,3.824,8.464,8.522,8.464c4.701,0,8.524-3.797,8.524-8.464V37.911C84.5,19.763,69.023,5,50,5z M30.816,43.866
		l1.078-6.255l-4.577-4.429h6.326l2.828-6.601l2.827,6.601h6.327l-4.577,4.429l1.078,6.255l-5.655-2.952L30.816,43.866z
		 M66.912,61.799c0,1.111-0.909,2.015-2.03,2.015c-0.629,0-1.189-0.284-1.562-0.729c-1.583,1.369-3.541,2.385-5.652,3.099v3.368
		c0,4.198-3.44,7.611-7.668,7.611c-4.228,0-7.668-3.413-7.668-7.611v-3.289c-2.22-0.738-4.148-1.803-5.673-3.151
		c-0.373,0.431-0.925,0.703-1.541,0.703c-1.121,0-2.029-0.903-2.029-2.015v-4.702c0-1.01,0.753-1.862,1.762-1.997
		c1.004-0.144,1.958,0.496,2.226,1.47c0.89,3.261,4.104,5.25,7.806,6.185c3.247,0.826,6.992,0.818,10.25-0.02
		c0.011-0.002,0.019,0.004,0.029,0c3.689-0.941,6.879-2.928,7.764-6.165c0.266-0.974,1.231-1.616,2.225-1.47
		c1.009,0.135,1.763,0.987,1.763,1.997V61.799z M68.106,37.611l1.079,6.255l-5.655-2.952l-5.654,2.952l1.078-6.255l-4.577-4.429
		h6.326l2.827-6.601l2.828,6.601h6.326L68.106,37.611z" class="color9769ad svgShape"/></svg>