<svg width="52" height="52" viewBox="0 0 52 52" fill="none" xmlns="http://www.w3.org/2000/svg">
<path d="M4.33325 23.2917C4.33325 29.038 6.61598 34.549 10.6793 38.6123C14.7426 42.6756 20.2536 44.9583 25.9999 44.9583C31.7463 44.9583 37.2573 42.6756 41.3206 38.6123C45.3839 34.549 47.6666 29.038 47.6666 23.2917C47.6666 17.5453 45.3839 12.0343 41.3206 7.97102C37.2573 3.90773 31.7463 1.625 25.9999 1.625C20.2536 1.625 14.7426 3.90773 10.6793 7.97102C6.61598 12.0343 4.33325 17.5453 4.33325 23.2917Z" fill="#FFE500"/>
<path d="M25.9999 1.625C21.7147 1.625 17.5256 2.89573 13.9626 5.27649C10.3995 7.65726 7.62244 11.0411 5.98254 15.0002C4.34264 18.9593 3.91357 23.3157 4.74958 27.5186C5.58559 31.7215 7.64914 35.5822 10.6793 38.6123C13.7094 41.6425 17.5701 43.706 21.773 44.542C25.9759 45.378 30.3323 44.949 34.2914 43.3091C38.2505 41.6692 41.6343 38.8921 44.0151 35.329C46.3959 31.766 47.6666 27.5769 47.6666 23.2917C47.6666 17.5453 45.3839 12.0343 41.3206 7.97102C37.2573 3.90773 31.7463 1.625 25.9999 1.625ZM25.9999 41.7083C22.0896 41.7083 18.2671 40.5488 15.0158 38.3763C11.7645 36.2039 9.23047 33.1161 7.73406 29.5035C6.23765 25.8908 5.84612 21.9156 6.60899 18.0804C7.37185 14.2452 9.25484 10.7224 12.0198 7.95741C14.7848 5.19241 18.3077 3.30942 22.1428 2.54656C25.978 1.7837 29.9533 2.17522 33.5659 3.67163C37.1785 5.16804 40.2663 7.70212 42.4388 10.9534C44.6112 14.2047 45.7708 18.0272 45.7708 21.9375C45.7708 27.1811 43.6878 32.2098 39.98 35.9176C36.2723 39.6253 31.2435 41.7083 25.9999 41.7083Z" fill="#EBCB00"/>
<path d="M19.5 5.95831C19.5 6.38929 20.1848 6.80262 21.4038 7.10736C22.6228 7.41211 24.2761 7.58331 26 7.58331C27.7239 7.58331 29.3772 7.41211 30.5962 7.10736C31.8152 6.80262 32.5 6.38929 32.5 5.95831C32.5 5.52734 31.8152 5.11401 30.5962 4.80926C29.3772 4.50452 27.7239 4.33331 26 4.33331C24.2761 4.33331 22.6228 4.50452 21.4038 4.80926C20.1848 5.11401 19.5 5.52734 19.5 5.95831Z" fill="#FFF48C"/>
<path d="M4.33325 23.2917C4.33325 29.038 6.61598 34.549 10.6793 38.6123C14.7426 42.6756 20.2536 44.9583 25.9999 44.9583C31.7463 44.9583 37.2573 42.6756 41.3206 38.6123C45.3839 34.549 47.6666 29.038 47.6666 23.2917C47.6666 17.5453 45.3839 12.0343 41.3206 7.97102C37.2573 3.90773 31.7463 1.625 25.9999 1.625C20.2536 1.625 14.7426 3.90773 10.6793 7.97102C6.61598 12.0343 4.33325 17.5453 4.33325 23.2917Z" stroke="#45413C" stroke-linecap="round" stroke-linejoin="round"/>
<path d="M41.7084 28.7083C41.7084 29.6075 40.4951 30.3333 39.0001 30.3333C37.5051 30.3333 36.2917 29.6075 36.2917 28.7083C36.2917 27.8091 37.5051 27.0833 39.0001 27.0833C40.4951 27.0833 41.7084 27.8091 41.7084 28.7083Z" fill="#FFAA54"/>
<path d="M10.2917 28.7083C10.2917 29.6075 11.5051 30.3333 13.0001 30.3333C14.4951 30.3333 15.7084 29.6075 15.7084 28.7083C15.7084 27.8091 14.4951 27.0833 13.0001 27.0833C11.5051 27.0833 10.2917 27.8091 10.2917 28.7083Z" fill="#FFAA54"/>
<path d="M43.2359 21.0383C42.8126 20.1345 42.215 19.3231 41.4775 18.6507C40.7399 17.9783 39.8769 17.4581 38.9379 17.1199C37.9989 16.7817 37.0023 16.6322 36.0054 16.68C35.0085 16.7278 34.0308 16.9719 33.1284 17.3983" stroke="#45413C" stroke-linecap="round" stroke-linejoin="round"/>
<path d="M8.76416 21.0383C9.18747 20.1345 9.78503 19.3231 10.5226 18.6507C11.2601 17.9783 12.1232 17.4581 13.0622 17.1199C14.0012 16.7817 14.9978 16.6322 15.9947 16.68C16.9916 16.7278 17.9693 16.9719 18.8717 17.3983" stroke="#45413C" stroke-linecap="round" stroke-linejoin="round"/>
<path d="M19.4349 31.9583C19.2885 31.9591 19.144 31.9915 19.0113 32.0532C18.8786 32.1149 18.7607 32.2044 18.6657 32.3158C18.5721 32.4296 18.5026 32.5613 18.4617 32.7029C18.4207 32.8445 18.409 32.9929 18.4274 33.1391C18.7174 34.9416 19.6399 36.5818 21.0295 37.7658C22.4192 38.9498 24.1851 39.6 26.0107 39.6C27.8364 39.6 29.6023 38.9498 30.9919 37.7658C32.3816 36.5818 33.3041 34.9416 33.5941 33.1391C33.6124 32.9929 33.6008 32.8445 33.5598 32.7029C33.5188 32.5613 33.4494 32.4296 33.3557 32.3158C33.2607 32.2044 33.1429 32.1149 33.0101 32.0532C32.8774 31.9915 32.7329 31.9591 32.5866 31.9583H19.4349Z" fill="#FFB0CA" stroke="#45413C" stroke-linecap="round" stroke-linejoin="round"/>
<path d="M32.0342 36.66C30.1766 35.6803 28.0995 35.1918 26 35.2409C23.9005 35.1918 21.8233 35.6803 19.9658 36.66C20.6929 37.5602 21.6122 38.2863 22.6563 38.7851C23.7004 39.2839 24.8429 39.5428 26 39.5428C27.1571 39.5428 28.2996 39.2839 29.3437 38.7851C30.3878 38.2863 31.3071 37.5602 32.0342 36.66Z" fill="#FF87AF" stroke="#45413C" stroke-linecap="round" stroke-linejoin="round"/>
<path d="M31.9799 34.9158C32.0281 34.8248 32.105 34.7522 32.1988 34.7096C32.2926 34.6669 32.3978 34.6565 32.4981 34.68C32.5984 34.7036 32.6881 34.7597 32.7531 34.8396C32.8181 34.9195 32.8548 35.0187 32.8574 35.1217V45.0775C32.8226 45.5205 32.6221 45.9342 32.2958 46.2359C31.9695 46.5376 31.5414 46.7051 31.097 46.7051C30.6526 46.7051 30.2245 46.5376 29.8982 46.2359C29.5719 45.9342 29.3714 45.5205 29.3366 45.0775V39.6608C29.3276 38.6411 29.7162 37.658 30.4199 36.92C31.0363 36.3329 31.5621 35.6575 31.9799 34.9158Z" fill="#4AEFF7" stroke="#45413C" stroke-linecap="round" stroke-linejoin="round"/>
<path opacity="0.15" d="M8.66675 49.2917C8.66675 49.7227 10.4929 50.136 13.7436 50.4407C16.9942 50.7455 21.403 50.9167 26.0001 50.9167C30.5972 50.9167 35.006 50.7455 38.2566 50.4407C41.5072 50.136 43.3334 49.7227 43.3334 49.2917C43.3334 48.8607 41.5072 48.4474 38.2566 48.1426C35.006 47.8379 30.5972 47.6667 26.0001 47.6667C21.403 47.6667 16.9942 47.8379 13.7436 48.1426C10.4929 48.4474 8.66675 48.8607 8.66675 49.2917Z" fill="#45413C"/>
<path d="M11.5266 24.375C12.0385 23.3468 12.9376 22.5639 14.0264 22.1982C15.1152 21.8326 16.3046 21.9142 17.3333 22.425" stroke="#45413C" stroke-linecap="round" stroke-linejoin="round"/>
<path d="M40.4734 24.375C39.9616 23.3468 39.0625 22.5639 37.9737 22.1982C36.8849 21.8326 35.6954 21.9142 34.6667 22.425" stroke="#45413C" stroke-linecap="round" stroke-linejoin="round"/>
</svg>
