<svg width="52" height="52" viewBox="0 0 52 52" fill="none" xmlns="http://www.w3.org/2000/svg">
<path d="M4.33325 23.2917C4.33325 29.038 6.61598 34.549 10.6793 38.6123C14.7426 42.6756 20.2536 44.9583 25.9999 44.9583C31.7463 44.9583 37.2573 42.6756 41.3206 38.6123C45.3839 34.549 47.6666 29.038 47.6666 23.2917C47.6666 17.5453 45.3839 12.0343 41.3206 7.97102C37.2573 3.90773 31.7463 1.625 25.9999 1.625C20.2536 1.625 14.7426 3.90773 10.6793 7.97102C6.61598 12.0343 4.33325 17.5453 4.33325 23.2917Z" fill="#FFE500"/>
<path d="M25.9999 1.625C21.7147 1.625 17.5256 2.89573 13.9626 5.27649C10.3995 7.65726 7.62244 11.0411 5.98254 15.0002C4.34264 18.9593 3.91357 23.3157 4.74958 27.5186C5.58559 31.7215 7.64914 35.5822 10.6793 38.6123C13.7094 41.6425 17.5701 43.706 21.773 44.542C25.9759 45.378 30.3323 44.949 34.2914 43.3091C38.2505 41.6692 41.6343 38.8921 44.0151 35.329C46.3959 31.766 47.6666 27.5769 47.6666 23.2917C47.6666 17.5453 45.3839 12.0343 41.3206 7.97102C37.2573 3.90773 31.7463 1.625 25.9999 1.625ZM25.9999 41.7083C22.0896 41.7083 18.2671 40.5488 15.0158 38.3763C11.7645 36.2039 9.23047 33.1161 7.73406 29.5035C6.23765 25.8908 5.84612 21.9156 6.60899 18.0804C7.37185 14.2452 9.25484 10.7224 12.0198 7.95741C14.7848 5.19241 18.3077 3.30942 22.1428 2.54656C25.978 1.7837 29.9533 2.17522 33.5659 3.67163C37.1785 5.16804 40.2663 7.70212 42.4388 10.9534C44.6112 14.2047 45.7708 18.0272 45.7708 21.9375C45.7708 27.1811 43.6878 32.2098 39.98 35.9176C36.2723 39.6253 31.2435 41.7083 25.9999 41.7083Z" fill="#EBCB00"/>
<path d="M19.5 5.95831C19.5 6.38929 20.1848 6.80262 21.4038 7.10736C22.6228 7.41211 24.2761 7.58331 26 7.58331C27.7239 7.58331 29.3772 7.41211 30.5962 7.10736C31.8152 6.80262 32.5 6.38929 32.5 5.95831C32.5 5.52734 31.8152 5.11401 30.5962 4.80926C29.3772 4.50452 27.7239 4.33331 26 4.33331C24.2761 4.33331 22.6228 4.50452 21.4038 4.80926C20.1848 5.11401 19.5 5.52734 19.5 5.95831Z" fill="#FFF48C"/>
<path opacity="0.15" d="M8.66675 49.2917C8.66675 49.7227 10.4929 50.136 13.7436 50.4407C16.9942 50.7455 21.403 50.9167 26.0001 50.9167C30.5972 50.9167 35.006 50.7455 38.2566 50.4407C41.5072 50.136 43.3334 49.7227 43.3334 49.2917C43.3334 48.8607 41.5072 48.4474 38.2566 48.1426C35.006 47.8379 30.5972 47.6667 26.0001 47.6667C21.403 47.6667 16.9942 47.8379 13.7436 48.1426C10.4929 48.4474 8.66675 48.8607 8.66675 49.2917Z" fill="#45413C"/>
<path d="M4.33325 23.2917C4.33325 29.038 6.61598 34.549 10.6793 38.6123C14.7426 42.6756 20.2536 44.9583 25.9999 44.9583C31.7463 44.9583 37.2573 42.6756 41.3206 38.6123C45.3839 34.549 47.6666 29.038 47.6666 23.2917C47.6666 17.5453 45.3839 12.0343 41.3206 7.97102C37.2573 3.90773 31.7463 1.625 25.9999 1.625C20.2536 1.625 14.7426 3.90773 10.6793 7.97102C6.61598 12.0343 4.33325 17.5453 4.33325 23.2917Z" stroke="#45413C" stroke-linecap="round" stroke-linejoin="round"/>
<path d="M20.0416 21.6667C20.0416 22.4166 19.8192 23.1497 19.4026 23.7732C18.9859 24.3967 18.3938 24.8827 17.7009 25.1697C17.0081 25.4567 16.2457 25.5318 15.5102 25.3855C14.7747 25.2392 14.0991 24.8781 13.5688 24.3478C13.0385 23.8175 12.6774 23.1419 12.5311 22.4064C12.3848 21.6709 12.4599 20.9085 12.7469 20.2157C13.0339 19.5228 13.5198 18.9306 14.1434 18.514C14.7669 18.0974 15.5 17.875 16.2499 17.875C17.2555 17.875 18.22 18.2745 18.931 18.9856C19.6421 19.6966 20.0416 20.6611 20.0416 21.6667Z" fill="white" stroke="#45413C" stroke-linecap="round" stroke-linejoin="round"/>
<path d="M39.5416 21.6667C39.5416 22.4166 39.3192 23.1497 38.9026 23.7732C38.4859 24.3967 37.8938 24.8827 37.2009 25.1697C36.5081 25.4567 35.7457 25.5318 35.0102 25.3855C34.2747 25.2392 33.5991 24.8781 33.0688 24.3478C32.5385 23.8175 32.1774 23.1419 32.0311 22.4064C31.8848 21.6709 31.9599 20.9085 32.2469 20.2157C32.5339 19.5228 33.0198 18.9306 33.6434 18.514C34.2669 18.0974 35 17.875 35.7499 17.875C36.7555 17.875 37.72 18.2745 38.431 18.9856C39.1421 19.6966 39.5416 20.6611 39.5416 21.6667Z" fill="white" stroke="#45413C" stroke-linecap="round" stroke-linejoin="round"/>
<path d="M27.625 35.2083C27.625 35.5297 27.5297 35.8439 27.3511 36.1111C27.1726 36.3783 26.9188 36.5866 26.6219 36.7096C26.3249 36.8326 25.9982 36.8648 25.683 36.8021C25.3678 36.7394 25.0782 36.5846 24.851 36.3574C24.6237 36.1301 24.4689 35.8406 24.4062 35.5253C24.3435 35.2101 24.3757 34.8834 24.4987 34.5865C24.6217 34.2895 24.83 34.0357 25.0972 33.8572C25.3644 33.6786 25.6786 33.5833 26 33.5833C26.431 33.5833 26.8443 33.7545 27.149 34.0593C27.4538 34.364 27.625 34.7773 27.625 35.2083Z" fill="#FFB0CA" stroke="#45413C" stroke-linecap="round" stroke-linejoin="round"/>
<path d="M42.2499 28.7083C42.2499 29.6075 41.0366 30.3333 39.5416 30.3333C38.0466 30.3333 36.8333 29.6075 36.8333 28.7083C36.8333 27.8091 38.0466 27.0833 39.5416 27.0833C41.0366 27.0833 42.2499 27.8091 42.2499 28.7083Z" fill="#FFAA54"/>
<path d="M10.8333 28.7083C10.8333 29.6075 12.0466 30.3333 13.5416 30.3333C15.0366 30.3333 16.2499 29.6075 16.2499 28.7083C16.2499 27.8091 15.0366 27.0833 13.5416 27.0833C12.0466 27.0833 10.8333 27.8091 10.8333 28.7083Z" fill="#FFAA54"/>
</svg>
