<svg xmlns="http://www.w3.org/2000/svg" enable-background="new 0 0 100 100" viewBox="0 0 100 100"><path fill="#ffb999" d="M38.133,61.287c2.531,4.572,7.705,6.289,11.844,6.289c4.156,0,9.352-1.719,11.889-6.289H38.133z" class="colorbca661 svgShape"/><path fill="#ffb999" d="M76.417,67.069c-4.786-4.751-5.108-14.378-5.108-14.378s8.149,0.278,13.191,3.99V37.91
		C84.5,19.764,69.023,5,50,5S15.5,19.764,15.5,37.91v18.771c5.045-3.712,13.191-3.99,13.191-3.99s-0.322,9.627-5.108,14.378
		c-3.353,3.329-6.305,2.568-8.083,1.509v17.958c0,4.667,3.824,8.464,8.525,8.464c4.697,0,8.521-3.797,8.521-8.464v-3.759
		c0-2.445,2.003-4.435,4.463-4.435c2.463,0,4.466,1.989,4.466,4.435v3.759C41.476,91.203,45.302,95,50,95
		c4.701,0,8.524-3.797,8.524-8.464v-3.759c0-2.445,2.003-4.435,4.464-4.435c2.462,0,4.465,1.989,4.465,4.435v3.759
		c0,4.667,3.824,8.464,8.522,8.464c4.7,0,8.524-3.797,8.524-8.464V68.578C82.725,69.638,79.77,70.398,76.417,67.069z M28.617,47.938
		c0,0-2.426-18.614,7.476-18.614s9.901,8.722,9.901,8.722S37.75,40.39,28.617,47.938z M66.912,63.973
		c0,1.113-0.909,2.016-2.029,2.016c-0.418,0-0.804-0.123-1.126-0.338c-3.493,4.074-8.911,5.955-13.78,5.955
		c-5.7,0-10.615-2.209-13.754-5.942c-0.318,0.207-0.697,0.325-1.105,0.325c-1.12,0-2.029-0.902-2.029-2.016v-4.701
		c0-0.265,0.059-0.517,0.153-0.75c0.032-0.082,0.091-0.145,0.132-0.218c0.08-0.145,0.159-0.283,0.272-0.404
		c0.071-0.071,0.156-0.123,0.235-0.184c0.116-0.092,0.23-0.181,0.365-0.247c0.1-0.047,0.205-0.07,0.314-0.1
		c0.098-0.028,0.185-0.08,0.287-0.094c0.054-0.008,0.098,0.01,0.148,0.005c0.043-0.003,0.079-0.023,0.121-0.023h29.766
		c0.042,0,0.078,0.021,0.119,0.023c0.05,0.005,0.098-0.013,0.15-0.005c0.104,0.014,0.189,0.065,0.287,0.094
		c0.109,0.029,0.215,0.053,0.314,0.1c0.135,0.066,0.249,0.155,0.365,0.247c0.079,0.061,0.164,0.112,0.235,0.184
		c0.113,0.121,0.192,0.26,0.272,0.404c0.041,0.073,0.1,0.136,0.132,0.218c0.095,0.233,0.153,0.485,0.153,0.75V63.973z
		 M54.006,38.045c0,0,0-8.722,9.901-8.722s7.476,18.614,7.476,18.614C62.25,40.39,54.006,38.045,54.006,38.045z" class="colorbca661 svgShape"/></svg>