<svg width="52" height="52" viewBox="0 0 52 52" fill="none" xmlns="http://www.w3.org/2000/svg">
<path d="M9.33838 23.8008C9.33838 25.9889 9.76935 28.1555 10.6067 30.177C11.444 32.1985 12.6713 34.0352 14.2185 35.5824C15.7656 37.1296 17.6024 38.3569 19.6239 39.1942C21.6454 40.0315 23.812 40.4625 26 40.4625C28.1881 40.4625 30.3547 40.0315 32.3762 39.1942C34.3977 38.3569 36.2344 37.1296 37.7816 35.5824C39.3288 34.0352 40.5561 32.1985 41.3934 30.177C42.2307 28.1555 42.6617 25.9889 42.6617 23.8008C42.6617 21.6128 42.2307 19.4462 41.3934 17.4247C40.5561 15.4032 39.3288 13.5664 37.7816 12.0192C36.2344 10.4721 34.3977 9.24478 32.3762 8.40745C30.3547 7.57013 28.1881 7.13916 26 7.13916C23.812 7.13916 21.6454 7.57013 19.6239 8.40745C17.6024 9.24478 15.7656 10.4721 14.2185 12.0192C12.6713 13.5664 11.444 15.4032 10.6067 17.4247C9.76935 19.4462 9.33838 21.6128 9.33838 23.8008Z" fill="#FFE500"/>
<path d="M26 7.12836C22.7034 7.12622 19.4801 8.10141 16.7377 9.93068C13.9952 11.7599 11.8565 14.3612 10.592 17.4056C9.32748 20.45 8.99387 23.801 9.63333 27.0349C10.2728 30.2689 11.8566 33.2407 14.1846 35.5748C16.5126 37.9088 19.4803 39.5004 22.7126 40.1482C25.9449 40.7961 29.2967 40.4712 32.3444 39.2146C35.3921 37.958 37.9989 35.8261 39.8353 33.0884C41.6716 30.3506 42.6552 27.1299 42.6616 23.8334C42.6673 21.6417 42.2406 19.4704 41.4058 17.4439C40.571 15.4174 39.3446 13.5755 37.7969 12.0238C36.2491 10.472 34.4104 9.24082 32.3861 8.40079C30.3618 7.56075 28.1917 7.12835 26 7.12836ZM26 37.9167C23.0003 37.9167 20.068 37.0272 17.5738 35.3607C15.0797 33.6941 13.1357 31.3254 11.9878 28.5541C10.8399 25.7827 10.5395 22.7332 11.1247 19.7912C11.7099 16.8491 13.1544 14.1467 15.2755 12.0256C17.3966 9.90448 20.099 8.45999 23.0411 7.87478C25.9831 7.28957 29.0326 7.58992 31.804 8.73785C34.5753 9.88578 36.944 11.8297 38.6106 14.3239C40.2771 16.818 41.1666 19.7503 41.1666 22.75C41.1666 26.7725 39.5687 30.6302 36.7244 33.4745C33.8801 36.3188 30.0224 37.9167 26 37.9167Z" fill="#EBCB00"/>
<path d="M21.0059 10.465C21.0059 10.6286 21.135 10.7906 21.386 10.9418C21.637 11.0929 22.0049 11.2303 22.4686 11.3459C22.9324 11.4616 23.4829 11.5534 24.0888 11.616C24.6948 11.6786 25.3442 11.7108 26 11.7108C26.6559 11.7108 27.3053 11.6786 27.9112 11.616C28.5171 11.5534 29.0677 11.4616 29.5314 11.3459C29.9952 11.2303 30.3631 11.0929 30.614 10.9418C30.865 10.7906 30.9942 10.6286 30.9942 10.465C30.9942 10.3014 30.865 10.1394 30.614 9.98825C30.3631 9.8371 29.9952 9.69976 29.5314 9.58407C29.0677 9.46839 28.5171 9.37662 27.9112 9.31401C27.3053 9.2514 26.6559 9.21918 26 9.21918C25.3442 9.21918 24.6948 9.2514 24.0888 9.31401C23.4829 9.37662 22.9324 9.46839 22.4686 9.58407C22.0049 9.69976 21.637 9.8371 21.386 9.98825C21.135 10.1394 21.0059 10.3014 21.0059 10.465Z" fill="#FFF48C"/>
<path opacity="0.15" d="M12.6641 47.125C12.6641 47.3384 13.009 47.5497 13.6792 47.7469C14.3494 47.944 15.3317 48.1232 16.57 48.274C17.8084 48.4249 19.2785 48.5446 20.8965 48.6263C22.5145 48.708 24.2486 48.75 25.9999 48.75C27.7512 48.75 29.4853 48.708 31.1033 48.6263C32.7213 48.5446 34.1914 48.4249 35.4298 48.274C36.6681 48.1232 37.6504 47.944 38.3206 47.7469C38.9908 47.5497 39.3357 47.3384 39.3357 47.125C39.3357 46.9116 38.9908 46.7003 38.3206 46.5031C37.6504 46.306 36.6681 46.1268 35.4298 45.976C34.1914 45.8251 32.7213 45.7054 31.1033 45.6237C29.4853 45.542 27.7512 45.5 25.9999 45.5C24.2486 45.5 22.5145 45.542 20.8965 45.6237C19.2785 45.7054 17.8084 45.8251 16.57 45.976C15.3317 46.1268 14.3494 46.306 13.6792 46.5031C13.009 46.7003 12.6641 46.9116 12.6641 47.125Z" fill="#45413C"/>
<path d="M9.33838 23.8008C9.33838 25.9889 9.76935 28.1555 10.6067 30.177C11.444 32.1985 12.6713 34.0352 14.2185 35.5824C15.7656 37.1296 17.6024 38.3569 19.6239 39.1942C21.6454 40.0315 23.812 40.4625 26 40.4625C28.1881 40.4625 30.3547 40.0315 32.3762 39.1942C34.3977 38.3569 36.2344 37.1296 37.7816 35.5824C39.3288 34.0352 40.5561 32.1985 41.3934 30.177C42.2307 28.1555 42.6617 25.9889 42.6617 23.8008C42.6617 21.6128 42.2307 19.4462 41.3934 17.4247C40.5561 15.4032 39.3288 13.5664 37.7816 12.0192C36.2344 10.4721 34.3977 9.24478 32.3762 8.40745C30.3547 7.57013 28.1881 7.13916 26 7.13916C23.812 7.13916 21.6454 7.57013 19.6239 8.40745C17.6024 9.24478 15.7656 10.4721 14.2185 12.0192C12.6713 13.5664 11.444 15.4032 10.6067 17.4247C9.76935 19.4462 9.33838 21.6128 9.33838 23.8008Z" stroke="#45413C" stroke-linecap="round" stroke-linejoin="round"/>
<path d="M38.0792 27.9609C38.0792 28.6542 37.1475 29.2067 35.9992 29.2067C34.8509 29.2067 33.9192 28.6542 33.9192 27.9609C33.9192 27.2675 34.8509 26.715 35.9992 26.715C37.1475 26.715 38.0792 27.2675 38.0792 27.9609Z" fill="#FFAA54"/>
<path d="M13.9209 27.9609C13.9209 28.6542 14.8526 29.2067 16.0009 29.2067C17.1492 29.2067 18.0809 28.6542 18.0809 27.9609C18.0809 27.2675 17.1492 26.715 16.0009 26.715C14.8526 26.715 13.9209 27.2675 13.9209 27.9609Z" fill="#FFAA54"/>
<path d="M14.3326 24.8408C14.3151 24.6389 14.3399 24.4356 14.4052 24.2437C14.4705 24.0519 14.575 23.8757 14.712 23.7264C14.849 23.577 15.0155 23.4578 15.201 23.3762C15.3865 23.2947 15.587 23.2526 15.7896 23.2526C15.9923 23.2526 16.1928 23.2947 16.3783 23.3762C16.5638 23.4578 16.7303 23.577 16.8673 23.7264C17.0043 23.8757 17.1088 24.0519 17.1741 24.2437C17.2394 24.4356 17.2642 24.6389 17.2467 24.8408" stroke="#45413C" stroke-linecap="round" stroke-linejoin="round"/>
<path d="M34.7532 24.8408C34.7358 24.6389 34.7605 24.4356 34.8258 24.2437C34.8911 24.0519 34.9956 23.8757 35.1326 23.7264C35.2696 23.577 35.4362 23.4578 35.6217 23.3762C35.8072 23.2947 36.0076 23.2526 36.2103 23.2526C36.413 23.2526 36.6134 23.2947 36.7989 23.3762C36.9844 23.4578 37.151 23.577 37.288 23.7264C37.425 23.8757 37.5295 24.0519 37.5948 24.2437C37.6601 24.4356 37.6848 24.6389 37.6674 24.8408" stroke="#45413C" stroke-linecap="round" stroke-linejoin="round"/>
<path d="M20.9516 30.4633C20.8387 30.4633 20.7271 30.4875 20.6244 30.5342C20.5216 30.5809 20.43 30.6491 20.3558 30.7342C20.2814 30.8193 20.2264 30.9196 20.1946 31.0281C20.1628 31.1366 20.1549 31.2507 20.1716 31.3625C20.4093 32.7359 21.1244 33.9812 22.1908 34.8788C23.2571 35.7764 24.6061 36.2686 25.9999 36.2686C27.3938 36.2686 28.7428 35.7764 29.8091 34.8788C30.8755 33.9812 31.5906 32.7359 31.8283 31.3625C31.845 31.2507 31.8371 31.1366 31.8053 31.0281C31.7735 30.9196 31.7185 30.8193 31.6441 30.7342C31.5699 30.6491 31.4783 30.5809 31.3755 30.5342C31.2728 30.4875 31.1612 30.4633 31.0483 30.4633H20.9516Z" fill="#FFB0CA" stroke="#45413C" stroke-linecap="round" stroke-linejoin="round"/>
<path d="M30.6475 34.0816C29.2163 33.3297 27.6163 32.9567 26 32.9983C24.3838 32.9567 22.7838 33.3297 21.3525 34.0816C21.9143 34.7723 22.6229 35.329 23.4268 35.7114C24.2308 36.0938 25.1098 36.2922 26 36.2922C26.8903 36.2922 27.7693 36.0938 28.5733 35.7114C29.3772 35.329 30.0858 34.7723 30.6475 34.0816Z" fill="#FF87AF" stroke="#45413C" stroke-linecap="round" stroke-linejoin="round"/>
<path d="M3.56417 31.9691C7.13917 35.5441 9.78251 28.3725 13.3142 27.6358C8.29834 23.9958 6.19888e-06 28.3941 3.56417 31.9691Z" fill="#00B8F0"/>
<path d="M13.26 27.6792L13.0109 27.7442C8.15752 26 2.03669 29.7158 4.99419 32.8683C4.4466 32.6999 3.95327 32.3897 3.56419 31.9692C2.0504e-05 28.3942 8.29835 23.9958 13.26 27.6792Z" fill="#4ACFFF"/>
<path d="M3.56417 31.9691C7.13917 35.5441 9.78251 28.3725 13.3142 27.6358C8.29834 23.9958 6.14863e-06 28.3941 3.56417 31.9691Z" stroke="#45413C" stroke-linecap="round" stroke-linejoin="round"/>
<path d="M7.03094 19.2075C5.9476 22.3167 10.8876 21.9158 12.2634 23.8008C13.0868 19.8142 8.16844 16.0875 7.03094 19.2075Z" fill="#00B8F0"/>
<path d="M12.0575 21.2334C11.0716 18.4925 7.91914 16.7917 7.03081 19.2075C6.84213 19.5728 6.79304 19.9943 6.89275 20.3931C6.99245 20.7919 7.23411 21.1407 7.57248 21.3742C8.27664 19.0992 10.4758 19.5867 12.0575 21.2334Z" fill="#4ACFFF"/>
<path d="M7.03094 19.2075C5.9476 22.3167 10.8876 21.9158 12.2634 23.8008C13.0868 19.8142 8.16844 16.0875 7.03094 19.2075Z" stroke="#45413C" stroke-linecap="round" stroke-linejoin="round"/>
<path d="M1.08331 23.9309C1.99331 26.0975 4.33331 23.4759 5.99081 23.79C4.54997 21.3417 0.227472 21.775 1.08331 23.9309Z" fill="#00B8F0"/>
<path d="M1.4733 24.4833C2.03663 23.4 4.27913 22.685 5.93663 23.6492C4.3333 21.3633 0.238297 21.8183 1.0833 23.9308C1.17696 24.1382 1.30933 24.3257 1.4733 24.4833Z" fill="#4ACFFF"/>
<path d="M1.08331 23.9309C1.99331 26.0975 4.33331 23.4759 5.99081 23.79C4.54997 21.3417 0.227472 21.775 1.08331 23.9309Z" stroke="#45413C" stroke-linecap="round" stroke-linejoin="round"/>
<path d="M48.2517 31.9691C44.6767 35.5441 42.0442 28.3725 38.5559 27.6358C43.5284 23.9958 51.8267 28.3941 48.2517 31.9691Z" fill="#00B8F0"/>
<path d="M38.5559 27.6792C38.6402 27.6959 38.7234 27.7176 38.8051 27.7442C43.6584 26 49.8334 29.7158 46.8217 32.8683C47.3693 32.6999 47.8627 32.3897 48.2517 31.9692C51.8267 28.3942 43.5284 23.9958 38.5559 27.6792Z" fill="#4ACFFF"/>
<path d="M48.2517 31.9691C44.6767 35.5441 42.0442 28.3725 38.5559 27.6358C43.5284 23.9958 51.8267 28.3941 48.2517 31.9691Z" stroke="#45413C" stroke-linecap="round" stroke-linejoin="round"/>
<path d="M44.7851 19.2075C45.9335 22.3167 40.9285 21.9158 39.5526 23.8008C38.7293 19.8142 43.6476 16.0875 44.7851 19.2075Z" fill="#00B8F0"/>
<path d="M39.7583 21.2334C40.7441 18.4925 43.9075 16.7917 44.785 19.2075C44.9737 19.5728 45.0227 19.9943 44.923 20.3931C44.8233 20.7919 44.5817 21.1407 44.2433 21.3742C43.5391 19.0992 41.34 19.5867 39.7583 21.2334Z" fill="#4ACFFF"/>
<path d="M44.7851 19.2075C45.9335 22.3167 40.9285 21.9158 39.5526 23.8008C38.7293 19.8142 43.6476 16.0875 44.7851 19.2075Z" stroke="#45413C" stroke-linecap="round" stroke-linejoin="round"/>
<path d="M50.6891 23.9309C49.79 26.0975 47.4391 23.4759 45.7925 23.79C47.2766 21.3417 51.5991 21.775 50.6891 23.9309Z" fill="#00B8F0"/>
<path d="M50.3425 24.4833C49.79 23.4 47.5367 22.685 45.8792 23.6492C47.4392 21.3633 51.5775 21.8183 50.6892 23.9308C50.6085 24.1347 50.4909 24.322 50.3425 24.4833Z" fill="#4ACFFF"/>
<path d="M50.6891 23.9309C49.79 26.0975 47.4391 23.4759 45.7925 23.79C47.2766 21.3417 51.5991 21.775 50.6891 23.9309Z" stroke="#45413C" stroke-linecap="round" stroke-linejoin="round"/>
</svg>
