<svg xmlns="http://www.w3.org/2000/svg" enable-background="new 0 0 100 100" viewBox="0 0 100 100"><path fill="#ffb999" d="M50,5C30.977,5,15.5,19.764,15.5,37.91v48.626c0,4.667,3.824,8.464,8.525,8.464
	c4.698,0,8.521-3.797,8.521-8.464v-3.759c0-2.445,2.003-4.435,4.463-4.435c2.463,0,4.466,1.989,4.466,4.435v3.759
	C41.476,91.203,45.299,95,50,95s8.524-3.797,8.524-8.464v-3.759c0-2.445,2.003-4.435,4.463-4.435c2.462,0,4.466,1.989,4.466,4.435
	v3.759c0,4.667,3.824,8.464,8.522,8.464c4.701,0,8.524-3.797,8.524-8.464V37.91C84.5,19.764,69.023,5,50,5z M29.111,36.457
	c-1.633-1.621-1.633-4.25,0-5.871c1.633-1.622,4.281-1.622,5.914,0l1.443,1.432l1.445-1.432c1.633-1.622,4.283-1.622,5.916,0
	c1.633,1.621,1.633,4.25,0,5.871c-1.839,1.828-7.361,7.309-7.361,7.309S30.951,38.285,29.111,36.457z M66.912,63.973
	c0,1.113-0.909,2.016-2.03,2.016c-0.629,0-1.189-0.283-1.562-0.729c-3.43,2.968-8.596,4.345-13.355,4.345c0,0,0,0-0.003,0
	c-5.52-0.002-10.221-1.596-13.305-4.318c-0.373,0.43-0.925,0.703-1.541,0.703c-1.121,0-2.029-0.902-2.029-2.016v-4.701
	c0-1.01,0.753-1.862,1.762-1.996c0.994-0.137,1.958,0.493,2.226,1.469c1.289,4.718,7.401,6.827,12.887,6.83
	c5.523,0,11.672-2.112,12.962-6.83c0.269-0.976,1.234-1.605,2.225-1.469c1.009,0.134,1.763,0.986,1.763,1.996V63.973z
	 M70.889,36.457c-1.839,1.828-7.362,7.309-7.362,7.309s-5.517-5.48-7.356-7.309c-1.633-1.621-1.633-4.25,0-5.871
	c1.633-1.622,4.28-1.622,5.914,0l1.443,1.432l1.445-1.432c1.633-1.622,4.284-1.622,5.917,0
	C72.522,32.207,72.522,34.836,70.889,36.457z" class="coloref539e svgShape"/></svg>