<svg width="52" height="52" viewBox="0 0 52 52" fill="none" xmlns="http://www.w3.org/2000/svg">
<path d="M4.33325 23.2917C4.33325 29.038 6.61598 34.549 10.6793 38.6123C14.7426 42.6756 20.2536 44.9583 25.9999 44.9583C31.7463 44.9583 37.2573 42.6756 41.3206 38.6123C45.3839 34.549 47.6666 29.038 47.6666 23.2917C47.6666 17.5453 45.3839 12.0343 41.3206 7.97102C37.2573 3.90773 31.7463 1.625 25.9999 1.625C20.2536 1.625 14.7426 3.90773 10.6793 7.97102C6.61598 12.0343 4.33325 17.5453 4.33325 23.2917Z" fill="#FFE500"/>
<path d="M25.9999 1.625C21.7147 1.625 17.5256 2.89573 13.9626 5.27649C10.3995 7.65726 7.62244 11.0411 5.98254 15.0002C4.34264 18.9593 3.91357 23.3157 4.74958 27.5186C5.58559 31.7215 7.64914 35.5822 10.6793 38.6123C13.7094 41.6424 17.5701 43.706 21.773 44.542C25.9759 45.378 30.3323 44.949 34.2914 43.3091C38.2505 41.6692 41.6343 38.8921 44.0151 35.329C46.3959 31.766 47.6666 27.5769 47.6666 23.2917C47.6666 17.5453 45.3839 12.0343 41.3206 7.97102C37.2573 3.90773 31.7463 1.625 25.9999 1.625ZM25.9999 41.7083C22.0896 41.7083 18.2671 40.5488 15.0158 38.3763C11.7645 36.2039 9.23047 33.1161 7.73406 29.5035C6.23765 25.8908 5.84612 21.9156 6.60899 18.0804C7.37185 14.2452 9.25484 10.7224 12.0198 7.95741C14.7848 5.19241 18.3077 3.30942 22.1428 2.54656C25.978 1.7837 29.9532 2.17522 33.5659 3.67163C37.1785 5.16804 40.2663 7.70212 42.4388 10.9534C44.6112 14.2047 45.7708 18.0272 45.7708 21.9375C45.7708 27.181 43.6878 32.2098 39.98 35.9176C36.2723 39.6253 31.2435 41.7083 25.9999 41.7083Z" fill="#EBCB00"/>
<path d="M19.5 5.95831C19.5 6.38929 20.1848 6.80262 21.4038 7.10736C22.6228 7.41211 24.2761 7.58331 26 7.58331C27.7239 7.58331 29.3772 7.41211 30.5962 7.10736C31.8152 6.80262 32.5 6.38929 32.5 5.95831C32.5 5.52734 31.8152 5.11401 30.5962 4.80926C29.3772 4.50452 27.7239 4.33331 26 4.33331C24.2761 4.33331 22.6228 4.50452 21.4038 4.80926C20.1848 5.11401 19.5 5.52734 19.5 5.95831Z" fill="#FFF48C"/>
<path d="M4.33325 23.2917C4.33325 29.038 6.61598 34.549 10.6793 38.6123C14.7426 42.6756 20.2536 44.9583 25.9999 44.9583C31.7463 44.9583 37.2573 42.6756 41.3206 38.6123C45.3839 34.549 47.6666 29.038 47.6666 23.2917C47.6666 17.5453 45.3839 12.0343 41.3206 7.97102C37.2573 3.90773 31.7463 1.625 25.9999 1.625C20.2536 1.625 14.7426 3.90773 10.6793 7.97102C6.61598 12.0343 4.33325 17.5453 4.33325 23.2917Z" stroke="#45413C" stroke-linecap="round" stroke-linejoin="round"/>
<path opacity="0.15" d="M8.66675 49.2917C8.66675 49.7227 10.4929 50.136 13.7436 50.4407C16.9942 50.7455 21.403 50.9167 26.0001 50.9167C30.5972 50.9167 35.006 50.7455 38.2566 50.4407C41.5072 50.136 43.3334 49.7227 43.3334 49.2917C43.3334 48.8607 41.5072 48.4474 38.2566 48.1426C35.006 47.8379 30.5972 47.6667 26.0001 47.6667C21.403 47.6667 16.9942 47.8379 13.7436 48.1426C10.4929 48.4474 8.66675 48.8607 8.66675 49.2917Z" fill="#45413C"/>
<path d="M37.6458 17.5066C35.0912 17.087 32.7274 15.8919 30.875 14.0833" stroke="#45413C" stroke-linecap="round" stroke-linejoin="round"/>
<path d="M14.3542 17.5066C16.9089 17.087 19.2727 15.8919 21.1251 14.0833" stroke="#45413C" stroke-linecap="round" stroke-linejoin="round"/>
<path d="M41.7084 28.7083C41.7084 29.6075 40.4951 30.3333 39.0001 30.3333C37.5051 30.3333 36.2917 29.6075 36.2917 28.7083C36.2917 27.8091 37.5051 27.0833 39.0001 27.0833C40.4951 27.0833 41.7084 27.8091 41.7084 28.7083Z" fill="#FFAA54"/>
<path d="M10.2917 28.7083C10.2917 29.6075 11.5051 30.3333 13.0001 30.3333C14.4951 30.3333 15.7084 29.6075 15.7084 28.7083C15.7084 27.8091 14.4951 27.0833 13.0001 27.0833C11.5051 27.0833 10.2917 27.8091 10.2917 28.7083Z" fill="#FFAA54"/>
<path d="M39.2817 19.5L35.8042 21.2442C35.6268 21.3351 35.4778 21.4732 35.3739 21.6433C35.2699 21.8134 35.2148 22.0089 35.2148 22.2083C35.2148 22.4077 35.2699 22.6032 35.3739 22.7734C35.4778 22.9435 35.6268 23.0816 35.8042 23.1725L39.2817 24.9167" stroke="#45413C" stroke-linecap="round" stroke-linejoin="round"/>
<path d="M12.7183 19.5L16.2499 21.2442C16.4274 21.3351 16.5763 21.4732 16.6803 21.6433C16.7843 21.8134 16.8393 22.0089 16.8393 22.2083C16.8393 22.4077 16.7843 22.6032 16.6803 22.7734C16.5763 22.9435 16.4274 23.0816 16.2499 23.1725L12.7183 24.9167" stroke="#45413C" stroke-linecap="round" stroke-linejoin="round"/>
<path d="M34.4391 39C34.6282 39.0005 34.8152 38.9602 34.9873 38.8816C35.1593 38.8031 35.3123 38.6883 35.4358 38.545C35.5617 38.3971 35.654 38.2236 35.7063 38.0366C35.7587 37.8496 35.7699 37.6534 35.7391 37.4617C35.3602 35.1491 34.1717 33.0465 32.3857 31.5293C30.5997 30.0121 28.3325 29.1791 25.9891 29.1791C23.6457 29.1791 21.3786 30.0121 19.5926 31.5293C17.8066 33.0465 16.618 35.1491 16.2391 37.4617C16.2084 37.6534 16.2196 37.8496 16.2719 38.0366C16.3243 38.2236 16.4166 38.3971 16.5425 38.545C16.6659 38.6883 16.8189 38.8031 16.991 38.8816C17.163 38.9602 17.35 39.0005 17.5391 39C23.0799 37.5556 28.8984 37.5556 34.4391 39Z" fill="#FFB0CA" stroke="#45413C" stroke-linecap="round" stroke-linejoin="round"/>
<path d="M26 29.25C23.4614 29.2414 21.017 30.2113 19.175 31.9583H32.825C30.9831 30.2113 28.5387 29.2414 26 29.25Z" fill="white" stroke="#45413C" stroke-linecap="round" stroke-linejoin="round"/>
</svg>
