<svg width="46" height="50" viewBox="0 0 46 50" fill="none" xmlns="http://www.w3.org/2000/svg">
<path opacity="0.15" d="M5.66675 48.2917C5.66675 48.7227 7.49293 49.136 10.7436 49.4407C13.9942 49.7455 18.403 49.9167 23.0001 49.9167C27.5972 49.9167 32.006 49.7455 35.2566 49.4407C38.5072 49.136 40.3334 48.7227 40.3334 48.2917C40.3334 47.8607 38.5072 47.4474 35.2566 47.1426C32.006 46.8379 27.5972 46.6667 23.0001 46.6667C18.403 46.6667 13.9942 46.8379 10.7436 47.1426C7.49293 47.4474 5.66675 47.8607 5.66675 48.2917Z" fill="#45413C"/>
<path d="M1.33325 22.2917C1.33325 28.038 3.61598 33.549 7.67927 37.6123C11.7426 41.6756 17.2536 43.9583 22.9999 43.9583C28.7463 43.9583 34.2573 41.6756 38.3206 37.6123C42.3839 33.549 44.6666 28.038 44.6666 22.2917C44.6666 16.5453 42.3839 11.0343 38.3206 6.97102C34.2573 2.90773 28.7463 0.625 22.9999 0.625C17.2536 0.625 11.7426 2.90773 7.67927 6.97102C3.61598 11.0343 1.33325 16.5453 1.33325 22.2917Z" fill="#FFE500"/>
<path d="M22.9999 0.625C18.7147 0.625 14.5256 1.89573 10.9626 4.27649C7.39951 6.65726 4.62244 10.0411 2.98254 14.0002C1.34264 17.9593 0.913568 22.3157 1.74958 26.5186C2.58559 30.7215 4.64914 34.5822 7.67928 37.6123C10.7094 40.6425 14.5701 42.706 18.773 43.542C22.9759 44.378 27.3323 43.949 31.2914 42.3091C35.2505 40.6692 38.6343 37.8921 41.0151 34.329C43.3959 30.766 44.6666 26.5769 44.6666 22.2917C44.6666 16.5453 42.3839 11.0343 38.3206 6.97102C34.2573 2.90773 28.7463 0.625 22.9999 0.625ZM22.9999 40.7083C19.0896 40.7083 15.2671 39.5488 12.0158 37.3763C8.76455 35.2039 6.23047 32.1161 4.73406 28.5035C3.23765 24.8908 2.84612 20.9156 3.60899 17.0804C4.37185 13.2452 6.25484 9.72241 9.01984 6.95741C11.7848 4.19241 15.3077 2.30942 19.1428 1.54656C22.978 0.783696 26.9533 1.17522 30.5659 2.67163C34.1785 4.16804 37.2663 6.70212 39.4388 9.95341C41.6112 13.2047 42.7708 17.0272 42.7708 20.9375C42.7708 26.1811 40.6878 31.2098 36.98 34.9176C33.2723 38.6253 28.2435 40.7083 22.9999 40.7083Z" fill="#EBCB00"/>
<path d="M6.14978 14.627C6.45453 14.9317 7.23103 14.7397 8.30848 14.0933C9.38592 13.4468 10.676 12.3988 11.895 11.1798C13.114 9.96082 14.162 8.6707 14.8085 7.59326C15.4549 6.51582 15.6469 5.73931 15.3422 5.43457C15.0374 5.12982 14.2609 5.3218 13.1835 5.96826C12.106 6.61473 10.8159 7.66273 9.59693 8.88171C8.37794 10.1007 7.32994 11.3908 6.68348 12.4683C6.03701 13.5457 5.84503 14.3222 6.14978 14.627Z" fill="#FFF48C"/>
<path d="M1.33325 22.2917C1.33325 28.038 3.61598 33.549 7.67927 37.6123C11.7426 41.6756 17.2536 43.9583 22.9999 43.9583C28.7463 43.9583 34.2573 41.6756 38.3206 37.6123C42.3839 33.549 44.6666 28.038 44.6666 22.2917C44.6666 16.5453 42.3839 11.0343 38.3206 6.97102C34.2573 2.90773 28.7463 0.625 22.9999 0.625C17.2536 0.625 11.7426 2.90773 7.67927 6.97102C3.61598 11.0343 1.33325 16.5453 1.33325 22.2917Z" stroke="#45413C" stroke-linecap="round" stroke-linejoin="round"/>
<path d="M34.9166 9.64915C35.5558 10.2883 35.2091 11.6533 34.1474 12.715C33.0858 13.7766 31.6666 14.1666 31.0383 13.4841C30.4099 12.8016 30.7566 11.48 31.8074 10.4183C32.8583 9.35665 34.2341 9.02081 34.9166 9.64915Z" fill="#FFAA54"/>
<path d="M35.6099 34.9016C29.6516 40.86 20.6274 41.6833 14.5932 37.0683C14.4125 36.9153 14.2698 36.7224 14.1765 36.5048C14.0831 36.2871 14.0416 36.0508 14.0553 35.8144C14.0689 35.578 14.1374 35.348 14.2552 35.1426C14.373 34.9372 14.5369 34.762 14.7341 34.6308C22.6414 28.8757 29.604 21.9241 35.3716 14.0258C35.5027 13.8287 35.6779 13.6647 35.8834 13.5469C36.0888 13.4291 36.3188 13.3607 36.5552 13.347C36.7916 13.3334 37.0279 13.3749 37.2455 13.4682C37.4631 13.5616 37.6561 13.7043 37.8091 13.885C42.3916 19.9191 41.5682 28.9433 35.6099 34.9016Z" fill="#FFB0CA" stroke="#45413C" stroke-linecap="round" stroke-linejoin="round"/>
<path d="M30.475 29.7667C33.3326 26.7479 36.8466 24.4275 40.745 22.985C40.6169 27.4668 38.7792 31.7299 35.6088 34.9004C32.4383 38.0708 28.1752 39.9085 23.6934 40.0367C25.1358 36.1383 27.4563 32.6242 30.475 29.7667Z" fill="#FF87AF" stroke="#45413C" stroke-linecap="round" stroke-linejoin="round"/>
<path d="M25.2641 6.58331L24.0833 10.31C24.0215 10.5 24.0136 10.7033 24.0602 10.8976C24.1069 11.0918 24.2063 11.2694 24.3476 11.4107C24.4888 11.5519 24.6664 11.6514 24.8606 11.698C25.0549 11.7447 25.2583 11.7367 25.4483 11.675L29.1424 10.4508" stroke="#45413C" stroke-linecap="round" stroke-linejoin="round"/>
<path d="M10.3575 34.165C10.9967 34.8042 12.3617 34.4575 13.4233 33.3959C14.485 32.3342 14.8208 30.9692 14.1925 30.33C13.5642 29.6909 12.1667 30.0484 11.0833 31.0992C10 32.15 9.72918 33.5259 10.3575 34.165Z" fill="#FFAA54"/>
<path d="M7.32422 24.5558L11.0184 23.3317C11.2084 23.27 11.4117 23.262 11.606 23.3086C11.8002 23.3553 11.9778 23.4547 12.1191 23.596C12.2603 23.7372 12.3598 23.9148 12.4064 24.1091C12.4531 24.3033 12.4451 24.5067 12.3834 24.6967L11.1592 28.3908" stroke="#45413C" stroke-linecap="round" stroke-linejoin="round"/>
<path d="M14.7341 34.6633C18.6804 31.7819 22.3999 28.602 25.8599 25.1516C29.3102 21.6917 32.4901 17.9721 35.3716 14.0258C35.5027 13.8287 35.6779 13.6647 35.8834 13.5469C36.0888 13.4291 36.3188 13.3607 36.5552 13.347C36.7916 13.3334 37.0279 13.3749 37.2455 13.4682C37.4631 13.5616 37.6561 13.7043 37.8091 13.885C38.0257 14.1666 38.2207 14.47 38.4157 14.7733C35.2772 19.2121 31.7886 23.3927 27.9832 27.275C24.1009 31.0804 19.9204 34.569 15.4816 37.7075C15.1782 37.5125 14.8749 37.3175 14.5932 37.1008C14.4125 36.9478 14.2698 36.7549 14.1765 36.5373C14.0831 36.3196 14.0416 36.0833 14.0553 35.8469C14.0689 35.6105 14.1374 35.3805 14.2552 35.1751C14.373 34.9697 14.5369 34.7945 14.7341 34.6633Z" fill="white" stroke="#45413C" stroke-linecap="round" stroke-linejoin="round"/>
</svg>
