<svg width="48" height="48" viewBox="0 0 48 48" fill="none" xmlns="http://www.w3.org/2000/svg">
<path d="M4 21.5C4 26.8043 6.10714 31.8914 9.85786 35.6421C13.6086 39.3929 18.6957 41.5 24 41.5C29.3043 41.5 34.3914 39.3929 38.1421 35.6421C41.8929 31.8914 44 26.8043 44 21.5C44 16.1957 41.8929 11.1086 38.1421 7.35786C34.3914 3.60714 29.3043 1.5 24 1.5C18.6957 1.5 13.6086 3.60714 9.85786 7.35786C6.10714 11.1086 4 16.1957 4 21.5Z" fill="#FFE500"/>
<path d="M24 1.5C20.0444 1.5 16.1776 2.67298 12.8886 4.87061C9.59962 7.06824 7.03617 10.1918 5.52242 13.8463C4.00867 17.5009 3.6126 21.5222 4.3843 25.4018C5.15601 29.2814 7.06082 32.8451 9.85787 35.6421C12.6549 38.4392 16.2186 40.344 20.0982 41.1157C23.9778 41.8874 27.9992 41.4913 31.6537 39.9776C35.3082 38.4638 38.4318 35.9004 40.6294 32.6114C42.827 29.3224 44 25.4556 44 21.5C44 16.1957 41.8929 11.1086 38.1421 7.35786C34.3914 3.60714 29.3043 1.5 24 1.5ZM24 38.5C20.3905 38.5 16.862 37.4297 13.8609 35.4243C10.8597 33.419 8.52051 30.5687 7.13921 27.234C5.75791 23.8992 5.3965 20.2298 6.10068 16.6896C6.80486 13.1494 8.543 9.89761 11.0953 7.3453C13.6476 4.79299 16.8995 3.05485 20.4396 2.35067C23.9798 1.64649 27.6492 2.0079 30.984 3.3892C34.3187 4.7705 37.169 7.10965 39.1743 10.1108C41.1797 13.112 42.25 16.6405 42.25 20.25C42.25 25.0902 40.3272 29.7322 36.9047 33.1547C33.4822 36.5772 28.8402 38.5 24 38.5Z" fill="#EBCB00"/>
<path d="M18 5.5C18 5.89782 18.6321 6.27936 19.7574 6.56066C20.8826 6.84196 22.4087 7 24 7C25.5913 7 27.1174 6.84196 28.2426 6.56066C29.3679 6.27936 30 5.89782 30 5.5C30 5.10218 29.3679 4.72064 28.2426 4.43934C27.1174 4.15804 25.5913 4 24 4C22.4087 4 20.8826 4.15804 19.7574 4.43934C18.6321 4.72064 18 5.10218 18 5.5Z" fill="#FFF48C"/>
<path d="M4 21.5C4 26.8043 6.10714 31.8914 9.85786 35.6421C13.6086 39.3929 18.6957 41.5 24 41.5C29.3043 41.5 34.3914 39.3929 38.1421 35.6421C41.8929 31.8914 44 26.8043 44 21.5C44 16.1957 41.8929 11.1086 38.1421 7.35786C34.3914 3.60714 29.3043 1.5 24 1.5C18.6957 1.5 13.6086 3.60714 9.85786 7.35786C6.10714 11.1086 4 16.1957 4 21.5Z" stroke="#45413C" stroke-linecap="round" stroke-linejoin="round"/>
<path d="M19 31.5C20.48 30.5111 22.22 29.9833 24 29.9833C25.78 29.9833 27.52 30.5111 29 31.5" stroke="#45413C" stroke-linecap="round"/>
<path opacity="0.15" d="M8 45.5C8 45.8978 9.68571 46.2794 12.6863 46.5607C15.6869 46.842 19.7565 47 24 47C28.2435 47 32.3131 46.842 35.3137 46.5607C38.3143 46.2794 40 45.8978 40 45.5C40 45.1022 38.3143 44.7206 35.3137 44.4393C32.3131 44.158 28.2435 44 24 44C19.7565 44 15.6869 44.158 12.6863 44.4393C9.68571 44.7206 8 45.1022 8 45.5Z" fill="#45413C"/>
<path d="M15 21.5C15 21.6978 14.9414 21.8911 14.8315 22.0556C14.7216 22.22 14.5654 22.3482 14.3827 22.4239C14.2 22.4996 13.9989 22.5194 13.8049 22.4808C13.6109 22.4422 13.4327 22.347 13.2929 22.2071C13.153 22.0673 13.0578 21.8891 13.0192 21.6951C12.9806 21.5011 13.0004 21.3 13.0761 21.1173C13.1518 20.9346 13.28 20.7784 13.4444 20.6685C13.6089 20.5586 13.8022 20.5 14 20.5C14.2652 20.5 14.5196 20.6054 14.7071 20.7929C14.8946 20.9804 15 21.2348 15 21.5Z" fill="#45413C" stroke="#45413C" stroke-linecap="round" stroke-linejoin="round"/>
<path d="M34.5 21.5C34.5 21.6978 34.4414 21.8911 34.3315 22.0556C34.2216 22.22 34.0654 22.3482 33.8827 22.4239C33.7 22.4996 33.4989 22.5194 33.3049 22.4808C33.1109 22.4422 32.9327 22.347 32.7929 22.2071C32.653 22.0673 32.5578 21.8891 32.5192 21.6951C32.4806 21.5011 32.5004 21.3 32.5761 21.1173C32.6518 20.9346 32.78 20.7784 32.9444 20.6685C33.1089 20.5586 33.3022 20.5 33.5 20.5C33.7652 20.5 34.0196 20.6054 34.2071 20.7929C34.3946 20.9804 34.5 21.2348 34.5 21.5Z" fill="#45413C" stroke="#45413C" stroke-linecap="round" stroke-linejoin="round"/>
<path d="M13 17.16C14.1737 16.9708 15.3107 16.5997 16.37 16.06C17.4333 15.5307 18.4055 14.8353 19.25 14" stroke="#45413C" stroke-linecap="round" stroke-linejoin="round"/>
<path d="M34.75 17.16C32.3919 16.7726 30.2099 15.6694 28.5 14" stroke="#45413C" stroke-linecap="round" stroke-linejoin="round"/>
<path d="M38.5 26.5C38.5 27.33 37.38 28 36 28C34.62 28 33.5 27.33 33.5 26.5C33.5 25.67 34.62 25 36 25C37.38 25 38.5 25.67 38.5 26.5Z" fill="#FFAA54"/>
<path d="M9.5 26.5C9.5 27.33 10.62 28 12 28C13.38 28 14.5 27.33 14.5 26.5C14.5 25.67 13.38 25 12 25C10.62 25 9.5 25.67 9.5 26.5Z" fill="#FFAA54"/>
</svg>
