<svg viewBox="0 0 2000 2000" xmlns="http://www.w3.org/2000/svg">
     
        <g>
            <path d="M1845.5 1056.1c0 93.3-15.1 183.2-43.1 267.1-111.8 335.9-428.7 578.1-802.1 578.1-194.3 0-373.3-65.6-516-175.8-14.7-11.3-28.9-23.1-42.8-35.4-4.6-4-9.2-8.2-13.8-12.4-12.2-11.2-24.2-22.9-35.8-34.9-21.8-22.6-42.3-46.4-61.4-71.3-110-142.7-175.4-321.4-175.4-515.5 0-466.8 378.4-845.2 845.2-845.2 466.8.1 845.2 378.5 845.2 845.3z" fill="#efe7e4"/>
            <path d="M484.3 1725.6c-32.8-25.3-63.6-53-92.4-82.7-21.8-22.6-42.3-46.4-61.4-71.3 16.9-70 33.6-118.9 48.7-130.9z" fill="#1c1c1c"/>
            <path d="m867 1134.9 100.7 282.9 100.1 4.9 269-73.4s-35.2-201.7-111.1-376.3c-81.1-186.5-91.4-238.6-91.4-238.6z" fill="#ffb391"/>
            <path d="m876.9 1172.3 37.7 96.4s74.8-22.9 116.8-121.7 13.9-153.6 13.9-153.6z" fill="#f19267"/>
            <path d="M747.9 250.6c441.3 21.5 455.5 972.3 35.1 990-420.3 17.7-400.6-1007.8-35.1-990z" fill="#ffb391"/>
            <path d="M1178.9 856.5s36.9 167.7 71.2 159.3c57.4-14.1 7-144 7-144s24.4 87 66.1 62.4c41.7-24.5-6.5-222.4-6.5-222.4s41.2 83.6 82.9 47.5c41.8-36-122.7-497.5-192.3-554.4-51.2-41.9-102.7 3.3-102.7 3.3s4.8-96.6-188.7-134.8C781.2 47 345.2 214.6 318.3 312c-15.3 55.4 53.4 54.8 53.4 54.8S229 426.6 266.2 499.5c31.8 62.1 148 7.2 148 7.2s-47.1 71.4 26.5 69.6c114.2-2.8 209.7-108.9 209.7-108.9s29 35.7 132 7.3c61.1-16.8 134.8-66.1 134.8-66.1s2.5 281.1 49 288.1c36.6 5.5 34.6-73.1 34.6-73.1s-15.6 100.3 39.6 107.3 33 35.1 33 35.1z" fill="#94a9fa"/>
            <ellipse cx="1157.7" cy="745.4" fill="#ffb391" rx="182.1" ry="127.2" transform="rotate(-40.173 1157.563 745.375)"/>
            <path d="M1198.3 702.1c-55.9-5.1-88.9 48.1-105.5 93.6-2.7 7.5 8.2 10.5 11.4 3.8 12.2-25.8 39.2-42.6 67.8-41.4 7.7.3 8.3-11.7.6-12-34.4-1.5-65.2 18.9-79.8 49.6 3.8 1.3 7.6 2.5 11.4 3.8 14.7-40.5 43.2-90 93.5-85.4 7.8.7 8.3-11.3.6-12z" fill="#f19267"/>
            <g fill="#1c1c1c">
                <path d="M489.6 747.7c18.6-29.3 57.4-21.6 74.7 4.6 4.2 6.4 14.9.9 10.7-5.6-10.9-16.5-27.7-29.1-48-30.3-19.1-1.1-37.2 8.6-47.4 24.6-4.3 6.6 5.8 13.2 10 6.7zM739.2 735.5c11.2-21 31.2-36.6 55.1-39.6 25.1-3.2 49.6 9.1 64.7 28.8 4.7 6.1 13.6-2 8.9-8.1-17.2-22.4-45-35.6-73.4-32.8-27.8 2.8-52.4 20.7-65.4 45.1-3.6 6.8 6.5 13.4 10.1 6.6z"/>
                <path d="M513 727.3s6.3 56.7 33.2 54.5c26.9-2.3 10.4-47.3 10.4-47.3s-15.1-21.1-43.6-7.2zM790.7 695.7s5.3 60.9 36.9 58.6 13.1-52.5 13.1-52.5-16.6-20.9-50-6.1z"/>
                <path d="M523.2 662.6c37.4-5.7 68.2 24.1 79 57.6 11.5 35.8 4.9 74.2-7.3 108.8-6.4 18.3-14.8 35.7-22.3 53.5-6.3 14.9-13 32-12.3 48.5.8 21.4 20.7 31.5 39.3 35.2 31.3 6.3 64.7 2.4 95.9-2.7 7.6-1.2 5-13-2.6-11.7-29 4.7-60.3 8.6-89.5 3-9.7-1.8-21.7-5.1-27.7-13.6-8.1-11.5-1-29.8 3.1-41.5 12.7-36.1 31.5-68.9 38.4-107.1 5.9-32.4 3.8-67.8-12.6-97-16.8-29.8-49.3-50-84-44.7-7.7 1.2-5.1 12.9 2.6 11.7z"/>
            </g>
            <path d="M683.2 665.7c25.8 20.2 54.3-9.5 54.3-9.5s11.8 12.8 44.6 6.6 46.8-23.5 46.8-23.5 44.5 4.1 49.1-17c5.4-24.9-47.1-22.7-47.1-22.7s-21.3-28.5-53-23.9-27.4 23.1-27.4 23.1-33-14.9-56.1.8-21.3 36.2-21.3 36.2-14.3 1.9-12.8 18.4c1.5 16.4 22.9 11.5 22.9 11.5zM573.3 679.9c-16.2 24.2-47.2 5.5-47.2 5.5s-6.5 14.2-35.1 17.1c-28.6 3-42.3-3.8-51.4-21.1-10.7-20.4 5.7-52.1 33-56.2s28.4 13.2 28.4 13.2 23.5-21.4 46.5-13.6 26.7 26.2 26.7 26.2 12.3-2 15.2 12.8c2.8 14.9-16.1 16.1-16.1 16.1z" fill="#fff"/>
            <path d="M729.7 761.6c11.8 24.7 37.1 35.1 62.6 40.1 7.5 1.5 11.3-9.9 3.8-11.4-22.4-4.4-45.2-12.3-55.7-34.2-3.4-7-14.1-1.5-10.7 5.5zM547.8 809.8c14.2-10.6 28.1-23.2 27.9-42.3-.1-7.7-12.1-8.3-12-.6.2 15.8-12.4 25.4-24 34-6.2 4.6 2 13.5 8.1 8.9z" fill="#f19267"/>
            <path d="M716.2 1032.2c32.7 5.4 65.2-9.1 84.9-35.3 4.7-6.2-5.4-12.7-10.1-6.6-17.4 23-45.8 34.5-74.3 29.8-7.6-1.1-8.1 10.9-.5 12.1z" fill="#1c1c1c"/>
            <path d="M743.7 954.7c42.9 29.3 96.5 39.5 147.1 27.4 7.5-1.8 4.9-13.5-2.6-11.7-47.6 11.3-97.5 1.8-137.9-25.8-6.4-4.4-12.9 5.7-6.6 10.1zM744.2 1083.5c24.8-22.7 56.7-35.3 90.4-34.8 7.7.1 8.3-11.9.6-12-36.8-.6-71.9 13.1-99 37.9-5.8 5.2 2.3 14.1 8 8.9z" fill="#f19267"/>
            <path d="M1802.4 1323.3c-111.8 335.9-428.7 578.1-802.1 578.1-238.9 0-454.7-99.1-608.3-258.5-25.6-106.5-35.8-172.7-12.7-202.1 76-96.9 484.8-116.1 551.8-121l141.8 91.7 253-119.7c42.3-6.5 335.7 12.9 476.5 31.5z" fill="#1c1c1c"/>
            <path d="M931 1319.7c-15.8 7.7-89 257.4-71.4 267.3 17.7 9.9 210.4-154.2 210.4-154.2s190.5 207.9 201.1 199.8c10.6-8 73.9-325.3 58.3-341.4-15.7-16.1-256.6 120.1-256.6 120.1z" fill="#ffeee6"/>
            <path d="M441.5 1690.1c-4.6-4-9.2-8.2-13.8-12.4-7.7-51.2-14.6-102.5-20.3-154.1-.8-7.6 10.9-10.3 11.8-2.6 6.2 56.6 13.6 112.9 22.3 169.1z" fill="#5d5d5d"/>
            <path d="M458.3 897.5c-69.4-3.4-123-65.1-119.4-137.6 3.5-72.5 62.9-128.7 132.3-125.3s123 65.1 119.4 137.6-62.9 128.7-132.3 125.3zm12.2-250.9c-62.8-3.1-116.5 48-119.7 113.9-3.2 65.8 45.2 121.9 108 125s116.5-48 119.7-113.9c3.3-65.8-45.2-121.9-108-125zM796.5 893.3c-73.3-3.6-130-65.4-126.5-137.9s66-128.5 139.3-124.9 130 65.4 126.5 137.9-66.1 128.5-139.3 124.9zm12.2-250.8C742 639.2 685.2 690.1 682 756c-3.2 65.8 48.4 122.1 115.1 125.3 66.7 3.3 123.5-47.7 126.7-113.5s-48.4-122.1-115.1-125.3z" fill="#1c1c1c"/>
            <path d="M594.6 776.6c24.6-15 54.2-13.6 78.4 1.5 6.6 4.1 13.1-6 6.6-10.1-27.6-17.3-62.3-19.3-90.5-2.1-6.6 4.1-1.1 14.8 5.5 10.7zM920.2 712.9c36.6-24.3 68.8-54.5 103.4-81.4 17.7-13.8 36.1-26.9 55.9-37.4 9.6-5.1 19.5-9.6 29.8-13 9.9-3.3 34.3-7.8 32.7 9.9-.7 7.7 11.3 8.3 12 .6 1-10.3-5.3-19-14.5-23.3-10.5-4.8-22.4-2.4-32.8 1.1-23.8 7.8-45.7 20.6-66.2 34.8-43.7 30.4-81.5 68.6-125.8 98.2-6.4 4.1-1 14.8 5.5 10.5z" fill="#1c1c1c"/>
            <path d="M1033.2 361.2c-1.6 25.7-3.3 51.6-1.9 77.3 1.2 22.3 3.2 48.1 13.2 68.5 8 16.1 26.8 23.7 41.2 10.8 16.1-14.5 25-36.2 27.8-57.2l-12-.6c-.6 21.7 4.8 43.2 16.5 61.6 9.2 14.4 25.6 31.8 44.7 26.3 18.7-5.4 22-30.3 23.6-46.5 2.4-23.7-1.4-47.3-9.9-69.5-2.8-7.2-13.4-1.6-10.7 5.6 6.3 16.3 9.5 33.7 9.3 51.2-.2 12.7-.4 40-13.8 46.9-16 8.2-31.8-16.9-37.4-28-7.4-14.6-10.7-30.6-10.3-47 .2-7.8-11-8.2-12-.6-2.3 17.2-9.8 36.1-22.9 48-20.4 18.6-28.8-21.5-31.2-34.2-7.1-36.9-4.6-74.8-2.2-112.1.5-7.7-11.5-8.3-12-.5zM843.4 160c-47.2-27.2-105.6-32.3-156.9-14.3-23.7 8.3-49.6 21.6-64.8 42.3-13.5 18.3-13.6 47.9 9 59.3 1.2-3.7 2.4-7.4 3.6-11-56.1-7.8-124.6 19.2-147.3 74.4-9.5 23.1-8.4 51.8 13.3 67.6 24 17.6 57.6 8.8 83.3.5 7.3-2.4 4.8-14.1-2.6-11.7-21.6 7-50.8 16.2-71.8 2.8-22.5-14.3-17.7-44.1-6.4-64.1 25-44.2 82.7-64.1 131-57.4 5.7.8 8.9-8.4 3.6-11-10.4-5.2-14.8-16.6-12.6-27.9 2.4-11.7 11.6-20.9 20.5-28.1 17.8-14.1 39.4-23.6 61.3-28.9 43.8-10.7 91.2-4.7 130.3 17.8 6.6 3.6 13.2-6.4 6.5-10.3zM737 327.7c-11.8 14.5-9.3 36.2 3.2 49.5 14.8 15.7 39 18.2 58.9 12.6 23.4-6.6 44-22.7 62.3-38.2 21.1-17.8 40.2-37.9 59-58.1 5.2-5.6-2.8-14.6-8.1-8.9-27.8 30-56.8 61.3-92.1 82.6-16.7 10.1-36.7 17.4-56.1 11.1-18.2-5.9-30.6-27.3-17.1-43.9 5-6.1-5.1-12.6-10-6.7z" fill="#fff"/>
        </g>
     
</svg>
