<svg viewBox="0 0 2000 2000" xmlns="http://www.w3.org/2000/svg">
     
        <g fill="#030303">
            <path d="M1831.1 1076.7c0 198.8-69.9 381.3-186.3 524.3-56.8 69.7-124.6 130.1-200.9 178.4-3.6 2.2-7.3 4.5-10.9 6.7-126 77.1-274.1 121.4-432.6 121.4-357.4 0-662.1-225.7-779.3-542.4-33.3-89.8-51.5-187-51.5-288.4 0-458.8 371.9-830.8 830.8-830.8 458.7 0 830.7 372 830.7 830.8z" fill="#aebfff"/>
            <path d="M1644.7 1601c-152.3 187-384.4 306.5-644.4 306.5-357.4 0-662.1-225.7-779.3-542.4 89.2-65.4 277.9-100 277.9-100l781.6-1.1s104.3 19.5 195.1 55.3c24.8 9.9 94.3 134.7 169.1 281.7zM1332.9 245.2c66.3 59.3 110 143 120.7 231.2 10.7 88.1-11.9 179.9-62.1 253.1-17.3 25.3-37.8 48.3-54.6 74-16.8 25.6-30.1 54.7-30.7 85.3s13.6 62.8 40.7 77.3 66.3 5.3 79-22.5c2.4 70.5-40.7 124.4-117.9 149.2-67.3 21.7-231.1 12.7-295.5-16.4-55.9-25.3-13.9-49.7-30.8-108.6-14.5-50.5-2-105.5 21.8-152.4s58-87.5 90-129.2c103-134.7 184.6-285.7 239.4-441z" fill="#323232"/>
            <path d="m790.2 721.4-44.4 468.1L496 1264l547.5 455.7 237-455.7-263.8-69.9 14-258.5z" fill="#ffc3a8"/>
            <path d="m1029.4 979.6-7.6 119.7s-95.9-15.8-133.6-73.6c-37.6-57.8-42.6-145.8-42.6-145.8z" fill="#ffb999"/>
            <path d="M1150.3 1009.8c49.5 51.3 131.4 52.5 182.7 3.2 5.5-5.3-2.9-13.7-8.4-8.4-46.7 45-120.9 43.4-165.9-3.2-5.3-5.5-13.7 2.9-8.4 8.4z" fill="#5c5c5c"/>
            <path d="M1060.6 174.3c318.6-38.7 468.3 811.1 52.7 861.6-415.7 50.4-436.2-815.1-52.7-861.6z" fill="#ffc3a8"/>
            <path d="M1361.3 564.4c-13.8-65.2-49.6-129.5-98.2-177.9-106.6-106.4-205.3-103-205.3-103S945.2 464.6 773.5 527.6c-51.4-105.4-39.8-186.5 41.2-271.4 67-70.1 166.4-111.1 262.2-126.6 143-23.1 280.9 120.4 334.5 215.4 56.3 99.7 24.4 197-50.1 219.4z" fill="#323232"/>
            <path d="M804 704.5c12.6 107.3 31.7 269.3 192.1 257-40.5 68.4-114.3 86.1-217.3 86.1-59.7 0-127.9-27.1-170.5-68.5-42.8-41.6-61.7-101.7-71.7-160.4-26.2-153.5-1.3-315.3 70-454 45.1-87.7 117-173.2 202.1-223.7s154.9-32.5 248.7-.5c-113.8 76.4-178 150.8-240.6 272.3-27.1 52.6-48.6 108.7-55.7 167.3-7.3 58.6 21.2 103.4 42.9 124.4z" fill="#323232"/>
            <path d="M992.2 225.3c-54.5 100.8-136 186.1-233.9 245.6-27.8 16.9-56.8 31.6-86.8 44.1-7 2.9-3.9 14.4 3.2 11.5 107.9-44.8 202.6-118 273.4-210.9 20.3-26.6 38.4-54.8 54.4-84.3 3.6-6.8-6.7-12.8-10.3-6zM664.6 654.5c-6.6 53.1-1.9 109.8 25.2 157 22.8 39.6 60.9 70.9 106.2 79.8 7.5 1.5 10.7-10 3.2-11.5-43.5-8.5-79.4-38.6-100.6-76.9-24.9-45-28.4-98.3-22.1-148.4 1-7.6-10.9-7.5-11.9 0z" fill="#5c5c5c"/>
            <ellipse cx="762.9" cy="617.4" fill="#ffc3a8" rx="113.2" ry="152" transform="rotate(-58.707 762.913 617.45)"/>
            <path d="M729.2 607.1c17.4-10.1 41-10.4 56.8 3.2 15.9 13.7 19.6 36.5 23 56 3.8-1.1 7.6-2.1 11.5-3.2-12.2-32.3-47.1-48.7-79.6-35.8-7 2.8-4 14.3 3.2 11.5 26-10.3 54.9.9 65 27.5 2.7 7.2 12.8 4.4 11.5-3.2-4.2-24.1-10-50.9-31.7-65.6-19.5-13.2-45.6-12.3-65.6-.7-6.7 3.9-.7 14.1 5.9 10.3z" fill="#ffb999"/>
            <g fill="#323232">
                <path d="M1330.2 528.5c-50.2 15.4-73.1 73.1-82.5 120-5.6 28.3-6.8 57.5-3.1 86.1.8 6.3 1.8 12.5 3 18.7.8 4 1.7 7.9 2.6 11.8.8 3.1 3.4 8.3 3 11.4-1.9 16.6-34.4 15.6-46.3 14.2-7.6-.9-7.5 11 0 11.9 17.1 2 61.4 0 58.4-26.1-1.8-15.2-7.5-30-9.2-45.4-1.8-15.5-2.2-31.2-1.2-46.7 2-30.4 9.2-61.3 22.4-88.8 11.7-24.4 29.2-47.5 56-55.7 7.4-2.2 4.3-13.6-3.1-11.4z"/>
                <path d="M1291.6 652.9c3.7-10.9 11-20.2 22.2-24.2 11.7-4.1 21.5 0 32.1 5.2 9.3 4.6 19 8.8 29.6 7.4 8-1.1 18.2-6 17.6-15.3-.5-7.6-12.3-7.6-11.9 0 .3 5.7-15.9 3.2-18.1 2.5-6.5-1.9-12.3-5.6-18.4-8.3-8.4-3.8-16.9-6-26.2-4.7-19 2.7-32.4 16.7-38.4 34.3-2.5 7.2 9 10.3 11.5 3.1zM1160.4 635.6c-.8-26.3-20.3-47.6-45-54.9-14.2-4.2-29.4-4-43.8-1.2-8 1.6-15.5 4.4-23.2 6.8-4.7 1.5-9.5 2.9-14.5 2.7-2.9-.1-21-6.1-11.3-11.6 6.7-3.8.7-14-6-10.3-11.2 6.3-9.8 20.7-.3 28.1 13.6 10.6 30.7 3.7 45.1-.8 18.7-5.9 40.1-8 58.4.5 16 7.5 28.1 22.7 28.7 40.7.3 7.6 12.2 7.6 11.9 0zM1206.7 534.8c-53.2-51.2-131.9-56.4-197.2-26.7-6.9 3.2-.9 13.4 6 10.3 60.3-27.5 133.8-22.4 182.8 24.8 5.5 5.3 13.9-3.1 8.4-8.4z"/>
                <ellipse cx="1077" cy="617.4" rx="32.4" ry="20.7" transform="rotate(-79.164 1076.91 617.428)"/>
                <ellipse cx="1318.7" cy="651.3" rx="29" ry="17.6" transform="rotate(-81.136 1318.612 651.29)"/>
                <path d="M1114.3 845.5c15.1 15.6 37.4 21.2 58.1 14.6 7.2-2.3 4.1-13.8-3.2-11.5-16.8 5.4-34.2 1.2-46.5-11.5-5.3-5.5-13.7 2.9-8.4 8.4z"/>
            </g>
            <path d="M1073.3 223c75-12.8 153.6 9.9 213.2 56.4 61.2 47.9 98.6 120.4 107.5 197.1 5.2 44.4 1.1 89.5-12 132.3-2.2 7.3 9.2 10.5 11.5 3.2 24-78.9 18.2-166.1-17.9-240.5-34.9-72-99.4-126.6-175.6-150.7-42-13.3-86.5-16.6-129.9-9.2-7.4 1.3-4.2 12.7 3.2 11.4z" fill="#5c5c5c"/>
            <path d="M1443.8 1779.3c-3.6 2.2-7.3 4.5-10.9 6.7-4-22.8-8.3-45.6-12.3-68.4-1.3-7.5 10.2-10.7 11.5-3.2 3.7 21.7 7.8 43.3 11.7 64.9zM1081.5 1840.3c64.6-142.3 133.4-283.7 206.7-424.1 20.6-39.4 41.5-78.7 62.7-117.9 3.2-5.9-10.8-8.5-13.9-2.6-75.7 139.8-147 280.6-214 422.4-18.8 39.8-37.2 79.6-55.3 119.6-2.9 6.1 11 8.7 13.8 2.6z" fill="#ffeee6"/>
            <path d="M1077.8 1833.5c-155.7-145.1-329.3-289-496-423.9-48.3-39.1-97-77.8-146.1-116.1-5.2-4.1-14.7 7.4-9.4 11.5 172.1 134.4 341.4 268.9 503 413.5 43.4 38.9 97.6 85.6 140.1 125.3 4.9 4.5 13.3-5.8 8.4-10.3z" fill="#ffeee6"/>
            <path d="M636.1 1285.9c46.3-1.7 92.6-.1 138.9 2.2 37.5 1.9 95.7-3.3 114.8 37.6 3.2 6.9 13.5.9 10.3-6-19.2-41.1-70.9-40.6-109.5-42.7-51.5-2.8-103-5-154.5-3.1-7.6.4-7.7 12.3 0 12zM1014.5 1318.1c13.7-21.7 41.9-25.9 65.3-29.7 32.9-5.2 65.8-10.4 98.6-15.6 7.5-1.2 4.3-12.6-3.2-11.5-35.8 5.7-71.7 10.8-107.4 17-24.3 4.2-49.7 11.7-63.6 33.7-4 6.6 6.2 12.6 10.3 6.1z" fill="#ffb999"/>
            <path d="M1088.2 729.8c-7.5 0-15.2-.5-23-1.5-34.2-4.4-65.2-17.8-87.3-37.9-22.7-20.6-33.4-45.7-30.2-70.8 6.5-50.8 69.8-84.7 141.1-75.7 34.2 4.4 65.2 17.8 87.3 37.9 22.7 20.6 33.4 45.7 30.2 70.8-5.8 45.3-56.7 77.2-118.1 77.2zm-22.7-175.4c-55.4 0-101 27.5-106.1 66.8-2.7 21.1 6.7 42.5 26.4 60.4 20.3 18.5 49 30.8 80.8 34.9 64.8 8.3 122.2-21.1 127.8-65.4 2.7-21.1-6.7-42.5-26.4-60.4-20.3-18.5-49-30.8-80.8-34.9-7.3-1-14.6-1.4-21.7-1.4zM1374 755.5c-5.6 0-11.3-.4-17.1-1.1-27.3-3.5-52-14.8-69.5-32-18-17.6-26.4-39.1-23.6-60.7 5.6-43.8 56.5-73.5 113.4-66.3 27.3 3.5 52 14.8 69.5 32 18 17.6 26.4 39.1 23.6 60.7-5 39.4-46.6 67.4-96.3 67.4zm-13.9-149.2c-43.8 0-80.2 23.6-84.5 57-2.3 17.8 4.9 35.7 20.1 50.6 15.7 15.3 38 25.5 62.7 28.7 50.4 6.4 95.4-18.7 100.2-56 2.3-17.8-4.9-35.7-20.1-50.6-15.7-15.3-38-25.5-62.7-28.7-5.3-.7-10.6-1-15.7-1z" fill="#ff6d2a"/>
            <path d="M1204.9 674.3c15.6-10.8 43.2-23.9 56.6-2.6 4.1 6.4 14.4.5 10.3-6-17.3-27.4-51.2-16.6-72.9-1.6-6.2 4.3-.3 14.6 6 10.2zM970.8 570.1c-40.1-34.6-83.9-64.8-130.8-89.6-22.5-11.9-46.8-25.5-71.5-32.3-18.8-5.1-42.9 3.4-39.8 26.5 1 7.5 12.5 4.3 11.5-3.2-2.3-16.7 21.9-13.2 30.5-10.2 10.5 3.7 20.7 8.6 30.8 13.2 19.4 9 38.3 18.8 56.7 29.6 37 21.5 71.8 46.4 104.2 74.3 5.7 5 14.2-3.3 8.4-8.3z" fill="#ff6d2a"/>
            <path d="M924.6 176.6c-141.6 48.9-245 168.6-295.8 306.8-26.3 71.5-41.6 149.8-39.9 226.1 1.6 70.3 20.4 144.4 71.2 195.6 49.1 49.5 125.7 77.2 192.8 49.9 7-2.8 3.9-14.3-3.2-11.5-58.2 23.7-123.8 3.8-169.8-36.2-53.1-46.1-75-116.3-78.7-184.7-3.8-72.3 9.2-146.4 31.7-215 22.7-69.4 57.8-135.1 106-190.2 50.9-58.1 115.6-104.2 188.9-129.5 7.1-2.3 4.1-13.8-3.2-11.3z" fill="#5c5c5c"/>
        </g>
     
</svg>
