<svg viewBox="0 0 2000 2000" xmlns="http://www.w3.org/2000/svg">
     
        <g fill="#030303">
            <path d="M1823.9 1073.6c0 92.6-15.3 181.6-43.4 264.7-25.1 74-60.4 143.2-104.3 206.1-41.2 59.1-90 112.5-144.9 158.9h-.1c-143.4 121-328.6 194-530.9 194-174.8 0-336.9-54.5-470.2-147.4-31.9-22.1-62.1-46.5-90.4-72.9-18.8-17.5-36.7-35.8-53.8-54.9-130.1-145.6-209.2-337.8-209.2-548.5 0-454.9 368.7-823.6 823.6-823.6 454.9 0 823.6 368.8 823.6 823.6z" fill="#aebfff"/>
            <path d="M769.4 186.4c-52.2-32.1-156.5 21.5-209.9 88.4-84 105.4-28.7 204.3-96.6 320.6C442.1 631 408 660.8 402 701.7c-7.4 50.1 30.1 98.3 29.3 149.2-.5 34.6-18.6 65.8-32 97.5s-21.8 69.7-4 100c14.8 25.3 47.4 46.5 40.7 74.5-3 12.7-13.8 21.8-20.5 33-21.1 34.8 2.6 83.6 39 104.3s80.2 20.7 121.6 19.2 84.7-3.5 122.7 13.9c24.8 11.4 46.5 30.8 73.2 35.9 31.4 6 63.3-9.8 84.1-33.1s32.4-53.2 42.4-82.9c104.9-310.9 224-810.1-129.1-1026.8z" fill="#f7c6b0"/>
            <path d="M592.4 509.2c-34 42.9-37.3 97.7-45.6 149.6-4.3 27.1-10.3 53.9-22.7 78.6-12.8 25.4-30 48.5-41.9 74.4-10.2 22.4-15.6 46.1-11.4 70.7 4 23.1 15.8 44.1 28.4 63.7 13.7 21.4 29.3 42.1 39.4 65.5 12.9 29.9 9.1 59.7 5.3 91.2-3.5 29.1-4.6 63.4 15.7 87.2 16 18.7 45 27.2 66.4 12.8 7-4.7.4-16.1-6.6-11.4-24 16.2-51.8-5-59.8-28.4-9.4-27.6-2.2-57.5.6-85.5 2.5-25.4.1-49.1-10.2-72.6-9.1-20.6-22.1-39.1-34.4-57.8-12.2-18.6-24.5-37.9-30.2-59.7-6.6-25.4-1-50.5 10.3-73.6s26.3-44.1 38.2-66.9c11.2-21.5 18.2-44.4 22.7-68.1 10.3-53.9 9.4-115.4 45.1-160.5 5.3-6.5-4-15.9-9.3-9.2zM728.3 986.4c-10.4 38.3-1.1 72.6 17.2 106.5 14.2 26.3 37.7 73.8 2.8 95.6-7.2 4.5-.6 15.9 6.6 11.4 29.2-18.2 28.1-56.9 16.2-85.2-8-19.1-20.1-36.2-27.4-55.6-8.4-22.3-8.9-46.3-2.7-69.1 2.2-8.3-10.5-11.8-12.7-3.6z" fill="#fcfdff"/>
            <path d="m888 1011.9-8.5 248.8s-41.4 172.2 84.9 189.9c150.5 21.1 203.2-206.2 203.2-206.2V789.8L986 801.4z" fill="#ffb999"/>
            <path d="M883.9 1018.2v113s51.3-3 108.7-66.3 62.4-155.8 62.4-155.8z" fill="#f19165"/>
            <path d="M1676.2 1544.4c-148.8 213.3-396 352.9-675.9 352.9-216.6 0-413.6-83.6-560.6-220.3 57.1-178.9 127.1-341.6 139.5-388.5 24-90.8 284.5-68.7 284.5-68.7l9.3-98.9 294.5-20.4 16 105.8s410.8-.9 472.3 60.8c17 17.1 22.3 125.8 20.4 277.3z" fill="#323232"/>
            <path d="M1040 1215.5c-50.9 9-103 9.8-154.1 2.3-8.3-1.2-11.9 11.5-3.5 12.7 53.7 7.9 107.7 7.2 161.1-2.3 8.3-1.4 4.8-14.1-3.5-12.7z" fill="#fcfdff"/>
            <path d="M734.2 202.6c52.2-72.2 147.8-108.6 238-97.1s173.1 67.8 223.1 143.9c40.4 61.4 61.4 135.3 112.2 188.7 43.2 45.4 103.3 70.8 151.7 110.7s85.7 107.4 58.6 162.3c-15.4 31.1-48.4 51.2-61.1 83.5-21.1 54.1 23 111.9 66.8 152s95.1 86.3 91.9 144.5c-3.4 61.9-67.4 102.8-84.1 162.3-12.2 43.5 2.6 89.9 6 135.3s-12.1 99.6-56 111.7c-38.5 10.6-85.2-15.7-118 6.4-21.4 14.4-27.1 44-47.2 60.1-33.9 27.3-86.6 1.7-115.9-31.7s-51.9-76.2-92.8-93.8c-46.7-20-165.1-29.5-114.2-166.7 54.7-147.5 158.7-98.4 126.9-210.8-27.8-98.2-75.5-132.9 8-214.6 23.3-22.8 104.2 55.6 106.3-69.2 1.4-87.2-56-167.1-124.9-223s-150.2-94.5-223.1-145.2S746 292.7 734.2 202.6z" fill="#f7c6b0"/>
            <path d="M755.5 1076.8c343.4 82.6 602.9-743.5 173.6-846.7-423.8-101.9-517 764.1-173.6 846.7z" fill="#ffb999"/>
            <path d="M741.8 237.6c5.5 59.4 52.6 135.3 99.7 166.9 47 31.5 108.7 39.5 164.7 21.3-18.3 49.6-10.4 107.2 20.2 146.2s94 76.1 147.3 69.4c33.7-73-2.7-175-37.9-242.6-30.8-59.1-69.9-114.4-122.3-153.2s-119.4-59.8-185.2-47.4c-17.1 3.2-34.4 8.9-48.6 20-14.4 11.1-39.1 6.6-37.9 19.4z" fill="#f7c6b0"/>
            <path d="M792.4 225.3c55.5 91.3 154.6 152.3 261 161.2l-6.6-6.6c-6 103.6 43.7 205.5 126 267.8 6.8 5.1 13.3-6.3 6.6-11.4-78.7-59.5-125.1-157.8-119.5-256.5.2-3.8-3.2-6.3-6.6-6.6-101.6-8.5-196.6-67.6-249.6-154.7-4.3-7.1-15.7-.5-11.3 6.8z" fill="#fcfdff"/>
            <ellipse cx="1184.1" cy="740.2" fill="#ffb999" rx="122.5" ry="131.9" transform="rotate(-59.601 1184.096 740.221)"/>
            <path d="M597.6 535.2c32.3 6.8 67.1 23.1 79.8 55.9 13 33.3 2.9 73.9-7.9 106.5-5.8 17.5-13.2 34.5-22.2 50.6-7.3 13.2-20 27.1-20.4 42.9-.9 33.3 55.9 36.3 78.6 35.4 8.4-.3 8.5-13.5 0-13.2-18.4.7-40-1.1-56.7-9.9-20.7-10.9 4.5-38.6 11.7-51.9 16.5-30.5 28-64 33.3-98.4 4.7-30.8 3.4-63.4-16.9-88.8-18.6-23.2-47.3-35.8-75.8-41.8-8.3-1.7-11.8 11-3.5 12.7zM951.6 533.7c-66.3-31.8-146.1-19.4-196.6 35-5.8 6.2 3.5 15.5 9.3 9.3 46.3-49.9 119.6-62.2 180.7-33 7.6 3.8 14.3-7.6 6.6-11.3zM823.1 852.4c6.6 12.3-3.4 31.9-14.5 38.4-11.5 6.8-24.9 6.6-37 1.8-7.9-3.1-11.3 9.6-3.5 12.7 17.8 7 38.8 4.7 53.6-7.7 13.7-11.5 21.4-35.7 12.8-51.9-4-7.4-15.4-.8-11.4 6.7z" fill="#323232"/>
            <path d="M1233.6 728.1c-16.7-14.5-38.6-21.6-60.6-18.2-24.2 3.7-41.9 20.8-57.6 38.2-4.7 5.2 1.6 14.9 8 10.3 24.7-17.5 57.7-9.6 81.4 5.6 7.2 4.6 13.8-6.8 6.6-11.4-27.4-17.5-66.4-25.7-94.7-5.6 2.7 3.4 5.3 6.9 8 10.3 12.8-14.2 26.8-29.2 46.2-33.8 18.8-4.5 38.9 1.2 53.4 13.8 6.3 5.6 15.7-3.7 9.3-9.2z" fill="#f19165"/>
            <path d="M1374.8 591.2c51.9 46.2 20 120.9 9.7 177.3-11.6 63 1.8 127 35.5 181.2 16.9 27.3 37.8 53.4 46.8 84.7 4.5 15.7 6.1 32.7 1.5 48.6-4.2 14.5-13.8 25.5-24.5 35.7-19.3 18.5-37.9 35.7-41.1 63.7-3.3 28.9 8 57.3 13 85.4 5.7 32-1.8 61.8-25.7 84.6-22 21-53.2 31.5-83.1 25.1-8.3-1.8-11.8 10.9-3.5 12.7 50.8 10.9 104.7-19.9 122.4-68.7 10.4-28.8 2.7-58.7-4-87.4-3.7-15.8-7.5-32-6.2-48.3 1.4-16.9 9.6-30.4 21.3-42.3 20.7-21.1 42.8-38.2 46.6-69.7 3.9-32.2-9.5-63.2-25.9-90-18.6-30.5-39.7-58.6-51.3-92.7-11.6-34-15.6-70.5-11.1-106.2 8.4-65.5 49.5-149.2-11-203.1-6.4-5.5-15.7 3.8-9.4 9.4z" fill="#fcfdff"/>
            <path d="M1317.5 889.4c21.7 76.4-13.7 158-82.1 196.8-17.1 9.7-33.8 19.5-44.2 36.8-9.2 15.2-12.5 33.2-13.7 50.8-2.9 42.6 4 84.2-14.4 124.5-17.8 39.1-64.9 88.3-112 63.9-7.5-3.9-14.2 7.5-6.6 11.4 37.5 19.4 81-1.1 106.3-31.1 29.4-34.9 39.8-77.4 39.6-122.2-.1-22.2-1.7-45 3.1-66.8 5.5-25 20.6-40 42.4-52.4 35.6-20.3 64.4-46.2 82.4-83.8 19.6-40.8 24.5-87.7 12-131.4-2.5-8.2-15.2-4.7-12.8 3.5zM1125.4 320.6c-24.7-25.8-177.2 71.9-181.4 107.9-2.5 22 35.4 65.9 61.8 57.8 39.3-11.9 138-146.5 119.6-165.7zM1228.1 842c9.8 5.7 15.5 17.8 8.4 28.1-7 10.3-20.7 9.1-28.8 1-6-6-15.3 3.3-9.3 9.3 13.6 13.6 36.8 14.2 48.6-2.2 11.8-16.5 4.3-37.9-12.3-47.5-7.3-4.3-13.9 7-6.6 11.3z" fill="#fcfdff"/>
            <path d="M1180.3 835.2c13.6 7.3 7.7 27.7-.5 37.1-11.7 13.4-30.5 6.2-33.2-10.4-1.4-8.3-14.1-4.8-12.7 3.5 4.1 24.7 33.9 36 52.7 18.8 16.2-14.8 23-48.3.3-60.4-7.5-4-14.1 7.4-6.6 11.4z" fill="#fcfdff"/>
            <g fill="#323232">
                <path d="m619 1252.7-88.9 497.2c-31.9-22.1-62.1-46.5-90.4-72.9-18.8-17.5-36.7-35.8-53.8-54.9 48-163.8 121.9-321 233.1-369.4zM1780.4 1338.3c-25.1 74-60.4 143.2-104.3 206.1-41.2 59.1-90 112.5-144.9 158.9l27.1-91.1 71.9-359.5c56.4 19.4 106.3 49 150.2 85.6zM675.9 632.6c-12.4-19.9-31.3-36.3-55.3-38.9-27-2.9-45.4 12.3-59.3 33.9 3.4-.4 6.9-.9 10.3-1.3-6.1-5.9-12.1-11.9-18.2-17.8s-15.4 3.4-9.3 9.3 12.1 11.9 18.2 17.8c3.1 3.1 8 2.2 10.3-1.3 11.6-18.1 26.7-31 49.4-27.1 18.5 3.2 32.8 16.7 42.3 32.2 4.7 7.1 16.1.5 11.6-6.8z"/>
                <path d="M593.4 602.3c-5-4.2-9.7-8.7-14.1-13.6-2.4-2.6-6.9-2.4-9.3 0-2.6 2.6-2.4 6.7 0 9.3 4.4 4.8 9.1 9.4 14.1 13.6 2.7 2.3 6.7 2.7 9.3 0 2.3-2.3 2.7-6.9 0-9.3zM622.2 592.8c-2.5-5.1-5.1-10.3-7.6-15.4-1.6-3.2-6.1-4.1-9-2.4-3.3 1.9-3.9 5.8-2.4 9 2.5 5.1 5.1 10.3 7.6 15.4 1.6 3.2 6.1 4.1 9 2.4 3.3-1.9 3.9-5.8 2.4-9zM799.7 638.5c19.9-28.5 55.8-41.9 89.3-31.9 7.9 2.3 15.3 5.8 22.1 10.3 6.1 4 11.1 11 17.7 14 13.2 6 23.6-15.4 29.9-23.4 5.2-6.6-4.1-16-9.3-9.3-3.3 4.2-6.6 8.3-9.8 12.5-1.6 2.1-3.3 4.2-4.9 6.3-1.1 2.3-1.8 2.5-2 .6-2.1-.4-6.7-6-8.5-7.5-3-2.3-6.1-4.5-9.3-6.5-13.9-8.4-30.1-13.2-46.4-13.7-32.1-.9-61.9 15.8-80.1 41.8-5 7.1 6.4 13.7 11.3 6.8z"/>
                <path d="M915.8 584.2c-2.5 4.9-5.8 9.4-10.2 12.7-2.8 2.1-4.3 5.7-2.4 9 1.6 2.8 6.1 4.5 9 2.4 6.3-4.7 11.4-10.4 14.9-17.4 1.6-3.2.8-7.1-2.4-9-2.8-1.7-7.3-.9-8.9 2.3zM877.2 576.6c-1 3.9-2.6 7.8-5.1 11-2.2 2.8-2.7 6.6 0 9.3 2.3 2.3 7.1 2.8 9.3 0 4-5.1 6.9-10.5 8.5-16.8 2.1-8.2-10.6-11.7-12.7-3.5z"/>
                <ellipse cx="880.2" cy="627.8" rx="22.3" ry="33.8"/>
                <ellipse cx="627.4" cy="638.9" rx="22.3" ry="33.8"/>
            </g>
            <path d="M572.8 1295.3c-6.7 42.7-16.6 84.9-28.5 126.4-2.3 8.2 10.4 11.6 12.7 3.5 11.9-41.6 21.8-83.7 28.5-126.4 1.3-8.3-11.4-11.8-12.7-3.5z" fill="#fcfdff"/>
        </g>
     
</svg>
