<svg xmlns="http://www.w3.org/2000/svg" enable-background="new 0 0 100 100" viewBox="0 0 100 100"><path fill="#ffb999" d="M50,5C30.977,5,15.5,19.764,15.5,37.91v48.626c0,4.667,3.824,8.464,8.525,8.464
	c4.698,0,8.521-3.797,8.521-8.464v-3.759c0-2.445,2.003-4.435,4.463-4.435c2.463,0,4.466,1.989,4.466,4.435v3.759
	C41.476,91.203,45.299,95,50,95s8.524-3.797,8.524-8.464v-3.759c0-2.445,2.003-4.435,4.463-4.435c2.462,0,4.466,1.989,4.466,4.435
	v3.759c0,4.667,3.824,8.464,8.522,8.464c4.701,0,8.524-3.797,8.524-8.464V37.91C84.5,19.764,69.023,5,50,5z M30.382,40.6
	c0,1.112-0.909,2.016-2.029,2.016s-2.03-0.903-2.03-2.016c0-5.555,4.553-10.074,10.147-10.074c5.594,0,10.147,4.52,10.147,10.074
	c0,1.112-0.909,2.016-2.03,2.016c-1.12,0-2.029-0.903-2.029-2.016c0-3.332-2.732-6.045-6.088-6.045S30.382,37.268,30.382,40.6z
	 M66.912,63.973c0,1.113-0.909,2.016-2.03,2.016c-0.629,0-1.189-0.283-1.562-0.729c-3.43,2.968-8.596,4.345-13.355,4.345
	c0,0,0,0-0.003,0c-5.52-0.002-10.221-1.596-13.305-4.318c-0.373,0.43-0.925,0.703-1.541,0.703c-1.121,0-2.029-0.902-2.029-2.016
	v-4.701c0-1.01,0.753-1.862,1.762-1.996c1.002-0.137,1.958,0.493,2.226,1.469c1.289,4.718,7.401,6.827,12.887,6.83
	c5.523,0,11.672-2.112,12.962-6.83c0.266-0.976,1.242-1.605,2.225-1.469c1.009,0.134,1.763,0.986,1.763,1.996V63.973z
	 M71.647,42.615c-1.12,0-2.029-0.903-2.029-2.016c0-3.332-2.732-6.045-6.088-6.045s-6.088,2.713-6.088,6.045
	c0,1.112-0.909,2.016-2.029,2.016c-1.121,0-2.03-0.903-2.03-2.016c0-5.555,4.553-10.074,10.147-10.074
	c5.594,0,10.147,4.52,10.147,10.074C73.677,41.712,72.768,42.615,71.647,42.615z" class="colorf48264 svgShape"/></svg>