<svg xmlns="http://www.w3.org/2000/svg" enable-background="new 0 0 100 100" viewBox="0 0 100 100"><path fill="#ffb999" d="M50,5C30.977,5,15.5,19.764,15.5,37.91v48.626c0,4.667,3.824,8.464,8.525,8.464
	c4.697,0,8.521-3.797,8.521-8.464v-3.759c0-2.445,2.003-4.435,4.463-4.435c2.463,0,4.466,1.989,4.466,4.435v3.759
	C41.476,91.203,45.302,95,50,95c4.701,0,8.524-3.797,8.524-8.464v-3.759c0-2.445,2.003-4.435,4.464-4.435
	c2.462,0,4.465,1.989,4.465,4.435v3.759c0,4.667,3.824,8.464,8.522,8.464c4.7,0,8.524-3.797,8.524-8.464V37.91
	C84.5,19.764,69.023,5,50,5z M27,37.238c0-4.451,3.636-8.059,8.117-8.059c4.484,0,8.118,3.607,8.118,8.059
	c0,4.453-3.634,8.061-8.118,8.061C30.636,45.299,27,41.691,27,37.238z M66.912,63.973c0,1.113-0.909,2.016-2.029,2.016
	c-0.629,0-1.189-0.283-1.564-0.729c-3.43,2.968-8.594,4.343-13.353,4.345c-5.522,0-10.224-1.596-13.308-4.318
	c-0.373,0.43-0.925,0.703-1.541,0.703c-1.12,0-2.029-0.902-2.029-2.016v-4.701c0-1.01,0.754-1.862,1.76-1.996
	c1.025-0.15,1.961,0.496,2.229,1.469c1.291,4.718,7.404,6.83,12.89,6.83c5.521-0.003,11.669-2.112,12.959-6.83
	c0.267-0.973,1.202-1.623,2.228-1.469c1.006,0.134,1.76,0.986,1.76,1.996V63.973z M64.883,45.299c-4.482,0-8.118-3.607-8.118-8.061
	c0-4.451,3.636-8.059,8.118-8.059c4.484,0,8.117,3.607,8.117,8.059C73,41.691,69.367,45.299,64.883,45.299z" class="color2b3990 svgShape"/></svg>