<svg xmlns="http://www.w3.org/2000/svg" enable-background="new 0 0 100 100" viewBox="0 0 100 100"><path fill="#ffb999" d="M50,5C30.977,5,15.5,19.764,15.5,37.91v48.626c0,4.667,3.824,8.464,8.521,8.464
	c4.701,0,8.525-3.797,8.525-8.464v-3.759c0-2.445,2.003-4.435,4.466-4.435c2.46,0,4.463,1.989,4.463,4.437l0.003,3.757
	C41.479,91.203,45.302,95,50,95c4.701,0,8.524-3.797,8.524-8.464v-3.759c0-2.445,2.003-4.435,4.464-4.435
	c2.462,0,4.465,1.989,4.465,4.435v3.759c0,4.667,3.824,8.464,8.522,8.464c4.7,0,8.524-3.797,8.524-8.464V37.91
	C84.5,19.764,69.023,5,50,5z M66.912,63.973c0,1.113-0.909,2.016-2.029,2.016c-0.629,0-1.189-0.283-1.563-0.729
	c-3.43,2.968-8.593,4.343-13.352,4.345c-5.525,0-10.227-1.596-13.311-4.318c-0.373,0.43-0.925,0.703-1.541,0.703
	c-1.12,0-2.029-0.902-2.029-2.016v-4.701c0-1.01,0.754-1.862,1.76-1.996c1.028-0.137,1.961,0.493,2.229,1.469
	c1.291,4.718,7.404,6.83,12.893,6.83c5.52-0.003,11.666-2.112,12.956-6.83c0.267-0.976,1.239-1.605,2.225-1.469
	c1.009,0.134,1.763,0.986,1.763,1.996V63.973z M80.441,38.613l-4.205,1.672c-0.248,0.097-0.504,0.145-0.755,0.145v11.586
	l-20.218-3.4l-0.316-3.447h-9.895l-0.316,3.447l-20.218,3.4V40.43c-0.251,0-0.507-0.048-0.755-0.145l-4.205-1.672V37.91
	c0-1.201,0.104-2.377,0.254-3.539l4.706,1.871v-3.17l21.198,4.856l-0.293,3.209h9.152l-0.293-3.209l21.198-4.856v3.17l4.706-1.871
	c0.15,1.162,0.254,2.338,0.254,3.539V38.613z" class="colorf7941e svgShape"/></svg>