<svg xmlns="http://www.w3.org/2000/svg" enable-background="new 0 0 100 100" viewBox="0 0 100 100"><path fill="#ffb999" d="M50,5C30.977,5,15.5,19.764,15.5,37.91v48.626c0,4.667,3.824,8.464,8.525,8.464
	c4.697,0,8.521-3.797,8.521-8.464v-3.759c0-2.445,2.003-4.435,4.463-4.435c2.463,0,4.466,1.989,4.466,4.435v3.759
	C41.476,91.203,45.302,95,50,95c4.701,0,8.524-3.797,8.524-8.464v-3.759c0-2.445,2.003-4.435,4.464-4.435
	c2.462,0,4.465,1.989,4.465,4.435v3.759c0,4.667,3.824,8.464,8.522,8.464c4.7,0,8.524-3.797,8.524-8.464V37.91
	C84.5,19.764,69.023,5,50,5z M27,37.238c0-4.451,3.636-8.059,8.117-8.059c4.484,0,8.118,3.607,8.118,8.059
	c0,4.453-3.634,8.061-8.118,8.061C30.636,45.299,27,41.691,27,37.238z M66.912,67.589c0,1.01-0.754,1.862-1.76,1.996
	c-1.021,0.147-1.961-0.495-2.228-1.469c-1.29-4.718-7.438-6.827-12.959-6.829c-5.485,0-11.599,2.111-12.89,6.829
	c-0.24,0.887-1.055,1.487-1.959,1.487c-0.086,0-0.177-0.006-0.27-0.019c-1.006-0.134-1.76-0.986-1.76-1.996v-4.702
	c0-1.111,0.909-2.015,2.029-2.015c0.619,0,1.168,0.272,1.541,0.703c3.084-2.724,7.785-4.318,13.308-4.318
	c4.759,0.003,9.923,1.378,13.353,4.345c0.375-0.445,0.936-0.729,1.564-0.729c1.12,0,2.029,0.903,2.029,2.015V67.589z M64.883,45.299
	c-4.482,0-8.118-3.607-8.118-8.061c0-4.451,3.636-8.059,8.118-8.059c4.484,0,8.117,3.607,8.117,8.059
	C73,41.691,69.367,45.299,64.883,45.299z" class="color2b3990 svgShape"/></svg>