<svg xmlns="http://www.w3.org/2000/svg" enable-background="new 0 0 700 700" viewBox="0 0 700 700"><path d="M187.3527069,314.3986816c-0.1933594,0-0.3496094-0.1567383-0.3496094-0.3500977           c0-2.3227539,0.0498047-4.6811523,0.1474609-7.0097656c0.0078125-0.1928711,0.1689453-0.3461914,0.3642578-0.3349609           c0.1933594,0.0083008,0.3427734,0.1713867,0.3349609,0.3642578           c-0.0976563,2.3193359-0.1474609,4.6674805-0.1474609,6.9804688           C187.7023163,314.2419434,187.5460663,314.3986816,187.3527069,314.3986816z M512.6486206,314.2380371           c-0.1933594,0-0.3496094-0.1567383-0.3496094-0.3496094c-0.0029297-2.3286133-0.0556641-4.6772461-0.1552734-6.9814453           c-0.0087891-0.1928711,0.1416016-0.3564453,0.3339844-0.3647461           c0.2294922-0.0234375,0.3564453,0.1416016,0.3652344,0.3344727           c0.1005859,2.3139648,0.1523438,4.6723633,0.1552734,7.0107422           C512.9992065,314.0808105,512.84198,314.2375488,512.6486206,314.2380371L512.6486206,314.2380371z            M187.9454803,300.4206543c-0.0097656,0-0.0195313-0.0004883-0.0292969-0.0014648           c-0.1933594-0.0161133-0.3359375-0.1855469-0.3193359-0.378418           c0.1962891-2.3129883,0.4462891-4.6586914,0.7441406-6.972168           c0.0244141-0.1914063,0.1884766-0.3295898,0.3916016-0.3027344           c0.1914063,0.0244141,0.3271484,0.2001953,0.3017578,0.3916016           c-0.2949219,2.3037109-0.5449219,4.6396484-0.7402344,6.9428711           C188.2784882,300.2824707,188.1261444,300.4206543,187.9454803,300.4206543z M511.693512,299.939209           c-0.2001953-2.3188477-0.4521484-4.6542969-0.7480469-6.9418945           c-0.0253906-0.1914063,0.1103516-0.3671875,0.3017578-0.3920898           c0.2060547-0.0229492,0.3671875,0.1103516,0.3916016,0.3022461           c0.2988281,2.2973633,0.5508118,4.6430664,0.7519836,6.9711914           c0.0166016,0.1928711-0.1259766,0.3623047-0.3183594,0.3789063           C511.8831482,300.2747803,511.7102051,300.1337585,511.693512,299.939209z M189.6681366,286.5383301           c-0.1904297-0.0327148-0.3183594-0.2138672-0.2851563-0.4042969           c0.3974609-2.3012695,0.8486328-4.6166992,1.3417969-6.8828125           c0.0410156-0.1889648,0.2255859-0.3105469,0.4160156-0.2675781           c0.1894531,0.0410156,0.3085938,0.2270508,0.2675781,0.4160156c-0.4902344,2.2563477-0.9394531,4.5625-1.3359375,6.8535156           C190.0384521,286.4507751,189.8480682,286.5726013,189.6681366,286.5383301z M509.8995667,286.0944824           c-0.3955078-2.2768555-0.8476563-4.5820313-1.3427734-6.8520508           c-0.0410156-0.1889648,0.078125-0.3754883,0.2675781-0.4165039           c0.1835938-0.0444336,0.3759766,0.0786133,0.4160156,0.2670898           c0.4980469,2.2797852,0.9521484,4.5947266,1.3486328,6.8813477           c0.0332031,0.1904297-0.0947266,0.3720703-0.2851563,0.4047852           C510.1134338,286.4124756,509.9322205,286.2837524,509.8995667,286.0944824z M192.6124725,272.8601074           c-0.1875-0.0493164-0.2988281-0.2407227-0.25-0.4277344c0.5947266-2.2578125,1.2451172-4.5263672,1.9326172-6.7412109           c0.0566406-0.1845703,0.2558594-0.2880859,0.4375-0.230957c0.1845703,0.0576172,0.2880859,0.253418,0.2304688,0.4379883           c-0.6835938,2.2060547-1.3310547,4.4643555-1.9228516,6.7128906           C192.9897766,272.7993164,192.7968445,272.9092712,192.6124725,272.8601074z M506.9200745,272.4553223           c-0.5908203-2.2353516-1.2412109-4.4926758-1.9306641-6.7104492           c-0.0576172-0.1845703,0.0458984-0.3808594,0.2294922-0.4379883           c0.1894531-0.0576172,0.3808594,0.0458984,0.4384766,0.2299805           c0.6933594,2.2270508,1.3457031,4.4946289,1.9384766,6.7397461           c0.0498047,0.1870117-0.0615234,0.378418-0.2480469,0.4277344           C507.1552124,272.7540588,506.967926,272.6386719,506.9200745,272.4553223z M196.7355194,259.4694824           c-0.1816406-0.0654297-0.2763672-0.265625-0.2109375-0.4477539           c0.7890625-2.2011719,1.6357422-4.4101563,2.515625-6.5644531           c0.0732422-0.1787109,0.2753906-0.2646484,0.4570313-0.1918945c0.1787109,0.0732422,0.2646484,0.277832,0.1914063,0.456543           c-0.8769531,2.1450195-1.7197266,4.3442383-2.5058594,6.5361328           C197.1196747,259.4358215,196.9235382,259.5352783,196.7355194,259.4694824z M502.7696838,259.1247559           c-0.7841797-2.1811523-1.6269531-4.3740234-2.5048828-6.5185547           c-0.0732422-0.1787109,0.0126953-0.3828125,0.1914063-0.4560547           c0.1816406-0.074707,0.3837891,0.0126953,0.4570313,0.190918c0.8808594,2.1538086,1.7275391,4.3564453,2.5146484,6.5463867           c0.0654297,0.1821289-0.0283203,0.3828125-0.2109375,0.4482422           C503.028656,259.4016113,502.8327026,259.3016968,502.7696838,259.1247559z M202.0089569,246.4753418           c-0.1757813-0.0805664-0.2519531-0.2885742-0.171875-0.4638672           c0.9736328-2.1166992,2.0068359-4.2426758,3.0732422-6.3183594           c0.0888672-0.171875,0.2978516-0.2387695,0.4716797-0.1513672c0.171875,0.0883789,0.2392578,0.2993164,0.1513672,0.4711914           c-1.0615234,2.0668945-2.0908203,4.1831055-3.0595703,6.2905273           C202.3924713,246.4787903,202.1856689,246.556488,202.0089569,246.4753418z M497.4874573,246.2185059           c-0.9677734-2.1020508-1.9941406-4.2094727-3.0507813-6.2646484           c-0.0878906-0.171875-0.0205078-0.3833008,0.1513672-0.4711914           c0.1738281-0.0888672,0.3828125-0.0205078,0.4716797,0.1508789           c1.0605469,2.0644531,2.0917969,4.1811523,3.0644531,6.2919922           c0.0800781,0.1757813,0.0039063,0.3833008-0.171875,0.4643555           C497.7760315,246.4708405,497.5690308,246.393631,497.4874573,246.2185059z M208.3839569,233.9943848           c-0.1679688-0.0957031-0.2265625-0.3095703-0.1308594-0.4775391           c1.1552734-2.0283203,2.3681641-4.0556641,3.6044922-6.0253906           c0.1035156-0.1635742,0.3173828-0.2124023,0.4833984-0.1103516           c0.1630859,0.1025391,0.2128906,0.3188477,0.1103516,0.4824219c-1.2324219,1.9614258-2.4404297,3.9804688-3.5908203,6           C208.7644501,234.0323792,208.550415,234.0895081,208.3839569,233.9943848z M491.1183167,233.8244629           c-1.1494141-2.0161133-2.3544922-4.0292969-3.5820313-5.9833984           c-0.1025391-0.1635742-0.0527344-0.3798828,0.1103516-0.4824219           c0.1660156-0.1025391,0.3798828-0.0532227,0.4833984,0.1103516           c1.2314453,1.9624023,2.4414063,3.9838867,3.5957031,6.0087891           c0.0957031,0.1679688,0.0371094,0.3818359-0.1298828,0.4775391           C491.4299316,234.0501404,491.2149048,233.9941864,491.1183167,233.8244629z M215.8068085,222.1149902           c-0.1591797-0.1098633-0.1992188-0.3276367-0.0898438-0.4868164           c1.328125-1.9257813,2.7099609-3.8408203,4.1074219-5.690918c0.1162109-0.1557617,0.3359375-0.184082,0.4902344-0.0683594           c0.1542969,0.1166992,0.1845703,0.3359375,0.0683594,0.4902344           c-1.3916016,1.8422852-2.7675781,3.7490234-4.0898438,5.6665039           C216.1841431,222.1851654,215.9649658,222.2246857,215.8068085,222.1149902z M483.7013245,222.0158691           c-1.3144531-1.90625-2.6884766-3.8095703-4.0830078-5.6572266           c-0.1162109-0.1542969-0.0859375-0.3740234,0.0683594-0.4902344           c0.1542969-0.1171875,0.3740234-0.0864258,0.4902344,0.0683594           c1.4013672,1.855957,2.7802734,3.7675781,4.1005859,5.6816406c0.109375,0.1591797,0.0693359,0.3769531-0.0898438,0.4868164           C484.029541,222.2148895,483.8103638,222.1754456,483.7013245,222.0158691z M475.2950745,210.880127           c-1.4736328-1.7890625-3.0058594-3.5688477-4.5537109-5.2900391           c-0.1289063-0.1435547-0.1171875-0.3647461,0.0263672-0.4941406           c0.1455078-0.1289063,0.3652344-0.1176758,0.4951172,0.0263672c1.5537109,1.7285156,3.0917969,3.515625,4.5732422,5.3125           c0.1220703,0.1494141,0.1015625,0.3696289-0.0478516,0.4926758           C475.6369934,211.0516663,475.4171143,211.0279541,475.2950745,210.880127z M224.2179413,210.9206543           c-0.1494141-0.1230469-0.1699219-0.34375-0.0478516-0.4926758c1.4902344-1.8066406,3.03125-3.5952148,4.5791016-5.3154297           c0.1289063-0.1450195,0.3505859-0.1542969,0.4941406-0.0263672           c0.1435547,0.1293945,0.1552734,0.3505859,0.0253906,0.4941406           c-1.5410156,1.7133789-3.0742188,3.4936523-4.5576172,5.2929688           C224.588974,211.021225,224.3690948,211.0447388,224.2179413,210.9206543z M465.9659729,200.498291           c-1.6259766-1.6591797-3.3056641-3.3022461-4.9921875-4.8833008           c-0.1416016-0.1323242-0.1484375-0.3535156-0.015625-0.4946289           c0.1318359-0.1411133,0.3535156-0.1484375,0.4941406-0.0161133           c1.6943359,1.5878906,3.3808594,3.237793,5.0136719,4.9038086           c0.1357422,0.1381836,0.1328125,0.3598633-0.0048828,0.4951172           C466.3201599,200.6410828,466.0985413,200.6336975,465.9659729,200.498291z M233.5519257,200.4924316           c-0.1376953-0.1352539-0.140625-0.3569336-0.0048828-0.4951172c1.6259766-1.6606445,3.3125-3.3100586,5.0126953-4.902832           c0.1416016-0.1328125,0.3623047-0.1254883,0.4951172,0.0161133           c0.1318359,0.1411133,0.1240234,0.3623047-0.0166016,0.4946289           c-1.6923828,1.5859375-3.3720703,3.2285156-4.9912109,4.8818359           C233.9125061,200.6254425,233.6905212,200.628067,233.5519257,200.4924316z M455.7784729,190.9475098           c-1.7597656-1.5131836-3.5742188-3.0073242-5.3925781-4.4404297           c-0.1513672-0.1196289-0.1777344-0.3398438-0.0576172-0.4916992           c0.1191406-0.1513672,0.3398438-0.1777344,0.4912109-0.0581055           c1.8261719,1.4394531,3.6484375,2.9399414,5.4160156,4.4599609           c0.1464844,0.1259766,0.1630859,0.3466797,0.0371094,0.4931641           C456.1467896,191.0566101,455.9262085,191.0746002,455.7784729,190.9475098z M243.7384491,190.9040527           c-0.1259766-0.1464844-0.109375-0.3671875,0.0371094-0.4936523           c1.7705078-1.5214844,3.5908203-3.0205078,5.4111328-4.4550781           c0.1523438-0.1191406,0.3730469-0.0932617,0.4921875,0.0581055           c0.1191406,0.1518555,0.0927734,0.3720703-0.0585938,0.4916992c-1.8125,1.4287109-3.6259766,2.9213867-5.3876953,4.4365234           C244.085083,191.0674744,243.8648987,191.0509796,243.7384491,190.9040527z M254.7032928,182.2243652           c-0.1123047-0.1567383-0.0771484-0.3754883,0.0791016-0.4882813           c1.8896332-1.3623047,3.8300629-2.6992188,5.769516-3.9746094c0.1611328-0.1054688,0.3798828-0.0615234,0.484375,0.1000977           c0.1064453,0.1616211,0.0615234,0.378418-0.0996094,0.4848633           c-1.9306641,1.2695313-3.8632813,2.6010742-5.7441254,3.9570313           C255.0329742,182.4181671,254.8147125,182.3795776,254.7032928,182.2243652z M444.8058167,182.3005371           c-1.8857422-1.359375-3.8222656-2.6933594-5.7558594-3.9648438           c-0.1611328-0.1064453-0.2060547-0.3232422-0.0996094-0.4848633           c0.1054688-0.1616211,0.3232422-0.2050781,0.484375-0.1000977c1.9423828,1.2773438,3.8867188,2.6166992,5.78125,3.9819336           c0.15625,0.112793,0.1914063,0.331543,0.0791016,0.4882813           C445.1834106,182.3757019,444.9664612,182.4147339,444.8058167,182.3005371z M266.3634338,174.5197754           c-0.0986328-0.1660156-0.0449219-0.3808594,0.1210938-0.4799805c2-1.1958008,4.0478516-2.3608398,6.0859375-3.4628906           c0.1689453-0.090332,0.3808594-0.0292969,0.4736328,0.1416016           c0.0917969,0.1699219,0.0292969,0.3823242-0.1416016,0.4746094           c-2.0283203,1.0966797-4.0673828,2.2568359-6.0585938,3.4472656           C266.6759338,174.7402954,266.4636536,174.6848297,266.3634338,174.5197754z M433.1280823,174.6223145           c-1.9833984-1.1860352-4.0283203-2.3491211-6.078125-3.456543           c-0.1708984-0.0922852-0.2333984-0.3041992-0.1416016-0.4746094           c0.0908203-0.1704102,0.3046875-0.2314453,0.4736328-0.1416016c2.0595703,1.112793,4.1132813,2.2807617,6.1054688,3.472168           c0.1660156,0.0991211,0.2197266,0.3139648,0.1210938,0.4799805           C433.5083008,174.6668396,433.29599,174.7221985,433.1280823,174.6223145z M278.6349182,167.848877           c-0.0849609-0.1738281-0.0126953-0.3833008,0.1611328-0.4682617           c2.0966797-1.0195313,4.2353516-2.003418,6.3574219-2.9243164           c0.1787109-0.0751953,0.3837891,0.0039063,0.4609375,0.1821289           c0.0771484,0.1772461-0.0048828,0.3833008-0.1816406,0.4604492           c-2.1132813,0.9165039-4.2431641,1.8959961-6.3300781,2.9116211           C278.927124,168.0948486,278.7192383,168.0222321,278.6349182,167.848877z M420.8263245,167.9743652           c-2.0908203-1.0166016-4.2294922-1.9990234-6.3564453-2.9204102           c-0.1777344-0.0771484-0.2597656-0.2832031-0.1826172-0.4604492           c0.0771484-0.1777344,0.2861328-0.2578125,0.4599609-0.1821289           c2.1376953,0.9257813,4.2851563,1.9125977,6.3857422,2.9331055           c0.1738281,0.0844727,0.2460938,0.2939453,0.1611328,0.4677734           C421.2101746,167.9848785,421.0030518,168.0592499,420.8263245,167.9743652z M291.4259338,162.2624512           c-0.0693359-0.1806641,0.0214844-0.3828125,0.2021484-0.4521484           c2.1738281-0.8344727,4.3945313-1.6318359,6.5996094-2.3701172           c0.1816406-0.0615234,0.3818359,0.0375977,0.4433594,0.2207031           c0.0615234,0.1835938-0.0380859,0.3818359-0.2207031,0.4433594           c-2.1962891,0.7348633-4.4072266,1.5288086-6.5722656,2.359375           C291.7018127,162.5328827,291.4963684,162.444931,291.4259338,162.2624512z M407.9894104,162.411377           c-2.1689453-0.8300781-4.3867188-1.6240234-6.5908203-2.359375           c-0.1835938-0.0610352-0.2832031-0.2592773-0.2216797-0.4428711s0.265625-0.28125,0.4423828-0.2211914           c2.2148438,0.7382813,4.4414063,1.5356445,6.6201172,2.3701172           c0.1806641,0.0688477,0.2705078,0.2714844,0.2021484,0.4516602           C408.3705444,162.3943787,408.1639404,162.4799347,407.9894104,162.411377z M304.6856995,157.7922363           c-0.0537109-0.1860352,0.0537109-0.3798828,0.2392578-0.4331055           c2.2324219-0.6411133,4.5136719-1.2426758,6.78125-1.7890625c0.1933594-0.0439453,0.3769531,0.0712891,0.421875,0.2583008           c0.0458984,0.1879883-0.0703125,0.3769531-0.2578125,0.4223633c-2.2578125,0.543457-4.5292969,1.1430664-6.7519531,1.78125           C304.9337158,158.0851288,304.7392273,157.9789581,304.6856995,157.7922363z M394.7276917,157.9870605           c-2.2285156-0.6376953-4.5009766-1.2348633-6.7529297-1.7749023c-0.1875-0.0449219-0.3037109-0.2338867-0.2578125-0.421875           c0.0449219-0.1875,0.2255859-0.3071289,0.421875-0.2587891c2.2617188,0.5424805,4.5429688,1.1420898,6.7822266,1.7827148           c0.1855469,0.0532227,0.2929688,0.2470703,0.2402344,0.4326172           C395.1079712,157.9334717,394.9126892,158.0403137,394.7276917,157.9870605z M318.624176,154.7702637           c-0.1640625,0-0.3105469-0.1157227-0.34375-0.2832031c-0.0371094-0.1894531,0.0869141-0.3735352,0.2763672-0.4101563           c2.2841797-0.4467773,4.609375-0.8491211,6.9091797-1.1967773           c0.2128906-0.0263672,0.3710938,0.1040039,0.3984375,0.2939453           c0.0292969,0.190918-0.1025391,0.3696289-0.2929688,0.3984375           c-2.2910156,0.3457031-4.6054688,0.746582-6.8798828,1.1914063           C318.6690979,154.7683105,318.6456604,154.7702637,318.624176,154.7702637z M381.1524963,154.7321777           c-2.2744141-0.4423828-4.5898438-0.8408203-6.8818359-1.1845703           c-0.1914063-0.0288086-0.3232422-0.2070313-0.2939453-0.3979492           c0.0283203-0.190918,0.1992188-0.3232422,0.3974609-0.2944336           c2.3027344,0.3452148,4.6279297,0.7456055,6.9111328,1.1894531           c0.1904297,0.0371094,0.3144531,0.2207031,0.2773438,0.4106445           C381.5244141,154.647644,381.3380432,154.7684784,381.1524963,154.7321777z M332.4571838,152.6813965           c-0.1767578,0-0.3291016-0.1333008-0.3476563-0.3129883c-0.0205078-0.1918945,0.1181641-0.3647461,0.3105469-0.3852539           c2.3066406-0.2470703,4.65625-0.4482422,6.9853516-0.5981445c0.2216797-0.0200195,0.3583984,0.1347656,0.3720703,0.3266602           c0.0117188,0.1928711-0.1337891,0.359375-0.3271484,0.371582           c-2.3193359,0.1494141-4.6591797,0.3500977-6.9560547,0.5961914           C332.4815979,152.6804199,332.4689026,152.6813965,332.4571838,152.6813965z M367.3458557,152.6608887           c-2.2988281-0.2446289-4.6396484-0.4423828-6.9580078-0.5888672           c-0.1923828-0.012207-0.3388672-0.1782227-0.3271484-0.3710938           c0.0126953-0.1923828,0.1552734-0.3383789,0.3720703-0.3271484           c2.328125,0.1464844,4.6787109,0.3457031,6.9873047,0.5908203           c0.1923828,0.0205078,0.3310547,0.1928711,0.3105469,0.3852539           C367.7102051,152.5476532,367.5299072,152.6821289,367.3458557,152.6608887z M346.421051,151.7844238           c-0.1894531,0-0.3457031-0.1518555-0.3496094-0.3422852c-0.0048828-0.1933594,0.1484375-0.3535156,0.3417969-0.3579102           c2.4476013-0.0520325,4.773407-0.04953,7.0136719-0.003418c0.1933594,0.0043945,0.3466797,0.1640625,0.3427734,0.3574219           c-0.0048828,0.1928711-0.1533203,0.3520508-0.3564453,0.3427734           c-2.2277222-0.0460968-4.5428162-0.0496979-6.984375,0.003418           C346.4259338,151.7844238,346.4239807,151.7844238,346.421051,151.7844238z" class="color000000 svgShape"/><path d="M606.0001831,602.4465332h-512c-0.2671051,0-0.4366913-0.2894287-0.3046875-0.5219727l60.1210938-106.6982422            c0.0615234-0.1098633,0.1787109-0.1782227,0.3046875-0.1782227h30.9716797            c0.1933594,0,0.3496094,0.1567383,0.3496094,0.3500977s-0.15625,0.3500977-0.3496094,0.3500977h-30.7675781            L94.5988007,601.7463379h510.8027344L545.6740112,495.748291h-34.1318665            c-0.1933594,0-0.3496094-0.1567383-0.3496094-0.3500977s0.15625-0.3500977,0.3496094-0.3500977h34.335968            c0.1259766,0,0.2431641,0.0683594,0.3046875,0.1782227l60.1220703,106.6982422            c0.0615234,0.1083984,0.0605469,0.2412109-0.0029297,0.3486328            C606.2394409,602.3806152,606.1242065,602.4465332,606.0001831,602.4465332z" class="color000000 svgShape"/><path d="M418.7071838,422.373291c-0.1376953-0.2397461-0.0546875-0.5454102,0.1845703-0.6826172            c4.0773315-2.3410034,5.4864502-7.5185547,3.1484375-11.5766602            c-2.3320313-4.0517578-7.5410156-5.4487305-11.6083984-3.1137695            c-0.2373047,0.1357422-0.5439453,0.0556641-0.6826172-0.1845703            c-0.1376953-0.2397461-0.0546875-0.5454102,0.1845703-0.6826172            c4.5449219-2.6088867,10.3652344-1.0473633,12.9736328,3.4819336            c2.6065369,4.5270996,1.0491333,10.3222046-3.5175781,12.9428711            C419.1529236,422.6940613,418.8464355,422.6151123,418.7071838,422.373291z" class="color000000 svgShape"/><path d="M480.5040588,581.8127441h-19.390625c-0.2763672,0-0.5-0.2236328-0.5-0.5s0.2236328-0.5,0.5-0.5h19.390625            c0.2763672,0,0.5,0.2236328,0.5,0.5S480.780426,581.8127441,480.5040588,581.8127441z" class="color000000 svgShape"/><path d="M537.1203003,514.4060059h-19.390625c-0.2763672,0-0.5-0.2236328-0.5-0.5s0.2236328-0.5,0.5-0.5h19.390625            c0.2763672,0,0.5,0.2236328,0.5,0.5S537.3966675,514.4060059,537.1203003,514.4060059z" class="color000000 svgShape"/><path d="M491.5519104,538.1833496h-19.390625c-0.2763672,0-0.5-0.2236328-0.5-0.5s0.2236328-0.5,0.5-0.5h19.390625            c0.2763672,0,0.5,0.2236328,0.5,0.5S491.8282776,538.1833496,491.5519104,538.1833496z" class="color000000 svgShape"/><path d="M530.2980347,558.6789551H516.960144c-0.2763672,0-0.5-0.2236328-0.5-0.5s0.2236328-0.5,0.5-0.5h13.3378906            c0.2763672,0,0.5,0.2236328,0.5,0.5S530.5744019,558.6789551,530.2980347,558.6789551z" class="color000000 svgShape"/><path d="M433.302887,570.435791h-13.3378906c-0.2763672,0-0.5-0.2236328-0.5-0.5s0.2236328-0.5,0.5-0.5h13.3378906            c0.2763672,0,0.5,0.2236328,0.5,0.5S433.5792542,570.435791,433.302887,570.435791z" class="color000000 svgShape"/><path d="M151.3937225,584.088623h-19.390625c-0.2763672,0-0.5-0.2236328-0.5-0.5s0.2236328-0.5,0.5-0.5h19.390625            c0.2763672,0,0.5,0.2236328,0.5,0.5S151.6700897,584.088623,151.3937225,584.088623z" class="color000000 svgShape"/><path d="M567.3341675,588.8586426h-19.390625c-0.2763672,0-0.5-0.2236328-0.5-0.5s0.2236328-0.5,0.5-0.5h19.390625            c0.2763672,0,0.5,0.2236328,0.5,0.5S567.6105347,588.8586426,567.3341675,588.8586426z" class="color000000 svgShape"/><path d="M179.8370819,538.1833496h-19.390625c-0.2763672,0-0.5-0.2236328-0.5-0.5s0.2236328-0.5,0.5-0.5h19.390625            c0.2763672,0,0.5,0.2236328,0.5,0.5S180.1134491,538.1833496,179.8370819,538.1833496z" class="color000000 svgShape"/><path d="M210.7570038,572.1872559h-19.390625c-0.2763672,0-0.5-0.2236328-0.5-0.5s0.2236328-0.5,0.5-0.5h19.390625            c0.2763672,0,0.5,0.2236328,0.5,0.5S211.033371,572.1872559,210.7570038,572.1872559z" class="color000000 svgShape"/><path fill="#8aa2ff" d="M422.7252502,478.8536987c-6.1960144-32.5553589-2.8809814-55.670105-2.2667542-86.7197876              c0.5338745-26.9776611-9.5637207-32.4996338-41.6932373-40.4788208              c-18.6016541-3.3009644-71.2381592-18.1028137-110.1868896,23.1235352              c-13.802597,14.6101074-19.6985168,46.333313-24.348114,71.7281494              c-2.0755157,11.3511658-2.0010681,22.5032043,1.3022003,32.3469238H422.7252502z" class="color6680ff svgShape"/><path fill="#fff5f5" d="M392.3206787,436.8267212c0,12.7142944-19.7821045,23.0335388-44.1882324,23.0335388              c-24.4063721,0-44.1885071-10.3192444-44.1885071-23.0335388c0-12.7240601,19.782135-23.0433044,44.1885071-23.0433044              C372.5385742,413.7834167,392.3206787,424.1026611,392.3206787,436.8267212z" class="colorffffff svgShape"/><path fill="#fff5f5" d="M422.7252502,478.8536987c3.4512634,14.5498962,2.5964661,33.1672974,0.2826538,53.1629639              H275.97995v-53.1629639H422.7252502z" class="colorffffff svgShape"/><path d="M423.0079651,532.3669434H275.9796448c-0.1933594,0-0.3496094-0.1567383-0.3496094-0.3500977v-53.1630859              c0-0.1933594,0.15625-0.3500977,0.3496094-0.3500977H422.724762c0.1621094,0,0.3027344,0.1113281,0.3408203,0.2695313              c3.0009766,12.6479492,3.0898438,29.081543,0.2900391,53.2836914              C423.3351135,532.2336426,423.1856995,532.3669434,423.0079651,532.3669434z M276.3292542,531.666748h146.3671875              c2.7333984-23.7768555,2.6572266-39.9873047-0.2490234-52.4628906H276.3292542V531.666748z" class="color000000 svgShape"/><path fill="#20a4fb" d="M424.6079407,491.2418518c-0.362793-4.3793945-0.9677124-8.530426-1.8826904-12.3881531H275.97995               v12.3881531H424.6079407z" class="colorffae44 svgShape"/><path d="M424.6075745,491.592041H275.9796448c-0.1933594,0-0.3496094-0.1567383-0.3496094-0.3500977v-12.3881836               c0-0.1933594,0.15625-0.3500977,0.3496094-0.3500977H422.724762c0.1621094,0,0.3027344,0.1113281,0.3408203,0.2695313               c0.8779297,3.7026367,1.5146484,7.8881836,1.890625,12.4399414               C424.9726868,491.4191589,424.8117981,491.592041,424.6075745,491.592041z M276.3292542,490.8918457h147.8974609               c-0.3681641-4.2607422-0.9658203-8.1894531-1.7792969-11.6879883H276.3292542V490.8918457z" class="color000000 svgShape"/><path fill="#fff5f5" d="M334.9614563,522.9464111c0,0,127.288269-57.013031,156.7947388-35.3007202              c29.5065002,21.7123413,5.1143799,100.0405273-123.5932007,93.2516479L334.9614563,522.9464111z" class="colorffffff svgShape"/><path d="M383.7833557,581.6691895c-5.0859375,0-10.2958984-0.140625-15.6386719-0.4223633              c-0.1181641-0.0063477-0.2255859-0.0722656-0.2851563-0.1757813l-33.2021484-57.9506836              c-0.1038818-0.1818237-0.0260925-0.4096069,0.1611328-0.4931641              c0.3183594-0.1425781,32.2451172-14.3930664,67.3671875-25.8061523              c47.2402344-15.3500977,77.4472656-18.5322266,89.7773438-9.4570313              c10.9267578,8.0400391,14.3417969,23.425293,8.7011719,39.1953125              c-5.6845703,15.8896484-19.5839844,29.9692383-39.1396484,39.6455078              C440.7501526,576.4841309,414.6485901,581.6691895,383.7833557,581.6691895z M368.3722229,580.5578613              c37.5527344,1.9545898,68.7939453-3.0820313,92.8417969-14.9804688              c19.3916016-9.5957031,33.1679688-23.5361328,38.7910156-39.2539063              c5.5341797-15.472168,2.2148438-30.543457-8.4560547-38.3959961              c-28.2480469-20.7856445-148.6191406,31.8774414-156.0917969,35.1816406L368.3722229,580.5578613z" class="color000000 svgShape"/><path fill="#ffcaca" d="M425.8404236,578.2020264c-4.0754089,4.0596313-10.6681519,6.9525146-20.3775635,7.2161255              c-34.2662048,0.927063-43.320282-3.0925293-43.320282-3.0925293l4.7627258-37.3908691              c0,0,28.2649536,5.8256226,47.939209,3.7398682c2.4293518-0.2557983,4.6669312,0.0959473,6.6647339,0.9110718              C431.3464661,553.6052856,435.1502991,568.9403687,425.8404236,578.2020264z" class="colorcad5ff svgShape"/><path fill="#20a4fb" d="M425.8404236,578.2020264c-6.4089661-2.2053833-11.0039063-8.2867432-11.0039063-15.4388428              c0-5.4020386,2.6211243-10.1967773,6.6727295-13.1774902              C431.3464661,553.6052856,435.1502991,568.9403687,425.8404236,578.2020264z" class="colorffae44 svgShape"/><path d="M338.8614807,539.9108887c-0.0859375-0.1733398-0.0146484-0.3833008,0.1582031-0.46875              c54.0849609-26.6757813,116.5039063-37.5527344,117.1289063-37.659668              c0.1875-0.0327148,0.3710938,0.0961914,0.4033203,0.2861328              c0.0332031,0.1904297-0.0947266,0.371582-0.2861328,0.4042969              c-0.6230469,0.1064453-62.9453125,10.9672852-116.9355469,37.597168              C339.1562805,540.1553345,338.9465942,540.0845337,338.8614807,539.9108887z" class="color000000 svgShape"/><path fill="#fff5f5" d="M367.8612671,537.744873c0,0-129.0592041-71.9119568-158.5657043-50.1996155              c-29.506485,21.7123108-15.7536621,98.0327454,152.3696594,99.4905701L367.8612671,537.744873z" class="colorffffff svgShape"/><path d="M361.6651917,587.3859863c-0.0009766,0-0.0019531,0-0.0029297,0              c-49.921875-0.4331055-89.9785156-7.4228516-119.0576019-20.7753906              c-29.5986328-13.5908203-40.2626953-30.2050781-43.9970703-41.7490234              c-4.7431641-14.6645508-0.6298828-29.4228516,10.4804688-37.5981445              c12.34375-9.0839844,42.8583984-3.390625,90.6923676,16.9174805              c35.5585938,15.0966797,67.9287109,33.078125,68.2509766,33.2583008              c0.125,0.0693359,0.1953125,0.2075195,0.1777344,0.3491211l-6.1962891,49.2910156              C361.990387,587.2546387,361.8419495,587.3859863,361.6651917,587.3859863z M225.4474335,483.8239746              c-6.671875,0-12.1533203,1.2128906-15.9453125,4.0029297              c-10.8623047,7.9941406-14.8779297,22.4462891-10.2285156,36.8188477              c4.6103516,14.2524414,29.9248047,60.8178711,162.0829926,62.0375977l6.1279297-48.7470703              C362.3956604,535.1257324,268.8214417,483.8239746,225.4474335,483.8239746z" class="color000000 svgShape"/><path d="M379.2472229,576.0881348c-1.03125-6.831543-0.3173828-13.6625977,2.1220703-20.3027344              c0.0664063-0.1811523,0.2675781-0.2753906,0.4492188-0.2080078              c0.1806641,0.0668945,0.2744141,0.2675781,0.2070313,0.4492188              c-2.3974609,6.5288086-3.0996094,13.2431641-2.0869141,19.9570313              c0.0292969,0.1914063-0.1025391,0.3696289-0.2939453,0.3984375              C379.4440613,576.4099731,379.2741699,576.2719727,379.2472229,576.0881348z" class="color000000 svgShape"/><path d="M386.1593323,576.4641113c-1.03125-6.831543-0.3173828-13.6621094,2.1220703-20.3027344              c0.0664063-0.1816406,0.265625-0.2749023,0.4492188-0.2080078              c0.1806641,0.0668945,0.2744141,0.2675781,0.2070313,0.4492188              c-2.3974609,6.5288086-3.0996094,13.2431641-2.0869141,19.9570313              c0.0292969,0.1914063-0.1025391,0.3696289-0.2939453,0.3984375              C386.3561707,576.7859497,386.1862793,576.6479492,386.1593323,576.4641113z" class="color000000 svgShape"/><path d="M393.0714417,576.8400879c-1.03125-6.831543-0.3173828-13.6621094,2.1220703-20.3027344              c0.0664063-0.1811523,0.2666016-0.2744141,0.4492188-0.2080078              c0.1806641,0.0668945,0.2744141,0.2675781,0.2070313,0.4492188              c-2.3974609,6.5288086-3.0996094,13.2431641-2.0869141,19.9570313              c0.0292969,0.1914063-0.1025391,0.3696289-0.2939453,0.3984375              C393.26828,577.1619263,393.0983887,577.0239258,393.0714417,576.8400879z" class="color000000 svgShape"/><path d="M399.983551,577.2160645c-1.0302734-6.8295898-0.3164063-13.6601563,2.1220703-20.3027344              c0.0664063-0.1811523,0.2666016-0.2753906,0.4492188-0.2080078              c0.1806641,0.0668945,0.2744141,0.2675781,0.2070313,0.4492188              c-2.3964844,6.5307617-3.0986328,13.2451172-2.0869141,19.9570313              c0.0292969,0.1914063-0.1025391,0.3696289-0.2939453,0.3984375              C400.1803894,577.5379028,400.010498,577.3999023,399.983551,577.2160645z" class="color000000 svgShape"/><path d="M364.4492493,300.0560608c0,0,4.6766357,4.9552917,1.590271,12.4248657l-15.8170471-9.9732971              L364.4492493,300.0560608z" class="color000000 svgShape"/><path fill="#fff5f5" d="M352.5577393,337.2467041c24.9008789-0.6962585,11.419342-31.4009094,10.154541-34.2101135                l-31.0647583,5.0297852c-1.2958679,4.7366943-1.1911011,13.5715332-2.2247925,18.3468628l4.3201294,5.0169678                l0.1777954,14.9353638l8.8561401,11.3511963l8.842041-10.2962036L352.5577393,337.2467041z" class="colorffffff svgShape"/><path d="M342.7765198,358.0666504c-0.0029297,0-0.0058594,0-0.0078125,0                c-0.1054688-0.0024414-0.203125-0.0522461-0.2685547-0.1347656l-8.8554688-11.3510742                c-0.046875-0.0605469-0.0722656-0.1347656-0.0732422-0.2109375l-0.1767578-14.8076172l-4.2373047-4.9204102                c-0.0712891-0.0834961-0.0996094-0.1953125-0.0761719-0.3027344                c1.0276184-4.7539673,0.9200745-13.5816956,2.2285156-18.3652344                c0.0361328-0.1323242,0.1464844-0.2314453,0.2822266-0.253418l31.0644531-5.0297852                c0.1513672-0.0263672,0.3085938,0.0581055,0.375,0.2021484                c1.4296875,3.1772461,8.2753906,19.4897461,2.5644531,28.6010742                c-2.3896484,3.8110352-6.6669922,5.8598633-12.7177734,6.0922852l-0.9101563,9.8666992                c-0.0068359,0.0722656-0.0361328,0.140625-0.0830078,0.1958008l-8.8427734,10.2958984                C342.9757385,358.0222168,342.8780823,358.0666504,342.7765198,358.0666504z M334.2696838,346.2434082                l8.5195313,10.9208984l8.4921875-9.887207l0.9277344-10.0625                c0.0166016-0.1762695,0.1621094-0.3125,0.3388672-0.3178711                c5.9667969-0.1665039,10.1572266-2.109375,12.4541016-5.7749023                c5.390625-8.5986328-0.890625-24.0615234-2.5-27.6967773l-30.5742188,4.9501953                c-1.2071533,4.682251-1.1421814,13.1855469-2.1269531,17.940918l4.2080078,4.8857422                c0.0537109,0.0625,0.0830078,0.1420898,0.0839844,0.2241211L334.2696838,346.2434082z M351.6192932,347.4206543                h0.0087891H351.6192932z" class="color000000 svgShape"/><path d="M374.8206177,291.7303772c-0.6772461,2.7973022-2.4124756,5.2495728-4.5502014,7.1849365                c-1.107666,0.9974365-2.3111572,1.8668518-3.5903931,2.6444092l-0.0026245,0.0093994                c-3.6403503,5.3329468-14.5260925,10.1878052-28.0152283,6.3219299c0,0,3.9579163,11.344635-8.7333984,15.5956116                c-2.6568298,0.8900757-5.2156372-1.9172058-6.594635-3.7989807                c-2.4066162-3.28125-3.8692322-7.3724365-4.2944336-11.4078979                c-0.8710327-8.3466797,2.9848022-15.1645508,11.4255676-18.1762085                c3.6375122-4.1596375,7.2749939-8.3192444,10.9125061-12.4788818                c5.2566528-6,11.1861877-7.0162048,11.6733704,2.3886108                c0.1175842,2.0874329,0.5880737,4.5058289,2.4458313,5.4683228                c1.6827698,0.8630981,3.7590942,0.0947876,5.2999268-1.0047302                c1.5408325-1.0994873,2.8850098-2.5471497,4.6605835-3.2169495                c2.6837769-1.0242615,5.9219971,0.0692749,7.7415466,2.2964172                C375.0184021,285.7834778,375.4981079,288.9331665,374.8206177,291.7303772z" class="color000000 svgShape"/><path fill="#fff5f5" d="M333.9206543,321.8927002c0,0-2.0588989-5.7226563-7.091156-5.1683655                c-5.0717163,0.5586243-6.6557617,10.6086426,4.7369995,11.3265076" class="colorffffff svgShape"/><path d="M331.5665588,328.401123c-0.0068359,0-0.0146484-0.0004883-0.0224609-0.0009766                c-6.4746094-0.4082031-8.8564453-3.7416992-8.9267578-6.7250977                c-0.0625-2.706543,1.7705078-5.0336914,4.1738281-5.2983398                c5.2333984-0.5830078,7.4375,5.3378906,7.4589844,5.3974609                c0.0654297,0.1821289-0.0283203,0.3823242-0.2099609,0.4477539                c-0.1884766,0.065918-0.3828125-0.0292969-0.4482422-0.2104492                c-0.0810547-0.2231445-2.0400391-5.4604492-6.7246094-4.9389648                c-2.0449219,0.2250977-3.6044922,2.2397461-3.5498047,4.5859375                c0.0625,2.6733398,2.2685547,5.6650391,8.2714844,6.043457                c0.1923828,0.012207,0.3388672,0.1782227,0.3271484,0.3710938                C331.9044495,328.2585449,331.7501526,328.401123,331.5665588,328.401123z" class="color000000 svgShape"/><path d="M358.1056213,326.1989746c-0.1923828-0.0219727-0.3505859-0.1982422-0.328125-0.3901367                c0.0224609-0.1928711,0.1855469-0.3300781,0.3662109-0.3100586                c3.1275635,0.363678,3.8624268-1.1738281,2.7587891-2.8730469                c-0.4720459-0.7242432-1.2028809-1.3202515-1.7832031-2.0219727                c-1.3974609-1.6870117-1.9169922-3.8925781-2.375-5.8388672                c-0.0439453-0.1879883,0.0722656-0.3764648,0.2607422-0.4208984                c0.1933594-0.0424805,0.3769531,0.0732422,0.4208984,0.2607422                c0.4404297,1.8710938,0.9394531,3.9916992,2.2324219,5.5527344                c0.5763245,0.6956177,1.3094788,1.2849731,1.8300781,2.0864258                C362.8272705,324.3007202,361.9383545,326.6438599,358.1056213,326.1989746z" class="color000000 svgShape"/><circle cx="361.691" cy="315.004" r="1.58" class="color000000 svgShape" transform="rotate(-80.134 361.691 315.005)"/><circle cx="352.096" cy="315.91" r="1.387" class="color000000 svgShape" transform="rotate(-80.134 352.096 315.91)"/><path d="M347.6163635,314.2365723c-0.15625-0.1132813-0.1914063-0.3320313-0.0791016-0.4887695                c2.7685547-3.8295898,6.3271484-2.7490234,6.3623047-2.7382813                c0.1835938,0.0585938,0.2851563,0.2543945,0.2265625,0.4384766                c-0.0576172,0.1835938-0.25,0.2875977-0.4384766,0.2290039                c-0.1259766-0.0405273-3.1230469-0.925293-5.5820313,2.480957                C347.9917908,314.3135071,347.775177,314.350708,347.6163635,314.2365723z" class="color000000 svgShape"/><path d="M357.8546448,311.9875488c-0.1240234-0.1484375-0.1044922-0.3691406,0.0439453-0.4931641                c3.6220703-3.0297852,6.8066406-1.1083984,6.8408203-1.0878906                c0.1630859,0.1015625,0.2128906,0.3168945,0.1113281,0.4804688                c-0.1005859,0.1635742-0.3164063,0.2148438-0.4814453,0.1142578                c-0.1132813-0.0698242-2.796875-1.6650391-6.0214844,1.0302734                C358.1997986,312.1552124,357.9794922,312.1361084,357.8546448,311.9875488z" class="color000000 svgShape"/><path d="M356.6437073,330.689209c-0.1230469-0.1489258-0.1025391-0.3696289,0.046875-0.4926758                c0.1494141-0.1220703,0.3701172-0.1025391,0.4921875,0.0473633                c0.9853821,1.1888733,3.494812,1.9070129,4.8222656-0.6088867                c0.0898438-0.1713867,0.3037109-0.2353516,0.4726563-0.1459961                c0.1708984,0.090332,0.2363281,0.3022461,0.1464844,0.4731445                C361.1469421,332.7607422,358.0550537,332.4026184,356.6437073,330.689209z" class="color000000 svgShape"/><path d="M352.5817566,337.2736816c-3.1288452-0.0895996-6.3836365-2.3675232-9.7582703-5.1364746               c0,0,0.5970764,5.6914673,9.2484131,8.732605L352.5817566,337.2736816z" class="color000000 svgShape"/><path d="M351.9552307,341.1999512c-8.7597656-3.0791016-9.4550781-8.7851563-9.4794922-9.0263672               c-0.0342407-0.3094482,0.3297729-0.5067749,0.5693359-0.3071289               c3.1386719,2.574707,6.4667969,4.9692383,9.546875,5.0571289               c0.2079163,0.0061035,0.3657837,0.1911621,0.3369141,0.3994141l-0.5107422,3.5961914               C352.3877563,341.1338196,352.1688232,341.2738953,351.9552307,341.1999512z M343.4298401,333.0783691               c0.5947266,1.6782227,2.4931641,5.1333008,8.3554688,7.315918l0.3964844-2.7919922               C349.4356995,337.3791504,346.6534729,335.6496582,343.4298401,333.0783691z" class="color000000 svgShape"/><g class="color000000 svgShape"><path d="M340.6476135,586.7834473c-0.0185547,0-0.0371094-0.0014648-0.0566406-0.0048828              c-0.1904297-0.0307617-0.3203125-0.2109375-0.2890625-0.4013672l7.7060547-47.2617188              c0.03125-0.1904297,0.2070313-0.3232422,0.4023438-0.2890625              c0.1904297,0.0307617,0.3203125,0.2109375,0.2890625,0.4013672l-7.7060547,47.2617188              C340.9649963,586.661377,340.8165588,586.7834473,340.6476135,586.7834473z" class="color000000 svgShape"/></g><g class="color000000 svgShape"><path d="M344.5001526,563.1525879c-0.0166016,0-0.0332031-0.0014648-0.0498047-0.0039063              c-59.2607422-8.5361328-145.2714691-59.4648438-146.1327972-59.9780273              c-0.1660156-0.0991211-0.2207031-0.3139648-0.1220703-0.4799805              c0.0996094-0.1665039,0.3164063-0.2192383,0.4794922-0.121582              c0.8613281,0.5126953,86.7529144,51.3706055,145.8749847,59.887207              c0.1914063,0.0273438,0.3242188,0.2045898,0.296875,0.3959961              C344.8214417,563.0266113,344.6720276,563.1525879,344.5001526,563.1525879z" class="color000000 svgShape"/></g><g class="color000000 svgShape"><path d="M346.874176,485.3977051h-11.2626953c-0.1933594,0-0.3496094-0.1567383-0.3496094-0.3500977             s0.15625-0.3500977,0.3496094-0.3500977h11.2626953c0.1933594,0,0.3496094,0.1567383,0.3496094,0.3500977             S347.0675354,485.3977051,346.874176,485.3977051z" class="color000000 svgShape"/></g><g class="color000000 svgShape"><polygon points="344.501 518.835 352.614 529.614 337.358 521.892" class="color000000 svgShape"/></g><g class="color000000 svgShape"><path fill="#fff5f5" d="M311.2163696,551.7824097c1.3877258,5.809021,3.7534485,10.6790771,2.7298889,11.2278442               c-2.1932068,1.1758423-5.5898132-4.4245605-7.3109436-8.0608521               c0.7073059,3.8319092,1.5632019,7.3353882,0.2976685,7.4420776               c-3.8501282,0.324585-14.3434143-25.8809204-14.3434143-25.8809204l19.9862366-10.8168335               c4.5496216,1.8309937,16.8876038,12.9485474,15.1830444,16.3884277               c-0.8574829,1.7360229-4.783783-0.6566162-9.3428345-1.9059448               c2.32724,8.7752075,7.4892273,15.7484741,5.7259216,16.4226074               c-2.3770752,0.9086914-6.0360413-3.607666-8.6713867-7.9313354               c2.0883484,6.3334961,5.2205811,11.3362427,3.6188965,12.0686035               C317.3751221,561.5198975,313.4593506,555.8449707,311.2163696,551.7824097z" class="colorffffff svgShape"/><path d="M307.4298401,557.2624512c0.515625,2.7602539,0.7314453,4.3974609,0.1845703,5.1191406               c-0.1611328,0.2119141-0.3867188,0.3364258-0.6523438,0.3583984               c-4.0322266,0.3271484-13.6132813-23.3925781-14.6972656-26.0996094               c-0.0654297-0.1645508,0.0019531-0.3530273,0.1582031-0.4375l19.9853516-10.8168945               c0.0898438-0.050293,0.2001953-0.0571289,0.2978516-0.0170898               c3.9892578,1.6054688,13.4824219,9.8828125,15.2636719,14.5561523               c0.3603516,0.9453125,0.3945313,1.7231445,0.1025391,2.3125               c-0.9916077,2.0065308-4.7061157-0.2279053-9.1542969-1.5537109               c2.5080872,8.8793945,7.6147156,15.369873,5.3486328,16.2421875               c-2.3242188,0.8808594-5.3671875-2.6015625-7.4521484-5.565918               c0.4462891,1.1489258,0.8994141,2.2324219,1.3212891,3.2397461               c1.5244141,3.6411133,2.4453125,5.8393555,1.0986328,6.4545898               c-1.8808594,0.859375-5.171875-3.8798828-7.0205078-6.878418               c0.3916016,1.3515625,0.8037109,2.6152344,1.1601563,3.7104492               c1.0429688,3.1987305,1.6171875,4.9609375,0.7373047,5.4321289               C311.7521057,564.5858765,308.7182922,559.6011963,307.4298401,557.2624512z M306.6349182,554.5993652               c0.1318359,0,0.2568359,0.0751953,0.3164063,0.2001953c1.6728516,3.5336914,4.1552734,7.3603516,5.9296875,7.9448242               c0.3408203,0.1118164,0.6367188,0.0981445,0.9003906-0.0429688               c0.3623047-0.1943359-0.4667969-2.7392578-1.0722656-4.5976563               c-0.5722656-1.7563477-1.2841797-3.9414063-1.8339844-6.2397461               c-0.0400391-0.1704102,0.0507813-0.3447266,0.2148438-0.4077148s0.3476563,0.0039063,0.4326172,0.1572266               c2.9648438,5.3696289,6.296875,9.3154297,7.4208984,8.8041992               c0.7294922-0.3334961-0.3300781-2.8662109-1.453125-5.5473633               c-0.7558594-1.8046875-1.6123047-3.8500977-2.3515625-6.09375               c-0.0556641-0.168457,0.0234375-0.3525391,0.1855469-0.4272461               c0.1582031-0.0732422,0.3525391-0.0166016,0.4453125,0.1357422c3.3349609,5.4726563,6.5,8.4580078,8.2470703,7.7866211               c0.0537109-0.0200195,0.0810547-0.046875,0.1015625-0.0991211               c0.5189819-1.2796021-3.9806519-8.1384277-6.0400391-15.9067383               c-0.0685425-0.2575684,0.1652832-0.4978027,0.4306641-0.4272461               c4.2055969,1.1519775,8.272522,3.4364624,8.9365234,2.0888672               c0.2021484-0.4082031,0.1582031-0.9975586-0.1298828-1.753418               c-1.6708984-4.3837891-10.8349609-12.4174805-14.7207031-14.0932617l-19.5634766,10.5888672               c4.0429688,10.0507813,11.2578125,25.5810547,13.8720703,25.3730469               c0.0683594-0.0058594,0.1113281-0.0292969,0.1523438-0.0844727               c0.4492188-0.5917969-0.03125-3.0996094-0.4960938-5.5249023               c-0.0888672-0.4643555-0.1806641-0.9394531-0.2685547-1.4204102               c-0.0322266-0.1728516,0.0693359-0.3422852,0.2363281-0.3964844               C306.5626526,554.6047363,306.5987854,554.5993652,306.6349182,554.5993652z" class="color000000 svgShape"/><path fill="#8aa2ff" d="M324.1554871,521.6064453l-40.4271545,21.5883179               c-15.5038147-13.4660034-40.9927673-37.3361816-52.0110779-68.8413696               c-3.9003601-11.1256714-5.9871826-23.2069092-5.1973114-36.1170959               c0.087616-1.4821472,0.2340088-2.9447632,0.41922-4.3878784               c5.2070618-40.5833435,46.726181-67.5932617,60.3969574-74.2141418l1.9208984,1.7649536l36.3806458,34.9374084               C261.2817688,421.3574524,291.5388184,487.9072876,324.1554871,521.6064453z" class="color6680ff svgShape"/><path d="M323.9044495,521.8508301c-25.2320251-26.0720825-48.5160217-71.0614624-29.546875-102.0043945               c0.1015625-0.1650391,0.3173828-0.2172852,0.4814453-0.1152344               c0.1650391,0.1010742,0.2167969,0.3164063,0.1162109,0.4814453               c-18.8024597,30.6674805,4.5202637,75.3893738,29.453125,101.1518555               c0.1337891,0.1386719,0.1298828,0.3603516-0.0087891,0.4946289               C324.2653809,521.9904175,324.0433655,521.9936523,323.9044495,521.8508301z" class="color000000 svgShape"/><path d="M248.9860382,454.1886292c0,10.2091675-7.4888611,18.6633301-17.2687836,20.1647644             c-3.9003601-11.1256714-5.9871826-23.2069092-5.1973114-36.1170959             c0.087616-1.4821472,0.2340088-2.9447632,0.41922-4.3878784c0.5363464-0.0488281,1.0824585-0.0683289,1.638092-0.0683289             C239.8493347,433.7800903,248.9860382,442.9167786,248.9860382,454.1886292z" class="color000000 svgShape"/><path d="M266.5157776,521.6906738c-0.0458984-0.1879883,0.0693359-0.3774414,0.2568359-0.4228516l44.4306641-10.8305664             c0.1943359-0.0458984,0.3769531,0.0698242,0.4228516,0.2568359             c0.0458984,0.1879883-0.0693359,0.3774414-0.2568359,0.4228516l-44.4306641,10.8305664             C266.7454529,521.9941406,266.5606689,521.8741455,266.5157776,521.6906738z" class="color000000 svgShape"/><path d="M285.6720276,532.6296387c-2.0712891,0-3.7558594-1.6816406-3.7558594-3.7490234             s1.6845703-3.7495117,3.7558594-3.7495117c2.0664063,0,3.7480469,1.6821289,3.7480469,3.7495117             S287.7384338,532.6296387,285.6720276,532.6296387z M285.6720276,525.8312988             c-1.6855469,0-3.0566406,1.3676758-3.0566406,3.0493164c0,1.6811523,1.3710938,3.0488281,3.0566406,3.0488281             c1.6806641,0,3.0488281-1.3676758,3.0488281-3.0488281             C288.7208557,527.1989746,287.3526917,525.8312988,285.6720276,525.8312988z" class="color000000 svgShape"/></g><g class="color000000 svgShape"><path fill="#fff5f5" d="M382.5163269,551.8015137c-1.3877258,5.809021-3.753479,10.6790771-2.7298889,11.2278442               c2.1932068,1.1758423,5.5898132-4.4244995,7.3109131-8.0608521               c-0.7072754,3.8319702-1.5631714,7.3354492-0.2976379,7.4420776               c3.8501282,0.324585,14.3434143-25.8809204,14.3434143-25.8809204l-19.9862366-10.8168335               c-4.5496216,1.8309937-16.8876038,12.9485474-15.1830444,16.3884277               c0.8574829,1.7360229,4.783783-0.6566162,9.3428345-1.9058838               c-2.32724,8.7751465-7.4892273,15.7484131-5.7259216,16.4225464               c2.3770752,0.9087524,6.0360413-3.607666,8.6713867-7.9313354               c-2.0883484,6.3334961-5.2205811,11.3363037-3.6188965,12.0686035               C376.3575745,561.5390015,380.2733459,555.8640747,382.5163269,551.8015137z" class="colorffffff svgShape"/><path d="M380.4200745,563.5393066c-0.28125,0-0.5488281-0.0673828-0.7988281-0.2011719               c-0.8798828-0.4716797-0.3056641-2.2338867,0.7373047-5.4326172               c0.3564453-1.0957031,0.7685547-2.359375,1.1601563-3.7104492               c-1.8486328,2.9995117-5.1455078,7.7392578-7.0205078,6.878418               c-1.3466797-0.6152344-0.4257813-2.8129883,1.0986328-6.4536133               c0.421875-1.0078125,0.875-2.0908203,1.3212891-3.2402344               c-2.0849609,2.9638672-5.1308594,6.4492188-7.4521484,5.5654297               c-0.2333984-0.0898438-0.4072266-0.2592773-0.5009766-0.4902344               c-0.3564453-0.8798828,0.4589844-2.628418,1.8085938-5.5253906               c1.2441406-2.6713867,2.9267578-6.2817383,4.0410156-10.2260742               c-4.4491577,1.3261108-8.1645508,3.5581665-9.1542969,1.5527344               c-0.2919922-0.5888672-0.2578125-1.3666992,0.1025391-2.3120117               c1.7802734-4.6728516,11.2734375-12.9501953,15.2626953-14.5561523               c0.0966797-0.0395508,0.2070313-0.0327148,0.2978516,0.0170898l19.9863281,10.8168945               c0.15625,0.0844727,0.2236328,0.2729492,0.1582031,0.4375               c-1.0761719,2.6879883-10.5693359,26.1015625-14.6123047,26.1035156               c-0.0283203,0-0.0566406-0.0014648-0.0849609-0.0039063c-0.265625-0.0219727-0.4912109-0.1464844-0.6523438-0.3583984               c-0.546875-0.7216797-0.3310547-2.3588867,0.1845703-5.1191406               c-1.265625,2.2973633-3.3291016,5.5200195-5.2324219,6.1469727               C380.8468323,563.5021973,380.6290588,563.5393066,380.4200745,563.5393066z M382.5167542,551.451416               c0.0419922,0,0.0849609,0.0078125,0.1259766,0.0239258c0.1640625,0.0629883,0.2548828,0.2373047,0.2148438,0.4077148               c-0.5498047,2.2978516-1.2617188,4.4833984-1.8339844,6.2392578               c-0.6054688,1.8588867-1.4345703,4.4042969-1.0722656,4.5986328               c0.2636719,0.1411133,0.5576172,0.1542969,0.9003906,0.0429688               c1.7744141-0.5849609,4.2568359-4.4116211,5.9296875-7.9453125               c0.0761719-0.159668,0.2597656-0.2382813,0.4238281-0.1831055               c0.1669922,0.0541992,0.2685547,0.2236328,0.2363281,0.3964844               c-0.0878906,0.480957-0.1796875,0.9560547-0.2685547,1.4204102               c-0.4648438,2.425293-0.9453125,4.9331055-0.4960938,5.5249023               c0.0410156,0.0551758,0.0839844,0.0786133,0.1523438,0.0844727               c0.0185547,0.0014648,0.0361328,0.0019531,0.0546875,0.0019531c2.6376953,0,9.8017578-15.394043,13.8173828-25.375               l-19.5644531-10.5888672c-3.8857422,1.6762695-13.0498047,9.7099609-14.7197266,14.09375               c-0.2880859,0.7553711-0.3320313,1.3447266-0.1298828,1.7524414               c0.6652527,1.347168,4.7406006-0.9385376,8.9365234-2.0878906               c0.2605896-0.0714722,0.4999695,0.1669312,0.4306641,0.4272461               c-1.1230469,4.2363281-2.9287109,8.1103516-4.2460938,10.9394531               c-1.0927734,2.3447266-2.0361328,4.3696289-1.7939453,4.9667969               c0.0205078,0.0522461,0.0478516,0.0791016,0.1015625,0.0991211               c1.7480469,0.6728516,4.9130859-2.3134766,8.2470703-7.7861328               c0.0927734-0.152832,0.2861328-0.2099609,0.4453125-0.1357422               c0.1621094,0.074707,0.2412109,0.2587891,0.1855469,0.4272461               c-0.7392578,2.2436523-1.5957031,4.2890625-2.3515625,6.09375               c-1.1230469,2.6811523-2.1826172,5.2133789-1.453125,5.546875               c1.1269531,0.5170898,4.4570313-3.434082,7.4208984-8.8041992               C382.2735901,551.5178223,382.3927307,551.451416,382.5167542,551.451416z" class="color000000 svgShape"/><path fill="#8aa2ff" d="M369.5772095,521.6255493l40.4271545,21.5883789               c15.5038147-13.4660645,40.9927673-37.3362122,52.0110779-68.8414001               c4.9786377-14.2014465,6.3239136-28.4603271,4.7780762-40.5050049               c-5.2070618-40.583313-48.5257568-67.2391663-62.1965027-73.8600464l-0.1213379,1.4108887l-36.3806458,34.9374084               C432.4509277,421.3765869,402.1938782,487.9263916,369.5772095,521.6255493z" class="color6680ff svgShape"/><path d="M369.3331604,521.8786621c-0.1386719-0.1342773-0.1425781-0.355957-0.0087891-0.4946289               c24.9318542-25.7622986,48.2559509-70.484314,29.453125-101.1523438               c-0.1005859-0.1650391-0.0488281-0.3803711,0.1162109-0.4814453               c0.1621094-0.1010742,0.3789063-0.0498047,0.4814453,0.1152344               c18.9657593,30.938446-4.305603,75.9223633-29.546875,102.0048828               C369.6893921,522.0131836,369.4673767,522.0099487,369.3331604,521.8786621z" class="color000000 svgShape"/><path d="M444.7466431,454.2077637c0,10.209137,7.4888611,18.6633301,17.2687988,20.1647644             c4.9786377-14.2014465,6.3239136-28.4603271,4.7780762-40.5050049             C455.3530579,432.8265686,444.7466431,441.9857483,444.7466431,454.2077637z" class="color000000 svgShape"/><path d="M426.7940979,521.967041l-44.4306641-10.8305664c-0.1875-0.0454102-0.3027344-0.2348633-0.2568359-0.4228516             c0.0458984-0.1870117,0.2333984-0.3027344,0.4228516-0.2568359l44.4306641,10.8305664             c0.1875,0.0454102,0.3027344,0.2348633,0.2568359,0.4228516             C427.1720276,521.8939209,426.9870605,522.0136108,426.7940979,521.967041z" class="color000000 svgShape"/><path d="M408.0606995,532.6486816c-2.0664063,0-3.7480469-1.6816406-3.7480469-3.7490234             s1.6816406-3.7495117,3.7480469-3.7495117c2.0712891,0,3.7558594,1.6821289,3.7558594,3.7495117             S410.1319885,532.6486816,408.0606995,532.6486816z M408.0606995,525.8503418             c-1.6806641,0-3.0488281,1.3676758-3.0488281,3.0493164c0,1.6811523,1.3681641,3.0488281,3.0488281,3.0488281             c1.6855469,0,3.0566406-1.3676758,3.0566406-3.0488281             C411.1173401,527.2180176,409.7462463,525.8503418,408.0606995,525.8503418z" class="color000000 svgShape"/></g><g class="color000000 svgShape"><path fill="#fff5f5" d="M410.2250366,158.1190186c0,33.2649078-26.9691772,60.234314-60.2341003,60.234314            c-33.24646,0-60.2158813-26.9694061-60.2158813-60.234314c0-33.2464905,26.9694214-60.2156754,60.2158813-60.2156754            C383.2558594,97.9033432,410.2250366,124.8725281,410.2250366,158.1190186z" class="colorffffff svgShape"/><path d="M349.9913635,218.7033691c-33.3964844,0-60.5664063-27.1782227-60.5664063-60.5844727            c0-33.3959961,27.1699219-60.5654297,60.5664063-60.5654297c33.40625,0,60.5830078,27.1694336,60.5830078,60.5654297            C410.5743713,191.5251465,383.3976135,218.7033691,349.9913635,218.7033691z M349.9913635,98.2536621            c-33.0107422,0-59.8671875,26.8554688-59.8671875,59.8652344c0,33.0205078,26.8564453,59.8842773,59.8671875,59.8842773            c33.0195313,0,59.8837891-26.8637695,59.8837891-59.8842773            C409.8751526,125.1091309,383.0108948,98.2536621,349.9913635,98.2536621z" class="color000000 svgShape"/><path fill="#fff5f5" d="M349.9933167,207.9212494c-27.4521484,0-49.7861328-22.3398438-49.7861328-49.7993164            c0-27.4526367,22.3339844-49.7866211,49.7861328-49.7866211c27.4599609,0,49.7998047,22.3339844,49.7998047,49.7866211            C399.7931213,185.5814056,377.4532776,207.9212494,349.9933167,207.9212494z" class="colorffffff svgShape"/><path d="M349.9933167,208.2712402c-27.6455078,0-50.1357422-22.4970703-50.1357422-50.1494141            c0-27.6455078,22.4902344-50.1367188,50.1357422-50.1367188c27.6523438,0,50.1494141,22.4912109,50.1494141,50.1367188            C400.1427307,185.7741699,377.6456604,208.2712402,349.9933167,208.2712402z M349.9933167,108.6853027            c-27.2587891,0-49.4365234,22.1772461-49.4365234,49.4365234c0,27.2666016,22.1777344,49.4492188,49.4365234,49.4492188            c27.2666016,0,49.4501953-22.1826172,49.4501953-49.4492188            C399.443512,130.8625488,377.2599182,108.6853027,349.9933167,108.6853027z" class="color000000 svgShape"/></g><g class="color000000 svgShape"><path fill="#fff5f5" d="M572.2021484,317.2224121c0,33.2648926-26.9691772,60.234314-60.2341003,60.234314             c-33.24646,0-60.2158813-26.9694214-60.2158813-60.234314c0-33.2464905,26.9694214-60.2156677,60.2158813-60.2156677             C545.2329712,257.0067444,572.2021484,283.9759216,572.2021484,317.2224121z" class="colorffffff svgShape"/><path d="M511.967926,377.8068848c-33.3964844,0-60.5654297-27.1782227-60.5654297-60.5844727             c0-33.3959961,27.1689453-60.565918,60.5654297-60.565918c33.4062805,0,60.5840149,27.1699219,60.5840149,60.565918             C572.5519409,350.6286621,545.3742065,377.8068848,511.967926,377.8068848z M511.967926,257.3566895             c-33.0097656,0-59.8662109,26.8554688-59.8662109,59.8657227c0,33.0205078,26.8564453,59.8842773,59.8662109,59.8842773             c33.0205383,0,59.8847961-26.8637695,59.8847961-59.8842773             C571.8527222,284.2121582,544.9884644,257.3566895,511.967926,257.3566895z" class="color000000 svgShape"/><path fill="#fff5f5" d="M511.9708557,367.0247498c-27.4521484,0-49.7861328-22.340332-49.7861328-49.7998047             c0-27.4521484,22.3339844-49.7861328,49.7861328-49.7861328c27.4590149,0,49.7988586,22.3339844,49.7988586,49.7861328             C561.7697144,344.6844177,539.4298706,367.0247498,511.9708557,367.0247498z" class="colorffffff svgShape"/><path d="M511.9708557,367.3747559c-27.6455078,0-50.1357422-22.4970703-50.1357422-50.1499023             c0-27.6450195,22.4902344-50.1362305,50.1357422-50.1362305c27.6523743,0,50.148468,22.4912109,50.148468,50.1362305             C562.1193237,344.8776855,539.62323,367.3747559,511.9708557,367.3747559z M511.9708557,267.7888184             c-27.2587891,0-49.4365234,22.1767578-49.4365234,49.4360352c0,27.2666016,22.1777344,49.449707,49.4365234,49.449707             c27.2666321,0,49.4492493-22.1831055,49.4492493-49.449707             C561.420105,289.9655762,539.2374878,267.7888184,511.9708557,267.7888184z" class="color000000 svgShape"/><g class="color000000 svgShape"><path fill="#fff5f5" d="M248.2479248,317.2224121c0,33.2648926-26.9691772,60.234314-60.2341003,60.234314             c-33.2464752,0-60.215889-26.9694214-60.215889-60.234314c0-33.2464905,26.9694138-60.2156677,60.215889-60.2156677             C221.2787476,257.0067444,248.2479248,283.9759216,248.2479248,317.2224121z" class="colorffffff svgShape"/><path d="M188.0138397,377.8068848c-33.3964844,0-60.5654297-27.1782227-60.5654297-60.5844727             c0-33.3959961,27.1689453-60.565918,60.5654297-60.565918c33.40625,0,60.5839844,27.1699219,60.5839844,60.565918             C248.5978241,350.6286621,221.4200897,377.8068848,188.0138397,377.8068848z M188.0138397,257.3566895             c-33.0097656,0-59.8662109,26.8554688-59.8662109,59.8657227c0,33.0205078,26.8564453,59.8842773,59.8662109,59.8842773             c33.0205078,0,59.8847656-26.8637695,59.8847656-59.8842773             C247.8986053,284.2121582,221.0343475,257.3566895,188.0138397,257.3566895z" class="color000000 svgShape"/><path fill="#fff5f5" d="M188.0167694,367.0247498c-27.453125,0-49.7871094-22.340332-49.7871094-49.7998047             c0-27.4521484,22.3339844-49.7861328,49.7871094-49.7861328c27.4589844,0,49.7988281,22.3339844,49.7988281,49.7861328             C237.8155975,344.6844177,215.4757538,367.0247498,188.0167694,367.0247498z" class="colorffffff svgShape"/><path d="M188.0167694,367.3747559c-27.6455078,0-50.1367188-22.4970703-50.1367188-50.1499023             c0-27.6450195,22.4912109-50.1362305,50.1367188-50.1362305c27.6523438,0,50.1484375,22.4912109,50.1484375,50.1362305             C238.1652069,344.8776855,215.6691132,367.3747559,188.0167694,367.3747559z M188.0167694,267.7888184             c-27.2597656,0-49.4375,22.1767578-49.4375,49.4360352c0,27.2666016,22.1777344,49.449707,49.4375,49.449707             c27.2666016,0,49.4492188-22.1831055,49.4492188-49.449707             C237.4659882,289.9655762,215.283371,267.7888184,188.0167694,267.7888184z" class="color000000 svgShape"/></g></g><g class="color000000 svgShape"><path fill="#4f6fed" d="M532.4195557,325.2184143c-1.6831055,11.0860901-9.1001587,19.289917-16.5631104,18.318512            c-0.6207275-0.0803833-1.2225952-0.2224731-1.8035278-0.4218445            c-1.3447876-0.4615479-2.8031006-0.4619446-4.1481934-0.0012207            c-0.5809021,0.1989441-1.1835022,0.3411255-1.8056946,0.4230652            c-7.4629517,0.971405-14.8800659-7.2324219-16.5631104-18.318512            c-1.6831055-11.0895996,3.0027771-20.8674622,10.4618835-21.8424072            c2.2999268-0.2995911,4.5950012,0.2726135,6.7202759,1.5315857c1.9998169,1.1846619,4.5178223,1.1846008,6.5177002,0            c2.1253662-1.2589722,4.4219971-1.8311768,6.7219238-1.5315857            C529.4168091,304.3509521,534.0988159,314.1288147,532.4195557,325.2184143z" class="colored6d4f svgShape"/><path fill="#7586c6" d="M521.6774902,290.8484497c0.5869141,6.5328674-4.232666,12.3040771-10.7655029,12.8910522           l-0.0046692,0.0004272c-0.5862427-6.5249634,4.2279358-12.3036499,10.7654724-12.8910522L521.6774902,290.8484497z" class="color75c675 svgShape"/></g><g class="color000000 svgShape"><path fill="#fff5f5" d="M206.5461121,293.5754395v52.2302551c0,2.582489-2.0935364,4.6760254-4.6760254,4.6760254h-27.6943054           c-2.5825043,0-4.6760254-2.0935364-4.6760254-4.6760254v-52.2302551c0-2.582489,2.0935211-4.6759949,4.6760254-4.6759949           h27.6943054C204.4525757,288.8994446,206.5461121,290.9929504,206.5461121,293.5754395z" class="colorffffff svgShape"/><path d="M201.870285,350.8317871h-27.6943359c-2.7714844,0-5.0253906-2.2548828-5.0253906-5.0258789v-52.2304688           c0-2.7709961,2.2539063-5.0258789,5.0253906-5.0258789h27.6943359c2.7714844,0,5.0253906,2.2548828,5.0253906,5.0258789           v52.2304688C206.8956757,348.5769043,204.6417694,350.8317871,201.870285,350.8317871z M174.1759491,289.2497559           c-2.3847656,0-4.3261719,1.9404297-4.3261719,4.3256836v52.2304688c0,2.3852539,1.9414063,4.3256836,4.3261719,4.3256836           h27.6943359c2.3847656,0,4.3261719-1.9404297,4.3261719-4.3256836v-52.2304688           c0-2.3852539-1.9414063-4.3256836-4.3261719-4.3256836H174.1759491z" class="color000000 svgShape"/><path fill="#fff5f5" d="M194.4402161,286.7351379v2.162384h-12.8345642v-2.162384           c0-1.5206604,1.2327423-2.7533875,2.7534027-2.7533875h7.3277588           C193.2074738,283.9817505,194.4402161,285.2144775,194.4402161,286.7351379z" class="colorffffff svgShape"/><path d="M194.4405975,289.2478027h-12.8349609c-0.1933594,0-0.3496094-0.1567383-0.3496094-0.3500977v-2.1625977           c0-1.7114258,1.3916016-3.1035156,3.1035156-3.1035156h7.3271484c1.7119141,0,3.1035156,1.3920898,3.1035156,3.1035156           v2.1625977C194.7902069,289.0910645,194.6339569,289.2478027,194.4405975,289.2478027z M181.955246,288.5476074h12.1357422           v-1.8125c0-1.3251953-1.0791016-2.4033203-2.4042969-2.4033203h-7.3271484           c-1.3251953,0-2.4042969,1.078125-2.4042969,2.4033203V288.5476074z" class="color000000 svgShape"/><path fill="#ff7676" d="M201.7452393,337.6080933v5.4716492c0,0.6854553-0.556839,1.2313232-1.2313843,1.2313232h-24.981781           c-0.6853333,0-1.2314453-0.5458679-1.2314453-1.2313232v-5.4716492c0-0.6749878,0.5461121-1.2208557,1.2314453-1.2208557           h24.981781C201.1884003,336.3872375,201.7452393,336.9331055,201.7452393,337.6080933z" class="colorffc176 svgShape"/><path fill="#ffcaca" d="M201.7452393,326.2519836v5.4716187c0,0.6854858-0.556839,1.2313232-1.2313843,1.2313232h-24.981781           c-0.6853333,0-1.2314453-0.5458374-1.2314453-1.2313232v-5.4716187c0-0.6750183,0.5461121-1.2208862,1.2314453-1.2208862           h24.981781C201.1884003,325.0310974,201.7452393,325.5769653,201.7452393,326.2519836z" class="colorcad5ff svgShape"/><path fill="#ff8686" d="M201.7452393,314.8958435v5.4716492c0,0.6854553-0.556839,1.2312927-1.2313843,1.2312927h-24.981781           c-0.6853333,0-1.2314453-0.5458374-1.2314453-1.2312927v-5.4716492c0-0.6750183,0.5461121-1.2208557,1.2314453-1.2208557           h24.981781C201.1884003,313.6749878,201.7452393,314.2208252,201.7452393,314.8958435z" class="colorffa186 svgShape"/></g><g class="color000000 svgShape"><path fill="#fff5f5" d="M372.1723633,152.2403107l-28.0639954,28.0640106           c-4.4975281,4.4975281-11.7885437,4.497467-16.2860107,0c-4.4975891-4.4975586-4.4976196-11.7885895-0.0001221-16.2861023           l28.0639954-28.0640106c4.497467-4.497467,11.7927856-4.501709,16.2903748-0.0041351           C376.6608582,140.4343414,376.6922302,147.720459,372.1723633,152.2403107z" class="colorffffff svgShape"/><path d="M327.5753479,180.552002c-4.6381226-4.6361084-4.6398926-12.1433716,0-16.78125l28.0634766-28.0639648           c4.6279297-4.6293945,12.1591797-4.6298828,16.7851563-0.0043945           c4.6286926,4.6307068,4.6503906,12.1303864-0.0048828,16.7856445l-0.2470703-0.2475586l0.2470703,0.2475586           l-28.0634766,28.0639648C339.7191162,185.1885071,332.2119446,185.1905975,327.5753479,180.552002z            M356.1329651,136.2019043l-28.0634766,28.0639648c-4.3630676,4.3620758-4.3650513,11.4269714,0,15.7910156           c4.3628845,4.3628845,11.4269409,4.3650665,15.7919922,0l28.0634766-28.0639648           c4.3833313-4.3843384,4.3580933-11.4402161,0.0048828-15.7954102           C367.5793152,131.8469849,360.4924622,131.8433838,356.1329651,136.2019043z" class="color000000 svgShape"/><path fill="#ff8686" d="M358.6026917,165.8099823l13.5696716-13.5696716            c4.5202332-4.5202332,4.4881287-11.806366,0.0042419-16.2902374            c-4.4975891-4.4975739-11.7929077-4.4933319-16.2903748,0.0041351L342.3165588,149.52388L358.6026917,165.8099823z" class="colorffa186 svgShape"/><path d="M358.3556213,166.057373l-16.2861328-16.2861328c-0.1367188-0.1367188-0.1367188-0.3583984,0-0.4951172            l13.5693359-13.5693359c4.6279297-4.6293945,12.1591797-4.6298828,16.7851563-0.0043945            c4.6286926,4.6307068,4.6503906,12.1303864-0.0048828,16.7856445L358.849762,166.057373            C358.7132263,166.1939087,358.4926147,166.1943665,358.3556213,166.057373z M342.811676,149.5236816            l15.7910156,15.7910156l13.3222656-13.3217773c4.3833313-4.3843384,4.3580933-11.4402161,0.0048828-15.7954102            c-4.3535156-4.3530273-11.4394531-4.3525391-15.796875,0.0043945L342.811676,149.5236816z" class="color000000 svgShape"/></g><g class="color000000 svgShape"><path d="M492.6222229,447.2902832c-0.1923828-0.0166016-0.3349609-0.1865234-0.3183594-0.3789063          c0.0166016-0.1918945,0.1845703-0.3383789,0.3789063-0.3183594          c5.4022522,0.4698792,10.1495972-3.5226746,10.6103516-8.9355469          c0.4589844-5.4003906-3.5537109-10.1757813-8.9462891-10.6455078          c-0.1923828-0.0166016-0.3349609-0.1865234-0.3183594-0.3789063          c0.0166016-0.1918945,0.1835938-0.331543,0.3789063-0.3183594          c5.7763672,0.5029297,10.0751953,5.6181641,9.5830078,11.4023438          C503.4961548,443.5282898,498.3883362,447.7980042,492.6222229,447.2902832z" class="color000000 svgShape"/></g><g class="color000000 svgShape"><path d="M277.2355042,283.1794434c-3.1640625-5.2158203-1.4912109-12.0454102,3.7285156-15.2236328          c5.2156372-3.1764832,12.0209045-1.5426636,15.2001953,3.6987305          c0.1005859,0.1655273,0.0478516,0.3808594-0.1171875,0.480957          c-0.1640625,0.0986328-0.3798828,0.0483398-0.4804688-0.1176758          c-2.9746094-4.9033508-9.3424988-6.4421387-14.2392578-3.4643555          c-4.8896484,2.9780273-6.4570313,9.3764648-3.4941406,14.2626953          c0.1005859,0.1655273,0.0478516,0.3808594-0.1171875,0.480957          C277.5491943,283.3977661,277.3347473,283.3438721,277.2355042,283.1794434z" class="color000000 svgShape"/></g><g class="color000000 svgShape"><path d="M187.1251678,451.7370605c-5.3496094-2.2329102-7.8945313-8.4101563-5.6728516-13.7700195          c2.22966-5.3768921,8.37883-7.9014282,13.7324219-5.6645508c0.1787109,0.0742188,0.2626953,0.2792969,0.1884766,0.4575195          c-0.0751953,0.1782227-0.2802734,0.2631836-0.4580078,0.1879883          c-5.0053711-2.0885925-10.7369385,0.2738037-12.8164063,5.2875977          c-2.0742188,5.003418,0.3007813,10.7705078,5.2958984,12.855957          c0.1787109,0.0742188,0.2626953,0.2792969,0.1884766,0.4575195          C187.5072174,451.7291565,187.3013306,451.8114319,187.1251678,451.7370605z" class="color000000 svgShape"/></g><g class="color000000 svgShape"><path d="M374.912262,323.3405762c-0.1308594-0.1425781-0.1210938-0.3637695,0.0214844-0.4946289l7.0966797-6.519043          c0.140625-0.1303711,0.3623047-0.1220703,0.4941406,0.0209961c0.1308594,0.1425781,0.1210938,0.3637695-0.0214844,0.4946289          l-7.0966797,6.519043C375.2675171,323.4902344,375.0458069,323.4854126,374.912262,323.3405762z" class="color000000 svgShape"/><path d="M386.6983948,328.3098145h-9.6367188c-0.1933594,0-0.3496094-0.1567383-0.3496094-0.3500977          s0.15625-0.3500977,0.3496094-0.3500977h9.6367188c0.1933594,0,0.3496094,0.1567383,0.3496094,0.3500977          S386.8917542,328.3098145,386.6983948,328.3098145z" class="color000000 svgShape"/><path d="M382.030426,339.5925293l-7.0966797-6.519043c-0.1425781-0.1308594-0.1523438-0.3520508-0.0214844-0.4946289          s0.3535156-0.1508789,0.4941406-0.0209961l7.0966797,6.519043c0.1425781,0.1308594,0.1523438,0.3520508,0.0214844,0.4946289          C382.3910217,339.7163696,382.1693115,339.7211914,382.030426,339.5925293z" class="color000000 svgShape"/></g></svg>