<svg xmlns="http://www.w3.org/2000/svg" enable-background="new 0 0 700 700" viewBox="0 0 700 700"><path fill="#448cff" d="M172.2032928,360.8233337l-1.622879,30.6729431l-1.3092346,24.930603l-7.3509216,14.2929382            l-6.0556793,11.7837219c-1.8136597,3.7365417-5.0461121,6.5874023-8.9877777,7.9099731            c-1.2773743,0.2454529,4.6273193-0.8892517-12.4925995,2.4006958            c-3.4778442,1.1593933-6.996315-1.6774902-6.6010818-5.3188171l8.8516006-82.0351563            c0.2727051-2.5092468,2.3730621-4.4324646,4.8959503-4.4870605l14.1431274,0.2184143l4.2007141-0.0952454            L172.2032928,360.8233337z" class="colorffae44 svgShape"/><path d="M143.8584442,360.9225464l-2.3266144,0.0506287c-2.5283051,0.0551453-4.6231842,1.9774475-4.8946533,4.4917297            l-8.8572845,82.0317688c-0.3766556,3.4884338,2.8221283,6.2185364,6.1441498,5.4347229            C133.7815247,419.5747375,136.7602539,388.6460571,143.8584442,360.9225464z" class="color000000 svgShape"/><path d="M172.2032928,360.8233337l-1.622879,30.6729431c-8.6601563-1.5549622-15.2339325-9.13797-15.2339325-18.2485962           c0-4.650238,1.7184448-8.8922424,4.5280304-12.1513367L172.2032928,360.8233337z" class="color000000 svgShape"/><path d="M161.9202576,430.7198181l-6.0556793,11.7837219c-1.8136597,3.7365417-5.0461121,6.5874023-8.9877777,7.9099731           l-5.714386,1.1047668c-0.1088867-0.7771301-0.1634827-1.5822449-0.1634827-2.4000244           c0-10.2427368,8.3058624-18.5622559,18.5615845-18.5622559           C160.3652954,430.5559998,161.1564331,430.6105957,161.9202576,430.7198181z" class="color000000 svgShape"/><path fill="#fff" d="M387.2757568,408.5930481c-6.1299744,4.4109802-16.8150024,7.5120544-30.024231,9.6277771          c-15.6010742,2.5001221-34.723999,3.6416016-54.0027466,4.002533          c-47.1039734,0.8773804-131.3368988,0.7761536-131.3368988,0.7761536          c-10.2642517-26.3222046-11.1657104-46.9229126-0.8533173-61.7311096l132.3342896-14.1423645          c0,0-29.9520569-49.0626831-0.8894043-76.6349182l65.3010864,6.9592285          C367.8045349,277.4503479,418.3699036,386.2252502,387.2757568,408.5930481z" class="colorffffff svgShape"/><path d="M179.4476776,423.3530273c-4.6582031,0-7.3876953-0.0029297-7.5361328-0.0039063          c-0.1445313,0-0.2734375-0.0878906-0.3261719-0.2226563c-10.6347656-27.2734375-10.9003906-47.5732422-0.8134766-62.0585938          c0.0576172-0.0830078,0.1494141-0.1367188,0.25-0.1474609l131.7939606-14.0839844          c-1.3984375-2.4091797-7.7021484-13.7333984-11.1064453-27.6044922          c-3.5390625-14.4257813-4.5820313-34.6367188,10.5527344-48.9951172          c0.0751953-0.0712891,0.1777344-0.1132813,0.2783203-0.09375l65.3007813,6.9599609          c0.1220703,0.0126953,0.2285156,0.0888672,0.2802734,0.2001953          c0.1269531,0.2724609,12.7529297,27.5605469,21.4150391,57.2324219          c11.6640625,39.9570313,10.9726563,64.9697266-2.0566406,74.3417969          c-5.7587891,4.1445313-15.9111328,7.4042969-30.1728516,9.6894531          c-14.0439453,2.25-32.2294922,3.5986328-54.0517578,4.0058594          C264.9008179,423.2875977,201.196701,423.3530273,179.4476776,423.3530273z M172.1508026,422.6499023          c5.015625,0.0048828,85.7607574,0.0683594,131.0908356-0.7763672          c21.7900391-0.4072266,39.9433594-1.7529297,53.9541016-3.9980469          c14.1542969-2.2675781,24.2060547-5.4863281,29.8759766-9.5664063l0,0          c29.9189453-21.5234375-17.203125-125.5166016-19.5019531-130.53125l-64.9423828-6.921875          c-28.3339844,27.0859375,0.7666016,75.6005859,1.0644531,76.0878906          c0.0625,0.1025391,0.0683594,0.2294922,0.0146484,0.3369141c-0.0527344,0.1083984-0.1572266,0.1806641-0.2763672,0.1933594          l-132.1748199,14.125C161.431076,375.8305664,161.7250214,395.8041992,172.1508026,422.6499023z" class="color000000 svgShape"/><path d="M194.368576,423.3530273c-0.1806641,0-0.3339844-0.1386719-0.3486328-0.3212891l-3.1347656-39.1767578          c-0.015625-0.1933594,0.1279297-0.3613281,0.3203125-0.3769531          c0.1992188-0.0185547,0.3613281,0.1289063,0.3769531,0.3203125l3.1347656,39.1767578          c0.015625,0.1933594-0.1279297,0.3613281-0.3203125,0.3769531          C194.3871307,423.3530273,194.3773651,423.3530273,194.368576,423.3530273z" class="color000000 svgShape"/><path fill="#448cff" d="M361.1043396,603.1723022h-82.5119629c-2.5368652,0-4.6645508-1.881897-4.9918518-4.3911133           l-1.2955627-14.0751953l-0.477478-3.6686401l-1.6638489-12.7246704l36.905426-0.6679688l24.958252-0.4501343           l11.0468445,4.4870605l10.0516052,4.0914917c3.9143677,1.4044189,7.0918884,4.3232422,8.8239746,8.1010742           l1.26828,4.1461182l2.4549561,8.0058594C367.2142944,599.3671875,364.7729797,603.1723022,361.1043396,603.1723022z" class="colorffae44 svgShape"/><path d="M273.3028564,596.4777222l0.3001404,2.3077393c0.3262329,2.5078125,2.4623108,4.3842163,4.9912109,4.3842163           h82.5085754c3.5086975,0,5.8797607-3.4735107,4.7433472-6.6919556           C335.4152527,601.1325684,304.5328674,600.7463379,273.3028564,596.4777222z" class="color000000 svgShape"/><path d="M363.2180176,588.0203247c-1.0907898,0.2184448-2.2229004,0.3409424-3.3686218,0.3409424          c-9.2331848,0-16.7342834-7.4604492-16.775238-16.6796265l10.0516052,4.0914917          c3.9143677,1.4044189,7.0918884,4.3232422,8.8239746,8.1010742L363.2180176,588.0203247z" class="color000000 svgShape"/><path d="M307.0690613,567.6447144c-4.1188049,9.3010864-13.4338989,15.7793579-24.2489929,15.7793579          c-3.914032,0-7.6372681-0.8457642-10.9925842-2.3867188l-1.6638489-12.7246704L307.0690613,567.6447144z" class="color000000 svgShape"/><path d="M234.7572327,323.732605c0,0,26.2726746,10.0007629,45.8619385,1.3255005         c19.5892944-8.6752625-1.9588623-63.525116-1.9588623-63.525116         C258.1415405,279.4692688,239.3588409,298.2306519,234.7572327,323.732605z" class="color000000 svgShape"/><path d="M357.2515259,418.2208252c-15.6010742,2.5001221-34.723999,3.6416016-54.0027466,4.002533l18.6419678-120.9145508         C321.8907471,301.3088074,345.7128601,369.7467957,357.2515259,418.2208252z" class="color000000 svgShape"/><path fill="#fff" d="M240.7602386,291.5702209c2.8862,101.2186279,29.7034149,109.3284607,29.678421,277.3611145         c18.0628357,4.5909424,37.5903625,6.1138916,61.5903015-1.7321167c0,0,7.3529663-150.4421082,6.1108704-186.23349         c-1.7026062-49.0609131-28.6852722-114.4057312-28.6852722-114.4057312L240.7602386,291.5702209z" class="colorffffff svgShape"/><path d="M298.9066772,573.0795898c-9.2060547,0-18.578125-1.2734375-28.5537109-3.8095703         c-0.1552734-0.0390625-0.2636719-0.1787109-0.2636719-0.3388672         c0.0136719-97.6259766-9.1220703-141.6679688-17.183609-180.5263672         c-5.8037109-27.9775391-11.2851563-54.4042969-12.4951172-96.8251953         c-0.0048828-0.1503906,0.0878906-0.2871094,0.2294922-0.3388672l68.6943512-25.0097656         c0.1787109-0.0615234,0.3720703,0.0214844,0.4433594,0.1953125         c0.2705078,0.6542969,27.0263672,65.9648438,28.7119141,114.5273438         c1.2285156,35.3964844-6.0380859,184.7578125-6.1113281,186.2617188         c-0.0068359,0.1455078-0.1025391,0.2705078-0.2412109,0.3164063         C320.8041382,571.2368164,309.9760132,573.0795898,298.9066772,573.0795898z M270.7885132,568.6586914         c21.6416016,5.4580078,40.4501953,4.9257813,60.9023438-1.7177734         c0.3330078-6.8554688,7.3037109-151.2626953,6.0996094-185.9638672         c-1.6220703-46.7158203-26.5234375-109.0195313-28.5332031-113.9726563l-68.1396637,24.8076172         c1.2226563,42.2099609,6.6884766,68.5595703,12.4736328,96.4511719         C261.6517944,427.1176758,270.7865601,471.1489258,270.7885132,568.6586914z" class="color000000 svgShape"/><path d="M332.9232788,552.5258789c-0.0019531,0-0.0029297,0-0.0048828,0l-38.7714844-0.5244141         c-0.1933594-0.0019531-0.3476563-0.1611328-0.3447266-0.3544922         c0.0019531-0.1914063,0.1582031-0.3447266,0.3496094-0.3447266c0.0019531,0,0.0029297,0,0.0048828,0l38.7714844,0.5244141         c0.1933594,0.0019531,0.3476563,0.1611328,0.3447266,0.3544922         C333.2709351,552.3725586,333.1146851,552.5258789,332.9232788,552.5258789z" class="color000000 svgShape"/><path d="M269.1937866,336.628418c-0.0732422,0-0.1474609-0.0224609-0.2099609-0.0693359         c-0.1542969-0.1162109-0.1855469-0.3359375-0.0703125-0.4902344         c14.7695313-19.7001953,9.4912109-37.4794922,9.4365234-37.6572266         c-0.0576172-0.1845703,0.0458984-0.3808594,0.2304688-0.4375c0.1845703-0.0576172,0.3808594,0.0458984,0.4375,0.2304688         c0.0566406,0.1806641,5.4375,18.3007813-9.5439453,38.2841797         C269.4047241,336.5805664,269.3002319,336.628418,269.1937866,336.628418z" class="color000000 svgShape"/><path fill="#6686ff" d="M446.7084961,142.1221466c-14.7029724,1.2493591-21.5831604,50.0575104-49.9857483,41.2215729         c-47.1393433-14.6722412-130.8208313-41.3135529-188.3319397,0.8703918         c-10.0238037,7.361618-19.627655,17.7028809-27.8801575,31.0947723         c-5.8360596,9.470871-10.9964294,20.4775543-15.163681,33.0305481         c-6.2967529,18.9622345-10.3307648,41.4770355-10.9759369,67.6168976h48.1939697         c0,0,3.4810944-40.9551086,24.5218201-77.3337402c-0.5221863,20.6315308,0.0614929,55.3203735,7.6688232,85.1047974         c9.5528564-20.1190796,38.2316895-41.0880737,58.7704773-43.4122925         c27.040741-3.061615,66.0605774,21.9723816,88.1149292,1.8737793         c-2.8973999-13.1059265-6.9929199-32.3241272-11.0371704-49.709549         c5.0783997,1.1568604,10.8631897,2.2322388,17.2214355,3.3381042         c5.651825,0.9723816,11.7745972,1.9862671,18.245575,3.1021271c0.0817261,0.010498,0.1637268,0.0309906,0.245697,0.0410004         c12.2557983,2.0172577,23.2112427-3.2046204,32.6820984-11.897583         c25.4537048-23.3751984,40.1156921-71.8143921,40.1156921-71.8143921S461.411499,140.8628082,446.7084961,142.1221466z" class="color6680ff svgShape"/><path d="M341.8206177,227.5427704c0.0707397,11.4473267-16.633728,20.8231964-37.305603,20.9509583         c-20.6722717,0.1277618-37.4909668-9.0409393-37.5617065-20.488266         c-0.0708618-11.463501,16.6332397-20.8385925,37.3055115-20.9663544         C324.9306946,206.9113464,341.7497559,216.0792694,341.8206177,227.5427704z" class="color000000 svgShape"/><path d="M322.6202393,116.7146835c0,0,1.0189209,7.9896164-4.003479,10.3813171          c-5.0224304,2.3917007-13.6123657-12.9682312-13.6123657-12.9682312L322.6202393,116.7146835z" class="color000000 svgShape"/><path fill="#fff" d="M296.9098206,170.6982422l3.010376-10.2981567          c23.6542358,5.6811523,18.8123169-40.5413818,17.8436279-44.3813477l-37.7422791,2.7453918l-0.5596313,23.2452393          l-3.2668457,19.1671143C284.500946,184.3739624,291.1184998,181.0821533,296.9098206,170.6982422z" class="colorffffff svgShape"/><path d="M288.0844116,178.9751129c-4.0830078-0.3369141-8.0800781-6.1210938-12.21875-17.6806641          c-0.0205078-0.0566406-0.0263672-0.1181641-0.015625-0.1767578l3.2675781-19.1669922l0.5546875-23.1953125          c0.0039063-0.1796875,0.1445313-0.3271484,0.3242188-0.3398438l37.7421875-2.7451172          c0.1845703-0.0166016,0.3232422,0.0996094,0.3652344,0.2626953c0.6074219,2.4101563,4.015625,31.6835938-6.03125,41.8457031          c-3.0595703,3.0927734-7.0634766,4.1171875-11.9091797,3.0371094l-2.9179688,9.9804688          c-0.0078125,0.0244141-0.0175781,0.0488281-0.0302734,0.0722656          C295.2601318,174.3748932,292.0827637,179.3009033,288.0844116,178.9751129z M276.5551147,161.1450348          c3.9707031,11.0615234,7.8681641,16.8251953,11.5869141,17.1318359          c2.6767578,0.2275391,5.4189453-2.3037109,8.4423828-7.7148438l3-10.2607422          c0.0517578-0.1777344,0.234375-0.2900391,0.4179688-0.2412109          c4.7382813,1.1376953,8.6289063,0.2050781,11.5722656-2.7734375          c9.5400391-9.6494141,6.6416016-37.0849609,5.9111328-40.8964844l-37.1220703,2.7001953l-0.5517578,22.9277344          L276.5551147,161.1450348z M296.9096069,170.6977692h0.0087891H296.9096069z" class="color000000 svgShape"/><path d="M326.1069641,112.4920044c2.4364624-7.9452286-11.1943665-11.657341-29.7900696-15.0173798          c-36.3308105-6.5645599-32.7191467,38.8483429-18.7645264,44.9293213          c10.3521729,4.5111694,4.2519531-12.4472046,4.2519531-12.4472046s8.118988,3.6551056,9.2526245-3.6441422          C292.1905823,119.0133591,321.2554932,128.3126068,326.1069641,112.4920044z" class="color000000 svgShape"/><path d="M309.4223022,142.148941c-0.1865234-0.0537109-0.2939453-0.2470703-0.2412109-0.4326172          c0.0537109-0.1855469,0.2451172-0.2919922,0.4326172-0.2412109          c1.4599609,0.4179688,2.6777344,0.4960938,3.3398438,0.2119141          c0.5834351-0.2493591,0.5650635-0.7439728,0.2197266-1.2685547          c-0.4003906-0.6045685-1.1899719-1.2430115-1.7421875-1.8789063          c-1.3730469-1.5800781-1.4746094-3.3095703-1.5576172-4.6992188          c-0.0107422-0.1923828,0.1357422-0.3583984,0.3291016-0.3701172          c0.1992188,0.0019531,0.3583984,0.1357422,0.3701172,0.3291016c0.0800781,1.3505859,0.1708984,2.8808594,1.3876953,4.28125          c0.549408,0.6351166,1.3298645,1.2476654,1.796875,1.9521484c0.5922852,0.8964386,0.4622498,1.8740234-0.5283203,2.2988281          C312.175354,142.7780304,310.5213013,142.4624481,309.4223022,142.148941z" class="color000000 svgShape"/><circle cx="304.387" cy="132.836" r="1.488" class="color000000 svgShape"/><path d="M300.5805054,130.2993317c-0.1513672-0.1201172-0.1767578-0.3408203-0.0566406-0.4921875           c1.0224609-1.2871094,2.1865234-1.9580078,3.4609375-1.9931641           c2.2021484-0.0566406,3.9072266,1.8212891,3.9785156,1.9013672           c0.1279297,0.1445313,0.1152344,0.3652344-0.0292969,0.4941406           c-0.1435547,0.1269531-0.3652344,0.1152344-0.4941406-0.0292969           c-0.0146484-0.0166016-1.5537109-1.7480469-3.4394531-1.6660156           c-1.0566406,0.0302734-2.0410156,0.6123047-2.9277344,1.7285156           C300.9518127,130.3942108,300.730957,130.4178772,300.5805054,130.2993317z" class="color000000 svgShape"/><circle cx="315.698" cy="133.887" r="1.488" class="color000000 svgShape"/><path d="M311.8910522,131.3510895c-0.1513672-0.1201172-0.1767578-0.3408203-0.0566406-0.4921875           c0.9120483-1.1479187,2.089386-1.9951172,3.5673828-1.9951172c2.1582031,0,3.8017578,1.8232422,3.8720703,1.9023438           c0.1279297,0.1445313,0.1152344,0.3652344-0.0292969,0.4941406           c-0.1445313,0.1259766-0.3652344,0.1152344-0.4941406-0.0292969           c-0.0146484-0.0166016-1.5097656-1.6669922-3.3505859-1.6669922c-0.0292969,0-0.0585938,0.0009766-0.0878906,0.0019531           c-1.0566406,0.0302734-2.0419922,0.6113281-2.9287109,1.7285156           C312.2623596,131.4459686,312.0415039,131.469635,311.8910522,131.3510895z" class="color000000 svgShape"/><path d="M299.944519,160.4396515c-3.9397278-0.8173523-7.5464783-4.4326477-11.1944885-8.6963959          c0,0-2.3654175,7.9964752,9.7401123,13.1330261L299.944519,160.4396515z" class="color000000 svgShape"/><path d="M298.3529663,165.1987457c-12.2509766-5.1982422-9.9628906-13.4716797-9.9384766-13.5546875          c0.0808411-0.2680817,0.4226379-0.3363342,0.6015625-0.1279297c3.4033203,3.9775391,7.0908203,7.7705078,11,8.5810547          c0.2080078,0.0436859,0.3243713,0.2560883,0.2617188,0.4521484l-1.4550781,4.4365234          C298.755127,165.1863556,298.5354614,165.2758026,298.3529663,165.1987457z M288.9555054,152.5190582          c-0.2529297,1.9677734-0.0927734,7.7519531,9.3212891,11.8837891l1.2158203-3.7070313          C295.9105835,159.796402,292.6537476,156.7817535,288.9555054,152.5190582z" class="color000000 svgShape"/><path fill="#fff" d="M286.7578125,135.0881042c-0.8951721,3.0261688-4.0779114,4.7559204-7.1042175,3.8607178          c-3.0397339-0.8991852-4.7692871-4.0820465-3.874115-7.1082001c0.8990784-3.0394135,4.0818176-4.769165,7.1215515-3.8699875          C285.9273682,128.8658447,287.6568909,132.0487061,286.7578125,135.0881042z" class="colorffffff svgShape"/><path d="M281.2728882,139.5346832c-0.5683594,0-1.1464844-0.0810547-1.71875-0.25          c-1.5585938-0.4619141-2.8447266-1.5-3.6210938-2.9248047c-0.7753906-1.4248047-0.9492188-3.0644531-0.4892578-4.6191406          c0.9511719-3.2158203,4.3417969-5.0517578,7.5566406-4.1064453c3.2070313,0.9492188,5.0439453,4.3378906,4.09375,7.5537109          l0,0C286.3139038,137.8237457,283.8910522,139.5346832,281.2728882,139.5346832z M281.277771,128.0844879          c-2.3232422,0-4.4716797,1.5175781-5.1621094,3.8554688c-0.4072266,1.3740234-0.2529297,2.8251953,0.4326172,4.0849609          c0.6865234,1.2607422,1.8242188,2.1796875,3.2050781,2.5878906          c2.8349609,0.8417969,5.8300781-0.7851563,6.6689453-3.6240234c0.8408203-2.8447266-0.7832031-5.84375-3.6210938-6.6826172          C282.2943726,128.155777,281.7816772,128.0844879,281.277771,128.0844879z M286.7582397,135.0883942h0.0087891H286.7582397z          " class="color000000 svgShape"/><circle cx="310.465" cy="149.424" r="2.469" class="color000000 svgShape"/><path fill="#d7e6fe" d="M255.5936279,357.2565308l-111.9896393-19.6326599l2.026825-11.561554l111.9896393,19.6326294            c3.1926575,0.5596924,5.3270569,3.6015625,4.7673645,6.7941895v0.0000305            C261.828125,355.6817932,258.7862549,357.8162231,255.5936279,357.2565308z" class="colorcad5ff svgShape"/><path d="M256.6205444,357.6958008c-0.3613281,0-0.7246246-0.03125-1.0879059-0.0947266l0,0l-111.9892578-19.6328125            c-0.1885376-0.032074-0.3169403-0.2127991-0.2841797-0.4052734l2.0273438-11.5615234            c0.0332031-0.1894531,0.2119141-0.3203125,0.4052734-0.2841797l111.9892731,19.6328125            c3.391571,0.5953064,5.6446838,3.8210144,5.0517578,7.1992188            C262.1945496,355.6179199,259.5320435,357.6958008,256.6205444,357.6958008z M255.6537323,356.9116211            c2.9719086,0.5272827,5.8574982-1.4515686,6.3896637-4.4833984            c0.5271301-3.0033264-1.4783936-5.8612061-4.4833984-6.3886719L145.915451,326.4672852l-1.90625,10.8720703            L255.6537323,356.9116211z" class="color000000 svgShape"/><path fill="#fff" d="M253.566803,368.8180847l-111.9896545-19.6326294l2.0268402-11.5615845l111.9896393,19.6326599           c3.192627,0.5596924,5.3270569,3.601532,4.7673645,6.7941895l0,0           C259.8013,367.2433472,256.7594299,369.3777771,253.566803,368.8180847z" class="colorffffff svgShape"/><path d="M253.5062714,369.1625977L253.5062714,369.1625977l-111.9892578-19.6328125           c-0.1904297-0.0332031-0.3173828-0.2148438-0.2841797-0.4052734l2.0263672-11.5615234           c0.0337677-0.1983948,0.2329102-0.3236694,0.4052734-0.2841797l111.9892578,19.6328125           c3.3843842,0.593689,5.6458893,3.8122559,5.0517731,7.1992188           C260.111969,367.4943848,256.8963013,369.7549438,253.5062714,369.1625977z M253.6273651,368.4731445           c2.9892731,0.527771,5.8591156-1.4662476,6.3886871-4.4833984c0.5273743-3.0047913-1.4779663-5.861145-4.4834137-6.3886719           l-111.6445313-19.5722656l-1.9052734,10.8720703L253.6273651,368.4731445z" class="color000000 svgShape"/><path fill="#d7e6fe" d="M251.5399628,380.3796692l-111.9896393-19.6326599l2.026825-11.561554l111.9896545,19.6326294            c3.192627,0.5596924,5.3270569,3.6015625,4.7673645,6.7941895v0.0000305            C257.7744751,378.8049316,254.732605,380.9393616,251.5399628,380.3796692z" class="colorcad5ff svgShape"/><path d="M251.4799042,380.7241211L251.4799042,380.7241211l-111.9902344-19.6328125            c-0.1885376-0.032074-0.3169403-0.2127991-0.2841797-0.4052734l2.0273438-11.5615234            c0.0322266-0.1904297,0.2089844-0.3232422,0.4052734-0.2841797l111.9892578,19.6328125            c3.3915863,0.5953064,5.6446991,3.8210144,5.0517731,7.1992188            C258.0856018,379.0559082,254.8699493,381.3164673,251.4799042,380.7241211z M251.6009979,380.034668            c2.9861755,0.5308838,5.8591156-1.4663391,6.3886871-4.4833984            c0.5271301-3.0033264-1.4783936-5.8612061-4.4834137-6.3886719L141.8617401,349.590332l-1.90625,10.8720703            L251.6009979,380.034668z" class="color000000 svgShape"/><path fill="#fff" d="M139.5507965,360.7458801l-15.1136703-2.6495361           c-9.5775833-1.6790161-15.980629-10.8042908-14.3016052-20.381897l0.0000076-0.0000305           c1.6790237-9.5775757,10.804306-15.9806213,20.3818817-14.3016052l15.113678,2.6495361L139.5507965,360.7458801z" class="colorffffff svgShape"/><path d="M139.4906464,361.090332l-15.1142578-2.6494141c-9.7519531-1.7089844-16.2949219-11.0341797-14.5859375-20.7871094           c1.7109375-9.7509766,11.0253906-16.2978516,20.7871094-14.5859375l15.1142578,2.6494141           c0.1885376,0.0321045,0.3169403,0.2128296,0.2841797,0.4052734l-6.0800781,34.6835938           C139.861969,361.0030823,139.6697845,361.1244507,139.4906464,361.090332z M110.4799042,337.7749023           c-1.6425781,9.3720703,4.6455078,18.3339844,14.0175781,19.9765625l14.7695313,2.5888672l5.9589844-33.9941406           l-14.7695313-2.5888672C121.0427704,322.1074219,112.1162796,328.444397,110.4799042,337.7749023z" class="color000000 svgShape"/><rect width="35.212" height="6.376" x="121.845" y="339.666" fill="#86b5ff" class="colorffa186 svgShape" transform="rotate(-80.057 139.451 342.854)"/><path d="M139.4906464,361.090332l-6.2802734-1.1005859c-0.1867676-0.032135-0.3172302-0.2110901-0.2841797-0.4052734           l6.0800781-34.6835938c0.0322266-0.1894531,0.2060547-0.3193359,0.4052734-0.2841797l6.2802734,1.1005859           c0.1867676,0.032135,0.3172302,0.2111206,0.2841797,0.4052734l-6.0800781,34.6835938           C139.861969,361.0030823,139.6697845,361.1244507,139.4906464,361.090332z M133.6761932,359.3608398l5.5908203,0.9794922           l5.9589844-33.9941406l-5.5908203-0.9794922L133.6761932,359.3608398z" class="color000000 svgShape"/><path fill="#fff" d="M254.9016418,379.9729309c1.7435303-0.7503357,3.0816956-2.3594666,3.4325256-4.3607178          c0.486084-2.7726746-1.0606384-5.4301758-3.5671234-6.4503174l0.0449982-0.2566528          c2.73526-0.1103821,5.0671997-2.1064453,5.5485535-4.8523254c0.4870605-2.7782288-1.0596619-5.4357605-3.5661316-6.4559326          l0.0449829-0.2565918c2.7378845-0.1105042,5.0664673-2.1022339,5.5485535-4.8523254          c0.3931885-2.2426758-0.5430603-4.4136658-2.2436829-5.7008057          c3.895752,2.4769592,15.5855408,10.0235596,22.6057739,15.7682495          c3.490387,2.8544312,5.8288879,5.2597351,5.4889221,6.3789673          c-0.3180542,1.0597534-3.2199402,2.4256287-7.2359619,3.8492126          C272.7956848,375.680542,259.9323425,378.7962646,254.9016418,379.9729309z" class="colorffffff svgShape"/><path d="M254.5697479,380.0825195c-0.0576172-0.171875,0.0273438-0.359375,0.1933594-0.4306641          c1.6538544-0.7149048,2.8966827-2.2210999,3.2265778-4.1005859          c0.4462891-2.5419922-0.9648438-5.0927734-3.3545074-6.0654297c-0.1523438-0.0625-0.2412109-0.2226563-0.2128906-0.3847656          l0.0449219-0.2568359c0.0283203-0.1621094,0.1660156-0.2822266,0.3310547-0.2890625          c2.4980011-0.1011963,4.7510834-1.905365,5.2177887-4.5625c0.4462891-2.5458984-0.9638672-5.0996094-3.3535156-6.0712891          c-0.1523438-0.0625-0.2412109-0.2226563-0.2128906-0.3847656l0.0449219-0.2568359          c0.0283203-0.1621094,0.1660156-0.2822266,0.3310547-0.2890625          c2.5356445-0.1006775,4.7560425-1.9365234,5.2177734-4.5634766c0.359375-2.0498047-0.4492188-4.1035156-2.1103516-5.3603516          c-0.1503906-0.1132813-0.1835938-0.3242188-0.0761719-0.4785156          c0.1064453-0.1542969,0.3183594-0.1943359,0.4746094-0.0957031          c3.5097656,2.2304688,15.515625,9.9619141,22.640625,15.7919922          c5.4941406,4.4931641,5.828125,6.0048828,5.6015625,6.7509766c-0.2060547,0.6884766-1.203125,1.8623047-7.453125,4.078125          c-8.2373047,2.90625-21.0234375,6.0039063-26.1386871,7.2001953          C254.7930298,380.3544312,254.6235504,380.2472229,254.5697479,380.0825195z M255.5980682,369.175293          c2.2627106,1.2753906,3.5381012,3.890625,3.0810699,6.4970703c-0.2392578,1.3632813-0.9082031,2.5800781-1.9101563,3.5          c5.9101563-1.4121094,16.8164063-4.1425781,24.1181641-6.71875c5.7744141-2.0478516,6.875-3.1464844,7.0166016-3.6201172          c0.1181641-0.3886719-0.1699219-1.7509766-5.375-6.0078125          c-6.0458984-4.9462891-15.6367188-11.2783203-20.5068359-14.4199219          c0.6992188,1.2324219,0.9658203,2.6884766,0.7109375,4.1425781c-0.4615784,2.6264954-2.5135498,4.6297302-5.1074219,5.0625          c2.2626953,1.2753906,3.5380859,3.8925781,3.0800781,6.5029297          C260.230011,366.821167,258.098114,368.7595215,255.5980682,369.175293z" class="color000000 svgShape"/><path d="M281.0030518,372.7836914c-1.0690918-1.5444641-1.5535583-3.5039978-1.2034302-5.5012512          c0.3461914-1.9748535,1.4478455-3.6333618,2.95047-4.7269287c3.490387,2.8544312,5.8288879,5.2597351,5.4889221,6.3789673          C287.9209595,369.9942322,285.0190735,371.3601074,281.0030518,372.7836914z" class="color000000 svgShape"/><path fill="#fff" d="M205.1707916,336.5001221c0,0-6.4535522-5.2279358-9.6701355-10.4240417         c-3.9256592-6.3415222-5.1565247-10.8423462-6.1546173-14.776886         c-6.4579468-0.1350708-15.8587799,0.7071228-21.701767,3.0257568         c0.4335022,1.2850647,0.7210693,2.8835449,0.6182404,4.7427673         c-0.1397858,2.4255676-0.9837952,5.2885742-3.1496887,8.4900513         c-6.8876953,10.2045288-6.1004486,17.8867493-6.1004486,17.8867493         c0.4490662,13.5071716,3.8459167,19.6781311,7.2108459,15.2733765         c1.4618683,4.8473206,3.697937,6.0602417,5.8904266,2.7441101c0.0443878-0.082489,0.1047668-0.1665344,0.1322937-0.263916         c1.4480591,3.5732422,3.4306793,4.2182617,5.3830872,1.2689209c0.4802856-0.7328186,0.751358-2.1168213,0.8734436-3.9124146         c1.4246368,3.0909424,3.2988739,3.4995422,5.1305237,0.7174988         c3.4689636-5.2483521-4.4506073-24.506897,5.8110962-24.5726318L205.1707916,336.5001221z" class="colorffffff svgShape"/><path d="M172.1957245,363.9594727c-0.9169922,1.2705078-1.8740234,1.84375-2.8398438,1.6992188         c-1.2773438-0.1875-2.4033203-1.6464844-3.2744141-4.2314453c-1.0537109,1.1220703-1.9853516,1.1552734-2.6113281,0.9521484         c-2.6464844-0.8466797-4.4892578-7.3310547-4.8076172-16.9228516         c-0.03125-0.2949219-0.7197266-7.9023438,6.1601563-18.0947266c1.8935547-2.7998047,2.9335938-5.5966797,3.0898438-8.3144531         c0.0898438-1.6123047-0.1123047-3.1640625-0.6005859-4.6103516c-0.0595703-0.1767578,0.0302734-0.3691406,0.203125-0.4375         c4.8935547-1.9423828,12.9882813-3.1542969,21.1386719-3.0644531l0.7001953,0.0146484         c0.1572266,0.0029297,0.2929688,0.1113281,0.3310547,0.2636719c0.8720703,3.4355469,2.0654297,8.140625,6.1132813,14.6777344         c3.1474609,5.0849609,9.5283203,10.2851563,9.5927734,10.3378906         c0.2528534,0.2053223,0.1115265,0.6167297-0.2158203,0.6210938l-15.7265625,0.1992188         c-1.5244141,0.0097656-2.6630859,0.4511719-3.4853516,1.3496094c-2.1826172,2.3857422-1.7548828,7.5625-1.3417969,12.5683594         c0.3564453,4.3173828,0.6933594,8.3955078-0.6962891,10.4980469         c-0.9296875,1.4121094-1.9003906,2.0751953-2.9033203,2.015625         c-0.8330078-0.0634766-1.5966797-0.6445313-2.2783203-1.7324219         c-0.1630859,1.3623047-0.4345703,2.3203125-0.8212891,2.9101563         C176.0202332,367.5316162,173.7996674,367.3863831,172.1957245,363.9594727z M172.2455292,362.8481445         c0.1416016,0,0.2705078,0.0859375,0.3242188,0.2177734c0.7255859,1.7890625,1.5996094,2.8222656,2.4609375,2.9091797         c0.9160156,0.0800781,1.7597656-0.8740234,2.3066406-1.7011719c0.4150391-0.6337891,0.6904297-1.8935547,0.8154297-3.7431641         c0.0264587-0.3616638,0.5162506-0.4506531,0.6679688-0.1230469c0.6884766,1.4941406,1.4677734,2.3154297,2.2539063,2.375         c0.7246094,0.0478516,1.4970703-0.5351563,2.2666016-1.703125c1.2558594-1.9013672,0.9287109-5.8613281,0.5830078-10.0546875         c-0.4257813-5.15625-0.8662109-10.4873047,1.5224609-13.0986328         c0.9472656-1.0351563,2.2919922-1.5654297,3.9951172-1.5761719l14.7841797-0.1875         c-1.7880859-1.5380859-6.4511719-5.7480469-9.0234375-9.9023438         c-4.0039063-6.4667969-5.2519531-11.1601563-6.1298828-14.6162109l-0.4296875-0.0097656         c-7.7412109-0.0234375-15.7802734,1.0849609-20.5644531,2.8974609         c0.4423828,1.4394531,0.6210938,2.9707031,0.5332031,4.5556641         c-0.1640625,2.8457031-1.2431641,5.7607422-3.2089844,8.6669922         c-6.7382813,9.9833984-6.0498047,17.5791016-6.0419922,17.6542969         c0.3466797,10.4257813,2.4208984,15.6953125,4.3222656,16.3037109         c0.7167969,0.2294922,1.4755859-0.1777344,2.2617188-1.2070313c0.0800781-0.1035156,0.2109375-0.1552734,0.3408203-0.1318359         c0.1289063,0.0234375,0.234375,0.1181641,0.2724609,0.2441406c0.7988281,2.6464844,1.828125,4.1914063,2.8994141,4.3486328         c0.9423828,0.1347656,1.8027344-0.8476563,2.3642578-1.6972656c0.0537109-0.0957031,0.0791016-0.1386719,0.0869141-0.1660156         c0.0400391-0.1435547,0.1679688-0.2460938,0.3173828-0.2548828         C172.2328339,362.8481445,172.2386932,362.8481445,172.2455292,362.8481445z" class="color000000 svgShape"/><path fill="#fff" d="M166.2232208,360.7178955c0,0-1.7902374-7.9747009,0.5368652-13.769928" class="colorffffff svgShape"/><path d="M166.2230682,361.0678711c-0.1601563,0-0.3046875-0.1103516-0.3417969-0.2734375         c-0.0742188-0.3291016-1.7871094-8.1474609,0.5537109-13.9775391         c0.0732422-0.1796875,0.2773438-0.2626953,0.4560547-0.1943359c0.1787109,0.0722656,0.265625,0.2763672,0.1943359,0.4560547         c-2.2587891,5.625-0.5380859,13.484375-0.5205078,13.5634766c0.0419922,0.1884766-0.0761719,0.375-0.265625,0.4179688         C166.2738495,361.065918,166.2484589,361.0678711,166.2230682,361.0678711z" class="color000000 svgShape"/><path fill="#fff" d="M172.2704926,363.1452942c0,0-1.7902374-7.9747009,0.5368652-13.769928" class="colorffffff svgShape"/><path d="M172.2709198,363.4946289c-0.1601563,0-0.3046875-0.1103516-0.3417969-0.2724609         c-0.0742188-0.3300781-1.7880859-8.1484375,0.5527344-13.9775391         c0.0732422-0.1787109,0.2773438-0.2636719,0.4560547-0.1943359c0.1787109,0.0722656,0.265625,0.2763672,0.1943359,0.4560547         c-2.2607422,5.6279297-0.5371094,13.4833984-0.5195313,13.5615234         c0.0419922,0.1894531-0.0761719,0.3759766-0.2646484,0.4189453         C172.321701,363.4926758,172.2963104,363.4946289,172.2709198,363.4946289z" class="color000000 svgShape"/><path fill="#fff" d="M178.4515076,360.4683533c0,0-1.0909576-4.8597412-0.4625549-9.7487183" class="colorffffff svgShape"/><path d="M178.109787,360.5444336c-0.0107422-0.0488281-1.0966797-4.9755859-0.4677734-9.8701172         c0.0244141-0.1904297,0.1855469-0.3232422,0.3916016-0.3017578c0.1914063,0.0244141,0.3271484,0.1992188,0.3017578,0.3916016         c-0.6123047,4.7734375,0.4472656,9.5791016,0.4580078,9.6269531c0.0419922,0.1894531-0.0761719,0.3759766-0.265625,0.4189453         C178.3467407,360.8518372,178.153717,360.7375183,178.109787,360.5444336z" class="color000000 svgShape"/><path fill="#6686ff" d="M155.2672729,299.5334167c-0.4445648,5.3095093-0.7565002,10.7716064-0.896759,16.4191589h48.1920319          c0,0,0.5510864-6.4222412,2.5118561-16.4191589H155.2672729z" class="color6680ff svgShape"/><path d="M212.2953339,273.1235352l-0.6835938-0.1503906c0.0664063-0.3027344,6.90625-30.6064301,30.8251953-53.9951019         l0.4902344,0.5C219.1556854,242.7221832,212.3617401,272.8217773,212.2953339,273.1235352z" class="color000000 svgShape"/><path d="M370.6038818,232.4793243c0,0,0.5424194-12.4195099-9.849823-32.8150635         c0,0,20.539032,5.5803223,27.0712585,36.1531677C381.4670715,234.7115631,375.6822815,233.6361847,370.6038818,232.4793243z" class="color000000 svgShape"/><rect width=".7" height="45.524" x="180.663" y="272.813" class="color000000 svgShape" transform="rotate(-75.408 181.013 295.575)"/><path d="M162.9515839,306.7231445c-1.8134766,0-3.2890625-1.4755859-3.2890625-3.2890625         s1.4755859-3.2890625,3.2890625-3.2890625s3.2890625,1.4755859,3.2890625,3.2890625         S164.7650604,306.7231445,162.9515839,306.7231445z M162.9515839,300.8442383         c-1.4277344,0-2.5898438,1.1621094-2.5898438,2.5898438s1.1621094,2.5898438,2.5898438,2.5898438         s2.5898438-1.1621094,2.5898438-2.5898438S164.3793182,300.8442383,162.9515839,300.8442383z" class="color000000 svgShape"/><path d="M299.8978882,552.3706055l-0.6816406-0.15625c14.7949219-64.2119141,9.25-133.90625,1.9931641-181.0654297         c-7.8642578-51.1083984-19.3779297-87.4941406-19.4931641-87.8554688l0.6660156-0.2128906         c0.1162109,0.3623047,11.6435547,36.7900391,19.5175781,87.9492188         C309.1674194,418.253418,314.7191772,488.0473633,299.8978882,552.3706055z" class="color000000 svgShape"/><path d="M409.0365601,512.6196289c-3.0126038-1.8337402-3.9794617-5.7637634-2.1347656-8.7910156         c1.8330078-3.0087891,5.7763672-3.9658203,8.7880859-2.1308594c0.1650391,0.1005859,0.2177734,0.3154297,0.1171875,0.4804688         c-0.1005859,0.1660156-0.3173828,0.21875-0.4804688,0.1171875c-2.6816406-1.6308594-6.1943359-0.7822266-7.8271484,1.8974609         c-1.6387024,2.6893921-0.7893982,6.1901855,1.9003906,7.8291016         c0.1650391,0.1005859,0.2177734,0.3154297,0.1171875,0.4804688         C409.4142761,512.6726685,409.1935425,512.7171021,409.0365601,512.6196289z" class="color000000 svgShape"/><path d="M170.6820526,158.8881989c-0.0625,0-0.125-0.015625-0.1826172-0.0507813         c-3.0117188-1.8349609-3.96875-5.7783203-2.1347656-8.7900391c1.8349609-3.0107422,5.7753906-3.96875,8.7890625-2.1328125         c0.1650391,0.1005859,0.2177734,0.3154297,0.1171875,0.4804688         c-0.1005859,0.1660156-0.3164063,0.2197266-0.4804688,0.1171875         c-2.6835938-1.6337891-6.1943359-0.7822266-7.828125,1.8984375         c-1.6337891,2.6826172-0.7802734,6.1943359,1.9013672,7.8291016         c0.1660156,0.1005859,0.2177734,0.3154297,0.1171875,0.4814453         C170.915451,158.8286285,170.8002167,158.8881989,170.6820526,158.8881989z" class="color000000 svgShape"/><path d="M506.8676147,123.7104645c-0.230835,0-0.3950195-0.2165146-0.3388672-0.4365234         c0.7811279-3.0478439-1.0493469-6.1485977-4.1005859-6.9316406         c-3.0409546-0.7809219-6.1489868,1.0459061-6.9326172,4.1035156c-0.0478516,0.1875-0.2324219,0.3046875-0.4257813,0.2519531         c-0.1875-0.0478516-0.2998047-0.2382813-0.2519531-0.4257813c0.8755798-3.4196548,4.3499146-5.4842072,7.7841797-4.6074219         c3.4220276,0.8767166,5.4832458,4.3590546,4.6044922,7.7832031         C507.1664429,123.6059723,507.0238647,123.7104645,506.8676147,123.7104645z" class="color000000 svgShape"/><rect width="24.734" height="24.734" x="173.331" y="499.954" fill="#aebfff" class="color76c4ff svgShape" transform="rotate(-52.42 185.698 512.321)"/><rect width="24.731" height="24.731" x="156.905" y="486.672" fill="#86b5ff" class="colorffa186 svgShape" transform="rotate(-.286 169.264 499.037)"/><path d="M186.6846619,229.3771973c0,10.5457458-8.5494843,19.0952148-19.1054688,19.0952148         c-0.7579041,0-1.494812-0.0410004-2.2322235-0.1329803c4.1672516-12.5529938,9.3276215-23.5596771,15.163681-33.0305481         C184.3091888,218.8004608,186.6846619,223.807373,186.6846619,229.3771973z" class="color000000 svgShape"/><path d="M438.9986877,227.062973c-9.4708557,8.6929626-20.4263,13.9148407-32.6820984,11.897583         c0.7371826-9.8598175,8.9794312-17.6308899,19.04422-17.6308899         C430.7054138,221.3296661,435.5380859,223.520401,438.9986877,227.062973z" class="color000000 svgShape"/><path fill="#fff" d="M590.1317139,185.6570282v253.5928802c0,12.5250854-10.1535645,22.6786499-22.6786499,22.6786499         H390.7756958c-12.5250854,0-22.6786499-10.1535645-22.6786499-22.6786499V185.6570282         c0-12.5250702,10.1535645-22.6786499,22.6786499-22.6786499H567.453064         C579.9781494,162.9783783,590.1317139,173.131958,590.1317139,185.6570282z" class="colorffffff svgShape"/><path d="M567.4535522,462.277832H390.7758179c-12.6982422,0-23.0283203-10.3300781-23.0283203-23.0283203V185.6567535         c0-12.6982422,10.3300781-23.0283203,23.0283203-23.0283203h176.6777344         c12.6972656,0,23.0273438,10.3300781,23.0273438,23.0283203v253.5927582         C590.480896,451.9477539,580.1508179,462.277832,567.4535522,462.277832z M390.7758179,163.327652         c-12.3125,0-22.3291016,10.0166016-22.3291016,22.3291016v253.5927582         c0,12.3125,10.0166016,22.3291016,22.3291016,22.3291016h176.6777344         c12.3115234,0,22.328125-10.0166016,22.328125-22.3291016V185.6567535c0-12.3125-10.0166016-22.3291016-22.328125-22.3291016         H390.7758179z" class="color000000 svgShape"/><path fill="#fff" d="M456.8570862,162.9233246c1.9214172,1.818924,1.9338989,7.1409302,3.6099548,11.9014893           c1.0849609,3.0819397,3.7428894,1.5894623,4.4840393-1.6658936           c0.9632263,6.0526276,5.360321,4.1726074,5.5783691,0.3619232c0.0461426,0.0878143,3.9172974,5.8353271,5.0580139-2.342926           c0.2779846,5.0930786,5.8009338,6.7320709,5.9078674-7.3561707           c0.0234985-3.0976105-1.2554626-7.3492279-5.8864441-10.9033356           c-5.3978882-4.1426392-13.846405-4.7107391-19.7310791-3.9082947           c-6.4298706,0.8768005-8.7843323,2.6803894-10.1750488,13.913208H456.8570862z" class="colorffffff svgShape"/><path d="M467.7553101,177.4096832c-0.6035156,0-2.0976563-0.2841797-2.8691406-2.9208984           c-0.5996094,1.3857422-1.5732422,2.3115234-2.5849609,2.3691406           c-0.5488281,0.0351563-1.5517578-0.1767578-2.1640625-1.9169922           c-0.6865234-1.9492188-1.1005859-4.0117188-1.4667969-5.8320313           c-0.515625-2.5615234-0.9619141-4.7851563-1.9580078-5.8359375h-11.0097656           c-0.1005859,0-0.1962891-0.0429688-0.2626953-0.1181641s-0.0966797-0.1748047-0.0849609-0.2744141           c1.3886719-11.2138672,3.7158203-13.2949219,10.4755859-14.2167969           c6.0771484-0.8300781,14.5224609-0.2207031,19.9912109,3.9775391           c5.2841797,4.0546875,6.0419922,8.7470703,6.0234375,11.1835938           c-0.0634766,8.3271484-2.0400391,11.3398438-3.8681641,11.3828125c-0.0136719,0-0.0273438,0.0009766-0.0419922,0.0009766           c-1.0039063,0-1.8769531-0.8613281-2.3447266-2.1816406c-0.453125,1.7597656-1.1396484,2.7011719-2.0820313,2.8642578           c-1.1074219,0.1767578-2.1416016-0.7783203-2.7490234-1.4931641           c-0.3808594,1.6787109-1.5546875,2.9414063-2.9121094,3.0097656           C467.8197632,177.4087067,467.7885132,177.4096832,467.7553101,177.4096832z M465.2963257,173.1040192           c0.3691406,2.3173828,1.3193359,3.6591797,2.515625,3.6044922           c1.0537109-0.0537109,2.2587891-1.2949219,2.3681641-3.2080078           c0.0193787-0.3448334,0.4924316-0.4635925,0.6601563-0.1416016           c0.2080078,0.3320313,1.5517578,2.0605469,2.5810547,1.8359375           c0.8320313-0.1767578,1.4785156-1.6201172,1.8193359-4.0654297           c0.0253906-0.1777344,0.1757813-0.2939453,0.3613281-0.3007813           c0.1796875,0.0078125,0.3251953,0.1503906,0.3349609,0.3300781           c0.1025391,1.8867188,0.9785156,3.3496094,1.9980469,3.3496094c0.0087891,0,0.0166016,0,0.0253906-0.0009766           c1.1533203-0.0263672,3.1210938-2.3085938,3.1855469-10.6884766c0.0166016-2.3056641-0.7070313-6.7519531-5.75-10.6230469           c-5.2978516-4.0654297-13.5292969-4.6513672-19.4716797-3.8388672           c-5.9755859,0.8154297-8.40625,2.1787109-9.8251953,13.2167969           c11.2922668,0.0352936,10.8074951-0.0861664,10.9980469,0.0957031           c1.2255859,1.1591797,1.7041016,3.5419922,2.2597656,6.3017578           c0.3613281,1.796875,0.7705078,3.8339844,1.4404297,5.7373047           c0.3417969,0.9697266,0.8779297,1.4921875,1.4638672,1.4511719c0.8095703-0.046875,1.9082031-1.1416016,2.3486328-3.078125           C464.6941223,172.7077332,465.2356262,172.7219696,465.2963257,173.1040192z" class="color000000 svgShape"/><path fill="#fff" d="M475.5874023,171.1778259c0,0,0.4988708-2.0763245,0.1601868-4.919632" class="colorffffff svgShape"/><path d="M475.5062866,171.5180817c-0.1884766-0.0449219-0.3037109-0.2333984-0.2597656-0.4208984           c0.0048828-0.0205078,0.4804688-2.0576172,0.1533203-4.7978516           c-0.0224609-0.1914063,0.1142578-0.3652344,0.3066406-0.3886719           c0.1826172-0.0263672,0.3662109,0.1132813,0.3886719,0.3066406           c0.3417969,2.8710938-0.1464844,4.9550781-0.1679688,5.0429688           C475.8811646,171.4537506,475.6848755,171.5627289,475.5062866,171.5180817z" class="color000000 svgShape"/><path fill="#fff" d="M470.5460815,173.6278381c0,0,0.9830017-4.0912323-0.7474365-8.6521759" class="colorffffff svgShape"/><path d="M470.465271,173.9673004c-0.1884766-0.0449219-0.3037109-0.2333984-0.2597656-0.4208984           c0.0097656-0.0400391,0.9345703-4.0478516-0.734375-8.4462891           c-0.0683594-0.1806641,0.0224609-0.3828125,0.203125-0.4511719           c0.1826172-0.0664063,0.3837891,0.0234375,0.4511719,0.203125           c1.7490234,4.6083984,0.8027344,8.6855469,0.7607422,8.8574219           C470.8401489,173.9029694,470.6438599,174.0119476,470.465271,173.9673004z" class="color000000 svgShape"/><path fill="#fff" d="M464.9205933,173.5285797c0,0,0.9830017-4.0912476-0.747467-8.6521759" class="colorffffff svgShape"/><path d="M464.8392944,173.8686676c-0.1884766-0.0449219-0.3037109-0.2333984-0.2597656-0.4208984           c0.0097656-0.0400391,0.9355469-4.0488281-0.7333984-8.4472656           c-0.0683594-0.1806641,0.0224609-0.3828125,0.203125-0.4511719           c0.1835938-0.0673828,0.3828125,0.0234375,0.4511719,0.203125           c1.7490234,4.6083984,0.8017578,8.6865234,0.7597656,8.8583984           C465.2141724,173.8043365,465.0178833,173.9133148,464.8392944,173.8686676z" class="color000000 svgShape"/><g class="color000000 svgShape"><path fill="#fff" d="M449.1303406,162.9233246c0.0795288-0.2112732,0.1646118-0.4131622,0.2347717-0.6396942          c0.9604187-3.1151733,0.587738-6.4885559-1.0082703-6.980957c-1.5960388-0.4923859-3.8038635,2.0851898-4.7645874,5.2003632          c-0.2685242,0.8703308-0.3979187,1.6808167-0.4278564,2.4202881H449.1303406z" class="colorffffff svgShape"/><path d="M449.1303101,163.2729645h-5.9658203c-0.2001648,0-0.3577576-0.1649933-0.3496094-0.3642578          c0.0332031-0.8212891,0.1826172-1.6650391,0.4433594-2.5087891          c0.9560547-3.1025391,3.2792969-6.0341797,5.2021484-5.4316406          c1.9257813,0.5947266,2.1953125,4.3164063,1.2382813,7.4189453          c-0.056427,0.1852417-0.1271973,0.3657532-0.2402344,0.6591797          C449.4066772,163.1831207,449.2758179,163.2729645,449.1303101,163.2729645z M443.5375366,162.5737457h5.3525391          c0.0488281-0.1269531,0.0976563-0.2548828,0.1396484-0.3925781          c0.9296875-3.0126953,0.5595703-6.1318359-0.7763672-6.5449219          c-1.3076172-0.3916016-3.4140625,2.0117188-4.3271484,4.9707031          C443.7230835,161.2671051,443.5922241,161.9272614,443.5375366,162.5737457z" class="color000000 svgShape"/></g><g class="color000000 svgShape"><path fill="#fff" d="M455.6717224,161.6898804c0.5167542,0.3045959,0.8826599,0.7412415,1.1855164,1.2336273" class="colorffffff svgShape"/><path d="M456.559021,163.1069489c-0.3212891-0.5224609-0.6601563-0.8769531-1.0654297-1.1152344          c-0.1660156-0.0986328-0.2216797-0.3125-0.1240234-0.4794922c0.0986328-0.1669922,0.3134766-0.2197266,0.4794922-0.1240234          c0.5078125,0.2988281,0.9228516,0.7285156,1.3056641,1.3515625          c0.1015625,0.1650391,0.0498047,0.3808594-0.1142578,0.4814453          C456.8745728,163.322403,456.6585388,163.2703705,456.559021,163.1069489z" class="color000000 svgShape"/></g><g class="color000000 svgShape"><path fill="#86b5ff" d="M420.6066284,194.2286987v20.1495361c0,2.3280334-1.8872375,4.215271-4.215271,4.215271h-20.1495361          c-2.3280334,0-4.215271-1.8872375-4.215271-4.215271v-20.1495361c0-2.3280334,1.8872375-4.215271,4.215271-4.215271          h20.1495361C418.7193909,190.0134277,420.6066284,191.9006653,420.6066284,194.2286987z" class="colorffa186 svgShape"/><path d="M564.6635132,199.6421051H440.8959351c-0.1933594,0-0.3496094-0.15625-0.3496094-0.3496094           s0.15625-0.3496094,0.3496094-0.3496094h123.7675781c0.1933594,0,0.3496094,0.15625,0.3496094,0.3496094           S564.8568726,199.6421051,564.6635132,199.6421051z" class="color000000 svgShape"/><path d="M517.7260132,209.664566h-76.8300781c-0.1933594,0-0.3496094-0.15625-0.3496094-0.3496094           s0.15625-0.3496094,0.3496094-0.3496094h76.8300781c0.1933594,0,0.3496094,0.15625,0.3496094,0.3496094           S517.9193726,209.664566,517.7260132,209.664566z" class="color000000 svgShape"/></g><g class="color000000 svgShape"><path fill="#7586c6" d="M420.6066284,244.8672485v20.1495361c0,2.3280334-1.8872375,4.215271-4.215271,4.215271h-20.1495361          c-2.3280334,0-4.215271-1.8872375-4.215271-4.215271v-20.1495361c0-2.3280334,1.8872375-4.215271,4.215271-4.215271          h20.1495361C418.7193909,240.6519775,420.6066284,242.5392151,420.6066284,244.8672485z" class="color75c675 svgShape"/><path d="M564.6635132,250.2798004H440.8959351c-0.1933594,0-0.3496094-0.15625-0.3496094-0.3496094           s0.15625-0.3496094,0.3496094-0.3496094h123.7675781c0.1933594,0,0.3496094,0.15625,0.3496094,0.3496094           S564.8568726,250.2798004,564.6635132,250.2798004z" class="color000000 svgShape"/><path d="M517.7260132,260.3032227h-76.8300781c-0.1933594,0-0.3496094-0.15625-0.3496094-0.3496094           s0.15625-0.3496094,0.3496094-0.3496094h76.8300781c0.1933594,0,0.3496094,0.15625,0.3496094,0.3496094           S517.9193726,260.3032227,517.7260132,260.3032227z" class="color000000 svgShape"/></g><g class="color000000 svgShape"><path fill="#6686ff" d="M420.6066284,295.5057983v20.1495361c0,2.3280334-1.8872375,4.215271-4.215271,4.215271h-20.1495361          c-2.3280334,0-4.215271-1.8872375-4.215271-4.215271v-20.1495361c0-2.3280334,1.8872375-4.215271,4.215271-4.215271          h20.1495361C418.7193909,291.2905273,420.6066284,293.1777649,420.6066284,295.5057983z" class="color6680ff svgShape"/><path d="M564.6635132,300.918457H440.8959351c-0.1933594,0-0.3496094-0.15625-0.3496094-0.3496094           s0.15625-0.3496094,0.3496094-0.3496094h123.7675781c0.1933594,0,0.3496094,0.15625,0.3496094,0.3496094           S564.8568726,300.918457,564.6635132,300.918457z" class="color000000 svgShape"/><path d="M517.7260132,310.9418945h-76.8300781c-0.1933594,0-0.3496094-0.15625-0.3496094-0.3496094           s0.15625-0.3496094,0.3496094-0.3496094h76.8300781c0.1933594,0,0.3496094,0.15625,0.3496094,0.3496094           S517.9193726,310.9418945,517.7260132,310.9418945z" class="color000000 svgShape"/></g><g class="color000000 svgShape"><path fill="#448cff" d="M420.6066284,346.1443481v20.1495667c0,2.3280029-1.8872375,4.2152405-4.215271,4.2152405h-20.1495361          c-2.3280334,0-4.215271-1.8872375-4.215271-4.2152405v-20.1495667c0-2.3280029,1.8872375-4.215271,4.215271-4.215271          h20.1495361C418.7193909,341.9290771,420.6066284,343.8163452,420.6066284,346.1443481z" class="colorffae44 svgShape"/><path d="M564.6635132,351.5571289H440.8959351c-0.1933594,0-0.3496094-0.15625-0.3496094-0.3496094           s0.15625-0.3496094,0.3496094-0.3496094h123.7675781c0.1933594,0,0.3496094,0.15625,0.3496094,0.3496094           S564.8568726,351.5571289,564.6635132,351.5571289z" class="color000000 svgShape"/><path d="M517.7260132,361.5805664h-76.8300781c-0.1933594,0-0.3496094-0.15625-0.3496094-0.3496094           s0.15625-0.3496094,0.3496094-0.3496094h76.8300781c0.1933594,0,0.3496094,0.15625,0.3496094,0.3496094           S517.9193726,361.5805664,517.7260132,361.5805664z" class="color000000 svgShape"/></g><g class="color000000 svgShape"><path d="M416.3910522,421.4975586h-20.1494141c-2.5166016,0-4.5644531-2.0478516-4.5644531-4.5654297v-20.1494141          c0-2.5166016,2.0478516-4.5644531,4.5644531-4.5644531h20.1494141c2.5175781,0,4.5654297,2.0478516,4.5654297,4.5644531          v20.1494141C420.9564819,419.449707,418.9086304,421.4975586,416.3910522,421.4975586z M396.2416382,392.9174805          c-2.1308594,0-3.8652344,1.734375-3.8652344,3.8652344v20.1494141c0,2.1318359,1.734375,3.8662109,3.8652344,3.8662109          h20.1494141c2.1318359,0,3.8662109-1.734375,3.8662109-3.8662109v-20.1494141          c0-2.1308594-1.734375-3.8652344-3.8662109-3.8652344H396.2416382z" class="color000000 svgShape"/><path d="M564.6635132,402.1958008H440.8959351c-0.1933594,0-0.3496094-0.15625-0.3496094-0.3496094           s0.15625-0.3496094,0.3496094-0.3496094h123.7675781c0.1933594,0,0.3496094,0.15625,0.3496094,0.3496094           S564.8568726,402.1958008,564.6635132,402.1958008z" class="color000000 svgShape"/><path d="M517.7260132,412.2182617h-76.8300781c-0.1933594,0-0.3496094-0.15625-0.3496094-0.3496094           s0.15625-0.3496094,0.3496094-0.3496094h76.8300781c0.1933594,0,0.3496094,0.15625,0.3496094,0.3496094           S517.9193726,412.2182617,517.7260132,412.2182617z" class="color000000 svgShape"/></g><g class="color000000 svgShape"><path d="M404.8060913,208.477066l-3.9414063-3.8261719c-0.1386719-0.1347656-0.1416016-0.3564453-0.0068359-0.4951172        c0.1347656-0.1376953,0.3564453-0.140625,0.4951172-0.0068359l3.6933594,3.5859375l8.4833984-8.5009766        c0.1367188-0.1367188,0.3583984-0.1376953,0.4951172-0.0009766s0.1376953,0.3583984,0.0009766,0.4951172l-8.7275391,8.7451172        C405.1634827,208.6079407,404.9434814,208.6105347,404.8060913,208.477066z" class="color000000 svgShape"/></g><g class="color000000 svgShape"><path d="M404.8060913,257.4916992l-3.9414063-3.8261566c-0.1386719-0.1347656-0.1416016-0.3564453-0.0068359-0.4951172        c0.1347656-0.1376953,0.3564453-0.140625,0.4951172-0.0068359l3.6933594,3.5859222l8.4833984-8.5019379        c0.1367188-0.1367188,0.3583984-0.1376953,0.4951172-0.0009766s0.1376953,0.3583984,0.0009766,0.4951172l-8.7275391,8.7460785        C405.1634827,257.6225891,404.9434814,257.6251831,404.8060913,257.4916992z" class="color000000 svgShape"/></g><g class="color000000 svgShape"><path d="M404.8060913,307.9780273l-3.9414063-3.8261719c-0.1386719-0.1347656-0.1416016-0.3564453-0.0068359-0.4951172        c0.1347656-0.1376953,0.3564453-0.1416016,0.4951172-0.0068359l3.6933594,3.5859375l8.4833984-8.5009766        c0.1367188-0.1367188,0.3583984-0.1376953,0.4951172-0.0009766s0.1376953,0.3583984,0.0009766,0.4951172l-8.7275391,8.7451172        C405.1634827,308.1089172,404.9434814,308.1115112,404.8060913,307.9780273z" class="color000000 svgShape"/></g><g class="color000000 svgShape"><path d="M404.8060913,358.590332l-3.9414063-3.8261719c-0.1386719-0.1347656-0.1416016-0.3564453-0.0068359-0.4951172        c0.1347656-0.1376953,0.3564453-0.140625,0.4951172-0.0068359l3.6933594,3.5859375l8.4833984-8.5009766        c0.1367188-0.1367188,0.3583984-0.1376953,0.4951172-0.0009766s0.1376953,0.3583984,0.0009766,0.4951172l-8.7275391,8.7451172        C405.1634827,358.7212219,404.9434814,358.7238159,404.8060913,358.590332z" class="color000000 svgShape"/></g><g class="color000000 svgShape"><path d="M404.8060913,410.8432617l-3.9414063-3.8271484c-0.1386719-0.1347656-0.1416016-0.3564453-0.0068359-0.4951172        c0.1347656-0.1376953,0.3564453-0.1416016,0.4951172-0.0068359l3.6933594,3.5869141l8.4833984-8.5019531        c0.1367188-0.1367188,0.3583984-0.1376953,0.4951172-0.0009766s0.1376953,0.3583984,0.0009766,0.4951172l-8.7275391,8.7460938        C405.1634827,410.9741516,404.9434814,410.9767456,404.8060913,410.8432617z" class="color000000 svgShape"/></g></svg>