<svg xmlns="http://www.w3.org/2000/svg" enable-background="new 0 0 1266.44 752.85" viewBox="0 0 1266.44 752.85"><path fill="#8aa2ff" d="M602.28,381.62H162.69c-41.79,0-75.68-33.88-75.68-75.68l0,0c0-41.79,33.88-75.68,75.68-75.68h439.58V381.62z
			" class="colorff6700 svgShape"/><path fill="#333b91" d="M199.41,385.72c-43.99,0-79.78-35.79-79.78-79.78s35.79-79.78,79.78-79.78c2.27,0,4.1,1.84,4.1,4.1
				c0,2.26-1.83,4.1-4.1,4.1c-39.47,0-71.57,32.11-71.57,71.57s32.11,71.58,71.57,71.58c2.27,0,4.1,1.84,4.1,4.1
				C203.51,383.89,201.68,385.72,199.41,385.72z" class="color000000 svgShape"/><path fill="#333b91" d="M301.67,385.72c-43.99,0-79.78-35.79-79.78-79.78s35.79-79.78,79.78-79.78c2.27,0,4.1,1.84,4.1,4.1
				c0,2.26-1.83,4.1-4.1,4.1c-39.47,0-71.57,32.11-71.57,71.57s32.11,71.58,71.57,71.58c2.27,0,4.1,1.84,4.1,4.1
				C305.77,383.89,303.94,385.72,301.67,385.72z" class="color000000 svgShape"/><path fill="#fff" d="M602.28,381.62H379.49c-41.79,0-75.68-33.88-75.68-75.68l0,0c0-41.79,33.88-75.68,75.68-75.68h222.78V381.62
				z" class="colorffffff svgShape"/><path fill="#1c1c1c" d="M602.28,385.72H379.49c-43.99,0-79.78-35.79-79.78-79.78s35.79-79.78,79.78-79.78h222.79
				c2.27,0,4.1,1.84,4.1,4.1v151.35C606.38,383.89,604.54,385.72,602.28,385.72z M379.49,234.37c-39.47,0-71.57,32.11-71.57,71.57
				s32.11,71.58,71.57,71.58h218.69V234.37H379.49z" class="color080717 svgShape"/><path fill="#1c1c1c" d="M598.34,275.28H401.99c-2.27,0-4.1-1.84-4.1-4.1c0-2.26,1.83-4.1,4.1-4.1h196.35c2.27,0,4.1,1.84,4.1,4.1
				C602.44,273.44,600.6,275.28,598.34,275.28z" class="color080717 svgShape"/><g fill="#333b91" class="color000000 svgShape"><path fill="#1c1c1c" d="M594.25,303.91H491.98c-2.27,0-4.1-1.84-4.1-4.1c0-2.26,1.83-4.1,4.1-4.1h102.26c2.27,0,4.1,1.84,4.1,4.1
				C598.35,302.08,596.51,303.91,594.25,303.91z" class="color080717 svgShape"/></g><g fill="#333b91" class="color000000 svgShape"><path fill="#1c1c1c" d="M90.95,230.24h433.54c24.84,0,44.99-20.14,44.99-44.99v0c0-24.84-20.14-44.99-44.99-44.99H90.95V230.24z" class="color080717 svgShape"/><path fill="#1c1c1c" d="M524.49,234.34H90.95c-2.27,0-4.1-1.84-4.1-4.1v-89.97c0-2.26,1.83-4.1,4.1-4.1h433.54
				c27.06,0,49.08,22.02,49.08,49.09C573.57,212.32,551.55,234.34,524.49,234.34z M95.05,226.14h429.44
				c22.54,0,40.88-18.34,40.88-40.88c0-22.55-18.34-40.89-40.88-40.89H95.05V226.14z" class="color080717 svgShape"/><path fill="#fff" d="M90.95,230.24H321.8c24.84,0,44.99-20.14,44.99-44.99v0c0-24.84-20.14-44.99-44.99-44.99H90.95V230.24z" class="colorffffff svgShape"/><path fill="#1c1c1c" d="M321.8,234.34H90.95c-2.27,0-4.1-1.84-4.1-4.1v-89.97c0-2.26,1.83-4.1,4.1-4.1H321.8
				c27.06,0,49.08,22.02,49.08,49.09C370.88,212.32,348.87,234.34,321.8,234.34z M95.05,226.14H321.8
				c22.54,0,40.88-18.34,40.88-40.88c0-22.55-18.34-40.89-40.88-40.89H95.05V226.14z" class="color080717 svgShape"/><g class="color000000 svgShape"><path fill="#1c1c1c" d="M308.43,168.69H93.29c-2.27,0-4.1-1.84-4.1-4.1c0-2.26,1.83-4.1,4.1-4.1h215.14c2.27,0,4.1,1.84,4.1,4.1
				C312.53,166.85,310.69,168.69,308.43,168.69z" class="color080717 svgShape"/></g><g class="color000000 svgShape"><path fill="#1c1c1c" d="M193.37,193.91H95.72c-2.27,0-4.1-1.84-4.1-4.1c0-2.26,1.83-4.1,4.1-4.1h97.65c2.27,0,4.1,1.84,4.1,4.1
				C197.47,192.07,195.64,193.91,193.37,193.91z" class="color080717 svgShape"/></g></g><g fill="#333b91" class="color000000 svgShape"><path fill="#fff" d="M78.68,136.16h470.58c24.85,0,44.99-20.14,44.99-44.99v-6.97c0-24.84-20.14-44.99-44.99-44.99H78.68V136.16z
				" class="colorffffff svgShape"/><path fill="#1c1c1c" d="M549.26,140.26H78.68c-2.27,0-4.1-1.84-4.1-4.1V39.22c0-2.26,1.83-4.1,4.1-4.1h470.58
				c27.06,0,49.08,22.02,49.08,49.09v6.97C598.35,118.24,576.33,140.26,549.26,140.26z M82.78,132.06h466.48
				c22.54,0,40.88-18.34,40.88-40.88v-6.97c0-22.55-18.34-40.89-40.88-40.89H82.78V132.06z" class="color080717 svgShape"/><path fill="#fff" d="M78.68,136.16h252.2c24.84,0,44.99-20.14,44.99-44.99v-6.97c0-24.84-20.14-44.99-44.99-44.99H78.68V136.16z" class="colorffffff svgShape"/><path fill="#1c1c1c" d="M330.88,140.26H78.68c-2.27,0-4.1-1.84-4.1-4.1V39.22c0-2.26,1.83-4.1,4.1-4.1h252.2
				c27.07,0,49.09,22.02,49.09,49.09v6.97C379.97,118.24,357.95,140.26,330.88,140.26z M82.78,132.06h248.1
				c22.54,0,40.89-18.34,40.89-40.88v-6.97c0-22.55-18.34-40.89-40.89-40.89H82.78V132.06z" class="color080717 svgShape"/><g class="color000000 svgShape"><path fill="#1c1c1c" d="M312.99,69.52H81.2c-2.27,0-4.1-1.84-4.1-4.1c0-2.26,1.83-4.1,4.1-4.1h231.79c2.27,0,4.1,1.84,4.1,4.1
				C317.09,67.68,315.25,69.52,312.99,69.52z" class="color080717 svgShape"/></g></g><g fill="#333b91" class="color000000 svgShape"><path fill="#1c1c1c" d="M549.25,87.15H414.26c-2.27,0-4.1-1.84-4.1-4.1c0-2.26,1.83-4.1,4.1-4.1h134.99c2.27,0,4.1,1.84,4.1,4.1
			C553.35,85.32,551.52,87.15,549.25,87.15z" class="color080717 svgShape"/></g><polygon fill="#8aa2ff" points="250.64 207.99 250.64 99.46 288.4 99.46 326.15 99.46 326.15 207.99 288.4 186.19" class="colorff6700 svgShape"/><g fill="#333b91" class="color000000 svgShape"><path fill="#fff" d="M476.09,483L476.09,483L476.09,483c-17.07-58.63-83.19-101.77-83.19-101.77l-121.75,0.95l-95.36,0.03
				c0,0-9.49-57.42-17.12-76.81c-7.63-19.38-38.49-18.71-38.49-18.71l8.85,59.49c0,0-24.49-52.98-33.32-64.79
				c-8.83-11.81-37.62-10.49-37.62-10.49l14.54,37.41c0,0-17.67-23.62-32.89-29.47c-15.22-5.84-35.64,1.47-35.64,1.47l107.6,151.32
				l249.63,73.77l12.54,40.2l0,0l12.21,123.49h180.43C521.05,571.35,476.09,483,476.09,483z" class="colorffffff svgShape"/><path fill="#1c1c1c" d="M566.51,673.2H386.08c-2.11,0-3.87-1.6-4.08-3.7l-12.17-123.07l-11.76-37.71l-247.53-73.14
				c-0.88-0.26-1.65-0.81-2.18-1.56L0.76,282.71c-0.74-1.05-0.95-2.38-0.57-3.61c0.38-1.23,1.32-2.2,2.53-2.63
				c0.89-0.32,22.03-7.75,38.5-1.44c6.61,2.54,13.49,8,19.38,13.63l-6.32-16.27c-0.48-1.23-0.34-2.62,0.38-3.72
				c0.72-1.11,1.93-1.8,3.25-1.86c3.18-0.15,31.24-1.03,41.09,12.14c4.93,6.59,14.31,25.02,21.94,40.67l-4.81-32.32
				c-0.17-1.16,0.16-2.35,0.92-3.25c0.76-0.9,1.87-1.43,3.05-1.46c1.36,0.01,33.81-0.48,42.39,21.31
				c6.69,17.02,14.58,61.4,16.77,74.21l91.9-0.03l121.72-0.95c0.92,0.02,1.6,0.23,2.27,0.67c2.74,1.79,67.32,44.47,84.77,103.68
				c3.11,6.12,46.75,92.23,90.31,185.89c0.59,1.27,0.49,2.76-0.26,3.93C569.22,672.49,567.91,673.2,566.51,673.2z M389.79,665
				h170.29c-43.99-94.27-87.2-179.28-87.64-180.14c-0.12-0.23-0.21-0.47-0.28-0.71c-15.32-52.63-72.21-93.14-80.49-98.8
				l-120.48,0.94l-95.39,0.03c-2.01,0-3.72-1.45-4.04-3.43c-0.1-0.57-9.51-57.21-16.89-75.97c-4.86-12.35-21.61-15.24-29.88-15.91
				l8.12,54.59c0.3,2.02-0.93,3.95-2.88,4.53c-1.95,0.58-4.04-0.36-4.9-2.21c-0.24-0.52-24.4-52.72-32.88-64.05
				c-4.93-6.59-19.08-8.52-28.34-8.85l12.37,31.83c0.74,1.91-0.04,4.08-1.83,5.07c-1.8,1-4.04,0.51-5.27-1.13
				c-0.17-0.23-17.15-22.75-31.08-28.1c-9.17-3.52-20.82-1.63-27.48-0.02l103.42,145.44l248.27,73.36c1.31,0.39,2.35,1.41,2.75,2.71
				l12.54,40.2c0.08,0.27,0.14,0.54,0.16,0.82L389.79,665z" class="color080717 svgShape"/><path d="M389.94,453.66c-1.77,0-3.4-1.15-3.93-2.93c-0.77-2.55-19.33-60.91-102.93-62.99c-86.77-2.16-108.27-2.36-108.47-2.36
					c-2.26-0.02-4.08-1.87-4.06-4.13c0.02-2.25,1.85-4.07,4.1-4.07c0.01,0,0.02,0,0.04,0c0.2,0,21.71,0.2,108.61,2.37
					c46.77,1.16,74.31,19.69,89.17,35.03c16.22,16.74,21.21,33.14,21.42,33.83c0.64,2.17-0.6,4.45-2.77,5.1
					C390.72,453.6,390.33,453.66,389.94,453.66z" class="color000000 svgShape"/><path d="M144.49,441.98c-2.03,0-3.79-1.51-4.06-3.57c-1.19-9.15-24.43-149.28-24.66-150.69c-0.37-2.23,1.14-4.34,3.37-4.71
					c2.27-0.37,4.35,1.14,4.72,3.37c0.96,5.78,23.49,141.69,24.7,150.98c0.29,2.24-1.29,4.3-3.54,4.6
					C144.84,441.97,144.67,441.98,144.49,441.98z" class="color000000 svgShape"/><path d="M124.04,439.26c-1.62,0-3.15-0.96-3.8-2.56L53.84,273.55c-0.86-2.1,0.15-4.49,2.25-5.34c2.09-0.85,4.49,0.15,5.34,2.25
					l66.41,163.16c0.86,2.1-0.15,4.49-2.25,5.34C125.08,439.16,124.56,439.26,124.04,439.26z" class="color000000 svgShape"/><path d="M386.08,669.1v83.75h799.69l-52.95-162.37c-17.63-54.06-64.82-93.12-121.22-100.35L736.41,454.9
			c-48.96-6.27-97.32,15.27-125.42,55.85l-76.99,111.2L386.08,669.1z" class="color000000 svgShape"/><g class="color000000 svgShape"><path fill="#fff" d="M583.1,729.68c-1.54,0-3.01-0.87-3.71-2.34L530.3,623.71c-0.97-2.05-0.1-4.49,1.95-5.46
				c2.04-0.97,4.49-0.1,5.46,1.95l49.09,103.63c0.97,2.05,0.1,4.49-1.95,5.46C584.28,729.56,583.69,729.68,583.1,729.68z" class="colorffffff svgShape"/></g><g class="color000000 svgShape"><circle cx="1011.36" cy="312.04" r="166.52" class="color000000 svgShape" transform="rotate(-45.001 1011.365 312.056)"/><circle cx="897.38" cy="218.92" r="110.19" class="color000000 svgShape" transform="rotate(-45.001 897.383 218.93)"/><circle cx="835.42" cy="166.69" r="65.93" class="color000000 svgShape" transform="rotate(-24.043 835.515 166.7)"/><ellipse cx="1145.3" cy="246.01" class="color000000 svgShape" rx="112.31" ry="108.88" transform="rotate(-68.832 1145.286 246.028)"/><path d="M1173.9,372.68c-1.95,0-3.68-1.39-4.03-3.38c-0.4-2.23,1.08-4.36,3.32-4.76c33.7-6.02,63.24-32,77.1-67.78
					c20.44-52.78,0.21-109.99-45.1-127.54c-2.11-0.82-3.16-3.19-2.34-5.31c0.82-2.11,3.19-3.16,5.31-2.34
					c49.52,19.18,71.86,81.16,49.79,138.15c-14.89,38.43-46.81,66.37-83.3,72.89C1174.38,372.66,1174.14,372.68,1173.9,372.68z" class="color000000 svgShape"/><circle cx="899.95" cy="165.85" r="149.69" class="color000000 svgShape" transform="rotate(-45.001 899.95 165.859)"/><circle cx="1005.49" cy="155.26" r="149.69" class="color000000 svgShape" transform="rotate(-45.001 1005.496 155.27)"/><path d="M1020.05,307.67c-18.44,0-37.17-3.34-55.37-10.38c-38.3-14.84-68.54-43.7-85.14-81.28
					c-16.59-37.58-17.56-79.37-2.73-117.67c14.84-38.3,43.7-68.54,81.28-85.14c37.57-16.6,79.37-17.56,117.67-2.73
					c79.07,30.63,118.49,119.88,87.87,198.95C1140.06,270.29,1081.72,307.66,1020.05,307.67z M1020.18,8.2
					c-19.98,0-39.94,4.17-58.77,12.49c-35.57,15.71-62.9,44.33-76.94,80.6l0,0c-14.05,36.26-13.13,75.83,2.58,111.4
					c15.71,35.57,44.33,62.9,80.6,76.94c74.86,28.99,159.35-8.32,188.34-83.18c28.99-74.86-8.32-159.35-83.18-188.34
					C1055.75,11.5,1037.95,8.2,1020.18,8.2z M880.65,99.81h0.04H880.65z" class="color000000 svgShape"/><path d="M951.95,370.62c-0.49,0-0.99-0.09-1.48-0.28c-8.11-3.14-15.23-8.4-20.59-15.2c-2.52-3.21-4.63-6.72-6.27-10.44
					c-0.91-2.07,0.02-4.49,2.1-5.41c2.07-0.9,4.49,0.03,5.41,2.1c1.36,3.09,3.12,6.01,5.21,8.68c4.45,5.65,10.36,10.02,17.11,12.63
					c2.11,0.82,3.16,3.19,2.34,5.3C955.14,369.63,953.59,370.62,951.95,370.62z" class="color000000 svgShape"/><path fill="#fff" d="M949.44,362.97c25.34,9.81,53.42-2.04,61.72-26.45c7.67-22.54-5.29-48.36-28.86-57.64
					c-13.24-5.21-27.2-4.38-38.76,0.97c16.52-51.76,4.2-104.48-34.3-129.08c-48.38-30.91-119.71-5.71-159.33,56.29
					c-39.62,62-32.51,137.32,15.87,168.23c2.54,1.62,5.17,3,7.82,4.31l5.19,84.99l-34.28-4.39c-1.07,4.83-1.64,9.79-1.64,14.84
					c0,52.34,59.83,94.76,133.62,94.76c64.7,0,118.66-32.62,130.98-75.93l-59.38-7.6l-13.07-131.9
					C939.2,357.9,944.01,360.87,949.44,362.97z" class="colorffffff svgShape"/><path d="M876.49,573.91c-75.94,0-137.72-44.35-137.72-98.86c0-5.24,0.58-10.53,1.74-15.73c0.46-2.07,2.42-3.47,4.52-3.18
					l29.36,3.76l-4.74-77.69c-1.92-0.99-4.01-2.13-6.08-3.46c-24.49-15.65-39.69-42.47-42.81-75.53
					c-3.08-32.68,6.04-67.62,25.69-98.37s47.51-53.71,78.47-64.65c31.31-11.06,62.03-8.53,86.52,7.11
					c37.24,23.79,52.13,73.68,38.31,125.91c11.06-3.06,23.09-2.47,34.05,1.84c25.58,10.06,39.6,38.22,31.24,62.77
					c-4.18,12.3-13.13,22.18-25.18,27.81c-12.92,6.03-28.2,6.44-41.9,1.14l0,0c-2.75-1.07-5.41-2.36-7.96-3.86l11.86,119.7
					l56.14,7.19c1.18,0.15,2.24,0.81,2.9,1.81c0.66,1,0.85,2.23,0.52,3.38C998.41,540.72,941.67,573.91,876.49,573.91z
					 M747.81,464.76c-0.56,3.42-0.84,6.87-0.84,10.28c0,49.99,58.1,90.66,129.52,90.66c59.35,0,111.12-28.49,125.56-68.39
					l-54.48-6.98c-1.89-0.24-3.37-1.76-3.56-3.66l-13.07-131.9c-0.16-1.66,0.69-3.26,2.17-4.03c1.47-0.78,3.28-0.58,4.55,0.5
					c4.01,3.39,8.47,6.05,13.25,7.9l0,0c11.64,4.51,24.56,4.17,35.47-0.93c10.01-4.67,17.43-12.85,20.89-23.02
					c6.97-20.47-4.91-44.02-26.48-52.5c-11.56-4.55-24.52-4.23-35.53,0.88c-1.48,0.69-3.22,0.43-4.44-0.64
					c-1.22-1.08-1.69-2.77-1.2-4.32c16.42-51.44,3.32-101.43-32.61-124.38c-22.32-14.26-50.5-16.49-79.38-6.28
					c-29.23,10.33-55.62,32.11-74.29,61.33c-18.67,29.22-27.35,62.31-24.44,93.18c2.88,30.49,16.75,55.13,39.06,69.39
					c2.54,1.62,5.19,2.98,7.44,4.1c1.31,0.65,2.18,1.96,2.27,3.42l5.19,84.99c0.08,1.22-0.4,2.41-1.29,3.24
					c-0.89,0.84-2.11,1.25-3.32,1.07L747.81,464.76z" class="color000000 svgShape"/><path d="M944.93,286.78c-1.05-0.09-2.09-0.15-3.14-0.28c-58.45-7.07-98.72-73.18-89.96-147.67c0.1-0.84,0.23-1.67,0.35-2.5
				c21.03-2.31,41.63,1.68,59.27,12.92C952.42,175.35,964.63,232.22,944.93,286.78z" class="color000000 svgShape"/><path d="M812.85,390.89c-13.32,0-26.7-2.06-39.69-6.24c-2.15-0.69-3.34-3-2.65-5.16c0.7-2.15,3.02-3.35,5.16-2.65
					c33.94,10.93,70.8,6.4,101.12-12.44c1.93-1.2,4.45-0.6,5.65,1.32c1.19,1.92,0.6,4.45-1.32,5.65
					C860.36,384.27,836.71,390.89,812.85,390.89z" class="color000000 svgShape"/><path d="M782.54,198.16c0.57,3.66-7.2,7.91-17.34,9.49c-10.15,1.58-18.84-0.12-19.4-3.78c-0.57-3.66,7.2-7.91,17.34-9.49
				C773.28,192.81,781.97,194.5,782.54,198.16z" class="color000000 svgShape"/><path d="M861.81,244.72c-2.52,3.85-13.2,1.31-23.85-5.68c-10.65-6.98-17.25-15.76-14.72-19.61c2.52-3.85,13.2-1.31,23.85,5.68
				C857.74,232.09,864.33,240.87,861.81,244.72z" class="color000000 svgShape"/><path d="M777.09,266.26c-1.5,0-2.95-0.82-3.67-2.26c-3.04-6.04-2.65-13.31,1.02-18.98l16.33-25.3c1.23-1.9,3.77-2.45,5.67-1.22
					c1.9,1.23,2.45,3.77,1.22,5.67l-16.33,25.3c-2.12,3.29-2.34,7.34-0.58,10.84c1.02,2.02,0.2,4.49-1.82,5.51
					C778.34,266.12,777.71,266.26,777.09,266.26z" class="color000000 svgShape"/><path d="M794.11,331.83c-0.87,0-1.76-0.06-2.65-0.18c-9.9-1.39-17.91-10.33-23.81-26.59l0,0c-0.65-1.79-0.28-3.67,0.99-5.02
					c1.72-1.82,4.91-5.22,50.41,8.38c1.27,0.38,2.28,1.35,2.71,2.61c0.42,1.26,0.22,2.64-0.56,3.72
					C820.68,315.49,808.69,331.83,794.11,331.83z M777.06,306.57c3.4,7.93,8.52,15.97,15.52,16.96c6.54,0.9,13.53-4.41,18.06-9.02
					C797.55,310.78,783.79,307.42,777.06,306.57z" class="color000000 svgShape"/><path d="M946.93,331.57c-0.38,0-0.76-0.05-1.13-0.16c-2.18-0.62-3.44-2.89-2.81-5.07c3.65-12.75,10.11-21.66,19.22-26.49
					c13.11-6.95,26.7-2.61,27.27-2.43c2.15,0.7,3.32,3.02,2.62,5.17c-0.7,2.15-2.99,3.33-5.16,2.62l0,0
					c-0.11-0.03-10.98-3.42-20.97,1.92c-7.01,3.75-12.09,10.97-15.1,21.46C950.35,330.4,948.71,331.57,946.93,331.57z" class="color000000 svgShape"/><path d="M772.04,235.53c-3.17,7.02-9.94,10.81-15.14,8.47c-5.19-2.34-6.83-9.93-3.67-16.95c3.17-7.02,9.94-10.81,15.14-8.47
				C773.57,220.93,775.21,228.52,772.04,235.53z" class="color000000 svgShape"/><path d="M831.24,262.44c-3.17,7.02-9.94,10.81-15.14,8.47c-5.19-2.34-6.83-9.93-3.67-16.95c3.17-7.02,9.94-10.81,15.14-8.47
				C832.77,247.83,834.41,255.42,831.24,262.44z" class="color000000 svgShape"/></g></g></svg>