<svg xmlns="http://www.w3.org/2000/svg" enable-background="new 0 0 193.38 226.85" viewBox="0 0 193.38 226.85"><path fill="#fff" d="M45.68,191.38l-11.14,15.86c0,0-4.32,2.31-7.48,1.16c-3.16-1.16-4.66-4.13-4.66-4.13l10.97-21.31l-5.49-4.13
		l21.28-31.23c0,0,4.82-4.96,7.98-6.77c3.16-1.82,20.28-12.89,20.28-12.89s13.63,11.56,24.44,11.07s21.62-2.97,21.62-2.97
		l-21.12,20.65l23.94,27.92l-2,2.97l10.31,13.22c0,0-1.33,3.47-2.83,4.63c-1.5,1.16-4.82,3.14-8.31,1.98
		c-3.49-1.16-10.64-10.57-10.64-10.57l-3.99,3.3L77.1,165.12l-15.8,9.25l-13.63,18.01L45.68,191.38z" class="colorffffff svgShape"/><path fill="#fff" d="M112.08,225.86h13.86l17.18-16.08l-2.66-2.97l-15.96,15.42h-13.3C111.19,222.22,110.3,223.66,112.08,225.86z" class="colorffffff svgShape"/><path fill="#fff" d="M34.96,207.11l-0.1,12.76l-31.62-0.24c-2.66-0.02-3.06-4.78-0.66-7.09l19.91-8.24
			C22.49,204.31,25.41,211.77,34.96,207.11z" class="colorffffff svgShape"/><path fill="#ffb999" d="M34.96,207.45l-0.07,9.11l-31.62-0.24c-2.66-0.02-3.07-2.74-0.68-4.39l19.68-7.63
			C22.27,204.3,25.42,210.76,34.96,207.45z" class="colorf1cf25 svgShape"/><path fill="none" stroke="#000" stroke-linecap="round" stroke-linejoin="round" stroke-miterlimit="10" stroke-width="1.994" d="M34.96,207.11l-0.1,12.76l-31.62-0.24c-2.66-0.02-3.06-4.78-0.66-7.09l19.91-8.24
			C22.49,204.31,25.41,211.77,34.96,207.11z" class="colorStroke000000 svgStroke"/><line x1="35.13" x2="45.84" y1="206.66" y2="191.22" fill="none" stroke="#000" stroke-linecap="round" stroke-linejoin="round" stroke-miterlimit="10" stroke-width="1.994" class="colorStroke000000 svgStroke"/><line x1="23.02" x2="33.87" y1="203.73" y2="182.79" fill="none" stroke="#000" stroke-linecap="round" stroke-linejoin="round" stroke-miterlimit="10" stroke-width="1.994" class="colorStroke000000 svgStroke"/><path fill="none" stroke="#000" stroke-linecap="round" stroke-linejoin="round" stroke-miterlimit="10" stroke-width="1.994" d="M102.55,149.81l-41.21,24.57l-13.3,17.84L28.09,179l19.13-28.24c2.74-4.04,6.28-7.48,10.4-10.11l54.94-35.01" class="colorStroke000000 svgStroke"/><path fill="#ffb999" d="M111.19,222.62h13.63l15.96-15.28l-6.3-6.68c0,0-1.93,9.32-10.94,6.56c-0.07-0.02-3.29,8.21-3.29,8.21
			l-7.23,3.14C113.02,218.57,111.19,219.15,111.19,222.62z" class="colorf1cf25 svgShape"/><path fill="none" stroke="#000" stroke-linecap="round" stroke-linejoin="round" stroke-miterlimit="10" stroke-width="1.994" d="M119.79,215.66l3.76-8.44c0,0,7.31,3.37,10.94-6.56l8.83,9.26l-16.76,15.73l-0.16,0.16l-13.17,0.04
			c-2.66,0.01-3.11-4.75-0.73-7.09l7.28-3.09" class="colorStroke000000 svgStroke"/><line x1="134.09" x2="124.77" y1="200.31" y2="187.53" fill="none" stroke="#000" stroke-linecap="round" stroke-linejoin="round" stroke-miterlimit="10" stroke-width="1.994" class="colorStroke000000 svgStroke"/><line x1="122.97" x2="113.34" y1="206.76" y2="197.52" fill="none" stroke="#000" stroke-linecap="round" stroke-linejoin="round" stroke-miterlimit="10" stroke-width="1.994" class="colorStroke000000 svgStroke"/><line x1="73.07" x2="90.65" y1="116.28" y2="104.16" fill="none" stroke="#fff" stroke-linecap="round" stroke-linejoin="round" stroke-miterlimit="10" stroke-width="1.994" class="colorStrokeffffff svgStroke"/><path fill="#aebfff" d="M165.37,111.82l-11.47-11.9l-44.12,23.02c0,0-6.54-11.12-11.2-15.09c-4.66-3.97,58.64-31.56,61.3-31.56
		c2.66,0,10.81,8.26,10.81,8.26s6.98-2.81,8.81-0.33C181.33,86.7,181,98.76,165.37,111.82z" class="color85bac6 svgShape"/><path fill="#170c07" d="M74.16,117.87l34.74,15.12c1.44,0.63,3.12-0.02,3.75-1.46l11.61-26.33L84.31,87.81L72.7,114.14
			C72.07,115.58,72.72,117.24,74.16,117.87z" class="color080717 svgShape"/><path fill="#ffb999" d="M85.48,26.77c9.97-22.61,36.49-32.9,59.24-23c22.75,9.9,33.12,36.26,23.15,58.87
			c-6.68,15.14-20.79,24.72-36.21,26.45l-6.95,15.75L83.51,86.9l6.95-15.75C81.28,58.71,78.8,41.91,85.48,26.77z" class="colorf1cf25 svgShape"/><line x1="120.64" x2="72.57" y1="123.35" y2="102.43" fill="none" stroke="#170c07" stroke-width="7.974" class="colorStroke080717 svgStroke"/><line x1="126.64" x2="78.58" y1="109.74" y2="88.82" fill="none" stroke="#170c07" stroke-width="7.974" class="colorStroke080717 svgStroke"/><path fill="none" stroke="#fff" stroke-width="1.994" d="M112.26,97.77c0,0,15.76-36.59,24.06-46.02c2.96-3.36,15.57-10.79,17.68-3.25
			c2.11,7.54-25.57,18.32-30.24,2.15c-2.8-9.7,4.11-34.31,11.52-28.96c4.42,3.2-2.83,32.43-13.84,31.63
			c-14.7-1.07-16.02-16.03-14.75-20.24c1.28-4.21,12.04,9.46,6.93,24.07c-5.11,14.6-15.44,35.21-15.44,35.21" class="colorStrokeffffff svgStroke"/><path fill="#fff" d="M70.93,112.92c0.12-0.04,2.97-1.02,4.09,0.79c0.3,0.48,0.67,1.11,1.05,1.73c-0.31-1.31-0.54-2.51-0.56-3.36
		c-0.08-3.06,0.33-6.89,0.34-6.92c0.02-0.21,0.18-0.39,0.4-0.43c0.03-0.01,2.24-0.41,3.48,1.65c0.29-1.5,0.62-2.93,0.64-3.04
		c0.03-0.13,0.11-0.24,0.22-0.31c0.07-0.04,1.63-0.99,3.43,1.33c0.49,0.62,0.82,1.66,1.05,2.84c0.26-0.23,0.59-0.39,0.96-0.45
		c1.01-0.16,2.06,0.39,2.78,1.51c0.42,0.64,1.03,1.85,1.82,3.38c0.93,1.81,2.08,4.07,3.18,5.89c1.36,2.24,4.81,3.02,6.55,3.28
		c-0.91-1.43-2.57-4.26-2.82-6.26c-0.37-2.96,3.12-4.73,3.26-4.8c0.24-0.12,0.53-0.03,0.66,0.2c0.02,0.04,2.24,4.01,4.89,6.49
		c1.85,1.73,2.76,4.64,3.17,6.5c0.04-0.12,0.11-0.23,0.23-0.29c1.94-1.1,47.67-26.98,54.46-29.28c0.16-0.05,0.33-0.03,0.46,0.07
		c0.13,0.1,0.21,0.26,0.2,0.42l-0.92,15.61c-0.01,0.12-0.06,0.23-0.14,0.31c-0.17,0.18-17.59,18.2-40.76,26.72
		c-6.57,2.42-12.5,3.17-17.34,3.17c-2.67,0-5.01-0.23-6.95-0.54c-5.93-0.94-9.4-2.75-9.52-2.82c-0.43-0.21-10.58-5.19-13.86-11.62
		c-3.22-6.32-4.75-11.1-4.77-11.14C70.54,113.28,70.67,113.01,70.93,112.92z" class="colorffffff svgShape"/><path fill="none" stroke="#000" stroke-linecap="round" stroke-linejoin="round" stroke-miterlimit="10" stroke-width="1.994" d="M109.34,124.7c0,0-0.62-5.4-3.33-7.93c-2.74-2.56-4.99-6.61-4.99-6.61s-3.33,1.65-2.99,4.3
			c0.33,2.64,3.33,6.94,3.33,6.94s-5.99-0.33-7.98-3.63c-2-3.3-4.08-7.86-4.99-9.25c-1.22-1.87-3.1-1.54-3.44-0.22" class="colorStroke000000 svgStroke"/><path fill="none" stroke="#000" stroke-linecap="round" stroke-linejoin="round" stroke-miterlimit="10" stroke-width="1.994" d="M88.83,121.07l-3.27-6.51c-0.32-0.63-0.49-1.32-0.5-2.03c-0.04-2.02-0.26-6.37-1.44-7.88
			c-1.55-1.98-2.77-1.21-2.77-1.21s-1.11,4.85-1.11,6.17c0,1.32,0,5.73,2.66,11.9" class="colorStroke000000 svgStroke"/><path fill="none" stroke="#000" stroke-linecap="round" stroke-linejoin="round" stroke-miterlimit="10" stroke-width="1.994" d="M78.91,123.13c0,0-2.83-8.01-2.91-11.07c-0.08-3.06,0.33-6.86,0.33-6.86s2.74-0.55,3.52,2.86" class="colorStroke000000 svgStroke"/><path fill="none" stroke="#000" stroke-linecap="round" stroke-linejoin="round" stroke-miterlimit="10" stroke-width="1.994" d="M77.19,118.31c0,0-1.69-2.86-2.6-4.35c-0.91-1.49-3.49-0.58-3.49-0.58s1.5,4.71,4.74,11.07
			c3.24,6.36,13.63,11.4,13.63,11.4s13.88,7.35,33.42,0.17c23.32-8.58,40.57-26.6,40.57-26.6" class="colorStroke000000 svgStroke"/><path fill="none" stroke="#000" stroke-linecap="round" stroke-linejoin="round" stroke-miterlimit="10" stroke-width="1.994" d="M110,123.05c0,0,47.55-26.93,54.37-29.24" class="colorStroke000000 svgStroke"/><g class="color000000 svgShape"><path fill="#fff" d="M167.64,83.44c1.99,0,3.3-0.83,3.7-1.12l8.47-16.34l1.1,0.23c6.21-2.57,10.24-7.36,9.6-11.47l-0.35-2.26
			l1.26,0.09l-0.05-1.13l-1.45,0.62l0.12-2.89c0.05-1.35-0.2-2.71-0.75-3.94c-0.92-2.07-2.59-3.7-4.71-4.6l-0.07-0.03l-0.07-0.04
			c-1.6-0.84-3.62-1.43-5.71-1.64c-0.62-0.07-1.25-0.1-1.86-0.1c-2.32,0-4.52,0.48-6.18,1.34l-1.02,0.53l-0.92-0.68
			c-0.48-0.35-1-0.57-1.56-0.66c-0.18-0.03-0.36-0.04-0.54-0.04c-1.07,0-2.13,0.49-2.98,1.39l-0.77,0.81l-1.07-0.3
			c-0.8-0.23-1.58-0.34-2.3-0.34c-0.87,0-2.44,0.18-3.2,1.38c-1.26,1.98,0.51,5.35,3.95,7.51l1.7,1.07l-1.15,1.63
			c-3,3.87-4.18,5.64-4.64,6.44c0.15,0.08,0.34,0.17,0.57,0.28l1.24,0.6l-0.24,1.35c-0.22,1.23-0.81,5.47,0.9,8.22
			c0.55,0.89,1.27,1.53,2.2,1.96l2.2,1.02l-5.01,5.78c0.66,0.86,2.35,2.7,5.76,4.36C165.11,83.12,166.41,83.44,167.64,83.44z" class="colorffffff svgShape"/><path fill="none" stroke="#000" stroke-linecap="round" stroke-linejoin="round" stroke-miterlimit="10" stroke-width="1.994" d="M163.73,54.66c0,0,1.79-0.97,3.71,1.17" class="colorStroke000000 svgStroke"/><path fill="#fff" stroke="#000" stroke-linecap="round" stroke-linejoin="round" stroke-miterlimit="10" stroke-width="1.994" d="M161.52,72.7l-4.63,5.35c0,0,1.5,2.8,6.51,5.25c5.27,2.57,8.68-0.38,8.68-0.38l8.01-15.45" class="colorffffff svgShape colorStroke000000 svgStroke"/><path fill="none" stroke="#000" stroke-linecap="round" stroke-linejoin="round" stroke-miterlimit="10" stroke-width="1.994" d="M160.76,51.03c0,0-6.24,7.96-5.73,8.28c0.5,0.32,1.95,0.99,1.95,0.99s-4.09,16.76,12.82,11.54" class="colorStroke000000 svgStroke"/><path d="M165.32,58.46c-0.24,0.38-0.74,0.49-1.12,0.25c-0.38-0.24-0.49-0.74-0.25-1.11c0.24-0.38,0.74-0.49,1.12-0.25
					C165.45,57.58,165.56,58.08,165.32,58.46z" class="color000000 svgShape"/><path fill="none" stroke="#000" stroke-linecap="round" stroke-linejoin="round" stroke-miterlimit="10" stroke-width="1.994" d="M162.18,66.35c0,0,2.25,1.41,3.7,0.24" class="colorStroke000000 svgStroke"/><path fill="#170c07" d="M169.56,50.56c-1.53,2.41-5.92,2.4-9.79-0.03c-3.87-2.43-5.76-6.36-4.23-8.77
						c1.53-2.41,5.92-2.4,9.79,0.03C169.2,44.22,171.1,48.14,169.56,50.56z" class="color080717 svgShape"/><path fill="#170c07" d="M165.4,50.7c-2.84-0.44-4.71-3.54-4.18-6.92c0.53-3.38,3.26-5.76,6.1-5.32c2.84,0.44,4.71,3.54,4.18,6.92
						C170.97,48.75,168.24,51.14,165.4,50.7z" class="color080717 svgShape"/><path fill="#170c07" d="M172.1,52.09c-2.84-0.44-4.71-3.54-4.18-6.92c0.53-3.38,3.26-5.76,6.1-5.32
						c2.84,0.44,4.71,3.54,4.18,6.92C177.67,50.15,174.93,52.53,172.1,52.09z" class="color080717 svgShape"/><path fill="#170c07" d="M166.89,43.52c0.39-3.69,5.73-6.16,11.93-5.51c6.2,0.65,10.91,4.17,10.52,7.86
						c-0.39,3.69-5.73,6.16-11.93,5.51C171.21,50.73,166.5,47.22,166.89,43.52z" class="color080717 svgShape"/><ellipse cx="180.92" cy="48.89" fill="#170c07" class="color080717 svgShape" rx="10.05" ry="9.89" transform="rotate(-15.094 180.948 48.89)"/><path fill="#170c07" d="M191.13,53.45c-0.86-2.43-3.17-4.1-6.21-4.86c-7.33,2.93-11.83,8.91-10.13,13.71
						c0.86,2.43,3.17,4.1,6.21,4.86C188.33,64.23,192.83,58.25,191.13,53.45z" class="color080717 svgShape"/><path fill="#fff" stroke="#000" stroke-linecap="round" stroke-linejoin="round" stroke-miterlimit="10" stroke-width="1.994" d="M173.56,60.11c0.99-1.56,3-2.08,4.48-1.15c1.48,0.93,1.87,2.95,0.88,4.51c-0.99,1.56-3,2.08-4.48,1.15" class="colorffffff svgShape colorStroke000000 svgStroke"/><path fill="none" stroke="#000" stroke-linecap="round" stroke-linejoin="round" stroke-miterlimit="10" stroke-width="1.994" d="M192.23,50.08c-0.77,1.02-1.89,1.78-3.12,2.12c1.12-0.36,2.38,0.6,3.28,1.36" class="colorStroke000000 svgStroke"/></g><path fill="none" stroke="#000" stroke-linecap="round" stroke-linejoin="round" stroke-miterlimit="10" stroke-width="1.994" d="M125.41,134.95l-22.83,21.92l24.28,28.42c0,0-15.96,12.89-17.62,14.87l-32.15-34.81" class="colorStroke000000 svgStroke"/></svg>