<svg xmlns="http://www.w3.org/2000/svg" enable-background="new 0 0 1257.23 933.18" viewBox="0 0 1257.23 933.18"><path fill="#1c1c1c" d="M544.46,407.79c-13.59,12.43-21.61,27.16-24.34,78.97c-5.6,106.32-307.03,137.37-405.86,88.32
		c-80-39.71-17.21-109.14,3.81-117.74c39.54-16.18,41.43-18.85,15.73-59.11c-25.7-40.26-55.88-61.34,7.64-78.88
		c44.89-12.39,44.83-26.49,38.11-79.4c-6.72-52.91,74.32-73.85,106.36-65.24c32.04,8.61-3.52-20.55,22.71-32.1
		c26.23-11.55,35.82,3.27,42.34,13.9c6.52,10.64,64.4,5.42,82.86,44.57c18.46,39.15,63.35,26.76,59.1,98
		c-4.25,71.25,13.89,39.93,33.34,43.65C545.7,346.46,572.91,381.76,544.46,407.79z" class="color080717 svgShape"/><path fill="#fff" d="M272.95,486.56l-84.63,18.4c-41.38,9-76.3,36.58-94.64,74.76L17.2,738.95
				C-31.55,840.45,63.01,951.7,171.03,919.94l121.33-35.67h397.21l-69.16-337.02c-12.43-60.59-69.96-100.98-131.17-92.09
				L272.95,486.56z" class="colorffffff svgShape"/><path fill="#1c1c1c" d="M133.57,929.5c-38.5,0-75.24-16.69-101.36-47.42c-34.8-40.94-41.97-96.47-18.7-144.9l76.48-159.23
				c19.02-39.6,54.54-67.66,97.46-76.99l84.63-18.4c0.1-0.02,0.19-0.04,0.28-0.05l216.3-31.4c63.26-9.24,122.92,32.69,135.78,95.33
				l69.16,337.02c0.25,1.21-0.06,2.46-0.84,3.42c-0.78,0.96-1.95,1.51-3.18,1.51H292.96l-120.77,35.5
				C159.34,927.66,146.35,929.5,133.57,929.5z M273.68,490.59l-84.49,18.38c-40.43,8.79-73.9,35.22-91.82,72.52L20.89,740.73
				c-21.84,45.48-15.11,97.6,17.56,136.04c32.67,38.44,83.02,53.46,131.42,39.24l121.34-35.67c0.38-0.11,0.76-0.17,1.16-0.17h392.19
				l-68.15-332.1c-11.98-58.39-67.56-97.39-126.57-88.86L273.68,490.59z" class="color080717 svgShape"/><path fill="#fff" d="M927.1,373.32l-15.19,59.44c-12.13,47.45-40.53,89.14-80.24,117.81l-39.15,28.26l-51.55,305.45H498.08
				l123.26-342.75l200.04-253.97l114.83,40.38L927.1,373.32z" class="colorffffff svgShape"/><path fill="#1c1c1c" d="M740.96,888.37H498.08c-1.33,0-2.59-0.65-3.36-1.74c-0.77-1.09-0.95-2.49-0.5-3.75l123.26-342.75
				c0.15-0.41,0.36-0.8,0.64-1.15l200.04-253.97c1.09-1.38,2.92-1.91,4.58-1.33l114.83,40.38c1.93,0.68,3.06,2.67,2.66,4.67
				l-9.11,45.4c-0.02,0.07-0.03,0.14-0.05,0.21l-15.19,59.44c-12.34,48.29-41.4,90.95-81.82,120.11l-37.79,27.28l-51.27,303.79
				C744.67,886.93,742.96,888.37,740.96,888.37z M503.91,880.17h233.58l50.97-302.03c0.18-1.07,0.77-2.01,1.65-2.64l39.15-28.26
				c38.86-28.05,66.8-69.06,78.67-115.5l15.16-59.33l8.39-41.8l-108.71-38.22L624.97,543.53L503.91,880.17z M927.1,373.32h0.04
				H927.1z" class="color080717 svgShape"/><path fill="#8aa2ff" d="M412.7,900.18l39.41,25.47c21.76,14.07,50.82,7.83,64.88-13.94L923.61,282.6l-118.23-76.42L398.77,835.3
				C384.7,857.07,390.94,886.12,412.7,900.18z" class="colorff6700 svgShape"/><rect width="8.2" height="139.45" x="484.55" y="757.4" fill="#1c1c1c" class="color080717 svgShape" transform="rotate(-57.127 488.609 827.08)"/><path fill="#1c1c1c" d="M538.97,877.71L420.74,801.3l-21.98,34c-14.07,21.76-7.83,50.82,13.94,64.88l39.41,25.47
				c21.76,14.07,50.82,7.83,64.88-13.94L538.97,877.71z" class="color080717 svgShape"/><polygon fill="#fff" points="813.55 204.75 949 113.65 921.56 274.56" class="colorffffff svgShape"/><path fill="#1c1c1c" d="M943.35,122.39l-24.78,145.35L821,204.68L943.35,122.39L943.35,122.39z M954.65,104.91h0.02H954.65z
						 M954.65,104.91L806.1,204.82l118.45,76.56L954.65,104.91L954.65,104.91z" class="color080717 svgShape"/><polygon fill="#1c1c1c" points="881.93 153.82 939.92 191.3 954.65 104.91" class="color080717 svgShape"/><path fill="#fff" d="M878.93,491.31c20.11-29.81,41.94-114.61,42.86-118.19l10.76-41.74c0.69-2.65-0.69-5.25-3.17-6.07
			l-104.34-33.75c-1.95-0.63-4.16,0.01-5.6,1.63c-6.31,7.06-15.06,22-11.69,35.94L783.66,321c-2.18-0.74-4.66,0.13-6.06,2.11
			c-0.81,1.15-19.7,28.28-4.9,47.92c-3.54,5.65-9.27,16.74-8.04,28.03c0.72,6.65,3.77,12.26,8.88,16.81
			c-5.05,6.32-9.46,16.07-5.65,26.97c3.72,10.65,33.41,26.57,47.16,32.99c-6.48,2.82-22.65,11.41-27.44,21.17
			C786.22,499.83,856.86,524.02,878.93,491.31z" class="colorffffff svgShape"/><path fill="#1c1c1c" d="M921.6,374.8c-0.46,0-0.93-0.08-1.39-0.24l-141.98-50.91c-3.88,6.7-12.62,24.82-2.4,37.82
				c1.4,1.78,1.09,4.36-0.69,5.76c-1.79,1.41-4.36,1.09-5.76-0.69c-16.47-20.96,2.93-49.04,3.76-50.23c1.07-1.51,3-2.13,4.74-1.5
				l145.1,52.03c2.13,0.76,3.24,3.11,2.47,5.25C924.86,373.76,923.28,374.8,921.6,374.8z" class="color080717 svgShape"/><path fill="#1c1c1c" d="M927.1,377.42c-0.31,0-0.62-0.03-0.93-0.11c-2.21-0.51-3.58-2.71-3.06-4.92l9.66-41.51L822.63,292.8
				c-4.3,5.64-14.49,21.56-4.23,34.63c1.4,1.78,1.09,4.36-0.69,5.76c-1.79,1.41-4.36,1.09-5.76-0.69
				c-13.37-17.02-1.75-38.35,6.26-47.25c1.11-1.23,2.83-1.67,4.39-1.13l116.33,40.22c1.98,0.69,3.13,2.76,2.65,4.81l-10.5,45.1
				C930.65,376.14,928.96,377.42,927.1,377.42z" class="color080717 svgShape"/><path fill="#1c1c1c" d="M912.45,421.93c-0.48,0-0.96-0.08-1.43-0.26l-134.18-49.89c-2.91,4.54-8.45,14.72-7.06,24.53
				c0.81,5.73,3.82,10.44,9.2,14.37c1.83,1.34,2.22,3.9,0.88,5.73c-1.33,1.83-3.9,2.23-5.73,0.88
				c-7.17-5.25-11.37-11.94-12.48-19.89c-2.31-16.55,9.87-32.44,10.39-33.11c1.1-1.41,2.98-1.94,4.66-1.33l137.17,51.01
				c2.12,0.79,3.2,3.15,2.41,5.27C915.68,420.91,914.11,421.93,912.45,421.93z" class="color080717 svgShape"/><g fill="#e8f4fa" class="color000000 svgShape"><path fill="#1c1c1c" d="M788.5,500.87c-0.73,0-1.47-0.2-2.14-0.6c-1.93-1.18-2.54-3.7-1.35-5.64c6.79-11.08,15.7-16.22,23.47-18.53
				c-15.41-7.18-37.3-19.2-41.9-31.26c-5.92-15.54,4.4-28.45,10.69-33.11c1.18-0.87,2.71-1.05,4.05-0.48l107.17,45.61
				c2.08,0.89,3.06,3.3,2.17,5.38c-0.89,2.09-3.3,3.06-5.38,2.17L780.46,419.8c-3.39,3.24-10.27,11.47-6.21,22.13
				c4.17,10.95,34.32,26.06,52.33,33.01c1.97,0.76,3.04,2.89,2.47,4.93c-0.56,2.03-2.59,3.31-4.66,2.93
				c-0.82-0.13-20.57-3.21-32.4,16.11C791.23,500.17,789.88,500.87,788.5,500.87z" class="color080717 svgShape"/></g><g fill="#e8f4fa" class="color000000 svgShape"><path fill="#fff" d="M524.32,565.42l52.66-93.32c4.38-7.75,14.42-10.15,21.83-5.2l0,0c11.56,7.72,17,21.88,13.6,35.35
					l-9.31,36.88L524.32,565.42z" class="colorffffff svgShape"/><path fill="#1c1c1c" d="M524.31,569.52c-1.2,0-2.37-0.53-3.16-1.49c-1.08-1.31-1.24-3.14-0.41-4.62l52.66-93.31
					c2.65-4.69,7.16-8.09,12.4-9.34c5.23-1.25,10.81-0.24,15.28,2.74c12.97,8.66,19.12,24.65,15.3,39.77l-9.31,36.89
					c-0.34,1.35-1.35,2.44-2.68,2.88l-78.78,26.28C525.19,569.45,524.75,569.52,524.31,569.52z M590.34,468.42
					c-0.87,0-1.76,0.1-2.63,0.31c-3.07,0.73-5.61,2.65-7.16,5.39l-47.42,84.04l66.55-22.2l8.76-34.71
					c2.97-11.76-1.81-24.2-11.9-30.94C594.65,469.06,592.52,468.42,590.34,468.42z" class="color080717 svgShape"/><g class="color000000 svgShape"><path fill="#fff" d="M573.67,531.21l125.4-31.8c6.93-1.76,13.79,3.12,14.4,10.25l0.59,6.97c1.13,13.23-5.81,25.84-17.59,31.96
						l-31.82,16.54l-1.64,3.96l43.08-5.15c9.38-1.12,17.98,5.59,18.98,14.98c1.53,14.33-7.55,27.34-20.97,31.3
						c8.26,0.12,15.37,6.25,16.38,14.68c1.73,14.48-7.39,27.69-20.92,31.68c8.26,0.12,15.37,6.25,16.37,14.68
						c1.93,16.16-9.6,30.83-25.76,32.76l-87.3,10.44l-5.65,13.65c-6.71,16.23-20.25,28.66-36.99,33.97l-267.86,122.2
						c0,0-105.58-111.34,10.99-203.24c0.35-0.28,0.85-0.26,1.28-0.38L491.3,625.3l2.29-10.81
						C502.24,573.74,533.29,541.45,573.67,531.21z" class="colorffffff svgShape"/><path fill="#1c1c1c" d="M292.37,888.37c-1.1,0-2.18-0.44-2.98-1.28c-2.01-2.12-49.16-52.61-44.65-114.82
						c2.55-35.37,21.43-67.15,56.08-94.47c1.04-0.82,2.14-1.02,2.67-1.11l184.3-54.64l1.79-8.42c9.04-42.6,40.87-75.71,83.08-86.41
						l125.4-31.8c4.48-1.12,9.2-0.24,12.95,2.43c3.76,2.67,6.15,6.85,6.54,11.45l0.59,6.97c1.27,14.92-6.49,29.03-19.78,35.95
						l-21.27,11.05l28.49-3.41c5.71-0.66,11.28,0.92,15.76,4.48c4.42,3.53,7.19,8.54,7.78,14.13c1.32,12.36-4.31,24.09-14.05,30.93
						c5.09,3.26,8.7,8.67,9.46,15c1.5,12.55-4.12,24.45-14,31.37c5.09,3.26,8.69,8.67,9.45,14.99
						c2.19,18.38-10.97,35.12-29.35,37.32l-84.91,10.15L601,729.67c-7.16,17.31-21.48,30.5-39.3,36.23l-267.64,122.1
						C293.52,888.25,292.94,888.37,292.37,888.37z M305.33,684.69c-32.4,25.73-50.03,55.37-52.41,88.12
						c-3.76,51.64,31.74,96.3,40.5,106.47l265.1-120.95c0.15-0.07,0.3-0.13,0.46-0.18c15.62-4.96,28.18-16.48,34.44-31.63
						l5.65-13.65c0.56-1.37,1.83-2.33,3.3-2.5l87.3-10.43c13.89-1.66,23.84-14.31,22.18-28.2c-0.74-6.21-6.06-10.97-12.37-11.06
						c-2.03-0.03-3.73-1.54-4-3.54c-0.27-2.01,0.96-3.92,2.9-4.49c11.91-3.51,19.48-14.98,18.01-27.26
						c-0.74-6.21-6.06-10.97-12.36-11.06c-2.03-0.03-3.73-1.54-4-3.54c-0.27-2.01,0.96-3.92,2.9-4.49
						c11.76-3.47,19.34-14.79,18.05-26.93c-0.36-3.4-2.05-6.45-4.74-8.59c-2.75-2.19-6.22-3.18-9.67-2.75l-43.08,5.15
						c-1.48,0.17-2.88-0.44-3.76-1.59c-0.88-1.16-1.08-2.7-0.52-4.05l1.64-3.96c0.37-0.89,1.04-1.63,1.9-2.07l31.83-16.54
						c10.34-5.38,16.38-16.36,15.39-27.97l-0.59-6.97c-0.19-2.19-1.33-4.19-3.13-5.47c-1.8-1.28-4.06-1.71-6.18-1.16l-125.4,31.8
						l0,0c-39.16,9.93-68.7,40.64-77.08,80.16l-2.29,10.81c-0.31,1.47-1.41,2.65-2.85,3.08L305.8,684.58
						C305.65,684.62,305.5,684.66,305.33,684.69z M305.91,684.24c0,0-0.01,0.01-0.01,0.01C305.9,684.25,305.9,684.24,305.91,684.24z
						 M573.67,531.21h0.04H573.67z" class="color080717 svgShape"/><path fill="#1c1c1c" d="M594.2,627.95c-2.05,0-3.82-1.53-4.07-3.61c-0.27-2.25,1.34-4.29,3.58-4.56l105.05-12.56
						c2.31-0.28,4.29,1.34,4.56,3.58c0.27,2.25-1.34,4.29-3.58,4.56L594.7,627.93C594.53,627.95,594.36,627.95,594.2,627.95z" class="color080717 svgShape"/><path fill="#1c1c1c" d="M594.77,581.34c-2.05,0-3.82-1.53-4.07-3.61c-0.27-2.25,1.34-4.29,3.58-4.56l111.63-13.35
						c2.31-0.29,4.29,1.34,4.56,3.58c0.27,2.25-1.34,4.29-3.58,4.56l-111.63,13.35C595.09,581.34,594.93,581.34,594.77,581.34z" class="color080717 svgShape"/><g class="color000000 svgShape"><path fill="#1c1c1c" d="M597.54,673.11c-2.05,0-3.82-1.53-4.07-3.61c-0.27-2.25,1.34-4.29,3.58-4.56l111.63-13.35
						c2.3-0.27,4.29,1.34,4.56,3.58c0.27,2.25-1.34,4.29-3.58,4.56l-111.63,13.35C597.86,673.1,597.7,673.11,597.54,673.11z" class="color080717 svgShape"/></g></g></g><g fill="#e8f4fa" class="color000000 svgShape"><path fill="#fff" d="M115.13,724.65l188.23-43.63L115.13,724.65z" class="colorffffff svgShape"/><path fill="#1c1c1c" d="M115.13,728.76c-1.87,0-3.55-1.28-3.99-3.18c-0.51-2.21,0.86-4.41,3.07-4.92l188.23-43.63
				c2.2-0.5,4.41,0.87,4.92,3.07c0.51,2.21-0.87,4.41-3.07,4.92l-188.23,43.63C115.74,728.72,115.43,728.76,115.13,728.76z" class="color080717 svgShape"/></g><g fill="#e8f4fa" class="color000000 svgShape"><path fill="#1c1c1c" d="M602.41,123.92c-2.83,0-5.65-0.66-8.26-1.96c-4.43-2.21-7.74-6.02-9.31-10.72
					c-1.57-4.69-1.22-9.72,0.99-14.15c2.21-4.43,6.02-7.74,10.71-9.31c4.71-1.57,9.73-1.22,14.16,0.99
					c4.43,2.21,7.74,6.01,9.31,10.71c1.57,4.7,1.22,9.73-0.99,14.16c-2.21,4.43-6.01,7.74-10.72,9.31
					C606.38,123.6,604.39,123.92,602.41,123.92z M602.44,95.02c-1.1,0-2.21,0.18-3.29,0.54c-2.62,0.88-4.74,2.72-5.98,5.19
					c-1.23,2.47-1.43,5.27-0.55,7.89c0.88,2.62,2.72,4.74,5.19,5.98c2.48,1.24,5.29,1.43,7.9,0.55c2.62-0.88,4.75-2.72,5.98-5.19
					c1.23-2.47,1.43-5.28,0.55-7.9c-0.88-2.62-2.72-4.74-5.19-5.98C605.59,95.39,604.02,95.02,602.44,95.02z" class="color080717 svgShape"/><path fill="#1c1c1c" d="M572.6,180.9l-3.75-11.21l0.76-1.52c8.23-16.51,28.21-23.36,44.82-15.5l23.24-46.6
					c8.75-17.56,30.16-24.73,47.73-15.96l-3.66,7.34c-13.5-6.73-29.99-1.23-36.73,12.28l-26.9,53.93l-6.72-3.36
					c-12.2-6.08-26.93-1.53-33.67,10.07l2.65,7.91L572.6,180.9z" class="color080717 svgShape"/><path fill="#1c1c1c" d="M605.65,204.1c-5.37,0-10.72-1.25-15.67-3.72c-8.41-4.2-14.68-11.41-17.66-20.33l-21.12-63.18
					c-2.98-8.91-2.31-18.45,1.88-26.86c4.2-8.41,11.41-14.68,20.33-17.66l63.18-21.12c8.91-2.98,18.44-2.31,26.86,1.88
					c8.41,4.2,14.68,11.41,17.66,20.33l21.12,63.18c2.98,8.91,2.31,18.46-1.88,26.86c-4.2,8.41-11.41,14.68-20.33,17.66
					l-63.18,21.12C613.18,203.49,609.4,204.1,605.65,204.1z M647.76,57.6c-2.88,0-5.77,0.46-8.58,1.41L576,80.13
					c-6.84,2.29-12.37,7.1-15.59,13.55c-3.22,6.45-3.73,13.77-1.45,20.6l21.12,63.18c2.29,6.84,7.1,12.37,13.55,15.59
					c6.45,3.22,13.76,3.73,20.6,1.45l63.18-21.12c6.84-2.29,12.37-7.1,15.59-13.54c3.22-6.45,3.73-13.77,1.45-20.6l-21.12-63.18
					c-2.29-6.84-7.1-12.37-13.55-15.59C655.98,58.56,651.88,57.6,647.76,57.6z" class="color080717 svgShape"/></g><g fill="#e8f4fa" class="color000000 svgShape"><path fill="#1c1c1c" d="M648.08,305.44c-3.45,0-6.59-1.31-8.69-3.8c-9.69-11.44-4.78-30.37,5.56-42.06
				c3.74-4.24,8.56-7.95,14.07-10.12c-6.59-22.42-22.73-36.81-22.93-36.98l5.41-6.17c0.91,0.8,18.43,16.43,25.53,41.23
				c5.87-0.52,12.16,0.87,18.56,5.07c8.13,5.33,13.05,11.92,14.62,19.58c2.32,11.38-3.82,20.78-4.09,21.17l-6.82-4.55
				c1.11-1.7,10.42-17.14-8.2-29.34c-4.36-2.86-8.59-3.92-12.2-3.77c0.57,3.3,0.94,6.74,1.05,10.29
				c0.93,29.41-12.37,36.84-16.47,38.42C651.66,305.1,649.83,305.44,648.08,305.44z M660.89,257.61c-4.77,2.17-8.24,5.65-9.8,7.4
				c-7.86,8.88-12.17,23.38-5.44,31.33c0.7,0.84,2.53,1.31,4.88,0.41c5.81-2.24,11.82-11.42,11.22-30.51
				C661.65,263.28,661.35,260.39,660.89,257.61z" class="color080717 svgShape"/></g><g fill="#e8f4fa" class="color000000 svgShape"><path fill="#1c1c1c" d="M964.11,324.66l43.21-72.78l-19.61-5.44c-5.59-1.03-10.57-4.74-13.3-10.13c-2.74-5.38-2.81-11.6-0.2-17.04
					l44.76-93.99c3.88-8.12,13.06-12.5,21.82-10.41l201.65,48.03c5.63,1.34,10.31,5.09,12.85,10.29c2.53,5.2,2.61,11.2,0.2,16.47
					l-45.58,99.38c-3.8,8.28-12.99,12.81-21.88,10.72l-121.77-28.41c-1.18-0.28-2.41-0.25-3.57,0.08L964.11,324.66z M1026.35,128.81
					l-44.75,93.98c-1.51,3.14-1.46,6.7,0.11,9.79c1.57,3.09,4.43,5.23,7.84,5.86l30.29,8.4l-33.55,56.51l73.51-39.63
					c2.69-0.89,5.57-1.01,8.31-0.37l121.77,28.41c5.07,1.17,10.38-1.4,12.56-6.15l45.58-99.38c1.39-3.02,1.35-6.46-0.11-9.45
					c-1.46-2.99-4.14-5.14-7.37-5.91l-201.65-48.03C1033.87,121.64,1028.59,124.15,1026.35,128.81L1026.35,128.81z" class="color080717 svgShape"/><path fill="#1c1c1c" d="M1104.85,250.89c-0.72,0-1.43-0.04-2.13-0.14c-7.17-0.94-12.25-6.38-13.94-14.95
					c-2-10.13,5.11-22.16,19-32.17c0.47-0.34,0.95-0.68,1.44-1.01c-5.24-7.99-14.4-17.15-28.85-17.15c-0.21,0-0.43,0-0.65,0.01
					c-7.24,0.14-13.71,2.44-19.06,5.88c3.26,9.69,4.01,20.79,1.19,27.61c-1.71,4.13-4.72,6.69-8.46,7.19
					c-8.17,1.1-12.21-1.97-14.18-4.74c-3.3-4.64-3-11.67,0.84-19.29c2.37-4.7,6.01-9.43,10.68-13.49c-0.82-1.64-1.75-3.16-2.78-4.5
					c-6.88-9-10.92-7.3-10.97-7.29l-4.17-7.05c0.4-0.24,9.91-6,21.65,9.36c1.07,1.39,2.05,2.94,2.95,4.61
					c6.31-3.81,13.82-6.33,22.17-6.49c14.54-0.31,27.66,7.21,36.67,21.09c13.05-6.94,28.68-10.26,39.89-3.87
					c11.72,6.68,17.79,15.63,17.9,26c6.01,0.57,13.17,1.98,21.69,4.56l-2.37,7.85c-8.03-2.43-14.79-3.77-20.38-4.3
					c-0.58,2.22-1.42,4.49-2.49,6.8c-3.07,6.57-8.79,12.37-13.91,14.08c-3.25,1.09-5.66,0.41-7.1-0.36
					c-5.99-3.17-8.59-10.78-5.9-17.3c1.33-3.22,6.2-11,22.26-11.6c-0.23-7.36-4.8-13.5-13.76-18.6c-8.4-4.79-21.11-1.76-31.83,3.91
					c5.69,11.9,7.7,25.16,4.38,31.95C1120.7,245.54,1112.63,250.89,1104.85,250.89z M1113.2,209.86c-0.21,0.15-0.42,0.3-0.62,0.44
					c-10.89,7.84-17.07,17.23-15.75,23.93c0.69,3.51,2.46,7.82,6.95,8.4c4.9,0.68,10.78-3.2,13.49-8.73
					C1118.95,230.45,1117.89,220.13,1113.2,209.86z M1164.46,228.46c-7.78,0.56-11.98,3.26-13.31,6.51
					c-1.21,2.94,0.18,5.89,2.15,6.94c1.45,0.14,6.73-3.5,9.74-9.95C1163.6,230.77,1164.08,229.6,1164.46,228.46z M1053.8,196.97
					c-2.73,2.79-4.9,5.84-6.43,8.87c-2.63,5.23-2.64,9.21-1.49,10.84c1.26,1.77,4.55,1.61,6.41,1.37c0.76-0.1,1.42-0.84,1.98-2.19
					C1055.95,211.8,1055.72,204.24,1053.8,196.97z" class="color080717 svgShape"/></g><g fill="#e8f4fa" class="color000000 svgShape"><path fill="#1c1c1c" d="M857.94,112.19c-30.93,0-56.09-25.16-56.09-56.09C801.84,25.16,827,0,857.94,0
					c30.93,0,56.09,25.16,56.09,56.09C914.03,87.02,888.86,112.19,857.94,112.19z M857.94,8.2c-26.41,0-47.89,21.49-47.89,47.89
					c0,26.41,21.49,47.89,47.89,47.89s47.89-21.48,47.89-47.89C905.83,29.69,884.34,8.2,857.94,8.2z" class="color080717 svgShape"/><path fill="#1c1c1c" d="M850.43,77.95c-0.27,0-0.53-0.02-0.78-0.06c-9.07-1.51-18.78-17.78-20.64-21.03l7.12-4.07
					c4.3,7.5,11.02,15.88,14.52,16.93c4.64-1.78,19.35-21.2,30.45-38.66l6.92,4.4C870.08,63.67,857.44,77.95,850.43,77.95z" class="color080717 svgShape"/></g><circle cx="374.24" cy="264.94" r="119.62" fill="#1c1c1c" class="color080717 svgShape" transform="rotate(-45.001 374.238 264.949)"/><g fill="#e8f4fa" class="color000000 svgShape"><path fill="#fff" d="M239.07,329.45c5-1.95,10.19-2.49,15.16-1.84c-16.48-44.16-1.25-94.24,37.78-121.51
			c48.11-33.62,114.49-20.78,146.59,28.35l17.57,26.89c28.12,43.03,9.27,101.04-38.77,119.33l-8.75,3.33l13,75.84l45.3-7.76
			c-8.08,44.54-45.12,81.92-94.82,90.44c-49.71,8.52-97.07-14.4-119.52-53.71l55.43-9.5c0,0-27.98-92.04-32.16-101.59l-0.75-1.72
			c-3.34,4.65-8,8.42-13.73,10.66c-15.8,6.17-33.6-1.64-39.77-17.44C215.46,353.42,223.27,335.62,239.07,329.45z" class="colorffffff svgShape"/><path fill="#1c1c1c" d="M351.53,548.38c-42.44,0-81.95-21.59-102.48-57.53c-0.66-1.16-0.72-2.57-0.15-3.78
			c0.57-1.21,1.7-2.07,3.02-2.29l50.84-8.71c-8.82-28.96-23.58-76.77-29.01-92.34c-3.15,2.9-6.82,5.2-10.86,6.77
			c-17.87,6.98-38.1-1.89-45.08-19.77c-3.38-8.66-3.19-18.12,0.55-26.63c3.74-8.52,10.56-15.07,19.22-18.45l0,0
			c3.47-1.35,7.14-2.14,10.84-2.33c-13.89-44.67,2.55-93.52,41.23-120.55c24.18-16.9,53.44-23.13,82.43-17.52
			c28.97,5.61,53.81,22.29,69.95,46.99l17.57,26.89c14.09,21.55,17.6,47.96,9.64,72.45c-7.95,24.49-26.32,43.79-50.38,52.95
			l-5.59,2.13L425,455.11l41.26-7.07c1.35-0.23,2.67,0.21,3.61,1.15c0.94,0.95,1.36,2.3,1.12,3.62
			c-8.62,47.49-48.07,85.16-98.17,93.75C365.7,547.78,358.57,548.38,351.53,548.38z M259.26,491.83
			c23.24,35.66,67.55,54.29,112.18,46.65c44.65-7.65,80.21-39.98,90.25-81.34l-39.35,6.74c-1.07,0.18-2.17-0.06-3.06-0.69
			s-1.49-1.58-1.67-2.65l-12.99-75.84c-0.33-1.93,0.75-3.83,2.58-4.52l8.75-3.33c21.73-8.27,38.31-25.7,45.5-47.82
			c7.18-22.11,4.01-45.96-8.71-65.43l-17.57-26.89c-14.92-22.82-37.87-38.25-64.64-43.43c-26.78-5.18-53.83,0.57-76.17,16.19
			c-37.29,26.06-52.21,74.05-36.29,116.72c0.5,1.35,0.26,2.86-0.63,3.99c-0.9,1.13-2.3,1.7-3.74,1.51
			c-4.44-0.58-8.96-0.03-13.13,1.59l0,0c-6.62,2.58-11.84,7.59-14.69,14.1c-2.86,6.51-3,13.74-0.42,20.36
			c2.58,6.62,7.59,11.84,14.1,14.69c6.5,2.85,13.73,3.01,20.36,0.42c4.77-1.86,8.88-5.05,11.89-9.23c0.86-1.2,2.29-1.84,3.76-1.68
			c1.47,0.15,2.73,1.08,3.33,2.43l0.75,1.72c4.23,9.66,31.18,98.28,32.33,102.04c0.34,1.13,0.18,2.35-0.44,3.35
			c-0.62,1-1.63,1.69-2.8,1.89L259.26,491.83z" class="color080717 svgShape"/></g><g fill="#e8f4fa" class="color000000 svgShape"><path fill="#1c1c1c" d="M265.46,364.81c-1.64,0-3.19-0.99-3.82-2.61c-3.72-9.54-14.53-14.28-24.06-10.55
			c-2.1,0.83-4.48-0.22-5.31-2.33c-0.82-2.11,0.22-4.48,2.33-5.31c13.76-5.36,29.31,1.45,34.68,15.21c0.82,2.11-0.22,4.48-2.33,5.31
			C266.46,364.73,265.96,364.81,265.46,364.81z" class="color080717 svgShape"/></g><g fill="#e8f4fa" class="color000000 svgShape"><path fill="#1c1c1c" d="M399.94,272.8c-0.9,0-1.8-0.29-2.56-0.9l-19.96-15.99c-7.04-5.64-11.28-14.05-11.63-23.07
			c-0.34-8.96,3.19-17.61,9.69-23.77c1.64-1.77,12.74-12.48,35.47-6.37c2.19,0.59,3.48,2.84,2.89,5.03
			c-0.59,2.19-2.84,3.47-5.03,2.89c-18.88-5.1-26.98,3.65-27.3,4.02c-0.08,0.09-0.2,0.22-0.29,0.3c-4.85,4.54-7.48,10.95-7.23,17.59
			c0.26,6.64,3.38,12.83,8.56,16.99l19.96,15.98c1.77,1.41,2.05,4,0.64,5.76C402.33,272.28,401.14,272.8,399.94,272.8z" class="color080717 svgShape"/></g><path fill="#1c1c1c" d="M315.94,272.63c4.58,4.17,10.23,4.61,12.64,0.98c2.4-3.63,0.64-9.96-3.94-14.13
		c-4.58-4.17-10.24-4.61-12.64-0.98S311.36,268.46,315.94,272.63z" class="color080717 svgShape"/><path fill="#1c1c1c" d="M397.68,238.3c4.58,4.17,10.24,4.6,12.65,0.97c2.41-3.64,0.65-9.97-3.93-14.14
		c-4.58-4.17-10.24-4.6-12.65-0.97C391.34,227.8,393.1,234.13,397.68,238.3z" class="color080717 svgShape"/><g fill="#e8f4fa" class="color000000 svgShape"><path fill="#fff" d="M407.2,282.1l-56.93,10.05C350.26,292.15,392.21,352.85,407.2,282.1z" class="colorffffff svgShape"/><path fill="#1c1c1c" d="M383.09,320.48c-17.68,0-34.24-23.18-36.19-26.01c-0.8-1.15-0.95-2.62-0.41-3.91
			c0.54-1.29,1.7-2.21,3.07-2.45l56.93-10.05c1.34-0.25,2.72,0.21,3.66,1.19c0.95,0.98,1.35,2.37,1.07,3.7
			c-4.74,22.38-12.91,34.88-24.29,37.16C385.64,320.36,384.36,320.48,383.09,320.48z M357.64,295.01
			c6.72,8.02,18.28,18.91,27.67,17.06c6.88-1.39,12.52-9.94,16.46-24.85L357.64,295.01z" class="color080717 svgShape"/></g><g fill="#e8f4fa" class="color000000 svgShape"><path fill="#1c1c1c" d="M252.91,323.57c-13.84-42.28,0.7-89.05,36.9-115.8C299.26,247.81,284.51,290.83,252.91,323.57z" class="color080717 svgShape"/></g><g fill="#e8f4fa" class="color000000 svgShape"><path fill="#1c1c1c" d="M283.41,279.1c-0.19,0-0.38-0.01-0.57-0.04c-2.24-0.32-3.81-2.39-3.49-4.63
			c5.09-36.3,44.07-46.37,45.73-46.78c2.18-0.53,4.42,0.79,4.97,2.99c0.55,2.19-0.79,4.42-2.98,4.97
			c-0.35,0.09-35.27,9.2-39.59,39.96C287.17,277.61,285.42,279.1,283.41,279.1z" class="color080717 svgShape"/></g><g fill="#e8f4fa" class="color000000 svgShape"><path fill="#1c1c1c" d="M371.08,395.76c-24.82,0-47.13-6.91-48.54-7.36c-2.16-0.68-3.36-2.98-2.68-5.14
			c0.68-2.16,2.99-3.35,5.14-2.68c0.5,0.16,50.62,15.66,81.79-0.23c2.02-1.03,4.48-0.23,5.51,1.79c1.03,2.02,0.23,4.49-1.79,5.51
			C398.56,393.76,384.45,395.76,371.08,395.76z" class="color080717 svgShape"/></g></svg>