<svg xmlns="http://www.w3.org/2000/svg" enable-background="new 0 0 1075.73 944.51" viewBox="0 0 1075.73 944.51"><path fill="#8aa2ff" d="M763.96,835.64l7.44-52.47c0.09-0.61,0.55-1.1,1.15-1.23c0.6-0.12,1.22,0.14,1.55,0.66
		c20.41,32.96,52.46,55.85,90.26,64.46c37.8,8.6,76.61,1.85,109.27-19.03c32.84-20.99,58.05-51.12,72.93-87.14l7.81-18.91
		c5.69-13.77,1.45-29.79-10.3-38.96l-32.94,66.29c0.53,0.62,0.45,1.54-0.16,2.06c-0.61,0.53-1.54,0.46-2.07-0.16L885.98,607.23
		c-1.52-1.78-2.84-3.69-3.96-5.71l-60.77,48.01c-0.46,0.37-1.1,0.42-1.62,0.13c-0.52-0.29-0.81-0.85-0.75-1.44l15.78-145.98
		c0.63-5.78-1.3-11.53-5.28-15.77c-3.98-4.24-9.59-6.51-15.41-6.25c-8.11,0.38-15.1,5.56-17.82,13.21l-34.58,97.21
		C733.3,670.1,734.19,756.87,763.96,835.64z" class="colorff6700 svgShape"/><path fill="#8aa2ff" d="M311.77,835.64l-7.44-52.47c-0.09-0.61-0.55-1.1-1.15-1.23c-0.6-0.12-1.22,0.14-1.55,0.66
		c-20.41,32.96-52.46,55.85-90.26,64.46c-37.8,8.6-76.61,1.85-109.27-19.03c-32.84-20.99-58.05-51.12-72.93-87.14l-7.81-18.91
		c-5.69-13.77-1.45-29.79,10.3-38.96l32.94,66.29c-0.53,0.62-0.45,1.54,0.16,2.06c0.61,0.53,1.54,0.46,2.07-0.16l122.93-143.99
		c1.52-1.78,2.84-3.69,3.96-5.71l60.78,48.01c0.46,0.37,1.1,0.42,1.62,0.13c0.52-0.29,0.81-0.85,0.75-1.44l-15.78-145.98
		c-0.63-5.78,1.3-11.53,5.28-15.77c3.98-4.24,9.59-6.51,15.41-6.25c8.11,0.38,15.1,5.56,17.82,13.21l34.58,97.21
		C342.44,670.1,341.54,756.87,311.77,835.64z" class="colorff6700 svgShape"/><path fill="#fff" d="M131.9,3.86l-29.74,25.78l29.74,470.23c265.27,21.75,409.07,101.68,409.07,101.68v-496
				C540.98,105.54,397.18,25.6,131.9,3.86z" class="colorffffff svgShape"/><path fill="#1c1c1c" d="M540.98,605.4c-0.64,0-1.29-0.16-1.87-0.48c-1.43-0.8-146.27-79.79-407.52-101.21
				c-1.91-0.16-3.41-1.69-3.54-3.6L98.31,29.88c-0.08-1.2,0.42-2.37,1.33-3.16l29.74-25.78c0.78-0.68,1.79-1,2.84-0.93
				c263.06,21.57,409.18,101.35,410.63,102.16c1.23,0.68,1.99,1.97,1.99,3.37v496c0,1.37-0.72,2.63-1.9,3.33
				C542.33,605.22,541.65,605.4,540.98,605.4z M135.55,496.29c232.03,19.53,372.31,84.24,401.57,98.91V107.86
				C518.93,98.38,376.94,28.08,133.21,7.83L106.14,31.3L135.55,496.29z" class="color080717 svgShape"/><path fill="#fff" d="M948.98,3.86l30.73,20.94l-30.73,475.06c-265.27,21.75-409.07,101.68-409.07,101.68v-496
				C539.91,105.54,683.71,25.6,948.98,3.86z" class="colorffffff svgShape"/><path fill="#1c1c1c" d="M539.91,605.4c-0.68,0-1.35-0.18-1.96-0.53c-1.18-0.69-1.9-1.96-1.9-3.33v-496c0-1.4,0.76-2.69,1.99-3.37
				c1.45-0.8,147.57-80.59,410.63-102.16c0.94-0.06,1.76,0.16,2.49,0.66l30.73,20.94c1.13,0.77,1.77,2.07,1.67,3.44l-30.73,475.06
				c-0.12,1.91-1.63,3.44-3.53,3.6c-261.42,21.43-406.08,100.41-407.51,101.21C541.2,605.24,540.55,605.4,539.91,605.4z
				 M543.77,107.85V595.2c29.27-14.67,169.54-79.38,401.57-98.91l30.38-469.54L947.93,7.81C703.87,28.04,561.94,98.37,543.77,107.85
				z" class="color080717 svgShape"/><path fill="#1c1c1c" d="M89.22,28.09v548.92c292.99,24.07,451.81,112.53,451.81,112.53l-36.8-571.79
				C504.23,117.75,382.21,52.16,89.22,28.09z" class="color080717 svgShape"/><path fill="#1c1c1c" d="M541.03,693.64c-0.68,0-1.37-0.17-1.99-0.52c-1.58-0.88-161.57-88.32-450.15-112.03
				c-2.13-0.17-3.76-1.95-3.76-4.09V28.09c0-1.15,0.48-2.24,1.32-3.01c0.84-0.78,1.99-1.16,3.11-1.07
				c151.68,12.46,256.74,36.25,318.17,54c66.78,19.31,97.18,35.45,98.44,36.13c1.25,0.67,2.06,1.94,2.15,3.35l36.8,571.79
				c0.1,1.5-0.63,2.93-1.9,3.73C542.56,693.43,541.79,693.64,541.03,693.64z M93.32,573.24c255.6,21.57,410.35,92.88,443.15,109.32
				l-36.19-562.21c-16.91-8.31-141.35-65.47-406.97-87.81V573.24z" class="color080717 svgShape"/><path fill="#1c1c1c" d="M991.66,28.09v548.92c-292.99,24.07-451.81,112.53-451.81,112.53l43.77-571.79
				C583.62,117.75,698.67,52.16,991.66,28.09z" class="color080717 svgShape"/><path fill="#1c1c1c" d="M539.85,693.64c-0.77,0-1.54-0.22-2.21-0.65c-1.27-0.81-1.99-2.26-1.88-3.76l43.77-571.79
				c0.1-1.36,0.87-2.57,2.06-3.25c1.19-0.68,29.92-16.85,95.01-36.17C736.45,60.25,839.63,36.47,991.33,24
				c1.14-0.09,2.27,0.29,3.12,1.07c0.84,0.77,1.32,1.87,1.32,3.01v548.92c0,2.13-1.64,3.91-3.76,4.09
				C703.42,604.8,543.43,692.24,541.85,693.12C541.23,693.47,540.54,693.64,539.85,693.64z M587.54,120.3L544.5,682.51
				c33-16.54,187.7-87.73,443.06-109.28V32.54C839.27,45.02,738.24,68.31,679.41,85.74C624.2,102.09,594.93,116.45,587.54,120.3z" class="color080717 svgShape"/><g fill="#333b91" class="color000000 svgShape"><path fill="#1c1c1c" d="M554.15,132.81h-21.31c-11.74,0-22.1-5.97-28.35-15.06h-6.24v542.64c0,19.43,15.49,35.19,34.59,35.19h21.31
				c19.1,0,34.59-15.75,34.59-35.19V117.75h-6.24C576.25,126.85,565.89,132.81,554.15,132.81z" class="color080717 svgShape"/><path fill="#1c1c1c" d="M554.16,699.44h-21.31c-21.2,0-38.45-17.52-38.45-39.05V117.75c0-2.13,1.73-3.86,3.86-3.86h6.24
				c1.27,0,2.46,0.63,3.18,1.67c5.76,8.38,15.17,13.39,25.17,13.39h21.31c9.99,0,19.4-5.01,25.17-13.39
				c0.72-1.05,1.91-1.67,3.18-1.67h6.24c2.13,0,3.86,1.73,3.86,3.86v542.64C592.6,681.92,575.35,699.44,554.16,699.44z
				 M502.12,121.61v538.78c0,17.28,13.78,31.33,30.73,31.33h21.31c16.95,0,30.73-14.05,30.73-31.33V121.61h-0.42
				c-7.27,9.47-18.46,15.06-30.31,15.06h-21.31c-11.86,0-23.04-5.59-30.31-15.06H502.12z" class="color080717 svgShape"/></g><g fill="#333b91" class="color000000 svgShape"><path fill="#8aa2ff" d="M700.99,288.73c-0.88,0-1.73-0.3-2.43-0.86c-0.88-0.71-1.4-1.77-1.43-2.9l-0.89-33.66
				c-0.05-1.85,1.23-3.48,3.04-3.87c55.93-12.12,118.91-21.11,187.21-26.72c1.06-0.09,2.14,0.28,2.93,1.01
				c0.79,0.73,1.25,1.76,1.25,2.84v35.02c0,1.99-1.52,3.66-3.5,3.84c-65.78,6.13-128.19,14.62-185.47,25.23
				C701.45,288.71,701.22,288.73,700.99,288.73z M704.03,254.31l0.69,25.95c55.27-10.09,115.18-18.22,178.22-24.19v-27.32
				C817.86,234.25,757.7,242.84,704.03,254.31z M886.8,259.59h0.04H886.8z" class="colorff6700 svgShape"/></g><g fill="#333b91" class="color000000 svgShape"><path fill="#fff" d="M716.63,302.76l150.03-17.52L716.63,302.76z" class="colorffffff svgShape"/><path fill="#8aa2ff" d="M716.62,306.62c-1.93,0-3.6-1.45-3.83-3.41c-0.25-2.12,1.27-4.03,3.38-4.28l150.03-17.52
				c2.16-0.24,4.04,1.27,4.28,3.38c0.25,2.12-1.27,4.03-3.38,4.28l-150.03,17.52C716.92,306.61,716.77,306.62,716.62,306.62z" class="colorff6700 svgShape"/></g><g fill="#333b91" class="color000000 svgShape"><path fill="#8aa2ff" d="M76.85,944.51l79.97-138.48l172.29-36.41c0,0-13.96,59.06-20.8,79.97c-7.46,22.81-36.41,94.92-36.41,94.92
			H76.85z" class="colorff6700 svgShape"/><path fill="#1c1c1c" d="M183.59,561.81c-0.61-0.53-0.68-1.46-0.14-2.07l19.01-21.86c8.59-9.88,11.33-23.72,7.16-36.13
			c-1.35-3.46-4.21-6.1-7.82-7.2c-3.62-1.09-7.46-0.47-10.56,1.7L19.66,617.05C3.78,628.23-1.46,648.96,7.2,666.34l11.79,23.67
			c0.21,0.42,0.18,0.89-0.01,1.28c2.29,4.52,3.91,7.83,3.91,8.11l149.37-123.85l11.49-13.65
			C183.7,561.87,183.64,561.85,183.59,561.81z" class="color080717 svgShape"/><path fill="#8aa2ff" d="M184.89,568.31c-0.61-0.53-0.68-1.46-0.14-2.07l19.01-21.86c8.59-9.88,11.33-23.72,7.16-36.13
			c-1.35-3.46-4.21-6.1-7.82-7.2c-3.62-1.09-7.46-0.47-10.56,1.7L20.96,623.55C5.08,634.73-0.16,655.46,8.5,672.84l11.79,23.67
			c0.21,0.42,0.18,0.89-0.01,1.28c2.29,4.52,3.91,7.83,3.91,8.11l149.37-123.85l11.49-13.65C185,568.37,184.94,568.35,184.89,568.31
			z" class="colorff6700 svgShape"/><path fill="#8aa2ff" d="M311.77,835.64l-7.44-52.47c-0.09-0.61-0.55-1.1-1.15-1.23c-0.6-0.12-1.22,0.14-1.55,0.66
			c-20.41,32.96-52.46,55.85-90.26,64.46c-37.8,8.6-76.61,1.85-109.27-19.03c-32.84-20.99-58.05-51.12-72.93-87.14l-7.81-18.91
			c-5.69-13.77-1.45-29.79,10.3-38.96l143.96-112.31c2.13-1.66,4.69-2.53,7.3-2.53c1.38,0,2.77,0.24,4.11,0.73
			c3.88,1.42,6.71,4.68,7.56,8.73c2.05,9.75-0.59,20.1-7.06,27.67L64.59,749.32c-0.53,0.62-0.45,1.54,0.16,2.06
			c0.61,0.53,1.54,0.46,2.07-0.16l122.93-143.99c1.52-1.78,2.84-3.69,3.96-5.71l60.78,48.01c0.46,0.37,1.1,0.42,1.62,0.13
			c0.52-0.29,0.81-0.85,0.75-1.44C256.86,648.21,341.54,756.87,311.77,835.64z" class="colorff6700 svgShape"/><path fill="#8aa2ff" d="M70.17,346.2c0.92-4.06,4.12-5.99,6.81-6.44c2.69-0.47,6.34,0.32,8.53,3.85l1.25-0.77l-1.08,1.04
			c6.66,10.8,9.8,23.37,9.06,36.37l-7.87,148.25c-0.02,0.32,0.09,0.6,0.25,0.85L26,565.29c-2.17,1.28-4.2,2.72-6.15,4.22
			L70.17,346.2z" class="colorff6700 svgShape"/><path fill="#8aa2ff" d="M203.94,498.25c-4.49-1.36-9.26-0.59-13.09,2.11L19.27,621.15c-6.56,4.62-11.42,10.77-14.4,17.63l-1.21-3.19
			c-9.67-25.46,0.35-53.97,23.82-67.78l164.3-96.66c3.22-1.89,7.07-2.21,10.55-0.88c3.49,1.34,6.13,4.15,7.26,7.71
			c2.33,7.35,3.04,14.97,2.11,22.63l-0.32,2.66C209.49,500.92,206.93,499.15,203.94,498.25z" class="colorff6700 svgShape"/><path fill="#1c1c1c" d="M65.71,754.37c-0.95,0-1.89-0.32-2.66-0.98c-1.72-1.47-1.93-4.06-0.46-5.78l122.93-143.99
				c1.74-2.03,3.19-4.29,4.32-6.71c0.96-2.05,3.4-2.93,5.45-1.98c2.05,0.96,2.94,3.4,1.98,5.45c-1.44,3.09-3.3,5.97-5.51,8.57
				L68.83,752.93C68.01,753.88,66.87,754.37,65.71,754.37z" class="color080717 svgShape"/><path fill="#1c1c1c" d="M30.76,685.97c-1.22,0-2.43-0.54-3.24-1.58c-1.39-1.79-1.08-4.36,0.71-5.76l143.96-112.31
				c4.79-3.73,11.04-4.71,16.75-2.63c2.13,0.78,3.22,3.13,2.44,5.26c-0.78,2.13-3.14,3.22-5.26,2.44c-3.02-1.1-6.34-0.58-8.88,1.4
				L33.27,685.11C32.53,685.69,31.64,685.97,30.76,685.97z" class="color080717 svgShape"/><path fill="#1c1c1c" d="M179.6,856.31c-15.19,0-30.58-2.33-45.67-7.18c-2.15-0.69-3.34-3-2.65-5.16c0.69-2.16,3.01-3.35,5.16-2.65
				c61.77,19.84,128.77-4.89,162.95-60.11c1.2-1.92,3.72-2.52,5.65-1.33c1.93,1.19,2.52,3.72,1.33,5.64
				C278.54,830.46,230.18,856.31,179.6,856.31z" class="color080717 svgShape"/><path fill="#1c1c1c" d="M20.12,626.46c-1.29,0-2.56-0.61-3.36-1.74c-1.31-1.85-0.86-4.41,0.99-5.71l171.58-120.8
				c4.49-3.17,10.09-4.07,15.36-2.48c5.27,1.59,9.43,5.44,11.43,10.58c0.82,2.11-0.22,4.49-2.33,5.31c-2.1,0.82-4.48-0.22-5.31-2.34
				c-1.08-2.76-3.32-4.84-6.16-5.7c-2.83-0.86-5.85-0.37-8.27,1.34L22.47,625.71C21.76,626.21,20.94,626.46,20.12,626.46z" class="color080717 svgShape"/><path fill="#1c1c1c" d="M18.39,576.63c-1.15,0-2.29-0.48-3.11-1.42c-1.48-1.71-1.29-4.3,0.43-5.78c2.76-2.38,5.77-4.53,8.95-6.4
				l61.3-36.06c1.95-1.15,4.47-0.49,5.61,1.46c1.15,1.95,0.5,4.46-1.46,5.61l-61.3,36.06c-2.75,1.62-5.36,3.49-7.75,5.55
				C20.29,576.31,19.34,576.63,18.39,576.63z" class="color080717 svgShape"/></g><g fill="#333b91" class="color000000 svgShape"><path fill="#8aa2ff" d="M998.88,944.51l-79.97-138.48l-172.29-36.41c0,0,13.96,59.06,20.8,79.97c7.46,22.81,36.41,94.92,36.41,94.92
			H998.88z" class="colorff6700 svgShape"/><path fill="#1c1c1c" d="M892.14,561.81c0.61-0.53,0.68-1.46,0.14-2.07l-19.01-21.86c-8.59-9.88-11.33-23.72-7.16-36.13
			c1.35-3.46,4.21-6.1,7.82-7.2c3.62-1.09,7.46-0.47,10.56,1.7l171.57,120.8c15.88,11.18,21.12,31.91,12.46,49.29l-11.79,23.67
			c-0.21,0.42-0.18,0.89,0.01,1.28c-2.29,4.52-3.91,7.83-3.91,8.11L903.48,575.55l-11.49-13.65
			C892.03,561.87,892.09,561.85,892.14,561.81z" class="color080717 svgShape"/><path fill="#8aa2ff" d="M890.84,568.31c0.61-0.53,0.68-1.46,0.14-2.07l-19.01-21.86c-8.59-9.88-11.33-23.72-7.16-36.13
			c1.35-3.46,4.21-6.1,7.82-7.2c3.62-1.09,7.46-0.47,10.56,1.7l171.58,120.8c15.88,11.18,21.12,31.91,12.46,49.29l-11.79,23.67
			c-0.21,0.42-0.18,0.89,0.01,1.28c-2.29,4.52-3.91,7.83-3.91,8.11L902.17,582.06l-11.49-13.65
			C890.73,568.37,890.79,568.35,890.84,568.31z" class="colorff6700 svgShape"/><path fill="#8aa2ff" d="M763.96,835.64l7.44-52.47c0.09-0.61,0.55-1.1,1.15-1.23c0.6-0.12,1.22,0.14,1.55,0.66
			c20.41,32.96,52.46,55.85,90.26,64.46c37.8,8.6,76.61,1.85,109.27-19.03c32.84-20.99,58.05-51.12,72.93-87.14l7.81-18.91
			c5.69-13.77,1.45-29.79-10.3-38.96L900.11,570.72c-2.13-1.66-4.69-2.53-7.3-2.53c-1.38,0-2.77,0.24-4.11,0.73
			c-3.88,1.42-6.71,4.68-7.56,8.73c-2.05,9.75,0.59,20.1,7.06,27.67l122.93,143.99c0.53,0.62,0.45,1.54-0.16,2.06
			c-0.61,0.53-1.54,0.46-2.07-0.16L885.98,607.23c-1.52-1.78-2.84-3.69-3.96-5.71l-60.77,48.01c-0.46,0.37-1.1,0.42-1.62,0.13
			c-0.52-0.29-0.81-0.85-0.75-1.44C818.87,648.21,734.19,756.87,763.96,835.64z" class="colorff6700 svgShape"/><path fill="#8aa2ff" d="M1005.56,346.2c-0.92-4.06-4.12-5.99-6.81-6.44c-2.69-0.47-6.34,0.32-8.53,3.85l-1.25-0.77l1.08,1.04
			c-6.66,10.8-9.8,23.37-9.06,36.37l7.87,148.25c0.02,0.32-0.09,0.6-0.25,0.85l61.11,35.95c2.17,1.28,4.2,2.72,6.15,4.22
			L1005.56,346.2z" class="colorff6700 svgShape"/><path fill="#8aa2ff" d="M871.79,498.25c4.49-1.36,9.26-0.59,13.09,2.11l171.58,120.8c6.56,4.62,11.42,10.77,14.4,17.63l1.21-3.19
			c9.67-25.46-0.35-53.97-23.82-67.78l-164.3-96.66c-3.22-1.89-7.07-2.21-10.55-0.88c-3.49,1.34-6.13,4.15-7.26,7.71
			c-2.33,7.35-3.04,14.97-2.11,22.63l0.32,2.66C866.24,500.92,868.8,499.15,871.79,498.25z" class="colorff6700 svgShape"/><path fill="#1c1c1c" d="M1010.02,754.37c-1.16,0-2.31-0.49-3.12-1.44L883.98,608.94c-2.21-2.59-4.07-5.47-5.51-8.56
				c-0.96-2.05-0.08-4.49,1.97-5.45c2.05-0.96,4.49-0.07,5.45,1.97c1.14,2.42,2.59,4.68,4.33,6.72l122.93,143.99
				c1.47,1.72,1.27,4.31-0.46,5.78C1011.92,754.05,1010.97,754.37,1010.02,754.37z" class="color080717 svgShape"/><path fill="#1c1c1c" d="M1044.97,685.97c-0.88,0-1.77-0.28-2.52-0.87L898.49,572.79c-2.53-1.98-5.86-2.5-8.88-1.4
				c-2.13,0.78-4.48-0.31-5.26-2.44c-0.78-2.13,0.32-4.48,2.44-5.26c5.71-2.09,11.96-1.1,16.75,2.63l143.96,112.31
				c1.79,1.39,2.1,3.97,0.71,5.76C1047.4,685.43,1046.19,685.97,1044.97,685.97z" class="color080717 svgShape"/><path fill="#1c1c1c" d="M896.13,856.31c-50.58,0-98.94-25.85-126.76-70.78c-1.19-1.93-0.6-4.45,1.33-5.64
				c1.93-1.19,4.45-0.6,5.65,1.33c34.19,55.22,101.2,79.94,162.95,60.11c2.17-0.7,4.47,0.5,5.16,2.65c0.69,2.16-0.5,4.46-2.65,5.16
				C926.71,853.98,911.32,856.31,896.13,856.31z" class="color080717 svgShape"/><path fill="#1c1c1c" d="M1055.61,626.46c-0.82,0-1.64-0.24-2.35-0.75l-171.58-120.8c-2.43-1.71-5.45-2.19-8.28-1.34
				c-2.84,0.86-5.08,2.93-6.16,5.7c-0.82,2.11-3.2,3.16-5.31,2.34c-2.11-0.82-3.16-3.2-2.33-5.31c1.99-5.13,6.16-8.99,11.43-10.58
				c5.25-1.59,10.86-0.69,15.36,2.48L1057.97,619c1.85,1.31,2.3,3.86,0.99,5.71C1058.17,625.85,1056.9,626.46,1055.61,626.46z" class="color080717 svgShape"/><path fill="#1c1c1c" d="M1057.34,576.63c-0.95,0-1.9-0.33-2.68-0.99c-2.4-2.07-5.01-3.94-7.76-5.55l-61.29-36.06
				c-1.95-1.15-2.6-3.66-1.46-5.61c1.15-1.95,3.66-2.61,5.61-1.46l61.29,36.06c3.16,1.86,6.17,4.01,8.95,6.4
				c1.72,1.48,1.91,4.07,0.43,5.78C1059.64,576.15,1058.49,576.63,1057.34,576.63z" class="color080717 svgShape"/></g><g fill="#333b91" class="color000000 svgShape"><path fill="#fff" d="M498.26,664.49c-0.02,0-0.03,0-0.05,0c-2.27-0.03-4.08-1.89-4.05-4.15l6.24-517.46
			c0.03-2.25,1.86-4.05,4.1-4.05c0.02,0,0.03,0,0.05,0c2.27,0.03,4.08,1.89,4.05,4.15l-6.24,517.46
			C502.33,662.69,500.5,664.49,498.26,664.49z" class="colorffffff svgShape"/></g><g fill="#333b91" class="color000000 svgShape"><path fill="#fff" d="M580.07,664.49c-0.02,0-0.03,0-0.05,0c-2.27-0.03-4.08-1.89-4.05-4.15l6.24-517.46
			c0.03-2.25,1.86-4.05,4.1-4.05c0.02,0,0.03,0,0.05,0c2.27,0.03,4.08,1.89,4.05,4.15l-6.24,517.46
			C584.14,662.69,582.31,664.49,580.07,664.49z" class="colorffffff svgShape"/></g></svg>