<svg xmlns="http://www.w3.org/2000/svg" enable-background="new 0 0 1115.11 963.79" viewBox="0 0 1115.11 963.79"><path fill="#1c1c1c" d="M429.31,293.87c-34.95-61.33-31.37-127.9-31.37-127.9c0-68.82,115.74-156.76,186.85-161.23
		C595.71,1.67,607.2,0,619.1,0c70.01,0,126.76,56.75,126.76,126.76v38.81c3.48,21.08,5.49,39.89,7.3,52.99
		c8.31,60.26,64.42,58.18,91.43,89.35c27.01,31.17-2.96,58.08,30.16,89.87c45.45,43.63,130.79,42.22,154.53,85.45
		c25.45,174.53-121.52,119-143.62,139.99c-67.12,14.46-192.76-43.09-192.76-43.09S290.22,699.65,369.24,455.44
		C382.5,414.44,462.77,352.58,429.31,293.87z" class="color080717 svgShape"/><path fill="#1c1c1c" d="M1027.46,510.96c-0.31,0-0.62-0.03-0.93-0.11c-2.2-0.51-3.58-2.71-3.06-4.92
			c13.71-59.06-49.95-74.27-106.11-87.69c-37.12-8.87-66.44-15.88-69.55-34.69c-2.83-17.11-0.82-31.76,0.95-44.67
			c2.75-20.03,4.73-34.49-10.67-49.66c-9.31-9.17-21.77-14.42-34.96-19.98c-23.7-9.99-50.56-21.32-58.67-59.19
			c-0.79-3.68-1.63-7.85-2.55-12.42c-2.06-10.21-4.62-22.93-7.88-36.39c-0.06-0.22-0.09-0.44-0.1-0.67l-2.59-36.18
			c-4.52-62.91-60.04-110.31-124.05-105.79c-10.58,0.76-21.03,2.96-31.07,6.53c-2.12,0.75-4.48-0.35-5.24-2.49
			c-0.76-2.13,0.36-4.48,2.49-5.24c10.74-3.82,21.92-6.16,33.23-6.98C675,5.48,734.67,56.36,739.51,123.79l2.57,35.84
			c3.26,13.49,5.81,26.16,7.87,36.37c0.91,4.53,1.75,8.67,2.53,12.32c7.21,33.69,29.86,43.24,53.84,53.35
			c13.33,5.62,27.1,11.42,37.53,21.69c18.34,18.06,15.76,36.79,13.04,56.62c-1.69,12.34-3.61,26.33-0.99,42.22
			c2.22,13.44,31.92,20.54,63.36,28.05c56.92,13.6,127.75,30.52,112.19,97.53C1031.01,509.68,1029.32,510.96,1027.46,510.96z" class="color080717 svgShape"/><path fill="#fff" d="M656.89,405.64l131.45,23.13c54.51,9.59,104.11,37.5,140.59,79.12l151.94,173.32
			c36.19,41.28,40.29,101.66,10.02,147.46l0,0c-17.1,25.87-43.42,44.24-73.59,51.37l-92.81,20.85l-655-123.81l103.51-235.94
			c20.35-46.39,61.12-80.68,110.31-92.78L656.89,405.64z" class="colorffffff svgShape"/><path fill="#1c1c1c" d="M924.48,904.99c-0.26,0-0.51-0.02-0.76-0.07l-655-123.81c-1.23-0.23-2.28-1.01-2.87-2.11
			c-0.58-1.1-0.63-2.42-0.13-3.56l103.51-235.94c20.72-47.23,62.99-82.79,113.08-95.12l173.59-42.71c0.56-0.14,1.13-0.16,1.69-0.06
			l131.45,23.13c55.23,9.71,106,38.29,142.97,80.46l151.94,173.32c37.3,42.54,41.55,105.22,10.35,152.42
			c-17.75,26.84-44.76,45.7-76.07,53.1l-92.86,20.86C925.09,904.96,924.78,904.99,924.48,904.99z M275.31,774l649.1,122.7
			l91.98-20.66c29.23-6.91,54.49-24.54,71.07-49.63c29.16-44.13,25.18-102.72-9.68-142.49L925.85,510.59
			c-35.74-40.77-84.82-68.39-138.22-77.78l-130.6-22.98l-172.75,42.5c-47.63,11.72-87.83,45.54-107.53,90.45L275.31,774z" class="color080717 svgShape"/><path fill="#1c1c1c" d="M509.87,622.63c-81.73,0-136.79-16.61-163.83-49.46c-23.93-29.08-24.92-70.36-2.95-122.7
			c5.55-13.22,18.14-27.81,31.47-43.25c28.29-32.77,60.35-69.91,42.09-109.35c-29.82-64.42-21.18-129.64-20.79-132.38
			c2.75-32.53,30.86-69.62,77.1-101.55c42.97-29.68,91.62-47.69,126.85-46.87c2.27,0.05,4.06,1.93,4.01,4.19
			c-0.05,2.26-1.95,4.05-4.19,4.01c-33.12-0.8-81.01,17.1-122.02,45.42c-43.56,30.08-71.08,65.86-73.61,95.7
			c-0.11,0.87-8.68,65.87,20.09,128.03c20.48,44.25-14.9,85.23-43.32,118.16c-12.9,14.94-25.08,29.05-30.12,41.07
			c-20.7,49.31-20.13,87.77,1.72,114.31c65.98,80.15,303.25,32.15,305.64,31.65c2.17-0.45,4.38,0.97,4.84,3.19
			c0.46,2.21-0.97,4.38-3.19,4.84c-0.6,0.12-61.47,12.58-129.91,14.67C522.96,622.53,516.33,622.63,509.87,622.63z" class="color080717 svgShape"/><path fill="#fff" d="M735.63,420.19l-45.05-163.02l-151.83,41.96l34.01,123.08c-24.87,5-47.36,12.05-66.38,20.73
			c14.16,70.28,68.31,122.62,132.99,122.62c68.9,0,125.86-59.37,135.25-136.56C762.38,425.5,749.32,422.55,735.63,420.19z" class="colorffffff svgShape"/><path fill="#1c1c1c" d="M639.37,569.43c-65.62,0-121.86-51.7-136.78-125.72c-0.35-1.76,0.55-3.53,2.18-4.27
			c18.44-8.41,39.67-15.19,63.17-20.17l-32.92-119.1c-0.27-0.99-0.14-2.04,0.36-2.93c0.5-0.89,1.34-1.55,2.33-1.82l151.83-41.96
			c2.05-0.55,4.18,0.64,4.75,2.69l44.4,160.66c12.93,2.3,25.37,5.16,36.99,8.5c1.82,0.52,3,2.29,2.76,4.17
			C768.74,509.27,708.95,569.43,639.37,569.43z M510.8,445.2c15.06,68.76,67.56,116.51,128.57,116.51
			c64.74,0,120.55-55.6,130.99-129.88c-11.16-3.08-23.04-5.71-35.39-7.83c-1.47-0.26-2.67-1.34-3.07-2.78l-44.02-159.3l-144.4,39.91
			l32.99,119.36c0.28,1.03,0.13,2.14-0.43,3.05c-0.56,0.91-1.48,1.55-2.53,1.76C550.19,430.69,529.1,437.15,510.8,445.2z" class="color080717 svgShape"/><path fill="#1c1c1c" d="M568,405l-29.25-105.86l96.44-26.65l40.8,27.69C663.21,347.34,625.46,385.49,568,405z" class="color080717 svgShape"/><path fill="#fff" d="M600.79,365.33L600.79,365.33c54.06-13.03,92.6-60.79,93.9-116.38l1.3-55.55c0-63.73-51.67-115.4-115.4-115.4
		h-22.72c-63.73,0-115.4,51.67-115.4,115.4l7.73,66.8C458.68,333.33,529.21,382.58,600.79,365.33z" class="colorffffff svgShape"/><path fill="#1c1c1c" d="M578.25,19.07L578.25,19.07c75.94,0,137.5,59.35,137.5,132.55v27.32c-53.36,33.87-125.8,28.19-172.74-17.07
		l-60.85-58.66c-7.53-7.26-13.96-15.17-19.38-23.51C487.27,43.23,529.82,19.07,578.25,19.07z" class="color080717 svgShape"/><path fill="#fff" d="M659.28,228.71l6.29,2.82c17.64,7.9,38.35,0,46.24-17.64l5.36-11.98c7.9-17.64,0-38.35-17.64-46.24l-6.29-2.81
		c-17.64-7.9-38.35,0-46.24,17.64l-5.36,11.98C633.74,200.11,641.64,220.81,659.28,228.71z" class="colorffffff svgShape"/><path fill="#1c1c1c" d="M454.51,261.03c3.21,8.91,10.41,14.47,16.07,12.43c5.67-2.04,7.66-10.92,4.45-19.83
		c-3.21-8.91-10.41-14.47-16.08-12.43C453.3,243.25,451.3,252.13,454.51,261.03z" class="color080717 svgShape"/><path fill="#1c1c1c" d="M419.99,245.12c-0.7,0-1.42-0.18-2.07-0.56c-1.95-1.15-2.6-3.66-1.46-5.61
			c16.55-28.12,53.61-29.03,55.18-29.06c2.21-0.15,4.12,1.77,4.16,4.03c0.04,2.26-1.76,4.13-4.02,4.17
			c-0.34,0-34.06,0.91-48.25,25.01C422.77,244.4,421.4,245.12,419.99,245.12z" class="color080717 svgShape"/><path fill="#1c1c1c" d="M539.69,247.29c3.21,8.91,10.41,14.47,16.07,12.43c5.67-2.04,7.66-10.92,4.45-19.83
		c-3.21-8.91-10.41-14.47-16.07-12.43C538.47,229.51,536.48,238.39,539.69,247.29z" class="color080717 svgShape"/><path fill="#1c1c1c" d="M509.09,215.45c-0.93,0-1.86-0.32-2.63-0.96c-1.73-1.46-1.96-4.04-0.51-5.78
			c20.96-24.99,57.67-19.77,59.22-19.55c2.24,0.34,3.78,2.43,3.44,4.66c-0.34,2.24-2.41,3.77-4.66,3.45
			c-0.32-0.05-33.74-4.73-51.71,16.71C511.42,214.95,510.26,215.45,509.09,215.45z" class="color080717 svgShape"/><path fill="#1c1c1c" d="M511.17,318.42c-5.97,0-13.26-1.04-17.66-5.37c-2.24-2.21-4.68-6.22-3.58-12.8
			c2.36-14.04,3.28-58.21,3.29-58.65c0.05-2.26,2.06-4.04,4.18-4.02c2.26,0.05,4.06,1.92,4.02,4.18c-0.04,1.84-0.95,45.22-3.4,59.85
			c-0.56,3.36,0.44,4.8,1.24,5.59c3.73,3.68,14.29,3.37,20.07,2.32c2.22-0.43,4.36,1.07,4.77,3.3c0.41,2.22-1.07,4.36-3.29,4.77
			C519.94,317.74,515.98,318.42,511.17,318.42z" class="color080717 svgShape"/><path fill="#1c1c1c" d="M535.08,340.87c-2.15,0-3.95-1.67-4.09-3.84c-0.14-2.26,1.58-4.21,3.84-4.35
			c22.56-1.41,35.72-19.88,35.85-20.07c1.3-1.85,3.84-2.31,5.71-1.02c1.86,1.29,2.32,3.84,1.03,5.7
			c-0.62,0.89-15.46,21.91-42.08,23.58C535.25,340.86,535.16,340.87,535.08,340.87z" class="color080717 svgShape"/><path fill="#1c1c1c" d="M668.48,210.83c-2.13,0-3.94-1.65-4.08-3.81c-2.26-32.18,18.26-41.11,19.14-41.48
			c2.09-0.87,4.49,0.12,5.36,2.21c0.87,2.08-0.11,4.47-2.18,5.35c-0.71,0.31-15.96,7.34-14.14,33.34c0.16,2.26-1.54,4.22-3.8,4.38
			C668.67,210.83,668.58,210.83,668.48,210.83z" class="color080717 svgShape"/><polygon fill="#fff" points="676.86 523.46 679.86 499.5 646.91 460.56 242.52 550.42 212.57 382.68 173.63 394.66 215.57 535.45 110.73 418.62 23.86 469.55 206.58 655.26" class="colorffffff svgShape"/><path fill="#1c1c1c" d="M206.58,659.12c-1.02,0-2.01-0.41-2.75-1.15L21.11,472.25c-0.83-0.85-1.23-2.03-1.07-3.21
				c0.16-1.18,0.85-2.22,1.87-2.82l86.87-50.92c1.58-0.92,3.6-0.61,4.82,0.75l93.37,104.04l-37.03-124.33
				c-0.6-2.03,0.54-4.16,2.56-4.79l38.94-11.98c1.05-0.31,2.2-0.18,3.14,0.39c0.94,0.58,1.59,1.53,1.79,2.62l29.24,163.78
				l400.46-88.99c1.4-0.3,2.86,0.18,3.78,1.28l32.95,38.94c0.7,0.82,1.01,1.9,0.88,2.97l-2.99,23.97c-0.19,1.54-1.29,2.82-2.79,3.24
				l-470.28,131.8C207.28,659.08,206.93,659.12,206.58,659.12z M30.08,470.37l177.65,180.57l465.62-130.49l2.47-19.74l-30.35-35.87
				l-402.11,89.36c-1.03,0.22-2.1,0.03-2.98-0.56c-0.88-0.58-1.47-1.5-1.66-2.53l-29.18-163.45l-31.12,9.57l40.84,137.12
				c0.52,1.73-0.24,3.58-1.81,4.47c-1.57,0.87-3.55,0.55-4.76-0.79L109.96,423.55L30.08,470.37z M676.86,523.47h0.04H676.86z" class="color080717 svgShape"/><polygon fill="#8aa2ff" points="11.88 445.58 167.64 565.4 275.47 577.38 700.83 493.51 649.9 864.94 263.49 963.79 179.62 942.82 68.79 831.99" class="colorff6700 svgShape"/><path fill="#fff" d="M179.62,946.93c-2.17,0-3.98-1.7-4.09-3.88l-17.97-341.48c-0.12-2.26,1.62-4.19,3.88-4.31
				c2.26-0.14,4.19,1.62,4.31,3.88l17.97,341.48c0.12,2.26-1.62,4.19-3.88,4.31C179.76,946.93,179.69,946.93,179.62,946.93z" class="colorffffff svgShape"/><path fill="#fff" d="M269.48,925.96c-0.02,0-0.05,0-0.07,0c-2.26-0.04-4.07-1.91-4.03-4.17l5.99-344.47
				c0.04-2.24,1.87-4.03,4.1-4.03c0.02,0,0.05,0,0.07,0c2.26,0.04,4.07,1.91,4.03,4.17l-5.99,344.47
				C273.54,924.17,271.72,925.96,269.48,925.96z" class="colorffffff svgShape"/><path fill="#fff" d="M387.29,675.55c-1.91,0-3.62-1.34-4.02-3.29c-0.45-2.22,0.99-4.38,3.21-4.83l191.54-38.65
				c2.27-0.44,4.39,0.99,4.83,3.21c0.45,2.22-0.99,4.38-3.21,4.83l-191.54,38.65C387.83,675.53,387.56,675.55,387.29,675.55z" class="colorffffff svgShape"/><path fill="#fff" d="M413.72,698.84c-1.91,0-3.62-1.34-4.02-3.29c-0.45-2.22,0.99-4.38,3.21-4.83l138.69-27.99
				c2.26-0.44,4.39,0.99,4.83,3.21c0.45,2.22-0.99,4.38-3.21,4.83l-138.69,27.99C414.26,698.82,413.99,698.84,413.72,698.84z" class="colorffffff svgShape"/><g fill="#ecedff" class="color000000 svgShape"><path fill="#1c1c1c" d="M242.52,554.28c-0.35,0-0.7-0.05-1.06-0.15c-2.05-0.58-3.24-2.72-2.65-4.77
				c17.57-61.48,8.94-165.31,8.85-166.35c-0.18-2.12,1.39-3.99,3.52-4.17c2.21-0.14,3.99,1.39,4.17,3.52
				c0.37,4.31,8.84,106.27-9.13,169.13C245.75,553.18,244.2,554.28,242.52,554.28z" class="color080717 svgShape"/></g><g fill="#ecedff" class="color000000 svgShape"><path fill="#fff" d="M932.47,739.14L754.3,825.35l5.44-192.15L652.86,527.92c-5.7-5.61-15.35-1.73-15.57,6.26v0
				c-13,13.55-12.86,34.99,0.33,48.36l8.22,8.35l-17.87-11.67c-7.22-4.42-16.67-2.07-20.99,5.21c-9.58,16.15-4.57,36.99,11.3,47.03
				l65.4,43.42l-0.15,0.48l-57.69-30.61c-7.59-3.75-16.78-0.56-20.43,7.08c-8.08,16.95-1.21,37.26,15.5,45.81l47.3,25.57
				l-19.3,141.72c0,0,55.97,82.26,135.79,65.9l169.74-35.95L932.47,739.14z" class="colorffffff svgShape"/><path fill="#1c1c1c" d="M763.89,937.07c-69.99,0-117.86-69.05-118.38-69.82c-0.57-0.84-0.81-1.86-0.67-2.86l18.92-138.91
				l-44.81-24.22c-18.74-9.6-26.36-32.1-17.25-51.19c2.23-4.69,6.17-8.21,11.08-9.92c3.3-1.15,6.77-1.38,10.1-0.7l-6.88-4.57
				c-17.8-11.25-23.35-34.35-12.56-52.54c2.65-4.47,6.9-7.62,11.94-8.88c3.88-0.96,7.87-0.71,11.52,0.69
				c-6.2-13.61-4.07-29.96,6.42-41.73c0.69-4.63,3.71-8.48,8.16-10.28c4.97-1.99,10.43-0.9,14.25,2.86l106.89,105.28
				c0.81,0.8,1.25,1.9,1.22,3.04l-5.26,185.4l172.1-83.28c2.05-0.98,4.5-0.12,5.48,1.91c0.98,2.04,0.13,4.49-1.91,5.48
				l-178.17,86.22c-1.29,0.62-2.81,0.53-4.01-0.25c-1.21-0.78-1.91-2.13-1.87-3.56l5.4-190.36L649.98,530.85
				c-2.18-2.16-4.71-1.38-5.43-1.09c-0.72,0.29-3.08,1.47-3.16,4.54c-0.03,1.02-0.44,1.99-1.14,2.72
				c-11.55,12.04-11.42,30.77,0.28,42.65l8.22,8.34c1.47,1.49,1.58,3.85,0.26,5.47c-1.32,1.62-3.66,1.99-5.42,0.84l-17.87-11.67
				c-2.45-1.49-5.45-1.95-8.35-1.23c-2.9,0.72-5.34,2.53-6.86,5.1c-8.52,14.34-4.14,32.56,9.96,41.47l65.48,43.47
				c1.53,1.02,2.2,2.93,1.64,4.67l-0.16,0.48c-0.37,1.15-1.24,2.09-2.36,2.54c-1.12,0.46-2.39,0.39-3.46-0.18l-57.69-30.61
				c-2.58-1.27-5.61-1.46-8.44-0.48c-2.82,0.98-5.09,3-6.37,5.7c-7.18,15.05-1.17,32.8,13.67,40.4l47.39,25.61
				c1.5,0.81,2.34,2.47,2.11,4.16l-19.08,140.11c7.4,10.09,59.83,77.45,130.68,62.95l169.72-35.94c2.22-0.47,4.39,0.95,4.86,3.16
				c0.47,2.21-0.95,4.39-3.16,4.86l-169.74,35.95C778.13,936.38,770.9,937.07,763.89,937.07z" class="color080717 svgShape"/><path fill="#1c1c1c" d="M759.07,661.18c-0.72,0-1.44-0.19-2.1-0.58l-111.89-66.89c-1.95-1.16-2.58-3.68-1.42-5.62
				c1.17-1.95,3.69-2.57,5.62-1.42l111.89,66.89c1.95,1.16,2.58,3.68,1.42,5.62C761.82,660.47,760.46,661.18,759.07,661.18z" class="color080717 svgShape"/><path fill="#1c1c1c" d="M757.49,716.89c-0.64,0-1.29-0.15-1.9-0.47l-80.31-42.18c-2.01-1.05-2.78-3.53-1.73-5.54
				c1.06-2,3.54-2.77,5.54-1.73l80.31,42.18c2.01,1.05,2.78,3.53,1.73,5.54C760.39,716.1,758.96,716.89,757.49,716.89z" class="color080717 svgShape"/><path fill="#1c1c1c" d="M704.25,748.39c-0.67,0-1.35-0.16-1.98-0.51l-34.73-19.19c-1.98-1.09-2.7-3.59-1.61-5.57
				c1.1-1.98,3.58-2.7,5.57-1.61l34.73,19.19c1.98,1.09,2.7,3.59,1.61,5.57C707.1,747.62,705.7,748.39,704.25,748.39z" class="color080717 svgShape"/><g class="color000000 svgShape"><path fill="#1c1c1c" d="M753.37,862.42c-0.04,0-0.08,0-0.12,0c-2.26-0.06-4.05-1.95-3.98-4.22l0.93-32.97
				c0.06-2.26,2.02-4.03,4.22-3.98c2.26,0.06,4.05,1.95,3.98,4.22l-0.93,32.97C757.41,860.66,755.58,862.42,753.37,862.42z" class="color080717 svgShape"/></g></g><g fill="#ecedff" class="color000000 svgShape"><path fill="#1c1c1c" d="M882.55,765.2c-1.52,0-2.98-0.85-3.69-2.3l-45.93-93.86c-0.99-2.03-0.15-4.49,1.88-5.49
			c2.04-1,4.49-0.15,5.49,1.88l45.93,93.86c0.99,2.03,0.15,4.49-1.88,5.49C883.77,765.07,883.16,765.2,882.55,765.2z" class="color080717 svgShape"/></g><g fill="#ecedff" class="color000000 svgShape"><path fill="#1c1c1c" d="M898.53,908.98c-0.38,0-0.76-0.05-1.14-0.16c-2.18-0.63-3.43-2.9-2.79-5.08c10.45-36-1.81-74.26-31.23-97.49
			l-25.29-19.96c-1.78-1.41-2.08-3.98-0.68-5.76c1.41-1.77,3.99-2.08,5.76-0.68l25.29,19.96c32.05,25.3,45.4,66.99,34.02,106.21
			C901.94,907.82,900.3,908.98,898.53,908.98z" class="color080717 svgShape"/></g><g fill="#ecedff" class="color000000 svgShape"><path fill="#fff" d="M42,657.53l-16.7,5.82l-4.91,31.98c-1.6,10.43,8.52,18.78,18.46,15.23h0
					c17.82-5.92,27.69-24.95,22.27-42.93C58.67,659.52,50.07,654.97,42,657.53z" class="colorffffff svgShape"/><path fill="#1c1c1c" d="M34.12,715.5c-4.09,0-8.12-1.42-11.43-4.15c-4.94-4.08-7.32-10.3-6.35-16.64l4.91-31.98
					c0.23-1.5,1.27-2.75,2.7-3.25l16.7-5.82c0.04-0.01,0.08-0.02,0.11-0.04c4.95-1.57,10.22-1.1,14.82,1.34
					c4.6,2.43,7.96,6.51,9.46,11.49c6.11,20.25-4.83,41.34-24.9,48.01C38.17,715.15,36.14,715.5,34.12,715.5z M28.98,666.41
					l-4.54,29.54c-0.53,3.46,0.77,6.85,3.46,9.07c2.69,2.23,6.28,2.86,9.56,1.67c15.92-5.29,24.54-21.92,19.73-37.89
					c-0.86-2.86-2.79-5.21-5.44-6.61c-2.63-1.39-5.63-1.66-8.47-0.78L28.98,666.41z" class="color080717 svgShape"/></g><g fill="#ecedff" class="color000000 svgShape"><path fill="#fff" d="M33.97,604.21l-16.7,5.82l-4.91,31.98c-1.6,10.43,8.52,18.78,18.46,15.23l0,0
					c17.82-5.92,27.69-24.95,22.27-42.93C50.64,606.2,42.04,601.66,33.97,604.21z" class="colorffffff svgShape"/><path fill="#1c1c1c" d="M26.08,662.18c-4.09,0-8.12-1.42-11.44-4.15c-4.95-4.08-7.32-10.3-6.34-16.64l4.91-31.98
					c0.23-1.5,1.27-2.75,2.7-3.25l16.7-5.82c0.04-0.01,0.08-0.02,0.11-0.04c4.97-1.57,10.22-1.09,14.82,1.34
					c4.6,2.43,7.96,6.51,9.45,11.49c6.11,20.25-4.83,41.34-24.9,48.01C30.14,661.83,28.11,662.18,26.08,662.18z M20.95,613.09
					l-4.54,29.54c-0.53,3.46,0.76,6.85,3.46,9.07c2.69,2.22,6.27,2.86,9.56,1.67c15.92-5.29,24.54-21.92,19.73-37.89
					c-0.87-2.86-2.8-5.21-5.44-6.61c-2.62-1.39-5.63-1.66-8.47-0.79L20.95,613.09z" class="color080717 svgShape"/></g><g fill="#ecedff" class="color000000 svgShape"><path fill="#fff" d="M25.93,550.89l-5.2-22.06l-6.77,9.78c-6.56,9.47-10,20.74-9.86,32.26l0.22,17.83
					c-1.6,10.43,8.52,18.78,18.46,15.23l0,0c17.82-5.92,27.69-24.95,22.27-42.93C42.61,552.89,34.01,548.34,25.93,550.89z" class="colorffffff svgShape"/><path fill="#1c1c1c" d="M18.05,608.87c-4.09,0-8.12-1.42-11.44-4.15c-4.85-4-7.23-10.07-6.39-16.29L0,570.92
					c-0.15-12.45,3.51-24.43,10.59-34.64l6.77-9.78c0.92-1.33,2.53-1.99,4.14-1.69c1.59,0.3,2.86,1.51,3.23,3.09l4.29,18.25
					c3.6-0.29,7.22,0.46,10.5,2.19c4.59,2.43,7.95,6.51,9.45,11.49c6.11,20.25-4.83,41.34-24.9,48.01
					C22.11,608.52,20.07,608.87,18.05,608.87z M18.86,538.75l-1.52,2.2c-6.11,8.81-9.27,19.14-9.13,29.88l0.22,17.82
					c0,0.23-0.01,0.45-0.05,0.67c-0.53,3.46,0.76,6.85,3.46,9.07c2.69,2.23,6.27,2.86,9.56,1.67c15.92-5.29,24.54-21.92,19.73-37.89
					c-0.87-2.86-2.8-5.21-5.43-6.6c-2.65-1.4-5.67-1.67-8.53-0.77c-1.08,0.34-2.27,0.22-3.26-0.34c-0.99-0.56-1.7-1.51-1.97-2.62
					L18.86,538.75z" class="color080717 svgShape"/></g></svg>