<svg xmlns="http://www.w3.org/2000/svg" enable-background="new 0 0 700 700" viewBox="0 0 700 700"><path fill="#d7e6fe" d="M494.0975037,362.414032l-8.0130615,11.8826294         c-0.7384644,1.0950928-1.9729309,1.7515564-3.2937927,1.7515564h-28.3816223         c-1.3208313,0-2.5552979-0.6564636-3.2937927-1.7515564l-8.0130615-11.8826294H494.0975037z" class="colorcad5ff svgShape"/><path fill="#fff" d="M523.4931641,270.8596497c-6.9453125,5.447052-12.467804,12.3365173-16.2306519,20.0870667         c-2.1341553,4.3245544-3.7253418,8.8922424-4.6988525,13.6473389h-67.9554443         c-2.8455505-13.4042053-10.5209351-25.460083-21.4725037-34.1841431         c-20.5176086-16.3429718-33.640686-41.4849548-33.640686-69.7339172         c0-51.5984039,43.620697-92.4436264,95.3435669-88.9407272         c44.7794495,3.0512238,80.7228088,39.8935318,82.7633972,84.7103348         C559.0060425,226.6598511,545.3587036,253.7296448,523.4931641,270.8596497z" class="colorffffff svgShape"/><path d="M502.5636292,304.9440613h-67.9555664c-0.1655273,0-0.3081055-0.1156006-0.3422852-0.2773438         c-2.796875-13.175415-10.378418-25.2441406-21.3481445-33.9830322         c-21.4628906-17.0959473-33.7724609-42.612793-33.7724609-70.0076904         c0-52.2563934,44.4121094-92.7641144,95.7167969-89.2899094         c44.9120178,3.0603485,81.0386658,39.9984512,83.0898132,85.0436935         c1.3442383,28.9268799-11.4570313,56.854248-34.2426758,74.7053223v-0.0001221         c-6.8022461,5.3352051-12.3808289,12.2388916-16.1318054,19.9645996         c-2.1479492,4.3526611-3.71875,8.9158936-4.6708984,13.5646973         C502.8731995,304.8271179,502.7296448,304.9440613,502.5636292,304.9440613z M434.8907776,304.2441101h67.3881836         c0.96875-4.6107178,2.5395508-9.1352539,4.6694336-13.4522705c3.7963867-7.8188477,9.4433289-14.807251,16.329071-20.2076416         v-0.0001221c22.6074219-17.7116699,35.3085938-45.4208984,33.9750977-74.1221924         c-2.0170898-44.3022461-38.2280273-81.3649826-82.4379578-84.3773117         c-50.813446-3.4419937-94.9692383,36.656929-94.9692383,88.591423c0,27.180542,12.2133789,52.4978027,33.5087891,69.460083         C424.3731995,278.9143982,432.0133362,291.0186462,434.8907776,304.2441101z" class="color000000 svgShape"/><path fill="#fff" d="M513.7600708,312.3155212v42.3596191c0,4.2740784-3.4648438,7.7388916-7.7389221,7.7388916h-74.8426208         c-4.2740479,0-7.7388916-3.4648132-7.7388916-7.7388916v-42.3596191c0-4.2740784,3.4648438-7.7388916,7.7388916-7.7388916         h74.8426208C510.2952271,304.5766296,513.7600708,308.0414429,513.7600708,312.3155212z" class="colorffffff svgShape"/><path d="M506.0211487,362.7640076h-74.8427734c-4.4599609,0-8.0888672-3.6286621-8.0888672-8.0888672v-42.3596191         c0-4.4602051,3.6289063-8.0888672,8.0888672-8.0888672h74.8427734c4.4599609,0,8.0888367,3.6286621,8.0888367,8.0888672         v42.3596191C514.1099854,359.1353455,510.4811096,362.7640076,506.0211487,362.7640076z M431.1783752,304.9266052         c-4.0742188,0-7.3886719,3.3146973-7.3886719,7.388916v42.3596191c0,4.0742188,3.3144531,7.388916,7.3886719,7.388916         h74.8427734c4.0742188,0,7.3886414-3.3146973,7.3886414-7.388916v-42.3596191         c0-4.0742188-3.3144226-7.388916-7.3886414-7.388916H431.1783752z" class="color000000 svgShape"/><path d="M513.2462158,319.6636658h-89.8066101c-0.1933594,0-0.3500977-0.1567383-0.3500977-0.3499756          s0.1567383-0.3499756,0.3500977-0.3499756h89.8066101c0.1933594,0,0.3500977,0.1567383,0.3500977,0.3499756          S513.4395752,319.6636658,513.2462158,319.6636658z" class="color000000 svgShape"/><path d="M513.2462158,332.8511658h-89.8066101c-0.1933594,0-0.3500977-0.1567383-0.3500977-0.3499756          s0.1567383-0.3499756,0.3500977-0.3499756h89.8066101c0.1933594,0,0.3500977,0.1567383,0.3500977,0.3499756          S513.4395752,332.8511658,513.2462158,332.8511658z" class="color000000 svgShape"/><path d="M513.2462158,346.0386658h-89.8066101c-0.1933594,0-0.3500977-0.1567383-0.3500977-0.3499756          s0.1567383-0.3499756,0.3500977-0.3499756h89.8066101c0.1933594,0,0.3500977,0.1567383,0.3500977,0.3499756          S513.4395752,346.0386658,513.2462158,346.0386658z" class="color000000 svgShape"/><path fill="#d7e6fe" d="M528.965271,210.5282593c-3.1501465-0.4112091-6.1578369-1.5829926-8.0257568-4.0834656         c-1.2505493-1.6943054-1.8204956-3.7835693-2.8019409-5.6517792c-0.9655762-1.8674316-2.6435547-3.640564-4.7489624-3.703949         c-1.677948-0.063385-3.2451172,1.0287933-4.1948547,2.4216309c-1.3513489,1.9503326-1.677124,4.0912476-3.6567078,11.0175629         c-0.4115906,1.5203705-0.870636,3.0871277-1.8837585,4.2743835         c-1.0289917,1.2034607-2.8019409,1.8998871-4.2108154,1.2189331         c3.3243408,8.4846039,1.7887878,18.6952057-3.9099426,25.8032074         c-2.0262756,2.5483856-4.6381531,4.7489624-7.788269,5.587616c-3.1343994,0.8231812-6.8385315,0.0162201-8.8331299-2.5329437         c-1.6146851-2.0575867-1.9154358-4.8278198-2.0895386-7.4403687         c-0.4274597-6.5530243-0.5857239-13.4554138-0.3166199-20.0084381         c0.8231812-1.0921783,0.1266479-2.754776-1.0289001-3.4666595c-1.1556396-0.7126465-2.5961304-0.7281189-3.9417114-0.7914886         c-3.7200012-0.1584625-7.5349731-0.7281189-10.7009583-2.6751709         c-3.1659851-1.9315796-5.5563049-5.5095367-5.1922302-9.1972656         c0.3324585-3.5145721,2.9127197-6.3002625,5.1130066-9.0550385c2.2003784-2.7385406,4.2424011-6.2052002,3.2767944-9.5930176         c-0.3957214-1.3766174-1.282196-2.7539978-0.9180603-4.1313934c0.6489868-2.4224091,4.495636-2.7856903,5.1447144-5.2080994         c0.9021606-3.3894958-5.7134399-6.3878326,1.8679199-10.4633484         c2.7227173-1.5041504,5.4612427-2.9920654,8.1998901-4.4799805c1.3296509-0.7281189,2.6752625-1.4562378,4.1157227-1.8999023         c5.8887939-1.820282,12.2207642,1.3936157,18.3469238,0.6330414c2.5010376-0.3161316,4.9863586-1.4083099,6.711853-3.2131348         C523.8825684,167.4590912,532.3189697,188.6172028,528.965271,210.5282593z" class="colorcad5ff svgShape"/><path fill="#fff" d="M501.6526794,186.4464569c-0.521698,1.133316-1.7608948,1.7774048-2.9919434,1.8996124         c-2.8814697,0.2495117-5.2771301-1.9618225-7.3373108-1.0107117         c-0.5869446,0.2607422-1.0435486,0.7826233-1.6386719,1.0839691c-1.4430237,0.7256775-3.269165-0.105896-4.2800903-1.3773499         c-0.6847839-0.8399353-1.1168823-1.826355-1.7283325-2.714859c-0.6114502-0.8889008-1.4592285-1.6958008-2.5272827-1.8669739         c-1.0598755-0.1711731-2.1034241,0.3339844-3.0245667,0.9048309         c-0.9050293,0.5787964-1.8179932,1.2391968-2.8778687,1.4266968         c-1.0598755,0.1954498-2.3479614-0.2770691-2.6250916-1.320816         c-0.1956787-0.6440887,0.1548462-1.2308502,0.4320984-1.8669586c0.6190491-1.4204559,1.02005-1.9366302,3.2528687-2.9919281         c1.6386719-0.7826233,3.2935486-1.5735931,5.0708618-1.8669739c1.7935181-0.2933807,3.7501526-0.0163269,5.1442261,1.133316         c1.1482544,0.9594879,2.1071777,2.8940582,3.8642883,3.0814972c1.0761108,0.1062775,2.0544739-0.5704498,3.0653687-0.9537964         c3.0768433-1.2206726,6.7236633,0.1932983,8.0792236,3.4322052         C501.9299316,184.392395,502.0766296,185.5090027,501.6526794,186.4464569z" class="colorffffff svgShape"/><path fill="#d7e6fe" d="M422.6471252,203.9627991c-0.5434875,1.0828247-0.3167419,2.375412-0.0776062,3.5631409         c1.5228271,7.5637512,1.822052,9.4445801,2.7583008,11.6847229c1.1800537,2.8235931,3.1795044,5.2461853,4.355896,8.0713043         c1.9953613,4.7919006,1.4805908,10.3731689,3.9589844,14.9756165         c1.2287903,2.2818604,3.2990417,4.2434998,5.8434143,4.7364349c2.0403137,0.3952789,4.2526245-0.2297668,5.7844238-1.6343079         c1.5317993-1.4045258,2.3459167-3.5544586,2.1286621-5.6213226         c-0.1818237-1.7295837-1.0361938-3.4232025-0.7173157-5.1328278         c0.3212891-1.7224121,1.7394104-2.9875946,2.7164001-4.4420166c2.9289551-4.3602142,1.8843384-10.496109-2.645752-14.0139465         c-1.6217957-1.2594147-3.5750427-2.0911407-5.0197144-3.550354         c-3.3325806-3.3661041-3.1496582-9.3818054-10.6982727-10.0617065         C428.5423584,202.3130646,424.0554504,201.1568756,422.6471252,203.9627991z" class="colorcad5ff svgShape"/><path fill="#d7e6fe" d="M463.2695007,154.4875946c-2.0374451,2.0450439-5.7123413,1.874649-7.52005,4.1194         c-0.9187012,1.1261597-1.1706848,2.6303711-1.9115601,3.8600006c-0.9187012,1.4597168-2.563446,2.437561-4.2897034,2.5337982         c-1.7262268,0.0817566-3.4674072-0.7112274-4.526825-2.0891876c-1.0298462-1.3482971-1.3928833-3.1191254-2.437561-4.4305115         c-1.0594177-1.3338165-3.4673157-1.8818817-4.2897949-0.4149475         c-1.1261597,1.9781342,1.9782104,3.9562531,1.9115601,6.2234192         c-0.0444946,1.1854858-0.9928589,2.1857605-2.0893555,2.6303711         c-1.0890808,0.4594421-2.3114929,0.4739075-3.4969788,0.488739c2.3708191,0.726059,4.1786194,2.9932251,4.3712769,5.4604492         c0.1852112,2.4672241-1.2373352,4.9861908-3.4674072,6.0754547         c-3.9871216,1.9726868-8.2965393-0.716217-13.2692871,7.3644104         c-1.4225464,2.2819977-2.5116272,4.7636871-3.2599487,7.3568115         c-0.6445618,2.2523346-1.3780212,4.9865265-3.6229553,5.6532593         c-1.2965393,0.400116-2.7412415-0.1262512-3.7859497-0.9782104c-1.0298462-0.8740082-1.7558899-2.0595093-2.452301-3.2301788         c-0.3778381-0.651886-0.7631226-1.2965546-1.1261597-1.9632874         c2.2004395-17.1294708,11.4986267-32.0214386,24.84198-41.6678467         c1.244751-0.0148315,2.4968262-0.1034698,3.7341309-0.3407898c3.6229553-0.7184601,6.9495544-2.5041199,10.4168701-3.815506         c3.9267578-1.4890137,8.0535583-1.9484558,12.1433105-0.9188843         c2.0374451,0.5187683,4.1785278,0.9188843,5.0601501,3.0822296         C464.8698425,151.1387482,464.5364075,153.228302,463.2695007,154.4875946z" class="colorcad5ff svgShape"/><path d="M468.5899963,262.4683533c-36.8375244,0-65.6890869-32.4241486-60.9282227-69.3653564          c2.1469727-16.7131348,11.2514648-31.9865723,24.9790039-41.9036865          c10.4956055-7.6030273,22.9267578-11.6218262,35.9492188-11.6218262          c14.2568359,0,28.1542969,4.9868164,39.1328125,14.041748          c14.1855164,11.7498779,22.3207703,29.0303955,22.3207703,47.4111328          C530.0435791,235.1352997,502.3428345,262.4683533,468.5899963,262.4683533z M468.5899963,140.2774353          c-12.8740234,0-25.1630859,3.9729004-35.5390625,11.4890137          c-13.5717773,9.8045654-22.5722656,24.9036865-24.6948242,41.4259033          c-4.7092896,36.5536499,23.8487244,68.5760498,60.2338867,68.5760498          c33.8591309,0,60.7533875-27.094635,60.7533875-60.7380371          C529.3433838,167.3141785,502.0224609,140.2774353,468.5899963,140.2774353z" class="color000000 svgShape"/><path d="M434.9645081,518.1279297c-23.394043-1.5727539-42.2265625-14.8867493-50.3774414-35.6147766         c-0.0708008-0.1798096,0.0175781-0.3830566,0.1977539-0.4537354c0.1787109-0.071167,0.3828125,0.0178223,0.4536133,0.1976318         c8.0493164,20.4697266,26.6557617,33.6183167,49.7729492,35.1723938         c23.5678711,1.5855713,37.3398438-6.8119202,44.7436523-14.1341858         c9.0400391-8.9400635,11.8422852-19.3416748,11.4951172-25.5323486         c-0.1640625-2.9256592-0.9853516-5.7531738-2.3823242-8.3503418         c-0.8632813,1.4036865-1.9213867,2.7840576-3.1728516,4.1379395         c-11.9912109,12.9753418-19.1245117,12.8198242-26.1445313,8.5906982         c-4.4736328-2.6951904-7.15625-8.1685791-6.6748047-13.619873c0.4594727-5.203125,3.6704102-9.3170166,8.809082-11.2868652         c9.0987244-3.48703,21.502594,1.4960022,27.184082,10.7747803c1.5761719-2.9185791,2.2910156-5.9277344,2.1308594-8.9953613         c-0.3364258-6.4654541-4.4716797-13.2253418-12.2900391-20.0919189         c-27.0722656-23.7751465-11.2900391-60.9307861-11.1274414-61.3033447         c0.0771484-0.1773682,0.2827148-0.2576904,0.4609375-0.1807861c0.1767578,0.0772705,0.2578125,0.2835693,0.1806641,0.4606934         c-0.1606445,0.3679199-15.7363281,37.0629883,10.9477539,60.4975586         c7.9658203,6.9957275,12.1801758,13.9202881,12.5273438,20.5814209         c0.1733398,3.3311768-0.6376953,6.588501-2.4174805,9.7341309c1.5683594,2.7861328,2.4902344,5.8422852,2.6679688,9.0119629         c0.3549805,6.3361816-2.4960938,16.9654541-11.7016602,26.069458         C470.6282043,513.3057861,455.7250671,519.5234985,434.9645081,518.1279297z M461.9356995,457.888031         c-4.8798828,1.8704834-7.9277344,5.7685547-8.362793,10.6948242         c-0.4584961,5.1907959,2.0888672,10.3985596,6.3388672,12.9587402         c6.7250977,4.0515137,13.5961914,4.163208,25.2695313-8.4661865         c1.3193359-1.4278564,2.4169922-2.8841553,3.2915039-4.3649902         C483.0665894,459.5123291,470.8285522,454.4790039,461.9356995,457.888031z" class="color000000 svgShape"/><path fill="#76abff" d="M385.7215576,475.7247009c-54.2941284,23.7244568-51.6400452-48.3425598-51.6400452-48.3425598        s12.5498047,6.1958313,24.4551392,3.7497253c11.9053345-2.4858704,22.9764099,1.0608521,22.9764099,1.0608521v0.0397949        c-2.3886719,2.2828979-4.5119019,4.9737854-6.5212708,8.1522827        C368.7737122,450.3721619,371.9584351,468.6332397,385.7215576,475.7247009z" class="colorffc176 svgShape"/><path fill="#fff" d="M349.3955078,446.2476807c15.4892273,12.8899841,34.1264038,8.2774353,41.6969299,5.5576172        c0.0635986,0.3248596,0.1200867,0.6706848,0.1703796,1.0024414c0.0804138,0.4355469,0.1474915,0.8779907,0.2012024,1.3272095        c0.4355164,3.2339783,0.5323181,6.3541565,0.3369751,9.3530273c-0.0046997,0.2069702-0.0288696,0.4069824-0.0523987,0.6066589        C358.9629822,466.7965393,349.3955078,446.2476807,349.3955078,446.2476807z" class="colorffffff svgShape"/><path fill="#7586c6" d="M428.9464722,458.09021c-4.9126587,18.2176819-20.980896,24.190918-37.077179,19.9204102        c-0.3628845-0.0931091-0.725647-0.195343-1.0886536-0.2980042c-0.195343-0.0463562-0.390686-0.1022339-0.5767212-0.1672058        c-0.2512512-0.0653992-0.5024719-0.1394653-0.7536926-0.232605c-1.8329163-0.5955811-3.5077209-1.3678894-5.0335083-2.2887878        c-0.1117554-0.0558777-0.2047729-0.1303711-0.3070984-0.195343c-0.3815002-0.232605-0.7536926-0.4838257-1.1164551-0.7350769        c-11.434906-7.9739685-13.7981873-24.3957825-7.9924011-33.7090759        c6.7641907-10.8674316,15.1472778-15.7521362,29.3920288-20.6368408        c14.2446594-4.8847046,21.0739136-9.4341431,21.0739136-9.4341431S434.0917053,438.9702759,428.9464722,458.09021z" class="color75c675 svgShape"/><path fill="#fff" d="M412.5897522,447.8651428c-13.4446411,7.2293701-18.6828003,20.8971863-20.720459,30.1454773        c-0.3628845-0.0931091-0.725647-0.195343-1.0886536-0.2980042c-0.195343-0.0463562-0.390686-0.1022339-0.5767212-0.1672058        c-0.2512512-0.0653992-0.5024719-0.1394653-0.7536926-0.232605c-1.8329163-0.5955811-3.5077209-1.3678894-5.0335083-2.2887878        c-0.1117554-0.0558777-0.2047729-0.1303711-0.3070984-0.195343c-0.3815002-0.232605-0.7536926-0.4838257-1.1164551-0.7350769        C394.6327209,448.2744751,412.5897522,447.8651428,412.5897522,447.8651428z" class="colorffffff svgShape"/><path fill="#6686ff" d="M231.8057709,582.0053101c-0.5864716-0.0582886-1.0221252-0.569458-0.9867096-1.1577759         l0.7796631-21.6490479h35.9892273l3.677948,10.4172363l18.4631958,3.6519165         c4.3562927,0.8616333,7.4146729,4.7973633,7.1736755,9.2315063l-0.2600708,4.784729         c-0.0341797,0.6289673-0.5897217,1.1000366-1.2157898,1.0310059L231.8057709,582.0053101z" class="color6680ff svgShape"/><path d="M273.3688049,564.6308594L273.3688049,564.6308594c-0.1581421-2.5273438,0.5119629-5.7098999,3.0151367-5.8666992           c2.0566406-0.1236572,3.5087891,2.0093994,3.7231445,5.4451904           c0.1532593,2.4443359-0.5190125,7.6138306-2.8969727,7.7628174           C274.8110962,572.1149292,273.5198975,567.0515137,273.3688049,564.6308594z M276.546051,559.4591064           c-2.1168213,0-2.6113892,3.0065918-2.4790039,5.1280518l0,0c0.1181641,1.8928833,1.2748413,6.8062744,3.0991211,6.6862793           c1.8178711-0.1134644,2.362915-5.0943604,2.2426758-7.0203857           C279.2276917,561.3616943,278.084137,559.4591064,276.546051,559.4591064z" class="color000000 svgShape"/><path d="M277.1803284,571.8873291c-1.0868225-1.3555298,1.2293396-4.1505737,2.6738281-5.3074951l0,0           c1.4246521-1.1419678,3.5780029-2.0519409,4.7236328-0.6204834           c1.145874,1.4285889-0.2067261,3.3308716-1.6352539,4.4752197           C281.5227051,571.5721436,278.2513428,573.2246704,277.1803284,571.8873291z M280.2916565,567.1259766c0,0,0,0,0,0.0001221           c-0.970459,0.777832-3.3085327,3.3965454-2.5654297,4.3234863           c0.4892578,0.6086426,2.8359375-0.0046387,4.7788086-1.5612793           c1.0838318-0.8682251,2.3649292-2.4459229,1.5268555-3.491333           C283.1907959,565.3480225,281.3799438,566.2536621,280.2916565,567.1259766z" class="color000000 svgShape"/><path d="M292.4347229,584.541626l-27.8378906-4.0953369c-0.1914063-0.0281982-0.3237305-0.2060547-0.2954102-0.3972168         c0.0273438-0.1914063,0.206543-0.322998,0.3969727-0.2954102l27.8378906,4.0953369         c0.1914063,0.0281982,0.3237305,0.2060547,0.2954102,0.3972168         C292.8041992,584.4345093,292.6299438,584.569519,292.4347229,584.541626z" class="color000000 svgShape"/><path fill="#6686ff" d="M155.06073,583.3991699l-2.1035461,4.3059692         c-0.2696838,0.5662231-0.9618835,0.7822266-1.5192261,0.4766846L95.263031,557.6625366         c-0.5214005-0.2786865-0.7191391-0.9169312-0.4584656-1.4471436l13.2054749-22.5635376l29.0808258,16.8911743         l-0.6562653,11.0300293l15.5966949,10.5265503C155.7169342,574.5897217,157.0024261,579.407959,155.06073,583.3991699z" class="color6680ff svgShape"/><path d="M140.9986725,566.0487061c-0.8847656-0.3094482-1.4140625-1.4473877-1.4902344-3.2042236           c-0.0678711-1.5612793,0.2241211-3.4030762,0.8007813-5.0528564c0.1000366,0,0.4607239,0,0,0           c0.8362732-2.3904419,2.6890411-5.0622559,5.0571289-4.2353516c2.369278,0.8284912,2.1511688,4.0768433,1.3168945,6.463623           C145.8546906,562.3895264,143.2341461,566.8291016,140.9986725,566.0487061z M140.9703522,558.022583           L140.9703522,558.022583c-0.5405273,1.5461426-0.8256836,3.3372803-0.7626953,4.7915039           c0.0615234,1.4093018,0.4433594,2.37146,1.0224609,2.5737305c1.2480469,0.4364014,3.6694336-2.3873291,4.7919922-5.598877           c0.6797333-1.9445801,1.0300598-4.9021606-0.887207-5.5717773           C143.2013245,553.5391846,141.6521606,556.0722046,140.9703522,558.022583z" class="color000000 svgShape"/><path d="M141.0040436,565.9589844c-0.4744415-1.6708374,2.7452393-3.3475342,4.5249023-3.8530273           c0.1001587,0,0.1001587,0,0,0c2.8925781-0.8218994,4.2832031,0.1663818,4.5947266,1.2623291           c0.4984741,1.7579956-1.4741211,2.9862061-3.2446289,3.4892578           C145.0559692,567.3754272,141.4712677,567.6028442,141.0040436,565.9589844z M141.6778717,565.7675781           c0.2124023,0.7503662,2.6137695,1.0970459,5.0097656,0.416626c1.3422699-0.3812866,3.1287537-1.3369751,2.762207-2.6245117           C148.6603241,560.7754517,141.2099609,564.1260376,141.6778717,565.7675781z" class="color000000 svgShape"/><path d="M150.1480865,583.543457l-24.0634766-14.583252c-0.1650391-0.1002197-0.2177734-0.3154297-0.1176758-0.4807129         c0.1005859-0.164917,0.3144531-0.2185059,0.480957-0.1179199l24.0634766,14.583252         c0.1650391,0.1002197,0.2177734,0.3154297,0.1176758,0.4807129         C150.5296783,583.5892944,150.3159332,583.6445923,150.1480865,583.543457z" class="color000000 svgShape"/><path fill="#fff" d="M327.0115662,209.1381836c0,0,1.0672607-10.7006378-1.3255005-16.3862305        c-2.1360168-5.0755463,5.1384583-5.133667,7.429718,1.5109863c0,0,3.4366455-21.4353027,7.3937378-22.6299438        c2.7039795-0.8063812,2.7072449,3.7478638,1.9861755,8.6820831c1.2547913-4.4914398,2.8143616-8.4822845,4.459198-8.9767609        c2.5411682-0.7579651,2.692688,3.2307129,2.1036987,7.8114166c0.6774597-1.3405914,1.3843994-2.2472076,2.1149292-2.4724274        c3.461792-1.0391693,2.5005798,6.7206268,1.2676697,12.7895966c0.199646-0.1572571,0.4009399-0.2753906,0.6001282-0.3340454        c5.5864868-1.6747131-0.3660889,19.6354218-0.3660889,19.6354218s-1.7775269,6.5245514-6.0301819,10.7577515        L327.0115662,209.1381836z" class="colorffffff svgShape"/><path d="M346.4815979,219.8352966l-19.6337891-10.3878174c-0.1259766-0.0665283-0.1987305-0.2025146-0.1845703-0.3439941        c0.0102539-0.1062012,1.0307617-10.6783447-1.2998047-16.2158203        c-1.1966553-2.8431702,0.3820801-4.4828186,2.7045898-4.0839844c1.527832,0.2613525,3.6123047,1.5185547,4.9042969,4.1912842        c0.8349609-4.8585205,3.8076172-20.6016846,7.4360352-21.6970215        c0.7099609-0.2120361,1.3081055-0.1142578,1.7753906,0.2901611c0.8422852,0.7281494,1.1860352,2.44104,1.0371094,5.2019043        c1.2255859-3.520874,2.4228516-5.4229736,3.6333008-5.7868652c0.7021484-0.2094727,1.2949219-0.1154785,1.7607422,0.2800293        c0.9555664,0.8121338,1.2749023,2.8803711,0.9682617,6.3031006c0.4926758-0.6783447,0.9848633-1.088501,1.4873047-1.2434082        c0.730957-0.2194824,1.3408203-0.1123047,1.8144531,0.3195801c1.359375,1.2406006,1.3740234,5.3232422,0.0458984,12.1381836        c0.0039063-0.0012207,0.0078125-0.0023193,0.0117188-0.00354c0.9365234-0.2810059,1.5249023,0.0440674,1.8535156,0.3659668        c2.8369141,2.7836914-1.3022461,17.9761963-1.7836914,19.6993408        c-0.0727539,0.2679443-1.8505859,6.661377-6.1201172,10.9116211        C346.7845459,219.8809357,346.6187744,219.9077759,346.4815979,219.8352966z M327.3815002,208.9380798l19.1977539,10.1568604        c4.0053711-4.1199951,5.7412109-10.3553467,5.7583008-10.4187012        c1.277832-4.5740967,4.1201172-16.9019775,1.9682617-19.0135498        c-0.1821289-0.1787109-0.5009766-0.3933105-1.1640625-0.1945801c-0.1450195,0.0427246-0.3076172,0.1346436-0.484375,0.2738037        c-0.2531433,0.2003479-0.6242676-0.0245819-0.559082-0.3447266        c1.8642578-9.1787109,0.9975586-11.5946045,0.3149414-12.2177734        c-0.2827148-0.2574463-0.6547852-0.3120117-1.1391602-0.1668701c-0.4003906,0.1235352-1.0581055,0.6226807-1.902832,2.2950439        c-0.0771484,0.1522217-0.2543945,0.2271729-0.4150391,0.1767578        c-0.1630859-0.0500488-0.2661133-0.2102051-0.2446289-0.3792725c0.6533203-5.0822754,0.0615234-6.7686768-0.550293-7.2884521        c-0.2753906-0.2352295-0.6386719-0.2824707-1.1064453-0.1428223c-0.7260742,0.2181396-2.2407227,1.6434326-4.222168,8.7353516        c-0.0498047,0.1783447-0.2314453,0.2855225-0.409668,0.248291c-0.1806641-0.0383301-0.300293-0.2103271-0.2734375-0.3930664        c0.878418-6.0100098,0.1118164-7.68396-0.4238281-8.1468506c-0.2783203-0.2414551-0.6450195-0.289917-1.1162109-0.1490479        c-3.0732422,0.9276123-6.2016602,16.447876-7.1479492,22.3498535        c-0.0566711,0.3536072-0.5552063,0.4076996-0.6767578,0.0587158c-1.097168-3.1817627-3.2900391-4.6191406-4.8349609-4.8834229        c-1.8269653-0.3133698-2.9026489,0.8383484-1.940918,3.1225586        C328.2398987,197.9184265,327.5279846,207.2947693,327.3815002,208.9380798z" class="color000000 svgShape"/><line x1="352.441" x2="351.374" y1="188.587" y2="194.66" fill="#fff"/><path d="M351.3136292,195.0044861c-0.1904297-0.0334473-0.3173828-0.2149658-0.2841797-0.4052734l1.0668945-6.0723877        c0.0332031-0.1903076,0.215332-0.3175049,0.4052734-0.2841797c0.1904297,0.0334473,0.3173828,0.2149658,0.2841797,0.4052734        l-1.0668945,6.0723877C351.6862793,194.90625,351.5091248,195.0382385,351.3136292,195.0044861z" class="color000000 svgShape"/><line x1="349.059" x2="346.429" y1="178.27" y2="189.982" fill="#fff"/><path d="M346.3522034,190.3235779c-0.1884766-0.0423584-0.3071289-0.2296143-0.2646484-0.4182129l2.6298828-11.711792        c0.0419922-0.1885986,0.2299805-0.3061523,0.4179688-0.2648926c0.1884766,0.0423584,0.3071289,0.2296143,0.2646484,0.4182129        l-2.6298828,11.711792C346.7288513,190.2447815,346.5441589,190.3661346,346.3522034,190.3235779z" class="color000000 svgShape"/><line x1="342.496" x2="340.633" y1="179.436" y2="188.566" fill="#fff"/><path d="M340.5626526,188.908905c-0.1894531-0.0385742-0.3115234-0.2235107-0.2729492-0.4128418l1.8632813-9.1304932        c0.0385742-0.1896973,0.2270508-0.3121338,0.4125977-0.2729492c0.1894531,0.0385742,0.3115234,0.2235107,0.2729492,0.4128418        l-1.8632813,9.1304932C340.9365234,188.826416,340.7498779,188.9479218,340.5626526,188.908905z" class="color000000 svgShape"/><path fill="#fff" d="M333.138031,193.3768463c0,0,4.8554077,0.3186188,3.382843,7.6714478" class="colorffffff svgShape"/><path d="M336.4518127,201.391449c-0.1894531-0.0379639-0.3125-0.22229-0.2744141-0.4118652         c0.5249023-2.619751,0.2939453-4.5964355-0.6855469-5.8751221c-0.9750977-1.2724609-2.362793-1.3774414-2.3769531-1.378418         c-0.1928711-0.0126953-0.3388672-0.1793213-0.3261719-0.3721924s0.1884766-0.3376465,0.3720703-0.3262939         c0.0698242,0.0045166,1.7207031,0.1295166,2.8867188,1.6512451c1.1079102,1.4458008,1.3823242,3.6119385,0.8164063,6.4382324         C336.8266907,201.3035583,336.6451111,201.429718,336.4518127,201.391449z" class="color000000 svgShape"/><path d="M258.6080322,351.1815186l-5.8724976,20.7877197l-10.6786804-12.4747925       C253.6095276,355.5317078,258.6080322,351.1815186,258.6080322,351.1815186z" class="color000000 svgShape"/><path fill="#fff" d="M281.5106506,478.8334656c-0.2200317,32.7402344-2.8599854,80.280304-2.8599854,80.280304h-54.0599976       c0.0002441-0.1021118,0.6004181-29.3998413-0.2300415-58.2202454       c-0.354538-11.4872742-1.2488098-34.9610901-4.1300049-45.9101563       c-2.5499878-9.6796875-9.9699707-28.3696289-17.4599609-46.199707       c-9.4400024-22.4902344-18.9899902-43.6201172-18.9899902-43.6201172l64.9899902-8.6098633       c0,0,16.6499634,38.6196289,26.0700073,70.6899414c3.0700073,10.4697266,5.3800049,20.2397461,6.0799561,27.7397461       C281.4306335,460.4535828,281.580658,468.9736023,281.5106506,478.8334656z" class="colorffffff svgShape"/><path d="M278.6505432,559.4637451h-54.0600739c-0.1963806,0-0.3541565-0.1618042-0.3500977-0.3571777       c0.2791138-11.6668091,0.3602448-37.7412109-0.2294922-58.2029114       c-0.3475342-11.256958-1.2386475-34.886322-4.1186523-45.8311768       c-2.1694336-8.2348633-8.0385742-23.7630615-17.4443359-46.1533203       c-9.3300781-22.2287598-18.890625-43.4002686-18.9858398-43.6114502       c-0.0458984-0.1009521-0.0410156-0.2174072,0.0126953-0.314209c0.0541992-0.0968018,0.1503906-0.1623535,0.2602539-0.1768799       l64.9897461-8.6098633c0.1508789-0.0212402,0.3051758,0.0645752,0.3671875,0.208374       c0.1665039,0.3863525,16.7661285,39.0061035,26.0844879,70.7298584       c3.4042969,11.6098633,5.4545898,20.9650879,6.0927734,27.8059082       c0.4692383,5.0313721,0.668457,13.0675049,0.5917969,23.8850098       c-0.2177734,32.3741455-2.8344727,79.8218079-2.8608398,80.2972717       C278.9898987,559.3186035,278.8360901,559.4637451,278.6505432,559.4637451z M224.947403,558.7637939h53.3715973       c0.2338867-4.2904053,2.6337891-48.9995422,2.8417969-79.9326477c0-0.0001221,0-0.0001221,0-0.0001221       c0.0766602-10.7943115-0.121582-18.8068848-0.5888672-23.8151855       c-0.6337891-6.7962646-2.675293-16.1070557-6.0673828-27.6737061       c-8.9189453-30.364502-24.5210114-67.064209-25.9511871-70.4066162L184.2935944,365.4487       c1.4052734,3.1209717,10.2001953,22.7116699,18.7998047,43.1994629       c9.418457,22.420166,15.2983398,37.9796143,17.4755859,46.2460938       C225.7886658,474.7267151,225.3321686,538.2059326,224.947403,558.7637939z" class="color000000 svgShape"/><path d="M256.014801,544.3706055c0,0,0,0-0.0004883,0c-0.1933746-0.0001221-0.3496246-0.1569824-0.3496246-0.3503418        c0.0187225-18.6051636,0.1474457-71.0597229-4.5595703-88.9477844        c-2.1694336-8.2335205-8.0385742-23.7617188-17.4443359-46.1533203        c-9.3300781-22.2287598-18.8911133-43.4002686-18.9863281-43.6114502        c-0.0795898-0.1761475-0.0014648-0.3835449,0.1748047-0.4631348c0.175293-0.0793457,0.3828125-0.0014648,0.4628906,0.1748047        c0.0957031,0.2113037,9.6601563,21.3914795,18.9941406,43.6287842        c9.418457,22.4215088,15.2978516,37.980957,17.4755859,46.2460938        c4.741806,18.0167542,4.6008453,70.5914612,4.5830231,89.1267395        C256.3644104,544.2141113,256.2081604,544.3706055,256.014801,544.3706055z" class="color000000 svgShape"/><path fill="#86b5ff" d="M281.2192688,478.8334656c-0.3900146,0.0200195-0.789978,0.0302734-1.1900024,0.0302734       c-14.4099731,0-26.0900421-11.6904297-26.0900421-26.1000977c0-12.5400391,8.8300323-23.0102539,20.6100616-25.5200195       c3.0700073,10.4697266,5.3800049,20.2397461,6.0799561,27.7397461       C281.1392517,460.4535828,281.2892761,468.9736023,281.2192688,478.8334656z" class="colorffa186 svgShape"/><path d="M223.2306213,477.5737c-0.6799927-9.4101563-1.6499634-17.4599609-3-22.590332       c-2.5499878-9.6796875-9.9699707-28.3696289-17.4599609-46.199707l9.75-11.2402344       C212.5206604,397.5434265,234.410675,440.1435242,223.2306213,477.5737z" class="color000000 svgShape"/><path d="M155.8491211,390.8578491l-15.6864624,0.0369263c0,0,0.0506744-0.1087646,0.1107025-0.2409973       c0.6124725-1.1888733,2.4660034-12.0532227,12.5055389-16.7486572       C153.3553772,377.9640503,155.500885,386.7027588,155.8491211,390.8578491z" class="color000000 svgShape"/><path fill="#fff" d="M183.1006165,516.8837891c-7.3865356,10.9255371-19.905365,28.9345703-29.4099731,42.8896484        c-17.4400024-9.7597656-30.4000244-17.0898438-47.8200073-26.8598633        c13.1500244-21.0298157,23.0800171-36.1201477,30.3200073-48.3701477        c13.0900269-22.1396484,17.4400024-35.0297852,16.2999878-56.9697266        c-0.8099976-15.4199219-4.3299561-35.3300781-9.4400024-66.0800781h65.3699951        C220.7806702,450.7236023,221.6406555,459.9335632,183.1006165,516.8837891z" class="colorffffff svgShape"/><path d="M153.5196686,560.0788574c-17.4364777-9.7578735-30.3297348-17.0506592-47.8203125-26.8599854        c-0.174469-0.0979614-0.2307968-0.3225098-0.1254883-0.4908447        c13.0417404-20.8562012,23.1149139-36.1794434,30.3154297-48.3627014        c13.6914063-23.1563721,17.3369141-35.890625,16.2519531-56.7734375        c-0.7275391-13.8511963-3.5991211-31.0552979-7.9453125-57.0969238l-1.4907227-8.9439697        c-0.035553-0.2110596,0.127121-0.4073486,0.3452148-0.4073486h65.3701172c0.1748047,0,0.3227539,0.1289063,0.3466797,0.302002        c12.2983398,88.7819824,13.5839844,98.0627441-25.3764648,155.6343079        c-7.42836,10.9868164-19.8529663,28.8569946-29.4111328,42.8905029        C153.8779755,560.1206665,153.6773682,560.1673584,153.5196686,560.0788574z M106.3619537,532.7879639        c17.1844635,9.6380615,29.951767,16.8591309,47.2197266,26.5235596        c9.0326996-13.2584229,21.65625-31.4226685,29.2290039-42.6237793v-0.0001221        c38.7651367-57.2827454,37.5302734-66.5888977,25.3051758-154.8440247h-64.6523438l1.4228516,8.5361328        c4.3500977,26.0650635,7.2241211,43.284668,7.9541016,57.1756592        c1.0932617,21.0466309-2.5737305,33.8688965-16.3486328,57.1661377        C129.9878387,495.7272949,117.5859222,514.8451538,106.3619537,532.7879639z" class="color000000 svgShape"/><path d="M141.2667389,532.8575439c-0.1640625-0.102417-0.2138672-0.3184814-0.1113281-0.4822998         c5.0541992-8.0822754,9.6801758-15.3624268,13.7617188-21.785675         c6.4667969-10.1762695,12.0517578-18.9648438,16.4916992-26.4775391         c21.3921814-36.1810608,19.277771-47.795105,8.2900391-113.6314697l-1.4882813-8.9295654         c-0.0317383-0.1906738,0.097168-0.3709717,0.2875977-0.4025879c0.1948242-0.0321045,0.371582,0.097168,0.402832,0.2878418         l1.4882813,8.9290771c11.0013885,65.9186401,13.1342316,77.7179871-8.3779297,114.1029053         c-4.4458008,7.5223389-10.0332031,16.3153076-16.503418,26.4968262         c-4.0810547,6.4221497-8.706543,13.7012024-13.7587891,21.7812805         C141.6460419,532.9112549,141.4293823,532.9595337,141.2667389,532.8575439z" class="color000000 svgShape"/><path fill="#448cff" d="M352.7341309,219.3834991c-5.1600342,19.6201172-13.1800537,38.7202301-25.6900635,54.4101715        c-8.6821289,10.9494629-17.8489685,16.9754028-29.8398438,23.4199219        c-5.460083,2.9399414-11.2700195,4.5400391-17.6101074,6.4799805        c-7.2061768,2.1986389-15.6901855,3.4391174-23.2600098,4.0600586        c0.9200439,11.0102539,1.1800537,32.4199219,2.2800293,43.4301758        c-17.5999603,16.9199219-48.9399261,18.2998047-71.3799896,19.3398438        c-7.7199707,0.3598633-16.9200439,1.2001953-25.2799072,3.6899414        c-2.8701172,0.8500977-5.630127,1.8901367-8.2000732,3.1801758c-5.9700928,2.9897461-10.9000244,7.2900391-13.5899658,13.5        c-0.4899902-3.0102539-1.4599609-7.6601563-2.6400146-13.5c-1.2401123-6.2099609-2.7200928-13.75-4.0999756-22.0600586        c-6.8400879-41.3901367-11.1401367-101.9502106,28.0799561-112.3003082        c18.0499268-4.199707,51.3299561-4.3295898,77.5,9.3603516        c36.9599457,19.3300934,73.6299896-14.9599609,82.4699554-50.0703125        C331.9241943,208.1735382,342.3341064,213.5539093,352.7341309,219.3834991z" class="colorffae44 svgShape"/><path d="M166.9906311,372.0536804c-1.7199707,0.6196289-3.3999634,1.3398438-5.039978,2.159668       c-1.8800049,0.9301758-5.8728027,0.5063171-7.843277,1.2395325       c-3.9128571,1.4559937-16.5867157,1.9406433-16.5867157,1.9406433c-1.2399902-6.2099609-2.7200317-13.75-4.1000366-22.0600586       c1.0100098-0.949707,2.1799927-1.6899414,3.4500122-2.1899414c1.1400146,1.4399414,2.2900391,2.8701172,3.4400024,4.3100586       c2.0900269,2.6201172,4.2000122,5.25,6.7200317,7.4697266       C152.4706726,369.7035828,159.7606506,372.3036804,166.9906311,372.0536804z" class="color000000 svgShape"/><path fill="#fff" d="M200.6776123,231.4947357c20.1761475-2.8355713,6.4196777-26.5640869,5.1356049-28.7321777         l-24.791214,6.9198151c-0.621582,3.9681854,0.2688446,11.13974-0.1361084,15.115448l3.9687042,3.6841125         l-0.0577545,12.2147369l10.1727142,9.3887482l5.4174957-8.6311188L200.6776123,231.4947357z" class="colorffffff svgShape"/><path d="M194.7320709,250.3426208l-10.1723633-9.3887939c-0.0722656-0.0666504-0.1132813-0.1606445-0.112793-0.2589111         l0.0571289-12.0610352l-3.8564453-3.5795898c-0.0800781-0.074585-0.1210938-0.1827393-0.1098633-0.2918701         c0.1831055-1.7976074,0.0986328-4.2340088,0.0092773-6.8133545         c-0.1044922-3.0174561-0.2128906-6.1375732,0.1293945-8.3209229c0.0209961-0.135498,0.1196289-0.2460938,0.2514648-0.282959         l24.7910156-6.9197998c0.1518555-0.0423584,0.3144531,0.022583,0.3955078,0.1588135         c1.4550781,2.4567871,8.5200195,15.1153564,4.6938477,23.072876         c-1.5996094,3.3267822-4.8925781,5.3920898-9.7895508,6.1413574l-0.2817383,9.6661377         c-0.0019531,0.0622559-0.0205078,0.1230469-0.0537109,0.1757813l-5.4174805,8.6311035         C195.149353,250.4576721,194.8920135,250.4905396,194.7320709,250.3426208z M185.1475983,240.5440369l9.7495117,8.998291         l5.1425781-8.1933594l0.2880859-9.864502c0.0048828-0.1705322,0.1318359-0.3126221,0.3007813-0.3363037         c4.8125-0.6763916,8.0253906-2.6258545,9.5488281-5.7944336c3.5664063-7.4171143-2.8540039-19.3037109-4.5297852-22.1816406         l-24.3125,6.7862549c-0.2915039,2.107666-0.1884766,5.0843506-0.0883789,7.9664307         c0.0874023,2.5229492,0.1699219,4.9100342,0.0039063,6.7342529l3.8422852,3.5664063         c0.0717773,0.0665283,0.1123047,0.1601563,0.1118164,0.2580566L185.1475983,240.5440369z M200.3868561,241.4543152h0.0087891         H200.3868561z" class="color000000 svgShape"/><path d="M209.2576447,196.8604126c-1.8839874,5.1911469-7.4337006,14.5979614-22.5473328,12.0442505         c0,0,4.252533,8.8545837-5.6829987,13.4689636c-6.4272003,2.9850006-21.1269226-19.7378845,5.5862732-25.2185669         c5.0485535-1.0357971,20.3895416-3.0396118,20.3895416-3.0396118         C208.5527649,193.8844299,209.7921448,195.3876343,209.2576447,196.8604126z" class="color000000 svgShape"/><path fill="#fff" d="M184.1298218,220.7134705c0,0-2.1950836-4.4638214-6.2348175-3.5546112         c-4.0714111,0.9163361-4.4429321,9.2295685,4.8826141,8.7746277" class="colorffffff svgShape"/><path d="M182.0455475,226.3016052c-4.8076172,0.0003662-6.8691406-2.3968506-7.1860352-4.7260742         c-0.3022461-2.2266846,0.9970703-4.3166504,2.9589844-4.7580566c4.2543945-0.9573975,6.6025391,3.694458,6.6254883,3.7415771         c0.0854492,0.1733398,0.0141602,0.3828125-0.1591797,0.4681396c-0.1743164,0.0859375-0.3837891,0.0137939-0.46875-0.1589355         c-0.0849609-0.1721191-2.1279297-4.2044678-5.8442383-3.3679199c-1.6103516,0.3624268-2.6723633,2.1109619-2.418457,3.980957         c0.2910156,2.138916,2.340332,4.3421631,7.2070313,4.1025391c0.1904297-0.0064697,0.3574219,0.1394043,0.3666992,0.3325195         s-0.1396484,0.3572998-0.3325195,0.3666992C182.5382233,226.2955017,182.2882233,226.3016052,182.0455475,226.3016052z" class="color000000 svgShape"/><path d="M204.1544342,222.0729675c-0.1933594-0.0008545-0.3540039-0.1582031-0.3535156-0.3514404          c0.0009766-0.1928711,0.1523438-0.3486328,0.3452148-0.3486328          c0.6136627,0.0821686,1.9333496-0.0563049,2.3061523-0.7891846c0.269043-0.5285645,0.0058594-1.2312012-0.3745117-1.6932373          c-0.4353485-0.5292816-1.0931396-0.960083-1.628418-1.4754639c-1.3007813-1.255127-1.9262695-3.0076904-2.4780273-4.553833          c-0.0649414-0.1821289,0.0297852-0.3823242,0.2119141-0.4472656          c0.1831055-0.0650635,0.3818359,0.0297852,0.4472656,0.2119141c0.5258789,1.4737549,1.1220703,3.144165,2.3051758,4.2852783          c0.5319977,0.5131378,1.1777039,0.9210358,1.6826172,1.5345459          c0.4868164,0.5914307,0.8989258,1.5893555,0.4580078,2.4554443          C206.5489044,221.9379272,205.3031006,222.0752869,204.1544342,222.0729675z" class="color000000 svgShape"/><circle cx="206.074" cy="212.583" r="1.292" class="color000000 svgShape"/><circle cx="198.357" cy="214.194" r="1.134" class="color000000 svgShape"/><path d="M194.5328522,213.2974548c-0.168457-0.0950928-0.2280273-0.3085938-0.1328125-0.4769287          c1.9228516-3.4049072,4.9604492-2.8425293,4.9892578-2.8366699          c0.1889648,0.0377197,0.3115234,0.2210693,0.2744141,0.4101563          c-0.0371094,0.1894531-0.2216797,0.3127441-0.409668,0.2766113          c-0.1040039-0.0195313-2.5786133-0.4553223-4.2446289,2.4941406          C194.9144287,213.3326111,194.701355,213.3927155,194.5328522,213.2974548z" class="color000000 svgShape"/><path d="M202.6368561,210.526825c-0.1396484-0.1335449-0.1450195-0.3551025-0.0112305-0.494873          c2.7011719-2.8260498,5.5053711-1.534668,5.5336914-1.5212402c0.1738281,0.0830078,0.2470703,0.2907715,0.1650391,0.4650879          c-0.0825195,0.1744385-0.2915039,0.2485352-0.465332,0.1671143c-0.097168-0.045166-2.3876953-1.0759277-4.7275391,1.3726807          C202.9976196,210.6553955,202.7765503,210.6602325,202.6368561,210.526825z" class="color000000 svgShape"/><path d="M203.3560944,225.8381042c-0.1381836-0.1341553-0.1416016-0.354248-0.0078125-0.4931641          c0.1333008-0.1391602,0.3549805-0.1428223,0.4951172-0.0096436          c0.1630859,0.1563721,1.2783203,0.8077393,2.2670898,0.5893555c0.65625-0.1446533,1.1582031-0.6496582,1.4926758-1.5009766          c0.0703125-0.1799316,0.2729492-0.2686768,0.4536133-0.197876c0.1796875,0.0706787,0.2685547,0.2738037,0.1977539,0.4537354          c-0.4257813,1.0853271-1.0996094,1.7348633-2.0014648,1.930542          C205.1863708,226.84198,203.8322449,226.2988586,203.3560944,225.8381042z" class="color000000 svgShape"/><path d="M200.699585,231.5144806c-2.5513,0.2123718-5.4044342-1.3424988-8.399765-3.2855835        c0,0,1.0040894,4.5717163,8.3131256,6.2550507L200.699585,231.5144806z" class="color000000 svgShape"/><path d="M200.534317,234.8250427c-7.4394531-1.7133789-8.5332031-6.3255615-8.5761719-6.5211182        c-0.066391-0.3041077,0.2689056-0.5392761,0.5322266-0.3686523c2.7744141,1.800293,5.6728516,3.4364014,8.1801758,3.2304688        c0.2041168-0.0173492,0.3846436,0.147171,0.378418,0.3588867l-0.0864258,2.9694824        C200.9563293,234.7161865,200.7477875,234.8743896,200.534317,234.8250427z M193.0401764,229.1150818        c0.7143555,1.3433838,2.5981445,3.7475586,7.2353516,4.927124l0.0629883-2.1589355        C198.1378326,231.9277039,195.791153,230.8293152,193.0401764,229.1150818z" class="color000000 svgShape"/><path d="M268.120636,306.313446c-3.9699707,0.6499023-8.0100098,1.1303711-11.789978,1.4399414l-3.7600098-37.7099609         L268.120636,306.313446z" class="color000000 svgShape"/><path fill="#6686ff" d="M251.7426758,328.5768433l-21.635788,54.9300842          c-1.2029877,3.0541687-4.1515656,5.0618591-7.4341278,5.0618591h-29.3939972          c-2.2013092,0-3.7110748-2.2173157-2.9043427-4.2654724l22.0972137-56.101593          c1.2029877-3.0541992,4.1515656-5.0618591,7.4341278-5.0618591h28.134903          C250.8465729,323.1398621,252.7709808,325.966156,251.7426758,328.5768433z" class="color6680ff svgShape"/><path d="M222.6729889,388.9187927h-29.394043c-2.4431152,0-4.1281433-2.4639893-3.2299805-4.7437744l22.097168-56.1015625           c1.2636719-3.2095947,4.3095703-5.2835693,7.7597656-5.2835693h28.1347656           c3.0458221,0,5.1475525,3.0725403,4.027832,5.9152832l-0.3256836-0.1282959l0.3256836,0.1282959l-21.6357422,54.9300537           C229.1681061,386.8449402,226.1226959,388.9187927,222.6729889,388.9187927z M219.905899,323.4898376           c-3.1606445,0-5.9506836,1.8999023-7.1083984,4.84021l-22.097168,56.1015625           c-0.7137909,1.809967,0.6102448,3.7872314,2.5786133,3.7872314h29.394043           c3.1601563,0,5.9501953-1.8999023,7.1083984-4.84021l21.6357422-54.9300537           c0.935791-2.3768005-0.8063354-4.9587402-3.3764648-4.9587402H219.905899z" class="color000000 svgShape"/><path fill="#fff" d="M257.0020752,328.5768433l-21.635788,54.9300842         c-1.2029877,3.0541687-4.1515656,5.0618591-7.4341278,5.0618591h-29.3939972         c-2.2013245,0-3.7110748-2.2173157-2.9043427-4.2654724l22.0972137-56.101593         c1.2029877-3.0541992,4.1515656-5.0618591,7.4341278-5.0618591h28.134903         C256.105957,323.1398621,258.030365,325.966156,257.0020752,328.5768433z" class="colorffffff svgShape"/><path d="M227.9322662,388.9187927h-29.394043c-2.4463043,0-4.1262817-2.4684753-3.2299805-4.7437744l22.097168-56.1015625         c1.2646484-3.2097168,4.3100586-5.2835693,7.7597656-5.2835693h28.1347656         c3.0460052,0,5.1475067,3.0723877,4.0278473,5.9152832l-0.3256836-0.1282959l0.3256836,0.1282959l-21.6357574,54.9300537         C234.4278717,386.8449402,231.3819733,388.9187927,227.9322662,388.9187927z M225.1651764,323.4898376         c-3.1601563,0-5.9501953,1.8999023-7.1083984,4.84021l-22.097168,56.1015625         c-0.7145691,1.8145447,0.6148987,3.7872314,2.5786133,3.7872314h29.394043         c3.1601563,0,5.9501953-1.8999023,7.1083984-4.84021l21.6357574-54.9300537         c0.9358826-2.3747559-0.8043823-4.9587402-3.3764801-4.9587402H225.1651764z" class="color000000 svgShape"/><g class="color000000 svgShape"><path fill="#fff" d="M194.359787,358.1692505c1.849472-2.828064,5.1102753-2.6294861,7.0440674-3.1195374       c0,0-0.8878479,4.9485168,2.0551453,7.6520996c6.4290314,1.9320374,13.0238647,3.4490967,13.2955322,5.3084717       c0.3280334,2.2451782-7.0768127,0.4595642-10.1339111-0.3937378c6.4290314,1.9320374,10.1654053,2.7263489,9.8392029,4.4934387       c-0.3247681,1.7592773-4.8772736,1.4586487-7.9343567,0.6053162c4.5219269,1.4919739,6.979248,2.5916138,6.6413574,3.6363831       c-0.6035614,1.8662415-5.5194702,1.0583496-8.5765533,0.2050476c2.785614,1.0827942,5.6885071,2.0273132,5.0155029,3.1329651       c-1.5850983,2.6040649-21.4515381-4.1299744-21.4515381-4.1299744L194.359787,358.1692505z" class="colorffffff svgShape"/><path d="M209.4708405,380.6073914c-5.1962891,0-16.7133789-3.7957764-19.4287109-4.7163086       c-0.171875-0.0581055-0.2705078-0.2375488-0.2280273-0.4136963l4.2055664-17.3903809       c0.0097656-0.0388184,0.0253906-0.0758057,0.0473633-0.1092529c1.9489441-2.9805603,5.313797-2.7770081,7.2509766-3.2672119       c0.2486877-0.0626831,0.4741516,0.1527405,0.4306641,0.4007568c-0.0087891,0.0473633-0.8051758,4.7272949,1.8891602,7.2786865       c6.9458618,2.0827026,13.1568909,3.47229,13.4628906,5.5697021c0.0581055,0.3970947-0.0620117,0.7397461-0.347168,0.9909668       c-0.5332031,0.4691162-1.6831055,0.5651855-3.0795898,0.4547119c2.2280273,0.8041992,3.3510742,1.5704346,3.1298828,2.7680664       c-0.2868805,1.5574646-2.8627167,1.646637-4.4433594,1.5454102c2.3261719,0.9508057,3.4487305,1.7832031,3.1391602,2.7404785       c-0.4760742,1.4743652-2.9174805,1.5264893-5.171875,1.2301025c0.9262695,0.4468994,1.5024414,0.869873,1.675293,1.3743896       c0.0922852,0.270874,0.0585938,0.5501709-0.0986328,0.8078613       C211.588028,380.3920593,210.7081451,380.6073914,209.4708405,380.6073914z M190.5699615,375.3305359       c7.6020508,2.5563965,19.7006836,5.8765869,20.7368164,4.177124c0.0605469-0.0999756,0.0522461-0.1635742,0.0336914-0.2172852       c-0.2138672-0.6256104-2.215332-1.3894043-3.980957-2.0633545l-0.8959961-0.3441162       c-0.1738281-0.0675049-0.2641602-0.2597656-0.2050781-0.4367676c0.059082-0.177124,0.246582-0.2769775,0.4262695-0.2265625       c3.7167969,1.0374756,7.7104492,1.3795166,8.1489258,0.0244141c0.3154297-0.9748535-4.7524414-2.6468506-6.4179688-3.1962891       c-0.1801758-0.0595703-0.2802734-0.2524414-0.2250977-0.4343262c0.0551758-0.1813965,0.2412109-0.2869873,0.4291992-0.2352295       c2.5170898,0.7025146,5.8540039,0.97229,7.0820313,0.2059326c0.2392578-0.149292,0.3745117-0.3251953,0.4135742-0.5375977       c0.2236328-1.2111816-2.6796875-2.0617676-7.0742188-3.3492432c-0.7856445-0.2303467-1.6274414-0.4769287-2.5209961-0.7454834       c-0.184082-0.0552979-0.2890625-0.248291-0.2353516-0.4326172c0.0527344-0.18396,0.2407227-0.291748,0.4301758-0.2397461       c5.0166016,1.4005127,8.7763672,1.8502197,9.5756836,1.145874c0.074707-0.0657959,0.1474609-0.1606445,0.1176758-0.3643799       c-0.2362671-1.6188354-7.6504517-3.4010925-13.0498047-5.0239258c-0.0507813-0.0152588-0.097168-0.041748-0.1362305-0.0775146       c-2.515625-2.310791-2.378418-6.0906982-2.2319336-7.4613037c-2.0722198,0.3942566-4.7063293,0.4255676-6.3046875,2.8131104       L190.5699615,375.3305359z" class="color000000 svgShape"/></g><g class="color000000 svgShape"><path fill="#448cff" d="M198.7306213,350.6034851c-4.8099976,9.7099609-4.7999878,23.4501953-10.8299561,33.8100586        c-17.9686432-5.353363-55.6961365-23.6158752-64.8699951-39.1899414        c-4.4300537-7.5698242-6.9700317-15.8701172-7.8900146-24.3701172        c-3.3500366-30.7597656,14.4599609-64.2299805,40.5-75.7700043        c10.9599609,6.8300781,16.0200195,15.1401215,26.5200195,21.4301605        C131.3406677,310.2035828,147.080658,327.9037781,198.7306213,350.6034851z" class="colorffae44 svgShape"/></g><g class="color000000 svgShape"><path d="M196.0089264,357.9717712c-0.2651367-0.0766602-0.4179688-0.3540039-0.3413086-0.6192627        c0.7299805-2.5218506,1.5131836-4.6547852,2.387207-6.5002441        c-25.472168-11.2254639-43.1582031-21.536499-46.7915039-35.2312012        c-2.0537109-7.7381592,0.5297852-16.3304443,7.8974609-26.2678223        c0.1650391-0.2216797,0.4790039-0.2680664,0.699707-0.1037598c0.2216797,0.1644287,0.2680664,0.4775391,0.1040039,0.6993408        c-7.1748047,9.6772461-9.7050781,17.9907227-7.7348633,25.4157715        c3.7631836,14.1827393,24.6699219,25.0981445,46.7021484,34.7811279        c0.2607574,0.1145935,0.3731384,0.4247437,0.2470703,0.6796875c-0.9399414,1.8977051-1.7744141,4.1237793-2.550293,6.8051758        C196.5507507,357.8987427,196.2704926,358.0481873,196.0089264,357.9717712z" class="color000000 svgShape"/></g><g class="color000000 svgShape"><path d="M279.3248596,544.9541016c-0.0029297,0-0.0058594,0-0.0087891-0.0001221l-54.5537262-1.3656006        c-0.1933594-0.0047607-0.3457031-0.1654053-0.3413086-0.3586426c0.0048828-0.1931152,0.1699219-0.3519287,0.3588867-0.3410645        l54.5537262,1.3656006c0.1933594,0.0047607,0.3457031,0.1654053,0.3413086,0.3586426        C279.6700745,544.8031006,279.5143127,544.9541016,279.3248596,544.9541016z" class="color000000 svgShape"/></g><g class="color000000 svgShape"><path d="M163.4381256,545.5909424l-48.2026367-27.5081787c-0.1679688-0.0958252-0.2265625-0.3095703-0.1308594-0.477417        s0.3085938-0.2268066,0.4775391-0.1304932l48.2026367,27.5081787c0.1679688,0.0958252,0.2265625,0.3095703,0.1308594,0.477417        C163.8195953,545.6278076,163.6064453,545.6870728,163.4381256,545.5909424z" class="color000000 svgShape"/></g><g class="color000000 svgShape"><path d="M345.2662659,233.6155701l-30.0268555-14.5189209c-0.2485352-0.1202393-0.3525391-0.4191895-0.2324219-0.6678467       c0.1201172-0.2481689,0.4194336-0.3526611,0.6679688-0.2325439l30.0268555,14.5189209       c0.2485352,0.1202393,0.3525391,0.4191895,0.2324219,0.6678467       C345.8143921,233.6304779,345.5169067,233.7361145,345.2662659,233.6155701z" class="color000000 svgShape"/></g><g class="color000000 svgShape"><path d="M324.1197815,215.8732605c-1.5805664,0-2.8666992-1.2860107-2.8666992-2.8666992       s1.2861328-2.8665771,2.8666992-2.8665771s2.8666992,1.2858887,2.8666992,2.8665771       S325.7003479,215.8732605,324.1197815,215.8732605z M324.1197815,211.1399841       c-1.0292969,0-1.8666992,0.8372803-1.8666992,1.8665771s0.8374023,1.8666992,1.8666992,1.8666992       s1.8666992-0.8374023,1.8666992-1.8666992S325.1490784,211.1399841,324.1197815,211.1399841z" class="color000000 svgShape"/></g><g class="color000000 svgShape"><path d="M168.6060944,375.3002625c-0.2241211-0.161499-0.2744141-0.4741211-0.112793-0.697998l20.2973633-28.1262207       c0.1611328-0.2235107,0.4726563-0.2751465,0.6977539-0.112793c0.2241211,0.161499,0.2744141,0.4741211,0.112793,0.697998       l-20.2973633,28.1262207C169.1417999,375.4121094,168.8287048,375.4613953,168.6060944,375.3002625z" class="color000000 svgShape"/></g><g class="color000000 svgShape"><path d="M181.4141998,376.7718201c-1.5805664,0-2.8666992-1.2860107-2.8666992-2.8666992       s1.2861328-2.8666992,2.8666992-2.8666992s2.8666992,1.2860107,2.8666992,2.8666992       S182.9947662,376.7718201,181.4141998,376.7718201z M181.4141998,372.0384216       c-1.0292969,0-1.8666992,0.8374023-1.8666992,1.8666992s0.8374023,1.8666992,1.8666992,1.8666992       s1.8666992-0.8374023,1.8666992-1.8666992S182.4434967,372.0384216,181.4141998,372.0384216z" class="color000000 svgShape"/></g><g class="color000000 svgShape"><path fill="#86b5ff" d="M178.2189636,457.113739c0,16.5-13.3699951,29.8696289-29.8699951,29.8696289       c-4.2000122,0-8.1900024-0.8696289-11.8200073-2.4399414c13.0900269-22.1396484,17.4400024-35.0297852,16.2999878-56.9697266       C167.1989441,429.7333679,178.2189636,442.1337585,178.2189636,457.113739z" class="colorffa186 svgShape"/></g><g class="color000000 svgShape"><path d="M328.9928284,363.6852722c-0.1645508-0.1014404-0.2158203-0.3170166-0.1142578-0.4815674        c0.1010742-0.1643066,0.315918-0.2160645,0.4814453-0.1143799c4.875,3.0046387,11.2856445,1.4832764,14.2910156-3.3919678        c3.0029297-4.8725586,1.4794922-11.2811279-3.3955078-14.2857666        c-0.1645508-0.1014404-0.2158203-0.3170166-0.1142578-0.4815674c0.1005859-0.1641846,0.3173828-0.2160645,0.4814453-0.1143799        c5.2036133,3.2072754,6.8295898,10.0478516,3.6240234,15.2489014        C341.0358276,365.2746887,334.1903381,366.8891602,328.9928284,363.6852722z" class="color000000 svgShape"/></g><g class="color000000 svgShape"><path d="M116.6422272,224.754364c-2.5805664-3.1450195-2.1225586-7.802002,1.0209961-10.3812256        c3.1464844-2.5806885,7.8046875-2.1210938,10.3847656,1.0236816c0.1225586,0.1495361,0.1010742,0.3699951-0.0483398,0.4926758        c-0.1499023,0.1224365-0.3696289,0.1009521-0.4926758-0.048584c-2.3349609-2.8461914-6.5522461-3.2628174-9.3994141-0.9265137        c-2.8452148,2.3342285-3.2597656,6.5493164-0.9243164,9.395874c0.1225586,0.1495361,0.1010742,0.3699951-0.0483398,0.4926758        C116.9852448,224.9249725,116.76548,224.9043121,116.6422272,224.754364z" class="color000000 svgShape"/></g><g class="color000000 svgShape"><path d="M527.9219971,442.3177185c-3.1422729-3.0867615-3.1506958-8.1624756-0.0029297-11.3463135       c3.1381836-3.1740723,8.2441406-3.2473145,11.3808594-0.1646729c0.1381836,0.135498,0.1401367,0.3570557,0.0043945,0.4949951       c-0.1352539,0.1379395-0.3574219,0.1397705-0.4946289,0.0042725       c-2.8623047-2.8126221-7.5249023-2.7427979-10.3925781,0.1575928       c-2.8952637,2.9285278-2.8484497,7.5611267-0.0048828,10.3548584c0.1381836,0.135498,0.1401367,0.3570557,0.0043945,0.494873       C528.2802734,442.4526062,528.0578613,442.4518738,527.9219971,442.3177185z" class="color000000 svgShape"/></g><g class="color000000 svgShape"><path fill="#fff" d="M156.5084381,350.7185974c-0.3955078-3.0279541-2.7109375-5.7685547-5.6303711-6.6645508      c-1.8962097-0.5819702-4.0692139-0.4859314-5.9125977-1.473877c-2.6269531-1.4082031-3.6723633-4.5179443-4.0869141-6.8787842      c-0.4553528-2.5997314-0.4749908-5.3447876-1.4301758-7.7498779c-1.0717773-2.699707-3.1469727-4.7061768-5.3442383-6.8305664      c-1.4077148-1.3612061-2.8632813-2.7686768-4.0214844-4.3713379      c-3.5053711-4.8513184-4.3413086-11.7148438-2.2368164-18.3601074      c1.6542969-5.2260742,5.0371094-10.3797607,10.3413086-15.755249c0.1352539-0.1376953,0.3574219-0.1390381,0.4946289-0.0032959      c0.1376953,0.1357422,0.1391602,0.3574219,0.003418,0.4949951c-5.2246094,5.2947998-8.5517578,10.3566895-10.1723633,15.4748535      c-2.0375977,6.4350586-1.2387695,13.0664063,2.137207,17.7388916c1.121582,1.5523682,2.5546875,2.9379883,3.940918,4.2780762      c2.1533203,2.0823975,4.3803711,4.2355957,5.5078125,7.0754395c1.0006561,2.5194092,1.0154877,5.3035889,1.4692383,7.887207      c0.3876953,2.2078857,1.3491211,5.1074219,3.7285156,6.3828125c1.7054291,0.9143677,3.8381653,0.8235779,5.7866211,1.4216309      c3.1728516,0.9737549,5.6894531,3.9522705,6.1196289,7.2429199c0.0249023,0.1917725-0.1103516,0.3674316-0.3017578,0.3924561      C156.7042999,351.0448303,156.5328827,350.906311,156.5084381,350.7185974z" class="colorffffff svgShape"/></g><g class="color000000 svgShape"><path fill="#fff" d="M277.4689026,282.1946716c-4.1694336-1.3453369-7.9106445-4.0187988-10.534668-7.52771      c-0.1157227-0.1547852-0.0839844-0.3741455,0.0708008-0.4898682c0.1552734-0.1160889,0.3740234-0.0837402,0.4897461,0.0706787      c2.5375977,3.3937988,6.15625,5.9794922,10.1889648,7.2806396c5.5639954,1.7950745,9.0840454-0.1430664,10.2138672-2.7498779      c0.676239-1.5611877,0.4954529-3.4051819,0.7802734-5.1717529c0.5517578-3.4182129,2.8828125-6.5927734,6.3959961-8.7095947      c4.1782227-2.5175781,9.1345825-3.169281,13.8432617-3.7706299c2.3955078-0.3061523,4.8720703-0.6225586,7.2480469-1.1983643      c3.0493164-0.7392578,8.418457-2.6778564,10.1196289-7.355957c0.6871948-1.8874817,0.6725464-4.0045929,1.0981445-6.0189209      c0.2578125-1.2243652,1.1303711-4.1689453,3.6591797-5.0643311c0.1811523-0.0649414,0.3818359,0.0311279,0.4467773,0.2131348      c0.0644531,0.182251-0.03125,0.3822021-0.2133789,0.4467773c-2.1943359,0.7769775-2.9741211,3.4398193-3.2080078,4.5487061      c-0.4229431,2.0059662-0.400238,4.1219025-1.1245117,6.1138916c-1.8129883,4.9849854-7.4272461,7.0247803-10.612793,7.7969971      c-2.4135742,0.5848389-4.9101563,0.9039307-7.3242188,1.2124023c-4.5643311,0.5834656-9.4782104,1.2096863-13.5708008,3.6759033      c-3.2871094,1.980835-5.5551758,5.0543213-6.065918,8.2215576c-0.2839661,1.756073-0.09198,3.6366272-0.8291016,5.338501      C287.2252808,282.0913391,283.3304443,284.085968,277.4689026,282.1946716z" class="colorffffff svgShape"/></g><g class="color000000 svgShape"><path fill="#fff" d="M175.6290436,300.4978943c-0.9677429-11.7815857,17.1721649-18.418396,29.0566406-19.3908691      c11.8674774-0.9776001,30.8656616,2.6148071,31.8339844,14.4060059      c0.7651367,9.3145752-12.2739258,18.017334-29.0654297,19.3999023c0,0,0,0-0.0004883,0      C195.5708008,315.8851318,176.584137,312.2885132,175.6290436,300.4978943z M207.4254303,314.5640564h0.0087891H207.4254303z       M204.7428131,281.804657c-11.3030396,0.9249268-29.34758,7.2967224-28.4165039,18.6362305      c0.9204712,11.3458252,19.7608337,14.6996765,31.0708008,13.774292h-0.0004883      c16.4072266-1.3508301,29.1586914-9.7148438,28.4257813-18.6447754      C234.8935394,284.2708435,216.1510468,280.8659058,204.7428131,281.804657z" class="colorffffff svgShape"/></g><g class="color000000 svgShape"><path d="M548.1251221,571.8804932c-6.8694458-9.0513916-8.5220337-9.2014771-10.4165039-10.0441895       c-2.3427734-1.0419922-4.7651367-2.1193848-6.0083008-4.4144287c-1.3476563-2.4864502-0.7573242-5.3320313-0.1870117-8.0839844       c0.6278076-3.0266113,1.0457764-7.151062-1.7568359-8.7402344c-0.9633789-0.5462646-2.2109375-0.6694336-3.4169922-0.7883301       c-5.6395264-0.5567017-6.4439697-3.8154297-4.5844727-7.1165771c0.8568115-1.5232544,2.0580444-2.6572876,2.9086914-4.0738525       c2.479126-4.1227417,0.7772217-10.2224731-3.4902344-12.4620361c-1.9193726-1.0076294-4.3152466-1.338623-6.3945313-2.2385254       c-3.1298523-1.3547363-5.4408875-4.0403137-6.0307312-7.0086975c-0.6621094-3.3255615,1.0717773-6.9160156,3.9472351-8.1739502       c3.2983398-1.4439697,6.9780273,0.0974121,10.1669922,1.6552734       c8.0546875,3.9344482,17.1835938,8.3937988,23.2265625,15.9815979       c5.5429688,6.9613037,8.4077148,16.6618652,8.0664063,27.3148193       c-0.2099609,6.5552979-0.6958008,14.1621094-2.7070313,20.8779297       c-0.4316406,1.4404297-2.3710938,6.9454346-2.453125,7.1791992       C548.8640137,572.1175537,548.3673096,572.1986084,548.1251221,571.8804932z M513.0958252,499.651825       c-2.4618835,1.0771484-3.9408875,4.1794434-3.367157,7.0627441c0.5273438,2.651123,2.6147156,5.0598145,5.4477234,6.2860413       c2.0945435,0.9064331,4.362915,1.1689453,6.4619141,2.270752c11.0579224,5.8037109,1.0452271,17.8099976,0.987793,17.9119873       c-1.5028687,2.6687622-1.2026978,5.1358643,3.8120117,5.6307373c1.3095703,0.1292725,2.6635742,0.2629395,3.8115234,0.9136963       c3.2001343,1.8145142,2.99646,6.1830444,2.2426758,9.8131104c-0.5336914,2.5759277-1.0859375,5.239502,0.0869141,7.4046631       c1.081543,1.9958496,3.2451172,2.958252,5.5361328,3.9770508c2.2084351,0.9830933,3.4863281,0.9522095,10.2416992,9.6207275       c0.5795898-1.6541748,1.8100586-5.1866455,2.1333008-6.2650146c1.9785156-6.605835,2.4580078-14.131958,2.6660156-20.6229248       c0.3334961-10.4161377-2.4541016-19.8840332-7.8496094-26.65979       c-5.9023438-7.4112854-14.9238281-11.8181458-22.8828125-15.7062073       C519.5232544,499.8724976,516.0376587,498.3651123,513.0958252,499.651825z" class="color000000 svgShape"/><path d="M547.2027588,588.8166504c-0.2734375-0.0390625-0.4633789-0.2923584-0.4243164-0.5656738       c8.1269531-56.8878174-23.6518555-79.1225891-23.9736328-79.3404846       c-0.2285156-0.1547852-0.2885742-0.4656982-0.1337891-0.6943359c0.1547852-0.2288818,0.4663086-0.2880859,0.6943359-0.1337891       c0.3271484,0.2214355,32.6176758,22.8103333,24.4033203,80.309967       C547.7297974,588.6646118,547.4775391,588.855896,547.2027588,588.8166504z" class="color000000 svgShape"/><path fill="#7586c6" d="M561.2897949,572.2650146c2.5115356,0.0969849,5.2546387,0.8313599,7.3840332-0.5039063       c2.0175781-1.2651367,2.6196899-3.8584595,3.374939-6.1169434c0.755188-2.2585449,2.3139648-4.7391968,4.6953735-4.743042       c2.2521362-0.0036011,4.3901978,2.2908936,6.4464111,1.3721313c1.1993408-0.5358887,1.7196655-1.9890747,1.7215576-3.3027344       s-0.381897-2.6019897-0.4175415-3.9151611c-0.1091309-4.022522,3.6157227-7.7333374,7.6378174-7.6089478       c1.7927246,0.0554199,3.5056763,0.7560425,5.2892456,0.9453735c2.3880615,0.253479,4.9538574-0.5180664,6.5202026-2.3384399       c1.5663452-1.8203125,1.8858643-4.7303467,0.4437256-6.6505737c-1.6140137-2.1491699-4.6497803-2.4901123-7.3327026-2.6507568       c-7.4061279-0.4434814-15.0998535-0.8430176-21.9786987,1.9370728       c-7.0030518,2.8303223-12.4317627,8.7537842-15.9343262,15.4459229       c-2.5100708,4.7960205-4.1242676,10.0015259-5.3188477,15.2650757       c-0.2633667,1.1605225,0.6146851,4.3639526,0.6146851,4.3639526s-0.7530518-0.3482056,0.3952637-0.1553345       C557.0359497,573.9790649,559.0457764,572.1783447,561.2897949,572.2650146z" class="color75c675 svgShape"/><path d="M547.3175049,588.7873535c-0.2573242-0.1004639-0.3847656-0.3903809-0.2841797-0.647583       c16.684082-42.72229,46.3881836-46.7618408,46.6865234-46.7977295       c0.2792969-0.0341797,0.5224609,0.1628418,0.5556641,0.4365234c0.0332031,0.2740479-0.1621094,0.5230713-0.4360352,0.5562744       c-0.2924805,0.0355225-29.421875,4.038208-45.8745117,46.1687012       C547.8636475,588.7630005,547.5712891,588.887207,547.3175049,588.7873535z" class="color000000 svgShape"/><path fill="#d7e6fe" d="M538.2330933,582.640686c-1.4527588,0.2657471-2.996521,0.5236816-4.3693237-0.020813        c-3.0735474-1.2189331-3.8312988-5.7926025-6.9869995-6.77948c-1.7039185-0.5328369-3.508667,0.192627-5.2349243,0.6480103        c-1.7261963,0.4553223-3.8761597,0.5043335-4.9570313-0.9165649        c-1.3201904-1.7354126-0.1217041-4.4102173-1.1528931-6.3314209c-0.8047485-1.4992676-2.7506104-2.039978-4.4381409-1.8215942        c-1.687561,0.2184448-3.2337646,1.0206909-4.8393555,1.5841675c-1.6055908,0.5635376-3.4372253,0.8768311-4.9682007,0.1341553        c-1.9707947-0.9561157-2.8197021-3.5170288-2.230896-5.6268311c0.5888062-2.1098633,2.3424988-3.7437134,4.322937-4.6797485        c1.9804077-0.9359741,4.1860046-1.2668457,6.3611145-1.5258179c3.7450562-0.4459229,7.5426025-0.7106934,11.2826538-0.2245483        c6.2415771,0.8112793,12.1833496,3.7727661,16.5886841,8.2682495        c3.0305176,3.0925293,5.3200684,6.8967285,6.6768799,11.0060425c0.4439087,1.3444214-0.4012451,6.5858154-0.4012451,6.5858154        S539.9431152,582.3279419,538.2330933,582.640686z" class="colorcad5ff svgShape"/><path d="M546.8580322,588.5578613c-0.1494141-0.2780762-15.1625977-27.7889404-36.6112976-25.0123291        c-0.2753906,0.0349121-0.5249023-0.1577148-0.5605469-0.4316406        c-0.0351563-0.2738037,0.1582031-0.5245361,0.4316406-0.5600586        c22.1337585-2.8669434,37.4692078,25.2473145,37.6215515,25.5316162        c0.1303711,0.2434082,0.0385742,0.5463867-0.2045898,0.6768799        C547.2896118,588.8936768,546.9871216,588.7994995,546.8580322,588.5578613z" class="color000000 svgShape"/><path d="M556.1934814,588.8216553h-16.7485352c-0.2763672,0-0.5-0.223877-0.5-0.5s0.2236328-0.5,0.5-0.5h16.7485352       c0.2763672,0,0.5,0.223877,0.5,0.5S556.4698486,588.8216553,556.1934814,588.8216553z" class="color000000 svgShape"/></g><g class="color000000 svgShape"><rect width="20.057" height="20.057" x="569.56" y="338.438" fill="#aebfff" class="color76c4ff svgShape" transform="rotate(-52.42 579.588 348.467)"/><rect width="20.055" height="20.055" x="556.24" y="327.667" fill="#86b5ff" class="colorffa186 svgShape" transform="rotate(-.286 566.261 337.7)"/></g><g class="color000000 svgShape"><path d="M285.9322815,173.1752625c-0.1835938-0.0612793-0.2822266-0.2595215-0.2211914-0.4428711      c1.8174438-5.4415741-1.1148071-11.2099762-6.4868164-12.9328613      c-5.3833008-1.7264404-11.2314453,1.2705078-13.0380859,6.6794434      c-0.0615234,0.1832275-0.2602539,0.2822266-0.4428711,0.2211914c-0.1835938-0.0612793-0.2822266-0.2595215-0.2211914-0.4428711      c1.9277344-5.7717285,8.1704102-8.9669189,13.9160156-7.1242676c5.7625427,1.8484497,8.8720093,8.0265808,6.9370117,13.8210449      C286.3140564,173.1374512,286.1155701,173.2363739,285.9322815,173.1752625z" class="color000000 svgShape"/></g></svg>