<svg xmlns="http://www.w3.org/2000/svg" enable-background="new 0 0 4000 4000" viewBox="0 0 4000 4000"><path fill="none" d="M1633.9,2665.8c-31.2,68.6-57,151.1-77.5,240.2c114.8,24.4,219.9,74.8,308.8,145
		c52.5-370.1,36.1-747.7-160.3-1036.9C1737.2,2227.7,1717.4,2461.4,1633.9,2665.8z"/><path fill="none" d="M3371,2195.3c0,5.7-0.8,11.2-2.1,16.5c0,0.9,0,1.9,0,2.8c0,48.2-4.6,95.4-13.3,141.1h-847
		c7.6,11.9,12.3,25.7,13.2,40.7h929.2c2.5-42.8,36.7-77,79.5-79.5v-243.3c-42.8-2.5-77-36.7-79.5-79.5h-115
		c17.6,57.6,28.5,118.2,31.8,180.7C3369.9,2181.4,3371,2188.2,3371,2195.3z"/><path fill="none" d="M3310.1,3596.2c7-0.8,16.9-2.3,28.6-5c23.4-5.4,53.9-15.7,82.4-35.2c19-13,37-30,51.5-52.4
		c18.6-28.7,31.5-66.2,33-115.8c-40.1,8.3-72.4,24.7-98.5,45c-27.3,21.2-47.8,46.7-63,71.5c-24.5,39.9-35.1,77.8-38.5,92.3
		C3307,3596.6,3308.5,3596.4,3310.1,3596.2z"/><path fill="none" d="M2852.9,3596c-4-17.8-11.7-39.3-26.2-58.8c-9.7-13-22.4-25.1-39.2-34.8c-22.4-12.9-52.1-21.4-91.8-21.4
		c-3.2,0-6.5,0.1-9.9,0.2c-0.6,6-0.9,11.8-0.9,17.4c0,31.9,9.8,55.5,24.6,73.5c14.8,18,35,30.4,55.9,38.9
		c37.3,15.1,76.9,17.5,91.2,17.9V3618C2855.8,3611.9,2854.8,3604.4,2852.9,3596z"/><path fill="none" d="M3181.8,2986.9c0,112.8,28.6,212.4,58,285.1c21.2,52.3,42.9,90.6,54.7,109.9v-759.3
		C3210.2,2748.5,3181.9,2874.3,3181.8,2986.9z"/><path fill="none" d="M3313.2,3355.9c10.9-25.9,25.5-62.9,40-107.3c29.1-88.7,58.2-206.8,58.2-323.8c0-58.2-7.2-116.1-25-170.1
		c-16.9-51-43.2-98.5-82-139.6v761.2C3306.9,3370.5,3309.9,3363.7,3313.2,3355.9z"/><path fill="none" d="M3591.4,1940.2h-274c5.7,14.5,10.9,29.3,15.7,44.2h122.8c1.3,0,2.6,0.5,3.5,1.4c0.9,0.9,1.4,2.2,1.4,3.5
		c0,20.6,8.4,39.3,21.9,52.8c13.5,13.5,32.2,21.9,52.8,21.9c1.3,0,2.6,0.5,3.5,1.4c0.9,0.9,1.4,2.2,1.4,3.5v252.8
		c0,1.3-0.5,2.5-1.4,3.5s-2.2,1.4-3.5,1.4c-20.7,0-39.3,8.4-52.8,21.9c-13.5,13.5-21.9,32.2-21.9,52.8c0,1.3-0.5,2.5-1.4,3.5
		c-0.9,0.9-2.2,1.4-3.5,1.4h-938.8c-1.3,0-2.6-0.5-3.5-1.4c-0.9-0.9-1.4-2.2-1.4-3.5c0-17.2-5.8-33-15.5-45.6h-115.1v94.7h1209.7
		V1940.2z"/><path fill="none" d="M2780.1,3126.2c0,64.3,20.7,116,41.8,152.1c13,22.3,26.2,38.5,34.6,47.8v-418.6
		C2799.3,2990.6,2780.1,3064.3,2780.1,3126.2z"/><path fill="none" d="M2870.2,3316.5c7.3-12.9,17.1-31.4,26.8-54c19.5-45.3,39-106.9,39-172c0-32.7-4.9-66.3-17.1-99.3
		c-11-29.7-27.9-58.9-52.7-86.6v418.7C2867.5,3321.2,2868.8,3319,2870.2,3316.5z"/><path fill="none" d="M2926.9,3443.2c30.7-7.4,65.1-21.8,87.3-48.8c14.8-18,24.6-41.6,24.6-73.5c0-5.5-0.3-11.3-0.9-17.4
		c-3.4-0.1-6.7-0.2-9.9-0.2c-39.8,0-69.5,8.6-91.8,21.4c-22.4,12.9-37.5,30.2-47.9,48c-18.6,32-21.5,66.1-21.9,78.3
		C2876.2,3450.9,2900.1,3449.7,2926.9,3443.2z"/><rect width="89" height="89" x="2286.8" y="3423.9" fill="none"/><path fill="none" d="M680.9,2912c-10.8,10.8-17.5,25.8-17.5,42.3c0,16.5,6.7,31.5,17.5,42.3c10.8,10.8,25.8,17.5,42.3,17.5
		c16.5,0,31.5-6.7,42.3-17.5c10.8-10.8,17.5-25.8,17.5-42.3c0-16.5-6.7-31.5-17.5-42.3c-10.8-10.8-25.8-17.5-42.3-17.5
		C706.7,2894.4,691.8,2901.1,680.9,2912z"/><path fill="none" d="M2696.7,1339.1c-6.6,6.6-10.7,15.8-10.7,25.9c0,10.1,4.1,19.3,10.7,25.9c6.6,6.6,15.8,10.7,25.9,10.7
		c10.1,0,19.3-4.1,25.9-10.7c6.6-6.6,10.7-15.8,10.7-25.9c0-10.1-4.1-19.3-10.7-25.9c-6.6-6.6-15.8-10.7-25.9-10.7
		C2712.5,1328.4,2703.4,1332.5,2696.7,1339.1z"/><path fill="#fff" d="M1093,2106.8c-0.6,12.6-1.4,23.1-2.8,30.5c-1.8,17.9-3.3,33.9-3.3,46c0,5.6,0.3,10.4,1,14.1
		c0.7,3.7,1.8,6.2,2.7,7.4c1.1,1.4,2.4,2.5,3.6,3.2c1.2,0.7,2.4,1.1,3.6,1.1c1,0,2-0.2,3.3-0.9c1.3-0.7,2.8-1.8,4.5-3.7
		c3-3.3,6.3-8.9,9.6-17.4c0.4-1.1,0.8-2.2,1.3-3.4c0,0,0,0,0-0.1l12.1-40.8c0.8-2.6,3.5-4.1,6.1-3.3c2.6,0.8,4.1,3.5,3.3,6.1
		l-12.2,41c0,0,0,0.1,0,0.1c0,0,0,0.1,0,0.1c0,0.1-0.1,0.2-0.1,0.3c-3.2,7.9-4.6,16-4.6,23.2c0,4.8,0.6,9.2,1.6,12.7
		c1,3.5,2.4,6.1,3.7,7.4c0.8,0.9,1.4,1.1,1.8,1.2c1.5,0.3,3.6,0.5,5.9,0.5c5.1,0,11.4-1.2,17.1-5.6c5.7-4.4,11.2-12.1,14.2-26.4
		l7.4-47.5c0.4-2.7,2.9-4.5,5.6-4.1c2.7,0.4,4.5,2.9,4.1,5.6l-7.5,47.7c0,0,0,0,0,0.1c0,0,0,0.1,0,0.1c-0.2,1.1-0.4,3.2-0.4,5.9
		c0,4.6,0.6,10.8,2.2,16.5c1.6,5.7,4.2,10.8,7.7,13.7c2.3,1.9,4.9,3.1,8.6,3.2l0.5,0c2,0,3.7-0.4,5.5-1.3c1.8-0.8,3.5-2.1,5.2-3.7
		c3.4-3.2,6.5-7.9,8.9-12.7c4.7-9.2,7.3-19,7.7-20.9l4.1-48c0.2-2.7,2.6-4.7,5.3-4.5s4.7,2.6,4.5,5.3l-4.1,48.3l0,0l0,0.4
		c0,0.3,0,0.8,0,1.5c0,2.8,0.2,8.3,1.6,14c1.3,5.6,3.8,11.2,7.5,14.5c2.5,2.2,5.6,3.7,10.1,3.9l0.5,0c3.2,0,5.3-0.9,7.4-2.8
		c2.1-1.9,4-5,5.6-9.2c3.1-8.4,4.5-20.9,4.5-34.9c0-20.6-2.8-44.4-5.8-63.7c-3-19.3-6.2-34.3-6.9-37.4c-0.1-0.4-0.1-0.6-0.1-0.6
		c0,0,0,0,0,0c0,0,0,0,0,0l-4.9-22.1c-0.6-2.6,1.1-5.3,3.7-5.9c2.6-0.6,5.3,1.1,5.9,3.7l4.5,20.3c0.5,0.4,1.1,0.8,1.9,1.4
		c2.1,1.5,5.2,3.7,8.8,6.1c7.4,4.8,17.3,10.5,27.2,14.2c6.6,2.5,13.1,4.1,18.8,4c4,0,7.4-0.7,10.3-2.3c2.9-1.6,5.4-4,7.4-7.9
		c0.7-1.4,0.9-2.4,1-3.5c0-0.9-0.2-1.9-0.6-3.1c-0.4-1.2-1.2-2.5-2.2-4.1c-2-3-5.3-6.7-9.4-11c-8.2-8.6-19.8-19.7-32.4-35.3
		c-26.2-32.5-49.2-69.1-62.3-91.2c-20.1,9.8-41.3,16.5-63,20.9c-25.2,5.1-51.1,7.1-77,7.7c0.6,18,1.5,51,1.5,82.7
		C1093.7,2079.4,1093.5,2094.1,1093,2106.8z" class="colorffffff svgShape"/><path fill="#1c1c1c" d="M1232.2,1953.3c13.1,22.1,36.1,58.7,62.3,91.2c12.6,15.6,24.2,26.7,32.4,35.3c4.1,4.3,7.3,7.9,9.4,11
		c1,1.5,1.8,2.9,2.2,4.1c0.4,1.2,0.6,2.2,0.6,3.1c0,1.1-0.2,2.1-1,3.5c-2.1,3.9-4.6,6.3-7.4,7.9c-2.9,1.6-6.3,2.3-10.3,2.3
		c-5.6,0-12.2-1.6-18.8-4c-9.9-3.7-19.8-9.4-27.2-14.2c-3.7-2.4-6.7-4.5-8.8-6.1c-0.8-0.6-1.4-1-1.9-1.4l0.4,1.7
		c0.6,2.6-1.1,5.3-3.7,5.9c-2.6,0.6-5.3-1.1-5.8-3.7c0,0,0,0,0,0c0,0,0,0.2,0.1,0.6c0.7,3.2,3.9,18.1,6.9,37.4
		c3,19.3,5.8,43.1,5.8,63.7c0,13.9-1.3,26.5-4.5,34.9c-1.5,4.2-3.5,7.3-5.6,9.2c-2.1,1.9-4.2,2.8-7.4,2.8l-0.5,0
		c-4.5-0.3-7.5-1.7-10.1-3.9c-3.8-3.3-6.2-8.9-7.5-14.5c-1.3-5.6-1.6-11.1-1.6-14c0-0.6,0-1.1,0-1.5l0-0.4l0,0l0,0.1
		c-0.2,2.7-2.6,4.7-5.3,4.5s-4.7-2.6-4.5-5.3l0-0.4c-0.4,1.8-3,11.6-7.7,20.9c-2.5,4.8-5.5,9.5-8.9,12.7c-1.7,1.6-3.4,2.9-5.2,3.7
		c-1.8,0.8-3.6,1.3-5.5,1.3l-0.5,0c-3.7-0.2-6.3-1.3-8.6-3.2c-3.5-2.9-6.1-8-7.7-13.7c-1.6-5.7-2.2-11.9-2.2-16.5
		c0-2.6,0.2-4.8,0.4-5.9c0,0,0-0.1,0-0.1c-0.5,2.6-2.9,4.4-5.6,4c-2.7-0.4-4.5-2.9-4.1-5.6l0-0.2c-3.1,14.3-8.6,22-14.2,26.4
		c-5.7,4.4-11.9,5.6-17.1,5.6c-2.3,0-4.3-0.2-5.9-0.5c-0.4-0.1-1-0.3-1.8-1.2c-1.2-1.3-2.7-3.9-3.7-7.4c-1-3.5-1.6-7.9-1.6-12.7
		c0-7.2,1.4-15.4,4.6-23.2c0-0.1,0.1-0.2,0.1-0.3c0,0,0-0.1,0-0.1c-0.8,2.5-3.5,3.9-6.1,3.2c-2.6-0.8-4.1-3.5-3.3-6.1l0-0.2
		c0,0,0,0,0,0.1c-0.4,1.1-0.9,2.2-1.3,3.4c-3.3,8.5-6.7,14.1-9.6,17.4c-1.7,1.9-3.2,3-4.5,3.7c-1.3,0.7-2.3,0.9-3.3,0.9
		c-1.2,0-2.3-0.3-3.6-1.1c-1.2-0.7-2.5-1.8-3.6-3.2c-1-1.2-2.1-3.7-2.7-7.4c-0.7-3.7-1-8.5-1-14.1c0-12.1,1.5-28.1,3.3-46
		c1.4-7.4,2.3-17.9,2.8-30.5c0.5-12.7,0.8-27.3,0.8-42.3c0-31.7-0.9-64.7-1.5-82.7c-3.3,0.1-6.5,0.1-9.8,0.2
		c0.6,17.9,1.5,50.9,1.5,82.5c0,14.8-0.2,29.4-0.7,41.9c-0.5,12.5-1.4,23-2.7,29.3l-0.1,0.5c-1.8,18.1-3.4,34.2-3.4,47.2
		c0,6,0.3,11.3,1.2,15.9c0.9,4.6,2.2,8.6,4.8,11.8c1.7,2.1,3.8,4,6.2,5.5c2.5,1.4,5.4,2.4,8.5,2.4c2.6,0,5.3-0.7,7.8-2
		c2-1,3.9-2.5,5.7-4.3c0.2,6.6,1.4,12.6,3.4,17.5c1.2,2.7,2.6,5.1,4.4,7.1c1.8,2,4.2,3.5,7.1,4.1c2.1,0.4,4.7,0.7,7.7,0.7
		c6.7,0,15.3-1.6,23.1-7.6c3.4-2.6,6.6-6.1,9.4-10.5c0.7,3.3,1.8,6.7,3.2,10c1.9,4.4,4.6,8.6,8.4,11.8c3.8,3.2,8.8,5.4,14.6,5.6
		l0.1,0c0.2,0,0.5,0,0.8,0c3.6,0,7-0.9,10-2.3c5.3-2.6,9.4-6.7,12.8-11.3c2.9-4,5.2-8.3,7.2-12.5c0.4,1.3,0.8,2.6,1.3,3.9
		c1.8,4.6,4.4,9.1,8.5,12.7c4,3.6,9.5,6.1,16.1,6.4l0.1,0c0.3,0,0.6,0,0.9,0c5.4,0,10.3-2,14-5.4c2.8-2.5,4.9-5.7,6.6-9.3
		c2.5-5.4,4.2-11.8,5.2-18.9c1-7.1,1.4-14.9,1.4-23.1c0-22.9-3.3-48.8-6.6-69.1c-1.4-8.8-2.9-16.5-4-22.5c3.2,2.1,6.9,4.5,11,6.9
		c6.2,3.6,13.2,7.2,20.5,9.9c7.3,2.7,14.8,4.7,22.2,4.7c5.2,0,10.3-1,14.9-3.5c4.6-2.5,8.6-6.5,11.5-11.9c1.4-2.6,2.1-5.3,2.1-8.1
		c0-2.3-0.5-4.5-1.3-6.6c-1.4-3.7-3.7-7-6.6-10.5c-4.3-5.2-10.1-10.9-16.7-17.7c-6.7-6.8-14.3-14.9-22.2-24.8
		c-20-24.8-38.3-52.3-51.5-73.5c-3.7-5.9-6.9-11.3-9.8-16C1238.1,1950.3,1235.2,1951.8,1232.2,1953.3z" class="color000000 svgShape"/><linearGradient id="a" x1="830.19" x2="833.464" y1="1211.198" y2="1211.198" gradientTransform="scale(-529.6529 529.6529) rotate(-72.918 -402.995 1171.344)" gradientUnits="userSpaceOnUse"><stop class="stopColorfbd027 svgShape" offset="0" stop-color="#8aa2ff"/><stop class="stopColorfcefbc svgShape" offset="1" stop-color="#8b93e1"/></linearGradient><path fill="url(#a)" d="M1239.5,1597.1c-2.3,0.4-4.5-0.9-5.4-3c0-0.1-22.7-57.1-45.3-141.4c-9.1-33.9-18.2-72.3-25.8-113.1
		c-12,39.9-18.5,81.3-18.5,123.7c0,43.7,6.8,88.6,21.4,134.1c0.3,1.1,0.8,2.7,1.4,5c0.6,2.3,1.4,5.2,2.3,8.8
		c1.8,7.1,4.3,16.5,7.2,27.8c4.7,18.4,10.8,41.9,17.6,68.1l62.2-19.1c-3.2-27.4-6.3-58-9.3-92.2L1239.5,1597.1z"/><linearGradient id="b" x1="830.19" x2="833.464" y1="1209.912" y2="1209.912" gradientTransform="scale(-529.6529 529.6529) rotate(-72.918 -402.995 1171.344)" gradientUnits="userSpaceOnUse"><stop class="stopColorfbd027 svgShape" offset="0" stop-color="#8aa2ff"/><stop class="stopColorfcefbc svgShape" offset="1" stop-color="#8b93e1"/></linearGradient><path fill="url(#b)" d="M1699.2,638.3c-2.5,3.8-5.1,6.9-8.3,9c-10.4,7-22.6,9.4-34.5,9.4c-14.5,0-28.7-3.4-39.3-6.8
		c-5.4-1.7-9.8-3.4-13-4.7l-42.9,115.7c30.8,6.4,57.8,17.4,81.3,32.2c32.4,20.5,58.2,48.1,78.5,80.4c0,0,0,0,0,0
		c4.1,6.5,8,13.3,11.6,20.2c18.1,34.2,30.9,72.8,39.8,113.5c3.1,6,6.3,11.8,9.6,17.6c23.4,40.7,52.7,76.8,89.3,102.3l-159.4-518.9
		c-0.4,1.3-0.8,2.7-1.2,4C1707.3,622.8,1703.5,631.7,1699.2,638.3z"/><linearGradient id="c" x1="830.19" x2="833.464" y1="1210.925" y2="1210.925" gradientTransform="scale(-529.6529 529.6529) rotate(-72.918 -402.995 1171.344)" gradientUnits="userSpaceOnUse"><stop class="stopColorfbd027 svgShape" offset="0" stop-color="#8aa2ff"/><stop class="stopColorfcefbc svgShape" offset="1" stop-color="#8b93e1"/></linearGradient><path fill="url(#c)" d="M924.6,1457.9c0-125.6,41.3-252.8,107.2-365.9c62-106.3,145.7-200,237.8-268.1c5.5-4.2,11.1-8.3,17.1-12.2
		c0.2-0.2,0.5-0.4,0.7-0.5l0,0c0.2-0.1,0.4-0.2,0.6-0.3c2.3-1.5,4.5-3,6.9-4.4c35.4-21.7,78.1-37.6,129.4-45.9
		c0.3-0.4,0.7-0.9,1.1-1.6c1.5-2.1,3.6-5.4,6.2-9.8c5.3-8.8,12.5-22.3,20.6-40.6c13.7-31.3,29.6-76.9,41-137.8
		c-8.6-6.9-16.2-14.2-22.7-21.5c-24.2-26.9-34.5-52.7-34.6-53.1c-0.2-0.5-0.3-1.1-0.3-1.6c0-0.4,0-0.8,0-1.2c0-8.4,3-18.3,7.9-29.5
		c5-11.1,12.1-23.4,20.9-35.9c17.5-25.1,41.5-51.4,68.1-71.4c17.7-13.3,36.6-23.8,55.7-29.2c11.6-3.2,23.7-4.8,35.9-5.3l-18.9-61.5
		L398.8,631.2l370.7,1206.5l214.8-66c-24.2-78.9-45.7-166.2-55.6-246.6C925.9,1502.8,924.6,1480.4,924.6,1457.9z"/><linearGradient id="d" x1="830.19" x2="833.464" y1="1209.942" y2="1209.942" gradientTransform="scale(-529.6529 529.6529) rotate(-72.918 -402.995 1171.344)" gradientUnits="userSpaceOnUse"><stop class="stopColorfbd027 svgShape" offset="0" stop-color="#8aa2ff"/><stop class="stopColorfcefbc svgShape" offset="1" stop-color="#8b93e1"/></linearGradient><path fill="url(#d)" d="M1754.6,1498.7l17,31l204.2-62.8l-23-75c-60.8-6.1-120.8-27.6-171.8-57.8
		C1772.4,1412.7,1759.8,1474.7,1754.6,1498.7z"/><linearGradient id="e" x1="830.005" x2="833.279" y1="1210.442" y2="1210.442" gradientTransform="scale(427.5359 -427.5359) rotate(90 1026.55 186.284)" gradientUnits="userSpaceOnUse"><stop class="stopColorfbd027 svgShape" offset="0" stop-color="#8aa2ff"/><stop class="stopColorfcefbc svgShape" offset="1" stop-color="#8b93e1"/></linearGradient><path fill="url(#e)" d="M909.6,3214.9l65.9,135.1h19.8h89c1.3,0,2.6,0.5,3.5,1.4c0.9,0.9,1.4,2.2,1.4,3.5v548.6h174.9v-27.6v-208.7
		l-44.6,9.4c-47.4-287.1-11-537,36.2-773.4c-195.7,37.8-364.3,151.3-474.3,308.9h123.8C907,3212.2,908.7,3213.2,909.6,3214.9z"/><linearGradient id="f" x1="830.005" x2="833.279" y1="1208.032" y2="1208.032" gradientTransform="scale(427.5359 -427.5359) rotate(90 1026.55 186.284)" gradientUnits="userSpaceOnUse"><stop class="stopColorfbd027 svgShape" offset="0" stop-color="#8aa2ff"/><stop class="stopColorfcefbc svgShape" offset="1" stop-color="#8b93e1"/></linearGradient><path fill="url(#f)" d="M1956.3,3691c-0.1,0.1-0.3,0.2-0.4,0.3l-0.1,0.2c-0.4,0.6-1.2,2.8-1.2,7.6c0,4.3,0.7,10.7,2.8,19.9
		c29.4,5.8,55.4,12.9,78.3,20.7l4.5-6.1c1.6-2.2,4.7-2.7,6.9-1.1c2.2,1.6,2.7,4.7,1.1,6.9l-2.7,3.7c20.8,7.7,38.9,16,54.6,24.8
		l5.7-6.3c1.8-2,4.9-2.2,6.9-0.3c2,1.8,2.2,4.9,0.3,6.9l-4.3,4.7c10.8,6.5,20.3,13.2,28.8,19.9c9.8-48.5,15-98.7,15-150.2
		c0-110.4-23.7-215.2-66.4-309.7c-37.7,130.3-76.6,254.9-108.6,366.7L1956.3,3691z"/><linearGradient id="g" x1="830.005" x2="833.279" y1="1210.915" y2="1210.915" gradientTransform="scale(427.5359 -427.5359) rotate(90 1026.55 186.284)" gradientUnits="userSpaceOnUse"><stop class="stopColorfbd027 svgShape" offset="0" stop-color="#8aa2ff"/><stop class="stopColorfcefbc svgShape" offset="1" stop-color="#8b93e1"/></linearGradient><polygon fill="url(#g)" points="849.9 3256.2 782.6 3256.2 749.1 3350 892 3350"/><linearGradient id="h" x1="830.005" x2="833.279" y1="1208.92" y2="1208.92" gradientTransform="scale(427.5359 -427.5359) rotate(90 1026.55 186.284)" gradientUnits="userSpaceOnUse"><stop class="stopColorfbd027 svgShape" offset="0" stop-color="#8aa2ff"/><stop class="stopColorfcefbc svgShape" offset="1" stop-color="#8b93e1"/></linearGradient><path fill="url(#h)" d="M1502.6,3616.9l-21,4.4l27.5,62.6c0.1,0.1,0.1,0.1,0.2,0.2c0.8,0.6,2,1.5,3.6,2.6c3.1,2.3,7.7,5.5,13.2,9.1
		c11,7.3,25.9,16.6,41.7,24.5c1,0.2,2,0.4,3,0.7l3.3-6.7c1.2-2.4,4.1-3.4,6.6-2.3c2.4,1.2,3.4,4.1,2.3,6.6l-2.2,4.5
		c18.6,4.4,35.4,9.6,50.8,15.4l2.1-4.4c1.2-2.4,4.1-3.5,6.6-2.3c2.4,1.2,3.5,4.1,2.3,6.6l-1.8,3.7c14.4,5.9,27.4,12.4,39,19.3
		l7.2-9.7c1.6-2.2,4.7-2.6,6.9-1c2.2,1.6,2.6,4.7,1,6.9l-6.7,9c7.5,4.8,14.4,9.7,20.7,14.7c5.1-35.7,12.4-69,19.8-97
		c10.1-38.4,20.2-66.8,24.4-78.1l-8.4-3.5c48.4-173.3,93.6-361.7,120.6-552c-88.9-70.1-194-120.6-308.8-145
		C1502.5,3140.2,1485.2,3420.5,1502.6,3616.9z"/><linearGradient id="i" x1="833.443" x2="836.717" y1="1144.266" y2="1144.266" gradientTransform="matrix(0 -79.2689 -79.2689 0 94108.648 70063.18)" gradientUnits="userSpaceOnUse"><stop class="stopColorfbd027 svgShape" offset="0" stop-color="#8aa2ff"/><stop class="stopColorfcefbc svgShape" offset="1" stop-color="#8b93e1"/></linearGradient><path fill="url(#i)" d="M3503.4,3903.5c-25.5-51.8-97.6-97.3-199.1-130.1v130.1H3503.4z"/><linearGradient id="j" x1="833.443" x2="836.717" y1="1148.347" y2="1148.347" gradientTransform="matrix(0 -79.2689 -79.2689 0 94108.648 70063.18)" gradientUnits="userSpaceOnUse"><stop class="stopColorfbd027 svgShape" offset="0" stop-color="#8aa2ff"/><stop class="stopColorfcefbc svgShape" offset="1" stop-color="#8b93e1"/></linearGradient><path fill="url(#j)" d="M3294.6,3903.5v-133.2c-102.5-31.7-233.4-50.8-376-50.8c-17.6,0-35,0.3-52.2,0.9v183.1H3294.6z"/><linearGradient id="k" x1="833.443" x2="836.717" y1="1154.47" y2="1154.47" gradientTransform="matrix(0 -79.2689 -79.2689 0 94108.648 70063.18)" gradientUnits="userSpaceOnUse"><stop class="stopColorfbd027 svgShape" offset="0" stop-color="#8aa2ff"/><stop class="stopColorfcefbc svgShape" offset="1" stop-color="#8b93e1"/></linearGradient><path fill="url(#k)" d="M2856.5,3720.7c-262.9,10.3-474.9,85.6-522.9,182.8h522.9V3720.7z"/><linearGradient id="l" x1="832.988" x2="836.262" y1="1204.869" y2="1204.869" gradientTransform="scale(375.2728 -375.2728) rotate(90 1026.606 186.221)" gradientUnits="userSpaceOnUse"><stop class="stopColorfbd027 svgShape" offset="0" stop-color="#8aa2ff"/><stop class="stopColorfcefbc svgShape" offset="1" stop-color="#8b93e1"/></linearGradient><path fill="url(#l)" d="M2986.5,2305.7c30.5,0,58.1-12.4,78.1-32.3c20-20,32.3-47.6,32.3-78.1c0-30.5-12.4-58.1-32.3-78.1
		c-20-20-47.6-32.3-78.1-32.3c-30.5,0-58.1,12.4-78.1,32.3c-20,20-32.3,47.6-32.3,78.1c0,30.5,12.4,58.1,32.3,78.1
		C2928.4,2293.4,2956,2305.7,2986.5,2305.7z"/><linearGradient id="m" x1="832.988" x2="836.262" y1="1205.708" y2="1205.708" gradientTransform="scale(375.2728 -375.2728) rotate(90 1026.606 186.221)" gradientUnits="userSpaceOnUse"><stop class="stopColorfbd027 svgShape" offset="0" stop-color="#8aa2ff"/><stop class="stopColorfcefbc svgShape" offset="1" stop-color="#8b93e1"/></linearGradient><path fill="url(#m)" d="M2629.3,2237.4c10.8,10.8,25.6,17.4,42.1,17.4c16.4,0,31.3-6.7,42.1-17.4c10.8-10.8,17.4-25.6,17.4-42.1
		c0-16.4-6.7-31.3-17.4-42.1c-10.8-10.8-25.6-17.4-42.1-17.4c-16.4,0-31.3,6.7-42.1,17.4c-10.8,10.8-17.4,25.6-17.4,42.1
		C2611.8,2211.8,2618.5,2226.6,2629.3,2237.4z"/><linearGradient id="n" x1="832.988" x2="836.262" y1="1205.213" y2="1205.213" gradientTransform="scale(375.2728 -375.2728) rotate(90 1026.606 186.221)" gradientUnits="userSpaceOnUse"><stop class="stopColorfbd027 svgShape" offset="0" stop-color="#8aa2ff"/><stop class="stopColorfcefbc svgShape" offset="1" stop-color="#8b93e1"/></linearGradient><path fill="url(#n)" d="M2490.3,2348.5c-13.5-13.5-32.2-21.9-52.8-21.9c-1.3,0-2.6-0.5-3.5-1.4c-0.9-0.9-1.4-2.2-1.4-3.5v-252.8
		c0-1.3,0.5-2.6,1.4-3.5c0.9-0.9,2.2-1.4,3.5-1.4c20.6,0,39.3-8.4,52.8-21.9c13.5-13.5,21.9-32.2,21.9-52.8c0-1.3,0.5-2.6,1.4-3.5
		c0.9-0.9,2.2-1.4,3.5-1.4h816c-4.8-14.9-10-29.7-15.7-44.2h-935.8v415.6h115.1C2494.7,2353.2,2492.6,2350.8,2490.3,2348.5z"/><linearGradient id="o" x1="832.988" x2="836.262" y1="1205.743" y2="1205.743" gradientTransform="scale(375.2728 -375.2728) rotate(90 1026.606 186.221)" gradientUnits="userSpaceOnUse"><stop class="stopColorfbd027 svgShape" offset="0" stop-color="#8aa2ff"/><stop class="stopColorfcefbc svgShape" offset="1" stop-color="#8b93e1"/></linearGradient><path fill="url(#o)" d="M2373.2,1931.8c0.9-0.9,2.2-1.4,3.5-1.4h936.7c-112.2-275-382.2-468.9-697.5-468.9
		c-252.5,0-476,124.4-612.6,315.2c110.7,165.1,178.5,367.1,215.2,579.1h153.3v-420.5C2371.8,1933.9,2372.3,1932.7,2373.2,1931.8z"/><linearGradient id="p" x1="832.988" x2="836.262" y1="1205.084" y2="1205.084" gradientTransform="scale(375.2728 -375.2728) rotate(90 1026.606 186.221)" gradientUnits="userSpaceOnUse"><stop class="stopColorfbd027 svgShape" offset="0" stop-color="#8aa2ff"/><stop class="stopColorfcefbc svgShape" offset="1" stop-color="#8b93e1"/></linearGradient><path fill="url(#p)" d="M2442.4,2073.7v243.3c27.9,1.6,52.1,16.7,66.3,38.8h847c8.7-45.7,13.3-92.9,13.3-141.1c0-0.9,0-1.9,0-2.8
		c-7.4,30.3-34.7,52.8-67.3,52.8c-38.3,0-69.3-31-69.3-69.3c0-38.3,31-69.3,69.3-69.3c31.2,0,57.6,20.6,66.3,49
		c-3.2-62.6-14.2-123.1-31.8-180.7h-814.3C2519.4,2037,2485.2,2071.2,2442.4,2073.7z M2986.5,2075.1c66.4,0,120.2,53.8,120.2,120.2
		c0,66.4-53.8,120.2-120.2,120.2c-66.4,0-120.2-53.8-120.2-120.2C2866.3,2128.9,2920.1,2075.1,2986.5,2075.1z M2671.3,2126
		c38.3,0,69.3,31,69.3,69.3c0,38.3-31,69.3-69.3,69.3c-38.3,0-69.3-31-69.3-69.3C2602,2157,2633.1,2126,2671.3,2126z"/><linearGradient id="q" x1="832.988" x2="836.262" y1="1204.029" y2="1204.029" gradientTransform="scale(375.2728 -375.2728) rotate(90 1026.606 186.221)" gradientUnits="userSpaceOnUse"><stop class="stopColorfbd027 svgShape" offset="0" stop-color="#8aa2ff"/><stop class="stopColorfcefbc svgShape" offset="1" stop-color="#8b93e1"/></linearGradient><path fill="url(#q)" d="M3301.7,2135.8c-16.4,0-31.3,6.7-42.1,17.4c-10.8,10.8-17.4,25.6-17.4,42.1c0,16.4,6.7,31.3,17.4,42.1
		c10.8,10.8,25.6,17.4,42.1,17.4c16.4,0,31.3-6.7,42.1-17.4c10.8-10.8,17.4-25.6,17.4-42.1c0-16.4-6.7-31.3-17.4-42.1
		C3332.9,2142.5,3318.1,2135.8,3301.7,2135.8z"/><path fill="#fff" d="M2281.5,632.1c-4.5,3.1-9,5.8-13.3,7.5c-2.5,1-4.9,1.6-7.5,1.6c-1.3,0-2.6-0.2-4-0.7
		c-3.7-1.4-7.1-3.7-10.2-6.5c-3-2.8-5.6-6.2-7.3-10c-1.1-2.5-1.8-5.3-1.8-8.2c0-1.8,0.3-3.7,1-5.5c-0.8-0.1-1.6-0.3-2.4-0.4
		c-1.5-0.4-2.9-0.8-4.2-1.4c0,7.8-0.7,17.4-2.8,26.8c-2.1,9.4-5.6,18.5-11.9,25.1c-4.2,4.4-9.8,7.5-16.6,8c-2.7,0.2-5.1-1.8-5.3-4.5
		c-0.2-2.7,1.8-5.1,4.5-5.3c0.1,0,0.1,0,0.2,0l-3-114.8c-1.5-1.1-2.6-2.4-3.3-3.7c-1.8-3.2-2-6.3-2-8.3c0-1.3,0.1-2.1,0.1-2.3l0,0
		c0.4-2.7,2.9-4.5,5.6-4.2c2.7,0.4,4.5,2.9,4.2,5.5l0,0l0,0l0,0.2c0,0.2,0,0.4,0,0.8c0,0.6,0.1,1.4,0.2,2.1c0.2,0.7,0.4,1.3,0.7,1.6
		l0.6,0.6c0.3,0.2,0.9,0.4,2,0.5l0.2,0c0.2,0,0.5-0.1,0.9-0.3c0.8-0.3,1.8-0.9,3.1-1.6c2.5-1.5,5.6-3.7,9-6.2
		c6.8-5,14.8-11.1,22.5-15.4c4.4-2.4,8.8-4.3,13.3-4.9l20.8-10.6c0.1,0,0.1,0,0.2-0.1c0.1,0,0.1-0.1,0.2-0.1l0.3-0.1
		c0.2-0.1,0.5-0.2,1-0.4c0.9-0.4,2.1-0.9,3.7-1.6c3.1-1.4,7.5-3.5,12.6-6c10.1-5,22.8-12,32.9-19.3c6.7-4.8,12.3-9.9,15.1-14.2
		c1.6-2.4,2.3-4.5,2.2-6c0-0.9-0.2-1.6-0.6-2.5c-0.6-1.1-1.6-2-3.6-2.9c-2-0.8-4.9-1.3-8.6-1.3c-7.1,0-16.8,1.8-27.8,5.3
		c-11,3.4-23.4,8.5-36.2,14.7c-25.6,12.4-52.7,29.7-73.8,48.6c-6.7,6-12.5,15.5-17.2,27.4c-4.6,11.9-8.2,26.1-10.8,41.4
		c-5.2,30.6-6.7,65.3-6.7,94.4c0,10.8,0.2,20.8,0.5,29.6h98.2c8.7-31.3,21-58,30.5-76.1C2285,629.6,2283.2,630.9,2281.5,632.1z" class="colorffffff svgShape"/><path fill="#fff" d="M2244.6,569.9c-1.3,2.2-2.7,4.3-3.9,6.3c-3.7,6.1-6.8,11.7-8.4,15.7c-0.6,1.3-0.9,2.4-1.1,3.3
		c1.1,0.7,1.8,1.8,2.1,3.1c0.4,0.3,1.2,0.7,2.2,1.1c2.2,0.9,5.5,1.5,7.9,1.5l0.1,0c0.3-0.1,0.9-0.3,1.6-0.7c1.4-0.6,3.3-1.7,5.6-2.9
		c4.5-2.5,10.1-6,16-9.8c11.6-7.5,23.9-15.8,28.7-19.1c1.4-0.9,2.2-1.5,2.2-1.5l0,0c0.3-0.2,0.5-0.3,0.9-0.5c0,0,0,0,0,0
		c0,0,0,0,0,0c0.1,0,0.5-0.2,1.1-0.4c0.1,0,0.2-0.1,0.3-0.1c0.7-0.3,1.7-0.7,2.8-1.4c2.2-1.2,4.7-3.2,6.1-5.4c1-1.5,1.5-3.1,1.5-5.2
		c0-1.9-0.5-4.3-2.1-7.3c-0.4-0.8-0.9-1.3-1.6-1.9c-0.7-0.5-1.6-1-2.6-1.4c-2.1-0.8-4.9-1.1-7.5-1.1c-3,0-5.8,0.4-7.1,0.6
		l-41.1,26.2C2247.1,570,2245.8,570.2,2244.6,569.9z" class="colorffffff svgShape"/><path fill="#fff" d="M2268.2,515c0.7,1.7,0.9,3.4,0.9,5c0,4-1.3,8.1-3.1,12.5c-1.8,4.4-4.3,9.2-7.2,14.1c-1.3,2.2-2.7,4.5-4,6.8
		l30-19.1l0,0l0.1-0.1l0.6-0.4c0.5-0.4,1.2-1,2-1.8c1.6-1.6,3.5-3.9,4.7-6.7c0.8-1.9,1.3-4,1.3-6.4c0-1.3-0.2-2.8-0.6-4.4
		c-0.5-2-1.2-3.4-2-4.5c-0.8-1.1-1.6-1.8-2.6-2.3c-1.9-1.1-4.3-1.5-6.5-1.5c-1.5,0-2.8,0.2-3.4,0.3l-11.7,5.9
		C2267.4,513.3,2267.9,514.1,2268.2,515z" class="colorffffff svgShape"/><path fill="#fff" d="M2252.6,607.6c-0.3,1-0.9,1.8-1.9,2.5c-1.5,1-2.3,2-2.8,2.9c-0.5,0.9-0.7,1.8-0.7,2.9c0,1.2,0.3,2.6,1,4.2
		c0.7,1.5,1.7,3.1,3,4.6c2.5,3,6.1,5.6,9,6.6c0,0,0.1,0.1,0.5,0.1c0.6,0,1.9-0.2,3.6-0.8c1.6-0.6,3.5-1.5,5.6-2.7
		c4.1-2.4,8.8-5.7,13.2-9.1c8.9-6.9,16.7-14.3,18.4-15.9l0.3-0.3l0,0c0,0,0,0,0,0c0.3-0.3,0.6-0.5,1-0.7l0,0l0.1,0l0.3-0.2
		c0.2-0.1,0.6-0.4,1.1-0.6c0.9-0.6,2.2-1.4,3.6-2.5c2.8-2.1,6.2-5.1,8.1-8c1.3-2,1.9-3.8,1.9-5.2l0-0.7c-0.5-3.8-1.6-6-2.6-7.3
		c-1.1-1.3-2.2-2-3.5-2.4c-0.9-0.3-1.9-0.4-3-0.4c-2.3,0-4.5,0.6-5.7,1c-0.1,0.1-0.3,0.1-0.4,0.1c-3.4,2.3-24.3,16.7-40,26.3
		C2258.9,604.1,2255.5,606,2252.6,607.6z" class="colorffffff svgShape"/><path fill="#1c1c1c" d="M2298.4,566.6C2298.4,566.6,2298.4,566.6,2298.4,566.6c-0.3,0.1-0.6,0.3-0.9,0.5l0,0
		C2297.8,566.9,2298.1,566.7,2298.4,566.6z" class="color000000 svgShape"/><path fill="#1c1c1c" d="M2158,704.4c-0.3-8.8-0.5-18.8-0.5-29.6c0-29.1,1.5-63.8,6.7-94.4c2.6-15.3,6.1-29.5,10.8-41.4
		c4.6-11.9,10.4-21.4,17.2-27.4c21.1-18.8,48.2-36.1,73.8-48.6c12.8-6.2,25.2-11.3,36.2-14.7c11-3.5,20.7-5.3,27.8-5.3
		c3.7,0,6.6,0.5,8.6,1.3c2,0.8,2.9,1.7,3.6,2.9c0.4,0.9,0.6,1.6,0.6,2.5c0,1.5-0.6,3.5-2.2,6c-2.8,4.3-8.3,9.4-15.1,14.2
		c-10.1,7.3-22.8,14.2-32.9,19.3c-5,2.5-9.5,4.6-12.6,6c-1.6,0.7-2.8,1.3-3.7,1.6c-0.4,0.2-0.8,0.3-1,0.4l-0.3,0.1
		c-0.1,0-0.1,0.1-0.2,0.1c2.4-1.1,5.2-0.2,6.4,2.2c1.2,2.4,0.3,5.4-2.2,6.6l-0.6,0.3c0.6-0.1,1.9-0.3,3.4-0.3c2.1,0,4.6,0.4,6.5,1.5
		c1,0.6,1.8,1.3,2.6,2.3c0.8,1.1,1.5,2.5,2,4.5c0.4,1.6,0.6,3,0.6,4.4c0,2.4-0.5,4.5-1.3,6.4c-1.2,2.8-3.1,5.2-4.7,6.7
		c-0.8,0.8-1.5,1.4-2,1.8l-0.6,0.4l-0.1,0.1l0,0l0,0c2.3-1.5,5.3-0.8,6.8,1.5c1.5,2.3,0.8,5.3-1.5,6.8l-0.8,0.5
		c1.3-0.2,4.1-0.6,7.1-0.6c2.6,0,5.4,0.3,7.5,1.1c1.1,0.4,1.9,0.8,2.6,1.4c0.7,0.5,1.2,1.1,1.6,1.9c1.6,3,2.1,5.4,2.1,7.3
		c0,2.1-0.6,3.7-1.5,5.2c-1.4,2.3-3.9,4.2-6.1,5.4c-1.1,0.6-2.1,1.1-2.8,1.4c-0.1,0.1-0.2,0.1-0.3,0.1c-0.6,0.2-1,0.4-1.1,0.4
		c2.1-0.9,4.6-0.2,5.9,1.7c1.5,2.2,1,5.3-1.2,6.8c0,0-0.2,0.2-0.5,0.4c0.1,0,0.2-0.1,0.4-0.1c1.1-0.4,3.4-1,5.7-1c1,0,2.1,0.1,3,0.4
		c1.4,0.4,2.5,1.1,3.5,2.4c1,1.3,2.1,3.5,2.6,7.3l0,0.7c0,1.5-0.6,3.3-1.9,5.2c-1.9,2.9-5.3,5.9-8.1,8c-1.4,1.1-2.7,1.9-3.6,2.5
		c-0.5,0.3-0.8,0.5-1.1,0.6l-0.3,0.2l-0.1,0l0,0c-0.4,0.2-0.7,0.5-1,0.7c2-1.9,5-1.8,6.9,0.1c1.9,2,1.8,5.1-0.1,6.9
		c-0.1,0.1-10.4,10-22,18.8c-9.5,18.1-21.8,44.8-30.5,76.1h10.2c6.3-21.9,14.4-41.5,21.8-57.2c5.7-11.9,11-21.6,14.8-28.2
		c1.9-3.3,3.5-5.9,4.6-7.6c0.4-0.7,0.8-1.3,1.1-1.7c1.7-1,5-3.2,8.5-6.2c2.4-2.1,4.9-4.6,6.9-7.6c2-3,3.5-6.6,3.6-10.7
		c0-0.7,0-1.3-0.1-2c-0.4-3.4-1.3-6.3-2.5-8.7c-1.8-3.7-4.6-6.4-7.6-7.9c-0.5-0.2-0.9-0.4-1.4-0.6c0.3-0.4,0.7-0.9,1-1.4
		c1.8-2.8,3.1-6.4,3.1-10.5c0-3.7-1-7.7-3.2-11.8c-1.1-2.1-2.6-3.8-4.3-5.1c-2.5-2-5.4-3-8.1-3.7c-1.7-0.4-3.4-0.6-5.1-0.7
		c0.7-1.1,1.3-2.3,1.9-3.6c1.2-2.9,2.1-6.4,2.1-10.2c0-2.1-0.3-4.4-0.8-6.7c-0.8-3.1-2-5.8-3.6-7.9c-1.5-2.1-3.3-3.6-5.2-4.7
		c6.1-3,13.5-6.8,21-11.1c9-5.2,18.1-11.2,25.1-17.5c3.5-3.2,6.6-6.4,8.8-9.9c2.3-3.5,3.8-7.2,3.8-11.3c0-2.4-0.6-4.8-1.8-7.1
		c-1.8-3.5-5-6-8.6-7.4c-3.6-1.4-7.7-2-12.2-2c-8.7,0-19.1,2.1-30.7,5.7c-34.9,10.9-80.6,35.9-113.6,65.3
		c-8.4,7.6-14.8,18.4-19.8,31.1c-7.5,19.2-11.9,42.9-14.6,67.4c-2.7,24.5-3.5,49.8-3.5,71.9c0,10.8,0.2,20.8,0.5,29.6H2158z" class="color000000 svgShape"/><path fill="#fff" d="M1702.2,3871c0-0.5,0-1.1,0-1.6c0-25.9,1.9-51.7,5.1-76.5c-7.5-6.2-15.8-12.4-25.1-18.2l-12.1,16.4
		c-1.6,2.2-4.7,2.6-6.9,1c-2.2-1.6-2.6-4.7-1-6.9l11.6-15.7c-11.2-6.5-23.6-12.7-37.4-18.4l-15.3,31.6c-1.2,2.4-4.1,3.5-6.6,2.3
		c-2.4-1.2-3.5-4.1-2.3-6.6l14.9-30.9c-15.3-5.8-32.2-10.9-50.9-15.2l-16.9,34.7c-1.2,2.4-4.1,3.4-6.6,2.3c-2.4-1.2-3.4-4.1-2.3-6.6
		l15.9-32.6c-0.4-0.1-0.8-0.2-1.2-0.3c-0.4-0.1-0.8-0.2-1.2-0.4c-33.1-16.6-61.7-38.4-61.8-38.5c-0.7-0.5-1.2-1.2-1.5-1.9
		l-28.8-65.7l-197.9,41.7V3871H1702.2z" class="colorffffff svgShape"/><path fill="#1c1c1c" d="M1269,3871h4.9v-205.9l-9.8,2.1v208.7c0-1.3,0.5-2.6,1.4-3.5C1266.5,3871.5,1267.7,3871,1269,3871z" class="color000000 svgShape"/><path fill="#1c1c1c" d="M1502.2,3691.1c0.1,0.1,28.8,21.9,61.8,38.5c0.4,0.2,0.8,0.3,1.2,0.4c0.4,0.1,0.8,0.2,1.2,0.3l4.4-9.1
		c-1-0.2-1.9-0.4-3-0.7c-15.8-8-30.7-17.2-41.7-24.5c-5.5-3.7-10.1-6.9-13.2-9.1c-1.6-1.1-2.8-2-3.6-2.6c-0.1-0.1-0.1-0.1-0.2-0.2
		l-27.5-62.6l-9.8,2.1l28.8,65.7C1501,3689.9,1501.5,3690.6,1502.2,3691.1z" class="color000000 svgShape"/><path fill="#1c1c1c" d="M1576.3,3732.4c18.7,4.3,35.6,9.5,50.9,15.2l4.3-8.9c-15.4-5.8-32.2-11-50.8-15.4L1576.3,3732.4z" class="color000000 svgShape"/><path fill="#1c1c1c" d="M1636.4,3751.2c13.8,5.7,26.3,11.8,37.4,18.4l5.9-7.9c-11.7-6.9-24.6-13.4-39-19.3L1636.4,3751.2z" class="color000000 svgShape"/><path fill="#1c1c1c" d="M1682.2,3774.7c9.3,5.9,17.6,12,25.1,18.2c0.5-3.8,1-7.6,1.5-11.4c-6.3-5-13.3-10-20.7-14.7L1682.2,3774.7z" class="color000000 svgShape"/><path fill="#1c1c1c" d="M1273.9,3903.5h429.5c-0.5-7.5-0.9-15.1-1.1-22.7h-428.4L1273.9,3903.5z" class="color000000 svgShape"/><path fill="#1c1c1c" d="M1702.2,3871h-428.3h-4.9c-1.3,0-2.6,0.5-3.5,1.4c-0.9,0.9-1.4,2.2-1.4,3.5v27.6h9.8l0-22.7h428.4c0,0,0-0.1,0-0.1
		c0,0,0,0,0,0C1702.3,3877.5,1702.2,3874.2,1702.2,3871z" class="color000000 svgShape"/><path fill="#fff" d="M1756,3627.3c-4.9,14.4-11.4,35-17.9,59.8c-13,49.5-26.1,115.8-26.1,182.4c0,2.1,0,4.2,0.1,6.3H2188
		c-6.6-18.5-19.9-42.8-47.4-67.2l-13.6,15.2c-1.8,2-4.9,2.2-6.9,0.4c-2-1.8-2.2-4.9-0.4-6.9l13.5-15c-9-7.3-19.4-14.6-31.4-21.7
		l-17.5,19.3c-1.8,2-4.9,2.2-6.9,0.3c-2-1.8-2.2-4.9-0.3-6.9l16-17.7c-15.5-8.5-33.3-16.6-53.9-24.1l-18.2,24.8
		c-1.6,2.2-4.7,2.7-6.9,1.1s-2.7-4.7-1.1-6.9l16.4-22.3c-22.5-7.6-48.1-14.4-77.2-20c-1.9-0.4-3.4-1.8-3.8-3.6
		c-2.8-11.3-3.8-19.4-3.8-25.2c0-4.2,0.5-7.3,1.3-9.7l-139.8-60.8l-44.1-18.3c0,0.1-0.1,0.2-0.1,0.4
		C1760.5,3614.5,1758.5,3620.1,1756,3627.3z" class="colorffffff svgShape"/><path fill="#1c1c1c" d="M1708.8,3781.5c-0.5,3.8-1,7.6-1.5,11.4c-3.1,24.8-5.1,50.6-5.1,76.5c0,0.5,0,1.1,0,1.6c0,3.2,0,6.5,0.1,9.7c0,0,0,0,0,0
		c0,0,0,0,0,0c0-1.3,0.5-2.6,1.4-3.5c0.9-0.9,2.2-1.5,3.5-1.5h4.9c0-2.1-0.1-4.2-0.1-6.3c0-66.6,13-132.8,26.1-182.4
		c6.5-24.8,13-45.4,17.9-59.8c2.4-7.2,4.5-12.8,5.9-16.7c0.1-0.1,0.1-0.2,0.1-0.4l-9.1-3.8c-4.2,11.3-14.3,39.7-24.4,78.1
		C1721.2,3712.5,1713.9,3745.8,1708.8,3781.5z" class="color000000 svgShape"/><path fill="#1c1c1c" d="M2101.7,3780.4c11.9,7.1,22.3,14.4,31.4,21.7l6.6-7.3c-0.8-0.7-1.6-1.3-2.4-2c-8.5-6.7-18.1-13.4-28.8-19.9L2101.7,3780.4z
		" class="color000000 svgShape"/><path fill="#1c1c1c" d="M2140.6,3808.5c27.4,24.3,40.8,48.6,47.4,67.2h6.8c2.2,0,4.1,1.4,4.7,3.5c-6.1-20.6-20.3-49.6-52.3-78L2140.6,3808.5z" class="color000000 svgShape"/><path fill="#1c1c1c" d="M2039.1,3751.3c20.6,7.4,38.4,15.6,53.9,24.1l6.8-7.5c-15.7-8.8-33.8-17.2-54.6-24.8L2039.1,3751.3z" class="color000000 svgShape"/><path fill="#1c1c1c" d="M1944.6,3699.1c0,5.9,1,13.9,3.8,25.2c0.5,1.9,2,3.3,3.8,3.6c29.1,5.6,54.7,12.4,77.2,20l6.1-8.3
		c-22.9-7.9-48.8-14.9-78.3-20.7c-2.1-9.1-2.8-15.6-2.8-19.9c0-4.8,0.8-6.9,1.2-7.6l0.1-0.2c0.2-0.1,0.3-0.2,0.4-0.3l-150.1-62.4
		l139.8,60.8C1945.1,3691.8,1944.6,3694.9,1944.6,3699.1z" class="color000000 svgShape"/><path fill="#1c1c1c" d="M2194.2,3903.5c-0.3-3.9-1.1-10.1-3.2-18h-478.7c0.2,6,0.5,12,0.9,18h7.2C1840.6,3903.5,2151,3903.5,2194.2,3903.5z" class="color000000 svgShape"/><path fill="#1c1c1c" d="M2194.8,3875.7h-6.8h-475.9h-4.9c-1.3,0-2.6,0.5-3.5,1.5c-0.9,0.9-1.4,2.2-1.4,3.5c0,0,0,0,0,0c0,0,0,0.1,0,0.1
		c0.2,7.6,0.6,15.1,1.1,22.7h5.3h4.6c-0.4-6-0.7-12-0.9-18H2191c2.1,7.9,2.9,14.1,3.2,18c-43.2,0-353.6,0-473.7,0h57.4h420.3
		c0.7,0,1.1,0,1.1,0h4.8c-0.3-5.1-1.4-13.5-4.6-24.3C2198.9,3877.1,2197,3875.7,2194.8,3875.7z" class="color000000 svgShape"/><path fill="#fff" d="M1782,1323.4c60,36.4,133.6,60.5,205.5,60.5c41.7,0,82.8-8.1,120.4-26.5c36.1-19.4,64.4-45.3,86.7-76.2
		c22.3-30.9,38.6-66.7,50.4-105.8c23.6-78.2,29.1-169.4,29.1-259.3c0-70.4-3.3-140-3.8-201.9h-140.7c0,7.3,0.1,15,0.1,23
		c0,49.9-1.1,112.5-6.8,174.5c-5.7,62-16,123.6-34.7,171.8c-12.5,32.1-28.6,58.5-50.2,75c-12.3,9.4-26.5,15.4-42.3,17.2l-0.6,0
		c-42.2-0.3-78.8-10.9-110.3-28.6c-31.6-17.7-58.2-42.5-80.6-71.4c-9.3-12-17.9-24.8-25.9-38c8,48,11.2,98.1,11.2,147.1
		C1789.4,1233.3,1786.4,1280.6,1782,1323.4z" class="colorffffff svgShape"/><path fill="#1c1c1c" d="M1721,873.6C1721,873.6,1721,873.6,1721,873.6C1721,873.6,1721,873.6,1721,873.6z" class="color000000 svgShape"/><path fill="#1c1c1c" d="M1782,1024.8c-3.3-5.8-6.5-11.7-9.6-17.6c2.2,10,4.1,20.2,5.9,30.5c8,13.2,16.6,26,25.9,38c22.4,28.9,49,53.7,80.6,71.4
		c31.6,17.7,68.2,28.2,110.3,28.6l0.6,0c15.9-1.8,30-7.8,42.3-17.2c21.6-16.5,37.8-42.8,50.2-75c18.7-48.2,28.9-109.8,34.7-171.8
		c5.7-62,6.8-124.6,6.8-174.5c0-8,0-15.7-0.1-23h140.7c0.4,61.9,3.8,131.5,3.8,201.9c0,89.9-5.5,181.1-29.1,259.3
		c-11.8,39.1-28.1,74.9-50.4,105.8c-22.3,30.9-50.7,56.8-86.7,76.2c-37.6,18.4-78.7,26.5-120.4,26.5c-71.8,0-145.5-24.1-205.5-60.5
		c-0.4,3.6-0.7,7.2-1.1,10.8c50.9,30.1,111,51.6,171.8,57.8c11.6,1.2,23.2,1.8,34.8,1.8c43,0,85.6-8.4,124.8-27.6l0.2-0.1
		c37.5-20.1,67-47.1,90.1-79.1c34.7-48,55-106.9,66.6-170.7c11.7-63.8,14.7-132.5,14.7-200.2c0-72.6-3.5-144-3.8-206.8
		c0-2.7-2.2-4.9-4.9-4.9h-8.8h-10.2H2158h-9.8h-23.5c-1.3,0-2.6,0.5-3.5,1.4c-0.9,0.9-1.4,2.2-1.4,3.5c0.1,8.7,0.1,18,0.1,27.8
		c0,75.9-2.5,180.7-19.9,267.8c-8.7,43.5-21.1,82.6-38.3,111.2c-8.6,14.3-18.5,26-29.6,34.4c-11,8.4-23.3,13.6-37.2,15.2
		c-40.4-0.4-75.2-10.4-105.3-27.3c-6.3-3.5-12.3-7.4-18.2-11.4C1834.7,1101.6,1805.4,1065.6,1782,1024.8z" class="color000000 svgShape"/><path fill="#1c1c1c" d="M1777.7,1540.9l-6.1-11.2l-17-31c-1.5,7-2.4,10.7-2.4,10.8c-0.5,1.9-2,3.4-4,3.7l-198.8,32.8
		c52.8,101.9,105,231.4,132.9,354.2c9.2,37.1,16.8,75.2,22.6,113.9c196.4,289.2,212.8,666.8,160.3,1036.9
		c-27,190.4-72.3,378.7-120.6,552l8.4,3.5l9.1,3.8l44.1,18.3l150.1,62.4l21,8.7c32-111.7,70.9-236.4,108.6-366.7
		c84.9-293,164.1-614.4,147.2-880.6c-4.2-32.4-9-64.6-14.6-96.7c-36.7-212-104.5-414.1-215.2-579.1
		C1942,1685.2,1867.4,1605,1777.7,1540.9z" class="color000000 svgShape"/><path fill="#1c1c1c" d="M3294.6,3908.4v-4.9h-428.3v4.9c0,2.7-2.2,4.9-4.9,4.9h438.1C3296.8,3913.3,3294.6,3911.1,3294.6,3908.4z" class="color000000 svgShape"/><path fill="#1c1c1c" d="M3304.4,3908.4c0,2.7-2.2,4.9-4.9,4.9h206.3c2.7,0,4.9-2.2,4.9-4.9c0-2.7-2.2-4.9-4.9-4.9h-2.3h-199.1V3908.4z" class="color000000 svgShape"/><path fill="#1c1c1c" d="M2198.2,3903.5h-420.3h-57.4h-7.2h-4.6h-5.3h-429.5h-9.8h-174.9v5.9c0,1.3-0.5,2.5-1.4,3.5c-0.2,0.2-0.4,0.3-0.6,0.5
		h1774.2c-2.7,0-4.9-2.2-4.9-4.9v-4.9h-522.9H2204h-4.8C2199.3,3903.5,2198.9,3903.5,2198.2,3903.5z" class="color000000 svgShape"/><path fill="#1c1c1c" d="M1219.5,3676.6l44.6-9.4l9.8-2.1l197.9-41.7l9.8-2.1l21-4.4c-17.4-196.4-0.1-476.7,53.8-711
		c20.5-89.1,46.3-171.6,77.5-240.2c83.5-204.4,103.3-438.1,71-651.7c-5.9-38.7-13.4-76.8-22.6-113.9
		c-27.9-122.8-80.1-252.4-132.9-354.2l-302,49.9c3,34.2,6.1,64.7,9.3,92.2c30.4,261.6,68.9,238.9,87.5,362.2
		c44.1,293-30.4,562.8-88.4,853.1C1208.5,3139.6,1172.1,3389.5,1219.5,3676.6z M1405.7,1622.6L1405.7,1622.6L1405.7,1622.6
		c-0.4-1.8,0.7-3.5,2.5-3.9c1.8-0.4,3.5,0.7,3.9,2.5c0,0.2,1.2,5.3,1.2,13.2c0,7.4-1,17.3-4.9,27.9c-3.9,10.6-10.6,21.8-22.1,31.7
		c-1.4,1.2-3.4,1-4.6-0.3c-1.2-1.4-1-3.4,0.3-4.6c10.5-9.1,16.7-19.3,20.2-29c3.5-9.7,4.5-18.8,4.5-25.7
		C1406.7,1627.5,1405.8,1623,1405.7,1622.6z" class="color000000 svgShape"/><path fill="#fff" d="M1241.8,1586.8l501.5-82.8c0.2-1,0.5-2.2,0.8-3.7c1-4.5,2.5-11.2,4.2-19.7c3.5-17.1,8.1-41.6,12.7-71.4
		c9.3-59.6,18.5-140.3,18.5-224.3c0-56.7-4.2-115-15.5-169.3c-11.2-54.3-29.5-104.7-57.4-145.7c-18.6-27.4-41.5-50.6-69.5-68.2
		c-22.9-14.4-49.2-25.1-79.5-31.3l-12.4,33.5c-0.6,1.7-2.1,2.9-3.9,3.2c-6.7,0.9-13.1,1.4-19.4,1.4c-30,0-54.6-9.9-71.7-19.8
		c-12.8-7.4-21.4-14.8-25-18.2c-50,8.2-91.4,23.6-125.4,44.5c-2.4,1.4-4.7,2.9-6.9,4.4c0,0,0,0,0,0c-0.6,0.4-1.1,0.8-1.7,1.2
		l50.4,246.6c1.7-0.3,3.5,0.2,4.7,1.6c1.7,2.1,1.5,5.2-0.6,6.9c-61.2,51.6-111.5,111.4-146.5,176.9c-11.7,21.9-21.7,44.5-29.8,67.6
		c7.6,44,17.1,85.5,26.8,122.2C1216,1517.5,1236.3,1572.5,1241.8,1586.8z M1564.9,877.2c2.4-1.3,5.4-0.5,6.7,1.9
		c0.1,0.1,6.6,11.8,13.6,29.7c7,17.9,14.4,41.8,16.2,66.7c0.2,2.7-1.9,5.1-4.6,5.2c-2.7,0.2-5.1-1.9-5.2-4.6
		c-1.6-22.7-8.3-45.1-14.9-62.2c-6.6-17.1-12.9-28.8-13.6-30l-0.1-0.1l0,0C1561.7,881.6,1562.5,878.6,1564.9,877.2z" class="colorffffff svgShape"/><path fill="#1c1c1c" d="M1286.7,811.6c-5.9,3.9-11.6,8-17.1,12.2C1275.3,819.7,1280.9,815.6,1286.7,811.6z" class="color000000 svgShape"/><path fill="#1c1c1c" d="M1782,1323.4c4.4-42.8,7.4-90.2,7.4-138.7c0-48.9-3.2-99-11.2-147.1c-1.7-10.3-3.7-20.4-5.9-30.5
		c-8.9-40.7-21.7-79.2-39.8-113.5c-3.7-6.9-7.5-13.6-11.6-20.2c0,0,0,0,0,0c-20.3-32.4-46-60-78.5-80.4
		c-23.5-14.8-50.5-25.8-81.3-32.2l-3.4,9.3c30.3,6.1,56.6,16.8,79.5,31.3c28,17.6,50.9,40.9,69.5,68.2c27.9,41,46.2,91.4,57.4,145.7
		c11.2,54.3,15.5,112.6,15.5,169.3c0,84-9.3,164.7-18.5,224.3c-4.6,29.8-9.3,54.4-12.7,71.4c-1.7,8.5-3.2,15.2-4.2,19.7
		c-0.3,1.5-0.6,2.7-0.8,3.7l-501.5,82.8c-5.5-14.3-25.8-69.3-45.6-144.6c-9.7-36.7-19.2-78.2-26.8-122.2c-2.3,6.5-4.4,13-6.4,19.6
		c7.6,40.8,16.7,79.2,25.8,113.1c22.6,84.3,45.2,141.3,45.3,141.4c0.9,2.2,3.1,3.4,5.4,3l7.9-1.3l302-49.9l198.8-32.8
		c1.9-0.3,3.5-1.8,4-3.7c0,0,0.9-3.8,2.4-10.8c5.2-24,17.8-85.9,26.3-164.5C1781.3,1330.6,1781.7,1327,1782,1323.4z" class="color000000 svgShape"/><path fill="#1c1c1c" d="M1425.4,770.2c-1.2-1.1-1.9-1.8-1.9-1.8c-1.7-1.7-1.9-4.5-0.4-6.4l0,0l0.1-0.1l0.4-0.6c0.2-0.2,0.4-0.5,0.6-0.8
		c-51.2,8.4-94,24.2-129.4,45.9c-2.3,1.4-4.6,2.9-6.9,4.4c2.2-1.1,4.8-0.5,6.2,1.6c1.5,2.2,1,5.2-1.2,6.8c2.3-1.5,4.6-3,6.9-4.4
		C1334.1,793.8,1375.5,778.4,1425.4,770.2z" class="color000000 svgShape"/><path fill="#fff" d="M1040.3,1096.9c-65.2,111.8-105.9,237.5-105.8,361c0,22.1,1.3,44.1,4,66c20.2,164.4,90.1,360,130.4,448.3
		c2.1,0,4.1,0,6.2,0c31.2,0,62.4-1.7,92.3-7.7c28.7-5.8,56-15.5,80.9-31.5c-18.3-57.1-38.4-129.7-55.1-192.7
		c-17.1-64.3-30.6-118.5-35.2-135.4c-0.6-2.2-1.1-3.8-1.3-4.5c-14.9-46.5-21.9-92.4-21.9-137.1c0-76.1,20.2-148.8,55.9-215.5
		c35.7-66.7,86.9-127.5,148.9-179.8c0.7-0.5,1.4-0.9,2.2-1l-50.4-246.6C1194.2,888.3,1105.1,985.7,1040.3,1096.9z" class="colorffffff svgShape"/><path fill="#1c1c1c" d="M1169.7,1611.2c-0.9-3.5-1.7-6.5-2.3-8.8c-0.6-2.3-1.1-3.9-1.4-5c-14.6-45.5-21.4-90.4-21.4-134.1
		c0-42.4,6.5-83.8,18.5-123.7c2-6.6,4.1-13.1,6.4-19.6c8.1-23.1,18.1-45.7,29.8-67.6c35-65.5,85.4-125.3,146.5-176.9
		c2.1-1.7,2.3-4.8,0.6-6.9c-1.2-1.4-3-2-4.7-1.6c-0.8,0.2-1.5,0.5-2.2,1c-62,52.3-113.2,113-148.9,179.8
		c-35.7,66.7-55.9,139.5-55.9,215.5c0,44.8,7,90.7,21.9,137.1c0.2,0.7,0.7,2.3,1.3,4.5c4.6,16.9,18.2,71.1,35.2,135.4
		c16.7,63,36.8,135.6,55.1,192.7c-25,15.9-52.3,25.7-80.9,31.5c-29.8,6-61.1,7.7-92.3,7.7c-2.1,0-4.1,0-6.2,0
		c-40.3-88.2-110.2-283.9-130.4-448.3c-2.7-21.9-4-43.9-4-66c0-123.4,40.6-249.1,105.8-361c64.8-111.2,153.9-208.6,251-276.5
		c0.6-0.4,1.1-0.8,1.7-1.2c0,0,0,0,0,0c2.2-1.6,2.7-4.6,1.2-6.8c-1.4-2-4.1-2.7-6.2-1.6c-0.2,0.1-0.4,0.2-0.6,0.3l0,0
		c-0.2,0.2-0.5,0.4-0.7,0.5c-5.7,4-11.4,8.1-17.1,12.2c-92.1,68.1-175.9,161.9-237.8,268.1c-65.9,113.1-107.2,240.3-107.2,365.9
		c0,22.5,1.3,44.9,4.1,67.2c9.9,80.4,31.4,167.7,55.6,246.6c26.3,85.8,55.8,161.6,76.9,207.4c0.8,1.7,2.5,2.8,4.4,2.9
		c3.1,0,6.3,0,9.4,0c2.4,0,4.9,0,7.3-0.1c3.3,0,6.5-0.1,9.8-0.2c25.9-0.6,51.8-2.6,77-7.7c21.7-4.4,42.9-11,63-20.9
		c2.9-1.4,5.8-3,8.7-4.5c5.4-2.9,10.6-6,15.8-9.5c1.8-1.2,2.6-3.5,2-5.6c-19.8-61.1-41.8-141.6-59.5-208.5
		c-1.6-6.2-3.2-12.2-4.8-18.1c-6.9-26.2-12.9-49.6-17.6-68.1C1173.9,1627.7,1171.5,1618.2,1169.7,1611.2z" class="color000000 svgShape"/><path fill="#fff" d="M1433.5,764.3c0.9,0.8,2,1.8,3.4,2.9c4.2,3.5,10.5,8.1,18.5,12.7c16,9.3,38.9,18.5,66.8,18.5
		c4.9,0,9.9-0.4,15.1-1l59.5-160.4c0.5-1.3,1.5-2.3,2.8-2.8c1.3-0.5,2.7-0.5,4,0.1l0.1,0l0.2,0.1c0.2,0.1,0.5,0.2,0.9,0.4
		c0.8,0.3,1.9,0.8,3.4,1.4c2.9,1.2,7.1,2.8,12.1,4.4c10,3.2,23.4,6.4,36.3,6.4c10.7,0,20.9-2.1,29-7.7c1.6-1.1,3.6-3.2,5.6-6.3
		c2-3.1,4.1-7.1,6-11.9c4-9.5,7.6-22,10.7-36.1c6.2-28.1,10-62.5,10-93.1c0-1.6,0-3.2-0.1-4.9c-3.4,1.7-6.8,3.3-10.2,4.5
		c-16.6,6-33.9,6.8-49.1,6.9c-7.1,0-13.7-0.2-19.6-0.2c-5,0-9.5,0.1-13.1,0.6c-3.6,0.5-6.3,1.3-7.9,2.3c-1.1,0.7-1.7,1.3-2.1,2.1
		c-3.5,6.4-4.4,13.2-4.4,19.8c0,3.3,0.2,6.5,0.5,9.5c0.2,3,0.5,5.9,0.5,8.5c0,1.4-0.1,2.8-0.4,4.3c-0.3,1.4-0.8,2.9-1.7,4.3
		c-0.7,0.9-1.6,1.8-2.6,2.4c-1.4,0.8-3,1.2-4.5,1.3l0,0l-0.7,0c-1.9,0-3.9-0.5-5.5-1.6c-1.6-1.1-2.6-2.7-3.2-4.1
		c-1.2-2.9-1.2-5.6-1.3-8.1c-0.1-1.7-0.1-3.3-0.2-4.7c-0.2-1.9-0.6-3.3-0.9-3.8c-0.2-0.3-0.3-0.4-0.4-0.5c-0.2-0.1-0.6-0.3-1.8-0.3
		c-0.7,0-1.5,0.2-2.7,1.2c-1.2,1-2.5,2.7-3.7,5c-2.4,4.7-4.1,11.9-4.1,20.3c0,12.9,3.9,28.5,14.5,43.2c1.1,1.5,1.2,3.6,0.3,5.3
		c-0.9,1.7-2.7,2.6-4.6,2.5c-27.7-1.9-51.3-9.8-70.8-20.7c-5.6-3.1-10.8-6.5-15.8-9.9C1480.1,689.6,1443.5,749.5,1433.5,764.3z" class="colorffffff svgShape"/><path fill="#1c1c1c" d="M1717.6,487c0,1.6,0.1,3.2,0.1,4.9c0,30.7-3.8,65.1-10,93.1c-3.1,14-6.7,26.5-10.7,36.1c-2,4.8-4,8.8-6,11.9
		c-2,3.1-4,5.2-5.6,6.3c-8.1,5.6-18.3,7.7-29,7.7c-12.9,0-26.3-3.2-36.3-6.4c-5-1.6-9.2-3.2-12.1-4.4c-1.5-0.6-2.6-1.1-3.4-1.4
		c-0.4-0.2-0.7-0.3-0.9-0.4l-0.2-0.1l-0.1,0c-1.3-0.6-2.7-0.6-4-0.1c-1.3,0.5-2.3,1.5-2.8,2.8l-59.5,160.4c-5.2,0.6-10.2,1-15.1,1
		c-27.8,0-50.7-9.2-66.8-18.5c-8-4.6-14.3-9.3-18.5-12.7c-1.3-1.1-2.4-2-3.4-2.9c9.9-14.7,46.5-74.7,68.3-187.1
		c-3-2.1-5.9-4.3-8.7-6.6c-11.4,60.9-27.3,106.5-41,137.8c-8,18.3-15.3,31.7-20.6,40.6c-2.6,4.4-4.8,7.7-6.2,9.8
		c-0.4,0.6-0.8,1.1-1.1,1.6c-0.2,0.3-0.4,0.6-0.6,0.8l-0.4,0.6l-0.1,0.1l0,0c-1.5,1.9-1.3,4.6,0.4,6.4c0.1,0.1,0.7,0.7,1.9,1.8
		c3.6,3.3,12.2,10.7,25,18.2c17.1,9.9,41.7,19.8,71.7,19.8c6.2,0,12.7-0.4,19.4-1.4c1.8-0.3,3.3-1.5,3.9-3.2l12.4-33.5l3.4-9.3
		l42.9-115.7c3.1,1.3,7.6,3,13,4.7c10.6,3.4,24.8,6.8,39.3,6.8c11.9,0,24.2-2.3,34.5-9.4c3.2-2.2,5.8-5.3,8.3-9
		c4.3-6.6,8.1-15.5,11.5-26.2c0.4-1.3,0.8-2.6,1.2-4c9.5-31.7,15.6-76.7,15.6-116.3c0-3.7-0.1-7.3-0.2-10.9
		C1724.2,483.3,1721,485.3,1717.6,487z" class="color000000 svgShape"/><path fill="#1c1c1c" d="M1590.7,336.7c-22.9,6.4-46.7,21.5-68.1,40.3c-21.4,18.9-40.6,41.4-54.4,62.5c-9.2,14-16.1,27.3-19.8,38.2
		c-2.1,6.2-3.2,11.5-3.1,15.5c0.2,0.4,0.4,0.9,0.7,1.5c0.7,1.5,1.8,3.8,3.2,6.7c2.9,5.7,7.4,13.6,13.7,22.5
		c12.5,17.8,31.9,39.4,59.5,54.7c16.1,8.9,34.9,15.7,56.9,18.5c-7.7-13.8-10.9-27.9-10.9-40.2c0-7.3,1.1-13.9,3-19.5
		c1.9-5.6,4.6-10.2,8.3-13.4c2.5-2.1,5.6-3.5,9-3.5c1.6,0,3.1,0.2,4.6,0.7c1.4,0.5,2.8,1.2,3.8,2.2c2.2,1.9,3.3,4.4,3.8,6.6
		c0.4,1.5,0.6,3,0.7,4.4c0.2,1.9,0.2,3.6,0.3,5.2c0,1.3,0.2,2.5,0.3,3.3c0-0.5,0.1-1,0.1-1.7c0-2-0.2-4.6-0.5-7.7
		c-0.3-3.1-0.5-6.6-0.5-10.4c0-7.5,1.1-16.2,5.6-24.5c1.3-2.5,3.4-4.4,5.6-5.8c2.3-1.4,4.8-2.3,7.5-2.9c5.4-1.2,11.6-1.4,18.6-1.4
		c6.1,0,12.7,0.2,19.6,0.2c11.1,0,23-0.5,34.5-3c11.5-2.5,22.5-7,32.1-15c6.4-5.3,12.3-12.2,17.3-21.2
		c14.4-25.9,17.8-50.3,17.8-67.4c0-10.3-1.2-17.9-1.9-21.4c-0.2-0.1-0.4-0.2-0.7-0.3c-1.9-0.8-4.7-2-8.3-3.4
		c-7.1-2.8-17.3-6.6-29.5-10.3c-24.3-7.5-56.6-15-88-15C1617.6,331.6,1603.7,333.1,1590.7,336.7z" class="color000000 svgShape"/><polygon fill="#1c1c1c" points="1757.6 358.4 1757.6 358.4 1757.6 358.4" class="color000000 svgShape"/><path fill="#1c1c1c" d="M1532.4,356.4c-26.6,20-50.6,46.3-68.1,71.4c-8.8,12.6-15.9,24.8-20.9,35.9c-5,11.1-7.9,21-7.9,29.5c0,0.4,0,0.8,0,1.2
		c0,0.5,0.1,1.1,0.3,1.6c0.1,0.3,10.4,26.1,34.6,53.1c6.5,7.3,14.1,14.6,22.7,21.5c2.8,2.2,5.7,4.4,8.7,6.6
		c4.9,3.5,10.2,6.8,15.8,9.9c19.5,10.8,43.1,18.8,70.8,20.7c1.9,0.1,3.7-0.8,4.6-2.5c0.9-1.7,0.8-3.7-0.3-5.3
		c-10.6-14.6-14.5-30.3-14.5-43.2c0-8.4,1.7-15.6,4.1-20.3c1.2-2.4,2.5-4.1,3.7-5c1.2-1,2-1.2,2.7-1.2c1.2,0,1.6,0.2,1.8,0.3
		c0.2,0.1,0.3,0.2,0.4,0.5c0.3,0.5,0.7,1.9,0.9,3.8c0.1,1.4,0.2,3,0.2,4.7c0.1,2.6,0.2,5.2,1.3,8.1c0.6,1.4,1.6,3,3.2,4.1
		c1.6,1.1,3.6,1.7,5.5,1.6l0.7,0l0,0c1.5-0.1,3.1-0.5,4.5-1.3c1.1-0.6,2-1.5,2.6-2.4c1-1.4,1.5-2.9,1.7-4.3c0.3-1.4,0.3-2.8,0.4-4.3
		c0-2.7-0.3-5.5-0.5-8.5c-0.3-3-0.5-6.2-0.5-9.5c0-6.6,0.9-13.5,4.4-19.8c0.5-0.8,1-1.4,2.1-2.1c1.6-1,4.3-1.8,7.9-2.3
		c3.6-0.5,8.1-0.6,13.1-0.6c5.9,0,12.5,0.2,19.6,0.2c15.3,0,32.6-0.9,49.1-6.9c3.5-1.3,6.9-2.8,10.2-4.5c3.3-1.7,6.6-3.7,9.7-6
		c1.3-0.9,2.6-1.8,3.8-2.8c7.4-6.1,14.1-14,19.7-24c15.4-27.7,19-53.8,19-72.2c0-15.9-2.7-25.9-2.8-26.2c-0.4-1.4-1.4-2.6-2.7-3.2
		c-0.1-0.1-16.9-7.7-41.8-15.4c-24.9-7.7-57.9-15.4-90.9-15.4c-2.6,0-5.2,0.1-7.8,0.2c-12.2,0.5-24.3,2.1-35.9,5.3
		C1569,332.6,1550.1,343.1,1532.4,356.4z M1757.6,358.4L1757.6,358.4L1757.6,358.4L1757.6,358.4z M1749.2,356.9
		c3.6,1.4,6.4,2.6,8.3,3.4c0.2,0.1,0.4,0.2,0.7,0.3c0.7,3.5,1.9,11.1,1.9,21.4c0,17.1-3.3,41.5-17.8,67.4c-5,9-10.9,15.9-17.3,21.2
		c-9.6,7.9-20.6,12.4-32.1,15c-11.5,2.5-23.4,3-34.5,3c-6.9,0-13.5-0.2-19.6-0.2c-6.9,0-13.1,0.2-18.6,1.4c-2.7,0.6-5.2,1.5-7.5,2.9
		c-2.3,1.4-4.3,3.3-5.6,5.8c-4.6,8.4-5.6,17-5.6,24.5c0,3.8,0.3,7.3,0.5,10.4c0.3,3.1,0.5,5.7,0.5,7.7c0,0.7,0,1.2-0.1,1.7
		c-0.1-0.8-0.3-2-0.3-3.3c-0.1-1.6-0.1-3.3-0.3-5.2c-0.1-1.4-0.3-2.9-0.7-4.4c-0.6-2.2-1.6-4.7-3.8-6.6c-1.1-1-2.4-1.7-3.8-2.2
		c-1.4-0.5-3-0.7-4.6-0.7c-3.4,0-6.6,1.4-9,3.5c-3.7,3.2-6.4,7.8-8.3,13.4c-1.9,5.6-3,12.2-3,19.5c0,12.3,3.1,26.4,10.9,40.2
		c-22-2.8-40.8-9.6-56.9-18.5c-27.6-15.3-47-36.9-59.5-54.7c-6.2-8.9-10.8-16.8-13.7-22.5c-1.5-2.8-2.5-5.1-3.2-6.7
		c-0.3-0.6-0.5-1.1-0.7-1.5c0-4,1-9.4,3.1-15.5c3.7-10.8,10.6-24.2,19.8-38.2c13.8-21,33-43.6,54.4-62.5
		c21.4-18.9,45.2-34,68.1-40.3c13-3.6,26.9-5.1,41-5.1c31.4,0,63.7,7.5,88,15C1731.9,350.3,1742,354.1,1749.2,356.9z" class="color000000 svgShape"/><path fill="#fff" d="M2783.4,546.8c7.2-1.4,13.6-3.1,18.3-4.9c3.9-1.4,6.8-3.1,7.8-4c2.1-1.9,4.1-4.8,5.4-8.4
		c1.4-3.6,2.1-7.9,2.1-12.4c0-8.4-2.7-17.4-8.8-24.6c-5.3-6.2-13.2-11.2-24.9-13.2C2783.4,502.4,2783.4,525.2,2783.4,546.8z" class="colorffffff svgShape"/><path fill="#fff" d="M2708.4,555.3c-11.9-3.4-22.4-8.9-29.3-17.8c-4.6-5.9-7.4-13.2-7.8-21.7c-0.1-1.3-0.1-2.6-0.1-3.9
		c0-13.4,3-23.3,8-30.3c5-7,11.8-10.9,18.4-12.7c4.4-1.2,8.6-1.6,12.4-1.6c7.7,0,13.3,1.6,13.6,1.7c2.1,0.6,3.6,2.5,3.6,4.7V549
		c6.4,0.8,13.1,1.2,19.8,1.2c9.1,0,18.2-0.7,26.5-1.8c0-23.8,0-49.1,0-74.6c0-1.4,0.6-2.7,1.6-3.6c1-0.9,2.4-1.4,3.7-1.3
		c16.8,1.4,29.1,8.1,36.9,17.3c7.8,9.2,11.1,20.5,11.1,30.9c0,5.6-0.9,11-2.7,15.8c-1.8,4.8-4.5,9.1-8.1,12.3
		c-2.7,2.4-6.3,4.2-10.9,5.9c-4.5,1.7-10,3.2-16.1,4.5c-1.8,0.4-3.8,0.8-5.7,1.1c0,52.5,0,96.2,0,115.5h46.4
		c0.2-0.3,0.4-0.6,0.6-0.9c1.3-2.1,3.2-5.3,5.6-9.2c4.7-7.9,11.4-19.2,19-32.4c15.3-26.5,34.4-60.9,50-92.7
		c10.4-21.2,19.2-41.2,24.1-56.7c2.8-8.8,4.3-16.2,4.3-21c0-50.9-20.6-96.9-53.9-130.2c-33.3-33.3-79.3-53.9-130.2-53.9
		c-50.9,0-96.9,20.6-130.2,53.9c-33.3,33.3-53.9,79.3-53.9,130.2c0,4.5,1.3,11.3,3.8,19.4c2.5,8.1,6.1,17.6,10.5,27.9
		c8.8,20.6,20.7,44.3,33,67.4c24.3,45.5,50,88.2,56.2,98.4h48.7V557.4C2714.3,556.8,2711.3,556.1,2708.4,555.3z" class="colorffffff svgShape"/><path fill="#fff" d="M2773.5,672.3c0-19.1,0-62.2,0-114c-8.4,1.1-17.4,1.7-26.5,1.7c-6.6,0-13.3-0.3-19.8-1.1v113.4h22.1H2773.5z" class="colorffffff svgShape"/><path fill="#fff" d="M2710,477.1c-4.6,0-9.9,0.8-14.5,3.1c-4.6,2.4-8.6,6.1-11.4,13c-1.8,4.6-3,10.7-3,18.7c0,1.1,0,2.3,0.1,3.5
		c0.3,6.6,2.3,11.7,5.7,16c3.4,4.3,8.3,7.9,14.4,10.7c4.8,2.2,10.3,3.9,16.2,5.2v-69.6C2715.4,477.4,2712.9,477.1,2710,477.1z" class="colorffffff svgShape"/><path fill="#1c1c1c" d="M2560.1,483.3c5.2,16.3,14.1,36.6,24.6,58c29.2,59.6,70.5,127.7,76.3,137.3v-1.4c0-1.3,0.5-2.6,1.4-3.5
		c0.9-0.9,2.2-1.4,3.5-1.4h51.4v0h-48.7c-6.2-10.2-32-52.9-56.2-98.4c-12.3-23-24.2-46.8-33-67.4c-4.4-10.3-8-19.7-10.5-27.9
		c-2.5-8.1-3.8-14.9-3.8-19.4c0-50.9,20.6-96.9,53.9-130.2c33.3-33.3,79.3-53.9,130.2-53.9c50.9,0,96.9,20.6,130.2,53.9
		c33.3,33.3,53.9,79.3,53.9,130.2c0,4.8-1.5,12.2-4.3,21c-4.9,15.5-13.7,35.5-24.1,56.7c-15.6,31.8-34.7,66.2-50,92.7
		c-7.6,13.2-14.3,24.5-19,32.4c-2.4,4-4.3,7.1-5.6,9.2c-0.2,0.4-0.4,0.6-0.6,0.9h-46.4c0,0,0,0,0,0h48.2c1.3,0,2.6,0.5,3.5,1.4
		c0.9,0.9,1.4,2.2,1.4,3.5v2.9c0.1-0.1,0.2-0.2,0.2-0.3c0,0,26.5-43.1,53-92c13.3-24.5,26.5-50.3,36.5-73.1c5-11.4,9.2-22,12.2-31.3
		c3-9.4,4.8-17.4,4.8-24c0-107.1-86.8-193.9-193.9-193.9c-107.1,0-193.9,86.8-193.9,193.9C2555.4,465.9,2557.1,473.9,2560.1,483.3z" class="color000000 svgShape"/><polygon fill="#1c1c1c" points="2773.5 672.3 2749.3 672.3 2727.2 672.3 2727.2 672.3 2773.5 672.3" class="color000000 svgShape"/><path fill="#1c1c1c" d="M2778.5,687.9c-2.7,0-4.9-2.2-4.9-4.9c0,0,0-0.3,0-0.9h-46.3v14.5h0c0,2.7-2.2,4.9-4.9,4.9c-2.7,0-4.9-2.2-4.9-4.9v-14.5
		h-46.5v29h155.8v-29h-43.3c0,0.5,0,0.9,0,0.9C2783.4,685.7,2781.2,687.9,2778.5,687.9z" class="color000000 svgShape"/><path fill="#1c1c1c" d="M2666,711.2h4.9v-29h46.5v-9.8H2666c-1.3,0-2.6,0.5-3.5,1.4c-0.9,0.9-1.4,2.2-1.4,3.5v1.4v37.5c0-1.3,0.5-2.6,1.4-3.5
		C2663.4,711.7,2664.7,711.2,2666,711.2z" class="color000000 svgShape"/><path fill="#1c1c1c" d="M2835.1,673.7c-0.9-0.9-2.2-1.4-3.5-1.4h-48.2c0,5,0,8.4,0,9.8h43.3v29h4.9c1.3,0,2.6,0.5,3.5,1.4c0.9,0.9,1.4,2.2,1.4,3.5
		v-36v-2.9C2836.5,675.9,2836,674.7,2835.1,673.7z" class="color000000 svgShape"/><path fill="#1c1c1c" d="M2773.5,672.3h-46.3v9.8h46.3C2773.5,680.7,2773.5,677.3,2773.5,672.3z" class="color000000 svgShape"/><path fill="#fff" d="M2825.6,751.3c0.7-4.2,1.1-8.6,1.1-13.1V721h-155.8v17.3c0,4.5,0.4,8.8,1.1,13.1H2825.6z" class="colorffffff svgShape"/><path fill="#1c1c1c" d="M2831.6,711.2h-4.9h-155.8h-4.9c-1.3,0-2.6,0.5-3.5,1.4c-0.9,0.9-1.4,2.2-1.4,3.5v22.2c0-1.3,0.5-2.6,1.4-3.5
		c0.9-0.9,2.2-1.4,3.5-1.4c1.3,0,2.6,0.5,3.5,1.4c0.9,0.9,1.4,2.2,1.4,3.5V721h155.8v17.3c0-1.3,0.5-2.6,1.4-3.5
		c0.9-0.9,2.2-1.4,3.5-1.4c1.3,0,2.6,0.5,3.5,1.4c0.9,0.9,1.4,2.2,1.4,3.5v-22.2c0-1.3-0.5-2.6-1.4-3.5
		C2834.2,711.7,2832.9,711.2,2831.6,711.2z" class="color000000 svgShape"/><path fill="#1c1c1c" d="M2662.5,752.8c0.9-0.9,2.2-1.4,3.5-1.4h2h4c-0.7-4.2-1.1-8.6-1.1-13.1c0-1.3-0.5-2.6-1.4-3.5c-0.9-0.9-2.2-1.4-3.5-1.4
		c-1.3,0-2.6,0.5-3.5,1.4c-0.9,0.9-1.4,2.2-1.4,3.5v18C2661.1,754.9,2661.6,753.7,2662.5,752.8z" class="color000000 svgShape"/><path fill="#1c1c1c" d="M2831.6,733.3c-1.3,0-2.6,0.5-3.5,1.4c-0.9,0.9-1.4,2.2-1.4,3.5c0,4.5-0.4,8.8-1.1,13.1h4h2c1.3,0,2.6,0.5,3.5,1.4
		c0.9,0.9,1.4,2.2,1.4,3.5v-18c0-1.3-0.5-2.6-1.4-3.5C2834.2,733.9,2832.9,733.3,2831.6,733.3z" class="color000000 svgShape"/><path fill="#1c1c1c" d="M2826.7,761.1h-155.8v25.6c0,21,8.5,40,22.3,53.8c13.8,13.8,32.7,22.3,53.8,22.3h3.8c21,0,40-8.5,53.8-22.3
		c13.8-13.8,22.3-32.7,22.3-53.8V761.1z" class="color000000 svgShape"/><path fill="#1c1c1c" d="M2835.1,752.8c-0.9-0.9-2.2-1.4-3.5-1.4h-2h-4H2672h-4h-2c-1.3,0-2.6,0.5-3.5,1.4c-0.9,0.9-1.4,2.2-1.4,3.5v30.5
		c0,47.4,38.4,85.8,85.8,85.8h3.8c47.4,0,85.8-38.4,85.9-85.8v-30.5C2836.5,754.9,2836,753.7,2835.1,752.8z M2750.7,862.8h-3.8
		c-21,0-40-8.5-53.8-22.3c-13.8-13.8-22.3-32.7-22.3-53.8v-25.6h155.8v25.6c0,21-8.5,40-22.3,53.8
		C2790.6,854.3,2771.7,862.8,2750.7,862.8z" class="color000000 svgShape"/><path fill="#1c1c1c" d="M2717.4,682.1v14.5c0,2.7,2.2,4.9,4.9,4.9c2.7,0,4.9-2.2,4.9-4.9h0v-14.5v-9.8v0V558.9c6.5,0.8,13.2,1.1,19.8,1.1
		c9.1,0,18.1-0.6,26.5-1.7c0,51.8,0,94.8,0,114c0,0,0,0,0,0c0,5,0,8.4,0,9.8c0,0.5,0,0.9,0,0.9c0,2.7,2.2,4.9,4.9,4.9
		c2.7,0,4.9-2.2,4.9-4.9c0,0,0-0.3,0-0.9c0-1.5,0-4.8,0-9.8c0,0,0,0,0,0c0-19.3,0-63,0-115.5c2-0.4,3.9-0.7,5.7-1.1
		c6.1-1.3,11.5-2.8,16.1-4.5c4.5-1.7,8.1-3.5,10.9-5.9c3.6-3.2,6.3-7.5,8.1-12.3c1.8-4.8,2.7-10.2,2.7-15.8
		c0-10.5-3.3-21.8-11.1-30.9c-7.8-9.2-20.1-15.9-36.9-17.3c-1.4-0.1-2.7,0.3-3.7,1.3c-1,0.9-1.6,2.3-1.6,3.6c0,25.6,0,50.9,0,74.6
		c-8.4,1.1-17.4,1.8-26.5,1.8c-6.7,0-13.4-0.4-19.8-1.2v-75.3c0-2.2-1.5-4.1-3.6-4.7c-0.3-0.1-5.9-1.7-13.6-1.7
		c-3.8,0-8,0.4-12.4,1.6c-6.5,1.8-13.4,5.6-18.4,12.7c-5,7-8,16.9-8,30.3c0,1.3,0,2.6,0.1,3.9c0.3,8.5,3.1,15.8,7.8,21.7
		c6.9,8.8,17.5,14.3,29.3,17.8c2.9,0.8,5.9,1.5,9,2.1v114.9v0V682.1z M2808.3,492.5c6.1,7.1,8.8,16.1,8.8,24.6
		c0,4.5-0.8,8.8-2.1,12.4c-1.3,3.6-3.3,6.5-5.4,8.4c-1,1-3.9,2.6-7.8,4c-4.7,1.8-11.1,3.5-18.3,4.9c0-21.6,0-44.4,0-67.5
		C2795,481.4,2802.9,486.3,2808.3,492.5z M2701.2,542.2c-6.1-2.8-11-6.4-14.4-10.7c-3.4-4.4-5.4-9.5-5.7-16c0-1.2-0.1-2.4-0.1-3.5
		c0-8,1.2-14.1,3-18.7c2.8-6.9,6.8-10.6,11.4-13c4.6-2.3,9.9-3.1,14.5-3.1c2.9,0,5.4,0.3,7.4,0.6v69.6
		C2711.5,546.1,2706,544.4,2701.2,542.2z" class="color000000 svgShape"/><path fill="#1c1c1c" d="M2941.5,305.6l101-85.4c2.1-1.8,2.3-4.8,0.6-6.9c-1.8-2.1-4.8-2.3-6.9-0.6l-101,85.4c-2.1,1.8-2.3,4.8-0.6,6.9
		C2936.3,307.1,2939.4,307.3,2941.5,305.6z" class="color000000 svgShape"/><path fill="#1c1c1c" d="M3025.4,472.2c0,2.7,2.2,4.9,4.9,4.9h86.9c2.7,0,4.9-2.2,4.9-4.9c0-2.7-2.2-4.9-4.9-4.9h-86.9
		C3027.6,467.3,3025.4,469.5,3025.4,472.2z" class="color000000 svgShape"/><path fill="#1c1c1c" d="M2950.3,611.5c-1.9,2-1.8,5.1,0.2,6.9l76.4,71.9c2,1.9,5.1,1.8,6.9-0.2c1.9-2,1.8-5.1-0.2-6.9l-76.4-71.9
		C2955.3,609.5,2952.2,609.6,2950.3,611.5z" class="color000000 svgShape"/><path fill="#1c1c1c" d="M2557.1,305.6c2.1,1.8,5.2,1.5,6.9-0.6c1.8-2.1,1.5-5.2-0.6-6.9l-101-85.4c-2.1-1.8-5.2-1.5-6.9,0.6
		c-1.8,2.1-1.5,5.2,0.6,6.9L2557.1,305.6z" class="color000000 svgShape"/><path fill="#1c1c1c" d="M2397.9,477.1h86.9c2.7,0,4.9-2.2,4.9-4.9c0-2.7-2.2-4.9-4.9-4.9h-86.9c-2.7,0-4.9,2.2-4.9,4.9
		C2392.9,474.9,2395.1,477.1,2397.9,477.1z" class="color000000 svgShape"/><path fill="#1c1c1c" d="M2541.3,611.3l-76.4,71.9c-2,1.9-2.1,5-0.2,6.9c1.9,2,5,2.1,6.9,0.2l76.4-71.9c2-1.9,2.1-5,0.2-6.9
		C2546.4,609.6,2543.2,609.5,2541.3,611.3z" class="color000000 svgShape"/><path fill="#1c1c1c" d="M2749.3,192.9c2.7,0,4.9-2.2,4.9-4.9V90.6c0-2.7-2.2-4.9-4.9-4.9c-2.7,0-4.9,2.2-4.9,4.9V188
		C2744.4,190.7,2746.6,192.9,2749.3,192.9z" class="color000000 svgShape"/><path fill="#1c1c1c" d="M2676.2,1365c0,25.7,20.8,46.5,46.5,46.5c25.7,0,46.5-20.8,46.5-46.5c0-25.7-20.8-46.5-46.5-46.5
		C2697,1318.6,2676.2,1339.4,2676.2,1365z M2759.3,1365c0,10.1-4.1,19.3-10.7,25.9c-6.6,6.6-15.8,10.7-25.9,10.7
		c-10.1,0-19.3-4.1-25.9-10.7c-6.6-6.6-10.7-15.8-10.7-25.9c0-10.1,4.1-19.3,10.7-25.9c6.6-6.6,15.8-10.7,25.9-10.7
		c10.1,0,19.3,4.1,25.9,10.7C2755.2,1345.8,2759.3,1354.9,2759.3,1365z" class="color000000 svgShape"/><path fill="#1c1c1c" d="M653.6,2954.3c0,38.5,31.2,69.6,69.6,69.6c38.5,0,69.6-31.2,69.6-69.6c0-38.5-31.2-69.6-69.6-69.6
		C684.7,2884.6,653.6,2915.8,653.6,2954.3z M783,2954.3c0,16.5-6.7,31.5-17.5,42.3c-10.8,10.8-25.8,17.5-42.3,17.5
		c-16.5,0-31.5-6.7-42.3-17.5c-10.8-10.8-17.5-25.8-17.5-42.3c0-16.5,6.7-31.5,17.5-42.3c10.8-10.8,25.8-17.5,42.3-17.5
		c16.5,0,31.5,6.7,42.3,17.5C776.3,2922.8,783,2937.7,783,2954.3z" class="color000000 svgShape"/><path fill="#1c1c1c" d="M2281.9,3522.7h98.8c1.3,0,2.5-0.5,3.5-1.4c0.9-0.9,1.4-2.2,1.4-3.5v-98.8c0-1.3-0.5-2.6-1.4-3.5c-0.9-0.9-2.2-1.4-3.5-1.4
		h-98.8c-1.3,0-2.6,0.5-3.5,1.4c-0.9,0.9-1.4,2.2-1.4,3.5v98.8c0,1.3,0.5,2.6,1.4,3.5C2279.3,3522.2,2280.6,3522.7,2281.9,3522.7z
		 M2286.8,3423.9h89v89h-89V3423.9z" class="color000000 svgShape"/><path fill="#1c1c1c" d="M2295.6,3282c2.1-1.7,2.5-4.7,0.9-6.9l-50-64.4c-1.7-2.1-4.7-2.5-6.9-0.9c-2.1,1.7-2.5,4.7-0.9,6.9l50,64.4
		C2290.4,3283.3,2293.4,3283.7,2295.6,3282z" class="color000000 svgShape"/><path fill="#1c1c1c" d="M509.7,3256.8c-2.7-0.3-5.1,1.6-5.5,4.3l0,0c0,0-5.1,41.1-10.3,83.9c-2.6,21.4-5.1,43.3-7.1,60.6c-1,8.7-1.8,16.2-2.3,22.1
		c-0.3,2.9-0.5,5.4-0.7,7.4c-0.2,2-0.2,3.5-0.2,4.6c0,0.4,0,0.7,0.1,1.3c0,0.3,0.1,0.6,0.3,1.3c0.1,0.4,0.3,0.9,1,1.6
		c0.3,0.3,0.8,0.8,1.4,1.1c0.6,0.3,1.5,0.6,2.3,0.6c1,0,1.8-0.3,2.4-0.6c1-0.6,1.3-1.1,1.6-1.4c0.4-0.5,0.5-0.8,0.6-1l0.2-0.6
		c0.4-1.1,0.3-2.2,0-3.2c0-0.7,0.1-1.6,0.2-2.8c0.5-7.2,2.1-21.7,4.1-39.4c3-26.5,7.1-60.1,10.4-87c1.6-13.5,3.1-25.3,4.2-33.7
		c1-8.4,1.7-13.5,1.7-13.5C514.3,3259.6,512.4,3257.1,509.7,3256.8z" class="color000000 svgShape"/><path fill="#1c1c1c" d="M832.3,2608.3c2.1-1.7,2.4-4.8,0.7-6.9l-80.9-98.9c-1.7-2.1-4.8-2.4-6.9-0.7c-2.1,1.7-2.4,4.8-0.7,6.9l80.9,98.9
		C827.1,2609.7,830.2,2610,832.3,2608.3z" class="color000000 svgShape"/><path fill="#1c1c1c" d="M2856.5,3618v10.7c0.2,0,0.5,0,0.7,0C2857.1,3626.1,2856.9,3622.4,2856.5,3618z" class="color000000 svgShape"/><path fill="#1c1c1c" d="M2857.8,2888.7c0.1-0.1,0.1-0.1,0.2-0.2C2857.9,2888.6,2857.8,2888.7,2857.8,2888.7z" class="color000000 svgShape"/><path fill="#1c1c1c" d="M2861.4,2887.1c-0.1,0-0.1,0-0.2,0c0.2,0,0.4,0,0.6,0C2861.6,2887.2,2861.5,2887.1,2861.4,2887.1z" class="color000000 svgShape"/><path fill="#1c1c1c" d="M2860.2,2887.3c0.2,0,0.3-0.1,0.5-0.1C2860.5,2887.2,2860.3,2887.3,2860.2,2887.3z" class="color000000 svgShape"/><path fill="#1c1c1c" d="M2859.3,2887.6c0.1-0.1,0.3-0.1,0.4-0.2C2859.5,2887.5,2859.4,2887.6,2859.3,2887.6z" class="color000000 svgShape"/><path fill="#1c1c1c" d="M2858.5,2888.1c0.1-0.1,0.2-0.1,0.3-0.2C2858.6,2888,2858.5,2888,2858.5,2888.1z" class="color000000 svgShape"/><path fill="#1c1c1c" d="M2862.2,2887.2c0.2,0,0.5,0.1,0.7,0.2C2862.7,2887.3,2862.4,2887.3,2862.2,2887.2z" class="color000000 svgShape"/><path fill="#1c1c1c" d="M2861.4,3331.3c1.3-2.1,3-4.8,4.9-8.1v-418.7c-1.4-1.6-2.9-3.2-4.4-4.8c-1.8,2.6-3.7,5.2-5.4,7.7v418.6
		C2858.3,3328.2,2860,3330,2861.4,3331.3C2861.3,3331.4,2861.4,3331.3,2861.4,3331.3z" class="color000000 svgShape"/><path fill="#1c1c1c" d="M2866.3,3460.9c-1.4,0-2.5,0-3.3,0c-1.1,0-1.7,0-1.7,0c-2.6,0-4.7-2.1-4.8-4.7c0,0,0-0.1,0-0.1v117
		c6.1,17.4,8.7,33.3,9.8,44.5V3460.9z" class="color000000 svgShape"/><path fill="#1c1c1c" d="M2866.3,3397.8v-55.9c0,0,0,0.1,0,0.1c-0.8,1.2-2.1,2-3.5,2.1s-2.8-0.3-3.9-1.3c0,0-0.9-0.8-2.4-2.3v112.1
		c0.1-6.1,0.8-19.6,4.6-36.4C2862.4,3410.4,2864.1,3404.2,2866.3,3397.8z" class="color000000 svgShape"/><path fill="#1c1c1c" d="M2864.9,2888.7c-0.5-0.5-1.1-1-1.8-1.2C2863.8,2887.7,2864.4,2888.1,2864.9,2888.7
		C2864.9,2888.7,2864.9,2888.7,2864.9,2888.7z" class="color000000 svgShape"/><path fill="#1c1c1c" d="M2856.5,3908.4c0,2.7,2.2,4.9,4.9,4.9c2.7,0,4.9-2.2,4.9-4.9v-4.9v-183.1v-84c-0.9,1.3-2.3,2.2-4,2.3c0,0-0.6,0-1.7,0
		c-1,0-2.4,0-4.1-0.1v82.2v182.8V3908.4z" class="color000000 svgShape"/><path fill="#1c1c1c" d="M3300,3385.9c1.2-2.7,2.7-6,4.4-9.7V2615c-0.9-1-1.8-1.9-2.8-2.9c-2.4,3.4-4.7,6.9-7.1,10.3v759.3c1.6,2.6,3,4.9,4.2,6.8
		C3299.2,3387.8,3299.6,3386.9,3300,3385.9z" class="color000000 svgShape"/><path fill="#1c1c1c" d="M3300.2,2599.6c-0.3,0-0.5-0.1-0.8-0.1c-2.7,0-4.9,2.2-4.9,4.9v0.6c0.8-1.2,1.6-2.3,2.4-3.5
		C3297.7,2600.5,3298.9,2599.8,3300.2,2599.6z" class="color000000 svgShape"/><path fill="#1c1c1c" d="M3294.6,3908.4c0,2.7,2.2,4.9,4.9,4.9c2.7,0,4.9-2.2,4.9-4.9v-4.9v-130.1v-166.7c-3,0.2-4.7,0.3-4.8,0.3
		c-1.5,0-2.9-0.6-3.9-1.7c-1-1.1-1.4-2.6-1.1-4.1c0-0.2,2.6-14.1,9.7-35v-166.4c-0.3,0.7-0.5,1-0.5,1c-0.8,1.6-2.3,2.6-4,2.7
		c-1.7,0.1-3.4-0.7-4.4-2.1c0,0-0.3-0.5-0.9-1.3v370.1v133.2V3908.4z" class="color000000 svgShape"/><path fill="#1c1c1c" d="M3299.8,3403.6c1.7-0.1,3.3-1.2,4-2.7c0,0,0.2-0.4,0.5-1c3.9-8.1,31-65.4,58.2-148.1c29.3-89.3,58.7-208.2,58.7-326.9
		c0-59-7.3-118-25.5-173.2c-18.2-55.2-47.5-106.7-91.3-150.6c-1-1-2.4-1.5-3.9-1.4c-0.1,0-0.2,0-0.3,0.1c-1.3,0.2-2.5,0.9-3.3,2
		c-0.8,1.2-1.6,2.3-2.4,3.5c-91.8,131.6-122.6,264-122.5,381.8c0,118.2,30.8,221.7,61.6,295.8c27.8,66.9,55.7,109.7,60.9,117.5
		c0.6,0.8,0.9,1.3,0.9,1.3C3296.4,3402.9,3298.1,3403.7,3299.8,3403.6z M3239.9,3271.9c-29.5-72.6-58-172.2-58-285.1
		c0-112.6,28.4-238.4,112.7-364.4c2.3-3.4,4.7-6.9,7.1-10.3c0.9,1,1.9,1.9,2.8,2.9c38.8,41.1,65.2,88.6,82,139.6
		c17.8,54,25,111.9,25,170.1c0,117.1-29.1,235.1-58.2,323.8c-14.6,44.3-29.1,81.4-40,107.3c-3.3,7.9-6.3,14.7-8.8,20.4
		c-1.6,3.7-3.1,6.9-4.4,9.7c-0.4,1-0.9,1.9-1.2,2.7c-1.2-1.9-2.6-4.2-4.2-6.8C3282.8,3362.6,3261.1,3324.2,3239.9,3271.9z" class="color000000 svgShape"/><path fill="#1c1c1c" d="M3295.8,3605.3c1,1.1,2.4,1.7,3.9,1.7c0.1,0,1.8-0.1,4.8-0.3c14.1-1.1,57.9-6.4,102.2-30.3c26.8-14.5,53.8-35.9,74.3-67.3
		c20.4-31.5,34.2-72.9,34.7-127.1c0-1.5-0.6-2.9-1.7-3.8c-1.1-0.9-2.6-1.3-4.1-1.1c-45.2,8.3-81.4,26.5-110,49.1
		c-43,33.9-69.2,77.7-84.7,112.8c-4.3,9.9-7.8,19-10.6,27.2c-7.2,20.9-9.7,34.8-9.7,35C3294.4,3602.6,3294.8,3604.1,3295.8,3605.3z
		 M3344.1,3504.3c15.2-24.8,35.6-50.2,63-71.5c26.1-20.3,58.4-36.7,98.5-45c-1.5,49.5-14.4,87.1-33,115.8
		c-14.5,22.4-32.6,39.4-51.5,52.4c-28.4,19.5-59,29.8-82.4,35.2c-11.7,2.7-21.6,4.2-28.6,5c-1.7,0.2-3.2,0.3-4.5,0.5
		C3309.1,3582.2,3319.7,3544.2,3344.1,3504.3z" class="color000000 svgShape"/><path fill="#1c1c1c" d="M2861.3,3460.9c0,0,0.6,0,1.7,0c0.8,0,1.9,0,3.3,0c14.1-0.3,55.5-2.4,95.6-18.6c22-8.9,43.6-22.1,59.8-41.7
		c16.2-19.7,26.9-45.8,26.8-79.7c0-7.2-0.5-14.8-1.5-22.7c-0.3-2.4-2.3-4.2-4.6-4.3c-5-0.2-9.8-0.4-14.6-0.4
		c-41.2,0-72.7,8.9-96.7,22.7c-18,10.4-31.8,23.5-42.1,37.4c-10.8,14.5-17.9,29.8-22.7,44.1c-2.2,6.4-3.9,12.6-5.2,18.4
		c-3.8,16.8-4.5,30.3-4.6,36.4c0,0.7,0,1.4,0,1.9c0,0.9,0,1.5,0,1.6c0,0,0,0.1,0,0.1C2856.5,3458.8,2858.7,3460.9,2861.3,3460.9z
		 M2936,3324.7c22.4-12.9,52.1-21.4,91.8-21.4c3.2,0,6.5,0.1,9.9,0.2c0.6,6,0.9,11.8,0.9,17.4c0,31.9-9.8,55.5-24.6,73.5
		c-22.2,27-56.6,41.4-87.3,48.8c-26.8,6.5-50.7,7.7-60.6,7.9c0.4-12.2,3.3-46.3,21.9-78.3C2898.5,3354.9,2913.7,3337.6,2936,3324.7z
		" class="color000000 svgShape"/><path fill="#1c1c1c" d="M2862.2,3638.6c1.7,0,3.2-0.9,4-2.3c0.5-0.7,0.7-1.6,0.8-2.5c0-0.1,0-0.6,0-1.7c0-2.5-0.1-7.6-0.8-14.5
		c-1.1-11.2-3.7-27.1-9.8-44.5c-3.2-9-7.3-18.3-12.6-27.6c-11-19.1-27.4-37.8-51.5-51.6c-24-13.8-55.6-22.8-96.7-22.7
		c-4.7,0-9.6,0.1-14.6,0.4c-2.4,0.1-4.3,1.9-4.6,4.3c-1,7.9-1.5,15.5-1.5,22.7c0,33.9,10.6,60.1,26.8,79.7
		c24.4,29.5,60.8,44.4,92.5,52.1c27.4,6.6,51.5,7.9,62.2,8.2c1.7,0,3.1,0.1,4.1,0.1C2861.6,3638.6,2862.2,3638.6,2862.2,3638.6z
		 M2765.3,3610.9c-20.9-8.5-41.1-20.9-55.9-38.9c-14.8-18-24.5-41.6-24.6-73.5c0-5.5,0.3-11.3,0.9-17.4c3.4-0.1,6.7-0.2,9.9-0.2
		c39.8,0,69.5,8.6,91.8,21.4c16.8,9.7,29.5,21.8,39.2,34.8c14.5,19.5,22.2,41,26.2,58.8c1.9,8.4,3,15.9,3.6,22
		c0.4,4.4,0.7,8.1,0.7,10.8c-0.2,0-0.5,0-0.7,0C2842.2,3628.4,2802.6,3626,2765.3,3610.9z" class="color000000 svgShape"/><path fill="#1c1c1c" d="M2858.8,3342.8c1.1,1,2.5,1.4,3.9,1.3s2.7-0.9,3.5-2.1c0,0,0-0.1,0-0.1c0.6-0.8,20.1-30,39.8-75.5
		c19.9-46,39.8-108.8,39.8-175.9c0-33.7-5-68.5-17.7-102.7c-12.6-34.2-32.9-67.8-63.2-99c0,0-0.1-0.1-0.1-0.1
		c-0.5-0.5-1.1-0.9-1.7-1.1c-0.1,0-0.2-0.1-0.3-0.1c-0.2-0.1-0.5-0.1-0.7-0.2c-0.1,0-0.3,0-0.4,0c-0.2,0-0.4,0-0.6,0
		c-0.1,0-0.1,0-0.2,0c-0.1,0-0.2,0-0.3,0.1c-0.2,0-0.3,0.1-0.5,0.1c-0.2,0-0.4,0.1-0.5,0.2c-0.1,0-0.3,0.1-0.4,0.2
		c-0.2,0.1-0.4,0.2-0.5,0.3c-0.1,0.1-0.2,0.1-0.3,0.2c-0.2,0.1-0.4,0.3-0.5,0.4c-0.1,0.1-0.1,0.1-0.2,0.2c-0.1,0.1-0.3,0.3-0.4,0.4
		c-65.1,89.6-87.1,169.9-87.1,237.1c0,67.5,22.1,121.6,44.2,158.8c17.9,30.1,35.7,49.1,42,55.4
		C2857.9,3342,2858.8,3342.7,2858.8,3342.8z M2821.9,3278.3c-21.1-36-41.8-87.8-41.8-152.1c0-61.9,19.2-135.7,76.4-218.7
		c1.8-2.6,3.6-5.2,5.4-7.7c1.5,1.6,3,3.2,4.4,4.8c24.7,27.7,41.7,56.9,52.7,86.6c12.2,33,17.1,66.6,17.1,99.3
		c0,65.1-19.5,126.7-39,172c-9.8,22.6-19.5,41.2-26.8,54c-1.4,2.5-2.7,4.7-3.9,6.8c-1.9,3.2-3.6,6-4.9,8.1c0,0,0,0.1-0.1,0.1
		c-1.4-1.4-3-3.2-4.9-5.3C2848,3316.8,2834.9,3300.6,2821.9,3278.3z" class="color000000 svgShape"/><path fill="#1c1c1c" d="M3261,1653.9c1.3,2.4,4.3,3.2,6.7,1.9c2.4-1.3,3.2-4.3,1.9-6.7l-73.4-130.3c-1.3-2.4-4.3-3.2-6.7-1.9
		c-2.4,1.3-3.2,4.3-1.9,6.7L3261,1653.9z" class="color000000 svgShape"/><path fill="#1c1c1c" d="M3599.8,1931.8c-0.9-0.9-2.2-1.4-3.5-1.4h-282.9h-936.7c-1.3,0-2.6,0.5-3.5,1.4c-0.9,0.9-1.4,2.2-1.4,3.5v420.5v99.6
		c0,1.3,0.5,2.6,1.4,3.5c0.9,0.9,2.2,1.4,3.5,1.4h1219.6c1.3,0,2.5-0.5,3.5-1.4c0.9-0.9,1.4-2.2,1.4-3.5v-520.1
		C3601.2,1933.9,3600.7,1932.7,3599.8,1931.8z M2381.6,2355.7v-415.6h935.8h274v510.3H2381.6V2355.7z" class="color000000 svgShape"/><path fill="#1c1c1c" d="M2513.6,1985.8c-0.9,0.9-1.4,2.2-1.4,3.5c0,20.6-8.4,39.3-21.9,52.8c-13.5,13.5-32.2,21.9-52.8,21.9
		c-1.3,0-2.6,0.5-3.5,1.4c-0.9,0.9-1.4,2.2-1.4,3.5v252.8c0,1.3,0.5,2.6,1.4,3.5c0.9,0.9,2.2,1.4,3.5,1.4c20.6,0,39.3,8.4,52.8,21.9
		c2.3,2.3,4.4,4.7,6.4,7.3c9.7,12.6,15.5,28.4,15.5,45.6c0,1.3,0.5,2.6,1.4,3.5c0.9,0.9,2.2,1.4,3.5,1.4h938.8
		c1.3,0,2.5-0.5,3.5-1.4c0.9-0.9,1.4-2.2,1.4-3.5c0-20.6,8.4-39.3,21.9-52.8c13.5-13.5,32.2-21.9,52.8-21.9c1.3,0,2.5-0.5,3.5-1.4
		s1.4-2.2,1.4-3.5v-252.8c0-1.3-0.5-2.6-1.4-3.5c-0.9-0.9-2.2-1.4-3.5-1.4c-20.6,0-39.3-8.4-52.8-21.9
		c-13.5-13.5-21.9-32.2-21.9-52.8c0-1.3-0.5-2.6-1.4-3.5c-0.9-0.9-2.2-1.4-3.5-1.4h-122.8h-816
		C2515.8,1984.4,2514.6,1984.9,2513.6,1985.8z M3451.1,1994.2c2.5,42.8,36.7,77,79.5,79.5v243.3c-42.8,2.5-77,36.7-79.5,79.5h-929.2
		c-0.9-14.9-5.6-28.8-13.2-40.7c-14.2-22.1-38.4-37.2-66.3-38.8v-243.3c42.8-2.5,77-36.7,79.5-79.5h814.3H3451.1z" class="color000000 svgShape"/><path fill="#1c1c1c" d="M2986.5,2315.6c66.4,0,120.2-53.8,120.2-120.2c0-66.4-53.8-120.2-120.2-120.2c-66.4,0-120.2,53.8-120.2,120.2
		C2866.3,2261.7,2920.1,2315.6,2986.5,2315.6z M2908.4,2117.2c20-20,47.6-32.3,78.1-32.3c30.5,0,58.1,12.4,78.1,32.3
		c20,20,32.3,47.6,32.3,78.1c0,30.5-12.4,58.1-32.3,78.1c-20,20-47.6,32.3-78.1,32.3c-30.5,0-58.1-12.4-78.1-32.3
		c-20-20-32.3-47.6-32.3-78.1C2876.1,2164.8,2888.4,2137.2,2908.4,2117.2z" class="color000000 svgShape"/><path fill="#1c1c1c" d="M2671.3,2264.6c38.3,0,69.3-31,69.3-69.3c0-38.3-31-69.3-69.3-69.3c-38.3,0-69.3,31-69.3,69.3
		C2602,2233.6,2633.1,2264.6,2671.3,2264.6z M2629.3,2153.2c10.8-10.8,25.6-17.4,42.1-17.4c16.4,0,31.3,6.7,42.1,17.4
		c10.8,10.8,17.4,25.6,17.4,42.1c0,16.4-6.7,31.3-17.4,42.1c-10.8,10.8-25.6,17.4-42.1,17.4c-16.4,0-31.3-6.7-42.1-17.4
		c-10.8-10.8-17.4-25.6-17.4-42.1C2611.8,2178.9,2618.5,2164,2629.3,2153.2z" class="color000000 svgShape"/><path fill="#1c1c1c" d="M3367.9,2174.9c-8.7-28.3-35.1-48.9-66.3-49c-38.3,0-69.3,31-69.3,69.3c0,38.3,31,69.3,69.3,69.3
		c32.6,0,59.9-22.5,67.3-52.8c1.3-5.3,2.1-10.8,2.1-16.5C3371,2188.2,3369.9,2181.4,3367.9,2174.9z M3343.7,2237.4
		c-10.8,10.8-25.6,17.4-42.1,17.4c-16.4,0-31.3-6.7-42.1-17.4c-10.8-10.8-17.4-25.6-17.4-42.1c0-16.4,6.7-31.3,17.4-42.1
		c10.8-10.8,25.6-17.4,42.1-17.4c16.4,0,31.3,6.7,42.1,17.4c10.8,10.8,17.4,25.6,17.4,42.1
		C3361.2,2211.8,3354.5,2226.6,3343.7,2237.4z" class="color000000 svgShape"/><rect width="79.2" height="544.6" x="1000.1" y="3359.8" fill="#1c1c1c" class="color000000 svgShape"/><path fill="#1c1c1c" d="M1089.2,3909.4v-5.9v-548.6c0-1.3-0.5-2.6-1.4-3.5c-0.9-0.9-2.2-1.4-3.5-1.4h-89c1.3,0,2.6,0.5,3.5,1.4
		c0.9,0.9,1.4,2.2,1.4,3.5v4.9h79.2v544.6h-79.2v4.9c0,1.3-0.5,2.5-1.4,3.5c-0.9,0.9-2.2,1.4-3.5,1.4h89c1.1,0,2.1-0.3,2.9-1
		c0.2-0.1,0.4-0.3,0.6-0.5C1088.7,3911.9,1089.2,3910.7,1089.2,3909.4z" class="color000000 svgShape"/><path fill="#fff" d="M900,3607.9h-73.5c0,0.7,0.1,1.3,0.1,2c0,21.3-17.3,38.6-38.6,38.6c-21.3,0-38.6-17.3-38.6-38.6
		c0-0.7,0.1-1.3,0.1-2h-91c-1.8,0-3.5-1-4.4-2.6l-60.7-116.8v416h89h307.8v-394.1l-86.7,96C902.7,3607.3,901.4,3607.9,900,3607.9z" class="colorffffff svgShape"/><path fill="#fff" d="M900.2,3360.9c-1.1,0-2.2-0.4-3.1-1.1h-155c0,0,0,0,0,0h-67.2c0,0,0,0,0,0h-81.5v107.4l0.8,1.6l394.7,28.3
		l1.3-1.4v-135.9h-17.9c0,0,0,0,0,0L900.2,3360.9z" class="colorffffff svgShape"/><path fill="#1c1c1c" d="M998.7,3912.8c0.9-0.9,1.4-2.2,1.4-3.5v-4.9v-544.6v-4.9c0-1.3-0.5-2.6-1.4-3.5c-0.9-0.9-2.2-1.4-3.5-1.4h-19.8l1.3,2.8
		c0.7,1.5,0.6,3.3-0.2,4.7c-0.9,1.4-2.4,2.3-4.1,2.3h17.9v135.9l1.3-1.4c1.8-2,4.9-2.2,6.9-0.4c2,1.8,2.2,4.9,0.4,6.9l-8.6,9.5
		v394.1H682.5h-89v-416l-9.3-17.8l0,0c-1.3-2.4-0.3-5.4,2.1-6.6c2.4-1.3,5.4-0.3,6.6,2.1l0.6,1.1v-107.4h81.5c-1.6,0-3.1-0.8-4-2.1
		c-0.9-1.3-1.1-3-0.6-4.5l1.2-3.2h-83c-1.3,0-2.6,0.5-3.5,1.4c-0.9,0.9-1.4,2.2-1.4,3.5v554.5c0,1.3,0.5,2.6,1.4,3.5
		c0.9,0.9,2.2,1.4,3.5,1.4h89h317.6C996.5,3914.3,997.8,3913.8,998.7,3912.8z" class="color000000 svgShape"/><path fill="#1c1c1c" d="M895.6,3358l-3.6-8H749.1l-2.3,6.6c-0.7,2-2.5,3.3-4.6,3.3h155C896.5,3359.3,896,3358.7,895.6,3358z" class="color000000 svgShape"/><path fill="#fff" d="M728.8,3222L682,3350l56.7,0l35.8-100.4c0.7-2,2.5-3.3,4.6-3.3h73.9c1.9,0,3.7,1.1,4.5,2.9l45.7,101.8
		l61.3-0.9L902.1,3222H728.8z" class="colorffffff svgShape"/><path fill="#1c1c1c" d="M670.9,3357.7c0.9,1.3,2.4,2.1,4,2.1c0,0,0,0,0,0h67.2c0,0,0,0,0,0c2.1,0,3.9-1.3,4.6-3.3l2.3-6.6l33.5-93.8h67.3L892,3350
		l3.6,8c0.3,0.7,0.9,1.3,1.5,1.8c0.9,0.7,1.9,1.1,3.1,1.1l72.3-1.1c0,0,0,0,0,0c1.7,0,3.2-0.9,4.1-2.3c0.9-1.4,1-3.2,0.2-4.7
		l-1.3-2.8l-65.9-135.1c-0.8-1.7-2.5-2.8-4.4-2.8H781.4h-56c-2.1,0-3.9,1.3-4.6,3.2L671.5,3350l-1.2,3.2
		C669.8,3354.7,670,3356.4,670.9,3357.7z M964.6,3350.1l-61.3,0.9l-45.7-101.8c-0.8-1.8-2.5-2.9-4.5-2.9h-73.9
		c-2.1,0-3.9,1.3-4.6,3.3L738.7,3350l-56.7,0l46.8-128h173.3L964.6,3350.1z" class="color000000 svgShape"/><path fill="#fff" d="M661.5,3598.1h89.7c5-15.5,19.6-26.8,36.7-26.8c17.2,0,31.8,11.2,36.7,26.8h73.1l91.2-101l-394.7-28.3
		L661.5,3598.1z" class="colorffffff svgShape"/><path fill="#1c1c1c" d="M654.1,3605.3c0.8,1.6,2.5,2.6,4.4,2.6h91c0.2-3.4,0.8-6.7,1.8-9.8h-89.7l-67.2-129.3l-0.8-1.6l-0.6-1.1
		c-1.3-2.4-4.2-3.3-6.6-2.1c-2.4,1.3-3.3,4.2-2.1,6.6l0,0l9.3,17.8L654.1,3605.3z" class="color000000 svgShape"/><path fill="#1c1c1c" d="M897.8,3598.1h-73.1c1,3.1,1.6,6.4,1.8,9.8H900c1.4,0,2.7-0.6,3.6-1.6l86.7-96l8.6-9.5c1.8-2,1.7-5.1-0.4-6.9
		c-2-1.8-5.1-1.7-6.9,0.4l-1.3,1.4l-1.3,1.4L897.8,3598.1z" class="color000000 svgShape"/><path fill="#1c1c1c" d="M808.3,3589.6c-5.2-5.2-12.4-8.4-20.4-8.4c-8,0-15.1,3.2-20.4,8.4c-5.2,5.2-8.4,12.4-8.4,20.4c0,8,3.2,15.1,8.4,20.4
		c5.2,5.2,12.4,8.4,20.4,8.4c8,0,15.1-3.2,20.4-8.4c5.2-5.2,8.4-12.4,8.4-20.4C816.7,3601.9,813.5,3594.8,808.3,3589.6z" class="color000000 svgShape"/><path fill="#1c1c1c" d="M787.9,3571.3c-17.2,0-31.8,11.2-36.7,26.8c-1,3.1-1.6,6.4-1.8,9.8c0,0.7-0.1,1.3-0.1,2c0,21.3,17.3,38.6,38.6,38.6
		c21.3,0,38.6-17.3,38.6-38.6c0-0.7-0.1-1.3-0.1-2c-0.2-3.4-0.8-6.7-1.8-9.8C819.7,3582.6,805.1,3571.3,787.9,3571.3z M816.7,3609.9
		c0,8-3.2,15.1-8.4,20.4c-5.2,5.2-12.4,8.4-20.4,8.4c-8,0-15.1-3.2-20.4-8.4c-5.2-5.2-8.4-12.4-8.4-20.4c0-8,3.2-15.1,8.4-20.4
		c5.2-5.2,12.4-8.4,20.4-8.4c8,0,15.1,3.2,20.4,8.4C813.5,3594.8,816.7,3601.9,816.7,3609.9z" class="color000000 svgShape"/><path fill="#1c1c1c" d="M2029.4,3748l-16.4,22.3c-1.6,2.2-1.1,5.3,1.1,6.9s5.3,1.1,6.9-1.1l18.2-24.8l6.1-8.2l2.7-3.7c1.6-2.2,1.1-5.3-1.1-6.9
		c-2.2-1.6-5.3-1.1-6.9,1.1l-4.5,6.1L2029.4,3748z" class="color000000 svgShape"/><path fill="#1c1c1c" d="M2093,3775.4l-16,17.7c-1.8,2-1.7,5.1,0.3,6.9c2,1.8,5.1,1.7,6.9-0.3l17.5-19.3l6.7-7.4l4.3-4.7c1.8-2,1.7-5.1-0.3-6.9
		c-2-1.8-5.1-1.7-6.9,0.3l-5.7,6.3L2093,3775.4z" class="color000000 svgShape"/><path fill="#1c1c1c" d="M2133.1,3802.1l-13.5,15c-1.8,2-1.7,5.1,0.4,6.9c2,1.8,5.1,1.7,6.9-0.4l13.6-15.2l6.6-7.3l8.8-9.7c1.8-2,1.7-5.1-0.4-6.9
		c-2-1.8-5.1-1.7-6.9,0.4l-8.9,9.9L2133.1,3802.1z" class="color000000 svgShape"/><path fill="#1c1c1c" d="M1566.4,3730.2l-15.9,32.6c-1.2,2.4-0.2,5.4,2.3,6.6c2.4,1.2,5.4,0.2,6.6-2.3l16.9-34.7l4.4-9.1l2.2-4.5
		c1.2-2.4,0.2-5.4-2.3-6.6c-2.4-1.2-5.4-0.2-6.6,2.3l-3.3,6.7L1566.4,3730.2z" class="color000000 svgShape"/><path fill="#1c1c1c" d="M1627.2,3747.6l-14.9,30.9c-1.2,2.4-0.2,5.4,2.3,6.6c2.4,1.2,5.4,0.2,6.6-2.3l15.3-31.6l4.3-8.9l1.8-3.7
		c1.2-2.4,0.2-5.4-2.3-6.6c-2.4-1.2-5.4-0.2-6.6,2.3l-2.1,4.4L1627.2,3747.6z" class="color000000 svgShape"/><path fill="#1c1c1c" d="M1673.8,3769.6l-11.6,15.7c-1.6,2.2-1.2,5.3,1,6.9c2.2,1.6,5.3,1.2,6.9-1l12.1-16.4l5.9-7.9l6.7-9c1.6-2.2,1.2-5.3-1-6.9
		c-2.2-1.6-5.3-1.2-6.9,1l-7.2,9.7L1673.8,3769.6z" class="color000000 svgShape"/><path fill="#1c1c1c" d="M1563,883.9l0.1,0.1c0.7,1.2,7.1,12.9,13.6,30c6.6,17.1,13.3,39.5,14.9,62.2c0.2,2.7,2.5,4.7,5.2,4.6
		c2.7-0.2,4.7-2.5,4.6-5.2c-1.7-24.9-9.2-48.9-16.2-66.7c-7-17.8-13.6-29.5-13.6-29.7c-1.3-2.4-4.3-3.2-6.7-1.9
		C1562.5,878.6,1561.7,881.6,1563,883.9L1563,883.9z" class="color000000 svgShape"/><path fill="#fff" d="M1402.3,1660c-3.5,9.7-9.7,19.9-20.2,29c-1.4,1.2-1.5,3.3-0.3,4.6c1.2,1.4,3.3,1.5,4.6,0.3
		c11.4-9.9,18.2-21.1,22.1-31.7c3.9-10.6,4.9-20.5,4.9-27.9c0-7.9-1.1-13-1.2-13.2c-0.4-1.8-2.1-2.9-3.9-2.5
		c-1.8,0.4-2.9,2.1-2.5,3.9l0,0l0,0c0.1,0.4,1,4.9,1,11.8C1406.7,1641.2,1405.8,1650.3,1402.3,1660z" class="colorffffff svgShape"/><path fill="#1c1c1c" d="M1137.9,2145.6c0.8-2.6-0.7-5.3-3.3-6.1c-2.6-0.8-5.3,0.7-6.1,3.3l-12.1,40.8l0,0.2c-0.8,2.6,0.7,5.3,3.3,6.1
		c2.6,0.8,5.2-0.7,6.1-3.2c0,0,0-0.1,0-0.1L1137.9,2145.6z" class="color000000 svgShape"/><path fill="#1c1c1c" d="M1182.4,2154.2c0.4-2.7-1.4-5.2-4.1-5.6c-2.7-0.4-5.2,1.4-5.6,4.1l-7.4,47.5l0,0.2c-0.4,2.7,1.4,5.2,4.1,5.6
		c2.7,0.4,5.1-1.4,5.6-4c0,0,0,0,0-0.1L1182.4,2154.2z" class="color000000 svgShape"/><path fill="#1c1c1c" d="M1230.2,2150.4c-2.7-0.2-5.1,1.8-5.3,4.5l-4.1,48l0,0.4c-0.2,2.7,1.8,5.1,4.5,5.3s5.1-1.8,5.3-4.5l0-0.1l4.1-48.3
		C1234.9,2153,1232.9,2150.6,1230.2,2150.4z" class="color000000 svgShape"/><path fill="#1c1c1c" d="M1253.6,2061.7c-2.6,0.6-4.3,3.2-3.7,5.9l4.9,22.1c0,0,0,0,0,0c0.6,2.6,3.2,4.3,5.8,3.7c2.6-0.6,4.3-3.2,3.7-5.9l-0.4-1.7
		l-4.5-20.3C1258.9,2062.8,1256.2,2061.1,1253.6,2061.7z" class="color000000 svgShape"/><path fill="#fff" d="M2217,641.3c3.7-10.2,4.9-23.2,4.9-32.8c0-4.4-0.3-8.1-0.6-10.4l0,0c-0.1-0.5-0.1-1-0.1-1.5
		c0-1.9,0.4-3.6,1-5.4c0.6-1.8,1.3-3.7,2.3-5.6c1.8-3.9,4.3-8.3,7.1-13c5.6-9.3,12.5-19.9,18.1-29.5c3.7-6.4,6.8-12.3,8.4-17
		c0.9-2.6,1.4-4.8,1.4-6.1c0-0.7-0.1-1.1-0.2-1.3l-0.1-0.2c-0.7-0.5-1.4-0.8-2.7-0.8c-1.6,0-3.9,0.5-6.6,1.7
		c-2.7,1.1-5.7,2.8-8.8,4.8c-6.3,4-12.9,9.1-18.8,13.4c-4,2.9-7.6,5.4-10.9,7c-2,0.9-3.8,1.7-6.2,1.7l-0.3,0
		c-2.5-0.1-4.9-0.8-6.8-1.9c-0.3-0.2-0.6-0.4-0.9-0.6l3,114.8c4.1-0.4,7.1-2,10-4.9C2212.8,650.7,2215.2,646.4,2217,641.3z" class="colorffffff svgShape"/><path fill="#1c1c1c" d="M2224.6,603.2c-0.6-1.1-1.1-2.4-1-3.8c0-2.7,2.2-4.9,4.9-4.9c1,0,1.9,0.3,2.7,0.8c0.2-0.8,0.5-2,1.1-3.3
		c1.6-4,4.7-9.6,8.4-15.7c1.2-2,2.6-4.2,3.9-6.3c-1.3-0.3-2.4-1-3.2-2.2c-1.5-2.3-0.8-5.3,1.5-6.8l11.9-7.6c1.4-2.3,2.8-4.6,4-6.8
		c2.8-4.9,5.3-9.7,7.2-14.1c1.8-4.4,3.1-8.5,3.1-12.5c0-1.7-0.2-3.4-0.9-5c-0.3-0.9-0.8-1.7-1.4-2.4l-9.2,4.7
		c-2.4,1.2-5.4,0.3-6.6-2.2c-1.2-2.4-0.3-5.4,2.2-6.6l0.7-0.3c-4.5,0.6-8.8,2.5-13.3,4.9c-7.8,4.3-15.7,10.4-22.5,15.4
		c-3.4,2.5-6.5,4.7-9,6.2c-1.2,0.7-2.3,1.3-3.1,1.6c-0.4,0.2-0.7,0.3-0.9,0.3l-0.2,0c-1.1-0.1-1.7-0.3-2-0.5l-0.6-0.6
		c-0.3-0.4-0.5-0.9-0.7-1.6c-0.2-0.7-0.2-1.5-0.2-2.1c0-0.3,0-0.6,0-0.8l0-0.2l0,0l0,0c0.4-2.7-1.5-5.1-4.2-5.5
		c-2.7-0.4-5.2,1.5-5.6,4.2l0,0c0,0.2-0.1,1-0.1,2.3c0,2,0.2,5.1,2,8.3c0.8,1.3,1.9,2.7,3.3,3.7c0.3,0.2,0.6,0.4,0.9,0.6
		c1.9,1.2,4.2,1.8,6.8,1.9l0.3,0c2.4,0,4.3-0.8,6.2-1.7c3.4-1.6,7-4.1,10.9-7c5.9-4.3,12.6-9.4,18.8-13.4c3.1-2,6.1-3.7,8.8-4.8
		c2.7-1.1,5-1.7,6.6-1.7c1.3,0,2,0.3,2.7,0.8l0.1,0.2c0.1,0.2,0.2,0.6,0.2,1.3c0,1.3-0.4,3.5-1.4,6.1c-1.6,4.6-4.7,10.6-8.4,17
		c-5.5,9.6-12.5,20.1-18.1,29.5c-2.8,4.7-5.3,9.1-7.1,13c-0.9,2-1.7,3.8-2.3,5.6c-0.6,1.8-0.9,3.5-1,5.4c0,0.5,0,1,0.1,1.5l0,0
		c0.3,2.3,0.6,6,0.6,10.4c0,9.6-1.2,22.6-4.9,32.8c-1.8,5.1-4.2,9.5-7.1,12.4c-2.8,2.9-5.9,4.5-10,4.9c-0.1,0-0.1,0-0.2,0
		c-2.7,0.2-4.7,2.5-4.5,5.3c0.2,2.7,2.5,4.7,5.3,4.5c6.7-0.5,12.4-3.6,16.6-8c6.3-6.6,9.7-15.8,11.9-25.1c2.1-9.4,2.8-19,2.8-26.8
		c-1-0.4-2.1-0.9-3-1.5C2227.2,606.2,2225.7,605.1,2224.6,603.2z" class="color000000 svgShape"/><path fill="#1c1c1c" d="M2243,561c-2.3,1.5-3,4.5-1.5,6.8c0.7,1.2,1.9,1.9,3.2,2.2c1.2,0.2,2.5,0.1,3.6-0.7l41.1-26.2l0.8-0.5
		c2.3-1.5,3-4.5,1.5-6.8c-1.5-2.3-4.5-3-6.8-1.5l0,0l-30,19.1L2243,561z" class="color000000 svgShape"/><path fill="#1c1c1c" d="M2253.8,508.1l-0.7,0.3c-2.4,1.2-3.4,4.2-2.2,6.6c1.2,2.4,4.2,3.4,6.6,2.2l9.2-4.7l11.7-5.9l0.6-0.3
		c2.4-1.2,3.4-4.2,2.2-6.6c-1.2-2.4-4.1-3.3-6.4-2.2c-0.1,0-0.1,0-0.2,0.1L2253.8,508.1z" class="color000000 svgShape"/><path fill="#1c1c1c" d="M2297.6,567.1L2297.6,567.1L2297.6,567.1c0,0-0.8,0.5-2.2,1.5c-4.8,3.3-17.1,11.6-28.7,19.1c-5.8,3.7-11.5,7.2-16,9.8
		c-2.2,1.3-4.2,2.3-5.6,2.9c-0.7,0.3-1.3,0.6-1.6,0.7l-0.1,0c-2.4,0-5.6-0.6-7.9-1.5c-1.1-0.4-1.8-0.9-2.2-1.1
		c-0.3-1.3-1-2.4-2.1-3.1c-0.8-0.5-1.7-0.8-2.7-0.8c-2.7,0-4.9,2.2-4.9,4.9c0,1.4,0.4,2.8,1,3.8c1.1,1.9,2.5,3,4,3.9
		c1,0.6,2,1,3,1.5c1.4,0.6,2.8,1,4.2,1.4c0.8,0.2,1.6,0.3,2.4,0.4c0.3-0.7,0.6-1.4,0.9-2.1c1.3-2.4,3.3-4.6,5.9-6.3
		c2.2-1.5,5.3-1,6.8,1.3c0.9,1.3,1.1,2.9,0.6,4.4c2.9-1.5,6.3-3.5,10-5.8c15.7-9.6,36.6-23.9,40-26.3c0.3-0.2,0.5-0.4,0.5-0.4
		c2.2-1.5,2.8-4.6,1.2-6.8c-1.3-1.9-3.8-2.6-5.9-1.7c0,0,0,0,0,0C2298.1,566.7,2297.8,566.9,2297.6,567.1z" class="color000000 svgShape"/><path fill="#1c1c1c" d="M2301.8,602.5l-0.3,0.3c-1.7,1.6-9.6,9-18.4,15.9c-4.4,3.4-9.1,6.8-13.2,9.1c-2.1,1.2-4,2.1-5.6,2.7
		c-1.6,0.6-2.9,0.9-3.6,0.8c-0.4,0-0.5-0.1-0.5-0.1c-2.9-1.1-6.5-3.6-9-6.6c-1.3-1.5-2.3-3.1-3-4.6c-0.7-1.5-1-3-1-4.2
		c0-1.1,0.2-2,0.7-2.9c0.5-0.9,1.3-1.9,2.8-2.9c0.9-0.6,1.5-1.5,1.9-2.5c0.5-1.4,0.3-3-0.6-4.4c-1.5-2.2-4.6-2.8-6.8-1.3
		c-2.5,1.7-4.5,3.9-5.9,6.3c-0.4,0.7-0.7,1.4-0.9,2.1c-0.7,1.8-1,3.7-1,5.5c0,2.9,0.7,5.6,1.8,8.2c1.7,3.8,4.3,7.2,7.3,10
		c3,2.8,6.5,5.1,10.2,6.5c1.3,0.5,2.7,0.7,4,0.7c2.6,0,5-0.7,7.5-1.6c4.3-1.7,8.8-4.4,13.3-7.5c1.7-1.2,3.5-2.5,5.2-3.8
		c11.6-8.7,21.9-18.7,22-18.8c2-1.9,2-5,0.1-6.9C2306.9,600.7,2303.8,600.6,2301.8,602.5C2301.8,602.5,2301.8,602.5,2301.8,602.5
		L2301.8,602.5z" class="color000000 svgShape"/></svg>