<svg xmlns="http://www.w3.org/2000/svg" enable-background="new 0 0 4000 4000" viewBox="0 0 4000 4000"><path fill="none" d="M3124.1,2386.6c-17.7-17.7-42.2-28.7-69.2-28.7c-27,0-51.5,10.9-69.2,28.7c-17.7,17.7-28.7,42.2-28.7,69.2
		c0,27,10.9,51.5,28.7,69.2c17.7,17.7,42.2,28.7,69.2,28.7c27,0,51.5-10.9,69.2-28.7c17.7-17.7,28.7-42.2,28.7-69.2
		C3152.7,2428.8,3141.8,2404.3,3124.1,2386.6z"/><path fill="none" d="M1388,1864.2c-2.2,6.6-5.1,12.6-8.6,18.1c38.3,43.9,117.8,143.1,197.3,290.8
		c64.7,120.1,129.3,272.3,171.8,452.9l168.7-301.5v-146.6H1625c-1.1,0-2.3-0.5-3-1.3c-7.5-8.1-12-17.5-12-27.6
		c0-9.8,4.2-18.9,11.3-26.9c7.1-8,17.1-14.9,29.3-20.7c23.5-11.1,55.2-18,90.2-18.5c-0.1-2.2-0.2-4.4-0.2-6.6
		c0-19,4.5-36.6,12.3-51.4c7.8-14.7,18.9-26.6,32.2-33.7c8.8-4.8,18.6-7.4,28.9-7.4c18.4,0,35.2,8.6,47.9,22.4
		c11.9,13,20.4,30.7,23.8,50.7c2.9-0.2,5.8-0.4,8.7-0.4c7.9,0,15.6,0.9,22.9,2.5v-119.5c-95.9-2.5-209.3-17.5-331.8-93
		c-88-54.3-153.7-101.2-198.8-136c5.1,35.9,8.9,69.1,8.9,97.9C1395.4,1829.4,1393.4,1848.3,1388,1864.2z"/><path fill="none" d="M1360.3,3057.7c32.4,0,63.3,6.7,91.3,18.8c-0.1-3.1-0.2-6.2-0.2-9.3c0-64.5,31.3-121.7,79.6-157.1
		c-18.4-75.4-39.7-154.5-63.3-227.2c-26.7-82.5-56.4-156.8-87.7-208.1c-52.6-86.2-104.7-150.8-144.7-194.8c-0.7,1.8-2.6,2.9-4.5,2.6
		c-2.2-0.4-3.8-2.5-3.4-4.7l0.9-5.5c-0.2-0.2-0.4-0.4-0.6-0.6c-52.5,284.1-170,480.3-308.1,620.1
		C764.2,3049.1,582.9,3135,439.5,3195c-0.5,0.2-1,0.3-1.5,0.3l-0.7,0c-2.8,0-5.5-0.3-8.2-0.7c0.3,2.5,0.7,5,1.1,7.5
		c2.7,17,7.5,35.4,15.9,51c5.6,10.4,12.7,19.6,21.7,26.4l-2.5,3.3l2.5-3.3c10,7.6,16.7,16.7,20.7,26.4c4.1,9.7,5.6,19.8,5.6,29.6
		c0,16.9-4.5,32.8-8.5,43.8c0,0,0,0,0,0c-1.7,4.7-3.4,8.5-4.6,11.1h672.5c-15.3-30.8-23.8-65.5-23.8-102.2
		C1129.7,3160.9,1232.9,3057.7,1360.3,3057.7z M1234.8,2846.2l27.2-80.6c0.7-2.2,3.1-3.3,5.2-2.6c2.2,0.7,3.3,3.1,2.6,5.2
		l-27.2,80.6c-0.7,2.2-3.1,3.3-5.2,2.6C1235.2,2850.7,1234.1,2848.4,1234.8,2846.2z"/><linearGradient id="a" x1="847.482" x2="850.234" y1="1284.212" y2="1284.212" gradientTransform="scale(-91.7931 91.7931) rotate(88.264 1054.351 198.013)" gradientUnits="userSpaceOnUse"><stop class="stopColorfbd027 svgShape" offset="0" stop-color="#8aa2ff"/><stop class="stopColorfcefbc svgShape" offset="1" stop-color="#8b93e1"/></linearGradient><path fill="url(#a)" d="M3195.5,2403.9c3.4,13.3,5.6,22,9,35.4l25.6,16.6h467.1V2373h-485.1L3195.5,2403.9z"/><linearGradient id="b" x1="847.482" x2="850.234" y1="1280.15" y2="1280.15" gradientTransform="scale(-91.7931 91.7931) rotate(88.264 1054.351 198.013)" gradientUnits="userSpaceOnUse"><stop class="stopColorfbd027 svgShape" offset="0" stop-color="#8aa2ff"/><stop class="stopColorfcefbc svgShape" offset="1" stop-color="#8b93e1"/></linearGradient><path fill="url(#b)" d="M3080.7,2270l18.8,44.3c12.5,5.6,20.7,9.3,33.3,15l0.4-0.1v-95h-110.6v34.8c26.4-0.7,27.8-0.7,54.3-1.4
		C3078.4,2267.5,3080,2268.5,3080.7,2270z"/><path fill="#fff" d="M1882.6,2065.3c-2.2,0.3-4.3-1.3-4.6-3.6c-2.7-20.1-10.9-37.7-22.3-50.1c-11.5-12.5-26-19.7-41.8-19.7
		c-8.8,0-17.3,2.3-25,6.5c-7.7,4.2-14.8,10.3-20.7,17.9c-11.9,15.2-19.4,36.4-19.4,60c0,3.5,0.2,6.9,0.5,10.3
		c0.1,1.2-0.3,2.3-1.1,3.2c-0.8,0.9-1.9,1.3-3.1,1.3l-0.5,0c-26.6,0-51.4,3.9-71.7,10.4c-20.4,6.5-36.3,15.8-45.5,26.1
		c-6.1,6.9-9.2,14-9.2,21.4c0,7.1,3,14,8.7,20.7h290.3v-102.3c-7.3-1.7-15-2.7-22.9-2.7C1890.3,2064.6,1886.4,2064.8,1882.6,2065.3z
		" class="colorffffff svgShape"/><path fill="#1c1c1c" d="M1917.2,2169.5h-290.3c-5.7-6.7-8.7-13.6-8.7-20.7c0-7.3,3.1-14.5,9.2-21.4c9.1-10.3,25.1-19.6,45.5-26.1
		c20.4-6.5,45.1-10.4,71.7-10.4l0.5,0c1.2,0,2.3-0.5,3.1-1.3c0.8-0.9,1.2-2,1.1-3.2c-0.3-3.4-0.5-6.8-0.5-10.3
		c0-23.5,7.5-44.8,19.4-60c6-7.6,13-13.7,20.7-17.9c7.7-4.2,16.1-6.5,25-6.5c15.8,0,30.4,7.3,41.8,19.7c11.4,12.4,19.6,30,22.3,50.1
		c0.3,2.2,2.3,3.8,4.6,3.6c3.8-0.4,7.7-0.7,11.7-0.7c7.9,0,15.6,0.9,22.9,2.7v-8.4c-7.4-1.6-15-2.5-22.9-2.5c-3,0-5.8,0.2-8.7,0.4
		c-3.4-20-11.8-37.7-23.8-50.7c-12.7-13.8-29.5-22.4-47.9-22.4c-10.3,0-20.1,2.7-28.9,7.4c-13.3,7.2-24.4,19-32.2,33.7
		c-7.8,14.7-12.3,32.4-12.3,51.4c0,2.2,0.1,4.4,0.2,6.6c-35,0.5-66.7,7.4-90.2,18.5c-12.2,5.8-22.2,12.7-29.3,20.7
		c-7.1,7.9-11.3,17.1-11.3,26.9c0,10.1,4.5,19.5,12,27.6c0.8,0.8,1.9,1.3,3,1.3h292.2V2169.5z" class="color000000 svgShape"/><path fill="#fff" d="M2980.6,1635.6c-15.1,0-29.7,1.7-43.9,4.9c-2,0.5-4.1-0.7-4.8-2.6c-28.1-76-101.1-130.1-186.8-130.1
		c-90.8,0-167.3,60.8-191.3,143.9c-0.3,1.1-1.1,2-2.1,2.5c-2.2,1.1-4.4,2.3-6.5,3.5v171.4h634.3
		C3176.6,1721.8,3088.7,1635.6,2980.6,1635.6z" class="colorffffff svgShape"/><path fill="#1c1c1c" d="M2545.3,1657.7c2.1-1.2,4.3-2.4,6.5-3.5c1-0.5,1.8-1.4,2.1-2.5c24-83.1,100.5-143.9,191.3-143.9
		c85.7,0,158.8,54.2,186.8,130.1c0.7,1.9,2.8,3,4.8,2.6c14.1-3.2,28.8-4.9,43.9-4.9c108.1,0,196,86.1,198.9,193.5h-634.3v8.3h638.6
		c1.1,0,2.2-0.4,2.9-1.2c0.8-0.8,1.2-1.8,1.2-2.9c-0.8-113.8-93.3-205.9-207.3-205.9c-14.5,0-28.6,1.5-42.2,4.4
		c-30.1-77.4-105.3-132.2-193.3-132.2c-93.9,0-173.2,62.5-198.7,148.1c-0.4,0.2-0.8,0.4-1.2,0.6V1657.7z" class="color000000 svgShape"/><path fill="#fff" d="M3182.8,2315.3c17.1,20.3,17.9,21.4,35,41.7c1.1,1.3,1.3,3.1,0.5,4.6l-1.7,3.2h557.9l0-230.8h-633.1v192.4
		l37-12.4C3180,2313.5,3181.8,2314,3182.8,2315.3z M3331.1,2304.2h-56.2c-2.3,0-4.1-1.8-4.1-4.1c0-2.3,1.8-4.1,4.1-4.1h56.2
		c2.3,0,4.1,1.8,4.1,4.1C3335.2,2302.4,3333.4,2304.2,3331.1,2304.2z M3654.1,2304.2h-256.3c-2.3,0-4.1-1.8-4.1-4.1
		c0-2.3,1.8-4.1,4.1-4.1h256.3c2.3,0,4.1,1.8,4.1,4.1C3658.2,2302.4,3656.4,2304.2,3654.1,2304.2z M3274.9,2187.4h379.2
		c2.3,0,4.1,1.8,4.1,4.1c0,2.3-1.8,4.1-4.1,4.1h-379.2c-2.3,0-4.1-1.8-4.1-4.1C3270.7,2189.3,3272.6,2187.4,3274.9,2187.4z" class="colorffffff svgShape"/><path fill="#1c1c1c" d="M3134.3,2126.9c-0.8,0.8-1.2,1.8-1.2,2.9v104.3v95l8.3-2.8V2134h633.1l0,230.8h-557.9l-4.5,8.3h485.1h81.4
		c1.1,0,2.1-0.4,2.9-1.2s1.2-1.8,1.2-2.9v-239.1c0-1.1-0.4-2.1-1.2-2.9c-0.8-0.8-1.8-1.2-2.9-1.2h-641.4
		C3136.1,2125.7,3135.1,2126.1,3134.3,2126.9z" class="color000000 svgShape"/><linearGradient id="c" x1="830.881" x2="833.632" y1="1225.602" y2="1225.602" gradientTransform="scale(-735.7716 735.7716) rotate(89.112 1036.91 190.689)" gradientUnits="userSpaceOnUse"><stop class="stopColorfbd027 svgShape" offset="0" stop-color="#8aa2ff"/><stop class="stopColorfcefbc svgShape" offset="1" stop-color="#8b93e1"/></linearGradient><path fill="url(#c)" d="M972,1872.5c-11.6-5.7-16.7-9.7-16.9-9.9c-1-0.8-1.6-2-1.6-3.3c0-0.1,0.3-39.7,5-93.8
		c2.3-27.2,5.8-58.1,10.8-89.4c-7.9,1.5-16.4,3.2-25.1,5.5c-43,10.8-94.5,31.5-139.2,70.8c-29.8,26.2-56.7,60.7-76.2,106.4
		c-15,35-20,76.9-20,126.8c0,58,6.7,126.7,11.9,207.6c0.1,1-0.2,1.9-0.8,2.7c-1,1.4-2.2,2.6-3.5,3.8c1.8,3.4,3.9,6.8,6.3,9.6
		c3,3.7,6.5,6.5,10.1,7.9c8.4,3.2,14.2,7.8,18.3,12.9c4.1,5,6.7,10.3,9.3,15c1.7,3.1,3.4,5.9,5.5,8.4c2.8,3.2,6.1,5.8,11.4,7.7
		c6,2.1,12.3,2.6,18.2,2.6c5.2,0,10.2-0.4,14.8-0.4c2.6,0,5,0.1,7.4,0.6c2.3,0.5,4.7,1.4,6.7,3c1.3,1.1,2.4,2.5,3.2,4.2
		c1,2.2,1.5,4.7,1.6,7.5v0.2v0l0,0.2c0,2.5-0.6,4.9-1.6,7.1c-1,2.2-2.4,4.3-4,6.3c-3.3,3.9-7.8,7.3-13,10.2
		c-10.3,5.8-23.4,9.6-35.7,9.6c-5.5,0-10.9-0.8-15.9-2.6c1.9,7.1,4.2,15.8,6.4,25.1c3.2,14,5.9,28.9,5.9,40.4
		c0,3.9-0.3,7.4-1.1,10.5c-0.8,3.1-2.1,6-4.6,8.1c-1.6,1.4-3.8,2.3-6,2.4c-0.5,0-1,0.1-1.5,0.1c-2.9,0-5.6-0.7-8-1.8
		c-2.4-1.1-4.6-2.7-6.5-4.5c-2.8-2.6-5.1-5.6-7-8.8c-0.2,2.4-0.5,4.7-1,7c-1,4.3-2.6,8.4-5.8,11.5c-2.1,2.1-5,3.5-8.3,3.9
		c-0.6,0.1-1.2,0.1-1.8,0.1c-2.8,0-5.4-0.7-7.7-1.9c-2.3-1.2-4.3-2.8-6.1-4.7c-2.3-2.4-4.2-5.1-5.9-7.9c0,0.1,0,0.2-0.1,0.3
		c-0.7,2.8-1.7,5.6-3.6,8c-1.2,1.6-2.8,3-4.7,4.1c-2.5,1.4-5.6,2.2-9,2.2l-0.5,0c-6.5-0.1-12.1-2.7-16.4-6.2
		c-3.2-2.5-5.7-5.6-7.8-8.7c-0.5,2.3-1.3,4.6-2.6,6.6c-0.9,1.4-2.2,2.7-3.7,3.8c-2.1,1.4-4.6,2.1-7.4,2.1c-4.4,0-9.3-1.6-15.4-4.9
		c-5.1-2.8-9.1-7.6-12.7-13.4c-3.5-5.9-6.6-13.1-9.2-21c-5.3-15.9-9.2-35.2-12.1-53.8c-5.6-36.6-7.3-70.8-7.3-72l0,0
		c-0.1-2.3-0.2-5.1-0.2-8.1c-5.5,0.3-8.7,0.4-8.7,0.4c-1.6,0-3.1-0.8-3.8-2.3c-0.2-0.3-52.1-102.8-52.1-240.4
		c0-77.6,16.6-166.4,68.3-254c72.8-123.3,167.5-191.9,255.7-229.5c88.3-37.6,170.1-44.4,217.7-44.4c22.2,0,36.9,1.5,41.4,2
		c6.1-1.1,12-2.2,17.8-3.2c0.8-2.1,1.6-4.5,2.4-7.1c4-12.9,8-31.2,8-52.8c0-5.6-0.3-11.3-0.9-17.3c-0.8-7.7-2.9-17.5-5.6-28.5
		c-0.3-1.3-0.7-2.8-1.1-4.1c-3.6,0.5-6.9,0.7-9.7,0.7c-4.7,0-7.9-0.5-8-0.5c-1.3-0.2-2.5-1-3.1-2.2c-0.1-0.1-8.1-16.1-16.1-39.6
		c-8-23.5-16.1-54.5-16.1-84.8c0-15,2-30,7.1-43.7c5.1-13.7,13.3-26.3,25.6-36.3c13.4-11,26.8-19.6,39.7-26.2v-259H419.8v1612.3
		h417.9c50.2-111.2,81.9-229.2,101.8-332.8C961.5,2020.1,969.3,1923.3,972,1872.5z M489.2,1452l240.3-257c1.2-1.3,3.1-1.7,4.7-0.9
		l125.4,56.5l165.4-236.9l-33.6,11.6l0,0c-2.2,0.7-4.5-0.4-5.2-2.6c-0.7-2.2,0.4-4.5,2.6-5.2l45.6-15.7c0,0,0.1,0,0.1,0
		c0.3-0.1,0.7-0.2,1.1-0.2c0,0,0.1,0,0.1,0c0,0,0,0,0,0c0.4,0,0.7,0.1,1.1,0.2c0.1,0,0.1,0,0.2,0.1c0.4,0.1,0.7,0.3,1,0.5
		c0,0,0,0,0.1,0c0.3,0.2,0.6,0.5,0.8,0.8c0,0,0.1,0.1,0.1,0.1c0,0,0,0,0,0.1c0.2,0.3,0.4,0.6,0.5,1c0,0.1,0,0.1,0.1,0.2
		c0.1,0.3,0.2,0.7,0.2,1.1c0,0,0,0.1,0,0.1c0,0,0,0,0,0.1v47.1c0,2.3-1.8,4.1-4.1,4.1c-2.3,0-4.1-1.8-4.1-4.1v-34L864.3,1258
		c-1.1,1.6-3.3,2.2-5.1,1.4l-125.8-56.7l-238.3,254.9c-1.6,1.7-4.2,1.8-5.8,0.2C487.7,1456.2,487.6,1453.6,489.2,1452z
		 M472.9,1550.3c0-19.3,15.7-35,35-35c19.3,0,35,15.7,35,35c0,19.3-15.7,35-35,35C488.5,1585.3,472.9,1569.7,472.9,1550.3z"/><linearGradient id="d" x1="835.123" x2="837.875" y1="1232.995" y2="1232.995" gradientTransform="scale(396.4487 -396.4487) rotate(-88.764 -212.416 1036.929)" gradientUnits="userSpaceOnUse"><stop class="stopColorfbd027 svgShape" offset="0" stop-color="#8aa2ff"/><stop class="stopColorfcefbc svgShape" offset="1" stop-color="#8b93e1"/></linearGradient><path fill="url(#d)" d="M2579.8,3266.6l-150.3-393.5c-1.3,0.1-2.7,0.2-4.1,0.3l-21.7,95.4c-0.4,1.9-2.1,3.2-4,3.2h-63.4v293.1v125.3
		h290.7L2579.8,3266.6C2579.8,3266.6,2579.8,3266.6,2579.8,3266.6z"/><linearGradient id="e" x1="835.123" x2="837.875" y1="1234.925" y2="1234.925" gradientTransform="scale(396.4487 -396.4487) rotate(-88.764 -212.416 1036.929)" gradientUnits="userSpaceOnUse"><stop class="stopColorfbd027 svgShape" offset="0" stop-color="#8aa2ff"/><stop class="stopColorfcefbc svgShape" offset="1" stop-color="#8b93e1"/></linearGradient><path fill="url(#e)" d="M2746.1,3390.4h996.7c3.1-14.9,4.7-30.4,4.7-46.2c0-127.4-103.3-230.6-230.6-230.6c-35.7,0-69.6,8.1-99.8,22.6
		c0-1.4,0.1-2.8,0.1-4.3c0-98.7-80-178.7-178.7-178.7c-38.4,0-73.8,12.1-102.9,32.7c-19-78.3-89.5-136.4-173.6-136.4
		c-53.3,0-101.1,23.3-133.8,60.3l0,0c0,0-35.1,7.8-81.9,14.3v341V3390.4z"/><linearGradient id="f" x1="835.123" x2="837.875" y1="1230.254" y2="1230.254" gradientTransform="scale(396.4487 -396.4487) rotate(-88.764 -212.416 1036.929)" gradientUnits="userSpaceOnUse"><stop class="stopColorfbd027 svgShape" offset="0" stop-color="#8aa2ff"/><stop class="stopColorfcefbc svgShape" offset="1" stop-color="#8b93e1"/></linearGradient><path fill="url(#f)" d="M1655.1,3375v-110.1c-6.3,1.1-11.9,1.6-16.9,1.6c-12.8,0-21.6-3-27.2-6.3c-5.6-3.2-8-6.6-8.3-7
		c-0.3-0.5-0.6-1-0.7-1.6c0,0-0.2-1.2-0.6-3.7c-0.4-2.4-1-6-1.9-10.6c-1.6-9.3-4.1-22.8-7.2-39.7c-6.3-34-15.6-81.8-27.4-137.4
		c-9.7-45.9-21.2-97-34.1-150c-48.3,35.5-79.6,92.6-79.6,157.1c0,3.1,0.1,6.2,0.2,9.3c-28-12.1-58.9-18.8-91.3-18.8
		c-127.4,0-230.6,103.2-230.6,230.6c0,36.7,8.6,71.4,23.8,102.2h501.7c0-0.3-0.1-0.5-0.1-0.8V3375z"/><linearGradient id="g" x1="835.123" x2="837.875" y1="1231.927" y2="1231.927" gradientTransform="scale(396.4487 -396.4487) rotate(-88.764 -212.416 1036.929)" gradientUnits="userSpaceOnUse"><stop class="stopColorfbd027 svgShape" offset="0" stop-color="#8aa2ff"/><stop class="stopColorfcefbc svgShape" offset="1" stop-color="#8b93e1"/></linearGradient><path fill="url(#g)" d="M2156.2,2972.1h-93.5c-1.9,0-3.6-1.3-4-3.2l-22-96.8c-15.3-1.3-28.7-2.6-40.3-4.1l-141.1,369.6
		c24.1,5,52.7,11.3,84.6,19.1c18.5,4.5,33.5,12.1,45.5,21.4c12,9.3,20.9,20.4,27.6,32c13.4,23.1,17.7,47.8,19,64.5c0,0,0,0,0,0l0,0
		c0.4,5.2,0.5,9.6,0.5,13c0,1.1,0,2,0,2.8h225.5l-30.2-124.4L2156.2,2972.1z"/><polygon fill="#1c1c1c" points="2266.3 3390.4 2328.1 3390.4 2328.1 3269.2 2236.8 3269.2" class="color000000 svgShape"/><path fill="#1c1c1c" d="M2335.2,3268c-0.8,0.8-1.8,1.2-2.9,1.2h-4.1l0,121.2h-61.9l-29.4-121.2h-5.2c-1.9,0-3.6-1.3-4-3.2l30.2,124.4h78.6v-125.3
		C2336.4,3266.2,2336,3267.3,2335.2,3268z" class="color000000 svgShape"/><polygon fill="#fff" points="2328.1 3261 2328.1 2972.1 2164.7 2972.1 2234.8 3261" class="colorffffff svgShape"/><path fill="#1c1c1c" d="M2328.1,2972.1V3261h-93.3l-70.2-288.9h-8.5l71.4,294c0.4,1.9,2.1,3.2,4,3.2h5.2h91.3h4.1c1.1,0,2.1-0.4,2.9-1.2
		c0.8-0.8,1.2-1.8,1.2-2.9v-293.1H2328.1z" class="color000000 svgShape"/><path fill="#fff" d="M1847.9,2467.1v258.1c0,2.3-1.8,4.1-4.1,4.1c-2.3,0-4.1-1.8-4.1-4.1v-245.3l-62.5,111.8
		c0.3,0.6,0.5,1.2,0.5,1.9v66.7c0,2.3-1.8,4.1-4.1,4.1c-2.3,0-4.1-1.8-4.1-4.1v-54.6l-18.1,32.3c28.3,124.2,46,261.6,46,411.1
		c0,46.4-1.7,93.9-5.3,142.6c-0.1,1.2-0.7,2.3-1.6,3c-4.1,3.1-8.1,6-12,8.8c3.9,2.7,8.2,6,12.3,9.7c1.3,1.2,2.3,2.3,3.1,3.6
		c0.8,1.3,1.3,2.7,1.3,4.3c0,1.8-0.7,3.5-1.7,4.6c-0.1,0.1-0.2,0.1-0.3,0.2c12.6,2.1,31,5.5,54,10.1l140.9-369
		c-4.3-0.6-8.3-1.1-12.1-1.7c-45.4-6.9-55.9-13.7-56.8-14.3c-1.1-0.8-1.8-2-1.8-3.4v-167.8v-105.8v-232.6l-69.6,124.3
		C1847.8,2466.1,1847.9,2466.6,1847.9,2467.1z" class="colorffffff svgShape"/><path fill="#1c1c1c" d="M1751.2,2637.9l18.1-32.3v-12.1c0-2.3,1.8-4.1,4.1-4.1c1.6,0,3,0.9,3.7,2.3l62.5-111.8v-12.7c0-2.3,1.8-4.1,4.1-4.1
		c1.8,0,3.2,1.1,3.8,2.6l69.6-124.3v-16.9l-168.7,301.5C1749.4,2629.9,1750.3,2633.9,1751.2,2637.9z" class="color000000 svgShape"/><path fill="#1c1c1c" d="M1987.9,2866.9L1847,3236c2.7,0.5,5.4,1.1,8.2,1.7l141.1-369.6C1993.4,2867.7,1990.6,2867.3,1987.9,2866.9z" class="color000000 svgShape"/><path fill="#fff" d="M2354.6,884.3c2.3,0,4.1,1.8,4.1,4.1v122.1h72.8v-59c0-2.3,1.8-4.1,4.1-4.1c2.3,0,4.1,1.8,4.1,4.1v59l92.7,0
		l-301.3-557l-301.3,557h301.3h119.3V888.4C2350.5,886.1,2352.3,884.3,2354.6,884.3z" class="colorffffff svgShape"/><path fill="#1c1c1c" d="M1923,1014.6h308.3h119.3v-4.1h-119.3h-301.3l301.3-557l301.3,557l-92.7,0v4.1h99.7h1.7v3.7c0.8-0.3,1.4-0.9,1.9-1.6
		c0.7-1.2,0.8-2.8,0.1-4.1l-308.3-569.8c-0.7-1.3-2.1-2.2-3.6-2.2c-1.5,0-2.9,0.8-3.6,2.2l-308.3,569.8c-0.7,1.3-0.7,2.8,0.1,4.1
		c0.4,0.7,1.1,1.3,1.9,1.6v-3.7H1923z" class="color000000 svgShape"/><rect width="72.8" height="4.1" x="2358.7" y="1010.5" fill="#1c1c1c" class="color000000 svgShape"/><linearGradient id="h" x1="851.465" x2="854.216" y1="1215.433" y2="1215.433" gradientTransform="matrix(225.2842 0 0 -225.2842 -189900.25 274851.25)" gradientUnits="userSpaceOnUse"><stop class="stopColorfbd027 svgShape" offset="0" stop-color="#8aa2ff"/><stop class="stopColorfcefbc svgShape" offset="1" stop-color="#8b93e1"/></linearGradient><path fill="url(#h)" d="M2541.2,1018.3c-0.5,0.2-1.1,0.4-1.7,0.4h-103.8c0,0,0,0,0,0c0,0,0,0,0,0h-81.1c0,0,0,0,0,0c0,0,0,0,0,0
		h-123.4H1923c-0.6,0-1.2-0.2-1.7-0.4v30.1h619.9V1018.3z"/><path fill="#1c1c1c" d="M2231.2,1018.7h123.4c-2.3,0-4.1-1.8-4.1-4.1h-119.3H1923h-1.7v3.7c0.5,0.2,1.1,0.4,1.7,0.4H2231.2z" class="color000000 svgShape"/><linearGradient id="i" x1="851.465" x2="854.216" y1="1215.507" y2="1215.507" gradientTransform="matrix(225.2842 0 0 -225.2842 -189900.25 274851.25)" gradientUnits="userSpaceOnUse"><stop class="stopColorfbd027 svgShape" offset="0" stop-color="#8aa2ff"/><stop class="stopColorfcefbc svgShape" offset="1" stop-color="#8b93e1"/></linearGradient><path fill="url(#i)" d="M2231.2,1018.7h123.4c-2.3,0-4.1-1.8-4.1-4.1h-119.3H1923h-1.7v3.7c0.5,0.2,1.1,0.4,1.7,0.4H2231.2z"/><path fill="#1c1c1c" d="M2539.5,1014.6h-99.7c0,2.3-1.8,4.1-4.1,4.1h103.8c0.6,0,1.2-0.2,1.7-0.4v-3.7H2539.5z" class="color000000 svgShape"/><linearGradient id="j" x1="851.465" x2="854.216" y1="1215.507" y2="1215.507" gradientTransform="matrix(225.2842 0 0 -225.2842 -189900.25 274851.25)" gradientUnits="userSpaceOnUse"><stop class="stopColorfbd027 svgShape" offset="0" stop-color="#8aa2ff"/><stop class="stopColorfcefbc svgShape" offset="1" stop-color="#8b93e1"/></linearGradient><path fill="url(#j)" d="M2539.5,1014.6h-99.7c0,2.3-1.8,4.1-4.1,4.1h103.8c0.6,0,1.2-0.2,1.7-0.4v-3.7H2539.5z"/><path fill="#1c1c1c" d="M2431.6,1014.6h-72.8c0,2.3-1.8,4.1-4.1,4.1h81.1C2433.4,1018.7,2431.6,1016.9,2431.6,1014.6z" class="color000000 svgShape"/><linearGradient id="k" x1="851.465" x2="854.216" y1="1215.507" y2="1215.507" gradientTransform="matrix(225.2842 0 0 -225.2842 -189900.25 274851.25)" gradientUnits="userSpaceOnUse"><stop class="stopColorfbd027 svgShape" offset="0" stop-color="#8aa2ff"/><stop class="stopColorfcefbc svgShape" offset="1" stop-color="#8b93e1"/></linearGradient><path fill="url(#k)" d="M2431.6,1014.6h-72.8c0,2.3-1.8,4.1-4.1,4.1h81.1C2433.4,1018.7,2431.6,1016.9,2431.6,1014.6z"/><path fill="#fff" d="M2396.5,2963.8l20.4-89.8c-42.5,2.9-99.2,4.9-175.1,4.9c-86.3,0-149.8-2.6-196.6-6.2l20.7,91H2396.5z" class="colorffffff svgShape"/><path fill="#1c1c1c" d="M2416.9,2874l-20.4,89.8H2066l-20.7-91c-2.9-0.2-5.8-0.5-8.6-0.7l22,96.8c0.4,1.9,2.1,3.2,4,3.2h93.5h8.5h163.5h8.3h63.4
		c1.9,0,3.6-1.3,4-3.2l21.7-95.4C2422.7,2873.6,2419.8,2873.8,2416.9,2874z" class="color000000 svgShape"/><path fill="#fff" d="M1925.4,2569.8h494.7v-384.5c0-1.9,1.3-3.5,3.1-4c1.8-0.5,3.7,0.3,4.6,2l109.2,195.1V1056.7h-611.6v723
		c17.8,1,35,1.3,50.9,1.3c37.3,0,68.1-1.9,86.7-1.9c1.3,0,2.5,0.6,3.3,1.6c0.8,1,1,2.4,0.7,3.6l-0.1,0.5
		c15.7,1.5,96.4,9.6,165.6,21.5c16.6,2.9,32.5,6,46.7,9.2c2.2-3.6,4.8-7,7.6-10.1c2.6-2.8,7-2.9,9.7-0.3c2.8,2.6,2.9,7,0.3,9.7
		c-1.2,1.3-2.4,2.7-3.4,4.2c2.6,0.7,5.1,1.4,7.6,2.1c9.8,2.8,18.1,5.8,24.5,9v-51.7c0-3.8,3.1-6.9,6.9-6.9c3.8,0,6.9,3.1,6.9,6.9
		v54.7c0,2-0.9,3.8-2.3,5.1c1.6,1.8,2.9,3.5,3.8,5.2c1.1,2.1,1.8,4.3,1.8,6.5c0,2.3-0.7,4.4-2,6.1c-1.2,1.7-2.8,3.1-4.6,4.1
		c-3.6,2.2-8,3.5-13,4.5c-9.9,2-21.9,2.5-32,2.5c-1.2,0-2.3,0-3.5,0c2.5,5.8,6,11,10.4,15.4c8.8,8.8,20.9,14.3,34.4,14.3
		c13.5,0,25.6-5.4,34.4-14.3c8.8-8.8,14.2-20.9,14.2-34.4c0-12.9-5-24.6-13.2-33.3l0,0c-2.6-2.8-2.5-7.1,0.3-9.7
		c2.8-2.6,7.1-2.5,9.7,0.3c10.4,11.1,16.9,26.2,16.9,42.7c0,17.2-7,32.9-18.3,44.1c-11.3,11.3-26.9,18.3-44.1,18.3
		c-28,0-51.8-18.5-59.6-43.9c-1.2-0.1-1.9-0.1-1.9-0.1l-0.4,0l-13.6-2.2c1.2,0.8,2.4,1.5,3.5,2.3c4.2,3.1,8,6.7,10.4,11.1
		c1.4,2.5,2.2,5.3,2.2,8.2c0,1.8-0.3,3.5-1,5.1c-0.6,1.6-1.6,2.9-2.7,4.1c-2.2,2.3-5.1,3.8-8.1,4.8c-4.5,1.5-9.5,2.2-14.3,2.4
		c2.2,1.9,4.1,4.2,5.4,7c0.8,1.9,1.3,4,1.3,6.3c0,3.8-1.3,7.8-4.1,12c-2.3,3.5-5.4,5.9-8.8,7.4c-3.4,1.4-7,2-10.5,2
		c-5,0-9.9-1-14.1-2.3c0.3,1,0.5,2.1,0.5,3.3c0,1.9-0.5,3.9-1.7,5.7c-1.2,1.8-3,3.2-5.1,4.3c-4.4,2.1-10.4,3.1-19.4,3.2
		c-3.9,0-8.5-0.2-13.6-0.7c-28.5-2.5-71.6-9.1-107.7-15.1c-16.4-2.7-31.3-5.3-42.8-7.3l-2.4,8.3c-0.5,1.8-2.1,3-4,3
		c-20.4,0-42.1,0.4-65,0.4c-9.6,0-19.3-0.1-29.3-0.3V2569.8z M2458.7,1943.9c-1.4,1.8-3.9,2.2-5.8,0.9l-43.9-32.3
		c-1.8-1.4-2.2-3.9-0.9-5.8c1.4-1.8,3.9-2.2,5.8-0.9l43.9,32.3C2459.7,1939.5,2460.1,1942,2458.7,1943.9z M2457,1764.4
		c1.8-1.3,4.4-0.9,5.8,0.9c1.3,1.8,0.9,4.4-0.9,5.8l-42.7,31.2c-1.8,1.3-4.4,0.9-5.8-0.9c-1.3-1.8-0.9-4.4,0.9-5.8L2457,1764.4z
		 M2269.2,1786.3c-1.6,1.6-4.3,1.5-5.8-0.1l-35.1-36.7c-1.6-1.6-1.5-4.3,0.1-5.8c1.6-1.6,4.3-1.5,5.8,0.1l35.1,36.7
		C2270.9,1782.1,2270.9,1784.7,2269.2,1786.3z M2340.9,1724.1c-85,0-154-68.9-154-154c0-11,1.2-21.8,3.4-32.2
		c-4.9-15.2-7.5-31.4-7.5-48.2c0-87.3,70.8-158.1,158.1-158.1c87.3,0,158.1,70.8,158.1,158.1c0,16.8-2.7,33-7.5,48.2
		c2.2,10.4,3.4,21.1,3.4,32.2C2494.9,1655.1,2425.9,1724.1,2340.9,1724.1z M2278.3,1986.8l24.8-53.3c1-2.1,3.4-3,5.5-2
		c2.1,1,3,3.4,2,5.5l-24.8,53.3c-1,2.1-3.4,3-5.5,2C2278.3,1991.3,2277.4,1988.8,2278.3,1986.8z" class="colorffffff svgShape"/><path fill="#fff" d="M1925.4,2683.9V2845c1.5,0.7,3.9,1.6,7.7,2.8c7.9,2.5,21.4,5.8,43.8,9.2c44.8,6.8,124.7,13.6,264.8,13.6
		c81.9,0,141.5-2.3,184.7-5.6l-6.1-16c-0.2-0.5-0.3-1-0.3-1.5v-163.6H1925.4z" class="colorffffff svgShape"/><path fill="#1c1c1c" d="M1917.2,2067.2v102.3v8.3v146.6v16.9v232.6c0-1.1,0.4-2.1,1.2-2.9c0.8-0.8,1.8-1.2,2.9-1.2h4.1v-630.3
		c-2.7-0.1-5.5-0.1-8.3-0.2v119.5V2067.2z" class="color000000 svgShape"/><path fill="#1c1c1c" d="M1925.4,1779.7v-723H2537v1321.7l8.3,14.8v-555.8v-8.3v-171.4v-9.4v-595.7c0-1.1-0.4-2.1-1.2-2.9c-0.8-0.8-1.8-1.2-2.9-1.2
		h-619.9c-1.1,0-2.2,0.4-2.9,1.2c-0.8,0.8-1.2,1.8-1.2,2.9v726.6C1919.9,1779.4,1922.7,1779.6,1925.4,1779.7z" class="color000000 svgShape"/><path fill="#1c1c1c" d="M2241.8,2870.7c-140.1,0-220.1-6.8-264.8-13.6c-22.4-3.4-36-6.8-43.8-9.2c-3.8-1.2-6.3-2.2-7.7-2.8v-161.1h-4.1
		c-1.1,0-2.2-0.4-2.9-1.2c-0.8-0.8-1.2-1.8-1.2-2.9v167.8c0,1.4,0.7,2.6,1.8,3.4c0.9,0.6,11.4,7.4,56.8,14.3
		c3.8,0.6,7.8,1.1,12.1,1.7c2.7,0.4,5.5,0.7,8.4,1.1c11.7,1.4,25,2.8,40.3,4.1c2.8,0.2,5.7,0.5,8.6,0.7
		c46.7,3.6,110.3,6.2,196.6,6.2c75.8,0,132.6-2,175.1-4.9c2.9-0.2,5.8-0.4,8.6-0.6c1.4-0.1,2.7-0.2,4.1-0.3l-3.1-8
		C2383.3,2868.3,2323.8,2870.7,2241.8,2870.7z" class="color000000 svgShape"/><path fill="#1c1c1c" d="M2296.8,1815c2.6-2.8,2.5-7.1-0.3-9.7c-2.8-2.6-7.1-2.5-9.7,0.3c-2.9,3.1-5.4,6.5-7.6,10.1c5,1.1,9.7,2.3,14.2,3.5
		C2294.4,1817.8,2295.5,1816.4,2296.8,1815z" class="color000000 svgShape"/><path fill="#1c1c1c" d="M2332.3,1910.8c17.2,0,32.9-7,44.1-18.3c11.3-11.3,18.3-26.9,18.3-44.1c0-16.5-6.4-31.5-16.9-42.7
		c-2.6-2.8-6.9-2.9-9.7-0.3c-2.8,2.6-2.9,6.9-0.3,9.7l0,0c8.2,8.7,13.1,20.4,13.2,33.3c0,13.5-5.4,25.6-14.2,34.4
		c-8.8,8.8-20.9,14.2-34.4,14.3c-13.5,0-25.6-5.4-34.4-14.3c-4.4-4.4-8-9.6-10.4-15.4c-6.7-0.1-12.1-0.3-14.8-0.5
		C2280.5,1892.3,2304.2,1910.8,2332.3,1910.8z" class="color000000 svgShape"/><path fill="#1c1c1c" d="M2335.8,1837.3c0.4,0.4,0.7,0.7,1,1.1c1.4-1.3,2.3-3.1,2.3-5.1v-54.7c0-3.8-3.1-6.9-6.9-6.9c-3.8,0-6.9,3.1-6.9,6.9v51.7
		c0.6,0.3,1.2,0.6,1.8,0.9C2330.7,1833,2333.6,1835,2335.8,1837.3z" class="color000000 svgShape"/><rect width="494.7" height="97.6" x="1925.4" y="2578.1" fill="#1c1c1c" class="color000000 svgShape"/><path fill="#1c1c1c" d="M1925.4,2569.8h-4.1c-1.1,0-2.2,0.4-2.9,1.2c-0.8,0.8-1.2,1.8-1.2,2.9v105.8c0,1.1,0.4,2.1,1.2,2.9
		c0.8,0.8,1.8,1.2,2.9,1.2h4.1h494.7v-8.3h-494.7v-97.6h494.7v-8.3H1925.4z" class="color000000 svgShape"/><path fill="#1c1c1c" d="M382.3,3372.9L382.3,3372.9c-46.6-24-80.4-62.4-107.7-106.2c-26.6-42.6-47.1-90.5-67.3-135.7l-8.5,3.9
		c0.1,0.3,0.3,0.6,0.4,1c1.4,3,3.3,7.4,5.9,12.9c5.1,11,12.4,26.5,21.3,44.3c17.8,35.6,41.8,80.6,66.8,117.6
		c16.6,24.7,33.8,45.9,49.4,58.4l0,0c10.5,8.5,26,14,42.9,17.1c16.8,3.2,34.9,4.1,50.3,4.1c17.5,0,31.7-1.2,36.9-1.8
		c0.3-0.5,0.5-1.1,0.9-1.8c0.5-1.1,1.1-2.5,1.8-4.1c-11.8,1.3-23.7,2.4-35.7,2.4c-18.6,0-37.4-2.7-55.9-11.6
		C383.3,3373.3,382.8,3373.1,382.3,3372.9z" class="color000000 svgShape"/><path fill="#1c1c1c" d="M337.4,3375.6C337.4,3375.6,337.4,3375.6,337.4,3375.6L337.4,3375.6L337.4,3375.6z" class="color000000 svgShape"/><path fill="#1c1c1c" d="M439.7,3385.2c-18.6,0-37.4-2.7-55.9-11.6C402.3,3382.4,421.1,3385.2,439.7,3385.2z" class="color000000 svgShape"/><path fill="#1c1c1c" d="M481,3390.4c1.2-2.6,2.9-6.4,4.6-11.1c0,0,0,0,0,0c0,0,0,0,0,0c-0.5,1.5-1.9,2.5-3.4,2.7c-14,1.6-28.2,3.2-42.5,3.2
		c12,0,23.9-1.1,35.7-2.4c-0.7,1.6-1.3,3-1.8,4.1c-0.3,0.7-0.6,1.3-0.9,1.8c-5.2,0.5-19.3,1.8-36.9,1.8c-15.4,0-33.5-1-50.3-4.1
		c-16.9-3.2-32.4-8.6-42.9-17.1l0,0c-15.6-12.5-32.7-33.7-49.4-58.4c-25-37.1-49.1-82-66.8-117.6c-8.9-17.8-16.2-33.3-21.3-44.3
		c-2.5-5.5-4.5-9.9-5.9-12.9c-0.2-0.4-0.3-0.6-0.4-1l8.5-3.9c-0.6-1.3-1.1-2.6-1.7-3.8c-0.9-2.1,0-4.5,2-5.4l-15.9,7.4
		c-2,0.9-2.9,3.3-2,5.4c0,0.1,20.6,47.1,49.2,100.6c14.3,26.8,30.7,55.2,47.6,80.3c16.9,25,34.3,46.7,51,60.2
		c8.4,6.7,18.8,11.5,30.2,14.9H481z" class="color000000 svgShape"/><path fill="#fff" d="M390,3173.5c-13.7-12.7-25.7-29.2-35.7-45.7c0,0,0-0.1-0.1-0.1c-0.1-0.2-0.3-0.5-0.4-0.7
		c-11.8-19.6-20.8-39.2-26.3-52l-112.9,52.6c20.3,45.3,40.7,92.9,66.8,134.8c26.9,43.1,59.6,80.1,104.4,103.2
		c17.5,8.8,35.4,11.5,53.8,11.5c12.8,0,25.9-1.3,39-2.8c3.6-10.3,7.2-24.2,7.2-38.6c0-8.9-1.4-17.9-4.9-26.4
		c-3.6-8.4-9.2-16.3-18.1-23l0,0c-5.5-4.2-10.4-9.1-14.6-14.5c-22.6-1.3-37.7-9.9-47-18.4c-9.6-8.8-13.1-17.3-13.2-17.6h0
		c-0.9-2.1,0.1-4.5,2.3-5.4c2.1-0.9,4.5,0.1,5.4,2.2l0,0l0,0l0.1,0.2c0.1,0.2,0.2,0.5,0.4,0.9c0.4,0.8,1,1.9,1.9,3.3
		c1.8,2.8,4.6,6.5,8.8,10.3c7.2,6.6,18.3,13.4,35.3,15.6c-1.1-1.9-2.3-3.8-3.3-5.7c-6-11.2-10.2-23.5-13.2-35.6
		c-2.4-9.9-4-19.8-5.1-28.9c-2.8-0.9-5.5-2-8.2-3.3C404.4,3185.4,397,3180,390,3173.5z" class="colorffffff svgShape"/><path fill="#1c1c1c" d="M205.5,3127.2c0.6,1.3,1.1,2.6,1.7,3.8c20.2,45.2,40.8,93,67.3,135.7c27.3,43.8,61.1,82.2,107.7,106.2l0,0
		c0.5,0.3,1,0.5,1.5,0.7c18.5,8.9,37.3,11.6,55.9,11.6c14.3,0,28.5-1.6,42.5-3.2c1.5-0.2,2.9-1.2,3.4-2.7c0,0,0,0,0,0
		c4-11,8.5-26.9,8.5-43.8c0-9.8-1.5-19.9-5.6-29.6c-4.1-9.7-10.7-18.8-20.7-26.4l-2.5,3.3l2.5-3.3c-9-6.9-16.2-16-21.7-26.4
		c-8.4-15.6-13.2-34-15.9-51c-0.4-2.6-0.8-5.1-1.1-7.5c-2.9-0.5-5.8-1.2-8.6-2.1c1.1,9.1,2.7,19,5.1,28.9c3,12.1,7.2,24.4,13.2,35.6
		c1,1.9,2.1,3.8,3.3,5.7c2.7,0.4,5.5,0.6,8.4,0.7c2.3,0.1,4.1,2,4,4.3c-0.1,2.3-2,4.1-4.3,4c-0.7,0-1.3-0.1-2-0.1
		c4.2,5.4,9,10.3,14.6,14.5l0,0c8.9,6.7,14.6,14.6,18.1,23c3.5,8.4,4.9,17.4,4.9,26.4c0,14.3-3.6,28.3-7.2,38.6
		c-13.1,1.5-26.1,2.8-39,2.8c-18.3,0-36.2-2.7-53.8-11.5c-44.8-23-77.6-60.1-104.4-103.2c-26.1-41.9-46.6-89.5-66.8-134.8
		l112.9-52.6c-1.2-2.9-2.3-5.5-3.2-7.6l-116.9,54.4C205.5,3122.7,204.6,3125.1,205.5,3127.2z" class="color000000 svgShape"/><path fill="#fff" d="M1980.2,3284.7c-11.1-8.6-24.9-15.7-42.4-19.9c-24.7-6.1-47.5-11.2-67.7-15.5c-8.1,2.3-15.2,8-20.3,13.7
		c-5.3,5.8-8.5,11.2-8.7,11.7l0,0l0,0c-1.1,2-3.6,2.7-5.6,1.6c-2-1.1-2.7-3.6-1.6-5.6c0.1-0.2,3.4-6.1,9.3-12.7
		c3.5-3.9,8-8.2,13.4-11.5c-42.5-8.8-71.6-13.5-80.7-14.9c-2-0.3-3-0.5-3-0.5c-2.1-0.3-3.7-2.2-3.5-4.4c0.2-2.2,1.9-3.8,4.1-3.8
		l0.1,0l0.2,0c0.2,0,0.5,0,0.8,0c0.7,0,1.7-0.1,2.8-0.2c2.2-0.2,5.1-0.5,7.1-1.2c0.8-0.2,1.5-0.5,1.9-0.8c-0.3-0.4-0.7-0.9-1.4-1.5
		c-4.6-4.2-9.6-7.9-13.9-10.7c-29.9,20.9-54.7,34.7-75.3,43.7c-12.2,5.3-23,8.9-32.4,11.1v107.6h359.8c-1.2-11.4-3.9-25.8-9.6-40.2
		C2007.1,3314.1,1996.7,3297.6,1980.2,3284.7z" class="colorffffff svgShape"/><path fill="#1c1c1c" d="M1847,3236c-23-4.6-41.5-8-54-10.1c0.1-0.1,0.2-0.1,0.3-0.2c1-1.1,1.7-2.8,1.7-4.6c0-1.6-0.5-3.1-1.3-4.3
		c-0.8-1.3-1.8-2.4-3.1-3.6c-4.1-3.8-8.4-7-12.3-9.7c-2.4,1.7-4.8,3.4-7.2,5.1c4.3,2.8,9.3,6.5,13.9,10.7c0.7,0.6,1.1,1.1,1.4,1.5
		c-0.4,0.2-1.1,0.5-1.9,0.8c-2.1,0.6-4.9,1-7.1,1.2c-1.1,0.1-2.1,0.1-2.8,0.2c-0.3,0-0.6,0-0.8,0l-0.2,0l-0.1,0
		c-2.2,0-4,1.7-4.1,3.8c-0.2,2.2,1.4,4.1,3.5,4.4c0,0,1,0.1,3,0.5c9.1,1.4,38.2,6.1,80.7,14.9c3.7-2.3,7.8-4.3,12.3-5.4
		c2.2-0.6,4.5,0.8,5,3c0.6,2.2-0.8,4.5-3,5c-0.3,0.1-0.6,0.2-0.8,0.3c20.2,4.3,43,9.5,67.7,15.5c17.5,4.3,31.3,11.3,42.4,19.9
		c16.6,12.9,26.9,29.5,33.4,45.9c5.7,14.5,8.4,28.8,9.6,40.2h4.5c2.2,0,3.9,1.7,4.1,3.8c0,0,0,0,0,0c-1.3-16.7-5.6-41.5-19-64.5
		c-6.7-11.5-15.7-22.6-27.6-32c-12-9.3-26.9-16.9-45.5-21.4c-31.9-7.8-60.5-14.1-84.6-19.1C1852.4,3237.1,1849.6,3236.5,1847,3236z" class="color000000 svgShape"/><path fill="#1c1c1c" d="M1655.1,3264.9V3375c0-1.1,0.4-2.1,1.2-2.9c0.8-0.8,1.8-1.2,2.9-1.2h4.1v-107.6C1660.5,3263.9,1657.8,3264.4,1655.1,3264.9
		z" class="color000000 svgShape"/><path fill="#1c1c1c" d="M2023.9,3379.1h-360.5v6.5l360.7,4.8c0-0.8,0-1.7,0-2.8C2024.1,3385.3,2024,3382.4,2023.9,3379.1z" class="color000000 svgShape"/><path fill="#1c1c1c" d="M2031.8,3374.6L2031.8,3374.6c-0.2-2.1-2-3.8-4.1-3.8h-4.5h-359.8h-4.1c-1.1,0-2.2,0.4-2.9,1.2c-0.8,0.8-1.2,1.8-1.2,2.9
		v14.7c0,0.3,0,0.5,0.1,0.8h30.9H1788h244.3c0-0.8,0-1.8,0-2.8C2032.4,3384.2,2032.2,3379.8,2031.8,3374.6z M1663.4,3385.6v-6.5
		h360.5c0.2,3.3,0.2,6.2,0.2,8.5c0,1,0,2,0,2.8L1663.4,3385.6z" class="color000000 svgShape"/><path fill="#1c1c1c" d="M3838.5,3390.4h-95.6h-996.7v0h545.8H3742c2.3,0,4.1,1.8,4.1,4.1c0,2.3-1.8,4.1-4.1,4.1h96.4c2.3,0,4.1-1.8,4.1-4.1
		S3840.7,3390.4,3838.5,3390.4z" class="color000000 svgShape"/><path fill="#1c1c1c" d="M1151.5,3394.6c0-2.3,1.8-4.1,4.1-4.1h409.3h1062.3l0,0h-290.7h-78.6h-225.5H1788h-101.9h-30.9h-501.7H481H367.7H209.3
		c-2.3,0-4.1,1.8-4.1,4.1s1.8,4.1,4.1,4.1h946.2C1153.3,3398.7,1151.5,3396.8,1151.5,3394.6z" class="color000000 svgShape"/><path fill="#fff" d="M2149.9,1809.1c0.6-2.2,2.9-3.5,5.1-2.9c0.1,0,29,7.9,51.6,18c7.6,3.4,14.4,7,19.5,10.8
		c2.9,2.2,5.3,4.5,6.8,7.3c0.8,1.5,1.3,3.2,1.3,5c0,0.5-0.1,1.1-0.2,1.7l0,0c0,0,0,0,0,0c0,0,0,0,0,0l0,0c-0.2,1.1-0.5,2.1-0.8,3
		l38.3,6.3c0.1,0,0.1,0,0.2,0c0.3,0,0.6,0,1.1,0.1c1,0.1,2.4,0.1,4.2,0.2c3.5,0.2,8.4,0.3,13.9,0.3c6.4,0,13.6-0.2,20.4-0.9
		c6.7-0.7,13-1.8,17.2-3.5c2.8-1.1,4.6-2.4,5.2-3.3c0.4-0.5,0.5-0.9,0.5-1.4c0-0.5-0.2-1.3-0.8-2.5c-0.6-1.2-1.8-2.7-3.5-4.5
		c-1.2-1.3-3.3-2.8-6.1-4.3c-2.8-1.5-6.3-3.1-10.4-4.6c-8.2-3.1-18.6-6.1-30.6-9c-23.9-5.8-53.8-11.1-83.8-15.6
		c-59.9-9-119.9-15-133.1-16.3c-0.6-0.1-1.1-0.1-1.5-0.1l-16.8,59.1l102.3-40.4C2149.7,1810.9,2149.7,1810,2149.9,1809.1z" class="colorffffff svgShape"/><path fill="#fff" d="M2146.5,1938.8c-1.8-2-3.3-4.1-4.4-6.5c-1.3-2.8-2.1-5.8-2.1-9c0-2.3,0.4-4.7,1.3-6.9c1.2-3,3.3-5.2,5.7-6.8
		c2.4-1.6,5.1-2.7,7.8-3.4c5.1-1.4,10.4-1.7,14.5-1.8c-0.2-1-0.3-2-0.3-3c0-2.2,0.5-4.4,1.4-6.6c1.7-4.1,5-7,8.6-8.6
		c1.3-0.6,2.7-1,4.1-1.3c-0.4-0.2-0.7-0.4-1.1-0.7c-2.5-1.6-4.8-3.4-6.6-5.4c-1-1.2-1.9-2.5-2.4-4.2c0,0,0,0,0,0l0,0c0,0,0,0,0,0
		c-0.3-1.1-0.5-2.2-0.5-3.2c0-2.5,0.8-4.6,1.9-6.3c0.2-0.3,0.4-0.5,0.6-0.8c-7.6-0.8-15.3-1.5-22.5-1.5c-5.4,0-10.6,0.4-15.2,1.4
		c-4.7,1-8.8,2.6-12.4,4.9c-10,6.5-22.1,8.6-34.2,8.6c-15.6,0-31.4-3.6-43.3-7.2c-1.5-0.5-3-0.9-4.4-1.4l-14.5,51
		c11.3,2,25.9,4.5,41.8,7.1C2094.7,1931.3,2122.4,1935.6,2146.5,1938.8z" class="colorffffff svgShape"/><path fill="#fff" d="M2223.5,1900.4c-0.1-0.1-0.3-0.1-0.6-0.3c-0.5-0.2-1.3-0.5-2.3-0.9c-2-0.8-4.8-1.8-8.1-2.8
		c-6.5-2.1-14.9-4.1-21.8-4.1c-3.4,0-6.3,0.5-8.5,1.4c-2.1,1-3.5,2.2-4.4,4.3c-0.5,1.3-0.7,2.3-0.7,3.4c0,1.2,0.3,2.3,0.9,3.6
		c0.6,1.2,1.5,2.5,2.7,3.7c2.4,2.5,5.9,4.9,9.6,6.9c7.4,4,15.2,6.3,16,6.5l0.1,0c0.3,0.1,0.5,0.2,0.8,0.3c0,0,0,0,0,0l0,0l0.1,0
		l0.4,0.2c0.3,0.2,0.8,0.4,1.5,0.7c1.3,0.6,3.2,1.4,5.4,2.2c4.4,1.6,10.2,3.1,15.4,3.1c2.7,0,5.2-0.4,7.2-1.3
		c2.1-0.9,3.7-2.2,5.2-4.3c2.1-3.2,2.7-5.6,2.7-7.4c0-2.1-0.8-3.8-2.3-5.6c-1.5-1.7-3.8-3.4-6.2-4.6c-4.8-2.6-10.2-3.8-10.6-3.9l0,0
		c-0.6-0.1-1.2-0.4-1.7-0.8c-0.2-0.1-0.5-0.1-0.7-0.2L2223.5,1900.4z" class="colorffffff svgShape"/><path fill="#fff" d="M2179.4,1918.5c-2.2-1.7-4.3-3.6-6.1-5.7c-0.9,0-2-0.1-3.4-0.1c-2.8,0-6.3,0.2-9.7,0.8c-3.4,0.6-6.6,1.6-8.6,3
		c-1.4,0.9-2.2,1.9-2.6,3c-0.5,1.3-0.7,2.6-0.7,3.9c0,1.8,0.4,3.6,1.3,5.4c0.9,1.8,2.2,3.6,3.8,5.3c3.2,3.3,7.7,5.9,12.3,7
		c4.1,0.4,8,0.8,11.6,1.2c5,0.4,9.3,0.6,12.9,0.6c4.7,0,8.4-0.3,11.1-0.9c2.7-0.5,4.5-1.2,5.5-1.9c0.7-0.4,1-0.8,1.2-1
		c0.2-0.4,0.3-0.6,0.3-1.1c0-0.5-0.2-1.4-0.6-2.4c-0.4-1-1.1-2-1.8-3c-0.9-1.2-1.9-2.2-2.5-2.8c-1.4-0.4-4.2-1.3-7.5-2.7
		C2190.8,1925.2,2184.7,1922.4,2179.4,1918.5z" class="colorffffff svgShape"/><path fill="#fff" d="M2205.3,1866.9c-6.1,0-12.8-0.6-19.6-1.4c-0.3,0.2-0.7,0.4-1.1,0.7c-1.2,0.8-2.5,2.1-3.2,3.3
		c-0.5,0.8-0.7,1.4-0.7,2c0,0.3,0,0.5,0.1,0.9l0,0c0,0,0.2,0.4,0.6,1c0.5,0.6,1.2,1.2,2.1,2c1.8,1.5,4.3,3,6.8,4.4
		c4.9,2.8,10.1,5,11.3,5.5c4.7,0.9,9.3,2.1,13.2,3.3c7,2.2,11.9,4.4,12,4.4l0,0c0.3,0.1,0.6,0.3,0.8,0.5c0.2,0,0.4,0,0.7,0.1
		c0.7,0.1,1.8,0.2,3.1,0.3c2.6,0.2,6.2,0.4,10.1,0.4c3.8,0,7.9-0.2,11.5-0.8c3.6-0.6,6.8-1.6,8.7-2.9c1.3-0.9,2-1.7,2.4-2.6
		c0.2-0.5,0.3-1.1,0.4-1.9c0-1.3-0.4-2.6-1.1-4.1c-0.8-1.5-2-3.1-3.6-4.6c-3.1-3.1-7.6-6.2-12.3-8.8c-7.8-4.4-16-7.5-19-8.5
		c-1.5,1.5-3.1,2.7-5,3.6C2218.4,1866.2,2212.1,1866.9,2205.3,1866.9z" class="colorffffff svgShape"/><path fill="#1c1c1c" d="M2176.5,1950.5c5.2,0.5,9.7,0.7,13.6,0.7c9,0,15.1-1,19.4-3.2c2.2-1.1,3.9-2.5,5.1-4.3c1.2-1.8,1.7-3.8,1.7-5.7
		c0-1.2-0.2-2.3-0.5-3.3c4.2,1.2,9.1,2.3,14.1,2.3c3.5,0,7.1-0.5,10.5-2c3.4-1.4,6.5-3.9,8.8-7.4c2.7-4.1,4.1-8.1,4.1-12
		c0-2.3-0.5-4.4-1.3-6.3c-1.2-2.9-3.2-5.1-5.4-7c4.8-0.2,9.8-0.9,14.3-2.4c3-1,5.8-2.5,8.1-4.8c1.1-1.1,2.1-2.5,2.7-4.1
		c0.7-1.6,1-3.3,1-5.1c0-3-0.9-5.7-2.2-8.2c-2.4-4.3-6.2-7.9-10.4-11.1c-1.1-0.8-2.3-1.6-3.5-2.3l13.6,2.2l0.4,0
		c0,0,0.7,0.1,1.9,0.1c2.7,0.2,8.1,0.4,14.8,0.5c1.1,0,2.3,0,3.5,0c10.1,0,22.1-0.5,32-2.5c4.9-1,9.4-2.4,13-4.5
		c1.8-1.1,3.4-2.4,4.6-4.1c1.2-1.7,2-3.9,2-6.1c0-2.2-0.7-4.4-1.8-6.5c-0.9-1.7-2.2-3.5-3.8-5.2c-0.3-0.4-0.6-0.7-1-1.1
		c-2.2-2.3-5.1-4.2-8.7-6.1c-0.6-0.3-1.2-0.6-1.8-0.9c-6.4-3.2-14.7-6.1-24.5-9c-2.4-0.7-5-1.4-7.6-2.1c-4.5-1.2-9.3-2.4-14.2-3.5
		c-14.2-3.3-30.1-6.4-46.7-9.2c-69.2-12-149.8-20-165.6-21.5l-2.3,8.1c0.4,0,0.9,0.1,1.5,0.1c13.3,1.3,73.2,7.3,133.1,16.3
		c29.9,4.5,59.8,9.8,83.8,15.6c12,2.9,22.4,5.9,30.6,9c4.1,1.5,7.6,3.1,10.4,4.6c2.8,1.5,4.9,3,6.1,4.3c1.7,1.8,2.8,3.3,3.5,4.5
		c0.6,1.2,0.8,2,0.8,2.5c0,0.5-0.1,0.9-0.5,1.4c-0.6,0.9-2.4,2.2-5.2,3.3c-4.2,1.6-10.5,2.8-17.2,3.5c-6.7,0.7-14,0.9-20.4,0.9
		c-5.5,0-10.4-0.2-13.9-0.3c-1.8-0.1-3.2-0.2-4.2-0.2c-0.5,0-0.9-0.1-1.1-0.1c-0.1,0-0.1,0-0.2,0l-38.3-6.3c-0.7,2.1-1.6,4-2.8,5.7
		c-0.6,0.8-1.2,1.4-1.8,2.1c3,1.1,11.2,4.2,19,8.5c4.6,2.6,9.1,5.6,12.3,8.8c1.6,1.6,2.8,3.1,3.6,4.6c0.8,1.5,1.1,2.8,1.1,4.1
		c0,0.8-0.1,1.4-0.4,1.9c-0.4,0.9-1.1,1.7-2.4,2.6c-1.9,1.3-5.1,2.3-8.7,2.9c-3.6,0.6-7.7,0.8-11.5,0.8c-3.9,0-7.5-0.2-10.1-0.4
		c-1.3-0.1-2.4-0.2-3.1-0.3c-0.3,0-0.5-0.1-0.7-0.1c1.5,1.1,2.1,3.2,1.3,4.9c-0.8,1.9-2.9,2.8-4.8,2.3c0.5,0.4,1,0.7,1.7,0.8l0,0
		c0.5,0.1,5.8,1.3,10.6,3.9c2.4,1.3,4.7,2.9,6.2,4.6c1.5,1.8,2.3,3.5,2.3,5.6c0,1.9-0.6,4.3-2.7,7.4c-1.4,2.1-3.1,3.4-5.2,4.3
		c-2.1,0.9-4.5,1.3-7.2,1.3c-5.1,0-11-1.5-15.4-3.1c-2.2-0.8-4.1-1.6-5.4-2.2c-0.7-0.3-1.2-0.5-1.5-0.7l-0.4-0.2l-0.1,0l0,0
		c0,0,0,0,0,0c1.7,0.9,2.6,2.9,2.1,4.8c-0.6,2.2-2.9,3.5-5.1,2.9c0,0-0.4-0.1-1-0.3c0.6,0.6,1.5,1.6,2.5,2.8c0.7,0.9,1.4,2,1.8,3
		c0.5,1,0.7,1.8,0.6,2.4c0,0.5-0.1,0.7-0.3,1.1c-0.2,0.3-0.5,0.6-1.2,1c-1,0.6-2.8,1.4-5.5,1.9c-2.7,0.5-6.4,0.9-11.1,0.9
		c-3.6,0-7.9-0.2-12.9-0.6c-3.6-0.3-7.5-0.7-11.6-1.2c0.1,0,0.1,0,0.2,0.1c2.2,0.5,3.6,2.8,3.1,5c-0.5,2.2-2.8,3.6-5,3.1
		c-4.7-1.1-9.1-3.3-12.9-6.2c-1.6-1.3-3.1-2.7-4.5-4.2c-24.1-3.1-51.8-7.5-76.3-11.5c-16-2.6-30.5-5.1-41.8-7.1l-2.3,8
		c11.4,2,26.4,4.6,42.8,7.3C2104.9,1941.4,2148.1,1947.9,2176.5,1950.5z" class="color000000 svgShape"/><path fill="#fff" d="M2090.6,1869.4c11.2,0,21.7-2.1,29.7-7.3c9.2-6,20.5-7.6,32.1-7.6c9.3,0,18.8,1.1,27.9,2.1
		c9.1,1,17.7,2,24.9,2c4.7,0,8.7-0.4,11.8-1.4c3.1-1,5.2-2.3,6.7-4.3c1-1.3,1.7-3,2.1-5.3l0,0l0-0.2c0-0.2,0-0.5-0.3-1.1
		c-0.3-0.5-0.8-1.2-1.5-2c-1.5-1.6-3.8-3.4-6.9-5.3c-6-3.8-14.5-7.6-23.3-11.1c-17.5-6.9-36.3-12.3-40.4-13.5
		c-0.5-0.2-0.8-0.2-0.8-0.2c-1.3-0.4-2.3-1.3-2.7-2.5l-102.3,40.4l-2.6,9.1c1.4,0.5,2.9,0.9,4.5,1.4
		C2061.1,1866,2076.3,1869.4,2090.6,1869.4z" class="colorffffff svgShape"/><path fill="#1c1c1c" d="M2090.6,1877.7c12.1,0,24.2-2.2,34.2-8.6c3.5-2.3,7.7-3.9,12.4-4.9c4.7-1,9.8-1.4,15.2-1.4c7.2,0,14.9,0.7,22.5,1.5
		c0.9-1.3,2-2.4,3-3.3c2.5-2.2,4.8-3.3,4.9-3.4l0,0c2-1,4.5-0.2,5.5,1.8c1,2,0.2,4.5-1.8,5.5v0l-0.1,0l-0.4,0.2
		c-0.1,0.1-0.3,0.2-0.4,0.3c6.9,0.8,13.5,1.4,19.6,1.4c6.8,0,13.1-0.7,18.3-3.4c1.8-0.9,3.5-2.1,5-3.6c0.6-0.6,1.3-1.3,1.8-2.1
		c1.2-1.7,2.2-3.6,2.8-5.7c0.3-1,0.6-2,0.8-3l0,0c0,0,0,0,0,0c0,0,0,0,0,0l0,0c0.1-0.6,0.2-1.1,0.2-1.7c0-1.8-0.5-3.5-1.3-5
		c-1.5-2.8-3.9-5.1-6.8-7.3c-5.1-3.9-11.9-7.4-19.5-10.8c-22.6-10.1-51.5-18-51.6-18c-2.2-0.6-4.5,0.7-5.1,2.9
		c-0.2,0.9-0.2,1.8,0.2,2.6c0.5,1.2,1.4,2.1,2.7,2.5c0,0,0.3,0.1,0.8,0.2c4.1,1.2,22.8,6.5,40.4,13.5c8.8,3.5,17.2,7.3,23.3,11.1
		c3,1.9,5.4,3.7,6.9,5.3c0.7,0.8,1.2,1.5,1.5,2c0.3,0.5,0.3,0.9,0.3,1.1l0,0.2l0,0c-0.4,2.3-1.1,4-2.1,5.3c-1.4,2-3.5,3.3-6.7,4.3
		c-3.1,1-7.1,1.4-11.8,1.4c-7.2,0-15.8-1-24.9-2c-9.1-1-18.7-2.1-27.9-2.1c-11.6,0-22.9,1.6-32.1,7.6c-8,5.3-18.6,7.3-29.7,7.3
		c-14.3,0-29.5-3.4-41-6.8c-1.6-0.5-3.1-0.9-4.5-1.4l-2.3,7.9c1.4,0.4,2.9,0.9,4.4,1.4C2059.2,1874.1,2075,1877.7,2090.6,1877.7z" class="color000000 svgShape"/><path fill="#fff" d="M1375.2,1633c3.2,22.5,6.5,44.4,9.6,65.5c45,35,112.6,83.8,204.8,140.7c137.2,84.6,262.3,92.2,365.1,92.3
		c21.7,0,42.3-0.3,61.9-0.4l40.9-143.6c-18.6,0.3-47.2,1.8-81.2,1.8c-45.1,0-99.8-2.7-153.9-14.7c-54.1-12-107.8-33.2-150.7-70.5
		c-138-120-246.6-183.7-314.9-214.7l13.9,140C1372.9,1629.3,1374.9,1630.8,1375.2,1633z" class="colorffffff svgShape"/><path fill="#1c1c1c" d="M1360.1,1486.5c-0.6,1.4-1.9,2.2-3.3,2.4l0.1,0.7c68.3,31,176.9,94.6,314.9,214.7c42.9,37.3,96.6,58.5,150.7,70.5
		c54.2,12,108.8,14.7,153.9,14.7c34.1,0,62.7-1.5,81.2-1.8l-40.9,143.6c-19.6,0-40.2,0.4-61.9,0.4c-102.8,0-227.9-7.7-365.1-92.3
		c-92.2-56.9-159.8-105.7-204.8-140.7c0.6,3.9,1.1,7.9,1.7,11.7c45.1,34.7,110.8,81.7,198.8,136c122.5,75.6,236,90.6,331.8,93
		c2.8,0.1,5.5,0.1,8.3,0.2c10,0.2,19.7,0.3,29.3,0.3c22.9,0,44.6-0.4,65-0.4c1.8,0,3.5-1.2,4-3l2.4-8.3l2.3-8l14.5-51l2.3-7.9
		l2.6-9.1l16.8-59.1l2.3-8.1l0.1-0.5c0.4-1.2,0.1-2.6-0.7-3.6c-0.8-1-2-1.6-3.3-1.6c-18.6,0-49.4,1.9-86.7,1.9
		c-15.9,0-33.1-0.4-50.9-1.3c-2.7-0.1-5.5-0.3-8.3-0.5c-29.9-1.9-61.6-5.7-93-12.6c-53.3-11.8-105.6-32.6-147.1-68.7
		c-105-91.3-193.1-150.2-259.8-187.1c-22.2-12.3-41.9-22-59.1-29.8C1360.1,1482.1,1361,1484.5,1360.1,1486.5z" class="color000000 svgShape"/><path fill="#1c1c1c" d="M735.1,2843.1c98-115.9,170-247.6,222.6-373.2c105.1-251.1,132.3-477.7,135.2-504.1c0.2-1.7,0.3-2.5,0.3-2.6l0,0
		c0.2-2.3,2.2-3.9,4.5-3.7c2.3,0.2,3.9,2.2,3.7,4.5c0,0.2-12.6,127.3-62.6,299.9c-50.1,172.6-137.6,390.8-287.9,573.1
		c-99.2,120.4-225.9,225.1-387.1,290.4c5.4,8.6,11.3,17.2,17.7,24.9c10.5,12.8,22.2,23.5,34.4,29.5c6.9,3.4,14,5.2,21.2,5.3
		c143-59.9,322.7-145.3,476.6-301.1c138-139.7,255.3-335.9,306.9-621.8c-33.2-35-55.5-53.3-58.2-55.6l-0.3-0.2h0
		c-1.8-1.4-2.1-4-0.7-5.8c0.8-1,1.9-1.5,3-1.5l-12.5-260.5c-1.7,0.1-3.4-0.9-4.1-2.6c-0.8-2.1,0.2-4.5,2.4-5.3l44.8-17.2
		c-116.9-4.1-182.9-24.9-215-39.2c-2.8,49.5-10.2,138.6-29.6,244.2c-30,162.6-88.6,364.3-203.6,520.9
		c-212.7,289.5-391.2,403.7-416.3,418.8c0.6,1.6,1.4,3.6,2.5,6.2c2.4,5.9,6,14.2,10.5,23.7c4.4,9.2,9.8,19.6,16,30.1
		C514.8,3057.6,637.8,2958.2,735.1,2843.1z" class="color000000 svgShape"/><path fill="#1c1c1c" d="M438,3195.4c0.5,0,1.1-0.1,1.5-0.3c143.4-60.1,324.7-145.9,480.1-303.2c138.1-139.8,255.6-336,308.1-620.1
		c-2.4-2.6-4.7-5.1-7-7.5c-51.6,285.8-169,482.1-306.9,621.8c-153.9,155.8-333.6,241.2-476.6,301.1c-7.2,0-14.2-1.9-21.2-5.3
		c-12.2-5.9-23.9-16.6-34.4-29.5c-6.4-7.8-12.3-16.3-17.7-24.9c-1.5,0.6-3,1.3-4.6,1.9c-1.8,0.7-3.9,0-5-1.5
		c10,16.5,22,33.1,35.7,45.7c7,6.4,14.4,11.9,22.3,15.7c2.7,1.3,5.4,2.4,8.2,3.3c2.8,0.9,5.7,1.6,8.6,2.1c2.7,0.4,5.4,0.7,8.2,0.7
		L438,3195.4z" class="color000000 svgShape"/><path fill="#1c1c1c" d="M327.6,3075c5.5,12.9,14.5,32.4,26.3,52c0.1,0.2,0.3,0.5,0.4,0.7c-0.1-0.2-0.3-0.4-0.4-0.7c-0.8-2.1,0.2-4.5,2.3-5.4
		c1.1-0.4,2.2-0.9,3.3-1.3c-6.2-10.4-11.6-20.8-16-30.1c-4.6-9.5-8.1-17.8-10.5-23.7c-1-2.6-1.9-4.6-2.5-6.2
		c25.1-15.2,203.6-129.3,416.3-418.8c115-156.6,173.6-358.3,203.6-520.9c19.5-105.6,26.8-194.7,29.6-244.2c-3-1.3-5.7-2.6-8.1-3.8
		c-2.7,50.8-10.5,147.6-32.6,261.8c-20,103.6-51.7,221.7-101.8,332.8c-26.8,59.5-59,117.1-97.4,169.4
		C626,2792.1,521.7,2896.7,446,2962.5c-37.8,32.9-68.5,56-89.7,70.9c-10.6,7.5-18.8,12.9-24.4,16.4c-2.8,1.8-4.9,3.1-6.3,3.9
		c-0.7,0.4-1.2,0.7-1.6,0.9l-0.4,0.2l-0.1,0.1c-1.7,1-2.5,3.1-1.8,5c0,0,1,2.8,2.9,7.4C325.3,3069.5,326.4,3072.1,327.6,3075z" class="color000000 svgShape"/><path fill="#1c1c1c" d="M1167.3,2202c0.1,0.1,24.8,19.8,62.7,60.1l15.3-93.4c0.4-2.2,2.5-3.8,4.7-3.4c2.2,0.4,3.8,2.5,3.4,4.7l-16.4,99.7
		c40.9,44.4,95.1,110.9,150,200.8c31.9,52.3,61.7,127,88.5,209.8c26.9,82.8,50.8,173.7,70.7,258.1c37.9,160.3,61.5,297.2,63.8,310.6
		c0.2,0.2,0.3,0.4,0.6,0.6c0.9,0.9,2.4,2.1,4.5,3.3c4.4,2.5,11.6,5.2,23.1,5.2c12.5,0,30.1-3.2,54.2-13.7
		c23.7-10.3,53.8-27.6,91.3-55.5c3.5-47.8,5.2-94.5,5.2-140.1c0-365.6-106.4-658.9-214.4-862.4c-80-150.7-160.9-252.2-200.1-297.4
		c-4,4.8-8.6,9.1-14,12.6c-8.9,5.8-19.6,9.7-32.4,11.5l-0.3,0c-33,2.1-63.3,3-91.1,3c-6.8,0-13.4-0.1-19.8-0.2l-63.5,24.3
		c-0.4,0.2-0.9,0.2-1.3,0.3l12.5,260.5C1165.4,2201.1,1166.4,2201.4,1167.3,2202z" class="color000000 svgShape"/><path fill="#1c1c1c" d="M1663.4,3263.2c9.4-2.3,20.1-5.8,32.4-11.1c20.6-8.9,45.4-22.8,75.3-43.7c2.4-1.7,4.8-3.4,7.2-5.1c3.9-2.8,7.9-5.7,12-8.8
		c1-0.7,1.6-1.8,1.6-3c3.6-48.7,5.3-96.2,5.3-142.6c0-149.5-17.7-286.9-46-411.1c-0.9-4-1.8-8-2.8-12
		c-42.4-180.6-107.1-332.8-171.8-452.9c-79.5-147.7-159-246.8-197.3-290.8c-1.5,2.4-3.2,4.7-5,6.9
		c39.2,45.2,120.1,146.7,200.1,297.4c108,203.6,214.4,496.8,214.4,862.4c0,45.6-1.7,92.3-5.2,140.1c-37.5,27.9-67.6,45.2-91.3,55.5
		c-24.1,10.4-41.7,13.7-54.2,13.7c-11.5,0-18.7-2.7-23.1-5.2c-2.2-1.3-3.6-2.5-4.5-3.3c-0.2-0.2-0.4-0.4-0.6-0.6
		c-2.3-13.4-25.9-150.3-63.8-310.6c-20-84.4-43.9-175.3-70.7-258.1c-26.9-82.8-56.6-157.5-88.5-209.8
		c-54.9-89.9-109.1-156.4-150-200.8l-1.6,9.5c0,0.3-0.1,0.6-0.2,0.8c40,44,92.1,108.6,144.7,194.8c31.3,51.3,61,125.6,87.7,208.1
		c23.6,72.7,44.9,151.8,63.3,227.2c12.9,52.9,24.3,104.1,34.1,150c11.8,55.6,21.1,103.5,27.4,137.4c3.2,17,5.6,30.5,7.2,39.7
		c0.8,4.6,1.4,8.2,1.9,10.6c0.4,2.4,0.6,3.6,0.6,3.7c0.1,0.6,0.3,1.1,0.7,1.6c0.3,0.4,2.7,3.8,8.3,7c5.6,3.2,14.4,6.3,27.2,6.3
		c5,0,10.6-0.5,16.9-1.6C1657.8,3264.4,1660.5,3263.9,1663.4,3263.2z" class="color000000 svgShape"/><path fill="#1c1c1c" d="M1229.9,2262.1c-37.8-40.2-62.5-59.9-62.7-60.1c-0.8-0.6-1.8-0.9-2.8-0.9c-1.1,0.1-2.3,0.6-3,1.5c-1.4,1.8-1.1,4.4,0.7,5.8
		h0l0.3,0.2c2.7,2.2,25,20.5,58.2,55.6c2.3,2.4,4.6,4.9,7,7.5c0.2,0.2,0.4,0.4,0.6,0.6L1229.9,2262.1z" class="color000000 svgShape"/><path fill="#1c1c1c" d="M1216.7,1916c-7.4-0.1-14.6-0.3-21.6-0.6l-44.8,17.2c-2.1,0.8-3.2,3.2-2.4,5.3c0.7,1.7,2.3,2.7,4.1,2.6
		c0.4,0,0.9-0.1,1.3-0.3L1216.7,1916z" class="color000000 svgShape"/><path fill="#fff" d="M1106.2,1467.8L1106.2,1467.8c-0.4,0-0.7,0.1-0.9,0.2l-68.4,193.9c1.7,0.6,2.8,2.2,2.8,4c-0.1,2.3-2,4.1-4.3,4
		l-0.2,0c-0.1,0-0.3,0-0.6,0c-0.6,0-1.4,0-2.5,0c-7.5,0-27.5,0.5-54.1,4.8c-13.5,82.2-15.8,162-16.1,180.7c0,0.8,0,1.4,0,1.9
		c0.4,0.3,0.8,0.6,1.4,0.9c2.1,1.4,5.5,3.4,10.2,5.8c9.4,4.8,24.2,11.3,45.6,17.8c42.9,13,112.2,26.2,217.6,26.2
		c27.6,0,57.7-0.9,90.4-2.9c11.7-1.7,21.2-5.1,28.9-10.2c7.7-5,13.7-11.7,18.3-19.8c9.3-16.3,13-39.2,13-66.7
		c0-47.4-10.8-108.5-20.1-174.1l0,0c-0.3-2.3,1.3-4.3,3.5-4.7c0.1,0,0.1,0,0.2,0l-13.9-140l-0.1-0.7c-0.7,0.1-1.4,0-2.1-0.3
		c-40.8-18.7-74.5-28.5-108.6-32c1.1,4.9,2,8.8,2.6,11.3c0.5,2.2,0.8,3.3,0.8,3.3c0.2,0.9,0.1,1.9-0.3,2.8l-40.9,83.1
		c-0.6,1.2-1.7,2-3,2.3c-1.3,0.2-2.7-0.2-3.6-1.2l-82.6-83.9c-1.3-1.3-1.5-3.2-0.7-4.8l0-0.1l0.1-0.2c0.1-0.2,0.3-0.5,0.5-1
		c0.3-0.7,0.8-1.6,1.3-2.8c-3.7,0.7-7.5,1.3-11.4,2.1C1108,1467.7,1107.1,1467.9,1106.2,1467.8z" class="colorffffff svgShape"/><path fill="#1c1c1c" d="M1107.3,1459.6c2.3,0.3,3.8,2.4,3.5,4.6c-0.2,1.3-1,2.4-2.1,3c3.8-0.7,7.6-1.4,11.4-2.1c0.2-0.3,0.3-0.7,0.5-1.1
		c0.9-2.1,1.9-4.8,3.1-7.9c-5.8,1-11.7,2.1-17.8,3.2C1106.8,1459.5,1107.3,1459.6,1107.3,1459.6L1107.3,1459.6z" class="color000000 svgShape"/><path fill="#1c1c1c" d="M1195.1,1915.5c7,0.2,14.2,0.4,21.6,0.6c6.5,0.1,13.1,0.2,19.8,0.2c27.8,0,58.2-0.9,91.1-3l0.3,0
		c12.8-1.8,23.5-5.7,32.4-11.5c5.4-3.5,10-7.8,14-12.6c1.8-2.2,3.4-4.5,5-6.9c3.5-5.5,6.3-11.5,8.6-18.1c5.4-15.9,7.5-34.7,7.5-55.9
		c0-28.8-3.9-62.1-8.9-97.9c-0.5-3.9-1.1-7.8-1.7-11.7c-3.1-21.1-6.4-43.1-9.6-65.5c-0.3-2.2-2.3-3.7-4.5-3.5c-0.1,0-0.1,0-0.2,0
		c-2.3,0.3-3.8,2.4-3.5,4.7l0,0c9.3,65.6,20.1,126.6,20.1,174.1c0,27.5-3.7,50.4-13,66.7c-4.6,8.2-10.6,14.8-18.3,19.8
		c-7.7,5-17.1,8.5-28.9,10.2c-32.7,2-62.8,2.9-90.4,2.9c-105.4,0-174.7-13.1-217.6-26.2c-21.4-6.5-36.2-13-45.6-17.8
		c-4.7-2.4-8.1-4.4-10.2-5.8c-0.5-0.3-1-0.6-1.4-0.9c0-0.6,0-1.2,0-1.9c0.4-18.7,2.7-98.5,16.1-180.7c-2.8,0.5-5.7,0.9-8.6,1.5
		c-5,31.3-8.5,62.2-10.8,89.4c-4.7,54.1-5,93.7-5,93.8c0,1.3,0.6,2.5,1.6,3.3c0.2,0.2,5.4,4.2,16.9,9.9c2.4,1.2,5.1,2.5,8.1,3.8
		C1012.2,1890.5,1078.3,1911.4,1195.1,1915.5z" class="color000000 svgShape"/><path fill="#1c1c1c" d="M1246,1456.5c34.1,3.5,67.8,13.3,108.6,32c0.7,0.3,1.4,0.4,2.1,0.3c1.4-0.1,2.7-1,3.3-2.4c0.9-2,0.1-4.4-1.9-5.4
		c0,0-0.1-0.1-0.1-0.1c-42.4-19.4-77.9-29.6-113.9-33C1244.8,1451.1,1245.4,1454,1246,1456.5z" class="color000000 svgShape"/><path fill="#1c1c1c" d="M1106.1,1467.8L1106.1,1467.8l-0.6-0.1c0,0-0.1,0-0.2,0l-0.1,0.3C1105.5,1467.9,1105.8,1467.8,1106.1,1467.8z" class="color000000 svgShape"/><path fill="#fff" d="M595.8,2235.3c0,0,0,0.9,0.1,2.6c0.1,1.7,0.2,4.2,0.5,7.4c0.4,6.3,1.1,15.2,2.2,25.5
		c2.1,20.6,5.5,47,11.1,69.8c3.7,15.2,8.3,28.8,13.7,37.8c3.1,5.2,6.4,8.7,9.6,10.5c5.3,2.9,9.1,3.9,11.4,3.9c1.4,0,2.3-0.3,2.9-0.7
		c0.7-0.4,1.2-1.1,1.8-2.1c1.1-2,1.6-5.4,1.6-9c0-5.9-1.3-11.9-1.5-12.8c-0.4-0.5-0.7-1.1-0.9-1.8l-7.2-34.3c-0.5-2.2,1-4.4,3.2-4.9
		c2.2-0.5,4.4,1,4.9,3.2l7.1,34c0.4,0.5,0.7,1,0.9,1.6c0,0,0,0,0,0.1h0l0,0l0,0.1l0.1,0.5c0.1,0.5,0.3,1.1,0.6,2
		c0.5,1.7,1.4,4.1,2.5,6.7c2.3,5.3,6,11.5,10.8,15.4c3.3,2.6,6.9,4.2,11.4,4.4l0.4,0c2.3,0,3.8-0.5,4.9-1.1c1.1-0.6,2-1.5,2.7-2.8
		c1.5-2.4,2.2-6.4,2.2-10.5c0-6.8-1.8-13.8-2-14.6c0,0,0-0.1,0-0.1l0,0l0,0c0,0,0-0.1,0-0.1c0,0,0-0.1,0-0.1c0,0,0-0.1,0-0.1
		l-6.9-33.8c-0.5-2.2,1-4.4,3.2-4.9c2.2-0.5,4.4,1,4.9,3.2l6.8,33.7l0,0l0.1,0.4c0.1,0.4,0.3,1,0.5,1.7c0.4,1.5,1.1,3.6,2,6
		c1.8,4.8,4.4,10.8,7.7,15.4c2.2,3.1,4.6,5.5,6.9,6.7c1.3,0.7,2.5,1,3.9,1c0.3,0,0.6,0,0.9-0.1c1.5-0.2,2.5-0.7,3.4-1.6
		c1-0.9,1.9-2.4,2.6-4.3c1.4-3.8,2-9.3,2-14.4c0-7.7-1.2-14.8-1.3-15.5l0,0l-9.6-47c-0.5-2.2,1-4.4,3.2-4.9s4.4,1,4.9,3.2l9.6,46.9
		l0,0l0.1,0.4c0.1,0.4,0.3,0.9,0.5,1.7c0.5,1.4,1.1,3.4,2.1,5.8c1.8,4.6,4.6,10.4,8.1,14.8c2.3,3,4.9,5.3,7.5,6.5
		c1.5,0.7,2.9,1,4.5,1c0.3,0,0.5,0,0.8,0c0.7-0.1,0.9-0.2,1.3-0.5c0.4-0.3,0.8-0.9,1.3-2c0.9-2.1,1.5-5.8,1.4-10.3
		c0-10.3-2.6-24.9-5.7-38.6c-3.1-13.7-6.8-26.6-8.8-34.1c-0.5-1.7,0.2-3.6,1.7-4.5c1.5-1,3.5-0.9,4.9,0.3c4.8,4,11.9,5.9,19.8,5.9
		c7,0,14.6-1.5,21.5-3.9c6.9-2.5,13.2-5.9,17.6-9.7c2.9-2.5,5-5.1,6-7.5c0.6-1.4,0.9-2.6,0.9-3.8l0-0.2l0,0
		c-0.1-2.3-0.5-3.7-0.9-4.5c-0.5-0.8-0.9-1.2-1.9-1.7c-0.6-0.3-1.5-0.6-2.5-0.7c-1.4-0.2-3.2-0.3-5.2-0.3c-4.1,0-9.2,0.4-14.8,0.4
		c-6.5,0-13.7-0.6-20.9-3.1c-5-1.7-9-4.2-12.1-7.1c-3.2-2.9-5.5-6.2-7.5-9.5c-3.9-6.6-6.7-13.1-11.5-18.4c-3.2-3.5-7.3-6.6-13.7-9
		c-5.5-2.1-9.9-6-13.6-10.4c-2.6-3.1-4.7-6.5-6.6-9.9c-0.9,0.6-1.8,1.1-2.8,1.6c-5.5,2.9-11.9,5.3-19,7.5c-14.2,4.2-31,7.2-47.2,9.4
		c-17.1,2.3-33.5,3.5-45.2,4.2C595.6,2230.3,595.7,2233.1,595.8,2235.3L595.8,2235.3z" class="colorffffff svgShape"/><path fill="#1c1c1c" d="M709.8,2204.6c1.9,3.4,4,6.8,6.6,9.9c3.6,4.4,8.1,8.3,13.6,10.4c6.3,2.4,10.4,5.5,13.7,9c4.8,5.3,7.6,11.8,11.5,18.4
		c2,3.3,4.3,6.6,7.5,9.5c3.1,2.9,7.1,5.4,12.1,7.1c7.3,2.5,14.5,3.1,20.9,3.1c5.6,0,10.7-0.4,14.8-0.4c2,0,3.8,0.1,5.2,0.3
		c1.1,0.2,1.9,0.4,2.5,0.7c0.9,0.5,1.4,0.9,1.9,1.7c0.5,0.8,0.9,2.2,0.9,4.5l0,0l0,0.2c0,1.2-0.3,2.4-0.9,3.8c-1,2.4-3.1,5-6,7.5
		c-4.4,3.8-10.7,7.3-17.6,9.7c-6.9,2.5-14.5,3.9-21.5,3.9c-8,0-15-1.9-19.8-5.9c-1.4-1.1-3.4-1.2-4.9-0.3c-1.5,1-2.2,2.8-1.7,4.5
		c2,7.5,5.7,20.4,8.8,34.1c3.1,13.7,5.7,28.3,5.7,38.6c0,4.6-0.5,8.3-1.4,10.3c-0.4,1-0.9,1.7-1.3,2c-0.4,0.3-0.7,0.4-1.3,0.5
		c-0.3,0-0.6,0-0.8,0c-1.6,0-3.1-0.4-4.5-1c-2.6-1.2-5.2-3.5-7.5-6.5c-3.5-4.4-6.2-10.2-8.1-14.8c-0.9-2.3-1.6-4.3-2.1-5.8
		c-0.2-0.7-0.4-1.3-0.5-1.7l-0.1-0.4l0,0l0,0.1c0.5,2.2-1,4.4-3.2,4.9s-4.4-1-4.9-3.2l0-0.1l0,0c0.1,0.7,1.3,7.8,1.3,15.5
		c0,5.1-0.5,10.6-2,14.4c-0.7,1.9-1.6,3.4-2.6,4.3c-1,0.9-1.9,1.4-3.4,1.6c-0.3,0-0.6,0.1-0.9,0.1c-1.3,0-2.5-0.3-3.9-1
		c-2.3-1.2-4.7-3.6-6.9-6.7c-3.3-4.6-5.9-10.6-7.7-15.4c-0.9-2.4-1.6-4.5-2-6c-0.2-0.7-0.4-1.3-0.5-1.7l-0.1-0.4l0,0l0,0.1
		c0.5,2.2-1,4.4-3.2,4.9c-2.2,0.4-4.3-1-4.8-3.1c0,0,0,0.1,0,0.1c0,0,0,0.1,0,0.1l0,0l0,0c0,0,0,0.1,0,0.1c0.2,0.8,2,7.7,2,14.6
		c0,4.1-0.7,8.1-2.2,10.5c-0.7,1.2-1.6,2.1-2.7,2.8c-1.2,0.6-2.7,1.1-4.9,1.1l-0.4,0c-4.5-0.1-8.1-1.7-11.4-4.4
		c-4.9-3.9-8.5-10.1-10.8-15.4c-1.2-2.6-2-5-2.5-6.7c-0.3-0.9-0.5-1.5-0.6-2l-0.1-0.5l0-0.1l0,0h0c0,0,0-0.1,0-0.1
		c-0.2-0.6-0.5-1.2-0.9-1.6l0.1,0.3c0.5,2.2-1,4.4-3.2,4.9c-1.5,0.3-3-0.3-4-1.4c0.2,1,1.5,6.9,1.5,12.8c0,3.5-0.5,7-1.6,9
		c-0.5,1-1.1,1.6-1.8,2.1c-0.7,0.4-1.5,0.7-2.9,0.7c-2.3,0-6.1-1-11.4-3.9c-3.2-1.7-6.5-5.3-9.6-10.5c-5.4-9-10.1-22.6-13.7-37.8
		c-5.5-22.8-9-49.2-11.1-69.8c-1-10.3-1.7-19.2-2.2-25.5c-0.2-3.1-0.4-5.6-0.5-7.4c-0.1-1.7-0.1-2.6-0.1-2.6l0-0.1
		c-0.1-2.1-0.2-5-0.2-8c-3.1,0.2-5.9,0.3-8.2,0.5c0,3,0.1,5.8,0.2,8.1l0,0c0.1,1.2,1.7,35.4,7.3,72c2.9,18.6,6.8,37.8,12.1,53.8
		c2.7,8,5.7,15.1,9.2,21c3.5,5.9,7.6,10.6,12.7,13.4c6,3.3,10.9,4.9,15.4,4.9c2.8,0,5.3-0.7,7.4-2.1c1.6-1,2.8-2.3,3.7-3.8
		c1.4-2.1,2.1-4.3,2.6-6.6c2.1,3.1,4.7,6.2,7.8,8.7c4.3,3.5,9.9,6,16.4,6.2l0.5,0c3.4,0,6.4-0.7,9-2.2c1.9-1.1,3.5-2.5,4.7-4.1
		c1.8-2.4,2.9-5.2,3.6-8c0-0.1,0-0.2,0.1-0.3c1.7,2.8,3.6,5.6,5.9,7.9c1.8,1.9,3.8,3.5,6.1,4.7c2.3,1.2,4.9,2,7.7,1.9
		c0.6,0,1.2,0,1.8-0.1c3.3-0.4,6.1-1.8,8.3-3.9c3.2-3.1,4.8-7.2,5.8-11.5c0.5-2.3,0.8-4.7,1-7c2,3.2,4.3,6.2,7,8.8
		c1.9,1.8,4.1,3.4,6.5,4.5c2.4,1.1,5.1,1.8,8,1.8c0.5,0,1,0,1.5-0.1c2.2-0.2,4.4-1,6-2.4c2.5-2.1,3.8-5,4.6-8.1
		c0.8-3.1,1.1-6.7,1.1-10.5c0-11.6-2.7-26.4-5.9-40.4c-2.1-9.2-4.4-18-6.4-25.1c4.9,1.8,10.4,2.6,15.9,2.6c12.4,0,25.4-3.8,35.7-9.6
		c5.2-2.9,9.6-6.3,13-10.2c1.7-2,3-4,4-6.3c1-2.2,1.6-4.6,1.6-7.1l0-0.2v0v-0.2c-0.1-2.8-0.5-5.3-1.6-7.5c-0.8-1.6-1.9-3.1-3.2-4.2
		c-2-1.7-4.3-2.5-6.7-3c-2.4-0.5-4.8-0.6-7.4-0.6c-4.6,0-9.6,0.4-14.8,0.4c-6,0-12.2-0.5-18.2-2.6c-5.3-1.9-8.7-4.5-11.4-7.7
		c-2.1-2.4-3.8-5.3-5.5-8.4c-2.6-4.7-5.2-10-9.3-15c-4.1-5-9.9-9.7-18.3-12.9c-3.6-1.4-7.1-4.2-10.1-7.9c-2.4-2.9-4.5-6.2-6.3-9.6
		C714.6,2201.4,712.3,2203,709.8,2204.6z" class="color000000 svgShape"/><path fill="#fff" d="M1105.3,1467.7c-0.5-0.1-1.1-0.1-1.9-0.2c-1.8-0.2-4.6-0.5-8.2-0.7c-7.2-0.5-17.6-1.1-30.8-1.1
		c-46.8,0-127.5,6.7-214.4,43.7c-86.9,37.1-180,104.4-251.9,226.1c-50.9,86.2-67.2,173.4-67.2,249.8c0,123.3,42.5,218.5,50,234.4
		c1.4-0.1,3.4-0.1,5.9-0.3c5.4-0.3,13-0.7,21.9-1.4c17.7-1.4,40.6-3.9,60.6-8.2c13.3-2.8,25.4-6.5,33.8-10.9
		c4.2-2.2,7.3-4.6,9.2-6.9c-5.1-80-11.8-148.3-11.8-206.5c0-50.4,5-93.4,20.6-130c20-46.7,47.7-82.3,78.4-109.3
		c30.7-27,64.4-45.4,96.4-57.9c64.1-25,121.5-26.7,136.2-26.7c2.3,0,3.5,0,3.6,0c0.4,0,0.8,0.1,1.2,0.3l68.4-193.9L1105.3,1467.7z" class="colorffffff svgShape"/><path fill="#1c1c1c" d="M977.9,1674.6c26.6-4.3,46.6-4.8,54.1-4.8c1.1,0,1.9,0,2.5,0c0.3,0,0.5,0,0.6,0l0.2,0c2.3,0.1,4.2-1.7,4.3-4
		c0.1-1.8-1.1-3.4-2.8-4c-0.4-0.1-0.8-0.2-1.2-0.3c0,0-1.3,0-3.6,0c-14.6,0-72.1,1.7-136.2,26.7c-32,12.5-65.7,30.9-96.4,57.9
		c-30.7,27-58.4,62.6-78.4,109.3c-15.6,36.6-20.6,79.6-20.6,130c0,58.2,6.7,126.5,11.8,206.5c-2,2.3-5.1,4.7-9.2,6.9
		c-8.3,4.4-20.4,8.1-33.8,10.9c-20,4.3-42.8,6.8-60.6,8.2c-8.9,0.7-16.5,1.2-21.9,1.4c-2.5,0.1-4.4,0.2-5.9,0.3
		c-7.5-15.9-50.1-111-50-234.4c0-76.4,16.3-163.6,67.2-249.8c71.9-121.7,165-189,251.9-226.1c86.9-37.1,167.7-43.7,214.4-43.7
		c13.2,0,23.6,0.5,30.8,1.1c3.6,0.3,6.3,0.5,8.2,0.7c0.8,0.1,1.4,0.2,1.9,0.2c0.1,0,0.1,0,0.2,0l0.5,0.1l0.1,0l0.1,0
		c0.9,0.1,1.8-0.1,2.6-0.5c1.1-0.6,1.9-1.7,2.1-3c0.3-2.3-1.3-4.3-3.5-4.6l0,0c0,0-0.5-0.1-1.5-0.2c-4.5-0.5-19.2-2-41.4-2
		c-47.6,0-129.4,6.8-217.7,44.4c-88.3,37.6-183,106.2-255.7,229.5c-51.8,87.6-68.3,176.4-68.3,254c0,137.6,51.9,240.1,52.1,240.4
		c0.7,1.4,2.2,2.3,3.8,2.3c0,0,3.3-0.1,8.7-0.4c2.4-0.1,5.1-0.3,8.2-0.5c11.7-0.7,28.1-2,45.2-4.2c16.2-2.1,33-5.1,47.2-9.4
		c7.1-2.1,13.6-4.6,19-7.5c1-0.5,1.9-1.1,2.8-1.6c2.5-1.5,4.7-3.2,6.7-5c1.3-1.2,2.5-2.4,3.5-3.8c0.6-0.8,0.8-1.7,0.8-2.7
		c-5.2-80.9-11.9-149.6-11.9-207.6c0-49.9,5-91.8,20-126.8c19.5-45.6,46.4-80.1,76.2-106.4c44.7-39.3,96.2-60,139.2-70.8
		c8.8-2.2,17.2-4,25.1-5.5C972.3,1675.6,975.1,1675.1,977.9,1674.6z" class="color000000 svgShape"/><path fill="#fff" d="M1141.4,1378.2c0.6,6.2,0.9,12.3,0.9,18.1c0,37.5-11.5,65.5-15.4,74.1l76.5,77.7l37.7-76.6
		c-2.5-10.5-18.2-78.4-24.8-129.6c-0.3-2.2,1.2-4.2,3.3-4.6c6.1-1.1,14.6-2,23.4-3.4c8.8-1.4,17.8-3.4,24.3-6.3
		c4.4-2,7.4-4.3,8.9-6.8c0.9-1.4,1.3-2.8,1.3-4.6c0-0.3,0-0.6,0-0.9c-0.6-4-0.9-8-0.9-11.9c0-10.8,1.6-21.3,1.6-30.8
		c0-4.9-0.4-9.5-1.6-13.8l0,0c-0.2-0.7-0.3-1.5-0.3-2.1c0-1.7,0.5-3.2,1.1-4.5c0.6-1.3,1.3-2.6,2.1-3.7c1.5-2.4,3.3-4.6,4.4-6.5
		c0.8-1.2,1.2-2.3,1.2-2.6l0-0.1c-6.3-18.4-16.7-33.9-30-45.6c-10.2,12.7-26.4,24.2-50.7,32.8l-0.3,0.1c-15.5,4.2-24.7,6.4-30.1,7.5
		c-0.6,0.1-1.1,0.2-1.6,0.3c2.4,5.7,6.4,15.4,8.8,24.4c1.2,4.6,2.1,8.9,2.1,12.8c0,1.6-0.1,3.1-0.6,4.5c-0.4,1.5-1.2,3-2.5,4.2
		c-0.9,0.8-2,1.4-3.2,1.7c-0.8,0.2-1.6,0.3-2.3,0.3c-1.5,0-2.9-0.3-4.1-0.9c-1.3-0.5-2.4-1.2-3.6-2c-2.2-1.6-4.3-3.7-6.3-5.9
		c-4-4.5-7.9-10.1-11.4-14.7c-1.6-2.1-3.1-3.9-4.4-5.4c0.2,0.9,0.3,1.8,0.6,2.9c0.7,3.3,1.7,7.4,2.8,11.8c2.2,8.9,5,19.4,6.8,29.5
		c1.2,6.7,2.1,13.2,2.1,19.1c0,3.5-0.3,6.7-1.1,9.7c-0.8,3-2,5.7-4.2,7.9c-5.1,5.2-11.3,8.4-17.3,10.2c0.3,1.3,0.7,2.6,1,3.9
		C1138.3,1359.7,1140.5,1369.7,1141.4,1378.2z" class="colorffffff svgShape"/><path fill="#1c1c1c" d="M1256.4,1192c-0.5,0.6-0.9,1.2-1.4,1.8c13.3,11.8,23.7,27.2,30,45.6l0,0.1c-0.1,0.4-0.5,1.4-1.2,2.6
		c-1.1,1.9-2.8,4.1-4.4,6.5c-0.8,1.2-1.5,2.4-2.1,3.7c-0.6,1.3-1.1,2.8-1.1,4.5c0,0.7,0.1,1.4,0.3,2.1l0,0c1.2,4.2,1.6,8.8,1.6,13.8
		c0,9.5-1.6,20-1.6,30.8c0,3.9,0.2,7.9,0.9,11.9c0,0.3,0,0.6,0,0.9c0,1.8-0.4,3.2-1.3,4.6c-1.5,2.4-4.6,4.8-8.9,6.8
		c-6.5,3-15.5,4.9-24.3,6.3c-8.8,1.4-17.3,2.3-23.4,3.4c-2.2,0.4-3.6,2.4-3.3,4.6c6.6,51.2,22.3,119,24.8,129.6l-37.7,76.6
		l-76.5-77.7c4-8.6,15.4-36.5,15.4-74.1c0-5.8-0.3-11.9-0.9-18.1c-0.9-8.5-3.1-18.5-5.8-29.6c-0.3-1.3-0.7-2.6-1-3.9
		c-0.3,0.1-0.7,0.2-1,0.3c-2.4,0.7-4.8,1.1-7.1,1.5c0.4,1.4,0.7,2.8,1.1,4.1c2.8,11,4.9,20.7,5.6,28.5c0.6,6,0.9,11.7,0.9,17.3
		c0,21.5-4,39.9-8,52.8c-0.8,2.6-1.6,4.9-2.4,7.1c-1.1,3.2-2.2,5.9-3.1,7.9c-0.2,0.4-0.3,0.7-0.5,1.1c-0.5,1.2-1,2.2-1.3,2.8
		c-0.2,0.4-0.4,0.8-0.5,1l-0.1,0.2l0,0.1c-0.8,1.6-0.6,3.5,0.7,4.8l82.6,83.9c0.9,1,2.3,1.4,3.6,1.2c1.3-0.2,2.5-1.1,3-2.3
		l40.9-83.1c0.4-0.9,0.5-1.8,0.3-2.8c0,0-0.3-1.2-0.8-3.3c-0.6-2.5-1.5-6.4-2.6-11.3c-0.6-2.6-1.2-5.4-1.9-8.5
		c-5.6-25.6-14.4-68-19.2-103.1c3.7-0.5,8.2-1.1,12.9-1.8c9.9-1.4,21.2-3.3,30.4-6.9c4.6-1.8,8.8-4.1,12-7.4
		c1.6-1.6,2.9-3.5,3.9-5.6c0.9-2.1,1.5-4.5,1.5-6.9c0-0.5,0-1.1-0.1-1.6l0-0.3c-0.6-3.5-0.8-7.1-0.8-10.8c0-9.9,1.6-20.4,1.6-30.8
		c0-5.4-0.5-10.7-1.9-15.9c0-0.1,0.2-1,0.9-2.2c1-1.8,2.8-4.2,4.5-6.7c0.8-1.2,1.6-2.5,2.3-3.9c0.6-1.4,1.2-2.9,1.2-4.7
		c0-0.8-0.1-1.6-0.4-2.4c-6.8-20.1-18.3-37.1-33.1-49.9C1258.7,1188.7,1257.6,1190.3,1256.4,1192z" class="color000000 svgShape"/><path fill="#1c1c1c" d="M1111.4,1146.4c-11.1,9.1-18.4,20.3-23,32.8c-4.6,12.6-6.6,26.5-6.6,40.8c0,28,7.3,57.3,14.9,80
		c6.4,19.2,13,33.6,15.4,38.7c1.2,0.1,2.8,0.2,4.7,0.2c4,0,9.3-0.4,14.5-1.9c5.3-1.5,10.5-4.1,14.6-8.3c0.8-0.8,1.6-2.2,2.1-4.2
		c0.5-2,0.8-4.6,0.8-7.6c0-8.9-2.4-20.9-5.1-32.3c-2.7-11.5-5.8-22.3-7.1-29.7c-0.4-2.1-0.6-4-0.6-5.7c0-0.7,0-1.3,0.2-2.1
		c0.1-0.7,0.3-1.5,0.8-2.3c0.3-0.6,0.8-1.2,1.5-1.6c0.9-0.6,2.1-1,3-0.9l0.1,0c1.6,0,2.9,0.6,4,1.2c1.1,0.6,2.1,1.4,3,2.3
		c1.9,1.7,3.7,3.9,5.6,6.3c3.8,4.8,7.8,10.5,11.6,15c2.5,3,5,5.4,6.8,6.5c1,0.6,1.8,0.8,2.1,0.8l0,0c0.1-0.3,0.3-1.2,0.3-2.4
		c0-2.4-0.6-6-1.6-9.9c-1-3.9-2.4-8.1-3.9-12.1c-2.9-8-6-14.9-6.7-16.3l-0.1-0.3c-0.6-1.2-0.5-2.7,0.2-3.8c0.7-1.2,1.9-1.9,3.2-2
		l0,0l0.1,0c0.1,0,0.4-0.1,0.9-0.1c0.9-0.2,2.5-0.4,5.1-1c5.1-1.1,14.2-3.3,29.5-7.4c24.3-8.7,39.2-19.9,48.2-31.8
		c8.9-11.9,12-24.6,12-36.7c0-13.3-3.8-26-7.7-35.4c-2.9-7.1-6-12.3-7.5-14.8c-0.4,0-1-0.1-1.6-0.1c-2.3-0.2-5.6-0.4-9.9-0.4
		c-11.6,0-29.9,1.4-51.7,7.9C1161.7,1114,1136.6,1125.7,1111.4,1146.4z" class="color000000 svgShape"/><path fill="#1c1c1c" d="M1080.6,1176.4c-5.1,13.7-7.1,28.6-7.1,43.7c0,30.3,8.1,61.3,16.1,84.8c8,23.5,16,39.5,16.1,39.6c0.6,1.2,1.7,2,3.1,2.2
		c0.2,0,3.3,0.5,8,0.5c2.8,0,6.1-0.2,9.7-0.7c2.3-0.3,4.6-0.8,7.1-1.5c0.3-0.1,0.7-0.2,1-0.3c6-1.8,12.1-4.9,17.3-10.2
		c2.1-2.2,3.4-5,4.2-7.9c0.8-3,1.1-6.2,1.1-9.7c0-5.9-0.8-12.4-2.1-19.1c-1.8-10.1-4.6-20.6-6.8-29.5c-1.1-4.4-2.1-8.5-2.8-11.8
		c-0.2-1-0.4-2-0.6-2.9c1.3,1.5,2.8,3.3,4.4,5.4c3.5,4.6,7.4,10.1,11.4,14.7c2,2.3,4.1,4.3,6.3,5.9c1.1,0.8,2.3,1.5,3.6,2
		c1.3,0.5,2.7,0.9,4.1,0.9c0.8,0,1.6-0.1,2.3-0.3c1.2-0.3,2.3-0.9,3.2-1.7c1.3-1.2,2.1-2.7,2.5-4.2c0.4-1.5,0.6-3,0.6-4.5
		c0-3.9-0.9-8.2-2.1-12.8c-2.5-9-6.4-18.7-8.8-24.4c0.5-0.1,1-0.2,1.6-0.3c5.4-1.2,14.5-3.4,30.1-7.5l0.3-0.1
		c24.3-8.6,40.5-20.1,50.7-32.8c0.5-0.6,1-1.2,1.4-1.8c1.2-1.6,2.4-3.3,3.4-5c7.5-12,10.3-24.8,10.3-36.7c0-15.4-4.4-29.4-8.8-39.6
		c-4.4-10.2-8.7-16.7-8.8-16.8c-0.6-1-1.7-1.6-2.8-1.8c-0.2,0-5.5-0.8-14.5-0.8c-12.3,0-31.4,1.5-54,8.3c-11,3.3-22.9,7.9-35.2,14.3
		c-12.9,6.7-26.3,15.2-39.7,26.2C1093.9,1150.1,1085.6,1162.7,1080.6,1176.4z M1245,1099.9c0.6,0,1.1,0.1,1.6,0.1
		c1.5,2.5,4.5,7.7,7.5,14.8c4,9.5,7.7,22.1,7.7,35.4c0,12.2-3.1,24.8-12,36.7c-8.9,11.9-23.9,23.1-48.2,31.8
		c-15.3,4.1-24.4,6.3-29.5,7.4c-2.6,0.6-4.2,0.9-5.1,1c-0.5,0.1-0.7,0.1-0.9,0.1l-0.1,0l0,0c-1.3,0.1-2.5,0.8-3.2,2
		c-0.7,1.2-0.8,2.6-0.2,3.8l0.1,0.3c0.7,1.5,3.8,8.4,6.7,16.3c1.5,4,2.9,8.2,3.9,12.1c1,3.9,1.7,7.5,1.6,9.9c0,1.3-0.2,2.1-0.3,2.4
		l0,0c-0.3,0-1-0.1-2.1-0.8c-1.8-1.1-4.3-3.5-6.8-6.5c-3.8-4.5-7.8-10.3-11.6-15c-1.9-2.4-3.7-4.6-5.6-6.3c-0.9-0.9-1.9-1.6-3-2.3
		c-1.1-0.6-2.4-1.1-4-1.2l-0.1,0c-0.9,0-2.1,0.3-3,0.9c-0.7,0.5-1.2,1.1-1.5,1.6c-0.5,0.8-0.7,1.6-0.8,2.3c-0.1,0.7-0.2,1.4-0.2,2.1
		c0,1.7,0.2,3.5,0.6,5.7c1.3,7.4,4.4,18.2,7.1,29.7c2.7,11.4,5.1,23.5,5.1,32.3c0,3-0.3,5.6-0.8,7.6c-0.5,2-1.3,3.4-2.1,4.2
		c-4.1,4.2-9.3,6.8-14.6,8.3c-5.3,1.5-10.5,1.9-14.5,1.9c-1.9,0-3.5-0.1-4.7-0.2c-2.4-5.1-9-19.5-15.4-38.7
		c-7.6-22.7-14.9-52-14.9-80c0-14.3,1.9-28.3,6.6-40.8c4.7-12.6,12-23.7,23-32.8c25.2-20.7,50.3-32.4,72.1-38.9
		c21.7-6.5,40.1-7.9,51.7-7.9C1239.4,1099.6,1242.7,1099.7,1245,1099.9z" class="color000000 svgShape"/><path fill="#fff" d="M2494.9,1570.1c0-11-1.2-21.8-3.4-32.2c-20.4,63.7-80.1,109.9-150.6,109.9c-70.5,0-130.2-46.1-150.6-109.9
		c-2.2,10.4-3.4,21.1-3.4,32.2c0,85,68.9,154,154,154C2425.9,1724.1,2494.9,1655.1,2494.9,1570.1z" class="colorffffff svgShape"/><linearGradient id="l" x1="839.961" x2="842.712" y1="1258.506" y2="1258.506" gradientTransform="scale(132.1265 -132.1265) rotate(-89.382 -212.597 1039.552)" gradientUnits="userSpaceOnUse"><stop class="stopColorfbd027 svgShape" offset="0" stop-color="#8aa2ff"/><stop class="stopColorfcefbc svgShape" offset="1" stop-color="#8b93e1"/></linearGradient><path fill="url(#l)" d="M2494.9,1570.1c0-11-1.2-21.8-3.4-32.2c-20.4,63.7-80.1,109.9-150.6,109.9c-70.5,0-130.2-46.1-150.6-109.9
		c-2.2,10.4-3.4,21.1-3.4,32.2c0,85,68.9,154,154,154C2425.9,1724.1,2494.9,1655.1,2494.9,1570.1z"/><polygon fill="#1c1c1c" points="2737.9 3390.4 2737.9 3269.2 2589.7 3269.2 2636 3390.4" class="color000000 svgShape"/><path fill="#1c1c1c" d="M2744.9,3268c-0.8,0.8-1.8,1.2-2.9,1.2h-4.1v121.2H2636l-46.3-121.2h-6c-1.7,0-3.2-1.1-3.9-2.7l47.3,123.9l0,0h119v0
		v-125.3C2746.1,3266.2,2745.7,3267.3,2744.9,3268z" class="color000000 svgShape"/><path fill="#fff" d="M2557.3,2683.9c-2.3,0-4.1-1.8-4.1-4.1v-255.6l-124.8-223v645.6l158.2,414.2h151.3v-506.7l-62.4-111.6v273.6
		c0,2.3-1.8,4.1-4.1,4.1c-2.3,0-4.1-1.8-4.1-4.1v-288.4l-105.8-189v240.8C2561.4,2682,2559.6,2683.9,2557.3,2683.9z" class="colorffffff svgShape"/><path fill="#1c1c1c" d="M2537,2378.4l-109.2-195.1c-0.9-1.6-2.8-2.5-4.6-2c-1.8,0.5-3.1,2.1-3.1,4v384.5v8.3v97.6v8.3v163.6c0,0.5,0.1,1,0.3,1.5
		l6.1,16l3.1,8l150.3,393.5c0,0,0,0,0,0c0.6,1.6,2.1,2.7,3.9,2.7h6h148.2h4.1c1.1,0,2.1-0.4,2.9-1.2s1.2-1.8,1.2-2.9v-341v-170.9
		c0-0.7-0.2-1.4-0.5-2l-200.3-358L2537,2378.4z M2561.4,2423.1v15.8l105.8,189v-1.1c0-2.3,1.8-4.1,4.1-4.1c2.3,0,4.1,1.8,4.1,4.1
		v15.8l62.4,111.6V3261h-151.3l-158.2-414.2v-645.6l124.8,223v-1.1c0-2.3,1.8-4.1,4.1-4.1C2559.6,2419,2561.4,2420.8,2561.4,2423.1z
		" class="color000000 svgShape"/><path fill="#1c1c1c" d="M3746.1,3394.6c0-2.3-1.8-4.1-4.1-4.1h-450.1h-545.8h-119H1564.9h-409.3c-2.3,0-4.1,1.8-4.1,4.1c0,2.3,1.8,4.1,4.1,4.1
		c0,0,0,0,0.1,0h409.3h1727H3742c0,0,0,0,0.1,0C3744.3,3398.7,3746.1,3396.8,3746.1,3394.6z" class="color000000 svgShape"/><path fill="#fff" d="M1237,2269.7l16.4-99.7c0.4-2.2-1.2-4.4-3.4-4.7c-2.2-0.4-4.4,1.2-4.7,3.4l-15.3,93.4l-1.7,10.3l-0.9,5.5
		c-0.4,2.2,1.2,4.4,3.4,4.7c2,0.3,3.8-0.8,4.5-2.6c0.1-0.3,0.2-0.5,0.2-0.8L1237,2269.7z" class="colorffffff svgShape"/><path fill="#1c1c1c" d="M2234.9,1595.6c27.1,27.1,64.6,43.9,106,43.9c41.4,0,78.8-16.8,106-43.9c27.1-27.1,43.9-64.6,43.9-106
		c0-41.4-16.8-78.8-43.9-106c-27.1-27.1-64.6-43.9-106-43.9c-41.4,0-78.8,16.8-106,43.9c-27.1,27.1-43.9,64.6-43.9,106
		C2191,1531.1,2207.8,1568.5,2234.9,1595.6z M2380.1,1455.3h-27.5v91.9h-11.8h-11.8v-91.9h-27.5l39.2-39.2L2380.1,1455.3z" class="color000000 svgShape"/><path fill="#1c1c1c" d="M2340.9,1647.8c70.5,0,130.2-46.1,150.6-109.9c4.9-15.2,7.5-31.4,7.5-48.2c0-87.3-70.8-158.1-158.1-158.1
		c-87.3,0-158.1,70.8-158.1,158.1c0,16.8,2.7,33,7.5,48.2C2210.7,1601.6,2270.4,1647.8,2340.9,1647.8z M2340.9,1339.8
		c41.4,0,78.8,16.8,106,43.9c27.1,27.1,43.9,64.6,43.9,106c0,41.4-16.8,78.8-43.9,106c-27.1,27.1-64.6,43.9-106,43.9
		c-41.4,0-78.8-16.8-106-43.9c-27.1-27.1-43.9-64.6-43.9-106c0-41.4,16.8-78.8,43.9-106C2262,1356.6,2299.5,1339.8,2340.9,1339.8z" class="color000000 svgShape"/><path fill="#fff" d="M1035.4,1001.4C1035.4,1001.4,1035.5,1001.4,1035.4,1001.4C1035.5,1001.4,1035.4,1001.4,1035.4,1001.4z" class="colorffffff svgShape"/><path fill="#fff" d="M1039.4,1004.1c0,0.1,0,0.1,0.1,0.2C1039.4,1004.2,1039.4,1004.2,1039.4,1004.1z" class="colorffffff svgShape"/><path fill="#fff" d="M1036.6,1001.6c0.1,0,0.1,0,0.2,0.1C1036.8,1001.6,1036.7,1001.6,1036.6,1001.6z" class="colorffffff svgShape"/><path fill="#fff" d="M1039.6,1005.4C1039.6,1005.4,1039.6,1005.4,1039.6,1005.4C1039.6,1005.4,1039.6,1005.4,1039.6,1005.4z" class="colorffffff svgShape"/><path fill="#fff" d="M1037.9,1002.1C1037.9,1002.1,1037.9,1002.1,1037.9,1002.1C1037.9,1002.1,1037.9,1002.1,1037.9,1002.1z" class="colorffffff svgShape"/><path fill="#fff" d="M1038.8,1003C1038.8,1003,1038.8,1003,1038.8,1003C1038.8,1003,1038.8,1003,1038.8,1003
		C1038.8,1003.1,1038.8,1003,1038.8,1003z" class="colorffffff svgShape"/><path fill="#fff" d="M495.2,1457.6l238.3-254.9l125.8,56.7c1.8,0.8,3.9,0.2,5.1-1.4l167.1-239.3v-13.1c0-1.9,1.2-3.4,2.9-3.9
		c0,0-0.1,0-0.1,0l-45.6,15.7c-2.2,0.7-3.3,3.1-2.6,5.2c0.7,2.2,3.1,3.3,5.2,2.6l0,0l33.6-11.6l-165.4,236.9L734.2,1194
		c-1.6-0.7-3.5-0.3-4.7,0.9l-240.3,257c-1.6,1.7-1.5,4.3,0.2,5.8C491,1459.3,493.7,1459.3,495.2,1457.6z" class="colorffffff svgShape"/><path fill="#fff" d="M1031.4,1005.5v13.1v34c0,2.3,1.8,4.1,4.1,4.1c2.3,0,4.1-1.8,4.1-4.1v-47.1c0,0,0,0,0-0.1c0,0,0-0.1,0-0.1
		c0-0.4-0.1-0.7-0.2-1.1c0-0.1,0-0.1-0.1-0.2c-0.1-0.4-0.3-0.7-0.5-1c0-0.1-0.1-0.1-0.1-0.2c-0.2-0.3-0.5-0.6-0.8-0.8c0,0,0,0-0.1,0
		c-0.3-0.2-0.7-0.4-1-0.5c-0.1,0-0.1,0-0.2-0.1c-0.4-0.1-0.7-0.2-1.1-0.2c0,0,0,0,0,0c0,0-0.1,0-0.1,0c-0.4,0-0.7,0.1-1.1,0.2
		C1032.6,1002.1,1031.4,1003.7,1031.4,1005.5z" class="colorffffff svgShape"/><path fill="#1c1c1c" d="M3198.7,2445.3c-0.9-0.6-1.5-1.4-1.8-2.4c-3.8-14.8-6.1-23.7-9.8-38.5c-0.3-1-0.1-2.1,0.4-3l22.3-41.3
		c-14.7-17.5-16.7-19.9-31.4-37.4l-44.5,14.9c-1,0.3-2.1,0.3-3-0.2c-13.9-6.3-22.3-10-36.2-16.3c-0.9-0.4-1.7-1.2-2.1-2.1
		l-18.4-43.2c-22.9,0.6-25.9,0.7-48.8,1.3l-16.1,44.1c-0.4,1-1.1,1.8-2,2.3c-13.6,7-21.7,11.2-35.3,18.1c-0.9,0.5-2,0.6-3,0.3
		l-45.2-12.6c-13.8,18.3-15.7,20.7-29.4,39l24.4,40.1c0.5,0.9,0.7,1.9,0.5,3c-3,15-4.8,24-7.8,38.9c-0.2,1-0.8,1.9-1.6,2.5l-38,27.5
		c5.7,22.2,6.4,25.1,12.1,47.3l46.5,5.9c1,0.1,2,0.6,2.6,1.4c9.8,11.7,15.7,18.7,25.6,30.4c0.7,0.8,1,1.8,1,2.9l-2.2,46.9
		c20.9,9.4,23.7,10.6,44.5,20l33.6-32.7c0.7-0.7,1.7-1.1,2.8-1.2c15.2-0.4,24.4-0.6,39.7-1c1,0,2,0.3,2.8,1l35.3,30.9
		c20.4-10.5,23.1-11.9,43.4-22.3l-4.6-46.7c-0.1-1,0.2-2.1,0.8-2.9c9.2-12.2,14.7-19.5,23.9-31.7c0.6-0.8,1.5-1.4,2.6-1.6l46.2-8.3
		c4.5-22.4,5.1-25.4,9.6-47.9L3198.7,2445.3z M3054.9,2561.9c-58.6,0-106.1-47.5-106.1-106.1c0-58.6,47.5-106.1,106.1-106.1
		c58.6,0,106.1,47.5,106.1,106.1C3161,2514.4,3113.5,2561.9,3054.9,2561.9z" class="color000000 svgShape"/><path fill="#1c1c1c" d="M3195.5,2403.9l16.7-30.8l4.5-8.3l1.7-3.2c0.8-1.5,0.6-3.3-0.5-4.6c-17.1-20.3-18-21.4-35-41.7c-1.1-1.3-2.9-1.8-4.5-1.3
		l-37,12.4l-8.3,2.8l-0.4,0.1c-12.5-5.6-20.7-9.3-33.3-15l-18.8-44.3c-0.7-1.6-2.2-2.6-3.9-2.5c-26.5,0.7-27.9,0.7-54.3,1.4
		c-0.1,0-0.1,0-0.1,0c-1.7,0-3.2,1.1-3.8,2.7l-16.5,45.2c-12.2,6.3-20.2,10.4-32.5,16.7l-46.3-12.9c-1.6-0.5-3.4,0.1-4.4,1.5
		c-16,21.2-16.8,22.3-32.8,43.4c-1,1.4-1.1,3.2-0.2,4.6l25,41.1c-2.7,13.5-4.5,22.3-7.2,35.8l-39,28.2c-1.4,1-2,2.7-1.6,4.4
		c6.6,25.7,6.9,27,13.5,52.7c0.4,1.6,1.8,2.9,3.5,3.1l47.7,6c8.9,10.5,14.6,17.4,23.5,27.9l-2.3,48.1c-0.1,1.7,0.9,3.3,2.4,4
		c24.2,10.9,25.4,11.4,49.6,22.3c1.5,0.7,3.4,0.4,4.6-0.8l34.5-33.6c13.7-0.3,22.7-0.6,36.5-0.9l36.2,31.7c1.3,1.1,3.1,1.3,4.6,0.6
		c23.6-12.1,24.8-12.8,48.4-24.9c1.5-0.8,2.4-2.4,2.2-4.1l-4.7-47.9c8.3-11,13.7-18.1,22-29.1l47.3-8.5c1.7-0.3,3-1.6,3.3-3.3
		c5.2-26,5.5-27.4,10.7-53.4c0.3-1.7-0.4-3.4-1.8-4.3l-14.8-9.6l-25.6-16.6C3201.1,2425.9,3198.9,2417.2,3195.5,2403.9z
		 M3228.4,2518.6l-46.2,8.3c-1,0.2-1.9,0.7-2.6,1.6c-9.2,12.2-14.8,19.5-23.9,31.7c-0.6,0.8-0.9,1.9-0.8,2.9l4.6,46.7
		c-20.4,10.4-23.1,11.8-43.4,22.3l-35.3-30.9c-0.8-0.7-1.8-1.1-2.8-1c-15.3,0.4-24.4,0.6-39.7,1c-1,0-2,0.4-2.8,1.2l-33.6,32.7
		c-20.9-9.4-23.7-10.6-44.5-20l2.2-46.9c0-1-0.3-2.1-1-2.9c-9.8-11.7-15.7-18.7-25.6-30.4c-0.7-0.8-1.6-1.3-2.6-1.4l-46.5-5.9
		c-5.7-22.2-6.4-25.1-12.1-47.3l38-27.5c0.8-0.6,1.4-1.5,1.6-2.5c3-15,4.8-24,7.8-38.9c0.2-1,0-2.1-0.5-3l-24.4-40.1
		c13.8-18.2,15.6-20.7,29.4-39l45.2,12.6c1,0.3,2.1,0.2,3-0.3c13.6-7,21.7-11.2,35.3-18.1c0.9-0.5,1.6-1.3,2-2.3l16.1-44.1
		c22.9-0.6,25.9-0.7,48.8-1.3l18.4,43.2c0.4,1,1.2,1.7,2.1,2.1c13.9,6.3,22.3,10,36.2,16.3c0.9,0.4,2,0.5,3,0.2l44.5-14.9
		c14.7,17.5,16.7,19.9,31.4,37.4l-22.3,41.3c-0.5,0.9-0.6,2-0.4,3c3.8,14.8,6.1,23.7,9.8,38.5c0.3,1,0.9,1.9,1.8,2.4l39.4,25.5
		C3233.5,2493.2,3232.9,2496.2,3228.4,2518.6z" class="color000000 svgShape"/><path fill="#1c1c1c" d="M3054.9,2349.7c-58.6,0-106.1,47.5-106.1,106.1c0,58.6,47.5,106.1,106.1,106.1c58.6,0,106.1-47.5,106.1-106.1
		C3161,2397.2,3113.5,2349.7,3054.9,2349.7z M3054.9,2553.6c-27,0-51.5-10.9-69.2-28.7c-17.7-17.7-28.7-42.2-28.7-69.2
		c0-27,10.9-51.5,28.7-69.2c17.7-17.7,42.2-28.7,69.2-28.7c27,0,51.5,10.9,69.2,28.7c17.7,17.7,28.7,42.2,28.7,69.2
		c0,27-10.9,51.5-28.7,69.2C3106.3,2542.7,3081.9,2553.6,3054.9,2553.6z" class="color000000 svgShape"/><path fill="#1c1c1c" d="M1237.4,2851.4c2.2,0.7,4.5-0.4,5.2-2.6l27.2-80.6c0.7-2.2-0.4-4.5-2.6-5.2c-2.2-0.7-4.5,0.4-5.2,2.6l-27.2,80.6
		C1234.1,2848.4,1235.2,2850.7,1237.4,2851.4z" class="color000000 svgShape"/><path fill="#1c1c1c" d="M3453.8,2881.8v68.5c0,2.3,1.8,4.1,4.1,4.1c2.3,0,4.1-1.8,4.1-4.1v-68.5c0-2.3-1.8-4.1-4.1-4.1
		C3455.7,2877.6,3453.8,2879.5,3453.8,2881.8z" class="color000000 svgShape"/><path fill="#1c1c1c" d="M553.8,2711.1l54.9-51c1.7-1.6,1.8-4.2,0.2-5.8c-1.6-1.7-4.2-1.8-5.8-0.2l-54.9,51c-1.7,1.6-1.8,4.2-0.2,5.8
		C549.6,2712.5,552.2,2712.6,553.8,2711.1z" class="color000000 svgShape"/><path fill="#1c1c1c" d="M3274.9,2195.7h379.2c2.3,0,4.1-1.8,4.1-4.1c0-2.3-1.8-4.1-4.1-4.1h-379.2c-2.3,0-4.1,1.8-4.1,4.1
		C3270.7,2193.8,3272.6,2195.7,3274.9,2195.7z" class="color000000 svgShape"/><path fill="#1c1c1c" d="M3331.1,2296h-56.2c-2.3,0-4.1,1.8-4.1,4.1c0,2.3,1.8,4.1,4.1,4.1h56.2c2.3,0,4.1-1.8,4.1-4.1
		C3335.2,2297.8,3333.4,2296,3331.1,2296z" class="color000000 svgShape"/><path fill="#1c1c1c" d="M3654.1,2296h-256.3c-2.3,0-4.1,1.8-4.1,4.1c0,2.3,1.8,4.1,4.1,4.1h256.3c2.3,0,4.1-1.8,4.1-4.1
		C3658.2,2297.8,3656.4,2296,3654.1,2296z" class="color000000 svgShape"/><path fill="#fff" d="M526.8,1531.4c-4.9-4.9-11.5-7.8-18.9-7.8c-7.4,0-14.1,3-18.9,7.8c-4.9,4.9-7.8,11.5-7.8,18.9
		c0,7.4,3,14.1,7.8,18.9c4.9,4.8,11.5,7.8,18.9,7.8c7.4,0,14.1-3,18.9-7.8c4.9-4.9,7.8-11.5,7.8-18.9
		C534.7,1542.9,531.7,1536.2,526.8,1531.4z" class="colorffffff svgShape"/><path fill="#1c1c1c" d="M542.9,1550.3c0-19.3-15.7-35-35-35c-19.3,0-35,15.7-35,35c0,19.3,15.7,35,35,35C527.2,1585.3,542.9,1569.7,542.9,1550.3z
		 M507.9,1577.1c-7.4,0-14.1-3-18.9-7.8c-4.9-4.9-7.8-11.5-7.8-18.9c0-7.4,3-14.1,7.8-18.9c4.9-4.9,11.5-7.8,18.9-7.8
		c7.4,0,14.1,3,18.9,7.8c4.9,4.9,7.8,11.5,7.8,18.9c0,7.4-3,14.1-7.8,18.9C522,1574.1,515.3,1577.1,507.9,1577.1z" class="color000000 svgShape"/><polygon fill="#fff" points="2301.6 1455.3 2329.1 1455.3 2329.1 1547.2 2340.9 1547.2 2352.6 1547.2 2352.6 1455.3 2380.1 1455.3 2340.9 1416.1" class="colorffffff svgShape"/><path fill="#1c1c1c" d="M2553.2,2423.1v1.1v255.6c0,2.3,1.8,4.1,4.1,4.1c2.3,0,4.1-1.8,4.1-4.1v-240.8v-15.8c0-2.3-1.8-4.1-4.1-4.1
		C2555,2419,2553.2,2420.8,2553.2,2423.1z" class="color000000 svgShape"/><path fill="#1c1c1c" d="M2671.3,2920.4c2.3,0,4.1-1.8,4.1-4.1v-273.6v-15.8c0-2.3-1.8-4.1-4.1-4.1c-2.3,0-4.1,1.8-4.1,4.1v1.1v288.4
		C2667.2,2918.6,2669,2920.4,2671.3,2920.4z" class="color000000 svgShape"/><path fill="#1c1c1c" d="M1843.7,2729.4c2.3,0,4.1-1.8,4.1-4.1v-258.1c0-0.5-0.1-1-0.3-1.5c-0.6-1.5-2.1-2.6-3.8-2.6c-2.3,0-4.1,1.8-4.1,4.1v12.7
		v245.3C1839.6,2727.5,1841.5,2729.4,1843.7,2729.4z" class="color000000 svgShape"/><path fill="#1c1c1c" d="M1773.4,2664.3c2.3,0,4.1-1.8,4.1-4.1v-66.7c0-0.7-0.2-1.3-0.5-1.9c-0.7-1.3-2.1-2.3-3.7-2.3c-2.3,0-4.1,1.8-4.1,4.1v12.1
		v54.6C1769.3,2662.5,1771.1,2664.3,1773.4,2664.3z" class="color000000 svgShape"/><path fill="#1c1c1c" d="M2358.7,1014.6v-4.1V888.4c0-2.3-1.8-4.1-4.1-4.1c-2.3,0-4.1,1.8-4.1,4.1v122.1v4.1c0,2.3,1.8,4.1,4.1,4.1c0,0,0,0,0,0
		c0,0,0,0,0,0C2356.9,1018.7,2358.7,1016.9,2358.7,1014.6z" class="color000000 svgShape"/><path fill="#1c1c1c" d="M2439.8,1014.6v-4.1v-59c0-2.3-1.8-4.1-4.1-4.1c-2.3,0-4.1,1.8-4.1,4.1v59v4.1c0,2.3,1.8,4.1,4.1,4.1c0,0,0,0,0,0
		c0,0,0,0,0,0C2438,1018.7,2439.8,1016.9,2439.8,1014.6z" class="color000000 svgShape"/><path fill="#1c1c1c" d="M2413.4,1801.3c1.3,1.8,3.9,2.2,5.8,0.9l42.7-31.2c1.8-1.3,2.2-3.9,0.9-5.8c-1.3-1.8-3.9-2.2-5.8-0.9l-42.7,31.2
		C2412.5,1796.9,2412.1,1799.5,2413.4,1801.3z" class="color000000 svgShape"/><path fill="#1c1c1c" d="M2280.3,1992.3c2.1,1,4.5,0.1,5.5-2l24.8-53.3c1-2.1,0.1-4.5-2-5.5c-2.1-1-4.5-0.1-5.5,2l-24.8,53.3
		C2277.4,1988.8,2278.3,1991.3,2280.3,1992.3z" class="color000000 svgShape"/><path fill="#1c1c1c" d="M2457.9,1938.1l-43.9-32.3c-1.8-1.4-4.4-1-5.8,0.9c-1.4,1.8-1,4.4,0.9,5.8l43.9,32.3c1.8,1.4,4.4,1,5.8-0.9
		C2460.1,1942,2459.7,1939.5,2457.9,1938.1z" class="color000000 svgShape"/><path fill="#1c1c1c" d="M2234.2,1743.7c-1.6-1.6-4.2-1.7-5.8-0.1c-1.6,1.6-1.7,4.2-0.1,5.8l35.1,36.7c1.6,1.6,4.2,1.7,5.8,0.1
		c1.6-1.6,1.7-4.2,0.1-5.8L2234.2,1743.7z" class="color000000 svgShape"/><path fill="#fff" d="M359.3,3129.3c1.5-0.6,3-1.2,4.6-1.9c161.2-65.3,287.8-170,387.1-290.4c150.3-182.3,237.8-400.5,287.9-573.1
		c50.1-172.6,62.6-299.7,62.6-299.9c0.2-2.3-1.4-4.3-3.7-4.5c-2.3-0.2-4.3,1.4-4.5,3.7l0,0c0,0-0.1,0.9-0.3,2.6
		c-2.9,26.3-30.1,252.9-135.2,504.1c-52.5,125.6-124.5,257.3-222.6,373.2c-97.4,115.1-220.4,214.6-375.6,277.2
		c-1.1,0.4-2.2,0.9-3.3,1.3c-2.1,0.8-3.1,3.2-2.3,5.4c0.1,0.2,0.2,0.5,0.4,0.7c0,0,0,0.1,0.1,0.1
		C355.4,3129.4,357.5,3130.1,359.3,3129.3z" class="colorffffff svgShape"/><path fill="#1c1c1c" d="M398.1,3236.9c-0.9-1.4-1.5-2.5-1.9-3.3c-0.2-0.4-0.3-0.7-0.4-0.9l-0.1-0.2l0,0l0,0c-0.9-2.1-3.3-3.1-5.4-2.2
		c-2.1,0.9-3.1,3.3-2.3,5.4h0c0.2,0.4,3.7,8.9,13.2,17.6c9.3,8.5,24.4,17.1,47,18.4c0.7,0,1.3,0.1,2,0.1c2.3,0.1,4.2-1.7,4.3-4
		c0.1-2.3-1.7-4.2-4-4.3c-3-0.1-5.8-0.4-8.4-0.7c-16.9-2.3-28-9.1-35.3-15.6C402.7,3243.4,399.9,3239.6,398.1,3236.9z" class="color000000 svgShape"/><path fill="#1c1c1c" d="M2227,1893c-0.1,0-5.1-2.2-12-4.4c-3.9-1.2-8.5-2.5-13.2-3.3c0,0,0.1,0,0.1,0.1l0.2,0.1c2.1,0.9,3.1,3.3,2.3,5.4
		c-0.9,2.1-3.3,3.1-5.4,2.3c-0.1,0-2.4-1-5.7-2.6c-3-1.4-6.7-3.3-10.2-5.5c-1.4,0.3-2.8,0.7-4.1,1.3c-3.6,1.6-6.9,4.5-8.6,8.6
		c-0.9,2.2-1.4,4.4-1.4,6.6c0,1,0.1,2,0.3,3c0.2,0,0.5,0,0.7,0c3.5,0,5.8,0.2,5.9,0.2l0,0c2.3,0.2,3.9,2.2,3.7,4.5
		c-0.2,2.3-2.2,3.9-4.5,3.7l-0.1,0l-0.3,0c-0.2,0-0.6,0-1-0.1c-0.1,0-0.2,0-0.4,0c1.8,2.1,3.8,4,6.1,5.7c5.3,3.9,11.4,6.7,16.3,8.7
		c3.4,1.3,6.1,2.2,7.5,2.7c0.6,0.2,1,0.3,1,0.3c2.2,0.6,4.5-0.7,5.1-2.9c0.5-1.9-0.4-3.9-2.1-4.8c-0.3-0.1-0.5-0.2-0.8-0.3l-0.1,0
		c-0.8-0.2-8.7-2.6-16-6.5c-3.7-2-7.2-4.4-9.6-6.9c-1.2-1.3-2.1-2.5-2.7-3.7c-0.6-1.2-0.9-2.4-0.9-3.6c0-1,0.2-2.1,0.7-3.4
		c0.9-2.1,2.2-3.3,4.4-4.3c2.1-1,5.1-1.5,8.5-1.4c6.9,0,15.2,2,21.8,4.1c3.3,1,6.1,2.1,8.1,2.8c1,0.4,1.8,0.7,2.3,0.9
		c0.3,0.1,0.5,0.2,0.6,0.3l0.2,0.1c0.2,0.1,0.4,0.2,0.7,0.2c1.9,0.5,3.9-0.5,4.8-2.3c0.8-1.8,0.2-3.8-1.3-4.9
		C2227.6,1893.3,2227.3,1893.1,2227,1893L2227,1893z" class="color000000 svgShape"/><polygon fill="#1c1c1c" points="2172.9 1874.7 2172.9 1874.7 2172.9 1874.7" class="color000000 svgShape"/><path fill="#1c1c1c" d="M2199,1893c2.1,0.9,4.5-0.1,5.4-2.3c0.9-2.1-0.1-4.5-2.3-5.4l-0.2-0.1c0,0-0.1,0-0.1-0.1c-1.3-0.5-6.4-2.7-11.3-5.5
		c-2.5-1.4-5-3-6.8-4.4c-0.9-0.7-1.6-1.4-2.1-2c-0.5-0.6-0.6-1-0.6-1l0,0c-0.1-0.3-0.1-0.6-0.1-0.9c0-0.6,0.2-1.2,0.7-2
		c0.7-1.2,2-2.4,3.2-3.3c0.4-0.3,0.7-0.5,1.1-0.7c0.2-0.1,0.3-0.2,0.4-0.3l0.4-0.2l0.1,0v0c2-1,2.9-3.5,1.8-5.5
		c-1-2-3.5-2.9-5.5-1.8l0,0c-0.2,0.1-2.5,1.2-4.9,3.4c-1,0.9-2,2-3,3.3c-0.2,0.3-0.4,0.5-0.6,0.8c-1.1,1.7-1.9,3.9-1.9,6.3
		c0,1,0.2,2.1,0.5,3.2c0.5,1.7,1.4,3,2.4,4.2c1.8,2,4.1,3.8,6.6,5.4c0.3,0.2,0.7,0.4,1.1,0.7c3.5,2.2,7.2,4.1,10.2,5.5
		C2196.5,1892,2198.9,1893,2199,1893z" class="color000000 svgShape"/><path fill="#1c1c1c" d="M2149.5,1928.8c-0.9-1.8-1.3-3.7-1.3-5.4c0-1.3,0.2-2.6,0.7-3.9c0.5-1.1,1.3-2.1,2.6-3c2-1.4,5.2-2.4,8.6-3
		c3.4-0.6,7-0.8,9.7-0.8c1.4,0,2.5,0,3.4,0.1c0.1,0,0.3,0,0.4,0c0.5,0,0.8,0,1,0.1l0.3,0l0.1,0c2.3,0.2,4.3-1.5,4.5-3.7
		c0.2-2.3-1.5-4.3-3.7-4.5l0,0c-0.1,0-2.5-0.2-5.9-0.2c-0.2,0-0.5,0-0.7,0c-4.1,0-9.4,0.4-14.5,1.8c-2.7,0.7-5.4,1.8-7.8,3.4
		c-2.4,1.6-4.5,3.8-5.7,6.8c-0.9,2.3-1.3,4.6-1.3,6.9c0,3.2,0.8,6.2,2.1,9c1.1,2.3,2.6,4.5,4.4,6.5c1.4,1.5,2.9,3,4.5,4.2
		c3.8,2.9,8.2,5.1,12.9,6.2c2.2,0.5,4.4-0.8,5-3.1c0.5-2.2-0.8-4.4-3.1-5c-0.1,0-0.1,0-0.2-0.1c-4.6-1.1-9.1-3.7-12.3-7
		C2151.7,1932.4,2150.4,1930.6,2149.5,1928.8z" class="color000000 svgShape"/><path fill="#1c1c1c" d="M1843.2,3257.9c-5.9,6.6-9.2,12.5-9.3,12.7c-1.1,2-0.4,4.5,1.6,5.6c2,1.1,4.5,0.4,5.6-1.6l0,0l0,0c0.3-0.5,3.4-6,8.7-11.7
		c5.1-5.6,12.2-11.4,20.3-13.7c0.3-0.1,0.5-0.2,0.8-0.3c2.2-0.6,3.5-2.8,3-5c-0.6-2.2-2.8-3.5-5-3c-4.5,1.2-8.6,3.1-12.3,5.4
		C1851.2,3249.7,1846.7,3254,1843.2,3257.9z" class="color000000 svgShape"/><path fill="#1c1c1c" d="M644.1,2327.1c-2.2,0.5-3.7,2.7-3.2,4.9l7.2,34.3c0.1,0.7,0.5,1.3,0.9,1.8c0.9,1.1,2.5,1.7,4,1.4c2.2-0.5,3.7-2.7,3.2-4.9
		l-0.1-0.3l-7.1-34C648.6,2328.1,646.4,2326.6,644.1,2327.1z" class="color000000 svgShape"/><path fill="#1c1c1c" d="M687,2327.1c-2.2,0.5-3.7,2.6-3.2,4.9l6.9,33.8c0,0,0,0.1,0,0.1c0.5,2.2,2.6,3.6,4.8,3.1c2.2-0.5,3.7-2.6,3.2-4.9l0-0.1
		l-6.8-33.7C691.4,2328.1,689.2,2326.6,687,2327.1z" class="color000000 svgShape"/><path fill="#1c1c1c" d="M721,2307.5c-2.2,0.5-3.7,2.6-3.2,4.9l9.6,47l0,0.1c0.5,2.2,2.6,3.7,4.9,3.2s3.7-2.6,3.2-4.9l0-0.1l-9.6-46.9
		C725.4,2308.5,723.2,2307,721,2307.5z" class="color000000 svgShape"/></svg>