<svg xmlns="http://www.w3.org/2000/svg" enable-background="new 0 0 4000 4000" viewBox="0 0 4000 4000"><path fill="none" d="M2148.1,1682.7c-16.7-12.4-32.8-24.8-47.8-36.9c-31.5,52.8-69.9,99.6-113.8,139.1c16.9-1.1,33.9-1.7,51-1.7
		c12.5,0,25,0.3,37.4,0.9c37.4-25.6,76.1-49.4,115.3-71.3C2175.8,1702.9,2161.7,1692.8,2148.1,1682.7z"/><polygon fill="none" points="3454.5 1515.5 3549.2 1553.3 3513 1450"/><path fill="none" d="M1368.3,2900.7l-72.7,438.8c165.9,53.6,233.8,120.8,249,137.8h146h89.7l-87.1-258.4
		C1555.2,3148.5,1441.5,3037.1,1368.3,2900.7z"/><path fill="none" d="M736.7,2439.9c-12.3-12.3-29.3-20-48.2-20c-18.8,0-35.8,7.6-48.2,20c-11.4,11.4-18.8,26.9-19.8,44.1h136
		C755.5,2466.8,748.2,2451.4,736.7,2439.9z"/><path fill="none" d="M959.2,2439.9c-12.3-12.3-29.3-20-48.2-20c-18.8,0-35.8,7.6-48.2,20c-11.4,11.4-18.8,26.9-19.8,44.1h136
		C978,2466.8,970.6,2451.4,959.2,2439.9z"/><path fill="none" d="M2018,3359.2c16.7-12.8,37.9-24,64.9-31.9c-10-4.2-20.9-7-31.3-6.9l-0.5,0c-2.2,0-4.1-1.7-4.1-4
		c0-2.2,1.7-4.1,4-4.1c0.2,0,0.5,0,0.7,0c12.9,0,25.9,3.6,37.6,9c2,0.9,3.9,1.9,5.8,2.9c5.3-1.3,10.8-2.4,16.5-3.5
		c2.8-4.1,4.7-6.7,4.7-6.7l0,0c1.3-1.8,3.9-2.2,5.7-0.8c1.8,1.3,2.2,3.9,0.8,5.7l-0.1,0.1c17-2.4,35.6-3.8,56.2-3.8
		c12.8,0,26.3,0.5,40.6,1.6c-10.3-9.2-21.2-20.1-31.1-30.5c-3.1,0.6-6.1,1.2-9.2,1.8c-12.8,3.4-25.7,6.5-38.6,9.7c-1-1-2-2-3.1-3
		c-32.7,4.3-66,6.6-99.9,6.6c-119.8,0-233.2-27.8-334-77.3l85.4,253.3h169.5c0.1-6.6,0.8-20,5.3-36.7
		C1970.3,3416.1,1985.1,3384.5,2018,3359.2z"/><path fill="none" d="M3252.7,1094.5h129.9c2.2,0,4.1,1.8,4.1,4.1c0,2.2-1.8,4.1-4.1,4.1h-116.3c52.2,33,93.4,81.7,117,139.6h86.1
		c26.6-26.6,42.1-42.1,68.7-68.7l0-410.6h-337.6v308.8C3218.8,1077.6,3236.2,1085.3,3252.7,1094.5z M3245.6,976.4
		c0-2.2,1.8-4.1,4.1-4.1h211.1c2.2,0,4.1,1.8,4.1,4.1c0,2.2-1.8,4.1-4.1,4.1h-211.1C3247.4,980.5,3245.6,978.7,3245.6,976.4z
		 M3245.6,896.6c0-2.2,1.8-4.1,4.1-4.1h122c2.2,0,4.1,1.8,4.1,4.1c0,2.2-1.8,4.1-4.1,4.1h-122
		C3247.4,900.6,3245.6,898.8,3245.6,896.6z M3500.1,1047.4h-157.6c-2.2,0-4.1-1.8-4.1-4.1c0-2.2,1.8-4.1,4.1-4.1h157.6
		c2.2,0,4.1,1.8,4.1,4.1C3504.2,1045.6,3502.4,1047.4,3500.1,1047.4z M3506.1,898.6c0,2.2-1.8,4.1-4.1,4.1h-82.8
		c-2.2,0-4.1-1.8-4.1-4.1c0-2.2,1.8-4.1,4.1-4.1h82.8C3504.3,894.6,3506.1,896.4,3506.1,898.6z M3342.5,817.1h157.6
		c2.2,0,4.1,1.8,4.1,4.1c0,2.2-1.8,4.1-4.1,4.1h-157.6c-2.2,0-4.1-1.8-4.1-4.1C3338.5,818.9,3340.3,817.1,3342.5,817.1z
		 M3242.8,817.1h46c2.2,0,4.1,1.8,4.1,4.1c0,2.2-1.8,4.1-4.1,4.1h-46c-2.2,0-4.1-1.8-4.1-4.1
		C3238.7,818.9,3240.5,817.1,3242.8,817.1z"/><path fill="none" d="M3307.5,3449.2C3307.5,3449.2,3307.5,3449.2,3307.5,3449.2c0.4-23.3,5-56,23.6-88.7
		c7.3-12.9,16.9-25.8,29.1-38c0.1-0.5,0.1-1,0.2-1.6c0.3-2.2,2.3-3.8,4.6-3.5c0.1,0,0.2,0.1,0.4,0.1c11.8-10.9,25.9-21.3,42.7-30.6
		c-223-151.8-461.2-335-613.7-536.7c0,0,0,0,0,0c-0.1-0.2-0.3-0.4-0.4-0.6c-4.4-5.8-8.6-11.6-12.9-17.4c-0.7-1-1.4-1.9-2.1-2.9
		c-0.1-0.1-0.2-0.3-0.3-0.4c-1.3-1.8-2.6-3.6-3.9-5.4c-53.3,217.3-200,397.8-395.3,496.5l167.8,219.2c0,0.1,0.1,0.1,0.1,0.2
		c0.1,0.1,0.2,0.3,0.2,0.4c0.1,0.3,0.2,0.5,0.3,0.8c0,0.1,0.1,0.2,0.1,0.2l7.7,36.4h753.5c-0.8-5.2-1.7-13.9-1.7-25.1
		C3307.5,3451.2,3307.5,3450.2,3307.5,3449.2z M2768.2,3010.7l-88.6,100.4c-1.5,1.7-4,1.8-5.7,0.4c-1.7-1.5-1.8-4-0.4-5.7
		l88.6-100.4c1.5-1.7,4-1.8,5.7-0.4C2769.5,3006.5,2769.6,3009.1,2768.2,3010.7z M2880.6,3060.8l-25.1,32.5
		c-1.4,1.8-3.9,2.1-5.7,0.7c-1.8-1.4-2.1-3.9-0.7-5.7l25.1-32.5c1.4-1.8,3.9-2.1,5.7-0.7C2881.6,3056.4,2882,3059,2880.6,3060.8z"/><path fill="none" d="M1181.6,2439.9c-12.3-12.3-29.3-19.9-48.2-20c-18.8,0-35.8,7.6-48.2,20c-11.4,11.4-18.8,26.9-19.8,44.1h136
		C1200.4,2466.8,1193.1,2451.4,1181.6,2439.9z"/><path fill="#fff" d="M3108.7,1905.2c-10.9,7.5-21.9,18.7-31.6,30.8c-9.8,12.2-18.3,25.3-24.7,36.9c-5.3,9.7-13.6,17.3-22,23.8
		c-8.4,6.5-17.2,12-23.7,17.1c-4.3,3.4-7.6,6.6-9.1,9.5c-0.9,1.6-1.3,3-1.3,4.5c0,1.3,0.3,2.7,1.2,4.4c1.3,2.5,3.5,4.4,6.6,5.8
		c3.2,1.4,7.3,2.2,11.9,2.1c10.1,0,22.7-3.6,33.5-10.6c10.8-7,19.7-17.1,23.4-29.9c0.6-2,2.6-3.3,4.7-2.9s3.5,2.4,3.2,4.5
		c-2.4,17.5-11.5,32-22.5,44.1c-11.1,12.1-24.2,22-35.3,30.4c-7.4,5.6-13.8,10.6-18,14.8c-2.4,2.4-4,4.6-4.7,6.3
		c-0.4,0.9-0.5,1.6-0.5,2.2c0,0.4,0.1,0.8,0.2,1.2c0.9,2.3,2.1,3.7,4.2,4.8c2,1.1,4.9,1.7,8.4,1.7c7.4,0,17.2-2.8,26.5-7.4
		c3.9-1.9,7.8-4.2,11.3-6.7c4-3.7,7.5-6.8,9.8-8.8c0,0,0,0,0,0c0.9-0.8,2.5-2.7,4.2-5.1c1.7-2.4,3.5-5.3,5.2-8.2
		c3.5-5.8,6.6-11.6,7.8-13.9c0.3-0.6,0.5-1,0.5-1v0c1-2,3.5-2.8,5.5-1.7c2,1,2.8,3.5,1.7,5.5c0,0-2.4,4.6-5.6,10.3
		c-2.9,5.1-6.4,11-9.7,15.4c-0.1,0.7-0.4,1.4-0.9,2c-3.7,4.3-8.3,8.3-13.4,11.9c-4.8,4.6-10.2,10.1-14.6,15.7
		c-3.7,4.6-6.7,9.3-8.3,13.4c-0.9,2.3-1.4,4.4-1.4,6c0,1.5,0.3,2.6,1,3.7c0.8,1.3,1.6,2,2.6,2.5c0.9,0.5,2.1,0.8,3.6,0.8
		c3.3,0,8.1-1.6,13.1-4.3c5.1-2.7,10.4-6.4,15.3-10.2c7.8-6.1,14.4-12.3,17.2-15.1c-0.2-1.2,0.1-2.4,1-3.3l0.1-0.1l0.4-0.4
		c0.3-0.4,0.8-0.9,1.4-1.6c1.2-1.4,2.9-3.3,4.8-5.7c3.8-4.8,8.7-11.3,12.5-17.9c2.5-4.4,4.6-8.9,5.7-12.9c0.6-2.2,2.8-3.4,5-2.8
		c2.2,0.6,3.4,2.8,2.8,5c-1.4,5-3.7,10-6.5,14.8c-2.8,4.8-5.9,9.4-8.9,13.4c-4.2,5.7-8.1,10.1-10,12.3c0.2,1.1,0,2.2-0.7,3.2
		l-0.1,0.2c-0.1,0.1-0.2,0.3-0.4,0.6c-0.4,0.5-0.9,1.2-1.6,2.1c-1.4,1.8-3.2,4.5-5.3,7.6c-4.2,6.2-9.2,14.3-12.4,21.6
		c-2.2,4.9-3.5,9.4-3.4,12.4c0,1,0.1,1.8,0.3,2.3c0.2,0.6,0.4,0.9,0.7,1.2c2.1,2.1,4.1,3.5,5.9,4.4c1.8,0.9,3.3,1.2,4.8,1.2
		c2.2,0,4.4-0.7,7.1-2.5c2.6-1.7,5.5-4.4,8.5-8c6.1-7.1,12.7-17.6,20.3-29.9c0,0,0,0,0.1-0.1c0-0.1,0.1-0.1,0.1-0.2
		c0,0,0.2-0.2,0.5-0.7s0.8-1.1,1.4-1.9c1.2-1.6,2.8-3.9,4.6-6.6c3.7-5.4,8.2-12.4,11.6-18.6c2.3-4.1,4-8,4.6-10.4
		c0.6-2.2,2.8-3.4,5-2.9c2.2,0.6,3.4,2.8,2.9,5c-1,3.6-3,7.8-5.4,12.2c-2.4,4.4-5.3,9-8,13.3c-4.7,7.2-9,13.2-10.2,14.9
		c-0.1,0.3-0.3,0.8-0.5,1.3c-0.4,1.2-0.9,2.9-1.4,5c-1.1,4.1-2.1,9.5-2.1,14.6c0,3,0.4,5.8,1.2,8.2c0.8,2.4,2,4.2,3.7,5.5
		c1.2,0.9,2.6,1.6,4.5,2.1l0.5,0.1c0.4,0,1.1-0.1,2.1-0.7c1-0.6,2.3-1.6,3.7-3.1c2.9-3.1,6.6-8.1,10.8-15.3
		c8.6-14.3,19.9-36.7,35.5-68.5c17.9-36.6,24-61,26.2-87.6c0.8-9.7,1.1-19.7,1.2-30.7c-33-18.5-64.2-40.6-95.4-62.3
		C3111.8,1902.8,3110.3,1904.1,3108.7,1905.2z" class="colorffffff svgShape"/><path fill="#1c1c1c" d="M3208.4,1963.8c-0.1,11-0.4,21-1.2,30.7c-2.2,26.6-8.3,51-26.2,87.6c-15.6,31.9-26.9,54.3-35.5,68.5
		c-4.3,7.1-7.9,12.2-10.8,15.3c-1.5,1.5-2.7,2.6-3.7,3.1c-1,0.6-1.6,0.7-2.1,0.7l-0.5-0.1c-1.9-0.5-3.4-1.2-4.5-2.1
		c-1.7-1.4-2.9-3.2-3.7-5.5c-0.8-2.3-1.2-5.2-1.2-8.2c0-5.1,1-10.5,2.1-14.6c0.5-2.1,1.1-3.8,1.4-5c0.2-0.6,0.3-1,0.5-1.3
		c-0.2,0.3-0.3,0.5-0.3,0.5l0,0c-1.3,1.8-3.9,2.2-5.7,0.9c-1.7-1.3-2.1-3.7-1-5.5c0,0,0,0-0.1,0.1c-7.6,12.3-14.2,22.8-20.3,29.9
		c-3,3.6-5.9,6.3-8.5,8c-2.6,1.7-4.9,2.5-7.1,2.5c-1.5,0-3-0.4-4.8-1.2c-1.8-0.9-3.7-2.3-5.9-4.4c-0.3-0.3-0.5-0.7-0.7-1.2
		c-0.2-0.6-0.3-1.3-0.3-2.3c0-2.9,1.3-7.5,3.4-12.4c3.2-7.3,8.2-15.4,12.4-21.6c2.1-3.1,4-5.7,5.3-7.6c0.7-0.9,1.2-1.6,1.6-2.1
		c0.2-0.2,0.3-0.4,0.4-0.6l0.1-0.2c0.7-0.9,0.9-2.1,0.7-3.2c-0.8,0.9-1.3,1.5-1.3,1.5l0,0c-1.5,1.6-4.1,1.7-5.7,0.2
		c-0.7-0.7-1.1-1.5-1.2-2.4c-2.8,2.7-9.4,9-17.2,15.1c-4.9,3.8-10.2,7.5-15.3,10.2c-5,2.7-9.8,4.3-13.1,4.3c-1.5,0-2.6-0.3-3.6-0.8
		c-0.9-0.5-1.8-1.2-2.6-2.5c-0.6-1.1-1-2.2-1-3.7c0-1.7,0.4-3.7,1.4-6c1.6-4.1,4.6-8.8,8.3-13.4c4.5-5.6,9.8-11.2,14.6-15.7
		c5.1-3.6,9.7-7.6,13.4-11.9c0.5-0.6,0.7-1.3,0.9-2c-0.4,0.5-0.7,1-1.1,1.4c-1,1.3-2,2.4-3.1,3.4c-1.7,1.5-4.2,1.3-5.7-0.4
		c-1.5-1.7-1.3-4.2,0.4-5.7c-2.4,2-5.9,5.1-9.8,8.8c-3.6,2.5-7.4,4.7-11.3,6.7c-9.3,4.6-19.1,7.4-26.5,7.4c-3.5,0-6.4-0.6-8.4-1.7
		c-2-1.1-3.3-2.5-4.2-4.8c-0.2-0.4-0.2-0.8-0.2-1.2c0-0.6,0.1-1.3,0.5-2.2c0.7-1.7,2.3-3.8,4.7-6.3c4.2-4.3,10.6-9.2,18-14.8
		c11.1-8.4,24.2-18.3,35.3-30.4c11.1-12.1,20.1-26.6,22.5-44.1c0.3-2.1-1.1-4.1-3.2-4.5s-4.1,0.8-4.7,2.9
		c-3.6,12.8-12.6,22.9-23.4,29.9c-10.8,7-23.4,10.6-33.5,10.6c-4.7,0-8.8-0.8-11.9-2.1c-3.2-1.4-5.3-3.3-6.6-5.8
		c-0.9-1.7-1.2-3.1-1.2-4.4c0-1.4,0.4-2.8,1.3-4.5c1.6-2.8,4.8-6.1,9.1-9.5c6.5-5.1,15.2-10.6,23.7-17.1c8.4-6.5,16.7-14.1,22-23.8
		c6.3-11.6,14.9-24.7,24.7-36.9c9.7-12.2,20.7-23.3,31.6-30.8c1.6-1.1,3.1-2.4,4.4-3.7c-2.3-1.6-4.5-3.2-6.8-4.7
		c-0.7,0.6-1.4,1.2-2.2,1.8c-11.9,8.2-23.2,19.9-33.3,32.4c-10.1,12.6-18.9,26.1-25.5,38.1c-3.4,6.2-8.5,11.7-14.3,16.7
		c-8.7,7.5-18.9,13.9-27.3,20.2c-4.2,3.2-7.9,6.3-10.7,9.8c-1.4,1.8-2.6,3.6-3.5,5.6c-0.9,2-1.4,4.2-1.4,6.5c0,2.7,0.7,5.5,2.1,8.2
		c2.3,4.4,6.1,7.5,10.6,9.4c4.5,2,9.6,2.8,15.2,2.8c12,0,25.8-4.1,37.9-11.9c1.2-0.7,2.3-1.6,3.4-2.4
		c-11.4,14.4-27.1,26.2-40.3,36.2c-6.7,5.1-12.7,9.7-17.3,14.2c-2.3,2.3-4.2,4.5-5.6,6.9c-1.4,2.4-2.4,5-2.4,7.8
		c0,1.3,0.2,2.7,0.7,4c1.5,4.2,4.4,7.4,8,9.2c3.6,1.9,7.8,2.6,12.2,2.6c6.7,0,14.1-1.7,21.5-4.5c-1.5,1.9-3,3.9-4.2,5.8
		c-1.9,2.9-3.6,5.9-4.8,8.9c-1.2,3-1.9,6-2,9.1c0,2.7,0.7,5.5,2.2,7.9c1.5,2.4,3.4,4.3,5.7,5.5c2.3,1.2,4.8,1.7,7.3,1.7
		c5.8,0,11.6-2.4,17.5-5.5c4.4-2.4,8.8-5.3,12.9-8.4c-1.6,2.9-3.2,5.9-4.5,8.9c-2.4,5.4-4.1,10.7-4.1,15.6c0,1.7,0.2,3.3,0.8,4.9
		c0.5,1.6,1.4,3.1,2.7,4.4c2.6,2.6,5.2,4.6,8,5.9c2.7,1.4,5.6,2.1,8.4,2.1c4.1,0,8-1.5,11.5-3.8c5.3-3.5,10.2-9,15.3-15.9
		c1.4-1.9,2.8-3.9,4.2-6c0,0.7-0.1,1.5-0.1,2.2c0,4.8,0.7,9.8,3.1,14.2c1.2,2.2,2.8,4.2,4.9,5.9c2.1,1.7,4.7,2.9,7.6,3.6
		c0.8,0.2,1.6,0.3,2.5,0.3c2.2,0,4.3-0.7,6.1-1.8c3.3-2,6.3-5.1,9.7-9.6c5-6.7,10.7-16.4,17.8-29.7c7.1-13.3,15.5-30.2,25.7-51.1
		c18.2-37.1,24.7-63,27-90.4c0.7-8.7,1-17.5,1.2-26.9C3213.8,1966.8,3211.1,1965.3,3208.4,1963.8z" class="color000000 svgShape"/><linearGradient id="a" x1="836.133" x2="838.834" y1="1210.095" y2="1210.095" gradientTransform="matrix(0 -108.2783 -108.2783 0 131228.234 94116.36)" gradientUnits="userSpaceOnUse"><stop class="stopColorfbd027 svgShape" offset="0" stop-color="#8aa2ff"/><stop class="stopColorfcefbc svgShape" offset="1" stop-color="#8b93e1"/></linearGradient><path fill="url(#a)" d="M239.9,3480.2l40.4-139C135.4,3402.9,122,3481.4,122,3481.4h117.8C239.8,3481,239.8,3480.6,239.9,3480.2z"/><linearGradient id="b" x1="836.133" x2="838.834" y1="1198.944" y2="1198.944" gradientTransform="matrix(0 -108.2783 -108.2783 0 131228.234 94116.36)" gradientUnits="userSpaceOnUse"><stop class="stopColorfbd027 svgShape" offset="0" stop-color="#8aa2ff"/><stop class="stopColorfcefbc svgShape" offset="1" stop-color="#8b93e1"/></linearGradient><path fill="url(#b)" d="M1295.6,3339.5l-22.8,137.8h271.8C1529.4,3460.3,1461.5,3393.2,1295.6,3339.5z"/><linearGradient id="c" x1="840.082" x2="842.783" y1="1210.828" y2="1210.828" gradientTransform="matrix(0 -211.7327 -211.7327 0 257568.953 179119.14)" gradientUnits="userSpaceOnUse"><stop class="stopColorfbd027 svgShape" offset="0" stop-color="#8aa2ff"/><stop class="stopColorfcefbc svgShape" offset="1" stop-color="#8b93e1"/></linearGradient><path fill="url(#c)" d="M1471.1,887.8c-18.5,25.5-45.1,48.2-77.9,67.3c-65.5,38.1-155.5,61.5-254.9,61.5
		c-74.5,0-143.8-13.2-201.4-35.8c-28.7-11.3-54.6-25-76.7-40.6c60,65.9,179.1,110.8,316.1,110.8c197.5,0,357.6-93.2,357.6-208.2
		c0-41.2-20.6-79.7-56.2-112c14.3,22.8,22.2,47.6,22.2,73.6C1500,834.1,1489.6,862.3,1471.1,887.8z"/><linearGradient id="d" x1="835.629" x2="838.33" y1="1209.45" y2="1209.45" gradientTransform="matrix(0 -302.627 -302.627 0 369175 254814.89)" gradientUnits="userSpaceOnUse"><stop class="stopColorfbd027 svgShape" offset="0" stop-color="#8aa2ff"/><stop class="stopColorfcefbc svgShape" offset="1" stop-color="#8b93e1"/></linearGradient><path fill="url(#d)" d="M3303.2,1578.6c62.5-54.5,102-134.8,102-224.3c0-36.6-6.6-71.7-18.7-104.1h-190c-1.1,0-2.1-0.4-2.9-1.2
		c-0.8-0.8-1.2-1.8-1.2-2.9v-177.1c-26.9-8-55.3-12.3-84.8-12.3c-71.1,0-136.3,24.9-187.5,66.5c78.5,27.2,148.3,67.7,206.5,120.3
		C3218.8,1326.8,3281.5,1440.1,3303.2,1578.6z"/><linearGradient id="e" x1="835.629" x2="838.33" y1="1210.117" y2="1210.117" gradientTransform="matrix(0 -302.627 -302.627 0 369175 254814.89)" gradientUnits="userSpaceOnUse"><stop class="stopColorfbd027 svgShape" offset="0" stop-color="#8aa2ff"/><stop class="stopColorfcefbc svgShape" offset="1" stop-color="#8b93e1"/></linearGradient><path fill="url(#e)" d="M2989.3,1387.7c-47.1-41.8-106-71.8-173.8-89c-3.4,18-5.2,36.6-5.2,55.6c0,164.3,133.2,297.5,297.5,297.5
		c1.4,0,2.8,0,4.3-0.1C3103.8,1539,3059.6,1450.2,2989.3,1387.7z"/><linearGradient id="f" x1="835.629" x2="838.33" y1="1209.023" y2="1209.023" gradientTransform="matrix(0 -302.627 -302.627 0 369175 254814.89)" gradientUnits="userSpaceOnUse"><stop class="stopColorfbd027 svgShape" offset="0" stop-color="#8aa2ff"/><stop class="stopColorfcefbc svgShape" offset="1" stop-color="#8b93e1"/></linearGradient><path fill="url(#f)" d="M3266.3,1102.6h-23.6c-2.2,0-4.1-1.8-4.1-4.1c0-2.2,1.8-4.1,4.1-4.1h10c-16.5-9.2-33.9-16.9-52.1-22.9v170.5
		h182.8C3359.8,1184.3,3318.6,1135.6,3266.3,1102.6z"/><linearGradient id="g" x1="830.507" x2="833.209" y1="1217.235" y2="1217.235" gradientTransform="scale(772.0884 -772.0884) rotate(90 1027.577 191.871)" gradientUnits="userSpaceOnUse"><stop class="stopColorfbd027 svgShape" offset="0" stop-color="#8aa2ff"/><stop class="stopColorfcefbc svgShape" offset="1" stop-color="#8b93e1"/></linearGradient><path fill="url(#g)" d="M1432.5,2484h18.8c1.7,0,3.3,1.1,3.8,2.8l248.4,737.2c100.8,49.5,214.1,77.3,334,77.3
		c33.9,0,67.2-2.3,99.9-6.6c-264.3-258.2-493.4-632.3-438.6-995.7c36.7-216.4,190.7-388.1,376-515c-12.4-0.6-24.8-0.9-37.4-0.9
		c-17.2,0-34.2,0.6-51,1.7c-59.8,53.8-129.8,94.3-206,118.6c-57.1,20.5-120.8,31.9-184.2,31.9c-4.8,0-9.6-0.1-14.5-0.2
		c-169.7,127.6-284.1,324.6-301.1,548.9H1404H1432.5z"/><linearGradient id="h" x1="830.507" x2="833.209" y1="1216.38" y2="1216.38" gradientTransform="scale(772.0884 -772.0884) rotate(90 1027.577 191.871)" gradientUnits="userSpaceOnUse"><stop class="stopColorfbd027 svgShape" offset="0" stop-color="#8aa2ff"/><stop class="stopColorfcefbc svgShape" offset="1" stop-color="#8b93e1"/></linearGradient><path fill="url(#h)" d="M1962.8,2407.7c13,290.6,215,563.6,432.9,752.6c-7.9,11.2-16.6,22-26.1,32.4c-2.1,2.1-4.2,4.1-6.3,6.1
		l16.2,21.2c195.2-98.7,342-279.2,395.3-496.5c-200.6-277.3-303.6-579-349.4-745.7c-99.5,28.6-217,45.5-217.9,45.6
		C2072.3,2119.5,1966.7,2246.1,1962.8,2407.7z"/><linearGradient id="i" x1="830.507" x2="833.209" y1="1216.62" y2="1216.62" gradientTransform="scale(772.0884 -772.0884) rotate(90 1027.577 191.871)" gradientUnits="userSpaceOnUse"><stop class="stopColorfbd027 svgShape" offset="0" stop-color="#8aa2ff"/><stop class="stopColorfcefbc svgShape" offset="1" stop-color="#8b93e1"/></linearGradient><path fill="url(#i)" d="M2179.1,3288c3.1-0.6,6.2-1.2,9.2-1.8c-0.2-0.2-0.4-0.4-0.5-0.6C2184.9,3286.5,2182,3287.3,2179.1,3288z"/><linearGradient id="j" x1="830.507" x2="833.209" y1="1217.466" y2="1217.466" gradientTransform="scale(772.0884 -772.0884) rotate(90 1027.577 191.871)" gradientUnits="userSpaceOnUse"><stop class="stopColorfbd027 svgShape" offset="0" stop-color="#8aa2ff"/><stop class="stopColorfcefbc svgShape" offset="1" stop-color="#8b93e1"/></linearGradient><path fill="url(#j)" d="M1693.3,3218.9l-244.9-726.7H1436l-67.7,408.5C1441.5,3037.1,1555.2,3148.5,1693.3,3218.9z"/><path fill="#1c1c1c" d="M3866.2,3453.3h-550.6c0.1,11.1,1.1,19.6,1.8,24h552.1c-0.1-1.1-0.2-2.4-0.4-3.8
		C3868.6,3468.6,3867.7,3461.7,3866.2,3453.3z" class="color000000 svgShape"/><path fill="#1c1c1c" d="M3872.7,3451.8c-0.8,0.9-1.9,1.5-3.1,1.5h-3.4c1.5,8.5,2.4,15.3,3,20.2c0.2,1.5,0.3,2.7,0.4,3.8h4.4c2.2,0,3.9,1.7,4,3.8
		c-0.1-2-0.9-14-4.4-32.7C3873.8,3449.7,3873.4,3450.9,3872.7,3451.8z" class="color000000 svgShape"/><path fill="#1c1c1c" d="M3873.9,3485.4h-561.4c0.5,0.2,1,0.3,1.5,0.3h559.9c1.1,0,2.2-0.4,2.9-1.3c0.8-0.8,1.2-1.9,1.1-3c0,0,0,0,0,0
		C3878,3483.6,3876.2,3485.4,3873.9,3485.4z" class="color000000 svgShape"/><path fill="#1c1c1c" d="M3311.6,3453.3c-1.1,0-2.1-0.4-2.9-1.2c-0.8-0.8-1.2-1.8-1.2-2.9c0,0,0,0,0,0s0,0,0,0c0,1,0,2.1,0,3
		c0,11.2,1,19.9,1.7,25.1h8.2c-0.7-4.4-1.7-12.9-1.8-24H3311.6z" class="color000000 svgShape"/><path fill="#fff" d="M3380.1,3380.4c2.2,1.3,4.3,1.9,6.4,1.9c3.7,0,7.6-1.9,10.7-5.7c3.1-3.8,5.3-9.7,5.3-17.3c0-0.6,0-1.3,0-1.9
		c-0.2-3.5-0.9-5.8-1.8-7.3c-0.9-1.5-1.9-2.2-3.4-2.7c-1-0.3-2.2-0.5-3.7-0.5c-4,0-9.6,1.6-15.6,4.3c-3.2,1.4-6.6,3.2-10,5.1
		c0.7,4.8,1.8,8.9,3.2,12.2C3373.6,3374.7,3376.9,3378.5,3380.1,3380.4z" class="colorffffff svgShape"/><path fill="#fff" d="M3367.9,3326.2c-0.7,5.8-1,11.2-1,16c0,1.8,0.1,3.5,0.1,5.2c2.1-1.1,4.1-2.2,6.2-3.1c7-3.2,13.9-5.5,20.2-5.5
		c3.3,0,6.5,0.7,9.3,2.4c2.8,1.7,5,4.5,6.2,8c0.8,2.3,1.3,4.9,1.4,7.9c0,0.8,0.1,1.6,0.1,2.3c0,9.1-2.7,16.8-7,22.3
		c-4.3,5.5-10.5,8.8-17,8.8c-3.6,0-7.3-1-10.7-3.1c-3.4-2.1-6.4-5.1-8.9-9.1c-2.9-4.6-5.1-10.4-6.5-17.5c-0.3,0.2-0.7,0.4-1,0.6
		c-11.9,7.6-22.1,15.7-24.2,17.5c-0.3,0.2-0.4,0.3-0.4,0.3l0,0c-1.2,1-2.9,1.2-4.3,0.5c-2.3,5.3-4.4,10.6-6.1,15.7
		c-6,18.4-8.2,35.6-8.8,49.8h548.9c-7-34.4-22.9-88.9-59.3-145.3c-47.8-73.9-89.6-97.4-104.6-103.9c-5.4,24.1-12.5,47.3-24.2,68.6
		c-30,60.1-96.8,83.4-163.1,92.7c-32-21-64.7-42.8-97.8-65.2c-7.8,4.1-14.9,8.5-21.5,13C3384.2,3311.7,3375.5,3318.9,3367.9,3326.2z
		" class="colorffffff svgShape"/><path fill="#fff" d="M3359.3,3351.9c-0.3-3-0.4-6.2-0.4-9.6c0-2.1,0.1-4.4,0.2-6.7c-9.3,10.4-16.7,21.2-22.5,31.9
		c2-1.6,4.4-3.3,7.2-5.3C3348.3,3358.9,3353.6,3355.3,3359.3,3351.9z" class="colorffffff svgShape"/><path fill="#1c1c1c" d="M3368.4,3322c-0.2,1.4-0.4,2.8-0.5,4.2c7.6-7.3,16.2-14.5,26.1-21.2c6.6-4.5,13.8-8.9,21.5-13c-2.5-1.7-5-3.4-7.5-5.1
		c-16.8,9.3-30.9,19.7-42.7,30.6C3367.4,3318,3368.7,3319.9,3368.4,3322z" class="color000000 svgShape"/><path fill="#1c1c1c" d="M3700.7,3196c15.1,6.5,56.9,30,104.6,103.9c36.4,56.3,52.4,110.8,59.3,145.3h-548.9c0.5-14.2,2.8-31.5,8.8-49.8
		c1.7-5.2,3.7-10.4,6.1-15.7c-0.5-0.2-1-0.6-1.4-1.1c-1.4-1.7-1.2-4.3,0.5-5.7c0,0,2.7-2.2,6.9-5.4c5.8-10.7,13.2-21.5,22.5-31.9
		c0.2-4.1,0.6-8.4,1.2-13c-12.2,12.2-21.8,25.1-29.1,38c-18.6,32.7-23.2,65.4-23.6,88.7c0,0,0,0,0,0c0,1.1,0.4,2.1,1.2,2.9
		c0.8,0.8,1.8,1.2,2.9,1.2h4h550.6h3.4c1.2,0,2.4-0.5,3.1-1.5s1.1-2.2,0.9-3.3c0,0,0,0,0,0c-6.6-34.8-22.6-92.8-61.4-153
		c-50-77.4-94.3-101.3-109.7-107.6C3701.8,3190.6,3701.3,3193.3,3700.7,3196z" class="color000000 svgShape"/><path fill="#fff" d="M2099.7,3360c-0.6,2.2-0.9,4.1-0.9,5.6c0,1.2,0.2,2,0.4,2.5c0.2,0.5,0.4,0.7,0.9,1c0.3,0.2,0.9,0.4,1.7,0.5
		c3.9,0.6,7.2,0.8,10,0.8c4.1,0,7-0.5,9-1.3c1.9-0.8,2.7-1.6,3.2-2.4c0.3-0.5,0.5-1.1,0.5-2c0-1.2-0.4-3-1.4-5.1
		c-1-2.1-2.5-4.4-4.5-6.9c-2.8-3.4-6.5-7-10.9-10.5c-0.9,1.6-1.8,3.2-2.6,4.8C2102.7,3351.6,2100.7,3356.1,2099.7,3360z" class="colorffffff svgShape"/><path fill="#fff" d="M2105.2,3330.3c0-0.1,0.1-0.1,0.1-0.2c-0.1,0-0.2,0-0.3,0.1C2105.1,3330.2,2105.2,3330.3,2105.2,3330.3z" class="colorffffff svgShape"/><path fill="#fff" d="M2357.2,3204.3c-46.6,41.2-102.5,62.7-160.6,78.9c12.4,12.8,26.1,26.2,37.6,35.4c1.4,1.1,1.9,3,1.2,4.7
		c-0.7,1.7-2.4,2.7-4.1,2.5c-18.8-1.8-36.3-2.6-52.5-2.6c-23.4,0-44.1,1.7-62.6,4.8c-1.4,2.1-2.9,4.5-4.5,7c2.5,2,4.9,4,7.1,6.1
		c5.1,4.9,9.1,9.9,11.5,14.9c1.3,2.8,2.2,5.7,2.2,8.5c0,2-0.4,4.1-1.4,5.9c-1,1.8-2.5,3.4-4.4,4.6c-3.7,2.3-8.6,3.3-14.9,3.3
		c-3.3,0-7-0.3-11.2-0.9c-1.5-0.2-3-0.7-4.3-1.4c-1.3-0.7-2.5-1.7-3.3-2.8c-1.8-2.3-2.3-5.1-2.3-7.8c0-2.5,0.5-5.1,1.2-7.7
		c0.7-2.7,1.8-5.4,3-8.2c1.8-4.1,4-8.3,6.2-12.3c-2.3-1.6-4.8-3.1-7.3-4.5c-30.3,7.7-53.4,19.4-70.9,32.9
		c-28.9,22.3-43,49.5-49.9,72c186.9,0,375.7,0,562.9,0L2357.2,3204.3z" class="colorffffff svgShape"/><path fill="#1c1c1c" d="M2547.6,3439.9c0.1,0.2,0.2,0.5,0.3,0.8C2547.8,3440.4,2547.7,3440.1,2547.6,3439.9z" class="color000000 svgShape"/><path fill="#1c1c1c" d="M2122.2,3319.4c-0.3,0.4-0.7,1-1.3,1.8c-1.1,1.5-2.6,3.8-4.4,6.4c-0.1,0.2-0.2,0.3-0.3,0.5c18.5-3.1,39.2-4.8,62.6-4.8
		c16.2,0,33.7,0.8,52.5,2.6c1.8,0.2,3.5-0.9,4.1-2.5c0.7-1.7,0.2-3.6-1.2-4.7c-11.5-9.2-25.2-22.6-37.6-35.4c-3,0.8-5.9,1.6-8.9,2.4
		c0.2,0.2,0.4,0.4,0.5,0.6c9.9,10.4,20.8,21.3,31.1,30.5c-14.3-1.1-27.8-1.6-40.6-1.6c-20.6,0-39.2,1.3-56.2,3.8l0,0L2122.2,3319.4z
		" class="color000000 svgShape"/><path fill="#1c1c1c" d="M2357.2,3204.3l178.6,233.4c2.7,0,5.5,0,8.2,0c1.4,0,2.6,0.7,3.3,1.8c0-0.1-0.1-0.1-0.1-0.2L2379.4,3220l-16.2-21.2
		C2361.2,3200.7,2359.2,3202.5,2357.2,3204.3z" class="color000000 svgShape"/><path fill="#1c1c1c" d="M2022.9,3365.7c17.5-13.5,40.5-25.2,70.9-32.9c-3.5-2-7.2-3.8-11-5.4c-27,7.9-48.2,19-64.9,31.9
		c-32.8,25.3-47.7,56.8-54.3,81.4c0.5-1.8,2.1-3,3.9-3c1.8,0,3.6,0,5.4,0C1979.9,3415.2,1994,3387.9,2022.9,3365.7z" class="color000000 svgShape"/><path fill="#1c1c1c" d="M2105,3330.2c0.1,0,0.2,0,0.3-0.1c2.2-3.6,4.3-6.8,6.1-9.4c-5.7,1-11.2,2.2-16.5,3.5C2098.4,3326,2101.8,3328,2105,3330.2z
		" class="color000000 svgShape"/><path fill="#1c1c1c" d="M1970.7,3445.8c-3.5,14.3-4.2,25.9-4.2,31.5h580.9l-6.6-31.5C2351.2,3445.8,2160,3445.8,1970.7,3445.8z" class="color000000 svgShape"/><path fill="#1c1c1c" d="M1962.5,3485.4h589.9c0,0,0,0,0,0L1962.5,3485.4C1962.5,3485.4,1962.5,3485.4,1962.5,3485.4z" class="color000000 svgShape"/><path fill="#1c1c1c" d="M2547.9,3440.6c-0.1-0.3-0.2-0.5-0.3-0.8c-0.1-0.1-0.1-0.3-0.2-0.4c-0.7-1.1-2-1.8-3.3-1.8c-2.7,0-5.5,0-8.2,0
		c-187.2,0-376,0-562.9,0c-1.8,0-3.6,0-5.4,0c-1.8,0-3.4,1.2-3.9,3c-4.5,16.6-5.2,30.1-5.3,36.7h8.1c0.1-5.7,0.7-17.2,4.2-31.5
		c189.3,0,380.5,0,570,0l6.6,31.5h8.3l-7.7-36.4C2548,3440.8,2547.9,3440.7,2547.9,3440.6z" class="color000000 svgShape"/><path fill="#fff" d="M1340,1253.9c0-13.7-2.4-25.4-8.4-34.5c-1-1.5-1.9-2.4-2.7-2.9c-0.8-0.5-1.4-0.7-2.2-0.7
		c-0.8,0-1.7,0.2-2.8,0.8c-1.1,0.6-2.5,1.6-3.9,3c-2.8,2.8-5.8,7.2-8.5,12.9c-5.5,11.4-10,27.9-11.3,47.2c-0.3,4.2-0.8,7.8-1.6,10.8
		c-0.8,3-1.8,5.5-3.2,7.6c-0.9,1.4-2.1,2.5-3.4,3.4c-1.8,1.2-3.8,1.8-5.8,1.8c-2.4,0-4.7-0.8-6.9-1.8c-2.2-1.1-4.2-2.6-6.3-4.3
		c-4.2-3.5-8.3-8.1-12.3-13.1c-8-10-15.3-21.6-19.5-28.8c-11.6-19.4-22.3-35-31.8-46.8c-9.5-11.8-18-19.7-24.8-24
		c-4.6-2.9-8.3-4.1-11-4c-1.3,0-2.4,0.3-3.5,0.7c-1,0.5-2,1.2-2.9,2.3c-1.7,1.9-3.2,5-4.3,9.3c5.3,6.2,24.7,28.9,39.3,48.6
		c5.7,7.7,10.7,14.9,13.9,20.6c1.1,2,0.4,4.4-1.6,5.5c-2,1.1-4.4,0.4-5.5-1.6c-2.5-4.5-6.5-10.5-11.2-16.9
		c-4.7-6.5-10.1-13.4-15.4-20.1c-10.7-13.4-21-25.6-25.1-30.3c-1.2-1.4-1.8-2.1-1.8-2.1l0,0c-0.2-0.3-0.4-0.6-0.6-0.8
		c0,0,0,0-0.1-0.1c-1.7-3.6-4.6-6.5-8.1-8.4c-3.5-2-7.6-3-11.2-3c-2.5,0-4.8,0.5-6.5,1.3c-1.7,0.8-2.9,2-3.6,3.4
		c-0.5,1-0.8,2.2-0.8,3.7c0,1.4,0.3,3,0.9,5l54.9,67.6c1.4,1.7,1.1,4.3-0.6,5.7c-1.7,1.4-4.3,1.1-5.7-0.6l-55-67.8
		c-4.4-3.1-8.8-5.5-12.8-7.1c-4.2-1.7-7.9-2.5-10.7-2.5c-1.9,0-3.3,0.4-4.1,0.9c-0.9,0.5-1.4,1.1-1.8,2.1c-0.3,0.7-0.5,1.7-0.5,3.1
		c0,2.2,0.6,5.4,2.1,9.3l52.8,61.8c1.5,1.7,1.3,4.3-0.5,5.7s-4.3,1.3-5.7-0.5l-52.8-61.9c-3.9-2.5-8-4.5-11.8-5.9
		c-4-1.5-7.8-2.2-10.6-2.2c-1.8,0-3.2,0.3-4,0.7c-0.9,0.4-1.2,0.8-1.5,1.4c-0.2,0.4-0.4,1.1-0.4,2.1c0,1.5,0.4,3.7,1.6,6.7
		c1.2,2.9,3.1,6.5,5.9,10.7l0.1,0.2l0.1,0.2c0.1,0.1,0.2,0.4,0.4,0.7c0.3,0.6,0.9,1.5,1.5,2.6c1.3,2.3,3.3,5.5,5.8,9.5
		c5.1,8.1,12.3,19.1,21.2,31.2c17.7,24.2,41.7,52.4,66.3,68.3l0.3,0.2c20.4,15.9,32.1,36.4,38.8,54.4l115.4,10.1
		c1.7-23.7,7.3-48.4,12.8-72.1C1333.5,1303.6,1340,1276.2,1340,1253.9z" class="colorffffff svgShape"/><path fill="#1c1c1c" d="M1198.6,1394.3c-6.8-18-18.5-38.4-38.8-54.4l-0.3-0.2c-24.6-15.9-48.7-44.1-66.3-68.3c-8.8-12.1-16.1-23.2-21.2-31.2
		c-2.5-4-4.5-7.3-5.8-9.5c-0.7-1.1-1.2-2-1.5-2.6c-0.2-0.3-0.3-0.5-0.4-0.7l-0.1-0.2l-0.1-0.2c-2.8-4.2-4.7-7.8-5.9-10.7
		c-1.2-2.9-1.6-5.2-1.6-6.7c0-1,0.2-1.6,0.4-2.1c0.3-0.6,0.7-1,1.5-1.4c0.8-0.4,2.2-0.7,4-0.7c2.8,0,6.6,0.7,10.6,2.2
		c3.9,1.4,8,3.4,11.8,5.9l-0.4-0.5c-1.5-1.7-1.3-4.3,0.5-5.7s4.3-1.3,5.7,0.5l0.5,0.6c-1.5-4-2.1-7.1-2.1-9.3c0-1.4,0.2-2.4,0.5-3.1
		c0.4-1.1,1-1.6,1.8-2.1c0.9-0.5,2.3-0.9,4.1-0.9c2.8,0,6.6,0.8,10.7,2.5c4,1.6,8.4,4.1,12.8,7.1l-0.4-0.5c-1.4-1.7-1.1-4.3,0.6-5.7
		c1.7-1.4,4.3-1.1,5.7,0.6l0.5,0.6c-0.6-2-0.9-3.6-0.9-5c0-1.6,0.3-2.7,0.8-3.7c0.7-1.4,1.9-2.5,3.6-3.4c1.7-0.8,4-1.3,6.5-1.3
		c3.6,0,7.7,1,11.2,3c3.5,2,6.4,4.8,8.1,8.4c0,0,0,0,0.1,0.1c-0.8-1.6-0.5-3.6,1-4.9c1.7-1.5,4.3-1.3,5.7,0.4c0,0,0.5,0.6,1.4,1.6
		c1.1-4.3,2.7-7.4,4.3-9.3c1-1.1,1.9-1.8,2.9-2.3c1-0.5,2.1-0.7,3.5-0.7c2.7,0,6.5,1.2,11,4c6.8,4.3,15.3,12.3,24.8,24
		c9.6,11.8,20.2,27.3,31.8,46.8c4.3,7.1,11.6,18.8,19.5,28.8c4,5,8.1,9.6,12.3,13.1c2.1,1.7,4.2,3.2,6.3,4.3
		c2.2,1.1,4.4,1.8,6.9,1.8c2,0,4.1-0.6,5.8-1.8c1.3-0.9,2.4-2.1,3.4-3.4c1.4-2.1,2.4-4.6,3.2-7.6c0.8-3,1.3-6.6,1.6-10.8
		c1.3-19.3,5.8-35.8,11.3-47.2c2.7-5.7,5.7-10.1,8.5-12.9c1.4-1.4,2.7-2.4,3.9-3c1.2-0.6,2.1-0.8,2.8-0.8c0.7,0,1.4,0.2,2.2,0.7
		c0.8,0.5,1.7,1.4,2.7,2.9c5.9,9.1,8.4,20.8,8.4,34.5c0,22.3-6.5,49.7-13.1,78.4c-5.5,23.8-11,48.4-12.8,72.1l8.1,0.7
		c1.7-22.9,7.1-47.3,12.6-71c6.6-28.6,13.3-56.4,13.3-80.2c0-14.6-2.6-28-9.7-38.9c-1.4-2.2-3.1-4-5.1-5.3c-2-1.3-4.3-2-6.5-2
		c-2.3,0-4.6,0.7-6.6,1.8c-3.6,1.9-6.8,5.1-9.8,9.2c-4.5,6.2-8.5,14.7-11.8,25c-3.2,10.3-5.5,22.3-6.5,35.6
		c-0.5,6.9-1.7,11.3-2.9,13.6c-0.6,1.1-1.2,1.7-1.6,2c-0.4,0.3-0.8,0.4-1.3,0.4c-0.7,0-1.8-0.2-3.2-1c-2.5-1.2-5.6-3.8-8.8-7.1
		c-4.9-5-10.1-11.8-14.6-18.4c-4.6-6.6-8.6-13.1-11.3-17.6c-15.6-26.3-29.7-45.7-42.1-58.7c-6.2-6.5-11.9-11.4-17.2-14.8
		c-5.4-3.4-10.4-5.3-15.3-5.3c-2.4,0-4.7,0.5-6.9,1.5c-3.2,1.5-5.8,4.1-7.8,7.3c-0.7,1.1-1.3,2.4-1.9,3.7c-1.9-1.9-4.1-3.6-6.4-4.9
		c-4.8-2.6-10-4-15.1-4c-4.7,0-9.3,1.2-12.9,3.9c-1.8,1.4-3.4,3.2-4.4,5.3c-0.9,1.8-1.4,3.9-1.6,6.1c-2.4-1.4-4.9-2.5-7.3-3.5
		c-4.9-2-9.5-3.1-13.8-3.1c-1.9,0-3.8,0.2-5.5,0.8c-2.6,0.8-5.1,2.4-6.7,4.8c-1.6,2.4-2.4,5.3-2.4,8.6c0,1.1,0.1,2.2,0.2,3.3
		c-1.8-0.8-3.6-1.6-5.4-2.3c-4.7-1.7-9.2-2.7-13.4-2.7c-3.5,0-6.9,0.7-9.6,2.8c-1.4,1-2.5,2.5-3.3,4.1c-0.7,1.6-1.1,3.5-1.1,5.4
		c0,3,0.8,6.1,2.2,9.7c1.4,3.5,3.6,7.5,6.5,12c0.5,0.9,11.9,20.9,29.5,45c17.9,24.5,42.2,53.2,68.3,70.2
		c17.5,13.7,28.2,31.1,34.8,47.1L1198.6,1394.3z" class="color000000 svgShape"/><path fill="#1c1c1c" d="M3878,3481.4C3878,3481.4,3878,3481.4,3878,3481.4c0-0.1,0-0.2,0-0.3c-0.1-2.1-1.9-3.8-4-3.8h-4.4h-552.1h-8.2h-753.5h-8.3
		h-580.9h-8.1h-169.5l0.9,2.8c0.4,1.2,0.2,2.6-0.5,3.7c-0.8,1.1-2,1.7-3.3,1.7h-95.4c0,0,0,0,0,0h271.9h589.9h760.2h561.4
		C3876.2,3485.4,3878,3483.6,3878,3481.4z" class="color000000 svgShape"/><path fill="#1c1c1c" d="M2179.1,3288c2.9-0.8,5.8-1.5,8.7-2.3c3-0.8,5.9-1.6,8.9-2.4c58.1-16.2,114-37.8,160.6-78.9c2-1.8,4-3.6,6-5.5
		c2.1-2,4.3-4,6.3-6.1c9.4-10.4,18.1-21.2,26.1-32.4c-217.9-189-419.9-462-432.9-752.6c3.9-161.6,109.6-288.2,244.6-384.2
		c0,0,0,0,0,0l191.1-147.3c0,0,0.6,0,1.7-0.1c-3.9-17.8-5.6-27.5-5.6-27.5l5.9-31.8c-32.3-7.2-66.6-20.8-101.2-38.3
		c-36.8-18.6-73.8-41.5-109-65.7c-39.2,21.9-77.9,45.7-115.3,71.3c-185.4,126.9-339.3,298.6-376,515
		c-54.8,363.4,174.3,737.4,438.6,995.7c1,1,2,2,3.1,3C2153.4,3294.6,2166.2,3291.4,2179.1,3288z" class="color000000 svgShape"/><path fill="#1c1c1c" d="M2778.6,2728.9c0.1,0.1,0.2,0.3,0.3,0.4C2778.8,2729.2,2778.7,2729.1,2778.6,2728.9z" class="color000000 svgShape"/><path fill="#1c1c1c" d="M2794.3,2750.2c152.5,201.7,390.7,384.9,613.7,536.7c2.5,1.7,5,3.4,7.5,5.1c33.1,22.4,65.8,44.2,97.8,65.2
		c66.3-9.3,133.1-32.6,163.1-92.7c11.7-21.2,18.9-44.5,24.2-68.6c0.6-2.7,1.2-5.4,1.7-8.1c2-9.6,3.7-19.4,5.4-29.1
		c-234.5-152.5-496.6-341.4-675.3-543.9c-116.3-143.8-174.6-358.9-202.9-563.1c0,0,0,0,0,0S2873.1,2427.6,2794.3,2750.2z" class="color000000 svgShape"/><path fill="#1c1c1c" d="M2781,2732.3c4.2,5.8,8.5,11.6,12.9,17.4C2789.6,2743.8,2785.3,2738.1,2781,2732.3z" class="color000000 svgShape"/><path fill="#1c1c1c" d="M2739,1776.2c-48.5,22.3-125.3,44.4-238.8,44.4c-9,0-18.2-0.1-27.6-0.4c-8.3,1.4-16.8,2.1-25.6,2.1
		c-14.9,0-30.5-2-46.6-5.6l-5.9,31.8c0,0,1.7,9.7,5.6,27.5c19.7-1.2,210-11,148.4,46.9c-22.5,21.1-70.3,39.7-123.2,54.9
		c45.8,166.7,148.8,468.4,349.4,745.7c1.3,1.8,2.6,3.6,3.9,5.4c0.1,0.1,0.2,0.3,0.3,0.4c0.7,1,1.4,1.9,2.1,2.9
		c4.2,5.8,8.5,11.6,12.9,17.4c0.1,0.2,0.3,0.4,0.4,0.6c0,0,0,0,0,0c78.8-322.6,35.3-698.4,35.3-698.4s0,0,0,0
		c0.1-0.3,63.1-184.4-21.5-321c-0.1,0.1-0.1,0.2-0.2,0.4C2807.6,1731.5,2787.4,1753.9,2739,1776.2z M2621.7,1862.6
		c1.2-0.9,2.9-0.7,3.8,0.5c0,0,0.1,0.1,0.3,0.4c0.2,0.3,0.6,0.7,1,1.2c0.9,1.1,2.2,2.6,3.8,4.5c3.3,3.8,8,9.2,13.8,15.1
		c11.6,11.8,27.3,26,43.8,35.4c11,6.2,22.2,10.3,32.6,10.3c1.5,0,2.7,1.2,2.7,2.7c0,1.5-1.2,2.7-2.7,2.7c-11.8,0-23.8-4.5-35.3-11
		c-11.5-6.5-22.4-15.1-31.9-23.7c-19-17.2-32.3-34.2-32.4-34.3l0,0C2620.3,1865.2,2620.6,1863.5,2621.7,1862.6z" class="color000000 svgShape"/><path fill="#fff" d="M2302.8,1771.3c51.2,25.9,101.5,43,144.2,43c8.5,0,16.7-0.7,24.6-2.1c0.3-0.1,0.5-0.1,0.8-0.1
		c9.5,0.3,18.7,0.4,27.7,0.4c111.6,0,186.8-21.6,234.3-43.2c39.7-18.1,59.9-36.2,65.6-41.8c-0.1-0.1-0.1-0.2-0.1-0.3
		c-0.8-1.8-1.9-4.6-3.5-8.1c-3.1-7.1-7.6-17.4-13.5-30.3c-11.7-25.8-28.8-62.1-50.1-103.6c-42.6-83.1-102.1-187.4-169.6-272.2
		c-5.7-7.2-11.5-14.2-17.3-21.1c-16.2,2.6-32.7,5.8-49.3,9.5l0,0c-2.2,0.5-4.3-0.9-4.8-3.1c-0.3-1.2,0-2.3,0.7-3.3l-184.2-134.5
		c-57.6,11.7-111,35.4-157.5,66c1.2,7.2,4.3,27.9,4.3,49.9c0,11.5-0.9,23.4-3.4,33.9c-2.6,10.5-6.8,19.9-14.1,26
		c-4.9,4.1-11.2,6.4-18.5,6.4c-4.2,0-8.6-0.7-13.5-2.2c-0.5-0.1-0.9-0.4-1.3-0.7l-45.4-35.6c-26.4,28.6-47.7,58.7-62.7,88
		c-4.4,8.6-8.2,17-11.6,25.4c0,0,0,0,0,0c-0.2,0.8-0.5,1.5-0.8,2.3l141.6,161c1.2-1,2.9-1.3,4.4-0.6c2,0.9,2.9,3.3,2,5.4
		c-8.4,18.3-17.6,36.1-27.5,53.2C2161.6,1684.5,2233,1736,2302.8,1771.3z M2178.2,1401.2c1.6-1.6,4.1-1.6,5.7,0c0,0,1.9,1.9,5.3,5.3
		c3.5,3.4,8.5,8.4,14.8,14.7c12.6,12.5,30.4,30.1,50.9,50.3c41.1,40.4,93.3,91.1,137.7,132.7c29.6,27.7,55.8,51.3,72.8,64.9
		c1.7,1.4,2,3.9,0.6,5.7c-1.4,1.7-3.9,2-5.7,0.6c-17.3-13.9-43.5-37.5-73.2-65.3c-29.7-27.7-62.8-59.6-93.7-89.7
		c-61.9-60.2-115.2-113.5-115.2-113.5l0,0C2176.6,1405.4,2176.6,1402.8,2178.2,1401.2z" class="colorffffff svgShape"/><polygon fill="#fff" points="2801.8 1725.7 2801.8 1725.7 2801.8 1725.7" class="colorffffff svgShape"/><path fill="#1c1c1c" d="M2147.5,1220.6c1.5,0.4,2.6,1.6,2.9,3.1c0,0,0.2,1,0.5,2.7c46.5-30.5,99.9-54.3,157.5-66l-2.3-1.7
		c-0.8,0.3-1.7,0.6-2.5,0.9c-2.1,0.8-4.4-0.3-5.2-2.4c-0.4-1-0.3-2.1,0.1-3c-55.9,12.5-107.5,36-152.6,65.8c0.8,0.3,1.3,0.4,1.6,0.5
		L2147.5,1220.6z" class="color000000 svgShape"/><path fill="#1c1c1c" d="M1977.1,1415.1c0.7-2.1,3-3.3,5.1-2.6c2.1,0.7,3.3,2.9,2.6,5c3.3-8.3,7.2-16.8,11.6-25.4c15-29.3,36.4-59.4,62.7-88l-6.4-5
		c-26.6,28.9-48.2,59.4-63.5,89.3c-8.1,15.8-14.5,31.4-19,46.5C1972.6,1428.3,1974.9,1421.7,1977.1,1415.1L1977.1,1415.1z" class="color000000 svgShape"/><path fill="#1c1c1c" d="M2546,1291.8c5.8,6.9,11.6,13.9,17.3,21.1c67.5,84.8,127,189.1,169.6,272.2c21.3,41.5,38.4,77.8,50.1,103.6
		c5.9,12.9,10.4,23.2,13.5,30.3c1.5,3.5,2.7,6.3,3.5,8.1c0.1,0.1,0.1,0.2,0.1,0.3c-5.7,5.6-26,23.7-65.6,41.8
		c-47.4,21.6-122.7,43.2-234.3,43.2c-9,0-18.3-0.1-27.7-0.4c-0.3,0-0.5,0-0.8,0.1c-7.9,1.4-16.1,2.1-24.6,2.1
		c-42.7,0-93-17.1-144.2-43c-69.8-35.3-141.3-86.8-198.4-132.5c-1.4,2.4-2.8,4.7-4.2,7.1c15.1,12,31.1,24.4,47.8,36.9
		c13.6,10.1,27.7,20.2,42,30.1c35.2,24.2,72.2,47.2,109,65.7c34.6,17.5,68.9,31.1,101.2,38.3c16.1,3.6,31.7,5.6,46.6,5.6
		c8.8,0,17.3-0.7,25.6-2.1c9.4,0.3,18.6,0.4,27.6,0.4c113.5,0,190.3-22.1,238.8-44.4c48.5-22.3,68.6-44.7,68.9-45.1
		c0.1-0.1,0.2-0.2,0.2-0.4c0.8-1.1,1-2.6,0.5-3.9c-0.1-0.1-59.8-144-148.4-288.2c-31.7-51.6-67.2-103.2-104.9-148.3
		C2552.2,1290.8,2549.1,1291.3,2546,1291.8z M2801.8,1725.7L2801.8,1725.7L2801.8,1725.7L2801.8,1725.7z" class="color000000 svgShape"/><path fill="#1c1c1c" d="M1165.9,1399.6c0.3,20.8,1.5,42.1,3.5,63.6h172.5c-1.9-16.1-3.1-32.3-3.7-48.6L1165.9,1399.6z" class="color000000 svgShape"/><path fill="#1c1c1c" d="M1165.7,1463.2h3.7c-2-21.6-3.2-42.9-3.5-63.6l172.3,15c0.6,16.3,1.8,32.5,3.7,48.6h4.5c2,0,3.8,1.5,4,3.5
		c-2.3-18.5-3.7-37.3-4.3-56c-0.1-2.1-1.7-3.7-3.7-3.9l-20.2-1.8l-8.1-0.7l-115.4-10.1l-9-0.8l-27.5-2.4c-1.1-0.1-2.3,0.3-3.1,1.1
		s-1.3,1.9-1.3,3c0.2,23.6,1.5,47.9,3.9,72.5c-0.1-1.1,0.3-2.3,1-3.1C1163.4,1463.7,1164.5,1463.2,1165.7,1463.2z" class="color000000 svgShape"/><path fill="#fff" d="M1880.9,1595c-45.4,50.6-98.7,90.8-151.3,114.9c-35.1,16.1-69.9,25.1-102.1,25.1c-2.6,0-5.1-0.1-7.6-0.2
		c-64.2-2.9-128.9-33.1-179.9-80.8c-50.2-46.9-87.2-110.8-97.2-182.8h-172.7c6.5,62.8,20.6,127.5,43.4,187
		c23.3,60.9,55.8,116.4,98.5,159.3l0.1,0.1c35.7,38.4,80,65.8,128.7,83.6c48.7,17.8,101.9,26,155.4,26c62.5,0,125.3-11.2,181.5-31.4
		l0.1,0c150.4-47.9,276.3-159.8,346.7-313.7c0.2-0.5,0.6-1,1-1.4l-141.6-161C1962.9,1484.8,1925.8,1545,1880.9,1595z" class="colorffffff svgShape"/><path fill="#1c1c1c" d="M1780.4,1903.5c76.2-24.3,146.2-64.8,206-118.6c43.9-39.5,82.4-86.3,113.8-139.1c1.4-2.3,2.8-4.7,4.2-7.1
		c9.9-17.1,19.1-34.9,27.5-53.2c0.9-2,0-4.4-2-5.4c-1.5-0.7-3.2-0.4-4.4,0.6c-0.4,0.4-0.8,0.8-1,1.4
		c-70.5,153.8-196.3,265.7-346.7,313.7l-0.1,0c-56.3,20.2-119,31.4-181.5,31.4c-53.4,0-106.6-8.2-155.4-26
		c-48.7-17.8-93-45.2-128.7-83.6l-0.1-0.1c-42.7-42.9-75.2-98.4-98.5-159.3c-22.8-59.5-36.8-124.1-43.4-187h172.7
		c9.9,71.9,47,135.9,97.2,182.8c51,47.7,115.7,77.8,179.9,80.8c2.5,0.1,5.1,0.2,7.6,0.2c32.1,0,67-9,102.1-25.1
		c52.6-24.1,105.9-64.3,151.3-114.9c44.9-50,82-110.2,103.1-175.2c0.2-0.8,0.5-1.5,0.8-2.3c0,0,0,0,0,0c0.6-2.1-0.5-4.4-2.6-5
		c-2.1-0.7-4.4,0.5-5.1,2.6l0,0c-2.1,6.7-4.4,13.3-6.9,19.8c-29.3,78.3-82.1,148.8-142.3,200.9c-32.6,28.2-67.4,51.1-101.7,66.8
		c-34.3,15.7-68.1,24.3-98.7,24.3c-2.4,0-4.9-0.1-7.3-0.2c-61.8-2.8-124.9-32.1-174.7-78.6c-49.8-46.5-86.2-110.1-95.1-181.4
		c-0.3-2-2-3.5-4-3.5h-4.5h-172.5h-3.7c-1.1,0-2.2,0.5-3,1.3c-0.8,0.8-1.1,2-1,3.1c6.4,64.9,20.7,131.8,44.3,193.5
		c23.6,61.7,56.5,118.1,100.2,162c36.7,39.4,82.1,67.5,131.8,85.7c45.4,16.6,94.3,24.9,143.7,26.3c4.8,0.1,9.6,0.2,14.5,0.2
		C1659.7,1935.4,1723.3,1924,1780.4,1903.5z" class="color000000 svgShape"/><path fill="#fff" d="M2494.9,1293.4c61-13.5,119.7-20.1,175.1-20.1c131.7,0,244.6,37.3,324.6,108.4c80,71,126.9,175.6,126.9,308.9
		c0,32.3-2.8,66.3-8.4,101.9l165.6,101.2c16.9-72.3,24.8-140.5,24.8-204.4c0-187.4-68.5-336.8-182.2-439.6
		c-113.7-102.8-272.9-158.9-454.6-158.9c-113.4,0-235.5,21.9-360.7,68l2.3,1.7l184.2,134.5
		C2493.1,1294.2,2493.9,1293.6,2494.9,1293.4z" class="colorffffff svgShape"/><path fill="#1c1c1c" d="M3107,1790.8c1.2-0.6,2.6-0.5,3.8,0.2l2.3,1.4c5.7-35.6,8.4-69.6,8.4-101.9c0-133.3-46.8-237.9-126.9-308.9
		c-80-71-192.9-108.4-324.6-108.4c-55.4,0-114.1,6.6-175.1,20.1c-1,0.2-1.8,0.8-2.4,1.6c-0.7,0.9-1,2.1-0.7,3.3
		c0.5,2.2,2.6,3.6,4.8,3.1l0,0c16.6-3.7,33-6.8,49.3-9.5c3.1-0.5,6.2-1,9.3-1.5c39.6-6,78-9,114.8-9c51.8,0,100.5,5.9,145.4,17.3
		c67.8,17.3,126.8,47.3,173.8,89c70.3,62.4,114.5,151.2,122.7,264.1c0.9,12.6,1.4,25.5,1.4,38.7c0,32.6-2.8,67.1-8.7,103.3
		C3104.9,1792.5,3105.7,1791.4,3107,1790.8z" class="color000000 svgShape"/><path fill="#1c1c1c" d="M2298.3,1157.3c0.8,2.1,3.1,3.2,5.2,2.4c0.8-0.3,1.7-0.6,2.5-0.9c125.2-46.1,247.3-68,360.7-68
		c181.7,0,340.9,56.2,454.6,158.9c113.7,102.8,182.2,252.1,182.2,439.6c0,63.8-8,132.1-24.8,204.4l4.8,2.9c1.5,0.9,2.2,2.7,1.8,4.4
		l0,0c17.9-74.9,26.3-145.6,26.3-211.7c0-38.5-2.9-75.3-8.4-110.6c-21.7-138.5-84.4-251.8-176.5-335
		c-58.2-52.6-128.1-93.1-206.5-120.3c-77.1-26.8-162.6-40.7-253.5-40.7c-115.2,0-239.2,22.4-366.1,69.4c-1.1,0.4-1.9,1.2-2.3,2.2
		C2298,1155.2,2297.9,1156.2,2298.3,1157.3z" class="color000000 svgShape"/><path fill="#1c1c1c" d="M3255.5,1978c8.2-25.8,15.2-51.2,21.2-76.2L3111.6,1801c-4.3,25.1-10,51-17.3,77.8
		C3147.2,1914.6,3198.2,1953.9,3255.5,1978z" class="color000000 svgShape"/><path fill="#1c1c1c" d="M3283.5,1896.5l-4.8-2.9l-165.6-101.2l-2.3-1.4c-1.2-0.7-2.6-0.8-3.8-0.2s-2.1,1.7-2.3,3c0,0,0,0,0,0
		c-4.5,27.5-10.7,56.1-18.9,85.6c-0.5,1.7,0.2,3.5,1.6,4.4c6.3,4.2,12.6,8.6,18.8,12.9c2.3,1.6,4.5,3.1,6.8,4.7
		c31.2,21.7,62.4,43.8,95.4,62.3c2.7,1.5,5.4,3,8.1,4.4c13,7,26.3,13.5,40,19c1,0.4,2.2,0.4,3.2-0.1s1.8-1.4,2.1-2.4
		c9.1-28.5,16.9-56.4,23.4-83.8c0,0,0,0,0,0C3285.7,1899.2,3285,1897.4,3283.5,1896.5z M3094.4,1878.8c7.3-26.7,13-52.6,17.3-77.8
		l165.1,100.8c-6,24.9-13.1,50.3-21.2,76.2C3198.2,1953.9,3147.2,1914.6,3094.4,1878.8z" class="color000000 svgShape"/><path fill="#fff" d="M2000.4,1154.4c-1.3,0-2.6-0.1-3.9-0.4c-2.4-0.5-4.6-1.6-6.7-3c-2.1-1.4-4.1-3.2-6.1-5.1
		c-4-3.9-7.9-8.8-11.3-13.5c-2.5-3.4-4.7-6.6-6.5-9.5c-1.6,7.8-4.1,18.6-7.1,28.1c-1.8,5.6-3.8,10.8-6.1,14.7
		c-1.4,2.2-2.7,4.1-4.9,5.5c-1.1,0.7-2.6,1.3-4.1,1.3l-0.4,0l0,0c-1.9-0.1-3.5-1.1-4.5-2.2c-1.1-1.1-1.8-2.3-2.4-3.7
		c-1.2-2.7-1.9-5.9-2.4-9.5c-1.1-7.3-1.4-16.5-1.4-25.4c0-10.5,0.5-20.5,0.8-25.8l-66.9-4.3l-0.3,0c-16-2.4-29.1-8.4-39.7-16.7
		c-3.7,17.2-6.1,37.3-6.1,57.5c0,19.4,2.2,38.9,7.2,56.1c5,17.2,12.9,32.1,24.2,42.6c9.1,8.5,18.8,14.1,28.8,17.6
		c9.9,3.5,20.1,4.9,30.1,4.9c19.3,0,37.8-5.4,51.8-11c13.9-5.6,23.2-11.4,24.2-12l0.1-0.1c1.5-0.9,3.3-0.8,4.7,0.2l117.5,92.1
		c3.9,1.2,7.4,1.7,10.4,1.7c5.6,0,9.8-1.7,13.3-4.6c3.5-2.9,6.4-7.3,8.6-12.7c4.4-10.9,6-26.1,6-40.9c0-21.3-3.1-41.9-4.3-48.7
		c-12.4-4.1-70.6-25.3-119.9-79.3c-3.1,1.4-6.3,2.7-9.6,3.7C2008.9,1153.4,2004.6,1154.4,2000.4,1154.4z" class="colorffffff svgShape"/><path fill="#1c1c1c" d="M2059.1,1304.1l45.4,35.6c0.4,0.3,0.8,0.5,1.3,0.7c4.8,1.5,9.3,2.2,13.5,2.2c7.3,0,13.6-2.4,18.5-6.4
		c7.3-6.1,11.5-15.5,14.1-26c2.5-10.5,3.4-22.4,3.4-33.9c0-22-3.1-42.7-4.3-49.9c-0.3-1.7-0.5-2.6-0.5-2.7c-0.3-1.5-1.4-2.7-2.9-3.1
		l-0.2,0c-0.3-0.1-0.8-0.2-1.6-0.5c-10.5-3.4-67.2-23.6-115.2-75.4c-2.3,1.2-4.9,2.4-7.6,3.6c49.3,54.1,107.5,75.3,119.9,79.3
		c1.1,6.8,4.3,27.3,4.3,48.7c0,14.8-1.5,30-6,40.9c-2.2,5.5-5.1,9.8-8.6,12.7c-3.5,2.9-7.7,4.5-13.3,4.6c-3,0-6.5-0.5-10.4-1.7
		l-117.5-92.1c-1.4-1.1-3.2-1.2-4.7-0.2l-0.1,0.1c-0.9,0.6-10.2,6.4-24.2,12c-13.9,5.6-32.4,11-51.8,11c-10,0-20.2-1.4-30.1-4.9
		c-9.9-3.5-19.7-9.1-28.8-17.6c-11.3-10.5-19.2-25.4-24.2-42.6c-5-17.2-7.2-36.7-7.2-56.1c0-20.2,2.3-40.2,6.1-57.5
		c-2-1.6-4-3.2-5.9-5c-0.4-0.3-0.7-0.7-1.1-1.1c-0.9,3.7-1.7,7.4-2.4,11.3c-3,16.1-4.8,34.1-4.8,52.2c0,20,2.2,40.2,7.5,58.4
		c5.3,18.2,13.8,34.4,26.5,46.3c9.9,9.2,20.7,15.5,31.6,19.3c10.9,3.9,22.1,5.4,32.8,5.4c21.5,0,41.5-6.1,56.2-12.1
		c10.3-4.2,18-8.5,21.7-10.7l64.2,50.3L2059.1,1304.1z" class="color000000 svgShape"/><path fill="#1c1c1c" d="M1826.1,1073.9c10.4,9.8,23.7,16.9,41.1,19.6l70.7,4.6c1.1,0.1,2.1,0.6,2.8,1.4c0.7,0.8,1.1,1.9,1,2.9c0,0-0.1,0.9-0.2,2.4
		c-0.1,1.6-0.2,3.8-0.3,6.5c-0.2,5.4-0.5,12.8-0.5,20.4c0,9.8,0.4,20.1,1.7,26.7c0.4,2.2,1,4,1.4,5.1c0.1,0.1,0.1,0.2,0.2,0.3
		c0.1-0.1,0.1-0.1,0.2-0.2c0.8-0.9,1.9-2.6,2.9-4.8c2.1-4.4,4.1-10.6,5.9-17.1c3.6-13,6.2-26.8,6.7-29.9c0.1-0.4,0.1-0.6,0.1-0.6
		c0.3-1.7,1.6-3,3.3-3.3c1.7-0.3,3.4,0.5,4.2,2l0.1,0.2l0.3,0.5c0.3,0.4,0.6,1.1,1.1,1.8c1,1.6,2.3,3.8,4,6.4
		c3.3,5.1,7.9,11.6,12.6,17c3.1,3.6,6.3,6.7,9,8.5c1.5,1,2.9,1.6,3.7,1.8c0.7,0.1,1.4,0.2,2.3,0.2c2.6,0,6-0.7,9.6-1.8
		c3.6-1.1,7.4-2.6,10.9-4.2c5.3-2.4,9.9-5,12.4-6.4c0-0.1,0-0.1,0-0.1c0-1.5,0.1-3.8,0.1-6.7c0-9.9-0.4-26.9-2.7-45.7
		c-2.3-18.7-6.5-39.2-13.9-55.8c-4.9-11.1-11.2-20.4-19-26.5c-4.5-3.5-9.4-6-15-7.3c-51.8-12-163.8-35.7-191-41.4
		c-0.5-0.1-1-0.2-1.5-0.3c-0.1,2.7-0.3,6.6-0.3,11.3c0,13.7,1.1,34.5,6.2,55.5C1801.3,1038,1810.4,1059.2,1826.1,1073.9z" class="color000000 svgShape"/><path fill="#1c1c1c" d="M1826.4,1084.8c10.6,8.3,23.7,14.4,39.7,16.7l0.3,0l66.9,4.3c-0.3,5.4-0.8,15.3-0.8,25.8c0,8.9,0.3,18.1,1.4,25.4
		c0.6,3.7,1.3,6.9,2.4,9.5c0.6,1.3,1.3,2.6,2.4,3.7c1,1.1,2.7,2.1,4.5,2.2l0,0l0.4,0c1.6,0,3-0.6,4.1-1.3c2.1-1.4,3.5-3.3,4.9-5.5
		c2.3-3.9,4.3-9,6.1-14.7c3-9.5,5.5-20.3,7.1-28.1c1.9,2.9,4.1,6.1,6.5,9.5c3.4,4.7,7.3,9.5,11.3,13.5c2,2,4,3.7,6.1,5.1
		c2.1,1.4,4.3,2.5,6.7,3c1.3,0.3,2.6,0.4,3.9,0.4c4.1,0,8.5-1,12.8-2.4c3.3-1.1,6.5-2.4,9.6-3.7c2.8-1.2,5.3-2.5,7.6-3.6
		c5.3-2.7,8.9-4.9,8.9-4.9c1.2-0.7,1.9-1.9,1.9-3.3c0,0,0.1-3.5,0.1-9.3c0-15.5-1-47.6-8.3-77.7c-3.7-15.1-9-29.6-16.7-41.4
		c-3.9-5.9-8.4-11.1-13.7-15.2c-5.3-4.1-11.4-7.2-18.2-8.8c-59.4-13.8-197.2-42.7-197.2-42.7c-1.1-0.2-2.3,0-3.2,0.7
		c-0.9,0.7-1.5,1.7-1.6,2.9c0,0.1-0.6,6.5-0.6,16.6c0,18.8,1.9,50.5,13.3,79.3c5.5,14,13.3,27.3,24.2,38c0.4,0.4,0.7,0.7,1.1,1.1
		C1822.3,1081.6,1824.3,1083.2,1826.4,1084.8z M1790,961.4c0-4.7,0.1-8.6,0.3-11.3c0.5,0.1,0.9,0.2,1.5,0.3
		c27.2,5.7,139.2,29.3,191,41.4c5.6,1.3,10.6,3.8,15,7.3c7.8,6.1,14.1,15.4,19,26.5c7.4,16.6,11.6,37.1,13.9,55.8
		c2.3,18.7,2.7,35.8,2.7,45.7c0,2.9,0,5.1-0.1,6.7c0,0.1,0,0.1,0,0.1c-2.5,1.4-7.1,3.9-12.4,6.4c-3.5,1.6-7.3,3.1-10.9,4.2
		c-3.6,1.1-7,1.8-9.6,1.8c-0.9,0-1.7-0.1-2.3-0.2c-0.9-0.2-2.2-0.7-3.7-1.8c-2.7-1.8-5.9-4.9-9-8.5c-4.7-5.4-9.2-11.9-12.6-17
		c-1.7-2.6-3.1-4.8-4-6.4c-0.5-0.8-0.8-1.4-1.1-1.8l-0.3-0.5l-0.1-0.2c-0.9-1.5-2.5-2.3-4.2-2c-1.7,0.3-3,1.6-3.3,3.3
		c0,0,0,0.2-0.1,0.6c-0.5,3-3.1,16.9-6.7,29.9c-1.8,6.5-3.9,12.7-5.9,17.1c-1,2.2-2.1,3.9-2.9,4.8c-0.1,0.1-0.2,0.2-0.2,0.2
		c-0.1-0.1-0.1-0.2-0.2-0.3c-0.5-1.1-1-2.9-1.4-5.1c-1.3-6.6-1.7-16.9-1.7-26.7c0-7.6,0.2-14.9,0.5-20.4c0.1-2.7,0.2-5,0.3-6.5
		c0.1-1.6,0.2-2.4,0.2-2.4c0.1-1.1-0.3-2.1-1-2.9c-0.7-0.8-1.7-1.3-2.8-1.4l-70.7-4.6c-17.4-2.6-30.6-9.7-41.1-19.6
		c-15.6-14.8-24.8-36-29.8-57C1791.1,995.9,1790,975.1,1790,961.4z" class="color000000 svgShape"/><path fill="#1c1c1c" d="M2207.4,2023.5C2207.4,2023.5,2207.4,2023.5,2207.4,2023.5c1-0.1,118.4-17,217.9-45.6c52.9-15.2,100.7-33.8,123.2-54.9
		c61.7-57.9-128.6-48-148.4-46.9c-1.1,0.1-1.7,0.1-1.7,0.1L2207.4,2023.5z" class="color000000 svgShape"/><path fill="#1c1c1c" d="M3334.8,3379.1L3334.8,3379.1c0,0,0.1-0.1,0.4-0.4c2.2-1.8,12.3-9.9,24.2-17.5c0.3-0.2,0.7-0.4,1-0.6
		c1.4,7.1,3.6,13,6.5,17.5c2.5,4,5.5,7.1,8.9,9.1c3.3,2.1,7,3.1,10.7,3.1c6.5,0,12.7-3.3,17-8.8c4.4-5.5,7-13.2,7-22.3
		c0-0.8,0-1.5-0.1-2.3c-0.1-2.9-0.6-5.5-1.4-7.9c-1.2-3.5-3.4-6.3-6.2-8c-2.8-1.7-6-2.4-9.3-2.4c-6.4,0-13.2,2.3-20.2,5.5
		c-2.1,1-4.1,2-6.2,3.1c-0.1-1.7-0.1-3.4-0.1-5.2c0-4.8,0.3-10.2,1-16c0.2-1.4,0.3-2.8,0.5-4.2c0.3-2.1-1.1-4-3.1-4.5
		c-0.1,0-0.2-0.1-0.4-0.1c-2.2-0.3-4.3,1.2-4.6,3.5c-0.1,0.5-0.1,1-0.2,1.6c-0.6,4.6-1,8.9-1.2,13c-0.1,2.3-0.2,4.6-0.2,6.7
		c0,3.4,0.2,6.6,0.4,9.6c-5.7,3.4-11,7-15.6,10.3c-2.7,1.9-5.1,3.7-7.2,5.3c-4.2,3.2-6.8,5.4-6.9,5.4c-1.7,1.4-2,4-0.5,5.7
		c0.4,0.5,0.9,0.8,1.4,1.1C3331.9,3380.3,3333.6,3380.1,3334.8,3379.1z M3377.9,3351.1c6-2.7,11.6-4.3,15.6-4.3
		c1.5,0,2.7,0.2,3.7,0.5c1.5,0.5,2.5,1.3,3.4,2.7c0.9,1.5,1.6,3.8,1.8,7.3c0,0.7,0,1.3,0,1.9c0,7.6-2.2,13.4-5.3,17.3
		c-3.1,3.9-6.9,5.7-10.7,5.7c-2.1,0-4.2-0.6-6.4-1.9c-3.2-2-6.5-5.8-9-12c-1.3-3.4-2.4-7.4-3.2-12.2
		C3371.3,3354.3,3374.7,3352.6,3377.9,3351.1z" class="color000000 svgShape"/><path fill="#1c1c1c" d="M2093.8,3332.8c2.5,1.4,5,2.9,7.3,4.5c-2.3,4-4.4,8.2-6.2,12.3c-1.2,2.8-2.2,5.6-3,8.2c-0.7,2.7-1.2,5.2-1.2,7.7
		c0,2.7,0.6,5.5,2.3,7.8c0.9,1.2,2,2.1,3.3,2.8c1.3,0.7,2.8,1.1,4.3,1.4c4.2,0.6,7.9,0.9,11.2,0.9c6.3,0,11.2-1,14.9-3.3
		c1.8-1.2,3.4-2.7,4.4-4.6c1-1.8,1.5-3.9,1.4-5.9c0-2.9-0.8-5.7-2.2-8.5c-2.4-4.9-6.3-10-11.5-14.9c-2.2-2.1-4.5-4.1-7.1-6.1
		c1.5-2.5,3.1-4.9,4.5-7c0.1-0.2,0.2-0.3,0.3-0.5c1.8-2.7,3.3-4.9,4.4-6.4c0.5-0.8,1-1.4,1.3-1.8l0.3-0.5l0,0l0.1-0.1
		c1.3-1.8,1-4.3-0.8-5.7c-1.8-1.3-4.3-1-5.7,0.8l0,0c0,0-2,2.6-4.7,6.7c-1.8,2.6-3.9,5.9-6.1,9.4c0,0.1-0.1,0.1-0.1,0.2
		c-0.1,0-0.1-0.1-0.2-0.1c-3.2-2.1-6.6-4.1-10.1-6c-1.9-1-3.8-2-5.8-2.9c-11.7-5.4-24.6-8.9-37.6-9c-0.2,0-0.4,0-0.7,0
		c-2.2,0-4,1.9-4,4.1c0,2.2,1.9,4,4.1,4l0.5,0c10.4,0,21.2,2.7,31.3,6.9C2086.6,3329,2090.3,3330.8,2093.8,3332.8z M2118.5,3352.7
		c2,2.5,3.5,4.8,4.5,6.9c1,2.1,1.4,3.8,1.4,5.1c0,0.9-0.2,1.5-0.5,2c-0.4,0.8-1.2,1.6-3.2,2.4c-1.9,0.7-4.9,1.3-9,1.3
		c-2.8,0-6.2-0.2-10-0.8c-0.8-0.1-1.3-0.3-1.7-0.5c-0.5-0.3-0.7-0.5-0.9-1c-0.2-0.5-0.4-1.3-0.4-2.5c0-1.4,0.3-3.4,0.9-5.6
		c1.1-3.8,3-8.4,5.4-13c0.8-1.6,1.7-3.2,2.6-4.8C2112,3345.6,2115.7,3349.2,2118.5,3352.7z" class="color000000 svgShape"/><path fill="#fff" d="M1128.7,919.4c-0.8,0.8-1.9,1.2-3.1,1.1c-1.1-0.1-2.2-0.6-2.9-1.5L992.9,759.5c-1.4-1.7-1.2-4.3,0.6-5.7l9-7.5
		l-17.8-21.9c-1.4-1.7-1.2-4.3,0.6-5.7l56.4-46.8c1.7-1.4,4.3-1.2,5.7,0.5l79.7,95.6l152.5-150.9c-43.2-10.9-91-17-141.2-17
		c-73.6,0-141.9,13-198.5,35.3c-56.6,22.2-101.3,53.7-127.8,90.2c-17.7,24.4-27.3,50.9-27.3,78.6c0,27.8,9.6,54.3,27.3,78.6
		c17.7,24.3,43.4,46.4,75.4,65c63.9,37.2,152.7,60.4,250.8,60.4c73.6,0,141.9-13,198.5-35.3c56.6-22.2,101.3-53.7,127.8-90.2
		c17.7-24.4,27.3-50.9,27.3-78.6c0-27.8-9.6-54.3-27.3-78.6c-16.6-22.9-40.4-43.8-69.9-61.7L1128.7,919.4z" class="colorffffff svgShape"/><path fill="#1c1c1c" d="M860.2,940.2c22.1,15.6,48,29.3,76.7,40.6c57.6,22.6,126.9,35.8,201.4,35.8c99.4,0,189.4-23.4,254.9-61.5
		c32.7-19.1,59.4-41.8,77.9-67.3c18.5-25.5,28.9-53.7,28.9-83.4c0-25.9-7.9-50.7-22.2-73.6c-2.1-3.3-4.3-6.6-6.7-9.8
		c-17.1-23.5-41.1-44.7-70.4-62.8l-6,5.8c29.4,17.9,53.2,38.8,69.9,61.7c17.7,24.4,27.3,50.9,27.3,78.6c0,27.8-9.6,54.3-27.3,78.6
		c-26.5,36.5-71.2,68-127.8,90.2c-56.5,22.2-124.9,35.3-198.5,35.3c-98.1,0-186.9-23.2-250.8-60.4c-32-18.6-57.7-40.7-75.4-65
		c-17.7-24.4-27.3-50.9-27.3-78.6c0-27.8,9.6-54.3,27.3-78.6c26.5-36.5,71.2-68,127.8-90.2c56.5-22.2,124.9-35.3,198.5-35.3
		c50.2,0,97.9,6.1,141.2,17l6.7-6.6c-45.2-11.9-95.2-18.5-147.9-18.5c-99.4,0-189.4,23.4-254.9,61.5c-32.7,19.1-59.4,41.8-77.9,67.3
		c-18.5,25.5-28.9,53.7-28.9,83.4c0,29.7,10.4,57.9,28.9,83.4C819.4,906.9,837.9,924.5,860.2,940.2z" class="color000000 svgShape"/><path fill="#1c1c1c" d="M1789.3,3483.7c0.8-1.1,1-2.4,0.5-3.7l-0.9-2.8l-85.4-253.3l-248.4-737.2c-0.6-1.6-2.1-2.8-3.8-2.8h-18.8
		c1.2,0,2.3,0.5,3.1,1.4c0.8,0.9,1.1,2.1,0.9,3.3l-0.6,3.4h12.4l244.9,726.7l87.1,258.4h-89.7h-146h-271.8l-0.8,4.7
		c-0.3,2-2,3.4-4,3.4h422.6h95.4C1787.3,3485.4,1788.5,3484.8,1789.3,3483.7z" class="color000000 svgShape"/><polygon fill="#1c1c1c" points="1389.7 2599 1244.2 3477.3 1264.5 3477.3 1427.7 2492.1 1407.4 2492.1" class="color000000 svgShape"/><path fill="#1c1c1c" d="M1272,3482l0.8-4.7l22.8-137.8l72.7-438.8l67.7-408.5l0.6-3.4c0.2-1.2-0.1-2.4-0.9-3.3c-0.8-0.9-1.9-1.4-3.1-1.4H1404
		c1.2,0,2.3,0.5,3.1,1.4c0.8,0.9,1.1,2.1,0.9,3.3l-0.6,3.4h20.3l-163.2,985.2h-20.3l-0.8,4.7c-0.3,1.9-2,3.4-4,3.4h28.5
		C1270,3485.4,1271.6,3484,1272,3482z" class="color000000 svgShape"/><path fill="#fff" d="M1205.6,2492.1C1205.6,2492.1,1205.6,2492.1,1205.6,2492.1l-140.2,0c1,17.2,8.4,32.7,19.8,44.1
		c12.3,12.3,29.3,19.9,48.2,20v0c2.2,0,4.1,1.8,4.1,4.1c0,2.2-1.8,4.1-4.1,4.1c-40.7,0-74-32-76.1-72.2h-74.1c0,0,0,0,0,0s0,0,0,0
		H843c1,17.2,8.4,32.7,19.8,44.1c12.3,12.3,29.3,19.9,48.2,20v0c2.2,0,4.1,1.8,4.1,4.1c0,2.2-1.8,4.1-4.1,4.1
		c-40.7,0-74-32-76.1-72.2h-74.1c0,0,0,0,0,0c0,0,0,0,0,0H620.6c1,17.2,8.4,32.7,19.8,44.1c12.3,12.3,29.3,19.9,48.2,20v0
		c2.2,0,4.1,1.8,4.1,4.1c0,2.2-1.8,4.1-4.1,4.1c-40.7,0-74-32-76.1-72.2h-76.9l-29.7,102.2h876.4l16.9-102.2L1205.6,2492.1
		C1205.6,2492.1,1205.6,2492.1,1205.6,2492.1z" class="colorffffff svgShape"/><path fill="#1c1c1c" d="M500.5,2594.3h885.2c1.2,0,2.3,0.5,3.1,1.4c0.8,0.9,1.1,2.1,0.9,3.3l17.7-106.9l0.6-3.4c0.2-1.2-0.1-2.4-0.9-3.3
		c-0.8-0.9-1.9-1.4-3.1-1.4h-123.3h-71.1c0.1,1.3,0.1,2.7,0.1,4.1c0,2.2-1.8,4-4,4.1h193.6l-16.9,102.2H505.9l29.7-102.2h76.9
		c-0.1-1.3-0.1-2.7-0.1-4.1c0-1.4,0-2.7,0.1-4.1h-51.3h-28.6c-1.8,0-3.4,1.2-3.9,2.9l-32.1,110.3
		C497.1,2595.5,498.7,2594.3,500.5,2594.3z" class="color000000 svgShape"/><path fill="#1c1c1c" d="M756.7,2488.1c0-1.4-0.1-2.7-0.1-4.1h-136c-0.1,1.3-0.1,2.7-0.1,4.1c0,1.4,0.1,2.7,0.1,4.1h140.2
		C758.5,2492.1,756.7,2490.3,756.7,2488.1z" class="color000000 svgShape"/><path fill="#1c1c1c" d="M979.1,2488.1c0-1.4-0.1-2.7-0.1-4.1H843c-0.1,1.3-0.1,2.7-0.1,4.1c0,1.4,0.1,2.7,0.1,4.1h140.2
		C980.9,2492.1,979.1,2490.3,979.1,2488.1z" class="color000000 svgShape"/><path fill="#1c1c1c" d="M1201.6,2488.1c0-1.4-0.1-2.7-0.1-4.1h-136c-0.1,1.3-0.1,2.7-0.1,4.1c0,1.4,0.1,2.7,0.1,4.1l140.2,0
		C1203.4,2492.1,1201.6,2490.3,1201.6,2488.1z" class="color000000 svgShape"/><path fill="#1c1c1c" d="M760.7,2492.1h74.1c-0.1-1.3-0.1-2.7-0.1-4.1c0-1.4,0-2.7,0.1-4.1h-46.4h-23.8c0.1,1.3,0.1,2.7,0.1,4.1
		C764.8,2490.3,763,2492.1,760.7,2492.1z" class="color000000 svgShape"/><path fill="#1c1c1c" d="M983.2,2492.1h74.1c-0.1-1.3-0.1-2.7-0.1-4.1c0-1.4,0-2.7,0.1-4.1h-70.2c0.1,1.3,0.1,2.7,0.1,4.1
		C987.2,2490.3,985.4,2492.1,983.2,2492.1z" class="color000000 svgShape"/><path fill="#fff" d="M249.2,3477.3H1236l144.9-874.9H503.5L249.2,3477.3z M524.8,3280.2c-17-14.9-27.7-35.6-27.7-58.6
		c0-23,10.7-43.8,27.7-58.6c17-14.9,40.5-24,66.3-24c25.8,0,49.2,9.1,66.3,24c17,14.9,27.7,35.6,27.7,58.6c0,23-10.7,43.8-27.7,58.6
		c-17,14.9-40.5,24-66.3,24C565.3,3304.2,541.8,3295.1,524.8,3280.2z M737.4,3221.6c0-23,10.7-43.8,27.7-58.6
		c17-14.9,40.5-24,66.3-24c25.8,0,49.2,9.1,66.3,24c17,14.9,27.7,35.6,27.7,58.6c0,23-10.7,43.8-27.7,58.6c-17,14.9-40.5,24-66.3,24
		c-25.8,0-49.2-9.1-66.3-24C748,3265.3,737.4,3244.6,737.4,3221.6z M1006.8,3280.2c-17-14.9-27.7-35.6-27.7-58.6
		c0-23,10.7-43.8,27.7-58.6c17-14.9,40.5-24,66.3-24c25.8,0,49.2,9.1,66.3,24c17,14.9,27.7,35.6,27.7,58.6c0,23-10.7,43.8-27.7,58.6
		c-17,14.9-40.5,24-66.3,24C1047.3,3304.2,1023.9,3295.1,1006.8,3280.2z M1122.1,2677.1c17-14.9,40.5-24,66.3-24
		c25.8,0,49.2,9.1,66.3,24c17,14.9,27.7,35.6,27.7,58.6c0,23-10.7,43.8-27.7,58.6c-17,14.9-40.5,24-66.3,24
		c-25.8,0-49.2-9.1-66.3-24c-17-14.9-27.7-35.6-27.7-58.6C1094.4,2712.8,1105.1,2692,1122.1,2677.1z M1062.7,2925.4
		c17-14.9,40.5-24,66.3-24c25.8,0,49.2,9.1,66.3,24c17,14.9,27.7,35.6,27.7,58.6c0,23-10.7,43.8-27.7,58.6c-17,14.9-40.5,24-66.3,24
		c-25.8,0-49.2-9.1-66.3-24c-17-14.9-27.7-35.6-27.7-58.6C1035,2961.1,1045.7,2940.3,1062.7,2925.4z M880.4,2677.1
		c17-14.9,40.5-24,66.3-24c25.8,0,49.2,9.1,66.3,24c17,14.9,27.7,35.6,27.7,58.6c0,23-10.7,43.8-27.7,58.6c-17,14.9-40.5,24-66.3,24
		c-25.8,0-49.2-9.1-66.3-24c-17-14.9-27.7-35.6-27.7-58.6C852.6,2712.8,863.3,2692,880.4,2677.1z M821,2925.4
		c17-14.9,40.5-24,66.3-24c25.8,0,49.2,9.1,66.3,24c17,14.9,27.7,35.6,27.7,58.6c0,23-10.7,43.8-27.7,58.6c-17,14.9-40.5,24-66.3,24
		c-25.8,0-49.2-9.1-66.3-24c-17-14.9-27.7-35.6-27.7-58.6C793.2,2961.1,803.9,2940.3,821,2925.4z M640.1,2677.1
		c17-14.9,40.5-24,66.3-24c25.8,0,49.2,9.1,66.3,24c17,14.9,27.7,35.6,27.7,58.6c0,23-10.7,43.8-27.7,58.6c-17,14.9-40.5,24-66.3,24
		c-25.8,0-49.2-9.1-66.3-24c-17-14.9-27.7-35.6-27.7-58.6C612.3,2712.8,623,2692,640.1,2677.1z M580.7,2925.4
		c17-14.9,40.5-24,66.3-24c25.8,0,49.2,9.1,66.3,24c17,14.9,27.7,35.6,27.7,58.6c0,23-10.7,43.8-27.7,58.6c-17,14.9-40.5,24-66.3,24
		c-25.8,0-49.2-9.1-66.3-24c-17-14.9-27.7-35.6-27.7-58.6C552.9,2961.1,563.6,2940.3,580.7,2925.4z" class="colorffffff svgShape"/><path fill="#1c1c1c" d="M1243.4,3482l0.8-4.7l145.5-878.3c0.2-1.2-0.1-2.4-0.9-3.3c-0.8-0.9-1.9-1.4-3.1-1.4H500.5c-1.8,0-3.4,1.2-3.9,2.9
		l-216.2,744l-40.4,139c-0.1,0.4-0.1,0.7-0.1,1.1c0,0.9,0.3,1.7,0.8,2.4c0.8,1,2,1.6,3.2,1.6h995.6c0,0,0,0,0,0
		C1241.4,3485.4,1243.1,3484,1243.4,3482z M503.5,2602.4h877.4L1236,3477.3H249.2L503.5,2602.4z" class="color000000 svgShape"/><path fill="#1c1c1c" d="M1126.3,910.5L1451.7,598l-19.4-13.2l-311.9,299.6c-0.8,0.8-1.9,1.2-3.1,1.1c-1.1-0.1-2.2-0.6-2.9-1.5l-107-131.4l-5.9,4.9
		L1126.3,910.5z" class="color000000 svgShape"/><path fill="#1c1c1c" d="M1432.4,584.8l19.4,13.2l-325.4,312.6l-124.6-153l5.9-4.9l-5.1-6.3l-9,7.5c-1.7,1.4-2,4-0.6,5.7l129.9,159.5
		c0.7,0.9,1.8,1.4,2.9,1.5c1.1,0.1,2.2-0.3,3.1-1.1L1394.7,664l6-5.8l60.2-57.9c0.9-0.8,1.3-2,1.2-3.3c-0.1-1.2-0.8-2.3-1.8-3
		l-22.1-15L1432.4,584.8z" class="color000000 svgShape"/><path fill="#fff" d="M645.4,2788.3c15.5,13.6,37.1,22,60.9,22c23.9,0,45.4-8.5,60.9-22c15.5-13.6,25-32.1,25-52.5
		c0-20.4-9.4-39-25-52.5c-15.5-13.6-37.1-22-60.9-22c-23.9,0-45.4,8.5-60.9,22c-15.5,13.6-25,32.1-25,52.5
		C620.4,2756.2,629.9,2774.7,645.4,2788.3z M706.3,2677.7c36.7,0,66.5,26,66.5,58.1c0,32.1-29.8,58.1-66.5,58.1
		c-36.7,0-66.5-26-66.5-58.1C639.8,2703.7,669.6,2677.7,706.3,2677.7z" class="colorffffff svgShape"/><path fill="#1c1c1c" d="M640.1,2794.4c17,14.9,40.5,24,66.3,24c25.8,0,49.2-9.1,66.3-24c17-14.9,27.7-35.6,27.7-58.6c0-23-10.7-43.8-27.7-58.6
		c-17-14.9-40.5-24-66.3-24c-25.8,0-49.2,9.1-66.3,24c-17,14.9-27.7,35.6-27.7,58.6C612.3,2758.7,623,2779.5,640.1,2794.4z
		 M645.4,2683.2c15.5-13.6,37.1-22,60.9-22c23.9,0,45.4,8.5,60.9,22c15.5,13.6,25,32.1,25,52.5c0,20.4-9.4,38.9-25,52.5
		c-15.5,13.6-37.1,22-60.9,22c-23.9,0-45.4-8.5-60.9-22c-15.5-13.6-25-32.1-25-52.5C620.4,2715.3,629.9,2696.8,645.4,2683.2z" class="color000000 svgShape"/><path fill="#fff" d="M706.3,2793.9c36.7,0,66.5-26,66.5-58.1c0-32.1-29.8-58.1-66.5-58.1c-36.7,0-66.5,26-66.5,58.1
		C639.8,2767.9,669.6,2793.9,706.3,2793.9z" class="colorffffff svgShape"/><linearGradient id="k" x1="849.045" x2="851.747" y1="1192.502" y2="1192.502" gradientTransform="matrix(0 -59.1041 -59.1041 0 71188.055 53030.453)" gradientUnits="userSpaceOnUse"><stop class="stopColorfbd027 svgShape" offset="0" stop-color="#8aa2ff"/><stop class="stopColorfcefbc svgShape" offset="1" stop-color="#8b93e1"/></linearGradient><path fill="url(#k)" d="M706.3,2793.9c36.7,0,66.5-26,66.5-58.1c0-32.1-29.8-58.1-66.5-58.1c-36.7,0-66.5,26-66.5,58.1
		C639.8,2767.9,669.6,2793.9,706.3,2793.9z"/><path fill="#fff" d="M860.7,2735.8c0,20.4,9.4,38.9,25,52.5c15.5,13.6,37.1,22,60.9,22c23.9,0,45.4-8.5,60.9-22
		c15.5-13.6,25-32.1,25-52.5c0-20.4-9.4-39-25-52.5c-15.5-13.6-37.1-22-60.9-22c-23.9,0-45.4,8.5-60.9,22
		C870.2,2696.8,860.7,2715.3,860.7,2735.8z M946.6,2679.3c37.4,0,67.8,25.3,67.8,56.5c0,31.1-30.4,56.5-67.8,56.5
		c-37.4,0-67.8-25.3-67.8-56.5C878.8,2704.6,909.2,2679.3,946.6,2679.3z" class="colorffffff svgShape"/><path fill="#1c1c1c" d="M880.4,2794.4c17,14.9,40.5,24,66.3,24c25.8,0,49.2-9.1,66.3-24c17-14.9,27.7-35.6,27.7-58.6c0-23-10.7-43.8-27.7-58.6
		c-17-14.9-40.5-24-66.3-24c-25.8,0-49.2,9.1-66.3,24c-17,14.9-27.7,35.6-27.7,58.6C852.6,2758.7,863.3,2779.5,880.4,2794.4z
		 M885.7,2683.2c15.5-13.6,37.1-22,60.9-22c23.9,0,45.4,8.5,60.9,22c15.5,13.6,25,32.1,25,52.5c0,20.4-9.4,38.9-25,52.5
		c-15.5,13.6-37.1,22-60.9,22c-23.9,0-45.4-8.5-60.9-22c-15.5-13.6-25-32.1-25-52.5C860.7,2715.3,870.2,2696.8,885.7,2683.2z" class="color000000 svgShape"/><path fill="#fff" d="M878.8,2735.8c0,31.1,30.4,56.5,67.8,56.5c37.4,0,67.8-25.3,67.8-56.5c0-31.2-30.4-56.5-67.8-56.5
		C909.2,2679.3,878.8,2704.6,878.8,2735.8z" class="colorffffff svgShape"/><linearGradient id="l" x1="849.625" x2="852.326" y1="1189.082" y2="1189.082" gradientTransform="matrix(0 -57.4603 -57.4603 0 69271.594 51664.945)" gradientUnits="userSpaceOnUse"><stop class="stopColorfbd027 svgShape" offset="0" stop-color="#8aa2ff"/><stop class="stopColorfcefbc svgShape" offset="1" stop-color="#8b93e1"/></linearGradient><path fill="url(#l)" d="M878.8,2735.8c0,31.1,30.4,56.5,67.8,56.5c37.4,0,67.8-25.3,67.8-56.5c0-31.2-30.4-56.5-67.8-56.5
		C909.2,2679.3,878.8,2704.6,878.8,2735.8z"/><path fill="#fff" d="M1127.4,2788.3c15.5,13.6,37.1,22,60.9,22c23.9,0,45.4-8.5,60.9-22c15.5-13.6,25-32.1,25-52.5
		c0-20.4-9.4-39-25-52.5c-15.5-13.6-37.1-22-60.9-22c-23.9,0-45.4,8.5-60.9,22c-15.5,13.6-25,32.1-25,52.5
		C1102.5,2756.2,1111.9,2774.7,1127.4,2788.3z M1188.4,2679.3c37.4,0,67.8,25.3,67.8,56.5c0,31.1-30.4,56.5-67.8,56.5
		s-67.8-25.3-67.8-56.5C1120.5,2704.6,1151,2679.3,1188.4,2679.3z" class="colorffffff svgShape"/><path fill="#1c1c1c" d="M1122.1,2794.4c17,14.9,40.5,24,66.3,24c25.8,0,49.2-9.1,66.3-24c17-14.9,27.7-35.6,27.7-58.6c0-23-10.7-43.8-27.7-58.6
		c-17-14.9-40.5-24-66.3-24c-25.8,0-49.2,9.1-66.3,24c-17,14.9-27.7,35.6-27.7,58.6C1094.4,2758.7,1105.1,2779.5,1122.1,2794.4z
		 M1127.4,2683.2c15.5-13.6,37.1-22,60.9-22c23.9,0,45.4,8.5,60.9,22c15.5,13.6,25,32.1,25,52.5c0,20.4-9.4,38.9-25,52.5
		c-15.5,13.6-37.1,22-60.9,22c-23.9,0-45.4-8.5-60.9-22c-15.5-13.6-25-32.1-25-52.5C1102.5,2715.3,1111.9,2696.8,1127.4,2683.2z" class="color000000 svgShape"/><path fill="#fff" d="M1188.4,2792.3c37.4,0,67.8-25.3,67.8-56.5c0-31.2-30.4-56.5-67.8-56.5s-67.8,25.3-67.8,56.5
		C1120.5,2766.9,1151,2792.3,1188.4,2792.3z" class="colorffffff svgShape"/><linearGradient id="m" x1="849.625" x2="852.326" y1="1186.432" y2="1186.432" gradientTransform="matrix(0 -57.4603 -57.4603 0 69361.078 51664.945)" gradientUnits="userSpaceOnUse"><stop class="stopColorfbd027 svgShape" offset="0" stop-color="#8aa2ff"/><stop class="stopColorfcefbc svgShape" offset="1" stop-color="#8b93e1"/></linearGradient><path fill="url(#m)" d="M1188.4,2792.3c37.4,0,67.8-25.3,67.8-56.5c0-31.2-30.4-56.5-67.8-56.5s-67.8,25.3-67.8,56.5
		C1120.5,2766.9,1151,2792.3,1188.4,2792.3z"/><path fill="#fff" d="M586,3036.6c15.5,13.6,37.1,22,60.9,22c23.9,0,45.4-8.5,60.9-22c15.5-13.6,25-32.1,25-52.5
		c0-20.4-9.4-38.9-25-52.5c-15.5-13.6-37.1-22-60.9-22c-23.9,0-45.4,8.5-60.9,22c-15.5,13.6-25,32.1-25,52.5
		C561.1,3004.5,570.5,3023,586,3036.6z M646.9,2927.6c37.4,0,67.8,25.3,67.8,56.5c0,31.1-30.4,56.5-67.8,56.5s-67.8-25.3-67.8-56.5
		C579.1,2952.9,609.5,2927.6,646.9,2927.6z" class="colorffffff svgShape"/><path fill="#1c1c1c" d="M580.7,3042.7c17,14.9,40.5,24,66.3,24c25.8,0,49.2-9.1,66.3-24c17-14.9,27.7-35.6,27.7-58.6c0-23-10.7-43.8-27.7-58.6
		c-17-14.9-40.5-24-66.3-24c-25.8,0-49.2,9.1-66.3,24c-17,14.9-27.7,35.6-27.7,58.6C552.9,3007,563.6,3027.8,580.7,3042.7z
		 M586,2931.5c15.5-13.6,37.1-22,60.9-22c23.9,0,45.4,8.5,60.9,22c15.5,13.6,25,32.1,25,52.5c0,20.4-9.4,38.9-25,52.5
		c-15.5,13.6-37.1,22-60.9,22c-23.9,0-45.4-8.5-60.9-22c-15.5-13.6-25-32.1-25-52.5C561.1,2963.6,570.5,2945.1,586,2931.5z" class="color000000 svgShape"/><path fill="#fff" d="M646.9,3040.5c37.4,0,67.8-25.3,67.8-56.5c0-31.2-30.4-56.5-67.8-56.5s-67.8,25.3-67.8,56.5
		C579.1,3015.2,609.5,3040.5,646.9,3040.5z" class="colorffffff svgShape"/><linearGradient id="n" x1="846.903" x2="849.605" y1="1192.367" y2="1192.367" gradientTransform="matrix(0 -57.4603 -57.4603 0 69160.648 51756.855)" gradientUnits="userSpaceOnUse"><stop class="stopColorfbd027 svgShape" offset="0" stop-color="#8aa2ff"/><stop class="stopColorfcefbc svgShape" offset="1" stop-color="#8b93e1"/></linearGradient><path fill="url(#n)" d="M646.9,3040.5c37.4,0,67.8-25.3,67.8-56.5c0-31.2-30.4-56.5-67.8-56.5s-67.8,25.3-67.8,56.5
		C579.1,3015.2,609.5,3040.5,646.9,3040.5z"/><path fill="#fff" d="M826.3,3036.6c15.5,13.6,37.1,22,60.9,22c23.9,0,45.4-8.5,60.9-22c15.5-13.6,25-32.1,25-52.5
		c0-20.4-9.4-38.9-25-52.5c-15.5-13.6-37.1-22-60.9-22c-23.9,0-45.4,8.5-60.9,22c-15.5,13.6-25,32.1-25,52.5
		C801.4,3004.5,810.8,3023,826.3,3036.6z" class="colorffffff svgShape"/><path fill="#1c1c1c" d="M821,3042.7c17,14.9,40.5,24,66.3,24c25.8,0,49.2-9.1,66.3-24c17-14.9,27.7-35.6,27.7-58.6c0-23-10.7-43.8-27.7-58.6
		c-17-14.9-40.5-24-66.3-24c-25.8,0-49.2,9.1-66.3,24c-17,14.9-27.7,35.6-27.7,58.6C793.2,3007,803.9,3027.8,821,3042.7z
		 M826.3,2931.5c15.5-13.6,37.1-22,60.9-22c23.9,0,45.4,8.5,60.9,22c15.5,13.6,25,32.1,25,52.5c0,20.4-9.4,38.9-25,52.5
		c-15.5,13.6-37.1,22-60.9,22c-23.9,0-45.4-8.5-60.9-22c-15.5-13.6-25-32.1-25-52.5C801.4,2963.6,810.8,2945.1,826.3,2931.5z" class="color000000 svgShape"/><path fill="#fff" d="M1068.1,3036.6c15.5,13.6,37.1,22,60.9,22c23.9,0,45.4-8.5,60.9-22c15.5-13.6,25-32.1,25-52.5
		c0-20.4-9.4-38.9-25-52.5c-15.5-13.6-37.1-22-60.9-22c-23.9,0-45.4,8.5-60.9,22c-15.5,13.6-25,32.1-25,52.5
		C1043.1,3004.5,1052.5,3023,1068.1,3036.6z" class="colorffffff svgShape"/><path fill="#1c1c1c" d="M1062.7,3042.7c17,14.9,40.5,24,66.3,24c25.8,0,49.2-9.1,66.3-24c17-14.9,27.7-35.6,27.7-58.6c0-23-10.7-43.8-27.7-58.6
		c-17-14.9-40.5-24-66.3-24c-25.8,0-49.2,9.1-66.3,24c-17,14.9-27.7,35.6-27.7,58.6C1035,3007,1045.7,3027.8,1062.7,3042.7z
		 M1068.1,2931.5c15.5-13.6,37.1-22,60.9-22c23.9,0,45.4,8.5,60.9,22c15.5,13.6,25,32.1,25,52.5c0,20.4-9.4,38.9-25,52.5
		c-15.5,13.6-37.1,22-60.9,22c-23.9,0-45.4-8.5-60.9-22c-15.5-13.6-25-32.1-25-52.5C1043.1,2963.6,1052.5,2945.1,1068.1,2931.5z" class="color000000 svgShape"/><path fill="#fff" d="M591.1,3296.1c23.9,0,45.4-8.5,60.9-22c15.5-13.6,25-32.1,25-52.5c0-20.4-9.4-39-25-52.5
		c-15.5-13.6-37.1-22-60.9-22c-23.9,0-45.4,8.5-60.9,22c-15.5,13.6-25,32.1-25,52.5c0,20.4,9.4,38.9,25,52.5
		C545.6,3287.6,567.2,3296.1,591.1,3296.1z" class="colorffffff svgShape"/><path fill="#1c1c1c" d="M657.3,3280.2c17-14.9,27.7-35.6,27.7-58.6c0-23-10.7-43.8-27.7-58.6c-17-14.9-40.5-24-66.3-24c-25.8,0-49.2,9.1-66.3,24
		c-17,14.9-27.7,35.6-27.7,58.6c0,23,10.7,43.8,27.7,58.6c17,14.9,40.5,24,66.3,24C616.8,3304.2,640.3,3295.1,657.3,3280.2z
		 M505.2,3221.6c0-20.4,9.4-39,25-52.5c15.5-13.6,37.1-22,60.9-22c23.9,0,45.4,8.5,60.9,22c15.5,13.6,25,32.1,25,52.5
		c0,20.4-9.4,38.9-25,52.5c-15.5,13.6-37.1,22-60.9,22c-23.9,0-45.4-8.5-60.9-22C514.6,3260.5,505.2,3242,505.2,3221.6z" class="color000000 svgShape"/><path fill="#fff" d="M770.4,3274.1c15.5,13.6,37.1,22,60.9,22c23.9,0,45.4-8.5,60.9-22c15.5-13.6,25-32.1,25-52.5
		c0-20.4-9.4-39-25-52.5c-15.5-13.6-37.1-22-60.9-22c-23.9,0-45.4,8.5-60.9,22c-15.5,13.6-25,32.1-25,52.5
		C745.5,3242,754.9,3260.5,770.4,3274.1z" class="colorffffff svgShape"/><path fill="#1c1c1c" d="M765.1,3280.2c17,14.9,40.5,24,66.3,24c25.8,0,49.2-9.1,66.3-24c17-14.9,27.7-35.6,27.7-58.6c0-23-10.7-43.8-27.7-58.6
		c-17-14.9-40.5-24-66.3-24c-25.8,0-49.2,9.1-66.3,24c-17,14.9-27.7,35.6-27.7,58.6C737.4,3244.6,748,3265.3,765.1,3280.2z
		 M770.4,3169c15.5-13.6,37.1-22,60.9-22c23.9,0,45.4,8.5,60.9,22c15.5,13.6,25,32.1,25,52.5c0,20.4-9.4,38.9-25,52.5
		c-15.5,13.6-37.1,22-60.9,22c-23.9,0-45.4-8.5-60.9-22c-15.5-13.6-25-32.1-25-52.5C745.5,3201.1,754.9,3182.6,770.4,3169z" class="color000000 svgShape"/><path fill="#fff" d="M1073.1,3296.1c23.9,0,45.4-8.5,60.9-22c15.5-13.6,25-32.1,25-52.5c0-20.4-9.4-39-25-52.5
		c-15.5-13.6-37.1-22-60.9-22c-23.9,0-45.4,8.5-60.9,22c-15.5,13.6-25,32.1-25,52.5c0,20.4,9.4,38.9,25,52.5
		C1027.7,3287.6,1049.2,3296.1,1073.1,3296.1z" class="colorffffff svgShape"/><path fill="#1c1c1c" d="M1139.4,3280.2c17-14.9,27.7-35.6,27.7-58.6c0-23-10.7-43.8-27.7-58.6c-17-14.9-40.5-24-66.3-24c-25.8,0-49.2,9.1-66.3,24
		c-17,14.9-27.7,35.6-27.7,58.6c0,23,10.7,43.8,27.7,58.6c17,14.9,40.5,24,66.3,24C1098.9,3304.2,1122.3,3295.1,1139.4,3280.2z
		 M987.2,3221.6c0-20.4,9.4-39,25-52.5c15.5-13.6,37.1-22,60.9-22c23.9,0,45.4,8.5,60.9,22c15.5,13.6,25,32.1,25,52.5
		c0,20.4-9.4,38.9-25,52.5c-15.5,13.6-37.1,22-60.9,22c-23.9,0-45.4-8.5-60.9-22C996.6,3260.5,987.2,3242,987.2,3221.6z" class="color000000 svgShape"/><path fill="#fff" d="M1129.5,777c-0.8,0.8-1.9,1.2-3,1.2c-1.1-0.1-2.2-0.6-2.9-1.5l-79.9-95.9l-50.2,41.6l124.6,153l325.4-312.6
		l-57.8-39.3L1129.5,777z" class="colorffffff svgShape"/><path fill="#1c1c1c" d="M1279.5,617.3L1127,768.2l-79.7-95.6c-1.4-1.7-4-2-5.7-0.5l-56.4,46.8c-1.7,1.4-2,4-0.6,5.7l17.8,21.9l5.1,6.3l107,131.4
		c0.7,0.9,1.8,1.4,2.9,1.5c1.1,0.1,2.2-0.3,3.1-1.1l311.9-299.6l6-5.7l14.3-13.8c0.9-0.8,1.3-2,1.2-3.3c-0.1-1.2-0.8-2.3-1.8-3
		l-64.6-44c-1.6-1.1-3.8-0.9-5.1,0.5l-96.2,95.2L1279.5,617.3z M1443.5,562.9L1118,875.5l-124.6-153l50.2-41.6l79.9,95.9
		c0.7,0.9,1.8,1.4,2.9,1.5c1.1,0.1,2.2-0.4,3-1.2l256.2-253.5L1443.5,562.9z" class="color000000 svgShape"/><path fill="#1c1c1c" d="M2762.1,3005.4l-88.6,100.4c-1.5,1.7-1.3,4.2,0.4,5.7c1.7,1.5,4.2,1.3,5.7-0.4l88.6-100.4c1.5-1.7,1.3-4.2-0.4-5.7
		C2766.1,3003.5,2763.6,3003.7,2762.1,3005.4z" class="color000000 svgShape"/><path fill="#1c1c1c" d="M1166.9,2162.4l25.3-74.8c0.7-2.1-0.4-4.4-2.5-5.1c-2.1-0.7-4.4,0.4-5.1,2.5l-25.3,74.8c-0.7,2.1,0.4,4.4,2.5,5.1
		C1163.9,2165.7,1166.2,2164.5,1166.9,2162.4z" class="color000000 svgShape"/><path fill="#1c1c1c" d="M612.4,2492.1c2.1,40.2,35.4,72.2,76.1,72.2c2.2,0,4.1-1.8,4.1-4.1c0-2.2-1.8-4.1-4.1-4.1v0c-18.8,0-35.8-7.6-48.2-20
		c-11.4-11.4-18.8-26.9-19.8-44.1c-0.1-1.3-0.1-2.7-0.1-4.1c0-1.4,0.1-2.7,0.1-4.1c1-17.2,8.4-32.7,19.8-44.1
		c12.3-12.3,29.3-20,48.2-20c18.8,0,35.8,7.6,48.2,20c11.4,11.4,18.8,26.9,19.8,44.1c0.1,1.3,0.1,2.7,0.1,4.1c0,2.2,1.8,4,4,4.1
		c0,0,0,0,0,0c0,0,0,0,0,0c2.2,0,4-1.8,4-4.1c0-1.4,0-2.7-0.1-4.1c-2.1-40.2-35.4-72.2-76.1-72.2c-40.7,0-74,32-76.1,72.2
		c-0.1,1.3-0.1,2.7-0.1,4.1C612.3,2489.4,612.4,2490.8,612.4,2492.1z" class="color000000 svgShape"/><path fill="#1c1c1c" d="M834.9,2492.1c2.1,40.2,35.4,72.2,76.1,72.2c2.2,0,4.1-1.8,4.1-4.1c0-2.2-1.8-4.1-4.1-4.1v0c-18.8,0-35.8-7.6-48.2-20
		c-11.4-11.4-18.8-26.9-19.8-44.1c-0.1-1.3-0.1-2.7-0.1-4.1c0-1.4,0.1-2.7,0.1-4.1c1-17.2,8.4-32.7,19.8-44.1
		c12.3-12.3,29.3-19.9,48.2-20c18.8,0,35.8,7.6,48.2,20c11.4,11.4,18.8,26.9,19.8,44.1c0.1,1.3,0.1,2.7,0.1,4.1c0,2.2,1.8,4,4,4.1
		c0,0,0,0,0,0s0,0,0,0c2.2,0,4-1.8,4-4.1c0-1.4,0-2.7-0.1-4.1c-2.1-40.2-35.4-72.2-76.1-72.2c-40.7,0-74,32-76.1,72.2
		c-0.1,1.3-0.1,2.7-0.1,4.1C834.8,2489.4,834.8,2490.8,834.9,2492.1z" class="color000000 svgShape"/><path fill="#1c1c1c" d="M1057.3,2492.1c2.1,40.2,35.4,72.2,76.1,72.2c2.2,0,4.1-1.8,4.1-4.1c0-2.2-1.8-4.1-4.1-4.1v0c-18.8,0-35.8-7.6-48.2-20
		c-11.4-11.4-18.8-26.9-19.8-44.1c-0.1-1.3-0.1-2.7-0.1-4.1c0-1.4,0.1-2.7,0.1-4.1c1-17.2,8.4-32.7,19.8-44.1
		c12.3-12.3,29.3-20,48.2-20c18.8,0,35.8,7.6,48.2,20c11.4,11.4,18.8,26.9,19.8,44.1c0.1,1.3,0.1,2.7,0.1,4.1c0,2.2,1.8,4,4,4.1
		c0,0,0,0,0,0c0,0,0,0,0,0c2.2,0,4-1.8,4-4.1c0-1.4,0-2.7-0.1-4.1c-2.1-40.2-35.4-72.2-76.1-72.2c-40.7,0-74,32-76.1,72.2
		c-0.1,1.3-0.1,2.7-0.1,4.1C1057.2,2489.4,1057.3,2490.8,1057.3,2492.1z" class="color000000 svgShape"/><path fill="#fff" d="M2621.3,1866.4c0.1,0.1,13.4,17.2,32.4,34.3c9.5,8.6,20.4,17.2,31.9,23.7c11.5,6.5,23.5,11,35.3,11
		c1.5,0,2.7-1.2,2.7-2.7c0-1.5-1.2-2.7-2.7-2.7c-10.4,0-21.6-4-32.6-10.3c-16.4-9.3-32.2-23.5-43.8-35.4
		c-5.8-5.9-10.5-11.3-13.8-15.1c-1.6-1.9-2.9-3.5-3.8-4.5c-0.4-0.5-0.8-0.9-1-1.2c-0.2-0.3-0.3-0.4-0.3-0.4
		c-0.9-1.2-2.6-1.4-3.8-0.5C2620.6,1863.5,2620.3,1865.2,2621.3,1866.4L2621.3,1866.4z" class="colorffffff svgShape"/><path fill="#1c1c1c" d="M3193.7,1249.1c0.8,0.8,1.8,1.2,2.9,1.2h190h84.6c1.1,0,2.1-0.4,2.9-1.2c27.8-27.8,43.3-43.3,71.1-71.1
		c0.8-0.8,1.2-1.8,1.2-2.9V758.7c0-1.1-0.4-2.1-1.2-2.9c-0.8-0.8-1.8-1.2-2.9-1.2h-345.7c-1.1,0-2.1,0.4-2.9,1.2
		c-0.8,0.8-1.2,1.8-1.2,2.9v310.4v177.1C3192.5,1247.3,3192.9,1248.3,3193.7,1249.1z M3538.2,762.8l0,410.6
		c-26.6,26.6-42.1,42.1-68.7,68.7h-86.1h-182.8v-170.5V762.8H3538.2z" class="color000000 svgShape"/><path fill="#1c1c1c" d="M3242.8,825.2h46c2.2,0,4.1-1.8,4.1-4.1c0-2.2-1.8-4.1-4.1-4.1h-46c-2.2,0-4.1,1.8-4.1,4.1
		C3238.7,823.4,3240.5,825.2,3242.8,825.2z" class="color000000 svgShape"/><path fill="#1c1c1c" d="M3342.5,825.2h157.6c2.2,0,4.1-1.8,4.1-4.1c0-2.2-1.8-4.1-4.1-4.1h-157.6c-2.2,0-4.1,1.8-4.1,4.1
		C3338.5,823.4,3340.3,825.2,3342.5,825.2z" class="color000000 svgShape"/><path fill="#1c1c1c" d="M3249.6,900.6h122c2.2,0,4.1-1.8,4.1-4.1c0-2.2-1.8-4.1-4.1-4.1h-122c-2.2,0-4.1,1.8-4.1,4.1
		C3245.6,898.8,3247.4,900.6,3249.6,900.6z" class="color000000 svgShape"/><path fill="#1c1c1c" d="M3419.2,894.6c-2.2,0-4.1,1.8-4.1,4.1c0,2.2,1.8,4.1,4.1,4.1h82.8c2.2,0,4.1-1.8,4.1-4.1c0-2.2-1.8-4.1-4.1-4.1H3419.2z" class="color000000 svgShape"/><path fill="#1c1c1c" d="M3464.7,976.4c0-2.2-1.8-4.1-4.1-4.1h-211.1c-2.2,0-4.1,1.8-4.1,4.1c0,2.2,1.8,4.1,4.1,4.1h211.1
		C3462.9,980.5,3464.7,978.7,3464.7,976.4z" class="color000000 svgShape"/><path fill="#1c1c1c" d="M3500.1,1039.3h-157.6c-2.2,0-4.1,1.8-4.1,4.1c0,2.2,1.8,4.1,4.1,4.1h157.6c2.2,0,4.1-1.8,4.1-4.1
		C3504.2,1041.1,3502.4,1039.3,3500.1,1039.3z" class="color000000 svgShape"/><path fill="#1c1c1c" d="M3238.7,1098.5c0,2.2,1.8,4.1,4.1,4.1h23.6h116.3c2.2,0,4.1-1.8,4.1-4.1c0-2.2-1.8-4.1-4.1-4.1h-129.9h-10
		C3240.5,1094.5,3238.7,1096.3,3238.7,1098.5z" class="color000000 svgShape"/><path fill="#1c1c1c" d="M3515.4,1438.3c-1.4-0.3-2.9,0.2-3.8,1.3l-67,74.8c-0.9,1-1.2,2.3-0.9,3.6c0.3,1.3,1.2,2.3,2.4,2.8l108.3,43.3
		c1.5,0.6,3.2,0.3,4.3-0.8c1.1-1.1,1.5-2.8,1-4.3l-41.4-118.2C3517.9,1439.5,3516.8,1438.5,3515.4,1438.3z M3454.5,1515.5l58.5-65.4
		l36.2,103.3L3454.5,1515.5z" class="color000000 svgShape"/><path fill="#1c1c1c" d="M2740.5,1006.5h84.7c2.2,0,4.1-1.8,4.1-4.1c0-2.2-1.8-4.1-4.1-4.1h-84.7c-2.2,0-4.1,1.8-4.1,4.1
		C2736.4,1004.7,2738.3,1006.5,2740.5,1006.5z" class="color000000 svgShape"/><path fill="#1c1c1c" d="M2879.9,3055.1c-1.8-1.4-4.3-1-5.7,0.7l-25.1,32.5c-1.4,1.8-1,4.3,0.7,5.7c1.8,1.4,4.3,1,5.7-0.7l25.1-32.5
		C2882,3059,2881.6,3056.4,2879.9,3055.1z" class="color000000 svgShape"/><path fill="#1c1c1c" d="M906,2066.7c17.3,17.3,41.1,28,67.5,28c26.4,0,50.2-10.7,67.5-28c17.3-17.3,28-41.1,28-67.5c0-26.4-10.7-50.2-28-67.5
		c-17.3-17.3-41.1-28-67.5-28c-26.4,0-50.2,10.7-67.5,28c-17.3,17.3-28,41.1-28,67.5C878.1,2025.6,888.7,2049.4,906,2066.7z
		 M892.4,1971.5l53.5-7.8l23.9-48.5c0.7-1.4,2.1-2.3,3.6-2.3c1.5,0,3,0.9,3.6,2.3l23.9,48.5l53.5,7.8c1.5,0.2,2.8,1.3,3.3,2.8
		c0.5,1.5,0.1,3.1-1,4.2l-38.7,37.8l9.1,53.3c0.3,1.5-0.4,3.1-1.6,4c-1.2,0.9-2.9,1-4.3,0.3l-47.9-25.2l-47.9,25.2
		c-1.4,0.7-3,0.6-4.3-0.3c-1.2-0.9-1.9-2.4-1.6-4l9.1-53.3l-38.7-37.8c-1.1-1.1-1.5-2.7-1-4.2S890.9,1971.7,892.4,1971.5z" class="color000000 svgShape"/><path fill="#1c1c1c" d="M870,1999.2c0,57.2,46.4,103.6,103.6,103.6c57.2,0,103.6-46.4,103.6-103.6c0-57.2-46.4-103.6-103.6-103.6
		C916.3,1895.6,870,1942,870,1999.2z M973.5,1903.7c26.4,0,50.2,10.7,67.5,28c17.3,17.3,28,41.1,28,67.5c0,26.4-10.7,50.2-28,67.5
		c-17.3,17.3-41.1,28-67.5,28c-26.4,0-50.2-10.7-67.5-28c-17.3-17.3-28-41.1-28-67.5c0-26.4,10.7-50.2,28-67.5
		C923.3,1914.4,947.2,1903.8,973.5,1903.7z" class="color000000 svgShape"/><path fill="#fff" d="M936.1,2011.8c1,0.9,1.4,2.3,1.2,3.6l-8.1,47.3l42.5-22.3c1.2-0.6,2.6-0.6,3.8,0l42.5,22.3l-8.1-47.3
		c-0.2-1.3,0.2-2.7,1.2-3.6l34.4-33.5l-47.5-6.9c-1.3-0.2-2.5-1-3.1-2.2l-21.3-43.1l-21.3,43.1c-0.6,1.2-1.7,2-3.1,2.2l-47.5,6.9
		L936.1,2011.8z" class="colorffffff svgShape"/><path fill="#1c1c1c" d="M890.2,1978.4l38.7,37.8l-9.1,53.3c-0.3,1.5,0.4,3.1,1.6,4c1.2,0.9,2.9,1,4.3,0.3l47.9-25.2l47.9,25.2
		c1.4,0.7,3,0.6,4.3-0.3c1.2-0.9,1.9-2.4,1.6-4l-9.1-53.3l38.7-37.8c1.1-1.1,1.5-2.7,1-4.2c-0.5-1.5-1.7-2.5-3.3-2.8l-53.5-7.8
		l-23.9-48.5c-0.7-1.4-2.1-2.3-3.6-2.3c-1.5,0-3,0.9-3.6,2.3l-23.9,48.5l-53.5,7.8c-1.5,0.2-2.8,1.3-3.3,2.8
		S889.1,1977.3,890.2,1978.4z M952.3,1969.2l21.3-43.1l21.3,43.1c0.6,1.2,1.7,2,3.1,2.2l47.5,6.9l-34.4,33.5c-1,0.9-1.4,2.3-1.2,3.6
		l8.1,47.3l-42.5-22.3c-1.2-0.6-2.6-0.6-3.8,0l-42.5,22.3l8.1-47.3c0.2-1.3-0.2-2.7-1.2-3.6l-34.4-33.5l47.5-6.9
		C950.5,1971.2,951.7,1970.4,952.3,1969.2z" class="color000000 svgShape"/><path fill="#1c1c1c" d="M2293.4,1520.5c31,30.1,64.1,61.9,93.7,89.7c29.7,27.8,55.9,51.4,73.2,65.3c1.7,1.4,4.3,1.1,5.7-0.6
		c1.4-1.7,1.1-4.3-0.6-5.7c-17-13.6-43.2-37.2-72.8-64.9c-44.4-41.5-96.6-92.3-137.7-132.7c-20.5-20.2-38.3-37.8-50.9-50.3
		c-6.3-6.3-11.3-11.3-14.8-14.7c-3.5-3.4-5.3-5.3-5.3-5.3c-1.6-1.6-4.1-1.6-5.7,0c-1.6,1.6-1.6,4.1,0,5.7l0,0
		C2178.2,1407,2231.5,1460.3,2293.4,1520.5z" class="color000000 svgShape"/><path fill="#1c1c1c" d="M3085.2,2059.5c1-2,0.2-4.4-1.7-5.5c-2-1-4.4-0.2-5.5,1.7v0c0,0-0.2,0.4-0.5,1c-1.2,2.3-4.3,8.1-7.8,13.9
		c-1.7,2.9-3.5,5.8-5.2,8.2c-1.7,2.4-3.3,4.3-4.2,5.1c0,0,0,0,0,0c-1.7,1.5-1.8,4-0.4,5.7c1.5,1.7,4,1.8,5.7,0.4
		c1.1-1,2.1-2.1,3.1-3.4c0.4-0.4,0.7-0.9,1.1-1.4c3.3-4.4,6.8-10.3,9.7-15.4C3082.8,2064.1,3085.2,2059.5,3085.2,2059.5z" class="color000000 svgShape"/><path fill="#1c1c1c" d="M3111.2,2086.7c2.8-4.8,5.1-9.8,6.5-14.8c0.6-2.2-0.7-4.4-2.8-5c-2.2-0.6-4.4,0.7-5,2.8c-1.1,4-3.2,8.5-5.7,12.9
		c-3.8,6.6-8.6,13.1-12.5,17.9c-1.9,2.4-3.6,4.4-4.8,5.7c-0.6,0.7-1.1,1.2-1.4,1.6l-0.4,0.4l-0.1,0.1c-0.9,0.9-1.2,2.1-1,3.3
		c0.1,0.9,0.5,1.8,1.2,2.4c1.6,1.5,4.2,1.4,5.7-0.2l0,0c0,0,0.5-0.6,1.3-1.5c1.9-2.2,5.8-6.6,10-12.3
		C3105.3,2096.1,3108.5,2091.5,3111.2,2086.7z" class="color000000 svgShape"/><path fill="#1c1c1c" d="M3141.2,2104.6c2.4-4.4,4.4-8.5,5.4-12.2c0.6-2.2-0.7-4.4-2.9-5c-2.2-0.6-4.4,0.7-5,2.9c-0.6,2.4-2.4,6.3-4.6,10.4
		c-3.4,6.2-7.9,13.2-11.6,18.6c-1.8,2.7-3.4,5-4.6,6.6c-0.6,0.8-1,1.5-1.4,1.9s-0.5,0.7-0.5,0.7c0,0.1-0.1,0.1-0.1,0.2
		c-1.2,1.8-0.8,4.2,1,5.5c1.8,1.3,4.3,0.9,5.7-0.9l0,0c0,0,0.1-0.2,0.3-0.5c1.2-1.7,5.6-7.7,10.2-14.9
		C3135.9,2113.6,3138.8,2109,3141.2,2104.6z" class="color000000 svgShape"/><path fill="#1c1c1c" d="M1155.3,1196.4c0,0,0.6,0.7,1.8,2.1c4.1,4.8,14.4,17,25.1,30.3c5.3,6.7,10.7,13.7,15.4,20.1c4.7,6.5,8.7,12.4,11.2,16.9
		c1.1,2,3.6,2.7,5.5,1.6c2-1.1,2.7-3.6,1.6-5.5c-3.2-5.7-8.2-12.9-13.9-20.6c-14.6-19.7-34-42.5-39.3-48.6c-0.9-1-1.4-1.6-1.4-1.6
		c-1.5-1.7-4-1.9-5.7-0.4c-1.4,1.2-1.8,3.2-1,4.9C1154.9,1195.9,1155.1,1196.1,1155.3,1196.4L1155.3,1196.4z" class="color000000 svgShape"/><path fill="#1c1c1c" d="M1179.7,1270.8c1.7-1.4,2-4,0.6-5.7l-54.9-67.6l-0.5-0.6c-1.4-1.7-4-2-5.7-0.6c-1.7,1.4-2,4-0.6,5.7l0.4,0.5l55,67.8
		C1175.4,1272,1178,1272.3,1179.7,1270.8z" class="color000000 svgShape"/><path fill="#1c1c1c" d="M1143.3,1275.8c1.7-1.5,1.9-4,0.5-5.7l-52.8-61.8l-0.5-0.6c-1.5-1.7-4-1.9-5.7-0.5s-1.9,4-0.5,5.7l0.4,0.5l52.8,61.9
		C1139.1,1277.1,1141.6,1277.3,1143.3,1275.8z" class="color000000 svgShape"/></svg>