<svg xmlns="http://www.w3.org/2000/svg" enable-background="new 0 0 700 700" viewBox="0 0 700 700"><path d="M144.741394,444.3155518c-0.1445313,0-0.2802734-0.0898438-0.3300781-0.234375       c-0.6630859-1.8955078-1.3037109-3.8125-1.9042969-5.6972656c-0.0585938-0.1845703,0.0439453-0.3808594,0.2275391-0.4404297       c0.1816406-0.0556641,0.3808594,0.0439453,0.4404297,0.2275391c0.5976563,1.8789063,1.2363281,3.7900391,1.8964844,5.6796875       c0.0644531,0.1826172-0.0322266,0.3818359-0.2148438,0.4453125       C144.8185425,444.3096924,144.77948,444.3155518,144.741394,444.3155518z" class="color000000 svgShape"/><path d="M139.5568237,427.2393799c-0.15625,0-0.2978516-0.1044922-0.3388672-0.2617188       c-0.9853516-3.8066406-1.8789063-7.7001953-2.65625-11.5722656c-0.0380859-0.1894531,0.0839844-0.3740234,0.2734375-0.4121094       c0.1962891-0.0390625,0.3740234,0.0849609,0.4121094,0.2734375c0.7753906,3.8603516,1.6669922,7.7412109,2.6484375,11.5351563       c0.0488281,0.1875-0.0644531,0.3779297-0.2509766,0.4267578       C139.6154175,427.2364502,139.585144,427.2393799,139.5568237,427.2393799z M562.2931519,408.7813721       c-0.0185547,0-0.0380859-0.0009766-0.0576172-0.0039063c-0.1904297-0.0322266-0.3193359-0.2128906-0.2880859-0.4033203       c0.6455078-3.8671875,1.1933594-7.8115234,1.6279297-11.7246094c0.0214844-0.1914063,0.1845703-0.3300781,0.3867188-0.3085938       c0.1914063,0.0214844,0.3300781,0.1943359,0.3085938,0.3867188c-0.4355469,3.9248047-0.9853516,7.8828125-1.6318359,11.7617188       C562.6095581,408.6602783,562.4611206,408.7813721,562.2931519,408.7813721z M134.8947144,404.0040283       c-0.171875,0-0.3212891-0.125-0.3466797-0.2998047c-0.5625-3.9082031-1.0234375-7.8759766-1.3681641-11.7939453       c-0.0166016-0.1923828,0.125-0.3623047,0.3183594-0.3789063c0.1943359-0.0224609,0.3623047,0.1259766,0.3789063,0.3183594       c0.34375,3.9042969,0.8027344,7.859375,1.3642578,11.7548828c0.0273438,0.1914063-0.1054688,0.3691406-0.296875,0.3964844       C134.9279175,404.0030518,134.9113159,404.0040283,134.8947144,404.0040283z M564.9093628,385.2237549       c-0.0058594,0-0.0126953,0-0.0195313,0c-0.1933594-0.0107422-0.3408203-0.1757813-0.3300781-0.3691406       c0.2197266-3.9111328,0.3359375-7.8925781,0.34375-11.8330078c0-0.1923828,0.15625-0.3486328,0.3496094-0.3486328       c0,0,0,0,0.0009766,0c0.1933594,0,0.3496094,0.1572266,0.3486328,0.3505859       c-0.0078125,3.953125-0.1230469,7.9462891-0.34375,11.8701172       C565.24823,385.0802002,565.0939331,385.2237549,564.9093628,385.2237549z M132.803894,380.3966064       c-0.1884766,0-0.34375-0.1484375-0.3496094-0.3378906c-0.0849609-2.4951172-0.1269531-5.015625-0.1269531-7.4912109       c0-1.4628906,0.0146484-2.9238281,0.0439453-4.3808594c0.0039063-0.1914063,0.1591797-0.3427734,0.3496094-0.3427734       c0.0019531,0,0.0048828,0,0.0068359,0c0.1933594,0.0039063,0.3466797,0.1630859,0.3427734,0.3564453       c-0.0292969,1.453125-0.0439453,2.9082031-0.0439453,4.3671875c0,2.4677734,0.0429688,4.9804688,0.1269531,7.4677734       c0.0068359,0.1933594-0.1445313,0.3544922-0.3378906,0.3613281       C132.8117065,380.3966064,132.8078003,380.3966064,132.803894,380.3966064z M564.9572144,361.5216064       c-0.1855469,0-0.3398438-0.1445313-0.3496094-0.3310547c-0.203125-3.9267578-0.5166016-7.8955078-0.9326172-11.7949219       c-0.0205078-0.1923828,0.1181641-0.3642578,0.3105469-0.3847656c0.1972656-0.0283203,0.3652344,0.1181641,0.3847656,0.3105469       c0.4179688,3.9121094,0.7324219,7.8935547,0.9365234,11.8320313c0.0097656,0.1933594-0.1386719,0.3583984-0.3310547,0.3681641       C564.9689331,361.5216064,564.9630737,361.5216064,564.9572144,361.5216064z M133.2755737,356.7061768       c-0.0087891,0-0.0175781,0-0.0263672-0.0009766c-0.1923828-0.0136719-0.3369141-0.1816406-0.3222656-0.375       c0.2910156-3.9316406,0.6953125-7.9052734,1.2001953-11.8085938c0.0244141-0.1914063,0.1923828-0.3251953,0.3916016-0.3017578       c0.1914063,0.0244141,0.3271484,0.2001953,0.3017578,0.3916016c-0.5029297,3.890625-0.9052734,7.8505859-1.1962891,11.7714844       C133.6105347,356.5665283,133.4572144,356.7061768,133.2755737,356.7061768z M562.4435425,337.9639893       c-0.1689453,0-0.3173828-0.1220703-0.3457031-0.2939453c-0.6308594-3.8828125-1.3769531-7.7929688-2.2177734-11.6220703       c-0.0419922-0.1884766,0.078125-0.3759766,0.2666016-0.4169922c0.1923828-0.046875,0.375,0.078125,0.4169922,0.2666016       c0.84375,3.8417969,1.5917969,7.7646484,2.2255859,11.6611328c0.03125,0.1904297-0.0986328,0.3701172-0.2890625,0.4013672       C562.4806519,337.9630127,562.4620972,337.9639893,562.4435425,337.9639893z M136.3146362,333.2091064       c-0.0205078,0-0.0419922-0.0019531-0.0634766-0.0058594c-0.1904297-0.0351563-0.3164063-0.2177734-0.2802734-0.4072266       c0.7197266-3.8798828,1.5556641-7.7851563,2.4863281-11.6074219c0.0458984-0.1875,0.2324219-0.3007813,0.4228516-0.2568359       c0.1875,0.0458984,0.3027344,0.234375,0.2568359,0.4228516c-0.9267578,3.8085938-1.7607422,7.7011719-2.4785156,11.5683594       C136.6271362,333.0919189,136.4806519,333.2091064,136.3146362,333.2091064z M557.3634644,314.8214111       c-0.1533203,0-0.2939453-0.1005859-0.3369141-0.2558594c-1.0546875-3.7900391-2.2265625-7.5947266-3.484375-11.3076172       c-0.0625-0.1835938,0.0361328-0.3818359,0.21875-0.4433594s0.3818359,0.0361328,0.4433594,0.21875       c1.2626953,3.7255859,2.4384766,7.5419922,3.4960938,11.3447266c0.0517578,0.1865234-0.0566406,0.3789063-0.2431641,0.4306641       C557.4259644,314.8175049,557.3947144,314.8214111,557.3634644,314.8214111z M141.9142456,310.1885986       c-0.0332031,0-0.0673828-0.0048828-0.1015625-0.015625c-0.1845703-0.0556641-0.2890625-0.2509766-0.2333984-0.4365234       c1.1464844-3.7871094,2.4111328-7.5849609,3.7597656-11.2880859c0.0664063-0.1816406,0.2675781-0.2773438,0.4492188-0.2089844       c0.1816406,0.0664063,0.2753906,0.2675781,0.2089844,0.4492188c-1.3447266,3.6904297-2.6054688,7.4755859-3.7480469,11.2509766       C142.2033081,310.0909424,142.0646362,310.1885986,141.9142456,310.1885986z M549.7628784,292.3800049       c-0.1386719,0-0.2695313-0.0839844-0.3251953-0.2207031c-1.4609375-3.6396484-3.0419922-7.2851563-4.7001953-10.8349609       c-0.0810547-0.1757813-0.0058594-0.3837891,0.1689453-0.4658203c0.1738281-0.0839844,0.3837891-0.0068359,0.4658203,0.1689453       c1.6630859,3.5615234,3.2490234,7.2197266,4.7158203,10.8710938c0.0712891,0.1796875-0.015625,0.3837891-0.1953125,0.4560547       C549.850769,292.3712158,549.8068237,292.3800049,549.7628784,292.3800049z M150.0363159,287.8760986       c-0.0458984,0-0.0927734-0.0087891-0.1376953-0.0283203c-0.1777344-0.0751953-0.2597656-0.28125-0.1835938-0.4589844       c1.5478516-3.6171875,3.2226563-7.25,4.9785156-10.7978516c0.0849609-0.1738281,0.2978516-0.2460938,0.46875-0.1582031       c0.1728516,0.0859375,0.2441406,0.2958984,0.1582031,0.46875c-1.7490234,3.5361328-3.4189453,7.1572266-4.9628906,10.7626953       C150.3009644,287.7969971,150.1720581,287.8760986,150.0363159,287.8760986z M539.7560425,270.9434814       c-0.125,0-0.2451172-0.0664063-0.3085938-0.1845703c-1.8525391-3.4570313-3.8251953-6.9091797-5.8632813-10.2617188       c-0.1005859-0.1650391-0.0478516-0.3798828,0.1171875-0.4804688c0.1640625-0.1005859,0.3808594-0.0478516,0.4804688,0.1171875       c2.0449219,3.3623047,4.0244141,6.8261719,5.8828125,10.2949219c0.0908203,0.1699219,0.0273438,0.3818359-0.1435547,0.4736328       C539.8683472,270.9307861,539.8117065,270.9434814,539.7560425,270.9434814z M160.5617065,266.6104736       c-0.0585938,0-0.1181641-0.0146484-0.171875-0.0449219c-0.1689453-0.0947266-0.2275391-0.3085938-0.1328125-0.4765625       c1.9433594-3.4365234,4.0058594-6.8613281,6.1308594-10.1796875c0.1054688-0.1640625,0.3222656-0.2089844,0.4833984-0.1064453       c0.1630859,0.1044922,0.2109375,0.3212891,0.1064453,0.4833984c-2.1181641,3.3076172-4.1748047,6.7216797-6.1113281,10.1464844       C160.8019409,266.5469971,160.6837769,266.6104736,160.5617065,266.6104736z M527.4562378,250.7218018       c-0.1113281,0-0.2207031-0.0527344-0.2890625-0.1513672c-2.2207031-3.2402344-4.5605469-6.4589844-6.9521484-9.5664063       c-0.1181641-0.1533203-0.0888672-0.3730469,0.0634766-0.4912109c0.1542969-0.1162109,0.3720703-0.0888672,0.4912109,0.0634766       c2.3994141,3.1191406,4.7460938,6.3476563,6.9755859,9.5976563c0.1083984,0.1601563,0.0683594,0.3779297-0.0908203,0.4873047       C527.5939331,250.7022705,527.5245972,250.7218018,527.4562378,250.7218018z M173.3488159,246.6378174       c-0.0712891,0-0.1425781-0.0214844-0.2041016-0.0654297c-0.1572266-0.1132813-0.1923828-0.3320313-0.0800781-0.4892578       c2.3037109-3.1962891,4.7265625-6.3740234,7.203125-9.4443359c0.1220703-0.1513672,0.34375-0.171875,0.4921875-0.0527344       c0.1503906,0.1210938,0.1738281,0.3417969,0.0527344,0.4921875c-2.46875,3.0605469-4.8837891,6.2275391-7.1796875,9.4140625       C173.5646362,246.5880127,173.4572144,246.6378174,173.3488159,246.6378174z M513.0158081,231.9503174       c-0.0986328,0-0.1962891-0.0410156-0.265625-0.1210938c-2.5644531-2.9814453-5.2412109-5.9277344-7.9570313-8.7578125       c-0.1337891-0.1396484-0.1289063-0.3613281,0.0107422-0.4951172c0.1376953-0.1328125,0.359375-0.1298828,0.4951172,0.0107422       c2.7236328,2.8388672,5.4091797,5.7949219,7.9824219,8.7851563c0.1259766,0.1464844,0.109375,0.3681641-0.0371094,0.4941406       C513.1779175,231.9229736,513.0968628,231.9503174,513.0158081,231.9503174z M188.232605,228.1866455       c-0.0839844,0-0.1669922-0.0292969-0.234375-0.0898438c-0.1435547-0.1289063-0.1552734-0.3505859-0.0253906-0.4941406       c2.6396484-2.9306641,5.3935547-5.8242188,8.1845703-8.6005859c0.1386719-0.1367188,0.3603516-0.1337891,0.4951172,0.0009766       c0.1367188,0.1376953,0.1357422,0.3583984-0.0009766,0.4951172c-2.7822266,2.7675781-5.5273438,5.6523438-8.1591797,8.5732422       C188.4240112,228.147583,188.3283081,228.1866455,188.232605,228.1866455z M496.6095581,214.8526611       c-0.0859375,0-0.171875-0.03125-0.2392578-0.09375c-2.8740234-2.6855469-5.8564453-5.3242188-8.8642578-7.8427734       c-0.1484375-0.1240234-0.1679688-0.3447266-0.0439453-0.4931641c0.125-0.1484375,0.3457031-0.1669922,0.4931641-0.0439453       c3.0175781,2.5273438,6.0097656,5.1738281,8.8935547,7.8681641c0.140625,0.1318359,0.1484375,0.3535156,0.0166016,0.4951172       C496.7960815,214.8155518,496.7033081,214.8526611,496.6095581,214.8526611z M205.02948,211.4718018       c-0.0957031,0-0.1923828-0.0390625-0.2607422-0.1162109c-0.1289063-0.1445313-0.1162109-0.3662109,0.0273438-0.4941406       c2.9365234-2.6201172,5.9873047-5.1962891,9.0673828-7.6572266c0.1503906-0.1201172,0.3710938-0.0957031,0.4921875,0.0546875       c0.1210938,0.1513672,0.0957031,0.3710938-0.0546875,0.4921875c-3.0712891,2.453125-6.1123047,5.0214844-9.0380859,7.6318359       C205.1954956,211.4425049,205.1124878,211.4718018,205.02948,211.4718018z M478.43573,199.6358643       c-0.0732422,0-0.1464844-0.0224609-0.2099609-0.0693359c-3.1464844-2.3554688-6.4003906-4.6542969-9.6708984-6.8339844       c-0.1601563-0.1064453-0.2041016-0.3242188-0.0966797-0.4853516c0.1083984-0.1611328,0.3261719-0.203125,0.4853516-0.0966797       c3.2802734,2.1865234,6.5449219,4.4931641,9.7021484,6.8554688c0.1542969,0.1162109,0.1865234,0.3349609,0.0703125,0.4902344       C478.647644,199.5880127,478.5421753,199.6358643,478.43573,199.6358643z M223.5353394,196.6895752       c-0.109375,0-0.2167969-0.0507813-0.2851563-0.1464844c-0.1123047-0.1572266-0.0751953-0.3759766,0.0820313-0.4882813       c3.2011719-2.2832031,6.5126953-4.5107422,9.8417969-6.6210938c0.1630859-0.1015625,0.3779297-0.0566406,0.4833984,0.1083984       c0.1035156,0.1630859,0.0546875,0.3798828-0.1083984,0.4833984c-3.3183594,2.1025391-6.6191406,4.3232422-9.8105469,6.5996094       C223.6769409,196.6690674,223.6056519,196.6895752,223.5353394,196.6895752z M458.701355,186.4854736       c-0.0605469,0-0.1220703-0.015625-0.1777344-0.0478516c-3.3828125-1.9970703-6.8710938-3.9267578-10.3662109-5.7373047       c-0.171875-0.0888672-0.2382813-0.2998047-0.1494141-0.4716797c0.0908203-0.171875,0.3007813-0.2382813,0.4716797-0.1494141       c3.5068359,1.8154297,7.0058594,3.7519531,10.3994141,5.7548828c0.1669922,0.0986328,0.2216797,0.3134766,0.1240234,0.4794922       C458.9376831,186.4239502,458.8204956,186.4854736,458.701355,186.4854736z M243.5324097,184.0186768       c-0.1220703,0-0.2412109-0.0644531-0.3056641-0.1787109c-0.09375-0.1689453-0.0341797-0.3818359,0.1347656-0.4765625       c3.4316406-1.9199219,6.9648438-3.7705078,10.5009766-5.5019531c0.1748047-0.0839844,0.3847656-0.0126953,0.46875,0.1601563       c0.0849609,0.1738281,0.0126953,0.3837891-0.1601563,0.46875c-3.5253906,1.7255859-7.046875,3.5703125-10.4677734,5.484375       C243.6495972,184.0050049,243.5910034,184.0186768,243.5324097,184.0186768z M437.6329956,175.5733643       c-0.0478516,0-0.0966797-0.0097656-0.1435547-0.0302734c-3.578125-1.6113281-7.2587891-3.1474609-10.9394531-4.5654297       c-0.1796875-0.0693359-0.2705078-0.2714844-0.2001953-0.4521484c0.0693359-0.1796875,0.2705078-0.2714844,0.4521484-0.2001953       c3.6923828,1.421875,7.3847656,2.9628906,10.9746094,4.5791016c0.1767578,0.0791016,0.2548828,0.2871094,0.1757813,0.4628906       C437.8937378,175.4971924,437.7658081,175.5733643,437.6329956,175.5733643z M264.7824097,173.6192627       c-0.1367188,0-0.265625-0.0800781-0.3222656-0.2128906c-0.0751953-0.1787109,0.0078125-0.3837891,0.1855469-0.4589844       c3.6259766-1.5341797,7.3388672-2.9853516,11.0341797-4.3125c0.1806641-0.0703125,0.3818359,0.0292969,0.4472656,0.2109375       s-0.0292969,0.3818359-0.2109375,0.4472656c-3.6835938,1.3242188-7.3837891,2.7705078-10.9970703,4.2988281       C264.8742065,173.6104736,264.8283081,173.6192627,264.7824097,173.6192627z M415.4806519,167.0411377       c-0.0351563,0-0.0722656-0.0048828-0.1074219-0.0166016c-3.7353516-1.2060547-7.5556641-2.3232422-11.3564453-3.3222656       c-0.1875-0.0498047-0.2988281-0.2412109-0.25-0.4277344c0.0498047-0.1865234,0.2412109-0.2998047,0.4277344-0.25       c3.8134766,1.0029297,7.6464844,2.1240234,11.3935547,3.3339844c0.1835938,0.0595703,0.2851563,0.2568359,0.2255859,0.4404297       C415.7658081,166.9473877,415.6281128,167.0411377,415.4806519,167.0411377z M287.0568237,165.6153564       c-0.1513672,0-0.2900391-0.0986328-0.3349609-0.2509766c-0.0556641-0.1845703,0.0498047-0.3798828,0.2353516-0.4345703       c3.7792969-1.1269531,7.6367188-2.1630859,11.4648438-3.078125c0.1933594-0.0419922,0.3759766,0.0722656,0.421875,0.2597656       c0.0449219,0.1875-0.0712891,0.3769531-0.2597656,0.421875c-3.8144531,0.9111328-7.6591797,1.9433594-11.4277344,3.0664063       C287.12323,165.6104736,287.0900269,165.6153564,287.0568237,165.6153564z M392.5636597,161.0167236       c-0.0224609,0-0.046875-0.0019531-0.0703125-0.0068359c-3.8486328-0.7871094-7.7685547-1.4775391-11.6513672-2.0517578       c-0.1914063-0.0283203-0.3242188-0.2070313-0.2958984-0.3974609c0.0292969-0.1904297,0.2167969-0.3125,0.3974609-0.2958984       c3.8955078,0.5771484,7.8291016,1.2695313,11.6904297,2.0595703c0.1894531,0.0390625,0.3115234,0.2236328,0.2724609,0.4130859       C392.8722534,160.9034424,392.7267456,161.0167236,392.5636597,161.0167236z M310.100769,160.1055908       c-0.1660156,0-0.3134766-0.1181641-0.3447266-0.2871094c-0.0341797-0.1904297,0.0917969-0.3720703,0.2822266-0.4072266       c3.8798828-0.703125,7.8271484-1.3085938,11.7324219-1.7978516c0.2128906-0.03125,0.3671875,0.1132813,0.3916016,0.3037109       c0.0234375,0.1923828-0.1123047,0.3671875-0.3037109,0.3916016c-3.8935547,0.4873047-7.828125,1.0898438-11.6953125,1.7919922       C310.1417847,160.1046143,310.1212769,160.1055908,310.100769,160.1055908z M369.1261597,157.5489502       c-0.0107422,0-0.0214844,0-0.0322266-0.0009766c-3.9121094-0.3613281-7.8837891-0.6201172-11.8066406-0.7685547       c-0.1923828-0.0068359-0.34375-0.1699219-0.3359375-0.3632813c0.0068359-0.1884766,0.1621094-0.3359375,0.3496094-0.3359375       c0.0039063,0,0.0087891,0,0.0136719,0c3.9345703,0.1494141,7.9189453,0.4082031,11.84375,0.7705078       c0.1923828,0.0175781,0.3339844,0.1884766,0.3164063,0.3808594       C369.4581909,157.413208,369.3048706,157.5489502,369.1261597,157.5489502z M333.6085815,157.1593018       c-0.1826172,0-0.3359375-0.140625-0.3496094-0.3251953c-0.0126953-0.1923828,0.1318359-0.3603516,0.3251953-0.3740234       c3.9306641-0.2753906,7.9208984-0.4472656,11.859375-0.5087891c0.1914063,0.0410156,0.3525391,0.1503906,0.3554688,0.34375       s-0.1503906,0.3525391-0.34375,0.3554688c-3.9267578,0.0625-7.9042969,0.2333984-11.8222656,0.5087891       C333.6251831,157.1593018,333.616394,157.1593018,333.6085815,157.1593018z" class="color000000 svgShape"/><path d="M558.5656128,426.4942627c-0.0283203,0-0.0576172-0.0029297-0.0859375-0.0107422       c-0.1875-0.046875-0.3007813-0.2382813-0.2529297-0.4248047c0.4912109-1.9306641,0.9609375-3.8896484,1.3964844-5.8232422       c0.0429688-0.1875,0.2265625-0.3056641,0.4189453-0.2646484c0.1884766,0.0429688,0.3066406,0.2304688,0.2646484,0.4189453       c-0.4375,1.9394531-0.9091797,3.9052734-1.4023438,5.8408203       C558.8644409,426.3897705,558.7218628,426.4942627,558.5656128,426.4942627z" class="color000000 svgShape"/><path d="M321.9116516,261.0689392c0,0-4.8700256,4.849823-3.2085571,13.3941956l11.0498047-11.9478149        L321.9116516,261.0689392z" class="color000000 svgShape"/><path d="M110.8974075,557.6921387l-4.8125992,0.2078857c-4.0775681,0.1665649-7.4755554-3.0928345-7.4755554-7.1702881        c0-3.8283081,3.0234909-6.9901733,6.8514252-7.1567993l4.3687668-0.1936646        C109.9543076,548.3161621,110.328804,553.1148682,110.8974075,557.6921387z" class="color000000 svgShape"/><path d="M105.7814331,558.2559814c-1.9521484,0-3.7900391-0.7392578-5.2080078-2.0986328        c-1.4921875-1.4326172-2.3134766-3.3603516-2.3134766-5.4277344c0-4.0341797,3.15625-7.3310547,7.1855469-7.5058594        l4.7245941-0.2099609l0.0088043,0.3564453c0.1201172,4.7460938,0.4794922,9.5507813,1.0664063,14.2792969l0.046875,0.3759766        l-5.1923828,0.2236328C105.9933472,558.2540283,105.8878784,558.2559814,105.7814331,558.2559814z M109.4884644,543.7442627        l-4.0117188,0.1787109c-3.6542969,0.1582031-6.5175781,3.1484375-6.5175781,6.8066406        c0,1.875,0.7460938,3.6230469,2.0996094,4.921875c1.3544922,1.3007813,3.1181641,1.96875,5.0117188,1.8984375        l4.4335938-0.1904297C109.9562378,552.8477783,109.6144409,548.2716064,109.4884644,543.7442627z" class="color000000 svgShape"/><path fill="#8aa2ff" d="M329.3674622,314.222168c0,0,66.3238525-15.7605591,105.6317139,41.2569885        C476.5511475,415.7518921,463.016571,510.4888,463.016571,510.4888        c-74.2146301-31.3917542-150.4437256-41.7946777-229.9721832-29.3964233        C242.7160339,407.6586609,223.9903412,311.6900024,329.3674622,314.222168z" class="color6680ff svgShape"/><path d="M377.1070251,381.6794739c0.5357971,21.0331116-0.7523499,42.3826904-7.3966064,62.258728        c-7.2410889,21.6613464-21.6272583,41.5312805-41.3440247,50.187439        c3.1528625,0.1196899,6.3056946,0.2400513,9.4586487,0.3604431        c11.3895874,0.4334717,22.7677917-4.4829407,30.3071899-13.9255981        c3.3753662-4.2273254,5.4810791-9.436554,7.3641357-14.62146c9.7563477-26.8638306,14.8862915-55.5914612,15.114563-84.259552        H377.1070251z" class="color000000 svgShape"/><path d="M290.8756104,472.6595459h17.9693604c-6.8207703-10.3816223-11.447052-22.6750183-13.7828369-35.2189941        c-3.8363953-20.6027832-2.1646118-41.9260864,1.269928-62.68396l-13.3745422-1.8643494        c-3.7319336,28.4252319-2.6174316,57.585907,3.3366089,85.5397949        C287.3407593,463.3458862,288.5800476,468.2983093,290.8756104,472.6595459z" class="color000000 svgShape"/><path fill="#fff5f5" d="M401.0538025,519.3552856c-76.649353,23.723999-111.6188965-10.3208618-111.6188965-10.3208618        l20.1473389,75.574646l-56.9497833,6.854126c0,0-83.6103058-145.3893738-30.8349609-165.2722778        c39.7229462-14.9654541,86.5357513,37.5531616,86.5357513,37.5531616        c21.7619019,17.7564392,60.0072937,11.9264221,91.3860779-3.2607117" class="colorffffff svgShape"/><path d="M252.632019,591.8126221c-0.1240234,0-0.2402344-0.0654297-0.3037109-0.1748047        c-0.1533203-0.2666016-15.4824219-27.0234375-28.7226563-58.7080078        c-12.2353516-29.28125-25.1357422-68.8867188-17.1054688-91.2802734        c2.7695313-7.7255859,7.875-13.0371094,15.1738281-15.7861328c20.65625-7.7871094,43.2070313,2.8837891,58.4833984,13.2021484        c16.5136719,11.1542969,28.3193359,24.3144531,28.4375,24.4462891        c23.0917969,18.8349609,63.4462891,9.9794922,90.9716797-3.34375        c0.1728516-0.0810547,0.3828125-0.0117188,0.4677734,0.1630859c0.0839844,0.1738281,0.0107422,0.3828125-0.1630859,0.4677734        c-27.7099609,13.4101563-68.3701172,22.2988281-91.7597656,3.2167969        c-0.5068359-0.5625-47.1484375-52.203125-86.1914215-37.4980469        c-7.0966644,2.6738281-12.0634613,7.8447266-14.7617035,15.3681641        c-14.9228516,41.6152344,42.6835938,143.9609375,45.6621094,149.2021484l56.3193359-6.7783203l-20.0429688-75.1855469        c-0.0410156-0.1513672,0.0253906-0.3125,0.1611328-0.3916016c0.1337891-0.0800781,0.3066406-0.0595703,0.4208984,0.0507813        c0.0869141,0.0849609,8.9208984,8.5341797,26.9707031,13.9873047        c16.6650391,5.0341797,44.8193359,8.4707031,84.3007813-3.7490234c0.1845703-0.0576172,0.3808594,0.0458984,0.4375,0.2304688        c0.0576172,0.1845703-0.0458984,0.3808594-0.2304688,0.4375        c-39.6806641,12.2822266-67.9921875,8.8115234-84.7578125,3.7363281        c-14.9736328-4.53125-23.6689453-11.1230469-26.328125-13.3632813l19.8486023,74.4570313        c0.0263977,0.0976563,0.0088196,0.2021484-0.047821,0.2861328s-0.1474609,0.1386719-0.2480469,0.1513672        l-56.9501953,6.8535156C252.6593628,591.8126221,252.6456909,591.8126221,252.632019,591.8126221z" class="color000000 svgShape"/><path fill="#fff5f5" d="M452.9360352,484.3521118l24.6516724,105.758728l-59.3855286,2.151001        c0,0-56.2668457-144.3841858-22.2966003-168.7540588c36.017334-25.8384399,65.7287292,19.4116211,73.9879456,40.8113403        c5.8517761,15.1619263,11.1472473,54.9478455-5.9816589,64.7322083" class="colorffffff svgShape"/><path d="M418.2023315,592.6114502c-0.1435547,0-0.2734375-0.0878906-0.3261719-0.2226563        c-0.140625-0.3613281-14.1865234-36.5644531-23.9003906-75.2802734        c-13.0712891-52.0986328-12.4902344-83.6865234,1.7255859-93.8847656        c10.3369141-7.4160156,20.9609375-9.5703125,31.5683594-6.4033203        c22.0517578,6.5820313,37.7373047,33.8662109,42.9501953,47.3730469        c5.3701172,13.9130859,11.6171875,55.0214844-6.1337891,65.1611328        c-0.0917969,0.0527344-0.1992188,0.0605469-0.2949219,0.0244141l14.1376953,60.6523438        c0.0234375,0.1015625,0.0009766,0.2089844-0.0625,0.2919922s-0.1611328,0.1328125-0.265625,0.1367188l-59.3857422,2.1513672        C418.2111206,592.6114502,418.2062378,592.6114502,418.2023315,592.6114502z M417.7960815,416.1075439        c-7.2929688,0-14.5546875,2.5683594-21.6865234,7.6845703        c-32.7314453,23.4824219,19.7998047,161.5341797,22.3291016,168.1113281l58.7119141-2.1269531l-24.5556641-105.3457031        c-0.0439453-0.1875,0.0732422-0.3759766,0.2617188-0.4199219c0.1875-0.0390625,0.3759766,0.0722656,0.4199219,0.2617188        l10.3818359,44.5371094c0.0224609-0.0244141,0.0498047-0.0449219,0.0800781-0.0625        c17.3896484-9.9326172,11.1386719-50.5429688,5.8291016-64.3017578        c-5.1708984-13.3964844-20.7070313-40.4501953-42.4980469-46.9541016        C423.9786987,416.5684814,420.8839722,416.1075439,417.7960815,416.1075439z" class="color000000 svgShape"/><path fill="#fff5f5" d="M200.3510132,543.1509399c0.8508759,32.819397-8.9677734,59.3814697-21.9555359,59.3814697        c-12.9886932,0-24.1841583-26.5620728-25.0350342-59.3814697        c-0.8494873-32.7658386,8.968689-59.3279419,21.9573975-59.3279419        C188.305603,483.822998,199.5015411,510.3851013,200.3510132,543.1509399z" class="colorffffff svgShape"/><path d="M178.3956909,602.881958c-13.1435547,0-24.53125-26.7910156-25.3847656-59.7226563        c-0.6376953-24.5957031,4.6660156-46.3554688,13.5117188-55.4335938c2.75-2.8212891,5.7080078-4.2519531,8.7949219-4.2519531        c13.1435547,0,24.5302734,26.7666016,25.3828125,59.6679688c0.6396484,24.6279297-4.6650391,46.4091797-13.5126953,55.4902344        C184.4396362,601.4522705,181.4816284,602.881958,178.3956909,602.881958z M175.3175659,484.1729736        c-2.890625,0-5.6806641,1.3603516-8.2929688,4.0410156c-8.7216797,8.9501953-13.9472656,30.5107422-13.3144531,54.9277344        c0.84375,32.5546875,11.9179688,59.0410156,24.6855469,59.0410156c2.8896484,0,5.6787109-1.359375,8.2910156-4.0400391        c8.7226563-8.9511719,13.9482422-30.5341797,13.3144531-54.9833984l0,0        C199.1574097,510.6348877,188.0841675,484.1729736,175.3175659,484.1729736z" class="color000000 svgShape"/><path fill="#fff5f5" d="M178.3807831,602.5181885h-43.5045319c-13.0112305,0-24.2131424-26.5321045-25.0611725-59.3430176        c-0.8487244-32.8136292,8.994812-59.3457336,21.950119-59.3457336h42.4859009v0.0580139        c-12.4463348,1.4143066-21.7236023,27.3801575-20.8755646,59.2877197        C154.2242584,575.986084,165.426178,602.5181885,178.3807831,602.5181885z" class="colorffffff svgShape"/><path d="M178.3810425,602.8673096h-43.5048828c-13.1611328,0-24.5605469-26.7734375-25.4111328-59.6835938        c-0.6367188-24.6064453,4.6708984-46.375,13.5214844-55.4580078c2.7460938-2.8173828,5.6992188-4.2460938,8.7783203-4.2460938        h42.4863281c0.1933594,0,0.3496094,0.15625,0.3496094,0.3496094c0,0.1777344-0.1328125,0.3867188-0.3105469,0.40625        c-12.3720703,1.40625-21.4052734,27.2910156-20.5654297,58.9296875        c0.8417969,32.5341797,11.9023438,59.0029297,24.65625,59.0029297c0.1933594,0,0.3496094,0.15625,0.3496094,0.3496094        S178.5744019,602.8673096,178.3810425,602.8673096z M131.7648315,484.178833        c-2.8828125,0-5.6669922,1.3583984-8.2763672,4.0351563c-8.7255859,8.9541016-13.9560547,30.5244141-13.3242188,54.9521484        c0.8417969,32.5332031,11.9277344,59.0019531,24.7119141,59.0019531h39.8369141        c-11.5185547-4.4150391-20.9169922-29.1835938-21.6875-58.984375        c-0.7919922-29.8076172,7.2294922-54.5820313,18.6210938-59.0048828H131.7648315z" class="color000000 svgShape"/><path d="M485.3962708,534.3256836L485.3962708,534.3256836c0,3.8369141-3.0226746,6.9927368-6.8559875,7.1580811        L191.465744,553.8655396c-4.0743408,0.1757202-7.473465-3.0799561-7.473465-7.1580811l0,0        c0-3.8369141,3.0226593-6.9927368,6.8560028-7.1580811l287.0745239-12.3817749        C481.9971313,526.9918823,485.3962708,530.2475586,485.3962708,534.3256836z" class="color000000 svgShape"/><path d="M191.1466675,554.2218018c-1.9433594,0-3.7744141-0.7333984-5.1875-2.0878906        c-1.4941406-1.4306641-2.3164063-3.3583984-2.3164063-5.4267578c0-4.0351563,3.1582031-7.3330078,7.1904297-7.5078125        l287.0751953-12.3818359c2.0595703-0.0800781,4.0283203,0.6503906,5.5224609,2.0820313        c1.4931641,1.4306641,2.3154297,3.3574219,2.3154297,5.4257813c0,4.0361328-3.1582031,7.3339844-7.1914063,7.5078125        l-287.0742188,12.3818359C191.3693237,554.2198486,191.2579956,554.2218018,191.1466675,554.2218018z         M478.2394409,527.5098877c-0.0996094,0-0.2001953,0.0029297-0.3017578,0.0068359l-287.0751953,12.3818359        c-3.65625,0.1582031-6.5205078,3.1494141-6.5205078,6.8085938c0,1.8759766,0.7460938,3.6240234,2.1015625,4.921875        c1.3544922,1.2978516,3.1298828,1.9619141,5.0078125,1.8867188l287.0742188-12.3818359        c3.65625-0.1572266,6.5214844-3.1484375,6.5214844-6.8085938c0-1.875-0.7460938-3.6230469-2.1005859-4.9199219        C481.6642456,528.1768799,480.0031128,527.5098877,478.2394409,527.5098877z" class="color000000 svgShape"/><path fill="#fff5f5" d="M288.223999,475.0082397c0,0-3.6383057,15.8362427,1.210907,34.0261841" class="colorffffff svgShape"/><path d="M289.4347534,509.3839111c-0.1552734,0-0.296875-0.1025391-0.3378906-0.2597656        c-4.8154297-18.0644531-1.2509766-34.0351563-1.2138672-34.1943359c0.0429688-0.1875,0.2265625-0.3027344,0.4189453-0.2626953        c0.1884766,0.0429688,0.3066406,0.2304688,0.2626953,0.4189453c-0.0361328,0.1582031-3.5605469,15.96875,1.2080078,33.8583984        c0.0498047,0.1865234-0.0605469,0.3779297-0.2480469,0.4277344        C289.4943237,509.3809814,289.4640503,509.3839111,289.4347534,509.3839111z" class="color000000 svgShape"/><path d="M151.3634644,582.1251221c-0.1318359,0-0.2578125-0.0742188-0.3173828-0.2011719         c-20.015625-42.765625-2.3603516-79.4628906-2.1796875-79.8291016c0.0859375-0.1738281,0.296875-0.2460938,0.46875-0.1582031         c0.1728516,0.0849609,0.2441406,0.2949219,0.1582031,0.46875c-0.1787109,0.3623047-17.6806641,36.7724609,2.1875,79.2216797         c0.0820313,0.1748047,0.0058594,0.3837891-0.1689453,0.4658203         C151.4640503,582.1153564,151.413269,582.1251221,151.3634644,582.1251221z" class="color000000 svgShape"/><path d="M136.5626831,582.1251221c-0.1318359,0-0.2578125-0.0742188-0.3173828-0.2011719         c-20.015625-42.765625-2.3603516-79.4628906-2.1796875-79.8291016         c0.0849609-0.1738281,0.2978516-0.2460938,0.46875-0.1582031c0.1728516,0.0849609,0.2441406,0.2949219,0.1582031,0.46875         c-0.1787109,0.3623047-17.6806641,36.7724609,2.1875,79.2216797         c0.0820313,0.1748047,0.0058594,0.3837891-0.1689453,0.4658203         C136.663269,582.1153564,136.6124878,582.1251221,136.5626831,582.1251221z" class="color000000 svgShape"/><path fill="#f44" d="M311.2141113,602.517334H208.1942749c-1.2012329,0-2.2294006-0.8979492-2.3799286-2.0897217        c-3.0380402-24.0539551,38.6440887-24.0539551,38.6440887-24.0539551l-6.9651489-13.7775879        c5.7141266-3.369812,13.4837189-2.2824707,17.9219055,2.6543579        c5.5615845,6.1443481,14.0218201,13.2178345,23.5777588,13.2178345c20.6652527,0,25.78302-12.524353,25.78302-12.524353        l8.7491455,33.5831909C313.919281,601.0400391,312.7775269,602.517334,311.2141113,602.517334z" class="colorffae44 svgShape"/><path fill="#f44" d="M478.3911438,602.510437h-103.020874c-1.2066345,0-2.2329407-0.887146-2.3855591-2.0803833        c-0.2218933-1.7336426-0.2080078-3.342041,0.0277405-4.8400269        c1.1095276-7.5725708,7.4200439-12.2324219,14.6875916-15.0895996        c11.2063293-4.4106445,24.6595154-4.5494995,24.6595154-4.5494995l-4.6878052-14.1882324        c5.7141418-3.369812,10.4851685-1.4424438,14.9233398,3.4815674        c5.5615845,6.1436157,14.0218201,13.2171021,23.5777588,13.2171021c20.6652527,0,25.78302-12.5236816,25.78302-12.5236816        l8.7376099,33.5910034C481.0956726,601.0408936,479.9444885,602.510437,478.3911438,602.510437z" class="colorffae44 svgShape"/><path fill="#fff5f5" d="M591.3053589,528.1177368c1.0662231,41.1280518-11.2380981,74.4146729-27.513855,74.4146729        c-16.2769775,0-30.3067017-33.2866211-31.3729858-74.4146729        c-1.0645142-41.0608521,11.2391968-74.3474731,27.5161743-74.3474731        C576.2104492,453.7702637,590.2407837,487.0568848,591.3053589,528.1177368z" class="colorffffff svgShape"/><path d="M563.7911987,602.881958c-16.4228516,0-30.6542969-33.5351563-31.7226563-74.7558594        c-0.7988281-30.8007813,5.8378906-58.0429688,16.9082031-69.4033203        c3.4277344-3.5185547,7.1142578-5.3017578,10.9580078-5.3017578c16.4228516,0,30.6523438,33.5039063,31.7197266,74.6875        c0.7998047,30.8417969-5.8369141,58.1113281-16.9082031,69.4736328        C571.319519,601.0987549,567.6339722,602.881958,563.7911987,602.881958z M559.9347534,454.1202393        c-3.6474609,0-7.1660156,1.7128906-10.4570313,5.0908203c-10.9443359,11.2324219-17.5039063,38.2753906-16.7099609,68.8974609        c1.0595703,40.8447266,14.9765625,74.0742188,31.0234375,74.0742188c3.6464844,0,7.1630859-1.7128906,10.4541016-5.0888672        c10.9453125-11.2333984,17.5048828-38.3046875,16.7099609-68.9677734        C589.8966675,487.319458,575.9816284,454.1202393,559.9347534,454.1202393z" class="color000000 svgShape"/><path fill="#fff5f5" d="M604.1122437,529.4589844c0.2014771,4.7699585-2.1231689,8.6304321-5.1980591,8.6304321        c-3.0751953,0-5.725769-3.8604736-5.9272461-8.6304321c-0.2011108-4.762085,2.1234131-8.6226196,5.1985474-8.6226196        C601.260437,520.8363647,603.9111328,524.6968994,604.1122437,529.4589844z" class="colorffffff svgShape"/><path d="M598.9142456,538.4385986c-3.2519531,0-6.0683594-4.0214844-6.2773438-8.9648438        c-0.1279297-3.0390625,0.7480469-5.8466797,2.34375-7.5107422c0.9267578-0.9658203,2.0351563-1.4765625,3.2050781-1.4765625        c3.2519531,0,6.0673828,4.0185547,6.2763672,8.9580078l0,0c0.1289063,3.0429688-0.7480469,5.8535156-2.3427734,7.5175781        C601.1925659,537.9278564,600.0841675,538.4385986,598.9142456,538.4385986z M598.18573,521.1856689        c-0.9746094,0-1.9082031,0.4365234-2.7001953,1.2617188c-1.4658203,1.5292969-2.2695313,4.1445313-2.1494141,6.9970703        c0.1943359,4.5732422,2.6962891,8.2949219,5.578125,8.2949219c0.9746094,0,1.9082031-0.4365234,2.6992188-1.2617188        c1.4667969-1.5292969,2.2695313-4.1474609,2.1494141-7.0039063l0,0        C603.569519,524.9044189,601.0675659,521.1856689,598.18573,521.1856689z" class="color000000 svgShape"/><path d="M598.9372559,538.0726929l-28.7125854,1.7723999c-3.0488281,0-5.7428589-3.8978271-5.9557495-8.6506348        c-0.1419067-4.7493896,2.1271973-8.6472168,5.2461548-8.6472168l28.3577271-1.703125v0.0726929        c-2.9060669,0.1419678-5.104187,3.8978271-4.8912964,8.5779419        C593.194397,534.2441406,595.8174438,538.0726929,598.9372559,538.0726929z" class="color000000 svgShape"/><path d="M570.2453003,540.194458c-3.2763672,0-6.1044922-4.0302734-6.3261719-8.984375        c-0.0917969-3.0898438,0.8085938-5.9150391,2.4101563-7.5654297c0.9189453-0.9472656,2.0205078-1.4472656,3.1855469-1.4472656        l28.7080078-1.7255859v0.7050781l-0.3330078,0.0898438c-2.7128906,0.1318359-4.7587891,3.8164063-4.5585938,8.2128906        c0.2041016,4.5449219,2.71875,8.2431641,5.6064453,8.2431641l0.0214844,0.6992188l-28.7128906,1.7724609H570.2453003z         M595.710144,521.3243408l-26.1748047,1.5722656c-0.9912109,0-1.9199219,0.4277344-2.7041016,1.2363281        c-1.4716797,1.5166016-2.2988281,4.1523438-2.2128906,7.0507813c0.2021484,4.5029297,2.7695313,8.3115234,5.6064453,8.3115234        l26.5712891-1.6416016c-2.2929688-1.2578125-3.9912109-4.4765625-4.1640625-8.3427734        C592.4650269,525.8458252,593.7286987,522.7110596,595.710144,521.3243408z" class="color000000 svgShape"/><path fill="#fff5f5" d="M563.7730713,602.5145874h-54.5182495c-16.3051758,0-30.3429871-33.2490234-31.4057312-74.366394        c-1.0635681-41.1208191,11.2719727-74.369873,27.5070801-74.369873h53.2417297v0.0726929        c-15.59729,1.7723694-27.2232056,34.3117676-26.1604614,74.2971802        C533.5010376,569.265564,547.5388184,602.5145874,563.7730713,602.5145874z" class="colorffffff svgShape"/><path d="M563.772644,602.8643799h-54.5175781c-16.4453125,0-30.6904297-33.5126953-31.7558594-74.7070313        c-0.796875-30.8134766,5.8447266-58.0683594,16.9199219-69.4335938        c3.4238281-3.5136719,7.1035156-5.2949219,10.9375-5.2949219h53.2412109c0.1933594,0,0.3496094,0.15625,0.3496094,0.3496094        c0,0.1777344-0.1328125,0.4003906-0.3105469,0.4199219c-15.5498047,1.7675781-26.9042969,34.2460938-25.8496094,73.9404297        c1.0556641,40.8183594,14.9560547,74.0263672,30.9853516,74.0263672c0.1933594,0,0.3496094,0.15625,0.3496094,0.3496094        S563.9660034,602.8643799,563.772644,602.8643799z M505.3566284,454.1280518        c-3.6376953,0-7.1484375,1.7109375-10.4355469,5.0839844c-10.9511719,11.2373047-17.5146484,38.2929688-16.7226563,68.9277344        c1.0556641,40.8173828,14.9882813,74.0253906,31.0566406,74.0253906h50.4189453        c-14.6113281-5.0087891-26.6103516-36.2890625-27.5859375-74.0078125        c-1.0029297-37.7246094,9.2519531-69.0068359,23.7392578-74.0292969H505.3566284z" class="color000000 svgShape"/><path d="M526.6779175,573.1768799c-0.1318359,0-0.2578125-0.0742188-0.3173828-0.2011719         c-22.9765625-49.0927734-2.7119141-91.2167969-2.5039063-91.6367188         c0.0859375-0.1728516,0.296875-0.2460938,0.46875-0.1582031c0.1728516,0.0849609,0.2441406,0.2949219,0.1582031,0.46875         c-0.2050781,0.4169922-20.3173828,42.2519531,2.5117188,91.0292969         c0.0820313,0.1748047,0.0058594,0.3837891-0.1689453,0.4658203         C526.7785034,573.1671143,526.7277222,573.1768799,526.6779175,573.1768799z" class="color000000 svgShape"/><path d="M509.6798706,573.1768799c-0.1318359,0-0.2578125-0.0742188-0.3173828-0.2011719         c-22.9765625-49.0927734-2.7119141-91.2167969-2.5039063-91.6367188         c0.0849609-0.1728516,0.296875-0.2460938,0.46875-0.1582031c0.1728516,0.0849609,0.2441406,0.2949219,0.1582031,0.46875         c-0.2050781,0.4169922-20.3173828,42.2519531,2.5117188,91.0292969         c0.0820313,0.1748047,0.0058594,0.3837891-0.1689453,0.4658203         C509.7804565,573.1671143,509.7296753,573.1768799,509.6798706,573.1768799z" class="color000000 svgShape"/><path fill="#fff5f5" d="M368.1991577,531.9000854c0,0,2.0581055-10.6644897,13.2784729-10.6644897        c11.2203369,0,25.0854492-0.7250977,25.0854492-0.7250977s-0.1253967,32.8737183-10.6266479,28.6582031        c0,0-1.8504028,4.7352295-6.8537903,0.4551392c0,0-4.7037964,4.6033325-6.6931763-0.3212891        c0,0-2.1459656,1.8513794-4.5528564,0.519043c-5.8734436-3.2514038,7.5172119-11.4901123,2.8480835-16.2998657        C377.3046265,530.0397949,368.1991577,531.9000854,368.1991577,531.9000854z" class="colorffffff svgShape"/><path d="M385.1437378,551.9278564c-0.2050781,0-0.4091797-0.0195313-0.6132813-0.0625        c-0.9658203-0.2011719-1.734375-0.8828125-2.2871094-2.0283203c-0.7636719,0.4912109-2.5947266,1.3876953-4.5761719,0.2910156        c-0.8837891-0.4902344-1.4296875-1.1328125-1.6201172-1.9101563        c-0.4335938-1.7675781,0.9931641-3.9238281,2.5029297-6.2050781c1.9716797-2.9785156,4.0087891-6.0576172,1.8837891-8.2470703        c-3.2099609-3.3066406-12.0751953-1.5410156-12.1640625-1.5224609        c-0.1142578,0.0234375-0.2333984-0.0117188-0.3164063-0.09375s-0.1201172-0.2001953-0.0976563-0.3154297        c0.0214844-0.109375,2.2441406-10.9482422,13.6220703-10.9482422c11.0830078,0,24.9277344-0.7167969,25.0664063-0.7246094        c0.1123047-0.0058594,0.1904297,0.0302734,0.2597656,0.0966797c0.0703125,0.0654297,0.109375,0.1582031,0.1083984,0.2539063        c-0.0029297,0.9853516-0.1669922,24.1650391-6.7929688,28.6269531        c-1.2041016,0.8095703-2.5458984,0.96875-4.0039063,0.4697266c-0.2949219,0.5625-1.0517578,1.7128906-2.4296875,2.0585938        c-1.3544922,0.3369141-2.8945313-0.1933594-4.5927734-1.578125        C388.4894409,550.6182861,386.826355,551.9278564,385.1437378,551.9278564z M382.3898315,548.9532471        c0.0273438,0,0.0556641,0.0029297,0.0830078,0.0097656c0.109375,0.0263672,0.1992188,0.1044922,0.2412109,0.2089844        c0.46875,1.1582031,1.1269531,1.8339844,1.9589844,2.0087891c1.8896484,0.3896484,4.1425781-1.7851563,4.1640625-1.8066406        c0.1308594-0.1269531,0.3359375-0.1347656,0.4726563-0.015625c1.6074219,1.3740234,3.0214844,1.9208984,4.2001953,1.6308594        c1.4570313-0.3613281,2.0947266-1.9326172,2.1005859-1.9482422c0.0351563-0.0869141,0.1025391-0.15625,0.1875-0.1933594        c0.0859375-0.0351563,0.1816406-0.0390625,0.2695313-0.0039063c1.3632813,0.5478516,2.5625,0.4541016,3.6601563-0.2861328        c5.8837891-3.9609375,6.4316406-24.6455078,6.4804688-27.6787109        c-2.2890625,0.1142578-14.6484375,0.7060547-24.7304688,0.7060547c-9.5322266,0-12.2519531,7.7685547-12.8144531,9.8740234        c2.0410156-0.3457031,9.2421875-1.3037109,12.2724609,1.8183594c2.5175781,2.59375,0.2236328,6.0615234-1.8017578,9.1210938        c-1.4228516,2.1503906-2.7675781,4.1826172-2.4072266,5.6533203c0.1445313,0.5878906,0.5634766,1.0664063,1.2802734,1.4628906        c2.1582031,1.1982422,4.0742188-0.4082031,4.1542969-0.4775391        C382.225769,548.9825439,382.3068237,548.9532471,382.3898315,548.9532471z" class="color000000 svgShape"/><path fill="#fff5f5" d="M283.1139526,536.3724976c0,0-2.0581055-10.6644897-13.2784424-10.6644897        c-11.2203674,0-25.0854797-0.7250977-25.0854797-0.7250977s0.1253967,32.8737183,10.6266632,28.6582031        c0,0,1.8503876,4.7352295,6.8538055,0.4551392c0,0,4.7037659,4.6033325,6.6931458-0.3212891        c0,0,2.1459656,1.8514404,4.5528564,0.519043c5.8734741-3.2514038-7.5171814-11.4900513-2.848053-16.2998657        C274.0084839,534.5122681,283.1139526,536.3724976,283.1139526,536.3724976z" class="colorffffff svgShape"/><path d="M266.1691284,556.3995361c-1.6826172,0-3.3457031-1.3095703-3.9492188-1.8388672        c-1.6982422,1.3847656-3.2431641,1.9189453-4.5917969,1.578125c-1.3789063-0.3447266-2.1347656-1.4951172-2.4306641-2.0576172        c-1.4541016,0.4960938-2.8007813,0.3388672-4.0039063-0.4707031c-6.625-4.4619141-6.7900391-27.6416016-6.7929688-28.6269531        c-0.0009766-0.0957031,0.0380859-0.1884766,0.1083984-0.2539063c0.0703125-0.0664063,0.1523438-0.09375,0.2597656-0.0966797        c0.1386719,0.0078125,13.984375,0.7255859,25.0664063,0.7255859c11.3779297,0,13.6015625,10.8378906,13.6230469,10.9472656        c0.0224609,0.1152344-0.0146484,0.2333984-0.0976563,0.3154297c-0.0839844,0.0820313-0.203125,0.1162109-0.3164063,0.09375        c-0.0888672-0.0175781-8.9580078-1.7802734-12.1650391,1.5234375c-2.125,2.1894531-0.0869141,5.2685547,1.8837891,8.2470703        c1.5097656,2.2822266,2.9365234,4.4375,2.5029297,6.2050781c-0.1904297,0.7773438-0.7353516,1.4199219-1.6191406,1.9101563        c-1.9785156,1.0927734-3.8115234,0.2011719-4.5761719-0.2919922        c-0.5537109,1.1455078-1.3212891,1.8271484-2.2880859,2.0292969        C266.5792847,556.3800049,266.3742065,556.3995361,266.1691284,556.3995361z M262.2306519,553.7462158        c0.0888672,0,0.1767578,0.0332031,0.2451172,0.0996094c0.0224609,0.0214844,2.2714844,2.2109375,4.1650391,1.8066406        c0.8310547-0.1748047,1.4902344-0.8505859,1.9589844-2.0087891c0.0419922-0.1044922,0.1318359-0.1826172,0.2412109-0.2089844        c0.1103516-0.0273438,0.2255859,0.0019531,0.3115234,0.0742188c0.0800781,0.0693359,1.9960938,1.6728516,4.1542969,0.4785156        c0.7167969-0.3964844,1.1357422-0.875,1.2792969-1.4628906c0.3603516-1.4707031-0.9833984-3.5019531-2.4072266-5.6523438        c-2.0244141-3.0605469-4.3203125-6.5283203-1.8017578-9.1220703        c3.0292969-3.1210938,10.2314453-2.1660156,12.2734375-1.8193359c-0.5625-2.1064453-3.2832031-9.8730469-12.8154297-9.8730469        c-10.0810547,0-22.4404297-0.5927734-24.7304688-0.7070313c0.0488281,3.0332031,0.5966797,23.7177734,6.4804688,27.6787109        c1.1005859,0.7402344,2.2998047,0.8369141,3.6611328,0.2861328c0.0878906-0.0351563,0.1835938-0.03125,0.2695313,0.0039063        c0.0849609,0.0371094,0.1523438,0.1064453,0.1875,0.1933594c0.0058594,0.015625,0.6425781,1.5869141,2.0996094,1.9482422        c1.1835938,0.2919922,2.5917969-0.2548828,4.2001953-1.6308594        C262.0685425,553.7735596,262.1495972,553.7462158,262.2306519,553.7462158z" class="color000000 svgShape"/><path fill="#8aa2ff" d="M374.1061707,340.6998291c6.5922241,64.1277771,2.9105835,125.6126709-14.0443115,181.1732178h53.5289612        c21.3525696-48.9413147,27.1129456-103.4655762,16.0959778-163.9945374" class="color6680ff svgShape"/><path d="M435.1359253,419.9805908c-0.0009766,0-0.0029297,0-0.0039063,0        c-0.1933594-0.0019531-0.3486328-0.1601563-0.3457031-0.3535156        c0.2294922-19.8203125-1.6015625-40.5742188-5.4443359-61.6865234        c-0.0341797-0.1904297,0.0917969-0.3720703,0.2822266-0.4072266c0.1953125-0.0400391,0.3720703,0.0927734,0.4072266,0.2822266        c3.8496094,21.1552734,5.6855469,41.9550781,5.4541016,61.8193359        C435.4835815,419.8272705,435.3273315,419.9805908,435.1359253,419.9805908z" class="color000000 svgShape"/><path fill="#8aa2ff" d="M305.9926147,350.4944458c-17.2931824,61.9326172-23.8416443,122.0575256-16.5090637,179.8501587        H236.491272c-12.777298-52.0779419-8.3766937-114.4256897,12.6664734-172.0082397" class="color6680ff svgShape"/><path fill="#fff5f5" d="M382.3894653,549.3025513c0,0,2.2848511-1.7047729,3.5967102-5.892395" class="colorffffff svgShape"/><path d="M382.3908081,549.6524658c-0.1064453,0-0.2119141-0.0478516-0.2802734-0.1396484        c-0.1162109-0.1542969-0.0849609-0.3740234,0.0693359-0.4902344c0.0224609-0.0166016,2.2148438-1.703125,3.4726563-5.7167969        c0.0576172-0.1835938,0.2558594-0.2880859,0.4384766-0.2294922c0.1845703,0.0576172,0.2871094,0.2539063,0.2294922,0.4384766        c-1.3310547,4.2470703-3.6240234,5.9960938-3.7216797,6.0683594        C382.5363159,549.6300049,382.4630737,549.6524658,382.3908081,549.6524658z" class="color000000 svgShape"/><path fill="#fff5f5" d="M388.952179,549.7161865c0,0,1.6688232-1.6907959,2.4671936-5.2850342" class="colorffffff svgShape"/><path d="M388.9523315,550.0655518c-0.0878906,0-0.1767578-0.0332031-0.2451172-0.1005859        c-0.1376953-0.1347656-0.1396484-0.3564453-0.0048828-0.4941406c0.0166016-0.0166016,1.6123047-1.6767578,2.375-5.1162109        c0.0419922-0.1875,0.2275391-0.3085938,0.4179688-0.265625c0.1884766,0.0419922,0.3076172,0.2285156,0.265625,0.4179688        c-0.8105469,3.6503906-2.4882813,5.3828125-2.5595703,5.4550781        C389.1329956,550.0313721,389.0431519,550.0655518,388.9523315,550.0655518z" class="color000000 svgShape"/><path fill="#fff5f5" d="M395.9308472,549.121582c0,0,1.2737732-1.5733032,1.8172302-4.6904297" class="colorffffff svgShape"/><path d="M395.9308472,549.4708252c-0.0771484,0-0.1542969-0.0253906-0.2197266-0.0771484        c-0.1503906-0.1210938-0.1738281-0.3417969-0.0527344-0.4921875c0.0117188-0.0146484,1.2255859-1.5546875,1.7451172-4.53125        c0.0332031-0.1904297,0.2070313-0.3232422,0.4052734-0.2841797c0.1904297,0.0332031,0.3173828,0.2148438,0.2841797,0.4052734        c-0.5527344,3.1699219-1.8359375,4.7832031-1.8896484,4.8496094        C396.1339722,549.4268799,396.0324097,549.4708252,395.9308472,549.4708252z" class="color000000 svgShape"/><path fill="#fff5f5" d="M268.9983521,553.7385864c0,0-1.2737732-1.5733643-1.8172302-4.6904907" class="colorffffff svgShape"/><path d="M268.99823,554.0880127c-0.1015625,0-0.2031555-0.0439453-0.2724609-0.1298828        c-0.0537109-0.0664063-1.3369141-1.6796875-1.8896484-4.8496094c-0.0332031-0.1904297,0.09375-0.3720703,0.2841797-0.4052734        c0.1982422-0.0322266,0.3730469,0.0947266,0.4052734,0.2841797c0.5224609,2.9931641,1.7324219,4.515625,1.7451172,4.53125        c0.1210938,0.1494141,0.0976563,0.3701172-0.0527344,0.4921875        C269.1535034,554.0626221,269.0753784,554.0880127,268.99823,554.0880127z" class="color000000 svgShape"/><path fill="#fff5f5" d="M262.187561,554.0286865c0,0-1.2737427-1.5733643-1.8171997-4.6904907" class="colorffffff svgShape"/><path d="M262.1876831,554.3780518c-0.1015625,0-0.203125-0.0439453-0.2724609-0.1298828        c-0.0537109-0.0664063-1.3369141-1.6796875-1.8896484-4.8496094c-0.0332031-0.1904297,0.09375-0.3720703,0.2841797-0.4052734        c0.2001953-0.0332031,0.3730469,0.0947266,0.4052734,0.2841797c0.5224609,2.9931641,1.7324219,4.515625,1.7451172,4.53125        c0.1210938,0.1494141,0.0976563,0.3701172-0.0527344,0.4921875        C262.3429565,554.3526611,262.2648315,554.3780518,262.1876831,554.3780518z" class="color000000 svgShape"/><path fill="#fff5f5" d="M255.4682007,553.4882202c0,0-1.2737579-1.5733643-1.8172302-4.6904907" class="colorffffff svgShape"/><path d="M255.4679565,553.8380127c-0.1015625,0-0.203125-0.0439453-0.2724609-0.1298828        c-0.0537109-0.0664063-1.3369141-1.6796875-1.8896484-4.8496094c-0.0332031-0.1904297,0.09375-0.3720703,0.2841797-0.4052734        c0.2001953-0.0341797,0.3730469,0.0947266,0.4052734,0.2841797c0.5224609,2.9931641,1.7324219,4.515625,1.7451172,4.53125        c0.1210938,0.1494141,0.0976563,0.3701172-0.0527344,0.4921875        C255.62323,553.8126221,255.5450897,553.8380127,255.4679565,553.8380127z" class="color000000 svgShape"/><path fill="#fff5f5" d="M324.8480225,265.374115c0,0-25.6928711,31.0828247-0.3805237,39.1662598l-0.1272888,8.1342773        c-0.0761108,9.6678467,28.9988708,9.3805847,29.0749817-0.2872925c0,0-14.443512-8.0003357-10.6350098-15.6173706        c3.8085327-7.6170654,19.3600159-17.6144409,7.458374-29.8334351        C338.3369141,254.7175293,324.8480225,265.374115,324.8480225,265.374115z" class="colorffffff svgShape"/><path d="M338.4943237,320.1339111c-0.0859375,0-0.1728516-0.0009766-0.2587891-0.0009766        c-7.1191406-0.0566406-14.2851563-2.3847656-14.2451172-7.4609375l0.1230469-7.8789063        c-5.6992188-1.8789063-9.2558594-5.1005859-10.5703125-9.578125        c-3.5791016-12.1943359,10.4365234-29.3398438,11.0351563-30.0634766        c0.015625-0.0195313,0.0332031-0.0371094,0.0527344-0.0517578        c0.1376953-0.1083984,13.8759766-10.7070313,25.8583984,1.5927734        c9.1386719,9.3818359,2.4179688,17.5585938-2.9814453,24.1289063        c-1.7890625,2.1767578-3.4775391,4.2314453-4.4140625,6.1044922        c-3.6152344,7.2304688,10.3496094,15.0771484,10.4912109,15.15625        c0.1123047,0.0615234,0.1806641,0.1806641,0.1796875,0.3085938        C353.7247925,317.4952393,346.0958862,320.1339111,338.4943237,320.1339111z M325.0939331,265.6260986        c-0.6582031,0.8085938-14.2871094,17.78125-10.8789063,29.3925781c1.2646484,4.3056641,4.75,7.3964844,10.359375,9.1884766        c0.1474609,0.046875,0.2460938,0.1845703,0.2431641,0.3388672l-0.1279297,8.1347656        c-0.0351563,4.5644531,7,6.7001953,13.5517578,6.7519531c0.0859375,0.0009766,0.1728516,0.0009766,0.2587891,0.0009766        c7.1474609,0,14.3144531-2.3310547,14.5585938-6.8447266c-1.7753906-1.0175781-14.3095703-8.5390625-10.5917969-15.9755859        c0.9726563-1.9433594,2.6855469-4.0283203,4.5-6.2363281c5.4941406-6.6855469,11.7216797-14.2626953,3.0205078-23.1962891        C338.607605,255.4971924,325.9611206,264.9512939,325.0939331,265.6260986z" class="color000000 svgShape"/><path d="M324.8480225,265.374115c0,0-9.6366577-11.5970459-3.4125366-16.6450653        c4.5349121-3.678009,10.2861328,3.6983795,10.2861328,3.6983795s0.9450378-10.9435577,10.1705322-10.5172729        c9.7726746,0.4515686,7.396759,15.2558289,7.396759,15.2558289s11.25-11.4177856,19.6752319-5.5438538        c8.8866272,6.1956177-8.5801086,24.2668762-8.5801086,24.2668762s12.4191589-1.2274475,11.4926147,8.3630371        c-0.8260803,8.5508728-25.0735474,11.5812683-25.0735474,11.5812683s-9.4916077-9.5426025-1.4803467-16.0147705        s-4.9891663-5.0852661-12.1845093-8.7836609C325.9429016,267.3365173,324.8480225,265.374115,324.8480225,265.374115z" class="color000000 svgShape"/><path fill="#fff5f5" d="M350.1562195,291.0068359c0,2.677002-2.1636047,4.8264771-4.8265686,4.8264771        c-2.6767578,0-4.8403625-2.1494751-4.8403625-4.8264771c0-2.6628113,2.1636047-4.8264771,4.8403625-4.8264771        C347.9926147,286.1803589,350.1562195,288.3440247,350.1562195,291.0068359z" class="colorffffff svgShape"/><path d="M345.3292847,296.1827393c-2.8613281,0-5.1894531-2.3212891-5.1894531-5.1757813        s2.328125-5.1757813,5.1894531-5.1757813c2.8544922,0,5.1767578,2.3212891,5.1767578,5.1757813        S348.1837769,296.1827393,345.3292847,296.1827393z M345.3292847,286.5303955        c-2.4755859,0-4.4902344,2.0087891-4.4902344,4.4765625s2.0146484,4.4765625,4.4902344,4.4765625        c2.46875,0,4.4775391-2.0087891,4.4775391-4.4765625S347.7980347,286.5303955,345.3292847,286.5303955z" class="color000000 svgShape"/><path d="M324.4674988,304.5403748c0,0,5.9550476,0.744873,10.088562-2.1962585c0,0-2.0470886,6.4440002-10.1649475,7.077301        L324.4674988,304.5403748z" class="color000000 svgShape"/><path d="M324.3908081,309.7706299c-0.0888672,0-0.1748047-0.0332031-0.2392578-0.0947266        c-0.0722656-0.0673828-0.1123047-0.1621094-0.1103516-0.2607422l0.0771484-4.8808594        c0.0009766-0.0986328,0.0449219-0.1933594,0.1201172-0.2578125s0.1806641-0.0908203,0.2724609-0.0839844        c0.0595703,0.0087891,5.8710938,0.6933594,9.8417969-2.1337891c0.1230469-0.0859375,0.2880859-0.0839844,0.4091797,0.0019531        c0.1220703,0.0888672,0.1728516,0.2460938,0.1279297,0.3886719        c-0.0214844,0.0673828-2.2138672,6.6767578-10.4716797,7.3203125        C324.4093628,309.7706299,324.3995972,309.7706299,324.3908081,309.7706299z M324.8117065,304.9259033l-0.0644531,4.1113281        c5.6503906-0.5820313,8.1318359-4.0429688,9.0380859-5.7939453        C330.2980347,305.1846924,326.1027222,305.0303955,324.8117065,304.9259033z" class="color000000 svgShape"/><path d="M325.4728394,293.7755127c-0.0859375,0-0.171875-0.03125-0.2392578-0.09375        c-2.4013672-2.25-4.7480469-1.7226563-4.8457031-1.6982422c-0.1914063,0.046875-0.3769531-0.0712891-0.4228516-0.2578125        c-0.0449524-0.1875,0.0693359-0.3759766,0.2558594-0.421875c0.1142578-0.0292969,2.7998047-0.6533203,5.4912109,1.8662109        c0.140625,0.1328125,0.1484375,0.3535156,0.0166016,0.4951172        C325.6593628,293.7384033,325.5665894,293.7755127,325.4728394,293.7755127z" class="color000000 svgShape"/><path d="M325.8781128,285.4835205c-0.0019531,0-0.0029297,0-0.0048828,0        c-0.5351563-0.0078125-1.1416016-0.0166016-1.7021484-0.2177734        c-0.6894531-0.2470703-1.1572266-0.7744141-1.1933594-1.3427734        c-0.0537109-0.8994141,0.8398438-1.4404297,1.5585938-1.8759766l0.0966797-0.0585938        c2.3457031-1.4316406,3.7021484-4.046875,3.375-6.5097656c-0.0253906-0.1914063,0.1083984-0.3671875,0.3007813-0.3925781        c0.1992188-0.0283203,0.3662109,0.1103516,0.3925781,0.3007813c0.3642578,2.7324219-1.125,5.6259766-3.7041016,7.1992188        l-0.0986328,0.0595703c-0.5859375,0.3554688-1.25,0.7578125-1.2216797,1.2353516        c0.0175781,0.2783203,0.3173828,0.578125,0.7304688,0.7265625c0.4511719,0.1611328,0.9716797,0.1689453,1.4755859,0.1767578        c0.1933594,0.0029297,0.3476563,0.1611328,0.3447266,0.3544922        C326.225769,285.3302002,326.069519,285.4835205,325.8781128,285.4835205z" class="color000000 svgShape"/><path d="M333.6622925,282.2794189c-0.1308594,0-0.2568359-0.0732422-0.3164063-0.2001953        c-0.6552734-1.3837891-2.1816406-0.8066406-2.2470703-0.7802734c-0.1816406,0.0673828-0.3818359-0.0195313-0.453125-0.1982422        c-0.0703125-0.1796875,0.0166016-0.3818359,0.1962891-0.453125c0.7568359-0.2998047,2.3867188-0.4521484,3.1367188,1.1328125        c0.0830078,0.1738281,0.0078125,0.3828125-0.1669922,0.4658203        C333.763855,282.2686768,333.7130737,282.2794189,333.6622925,282.2794189z" class="color000000 svgShape"/><path d="M336.8654175,279.0186768c-0.0449219,0-0.0908203-0.0078125-0.1347656-0.0263672l-5.3544922-2.2431641        c-0.1787109-0.0751953-0.2626953-0.2802734-0.1884766-0.4580078c0.0751953-0.1796875,0.2802734-0.2636719,0.4580078-0.1884766        l5.3544922,2.2431641c0.1787109,0.0751953,0.2626953,0.2802734,0.1884766,0.4580078        C337.132019,278.9385986,337.0021362,279.0186768,336.8654175,279.0186768z" class="color000000 svgShape"/><path d="M322.2706909,279.5274658c-0.1308594,0-0.2568359-0.0732422-0.3164063-0.2001953        c-0.6542969-1.3837891-2.1826172-0.8066406-2.2480469-0.7802734c-0.1816406,0.0673828-0.3837891-0.0185547-0.453125-0.1982422        c-0.0703125-0.1796875,0.0166016-0.3818359,0.1962891-0.453125c0.7568359-0.2988281,2.3867188-0.4511719,3.1376953,1.1328125        c0.0829773,0.1738281,0.0078125,0.3828125-0.1670227,0.4658203        C322.3722534,279.5167236,322.3214722,279.5274658,322.2706909,279.5274658z" class="color000000 svgShape"/><path d="M325.4728394,276.2667236c-0.0449219,0-0.0908203-0.0078125-0.1357422-0.0263672l-5.3535156-2.2431641        c-0.1777344-0.0751953-0.2617188-0.2802734-0.1875-0.4589844s0.2773438-0.2636719,0.4589844-0.1875l5.3535156,2.2431641        c0.1777344,0.0751953,0.2617188,0.2802734,0.1875,0.4589844        C325.7394409,276.1866455,325.6095581,276.2667236,325.4728394,276.2667236z" class="color000000 svgShape"/><path d="M416.3312378,507.835083c-0.0292969,0-0.0585938-0.0029297-0.0878906-0.0107422L374.37323,496.960083        c-0.1875-0.0488281-0.2998047-0.2392578-0.2509766-0.4267578c0.0488281-0.1865234,0.2402344-0.3017578,0.4267578-0.2509766        l41.8701172,10.8642578c0.1875,0.0488281,0.2998047,0.2392578,0.2509766,0.4267578        C416.6290894,507.7305908,416.4874878,507.835083,416.3312378,507.835083z" class="color000000 svgShape"/><path d="M373.9699097,513.2091064c-2.1015625,0-3.8115234-1.7099609-3.8115234-3.8125        c0-2.109375,1.7099609-3.8251953,3.8115234-3.8251953c2.109375,0,3.8251953,1.7158203,3.8251953,3.8251953        C377.795105,511.4991455,376.0792847,513.2091064,373.9699097,513.2091064z M373.9699097,506.2706299        c-1.7158203,0-3.1123047,1.4023438-3.1123047,3.1259766c0,1.7167969,1.3964844,3.1132813,3.1123047,3.1132813        c1.7236328,0,3.1259766-1.3964844,3.1259766-3.1132813        C377.0958862,507.6729736,375.6935425,506.2706299,373.9699097,506.2706299z" class="color000000 svgShape"/><path d="M238.3947144,513.2091064c-0.1630859,0-0.3095703-0.1142578-0.3427734-0.2802734        c-0.0390625-0.1894531,0.0839844-0.3740234,0.2734375-0.4121094l40.7802734-8.2617188        c0.1923828-0.0449219,0.3740234,0.0849609,0.4121094,0.2734375c0.0390625,0.1894531-0.0839844,0.3740234-0.2734375,0.4121094        l-40.7802734,8.2617188C238.4406128,513.2071533,238.4171753,513.2091064,238.3947144,513.2091064z" class="color000000 svgShape"/><path d="M278.9640503,521.3184814c-2.1015625,0-3.8115234-1.7099609-3.8115234-3.8125        c0-2.109375,1.7099609-3.8251953,3.8115234-3.8251953c2.109375,0,3.8251953,1.7158203,3.8251953,3.8251953        C282.7892456,519.6085205,281.0734253,521.3184814,278.9640503,521.3184814z M278.9640503,514.3800049        c-1.7158203,0-3.1123047,1.4023438-3.1123047,3.1259766c0,1.7167969,1.3964844,3.1132813,3.1123047,3.1132813        c1.7236328,0,3.1259766-1.3964844,3.1259766-3.1132813        C282.0900269,515.7823486,280.6876831,514.3800049,278.9640503,514.3800049z" class="color000000 svgShape"/><path d="M397.9660034,466.5635986c-0.1416016,0-0.2753906-0.0859375-0.328125-0.2265625        c-4.0097656-10.7226563-2.6279297-23.3457031,3.6054688-32.9453125        c1.4160156-2.1796875,3.0800781-4.2314453,4.6904297-6.2148438c2.1650391-2.6679688,4.4042969-5.4267578,6.0244141-8.4951172        c2.7558594-5.2226563,3.9541016-11.7988281,3.5595703-19.546875        c-0.8164063-16.0507813-7.9257813-31.6484375-19.5039063-42.7939453        c-0.1386719-0.1337891-0.1425781-0.3554688-0.0087891-0.4951172c0.1337891-0.1386719,0.3554688-0.1435547,0.4951172-0.0087891        c11.7041016,11.2675781,18.890625,27.0361328,19.7167969,43.2626953        c0.4003906,7.875-0.8242188,14.5732422-3.6396484,19.9082031c-1.6523438,3.1298828-3.9130859,5.9160156-6.0996094,8.6103516        c-1.5986328,1.9697266-3.2519531,4.0058594-4.6464844,6.1542969        c-6.1152344,9.4169922-7.4707031,21.8007813-3.5371094,32.3183594        c0.0673828,0.1816406-0.0244141,0.3828125-0.2050781,0.4511719        C398.0480347,466.5567627,398.007019,466.5635986,397.9660034,466.5635986z" class="color000000 svgShape"/><path d="M251.9572144,464.2657471c-0.0615234,0-0.1230469-0.015625-0.1787109-0.0488281        c-0.1660156-0.0986328-0.2207031-0.3134766-0.1220703-0.4794922        c3.6259766-6.0869141,5.2197266-14.0380859,4.8720703-24.3085938        c-0.1132813-3.3271484-0.3964844-6.7089844-0.6708984-9.9794922        c-0.4199219-5.0195313-0.8554688-10.2089844-0.6855469-15.3349609        c0.4980316-15.03125,6.1855469-29.5771484,16.015625-40.9580078c0.1269531-0.1455078,0.3496094-0.1630859,0.4931641-0.0361328        c0.1464844,0.1259766,0.1630859,0.3466797,0.0361328,0.4931641        c-9.7255859,11.2607422-15.3525391,25.6523438-15.8457031,40.5244141        c-0.1679688,5.0849609,0.265625,10.2539063,0.6845703,15.2529297        c0.2744141,3.2792969,0.5585938,6.6699219,0.671875,10.0146484        c0.3525391,10.4082031-1.2724609,18.484375-4.9697266,24.6894531        C252.1925659,464.2052002,252.076355,464.2657471,251.9572144,464.2657471z" class="color000000 svgShape"/><path d="M365.5251465,402.46521c0,8.9317322-12.218811,16.1853333-27.2947083,16.1853333        c-15.0758667,0-27.3085938-7.2536011-27.3085938-16.1853333s12.2327271-16.1717834,27.3085938-16.1717834        C353.3063354,386.2934265,365.5251465,393.5334778,365.5251465,402.46521z" class="color000000 svgShape"/><rect width="80.546" height=".699" x="394.345" y="594.986" class="color000000 svgShape"/><path d="M388.9482422,585.6038818c0,6.130127-4.9652405,11.0953979-11.0954285,11.0953979       c-1.7336426,0-3.3840942-0.4022217-4.8403625-1.1092529c1.1095276-7.5725708,7.4200439-12.2324219,14.6875916-15.0895996       C388.504425,582.0255127,388.9482422,583.7591553,388.9482422,585.6038818z" class="color000000 svgShape"/><path d="M377.8527222,597.0489502c-1.7246094,0-3.4511719-0.3955078-4.9931641-1.1445313l-0.2304688-0.1113281       l0.0371094-0.2539063c0.9804688-6.6923828,5.9960938-11.8613281,14.90625-15.3652344l0.2910156-0.1142578l0.1464844,0.2773438       c0.8554688,1.6220703,1.2880859,3.3945313,1.2880859,5.2666016       C389.2980347,591.9151611,384.1642456,597.0489502,377.8527222,597.0489502z M373.3986206,595.3848877       c1.3876953,0.6318359,2.921875,0.9648438,4.4541016,0.9648438c5.9248047,0,10.7460938-4.8212891,10.7460938-10.7460938       c0-1.6503906-0.3583984-3.2158203-1.0654297-4.6601563       C379.1720581,584.2989502,374.4191284,589.1553955,373.3986206,595.3848877z" class="color000000 svgShape"/><path d="M221.5917664,585.6038818c0,6.130127-4.9652252,11.0953979-11.0954132,11.0953979       c-1.7336578,0-3.3841095-0.4022217-4.8403625-1.1092529c1.1095276-7.5725708,7.4200287-12.2324219,14.6875916-15.0895996       C221.147934,582.0255127,221.5917664,583.7591553,221.5917664,585.6038818z" class="color000000 svgShape"/><path d="M210.4962769,597.0489502c-1.7246094,0-3.4511871-0.3955078-4.9931641-1.1445313l-0.2304688-0.1113281       l0.0371094-0.2539063c0.9804688-6.6923828,5.9960938-11.8613281,14.90625-15.3652344l0.2910156-0.1142578l0.1464844,0.2773438       c0.8554688,1.6220703,1.2880859,3.3945313,1.2880859,5.2666016       C221.9415894,591.9151611,216.8078003,597.0489502,210.4962769,597.0489502z M206.0421753,595.3848877       c1.3876953,0.6318359,2.921875,0.9648438,4.4541016,0.9648438c5.9248047,0,10.7460938-4.8212891,10.7460938-10.7460938       c0-1.6503906-0.3583984-3.2158203-1.0654297-4.6601563       C211.8156128,584.2989502,207.0626831,589.1553955,206.0421753,595.3848877z" class="color000000 svgShape"/><rect width="76.94" height=".699" x="230.151" y="594.424" class="color000000 svgShape"/><g class="color000000 svgShape"><circle cx="137.184" cy="322.013" r="43.184" fill="#fff5f5" class="colorffffff svgShape"/><path d="M137.1837769,365.5469971c-24.0048828,0-43.5341797-19.5292969-43.5341797-43.5341797       s19.5292969-43.5341797,43.5341797-43.5341797s43.5341797,19.5292969,43.5341797,43.5341797       S161.1886597,365.5469971,137.1837769,365.5469971z M137.1837769,279.1778564       c-23.6191406,0-42.8349609,19.2158203-42.8349609,42.8349609s19.2158203,42.8349609,42.8349609,42.8349609       s42.8349609-19.2158203,42.8349609-42.8349609S160.8029175,279.1778564,137.1837769,279.1778564z" class="color000000 svgShape"/><path fill="#20a4fb" d="M135.1837769,330.6026611c-0.0478516,0-0.0957031-0.0097656-0.140625-0.0292969       c-0.1269531-0.0556641-0.2089844-0.1816406-0.2089844-0.3203125v-32.3427734       c0-0.1933594,0.15625-0.3496094,0.3496094-0.3496094s0.3496094,0.15625,0.3496094,0.3496094v31.546875l14.5488281-13.3359375       c0.1416016-0.1308594,0.3623047-0.1210938,0.4941406,0.0214844c0.1308594,0.1425781,0.1210938,0.3632813-0.0214844,0.4941406       l-15.1347809,13.8740234C135.3546753,330.5714111,135.2697144,330.6026611,135.1837769,330.6026611z" class="color3550fe svgShape"/></g><g class="color000000 svgShape"><path fill="#fff5f5" d="M388.3109741,147.8379974c0,14.1786346-11.4902344,44.2922211-25.6687622,44.2922211       c-6.7987976,0-12.973175-2.6451874-17.5692749-6.9637756c-4.5874023,4.3185883-10.7704773,6.9637756-17.5692444,6.9637756       c-14.1785278,0-25.6774597-30.1135864-25.6774597-44.2922211c0-14.1786194,11.4989319-25.6688766,25.6774597-25.6688766       c6.7987671,0,12.981842,2.6362839,17.5692444,6.963768c4.5960999-4.3274841,10.7704773-6.963768,17.5692749-6.963768       C376.8207397,122.1691208,388.3109741,133.6593781,388.3109741,147.8379974z" class="colorffffff svgShape"/><path d="M362.6417847,192.4796143c-6.53125,0-12.7568359-2.4248047-17.5683594-6.8359375       c-4.8037109,4.4111328-11.0292969,6.8359375-17.5693359,6.8359375c-14.2441406,0-26.0273438-29.5566406-26.0273438-44.6416016       c0-14.3466797,11.6757813-26.0185547,26.0273438-26.0185547c6.5488281,0,12.7744141,2.4248047,17.5693359,6.8349609       c4.8027344-4.4101563,11.0283203-6.8349609,17.5683594-6.8349609c14.3466797,0,26.0185547,11.671875,26.0185547,26.0185547       C388.6603394,162.9229736,376.8810425,192.4796143,362.6417847,192.4796143z M345.0734253,184.8165283       c0.0859375,0,0.171875,0.03125,0.2392578,0.0947266c4.7128906,4.4296875,10.8671875,6.8691406,17.3291016,6.8691406       c13.5996094,0,25.3193359-29.4736328,25.3193359-43.9423828c0-13.9609375-11.3583984-25.3193359-25.3193359-25.3193359       c-6.4697266,0-12.6240234,2.4394531-17.328125,6.8691406c-0.1347656,0.1269531-0.3457031,0.1269531-0.4804688,0       c-4.6962891-4.4296875-10.8505859-6.8691406-17.3291016-6.8691406c-13.9658203,0-25.328125,11.3583984-25.328125,25.3193359       c0,14.46875,11.7246094,43.9423828,25.328125,43.9423828c6.4707031,0,12.625-2.4394531,17.3291016-6.8691406       C344.9005737,184.8477783,344.9874878,184.8165283,345.0734253,184.8165283z" class="color000000 svgShape"/><path d="M345.0685425,129.4161377c-0.0009766,0-0.0029297,0-0.0039063,0       c-0.1933594-0.0019531-0.3486328-0.1601563-0.3457031-0.3535156       c0.0019531-0.1914063,0.4082031-19.1494141,17.9677734-21.8369141       c0.1914063-0.0292969,0.3691406,0.1015625,0.3984375,0.2929688c0.0292969,0.1904297-0.1015625,0.3691406-0.2929688,0.3984375       c-16.9658203,2.5976563-17.3710938,20.9677734-17.3740234,21.1533203       C345.4161987,129.2618408,345.2599487,129.4161377,345.0685425,129.4161377z" class="color000000 svgShape"/><path fill="#7586c6" d="M336.0613098,97.118042c0,0-1.4671021,6.4564362,6.1384277,9.4986572       c6.6851196,2.6740494,7.5084839,7.4869995,4.2868042,14.9549713       C331.0854187,124.5447464,323.0066223,107.7798309,336.0613098,97.118042z" class="color75c675 svgShape"/><path d="M346.4874878,121.9210205c-0.0205078,0-0.0400391-0.0019531-0.0605469-0.0048828       c-0.1904297-0.0332031-0.3173828-0.2138672-0.2851563-0.4042969c0.0361328-0.2138672,0.8007813-5.2509766-6.8554688-7.4189453       c-2.7783203-0.7880859-4.6230469-2.1201172-5.4824219-3.9609375c-1.1582031-2.4814453-0.0830078-4.9414063-0.0361328-5.0449219       c0.078125-0.1767578,0.2851563-0.2548828,0.4619141-0.1767578c0.1757813,0.078125,0.2558594,0.2851563,0.1767578,0.4619141       c-0.0097656,0.0224609-0.9902344,2.2832031,0.0351563,4.4707031c0.7714844,1.6445313,2.4658203,2.8476563,5.0361328,3.5761719       c8.2861328,2.3476563,7.3642578,8.1542969,7.3535156,8.2128906       C346.8009644,121.8018799,346.6535034,121.9210205,346.4874878,121.9210205z" class="color000000 svgShape"/><path fill="#7586c6" d="M348.8361206,162.7120361c-0.0732422,0-0.1464844-0.0224609-0.2099609-0.0693359        c-0.1542969-0.1152344-0.1865234-0.3349609-0.0703125-0.4902344c2.7119141-3.6269531,2.7167969-6.8925781,0.0166016-9.984375        c-0.1269531-0.1455078-0.1123047-0.3671875,0.0332031-0.4941406c0.1455078-0.1259766,0.3662109-0.1123047,0.4941406,0.0332031        c2.9101563,3.3320313,2.9160156,6.9873047,0.0166016,10.8652344        C349.0480347,162.6641846,348.9425659,162.7120361,348.8361206,162.7120361z" class="color75c675 svgShape"/><path fill="#7586c6" d="M341.3009644,162.7120361c-0.1064453,0-0.2119141-0.0478516-0.2802734-0.1396484        c-2.8984375-3.8789063-2.8925781-7.5341797,0.0166016-10.8652344        c0.1279297-0.1455078,0.3486328-0.1591797,0.4941406-0.0332031c0.1455078,0.1269531,0.1601563,0.3486328,0.0332031,0.4941406        c-2.7001953,3.0908203-2.6943359,6.3574219,0.0166016,9.984375c0.1162109,0.1552734,0.0839844,0.375-0.0703125,0.4902344        C341.4474487,162.6895752,341.3742065,162.7120361,341.3009644,162.7120361z" class="color75c675 svgShape"/></g><g class="color000000 svgShape"><path fill="#fff5f5" d="M558.9867554,338.1855164c46.8797607-12.7415771,58.4700317-67.3654175,35.7971191-77.4630737       c-17.0040283-7.5729675-35.7971191,9.407196-35.7971191,9.407196s-18.7930908-16.9801636-35.7971191-9.407196       C500.5167542,270.8200989,512.1069946,325.4439392,558.9867554,338.1855164z" class="colorffffff svgShape"/><path d="M558.9865112,338.5352783c-0.03125,0-0.0615234-0.0039063-0.0917969-0.0117188       c-30.2099609-8.2109375-45.6162109-33.3535156-47.1455078-53.2382813       c-0.9248047-12.0175781,3.2988281-21.3193359,11.2978516-24.8818359       c15.9921875-7.1259766,33.703125,7.3496094,35.9394531,9.2626953       c2.2363281-1.9130859,19.9462891-16.3847656,35.9394531-9.2626953c8,3.5625,12.2236328,12.8632813,11.2988281,24.8808594       c-1.5302734,19.8857422-16.9365234,45.0283203-47.1464844,53.2392578       C559.0480347,338.5313721,559.0177612,338.5352783,558.9865112,338.5352783z M532.4835815,259.1446533       c-3.0371094,0-6.1269531,0.5507813-9.1513672,1.8974609c-7.7167969,3.4375-11.7861328,12.4794922-10.8857422,24.1894531       c1.5107422,19.6279297,16.71875,44.4433594,46.5400391,52.5917969       c29.8212891-8.1494141,45.0302734-32.9648438,46.5400391-52.5927734       c0.9013672-11.7089844-3.1679688-20.7509766-10.8857422-24.1884766       c-16.5996094-7.3916016-35.2333984,9.1796875-35.4199219,9.3476563c-0.1328125,0.1210938-0.3359375,0.1210938-0.46875,0       C558.5997925,270.2520752,546.1066284,259.1446533,532.4835815,259.1446533z" class="color000000 svgShape"/><path fill="#f44" d="M557.4533081,319.7335205c-0.1533203,0-0.2890625-0.0996094-0.3349609-0.2460938l-10.203125-33.1132813       l-7.1279297,9.3984375c-0.0664063,0.0869141-0.1699219,0.1376953-0.2792969,0.1376953h-6.2490234       c-0.1933594,0-0.3496094-0.15625-0.3496094-0.3496094s0.15625-0.3496094,0.3496094-0.3496094h6.0751953l7.4355469-9.8037109       c0.0800781-0.1044922,0.2158203-0.1601563,0.3398438-0.1328125c0.1298828,0.0224609,0.2353516,0.1162109,0.2744141,0.2412109       l10.0419922,32.5908203l10.6425781-40.6171875c0.0419922-0.1582031,0.1708984-0.2783203,0.3505859-0.2607422       c0.1630859,0.0048828,0.3007813,0.1230469,0.3320313,0.2832031l3.0703125,15.8964844h6.8515625       c0.1933594,0,0.3496094,0.15625,0.3496094,0.3496094s-0.15625,0.3496094-0.3496094,0.3496094h-7.140625       c-0.1679688,0-0.3115234-0.1181641-0.34375-0.2832031l-2.8330078-14.6679688l-10.5634766,40.3164063       c-0.0400391,0.1513672-0.1748047,0.2578125-0.3310547,0.2607422       C557.4581909,319.7335205,557.4562378,319.7335205,557.4533081,319.7335205z" class="colorffae44 svgShape"/></g><g class="color000000 svgShape"><path d="M230.7775269,279.5274658c-0.0761719,0-0.1523438-0.0244141-0.2158203-0.0742188      c-2.1230469-1.6669922-3.46875-4.0585938-3.7910156-6.7373047c-0.3222656-2.6777344,0.4179688-5.3212891,2.0839844-7.4433594      c3.4375-4.3779297,9.7978516-5.1416016,14.1767578-1.703125c0.1523438,0.1191406,0.1787109,0.3398438,0.0595703,0.4912109      c-0.1201172,0.1533203-0.3408203,0.1767578-0.4912109,0.0595703c-4.0761719-3.2001953-9.9941406-2.4912109-13.1943359,1.5839844      c-1.5507813,1.9755859-2.2402344,4.4365234-1.9404297,6.9287109s1.5537109,4.71875,3.5283203,6.2695313      c0.1523438,0.1191406,0.1787109,0.3398438,0.0595703,0.4912109      C230.9835815,279.4815674,230.8810425,279.5274658,230.7775269,279.5274658z" class="color000000 svgShape"/></g><g class="color000000 svgShape"><path d="M438.9113159,325.8009033c-4.3007813,0-12.2607422-5.4609375-13.2861328-6.1767578       c-0.1591797-0.1113281-0.1972656-0.3291016-0.0869141-0.4873047c0.1113281-0.1582031,0.3300781-0.1953125,0.4873047-0.0869141       c3.1220703,2.1806641,11.7636719,7.4609375,14.2275391,5.7138672c0.9892578-0.7011719,0.3349609-3.0898438-0.2978516-5.3994141       c-0.71875-2.6230469-1.3984375-5.1005859-0.1142578-6.1582031c3.0722656-2.5244141,14.6953125,3.1289063,15.1884766,3.3710938       c0.1738281,0.0859375,0.2451172,0.2949219,0.1601563,0.46875c-0.0869141,0.1738281-0.2939453,0.2451172-0.46875,0.1601563       c-3.2480469-1.5947266-12.1728516-5.3242188-14.4345703-3.4589844c-0.9345703,0.7695313-0.2841797,3.1396484,0.34375,5.4316406       c0.7285156,2.6601563,1.4169922,5.171875,0.0273438,6.15625       C440.1994019,325.6602783,439.6027222,325.8009033,438.9113159,325.8009033z" class="color000000 svgShape"/><path d="M401.4220581,305.0743408c-0.0400391,0-0.0810547-0.0068359-0.1201172-0.0214844       c-0.1816406-0.0664063-0.2753906-0.2675781-0.2080078-0.4482422       c1.3105469-3.5761719,4.2050781-13.2792969,1.8896484-15.2148438       c-0.9306641-0.7802734-3.0732422,0.4638672-5.1455078,1.6669922c-2.3525391,1.3652344-4.5732422,2.6533203-5.9238281,1.6826172       c-3.2304688-2.3242188-0.7275391-15.0068359-0.6191406-15.5458984       c0.0380859-0.1884766,0.2177734-0.3164063,0.4121094-0.2734375c0.1894531,0.0380859,0.3115234,0.2216797,0.2734375,0.4121094       c-0.7109375,3.546875-2.0371094,13.1269531,0.3417969,14.8388672c0.9853516,0.7060547,3.109375-0.5283203,5.1640625-1.7197266       c2.3876953-1.3847656,4.640625-2.6923828,5.9462891-1.5986328c3.1103516,2.6015625-1.1826172,14.6298828-1.6826172,15.9921875       C401.6984253,304.9874268,401.5646362,305.0743408,401.4220581,305.0743408z" class="color000000 svgShape"/><path d="M414.0988159,310.3868408c-0.1279297,0-0.2509766-0.0703125-0.3125-0.1923828       c-0.0869141-0.171875-0.0175781-0.3828125,0.1552734-0.4697266c3.4003906-1.7148438,12.1445313-6.8203125,11.7773438-9.8154297       c-0.1474609-1.2041016-2.5605469-1.7607422-4.8945313-2.2988281c-2.6503906-0.6113281-5.1533203-1.1894531-5.4755859-2.8212891       c-0.7695313-3.9033203,9.7255859-11.4521484,10.1728516-11.7714844       c0.1572266-0.1132813,0.3759766-0.0761719,0.4882813,0.0820313c0.1123047,0.1572266,0.0751953,0.3759766-0.0820313,0.4882813       c-2.9433594,2.1025391-10.4589844,8.1904297-9.8916016,11.0664063c0.234375,1.1865234,2.6289063,1.7392578,4.9453125,2.2734375       c2.6865234,0.6201172,5.2246094,1.2050781,5.4326172,2.8955078       c0.4931641,4.0263672-10.8613281,9.8730469-12.1582031,10.5263672       C414.2062378,310.3751221,414.1525269,310.3868408,414.0988159,310.3868408z" class="color000000 svgShape"/></g><g class="color000000 svgShape"><path d="M507.3185425,366.0460205c-0.0498047,0-0.1005859-0.0097656-0.1494141-0.0332031      c-0.1748047-0.0820313-0.25-0.2900391-0.1669922-0.4658203c2.2050781-4.6894531,0.1865234-10.2988281-4.5009766-12.5039063      c-4.6884766-2.2041016-10.2998047-0.1845703-12.5068359,4.5058594      c-0.0820313,0.1738281-0.2880859,0.2519531-0.4658203,0.1669922c-0.1748047-0.0820313-0.25-0.2900391-0.1669922-0.4658203      c2.3710938-5.0380859,8.3994141-7.2089844,13.4384766-4.8398438c5.0361328,2.3691406,7.2050781,8.3964844,4.8349609,13.4355469      C507.5753784,365.9718018,507.4494019,366.0460205,507.3185425,366.0460205z" class="color000000 svgShape"/></g><g class="color000000 svgShape"><path d="M539.178894,189.4024658c-0.0058594,0-0.0126953,0-0.0195313,0      c-0.1923828-0.0107422-0.3408203-0.1757813-0.3300781-0.3691406c0.2851563-5.1748047-3.6904297-9.6181641-8.8623047-9.9033203      c-5.1826172-0.2929688-9.6181641,3.6933594-9.9033203,8.8681641c-0.0107422,0.1923828-0.1542969,0.3398438-0.3691406,0.3300781      c-0.1923828-0.0107422-0.3408203-0.1757813-0.3300781-0.3691406c0.3076172-5.5615234,5.0898438-9.8125,10.6416016-9.5283203      c5.5566406,0.3076172,9.828125,5.0810547,9.5224609,10.6416016      C539.5177612,189.2589111,539.3634644,189.4024658,539.178894,189.4024658z" class="color000000 svgShape"/></g></svg>