<svg xmlns="http://www.w3.org/2000/svg" fill-rule="evenodd" clip-rule="evenodd" image-rendering="optimizeQuality" shape-rendering="geometricPrecision" text-rendering="geometricPrecision" viewBox="0 0 213.33 213.33"><path fill-rule="nonzero" d="M178.43 97.24c0,-2.76 2.24,-5 5,-5 2.76,0 5,2.24 5,5l0 82.13c0,9.33 -3.81,17.81 -9.96,23.95 -6.14,6.14 -14.62,9.96 -23.95,9.96l-120.55 0c-9.33,0 -17.81,-3.81 -23.95,-9.96 -6.14,-6.15 -9.96,-14.62 -9.96,-23.95l0 -120.55c0,-9.33 3.81,-17.81 9.96,-23.95 6.15,-6.14 14.62,-9.96 23.95,-9.96l82.13 0c2.76,0 5,2.24 5,5 0,2.76 -2.24,5 -5,5l-82.13 0c-6.57,0 -12.55,2.69 -16.89,7.03 -4.33,4.34 -7.03,10.31 -7.03,16.89l0 120.55c0,6.57 2.69,12.55 7.03,16.89 4.33,4.33 10.31,7.03 16.89,7.03l120.55 0c6.57,0 12.55,-2.69 16.89,-7.03 4.33,-4.34 7.03,-10.31 7.03,-16.89l0 -82.13zm-24.06 -79.36l0.02 -0.02 0.02 -0.02 9.31 -9.31c5.65,-5.65 13.1,-8.48 20.54,-8.48 7.44,0 14.89,2.83 20.54,8.48 5.66,5.66 8.48,13.1 8.48,20.55 0,7.44 -2.83,14.89 -8.48,20.54l-9.3 9.31 -0.02 0.02 -0.02 0.02 -78.95 78.95c-0.98,0.98 -2.26,1.46 -3.54,1.46l-34.02 0c-2.76,0 -5,-2.24 -5,-5l0 -34.02c0,-1.4 0.58,-2.67 1.51,-3.58l78.91 -78.91zm10.62 3.52l26.96 26.96 5.79 -5.79c3.7,-3.7 5.55,-8.59 5.55,-13.48 0,-4.89 -1.85,-9.78 -5.55,-13.48 -3.7,-3.7 -8.59,-5.55 -13.48,-5.55 -4.89,0 -9.78,1.85 -13.48,5.55l-5.79 5.79zm19.89 34.02l-26.96 -26.96 -73.97 73.97 0 26.96 26.96 0 73.97 -73.97z"/></svg>