<svg width="23" height="29" viewBox="0 0 23 29" fill="none" xmlns="http://www.w3.org/2000/svg">
<path d="M15.0627 23.1036C15.0627 24.0982 14.6874 25.052 14.0193 25.7553C13.3512 26.4586 12.4451 26.8537 11.5003 26.8537C10.5554 26.8537 9.64932 26.4586 8.98123 25.7553C8.31314 25.052 7.93782 24.0982 7.93782 23.1036M12.3564 5.60729L10.6156 5.60354C6.64465 5.59354 3.1974 8.98981 3.17009 13.1036V17.8411C3.17009 18.8286 3.05134 19.7924 2.53954 20.6136L2.19873 21.1611C1.6798 21.9911 2.23792 23.1036 3.17009 23.1036H19.8304C20.7626 23.1036 21.3195 21.9911 20.8018 21.1611L20.461 20.6136C19.9504 19.7924 19.8304 18.8274 19.8304 17.8399V13.1048C19.7829 8.98981 16.3274 5.61729 12.3564 5.60729V5.60729Z" stroke="#371B34" stroke-width="2.4" stroke-linecap="round" stroke-linejoin="round"/>
<path d="M11.5 1.85352C12.1298 1.85352 12.7339 2.11691 13.1793 2.58575C13.6247 3.0546 13.8749 3.69049 13.8749 4.35353V5.60354H9.125V4.35353C9.125 3.69049 9.37522 3.0546 9.82061 2.58575C10.266 2.11691 10.8701 1.85352 11.5 1.85352Z" stroke="#371B34" stroke-width="2.4" stroke-linecap="round" stroke-linejoin="round"/>
</svg>
