<svg width="24" height="24" viewBox="0 0 24 24" fill="none" xmlns="http://www.w3.org/2000/svg">
<path fill-rule="evenodd" clip-rule="evenodd" d="M9.5012 3.99908L3.83261 8.53396C2.70105 9.4392 2.14758 10.8856 2.38581 12.315L3.44292 18.6577C3.76438 20.5864 5.43314 22.0001 7.38849 22.0001H16.6115C18.5668 22.0001 20.2356 20.5864 20.5571 18.6577L21.6142 12.315C21.8524 10.8856 21.2989 9.4392 20.1674 8.53396L14.4988 3.99908C13.0379 2.83038 10.9621 2.83038 9.5012 3.99908ZM14 18.75C14.4142 18.75 14.75 18.4142 14.75 18C14.75 17.5858 14.4142 17.25 14 17.25H10C9.58579 17.25 9.25 17.5858 9.25 18C9.25 18.4142 9.58579 18.75 10 18.75H14Z" fill="#363538"/>
</svg>
