<svg width="24" height="24" viewBox="0 0 24 24" fill="none" xmlns="http://www.w3.org/2000/svg">
<path d="M15.4999 1.75C15.0857 1.75 14.7499 2.08579 14.7499 2.5C14.7499 2.91421 15.0857 3.25 15.4999 3.25H19.4999C19.5746 3.25 19.6478 3.25656 19.7189 3.26913L13.0184 9.96967C12.7255 10.2626 12.7255 10.7374 13.0184 11.0303C13.3113 11.3232 13.7861 11.3232 14.079 11.0303L20.7428 4.36653C20.7475 4.41038 20.7499 4.45491 20.7499 4.5V8.5C20.7499 8.91421 21.0857 9.25 21.4999 9.25C21.9141 9.25 22.2499 8.91421 22.2499 8.5V4.5C22.2499 3.7588 21.9567 3.08609 21.4799 2.59155L21.4765 2.58807C20.9765 2.07129 20.2757 1.75 19.4999 1.75H15.4999Z" fill="#363538"/>
<path d="M11.0001 4C14.31 4 15.9919 4 17.2386 4.68874L12.488 9.43934C11.9023 10.0251 11.9023 10.9749 12.488 11.5607C13.0738 12.1464 14.0236 12.1464 14.6094 11.5607L19.3455 6.82457C20.0001 8.0651 20.0001 9.7456 20.0001 13C20.0001 16.3646 20.0001 18.0469 19.2767 19.3C18.8027 20.1209 18.121 20.8026 17.3001 21.2765C16.047 22 14.3647 22 11.0001 22C7.6355 22 5.9532 22 4.70012 21.2765C3.87922 20.8026 3.19753 20.1209 2.72358 19.3C2.00012 18.0469 2.00012 16.3646 2.00012 13C2.00012 9.63538 2.00012 7.95307 2.72358 6.7C3.19753 5.8791 3.87922 5.19741 4.70012 4.72346C5.9532 4 7.6355 4 11.0001 4Z" fill="#363538"/>
</svg>
