<svg width="24" height="24" viewBox="0 0 24 24" fill="none" xmlns="http://www.w3.org/2000/svg">
<path d="M18.6635 11.7008C19.2226 11.2825 19.6172 10.8923 19.8704 10.5582C19.1916 6.82811 15.926 4 12 4C7.58172 4 4 7.58172 4 12C4 12.9424 4.16295 13.8467 4.4622 14.6864C4.84859 14.8491 5.38562 14.9899 6.07946 15.0727C7.78219 15.2758 10.1168 15.0927 12.6469 14.4148C15.1771 13.7368 17.2904 12.728 18.6635 11.7008Z" fill="#363538"/>
<path d="M13.4234 17.3125C15.7546 16.6879 17.8647 15.7877 19.5146 14.7505C18.3931 17.8138 15.4519 20 12 20C10.048 20 8.25937 19.3009 6.87068 18.1395C8.81739 18.2123 11.0936 17.9368 13.4234 17.3125Z" fill="#363538"/>
<path d="M3.06526 14.3941C2.99259 14.1229 3.03949 13.7508 3.34092 13.2653C3.28098 12.8518 3.25 12.4293 3.25 11.9999C3.25 11.6816 3.26701 11.3671 3.30016 11.0575C2.86815 11.4417 2.50139 11.8401 2.21623 12.2475C1.68161 13.0112 1.37825 13.8937 1.61637 14.7824C1.82989 15.5792 2.42038 16.1561 3.14613 16.5485C3.86997 16.9399 4.78959 17.1849 5.81318 17.307C7.86481 17.5517 10.4936 17.3213 13.2295 16.5882C15.9654 15.8551 18.3571 14.7402 20.0115 13.5025C20.837 12.885 21.5109 12.213 21.942 11.5122C22.3743 10.8094 22.5973 10.0146 22.3838 9.21775C22.156 8.36781 21.5011 7.76964 20.7071 7.3755C20.23 7.13865 19.6744 6.95975 19.0626 6.83374C19.4172 7.31763 19.7232 7.83925 19.9734 8.39142L20.1471 8.77454C20.641 9.04274 20.8629 9.33741 20.9349 9.60598C21.0073 9.87606 20.962 10.2425 20.6644 10.7262C20.3657 11.2118 19.8482 11.7514 19.113 12.3014C17.6461 13.3988 15.44 14.443 12.8412 15.1393C10.2425 15.8357 7.80985 16.0345 5.99082 15.8175C5.07908 15.7088 4.36105 15.5002 3.8596 15.2291C3.36007 14.9589 3.13763 14.6642 3.06526 14.3941Z" fill="#363538"/>
</svg>
