<svg width="14" height="14" viewBox="0 0 14 14" fill="none" xmlns="http://www.w3.org/2000/svg">
<path d="M12.25 9.41675V10.2083C12.25 10.6832 12.0278 11.0892 11.7192 11.4082C11.4141 11.7244 10.9999 11.9823 10.5338 12.1864C9.59933 12.5948 8.34983 12.8333 7 12.8333C5.65017 12.8333 4.40067 12.5953 3.46617 12.1864C3.00008 11.9823 2.58592 11.7244 2.28083 11.4082C1.99792 11.1166 1.78792 10.7502 1.75467 10.3256L1.75 10.2083V9.41675C2.02125 9.57075 2.31117 9.70725 2.6215 9.82217C3.80567 10.2602 5.35442 10.5047 7 10.5047C8.64558 10.5047 10.1943 10.2602 11.3785 9.82217C11.6112 9.73583 11.8323 9.63783 12.0429 9.52875L12.25 9.41675ZM1.75 6.20842C2.02125 6.36242 2.31117 6.49892 2.6215 6.61383C3.80567 7.05192 5.35442 7.29633 7 7.29633C8.64558 7.29633 10.1943 7.05192 11.3785 6.61383C11.6796 6.5027 11.9711 6.36711 12.25 6.20842V8.01967C11.8626 8.31865 11.4323 8.5574 10.9737 8.72783C9.94992 9.107 8.54467 9.33858 7 9.33858C5.45592 9.33858 4.05067 9.107 3.02633 8.72783C2.56765 8.5574 2.13735 8.31865 1.75 8.01967V6.20842ZM7 1.75C8.34983 1.75 9.59933 1.988 10.5338 2.39692C10.9999 2.60108 11.4141 2.85892 11.7192 3.17508C12.0021 3.46675 12.2121 3.83308 12.2453 4.25775L12.25 4.375V4.81133C11.8627 5.11034 11.4324 5.34909 10.9737 5.5195C9.94992 5.89867 8.54467 6.13025 7 6.13025C5.45592 6.13025 4.05067 5.89867 3.02633 5.5195C2.63191 5.3732 2.25832 5.17591 1.91508 4.93267L1.75 4.81133V4.375C1.75 3.90017 1.97225 3.49417 2.28083 3.17508C2.58592 2.85892 3.00008 2.60108 3.46617 2.39692C4.40067 1.98858 5.65017 1.75 7 1.75Z" fill="#724CF9"/>
</svg>
