<svg xmlns="http://www.w3.org/2000/svg"
    data-name="Layer 2"
    viewBox="0 0 329 379.1">
    <g class="Layer 1">
        <path d="m87.7,56.7c-3.9,6.6-6.1,13.5-6.7,20.7l-1.3,19.1c-.7,3.4-1.5,10.3-2.2,20.8-.7,3.8-1.1,6.2-1.2,7.3-.1.6-.4,5-.7,13.3-.5,4.1-.7,6.7-.7,7.7-.3,3.7-.1,9.6.5,17.6,1,11.5,5.5,19.5,13.6,24.2.8.5,1.4.8,1.8.8.2,0,.3-.2.3-.6l-3.4-12.2c-.1-.3,0-.5.2-.7l1.6-.4-1.1-3.8c-.1-.2,0-.4,0-.5,2.7,2.7,6.7,5.8,12,9.1-3.5-6.5-6.1-13-8.1-19.4-.5-1.1-1.1-7-1.7-17.7,0-14.1.9-32,2.6-53.6.1-1.5.5-4.5,1.3-9,3.5-16.5,5.2-25.1,4.9-25.9-.4-7.5-1.8-11.7-4.4-12.5l-7.301,15.7Z"/><path d="m92.3,68.1c-2.3-5.8-1.2-14.8,3.6-27,7-12.8,14.3-21.6,22-26.4,10-7.4,18.1-11.4,24.4-12,11.2-1.3,18.8-1.4,22.6-.1,4.1.5,9.3,1.7,15.5,3.7,1.3.5,1.7,1.5,1.4,2.9-.5,4.2-5.2,12.1-14,23.7-8.9,12.6-17.3,22.1-25.1,28.5-8.5,7.6-17.5,13.7-27.1,18.2-7.7,3.8-16.8,7-27.4,9.6l4.1-21.1Z"/><path d="m90.3,86.7c5.1-.8,12.4-.8,21.9.1,5.5-1.2,12.5-2,20.9-2.5l15.3,1.4c8.9-.4,15.7-1.1,20.4-2.2,6.7.9,10.4,1.2,11.1.9,6.1.1,9.7-1.1,10.8-3.6,1.9-2.2,3.1-3.9,3.6-5.2l2.5-11.3c5.3-9.4,8.1-15.6,8.3-18.6,2.2-10.7,1.9-19.3-.9-25.6-4.1-9-7.5-13.8-10.2-14.2-7.1-1.3-14.6-1.8-22.5-1.3-2.1-.1-5.5.6-10.2,2.3l-71,79.8Z"/><path d="m180.1,8.9c13.2-6.4,30.7,2.1,52.5,25.4,2.1,2.6,3.4,4.4,3.8,5.5,5.5,10.7,9.4,19.5,11.7,26.5l2.6,11.3,1.1,19c0,1-.5,1.9-1.4,2.8-4.6,4.1-7.6,6.6-9,7.3-2.4,2-4.7,2.4-6.9,1.2-2.1-.4-4.9-1.7-8.3-3.7-9.4-6.5-14.8-10-16.2-10.4-3.8-2.1-11.1-5.4-21.8-9.9-4.4-2.5-9-5.9-13.6-10.4l5.5-64.6Z"/><path d="m216.9,128.6c6.9-2.6,16.2-2.9,28-1.1,4.9,1.2,8.1,3.8,9.7,8,.8,1.9,1.1,3.6,1,5.2l-2.1,17.3-.2,18.8,2.9,14.5.6,12.9c.1,8.2-.4,13.4-1.7,15.5-1.1,1.3-2.4,1.9-3.7,2-4.7-.1-8.6.1-11.8.6-1,0-2-.2-2.9-.6-1-.5-1.7-1.3-2.2-2.5-1.5-6.5-2.6-10.1-3.1-10.6-.7-1.5-1.4-2.1-2-1.9-1.1.4-2,1.6-2.6,3.7-.4.5-.6,3.8-.4,10.1-.1,1.1-.6,2-1.6,2.6-1.3,2.8-9.2,4.3-23.7,4.5-1.4-.5-3.4-3.8-6-10.1-3.4-7.6-8-19.9-13.7-37.2l35.5-51.7Z"/><path d="m190.8,242c8-.1,13.9.5,17.6,1.8,4.4,3.1,6.9,6.1,7.3,8.8-.5,1.1-.2,7.3,1,18.6-.5,2.4-.6,5.7-.4,9.9,0,.5-.5,3-1.7,7.6.2,1.6-2.8,7.5-9,17.5-2.7,4.1-4.2,5.6-4.5,4.6-1.5-.4-4.5-4.4-9.3-12-14.9-24.9-23.8-39.9-26.6-45.2-4.4-8.9-7-17.2-7.9-24.9l33.5,13.3Z"/><path d="m199.4,287.2c5.4,4.3,7.5,11.1,6.4,20.5l-5.8,17.2-19.6,49.2c-1.4,2.5-4.3,3.4-8.9,2.8-4.4-.1-9.6-.7-15.7-1.8-2-.2-3.1-.7-3.3-1.5,0-1.6-3-11.4-8.9-29.7-.5-1.8-.9-3.5-1.1-5.1-1.1-8-.5-15.9,1.7-23.8,3-10,9.3-22.3,18.9-36.9,7.5-11.7,14.2-18.8,19.9-21.3l16.4,30.4Z"/><path d="m172.3,366c-6.9,3.2-13.8,2.9-20.6-1-1.2-.8-2.6-2.6-4.2-5.5-3.8-8.3-7-14.7-9.6-19.1-.2-3.1-5.1-13.4-14.7-31-3.7-8.7-6.3-16-8.1-21.7-4.2-7.1-6.1-10.8-5.8-11.2-.3-.8-.2-2,.3-3.4,0-.3,1.8-4.2,5.5-11.7.3-.8.6-1.8.7-2.8.5-2-.5-5.5-2.9-10.5-.2-1.1-.1-2.1.3-3.3,1-3,2.1-5.2,3.1-6.7l9.1-3.8c-.5-1,7-.9,22.7.5,28.6,9.8,45.8,21.3,51.6,34.6l-27.4,96.6Z"/><path d="m128.6,228.1c-23.4-3.6-36.8-7.2-40.1-10.6-1-.7-1.3-1.6-1-2.9,2.6-3.8,4.6-7.8,5.9-11.9-.8-.1-2.1,1-4,3.1-.6.4-2.1,3.2-4.5,8.3-1.4,1.7-2.5,2.5-3.2,2.6-4.7.4-9.6-1.9-14.6-7-.4-1.3-.3-2.9.3-4.9,1.3-2,4-8.3,8.1-19,.9-4,1.9-9.4,2.8-16.3l7-22.1,7.2-13.8c1.6-2.1,4.1-3.6,7.6-4.6,4.3-1.5,8.1-.6,11.5,2.9,10.7,12.7,18.8,23.9,24.4,33.5,11.6,26.1,17.2,44.8,16.6,56l-24,6.7Z"/><path fill="#fefefe" d="m127.6,190.9c-.3,4.6-.3,11.4-.1,20.4-.4,7.3-.6,12.2-.4,14.7,0,.9-.1,1.6-.2,2.1-.5,2.5-.9,4.9-1.1,7.3-.4.6,1,2.1,4,4.5.9.8,2.2,1.3,3.7,1.4l12.4,1c1.2,0,2.2-.8,3-2.6,2-4.5,3.3-8.8,3.8-12.6.3-.4.4-4.7.1-13,0-1.5-.2-2.6-.8-3.3-2.4-3.2-3.9-4.8-4.7-5l-19.7-14.9Z"/><path fill="#fefefe" d="m140.4,236.4c3,3.4,5.1,5.1,6.2,5.2,2.1.7,5,1.2,8.7,1.6,4.3.2,8.1.5,11.5,1,1.4.1,2.5.1,3.2,0,7-.7,11.2-1,12.6-1.1,5.5,0,8.5-.1,9.1-.2l9.6-1.2c1.1-.3,1.9-.9,2.2-1.8,1.1-1.5,1.1-6.7,0-15.8-.2-2-.9-5-2.2-9-.2-.7-.9-1.2-2-1.7-3.7-1.7-9.7-2.4-18-2.1-9.4.1-16.7,1-22,2.5h-1.2c-2.5-.5-3.8-.6-4.1-.5-1.7.3-3.1.6-4.2,1.1l-9.4,22Z"/><path fill="#fefefe" d="m145,216.8c-1.5-5.1-.8-8.6,2-10.5,1.1-.5,2.3-.5,3.4-.1.6.1,2.5,1.2,5.7,3.3,1.2.5,2.3.9,3.2,1.1,4.7.7,8,.7,9.9-.1,2-.6,4.1-1.4,6.2-2.6l2.6-1.6,10.2-7.3,13.8-7.3c.3,0,.4.6.4,1.8-.8,3-1.1,5.6-1,7.7l1.4,13.6c0,4.3-.3,7.6-.9,10l-56.9-8Z"/><path fill="#fefefe" d="m92.5,125.1c-1.1.9-.2,7.1,2.8,18.6,1.1,4.1,2.7,7.9,4.6,11.4,3.5,4.4,8.5,12,15.1,22.7,11.2,12.3,19,20.4,23.2,24.1,14,11.6,23.5,16.6,28.5,14.9,3.7-3.7,5.4-10.5,5.2-20.2.5-5.3-4.1-16.9-13.6-34.8l-13.9-24.8c-2.6-3.9-7.4-10-14.2-18.3-6.1-7.2-12.5-12.4-19.3-15.4-10.1-2.8-16.6-2.5-19.5.9l1.1,20.9Z"/><path fill="#fefefe" d="m95,133c-8.7,2.6-15.1,1.9-19.2-2.1-3-2.6-4.8-5.1-5.4-7.4-1.4-4.8-2-7.2-1.9-7.3v-1.3c.3-3.3.5-5.3.6-5.9.6-3.3,1.9-5.5,3.9-6.4,3.4-2,6.3-2.5,8.7-1.5,1.4.3,2.6,1,3.6,1.9.5.4,1.5,1.4,3,3.1,3.7,3.1,7,6.1,9.9,9.2l-3.2,17.7Z"/><path fill="#fefefe" d="m100.1,112.8c-2-1.1-3.4-2.1-4-3.3l-4.3-9.7c-.3-6.1.3-9.4,1.7-9.9,1-.4,2.1-.8,3.3-1l13.9-2c3.7-1.5,6.9-2.5,9.6-3,2.1-.4,4.1-.5,6-.4,1.6-.4,4.7,3.5,9.3,11.6l-35.5,17.7Z"/><path fill="#fefefe" d="m95.2,110.8c-1.8-2.9-2.7-4.8-2.9-5.8-.6-2-.6-3.5-.1-4.5,1.3-3.2,4.1-5,8.4-5.7l-5.4,16Z"/><path fill="#fefefe" d="m122.4,95.5c-2.5-5,.5-9.2,9-12.5-.6-.7,4.7-.2,16,1.5,7.5-.1,13.2.2,17.2.8,9.2-1,16.3-1.4,21.3-1.2,1.4-.1,2.7-.5,4-1.1,1-.4,1.6-1.5,2-3.3l3.8-18.9c.4-1.3,1.4-2.6,2.9-4.1.8,0,1.7,1.5,2.9,4.6.6,7.1,1.4,11.6,2.4,13.6,1.5,4.2,2.9,6.7,4.2,7.5,1,.7,2.6,1.3,4.8,1.6l21.8.3c.4,0,.8.1,1,.3,1.7,1.3,2,4.9.8,11-.8,1.9-3.1,3.8-7,5.8-3.7,1.8-6.5,2.9-8.2,3.4-15.3,3.1-36.2,9.4-62.6,18.9l-27.8,7.3c-4.9,1-8.2,1-9.9.1-5.1-2.1-9.7-6.5-13.7-13.4-1.7-1.3-3.5-6.7-5.5-16.2l20.6-6Z"/><path fill="#fefefe" d="m224.3,91.5c3.1-2.8,6.9-2.8,11.6,0,1,.9,1.7,2.3,2.2,4.2.1.6.2,1.2.2,1.8-.3,2.8-.3,4.6-.1,5.3,0,.9.3,1.4.8,1.6.5.4,2.7-.7,6.7-3.3,2.5-.9,4.5-1.5,5.9-1.9,2.5-.5,4.7-.6,6.8-.2,1.7.4,2.9,3.6,3.5,9.5.2.4-.5,2.7-2.4,6.8l-5.1,10.4c-.5.9-1.1,1.7-1.8,2.5-.8.9-3.1,2.4-6.7,4.4-1.8.7-4.4,1-8.1.8-.8.2-1.4.6-2,1.3-.3.5-.6,1.1-.8,1.9-.6,4.5-1.2,7.9-2,10.3-.7,2.5-1.2,3.8-1.7,4-1,1.7-3.9,0-8.7-5.1l1.7-54.3Z"/><path fill="#fefefe" d="m229.5,139.1c2.8,6,2.7,11.7-.3,17.1l-18.2,25.7c.6-.2-3.4,4.1-11.9,13.1-1.3.9-2.6,0-3.9-2.8-1.3-2.1-1.9-4.7-1.8-7.6,0-8.3,1.7-16.4,5.2-24.4l30.9-21.1Z"/><path fill="#fefefe" d="m153.3,207.7c5.1,8,10.7,11.4,16.8,10.3,9.4-1.1,18.1-6.5,26.1-16.3,3-4.2,4.8-7.3,5.2-9.4.8-2.1,1-6.1.5-12.1.4-2.1,1-3.9,1.9-5.6.9-1.6,1.9-3.2,3.1-4.7,10.5-12,15.9-18.6,16.4-19.7,1.8-2.4,4-6.6,6.6-12.5,5.4-16.5,6.6-27.9,3.5-34-2.3-5-5.3-7.7-8.8-7.9-1.4-.2-2.6-.3-3.7-.2l-22.3,1.9-12.7,2.4-45.5,12c-10.2,4.6-16.9,8.6-20.1,11.9l33,83.9Z"/><path fill="#fefefe" d="m107.1,277c1,1.1,3.7,7.3,8.1,18.4,2,2.3,5.7,9.1,11.3,20.5l4.1,12.8c2.7,5.1,5.3,11.4,8,18.8l14.3,26.3c.4,1.1-.1,1.7-1.6,1.8-7.8-.4-14.2-.2-19.3.7-22.4-1.4-37.8-1.6-46.1-.6-11.8-.1-18-.5-18.4-1.2-4-1-6.4-2.1-7-3.4.1,1.1-2.3-4-7.1-15.3-5.9-18.5-8.5-29.9-7.9-34.4-.7-2.5,2.3-12.6,9-30.2,2-3,8-6.1,18.1-9.3,14.5-3.8,21.8-5.2,22-4.3l12.5-.6Z"/><path fill="#fefefe" d="m80.3,362.1c-2.3,6.7-9.3,10.8-21,12.3-6.6-1.2-24.9-2-54.9-2.6-2.1-.2-3.1-1.1-3.1-2.7.9-5.7,1.3-15,1.2-28,.6-4,1.2-9.6,1.8-16.7,3-10.4,5.2-15.8,6.6-16.3,5.2-7.7,25-16,59.4-24.8l10,78.8Z"/><path fill="#fefefe" d="m220.1,275.6l-8,23.4-11.4,29.1c-1.3,4.2-2.4,8.1-3.2,11.6-.2.6.3,1,1.5,1.2,6,1.2,12.5.5,19.2-2.2,8.6-2.3,15.8-6.7,21.7-13,5.5-6,9.6-12.9,12.1-20.6,1.1-3.4,1.6-6.1,1.8-8.1-.4-8.3-.3-13.1.1-14.4l-33.8-7Z"/><path fill="#fefefe" d="m239.9,293.6c2.3-6.5,8.1-10.4,17.2-11.6l17.3,7.3,20,5.6c7.1,3,14.5,7.2,22,12.6,4.9,5.5,7.6,11.1,8.1,16.8.5-.6.8,6.6.7,21.7l2,10.8-2.3,9.3.4,6.8c.1.8-2.9,1.4-9,1.6l-16.6.3c-4.7-.7-13.2-.9-25.5-.8l-22.7,1.8c-12.1-.9-18.4-1.7-19.1-2.4-11.5-3.5-19.7-17.4-24.7-41.7l32.2-38.1Z"/><path fill="#fefefe" d="m247.5,366.4c-2.9,5.4-6.8,8.7-11.6,10-1.2.3-4.2.1-9.2-.6-2.1.4-12.7.4-31.9.1l-8.4.4c-2.7-.1-4.3-.5-4.7-1.1-.4-.7-.3-1.4.1-2.2,3.1-2.7,4.8-4.5,4.8-5.3,4.4-10.3,7.8-19.3,10.2-27.1.8-2,1.6-3.4,2.3-4.3,3.2-3.5,10-5.5,20.3-6.1l28.1,36.2Z"/><path fill="#fefefe" d="m194.8,369.1c-2.6,3.2-4.9,4.7-6.9,4.4-3.2-1.2-4.5-3-4.2-5.4l8-21.3c3.5-7.1,6.7-14.2,9.6-21.5,1.5-3.3,3.6-5.2,6.2-5.9,1.2-.7,5.6-.9,13.3-.5l-26,50.2Z"/><path d="m238.3,69.9h0l.7,6.4v.1l.6,6.5v.1l.4,6.5v.1l.3,6.5v.1l.2,6.5h0v5.9h0l-.1,5.9h0l-.2,5.9h0l-.3,5.9h0l-.4,5.9h0l-.5,5.9c-.1,1.4-1.3,2.4-2.7,2.3s-2.4-1.3-2.3-2.7h0l.5-5.9h0l.4-5.9h0l.3-5.9h0l.2-5.9h0l.1-5.9h0v-5.9h0l-.2-6.5v.1l-.3-6.5v.1l-.4-6.5v.1l-.6-6.5v.1l-.7-6.4c-.1-1.4.9-2.6,2.2-2.8s2.6,1.1,2.8,2.4Z"/><path d="m91.2,69.9h0l-.7,6.4v.1l-.6,6.5v.1l-.4,6.5v.1l-.3,6.5v.1l-.2,6.5h0v5.9h0l.1,5.9h0l.2,5.9h0l.3,5.9h0l.4,5.9h0l.5,5.9c.1,1.4,1.3,2.4,2.7,2.3s2.4-1.3,2.3-2.7h0l-.5-5.9h0l-.4-5.9h0l-.3-5.9h0l-.2-5.9h0l-.1-5.9h0v-5.9h0l.2-6.5v.1l.3-6.5v.1l.4-6.5v.1l.6-6.5v.1l.7-6.4c.1-1.4-.9-2.6-2.2-2.8s-2.7,1.1-2.8,2.4Z"/><path d="m238.7,138.9h0l-2.1,5.8v.1h0l-2.3,5.7s0,.1-.1.1h0l-2.6,5.5s0,.1-.1.1h0l-2.9,5.4s0,.1-.1.1h0l-3.2,5.3s0,.1-.1.1h0l-3.4,5.1s0,.1-.1.1h0l-3.7,4.9-.1.1h0l-3.9,4.7-.1.1-3.9,4.3-.1.1-4.1,4.1-.1.1-4.3,3.9-.1.1-4.5,3.7-.1.1-4.6,3.5-.1.1-4.8,3.2-.1.1-4.9,3-.1.1-5.1,2.8c-1.2.7-2.8.2-3.4-1-.7-1.2-.2-2.8,1-3.4h0l5.1-2.8-.1.1,4.9-3-.1.1,4.8-3.2-.1.1,4.6-3.5-.1.1,4.5-3.7-.1.1,4.3-3.9-.1.1,4.1-4.1-.1.1,3.9-4.3-.1.1,3.9-4.7-.1.1,3.7-4.9-.1.1,3.4-5.1-.1.1,3.2-5.3-.1.1,2.9-5.4-.1.1,2.6-5.5-.1.1,2.3-5.7v.1l2.1-5.8c.5-1.3,1.9-2,3.2-1.5s2.403,1.601,2.003,2.901Z"/><path d="m90.8,138.9h0l2.1,5.8v.1h0l2.3,5.7s0,.1.1.1h0l2.6,5.5s0,.1.1.1h0l2.9,5.4s0,.1.1.1h0l3.2,5.3s0,.1.1.1h0l3.4,5.1s0,.1.1.1h0l3.7,4.9.1.1h0l3.9,4.7.1.1,3.9,4.3.1.1,4.1,4.1.1.1,4.3,3.9.1.1,4.5,3.7.1.1,4.6,3.5.1.1,4.8,3.2.1.1,4.9,3,.1.1,5.1,2.8c1.2.7,2.8.2,3.4-1,.7-1.2.2-2.8-1-3.4h0l-5.1-2.8.1.1-4.9-3,.1.1-4.8-3.2.1.1-4.6-3.5.1.1-4.5-3.7.1.1-4.3-3.9.1.1-4.1-4.1.1.1-3.9-4.3.1.1-3.9-4.7.1.1-3.7-4.9.1.1-3.4-5.1.1.1-3.2-5.3.1.1-2.9-5.4.1.1-2.6-5.5.1.1-2.3-5.7v.1l-2.1-5.8c-.5-1.3-1.9-2-3.2-1.5s-2.503,1.601-2.003,2.901Z"/><path d="m177,211.1h0l-.8.5-.1.1-.9.4h-.1l-.9.4h-.1l-.9.3h-.1l-.9.3h-.1l-.9.3h-.1l-.9.2h-.1l-.7.1h-.1l-.7.1h-.1l-.7.1h-.1l-.7.1h-1.6c-1.4,0-2.5-1.1-2.5-2.5s1.1-2.5,2.5-2.5h.7-.1.7-.1l.7-.1h-.1l.7-.1h-.1l.7-.1h-.1l.7-.1h-.1l.9-.2h-.1l.9-.3h-.1l.9-.3h-.1l.9-.3h-.1l.9-.4h-.1l.9-.4-.1.1.8-.5c1.2-.7,2.8-.2,3.4,1s.202,3.2-.998,3.8Z"/><path d="m152.5,211.1h0l.8.5.1.1.9.4h.1l.9.4h.1l.9.3h.1l.9.3h.1l.9.3h.1l.9.2h.1l.7.1h.1l.7.1h.1l.7.1h.1l.7.1h1.6c1.4,0,2.5-1.1,2.5-2.5s-1.1-2.5-2.5-2.5h-.7.1-.7.1l-.7-.1h.1l-.7-.1h.1l-.7-.1h.1l-.7-.1h.1l-.9-.2h.1l-.9-.3h.1l-.9-.3h.1l-.9-.3h.1l-.9-.4h.1l-.9-.4.1.1-.8-.5c-1.2-.7-2.8-.2-3.4,1s-.202,3.2.998,3.8Z"/><path d="m205.3,191.5h0l-.2,5.7h0l-.1,5.7h0v5.7h0l.1,5.7h0l.2,5.7v-.1l.5,9.1v-.1l.8,9v-.1l1,9v-.1l1.2,9v-.1l1.5,8.9v-.1l1.7,8.9c.3,1.4-.6,2.8-2,3-1.4.3-2.8-.6-3-2h0l-1.7-8.9v-.1l-1.5-8.9v-.1l-1.2-9v-.1l-1-9v-.1l-.8-9v-.1l-.5-9.1v-.1l-.2-5.7h0l-.1-5.7h0v-5.7h0l.1-5.7h0l.2-5.7c0-1.4,1.2-2.5,2.7-2.5,1.2.1,2.3,1.3,2.3,2.7Z"/><path d="m123.7,191.5h0l.2,5.7h0l.1,5.7h0v5.7h0l-.1,5.7h0l-.2,5.7v-.1l-.5,9.1v-.1l-.8,9v-.1l-1,9v-.1l-1.2,9v-.1l-1.5,8.9v-.1l-1.7,8.9c-.3,1.4.6,2.8,2,3,1.4.3,2.8-.6,3-2h0l1.7-8.9v-.1l1.5-8.9v-.1l1.2-9v-.1l1-9v-.1l.8-9v-.1l.5-9.1v-.1l.2-5.7h0l.1-5.7h0v-5.7h0l-.1-5.7h0l-.2-5.7c0-1.4-1.2-2.5-2.7-2.5-1.2.1-2.4,1.3-2.3,2.7Z"/><path d="m210.3,271.4h0l6.9,1h.1l6.9,1.1h.1l6.8,1.2h.1l6.8,1.4h.1l6.8,1.5h.1l11.6,2.9h.1l11.4,3.3h.1l11.3,3.7h.1l11.2,4.1h.1l11,4.5h.1l10.9,4.9c1.3.6,1.9,2.1,1.3,3.4-.6,1.3-2.1,1.9-3.4,1.3h0l-10.9-4.9h.1l-11-4.5h.1l-11.2-4.1h.1l-11.3-3.7h.1l-11.4-3.3h.1l-11.6-2.9h.1l-6.8-1.5h.1l-6.8-1.4h.1l-6.8-1.2h.1l-6.9-1.1h.1l-6.9-1c-1.4-.2-2.4-1.5-2.2-2.9-.402-1,.898-2,2.298-1.8Z"/><path d="m118.7,271.4h0l-6.9,1h-.1l-6.9,1.1h-.1l-6.8,1.2h-.1l-6.8,1.4h-.1l-6.8,1.5h-.1l-11.6,2.9h-.1l-11.4,3.3h-.1l-11.3,3.7h-.1l-11.2,4.1h-.1l-11,4.5h-.1l-10.9,4.9c-1.3.6-1.9,2.1-1.3,3.4s2.1,1.9,3.4,1.3h0l10.9-4.9h-.1l11-4.5h-.1l11.2-4.1h-.1l11.3-3.7h-.1l11.4-3.3h-.1l11.6-2.9h-.1l6.8-1.5h-.1l6.8-1.4h-.1l6.8-1.2h-.1l6.9-1.1h-.1l6.9-1c1.4-.2,2.4-1.5,2.2-2.9.401-1-.899-2-2.299-1.8Z"/><path d="m313.4,301.7h0l1.1.8.1.1,1,.9.1.1,1,.9.1.1.9,1,.1.1.9,1,.1.1.9,1,.1.1.8,1.1.1.1.9,1.3s0,.1.1.1h0l.8,1.3s0,.1.1.1h0l.8,1.4s0,.1.1.1h0l.7,1.4s0,.1.1.1h0l.6,1.4v.1h0l.5,1.5v.1h0l.5,1.5v.1h0l.4,1.5v.1h0l.3,1.5c.3,1.4-.6,2.8-2,3-1.4.3-2.8-.6-3-2h0l-.3-1.5v.1l-.4-1.5v.1l-.5-1.5v.1l-.5-1.5v.1l-.6-1.4.1.1-.7-1.4.1.1-.8-1.4.1.1-.8-1.3.1.1-.9-1.3.1.1-.8-1.1.1.1-.9-1,.1.1-.9-1,.1.1-.9-1,.1.1-1-.9.1.1-1-.9.1.1-1.1-.8c-1.1-.9-1.3-2.5-.5-3.6.498-.999,2.098-1.199,3.298-.399Z"/><path d="m15.6,301.7h0l-1.1.8-.1.1-1,.9-.1.1-1,.9-.1.1-.9,1-.1.1-.9,1-.1.1-.9,1-.1.1-.8,1.1-.1.1-.9,1.3s0,.1-.1.1h0l-.8,1.3s0,.1-.1.1h0l-.8,1.4s0,.1-.1.1h0l-.7,1.4s0,.1-.1.1h0l-.6,1.4v.1h0l-.5,1.5v.1h0l-.5,1.5v.1h0l-.4,1.5v.1h0l-.3,1.5c-.3,1.4.6,2.8,2,3,1.4.3,2.8-.6,3-2h0l.3-1.5v.1l.4-1.5v.1l.5-1.5v.1l.5-1.5v.1l.6-1.4-.1.1.7-1.4-.1.1.8-1.4-.1.1.8-1.3-.1.1.9-1.3-.1.1.8-1.1-.1.1.9-1-.1.1.9-1-.1.1.9-1-.1.1,1-.9-.1.1,1-.9-.1.1,1.1-.8c1.1-.9,1.3-2.5.5-3.6-.501-.999-2.101-1.199-3.301-.399Z"/><path d="m326.3,323.4h0l.6,4.3h0l.6,4.3v.1l.5,4.3v.1l.4,4.3v.1l.3,4.3v.1l.2,4.5v.1l.1,4.5v4.7l-.1,4.5v.1l-.1,4.5v.1l-.2,4.5c-.1,1.4-1.3,2.5-2.7,2.4s-2.5-1.3-2.4-2.7h0l.2-4.5v.1l.1-4.5v.1l.1-4.5v.1-4.5.1l-.1-4.5v.1l-.2-4.5v.1l-.3-4.3v.1l-.4-4.3v.1l-.5-4.3h0l-.6-4.3h0l-.6-4.3c-.2-1.4.8-2.7,2.1-2.9s2.8.1,3,1.5Z"/><path d="m2.7,323.4h0l-.6,4.3h0l-.6,4.3v.1l-.5,4.3v.1l-.4,4.3v.1l-.3,4.3v.1l-.2,4.5v.1l-.1,4.5v4.7l.1,4.5v.1l.1,4.5v.1l.2,4.5c.1,1.4,1.3,2.5,2.7,2.4s2.5-1.3,2.4-2.7h0l-.2-4.5v.1l-.1-4.5v.1l-.1-4.5v.1-4.5.1l.1-4.5v.1l.2-4.5v.1l.3-4.3v.1l.4-4.3v.1l.5-4.3h0l.6-4.3h0l.6-4.3c.2-1.4-.8-2.7-2.1-2.9s-2.8.1-3,1.5Z"/><path d="m188.7,101.4h0l1.6-1.1.1-.1,1.7-1h.1l1.7-.9h.1l1.7-.8h.1l1.8-.7h.1l1.8-.6h.1l1.8-.5h.1l1.8-.4h.1l1.8-.2h.1l1.8-.1h2l1.8.1h.1l1.8.2h.1l1.8.3h.1l1.8.4h.1l1.8.6c1,.3,1.6,1.7,1.4,3-.2,1.4-1.3,2.2-2.3,1.9h0l-1.8-.6h.1l-1.8-.4h.1l-1.8-.3h.1l-1.8-.2h.1l-1.8-.1h.1-1.8.1l-1.8.1h.1l-1.8.2h.1l-1.8.4h.1l-1.8.5h.1l-1.8.6h.1l-1.8.7h.1l-1.7.8h.1l-1.7.9h.1l-1.7,1,.1-.1-1.6,1.1c-.9.6-2.1.1-2.5-1.1s-.503-3,.397-3.6Z"/><path d="m140.9,101.9h0l-1.6-1.1-.1-.1-1.6-1h-.1l-1.6-.9h-.1l-1.7-.8h-.1l-1.7-.7h-.1l-1.7-.6h-.1l-1.7-.5h-.1l-1.7-.4h-.1l-1.8-.2h-.1l-1.8-.1h-2l-1.8.1h-.1l-1.8.2h-.1l-1.7.3h-.1l-1.7.4h-.1l-1.7.6c-1,.3-1.6,1.7-1.4,3,.2,1.4,1.2,2.2,2.2,1.9h0l1.7-.6h-.1l1.7-.4h-.1l1.7-.3h-.1l1.8-.2h-.1l1.8-.1h-.1,1.8-.1l1.8.1h-.1l1.8.2h-.1l1.7.4h-.1l1.7.5h-.1l1.7.6h-.1l1.7.7h-.1l1.7.8h-.1l1.6.9h-.1l1.6,1-.1-.1,1.6,1.1c.9.6,2,.1,2.5-1.1.903-1.4.603-3-.297-3.6Z"/><path d="m205.1,115.4h0l-.4-.2.1.1-.4-.2.1.1-.4-.2.1.1-.4-.2.1.1-.4-.2h.1l-.4-.1h.1l-.4-.1h.1l-.4-.1h.1l-.4-.1h.1-.4.1-.4.1-.4.1l-.4.1h.1l-.4.1h.1l-.4.1h.1l-.4.1h.1l-.4.2.1-.1-.4.2.1-.1-.4.2.1-.1-.4.2.1-.1-.4.2.1-.1-.4.3c-1.1.8-2.7.6-3.5-.5s-.6-2.7.5-3.5h0l.4-.3.1-.1h0l.4-.2.1-.1h0l.4-.2s.1,0,.1-.1h0l.4-.2s.1,0,.1-.1h0l.4-.2s.1,0,.1-.1h0l.4-.2h.1l.4-.1h.1l.4-.1h.1l.4-.1h.1l.4-.1h1.6l.4.1h.1l.4.1h.1l.4.1h.1l.4.1h.1l.4.2s.1,0,.1.1h0l.4.2s.1,0,.1.1h0l.4.2s.1,0,.1.1h0l.4.2.1.1h0l.4.2c1.2.8,1.5,2.3.7,3.5.896,1.2-.704,1.5-1.904.7Z"/><path d="m123.2,115.2h0l.4-.2-.1.1.4-.2-.1.1.4-.2-.1.1.4-.2h-.1l.4-.1h-.1l.4-.1h-.1l.4-.1h-.1l.4-.1h-.1.4-.1.4-.1.4-.1l.4.1h-.1l.4.1h-.1l.4.1h-.1l.4.1h-.1l.4.2-.1-.1.4.2-.1-.1.4.2-.1-.1.4.2-.1-.1.4.2-.1-.1.4.3-.1-.1.3.3c1.1.9,2.7.8,3.6-.3.9-1.1.8-2.7-.3-3.6h0l-.3-.3-.1-.1h0l-.4-.3-.1-.1h0l-.4-.2-.1-.1h0l-.4-.2s-.1,0-.1-.1h0l-.4-.2s-.1,0-.1-.1h0l-.4-.2s-.1,0-.1-.1h0l-.4-.2h-.1l-.4-.1h-.1l-.4-.1h-.1l-.4-.1h-.1l-.4-.1h-1.6l-.4.1h-.1l-.4.1h-.1l-.4.1h-.1l-.4.1h-.1l-.4.2s-.1,0-.1.1h0l-.4.2s-.1,0-.1.1h0l-.4.2s-.1,0-.1.1h0l-.4.2c-1.2.7-1.6,2.3-.9,3.5-.896,1.3.604,1.7,1.804,1Z"/><path d="m169.3,132.5h0l-.1.8v.1l-.1.7v.1l-.2.7v.1l-.2.7v.1l-.2.7v.1l-.3.7v.1l-.3.7v.1l-.3.7v.1l-.3.7v.1l-.4.7v.1l-.4.7-.1.1-.4.6-.1.1-.4.6-.1.1-.5.6c-.9,1.1-2.4,1.3-3.6.5-1.1-.9-1.3-2.4-.5-3.6h0l.5-.6-.1.1.4-.6-.1.1.4-.6-.1.1.4-.7v.1l.4-.7v.1l.3-.7v.1l.3-.7v.1l.3-.7v.1l.3-.7v.1l.2-.7v.1l.2-.7v.1l.2-.7v.1l.1-.7v.1l.1-.8c.2-1.4,1.5-2.4,2.9-2.2s2.001,1.301,1.801,2.701Z"/><path d="m165.1,140.9h0l.1.3-.1-.1.2.3-.1-.1.2.3-.1-.1.2.3-.1-.1.2.3-.1-.1.2.2-.1-.1.2.2-.1-.1.2.2-.1-.1.3.2-.1-.1.3.2-.1-.1.2.1-.1-.1.2.1-.1-.1.2.1-.1-.1.2.1h-.1l.3.1h-.1l.3.1h-.1l.3.1h-.1.3c1.4.2,2.3,1.6,2.1,2.9s-1.6,2.3-2.9,2.1h-.4l-.3-.1h-.1l-.3-.1h-.1l-.3-.1h-.1l-.2-.1s-.1,0-.1-.1h0l-.2-.1s-.1,0-.1-.1h0l-.2-.1s-.1,0-.1-.1h0l-.2-.1s-.1,0-.1-.1h0l-.3-.2-.1-.1h0l-.3-.2-.1-.1h0l-.2-.2-.1-.1h0l-.2-.2-.1-.1h0l-.2-.2-.1-.1h0l-.2-.3-.1-.1h0l-.2-.3-.1-.1h0l-.2-.3-.1-.1h0l-.2-.3s0-.1-.1-.1h0l-.1-.3c-.6-1.3,0-2.8,1.2-3.4.903-.901,2.403-.301,3.003.999Z"/><path d="m152.4,165.7h0l1.1.8-.1-.1,1.2.8-.1-.1,1.2.7-.1-.1,1.3.6-.1-.1,1.3.5-.2-.1,1.3.4h-.2l1.4.3h-.2l1.4.3h-.2l1.4.2h-.2l1.4.1h-.2,1.4-.2l1.4-.1h-.2l1.4-.2h-.2l1.3-.3h-.2l1.3-.3h-.2l1.3-.4-.1.1,1.3-.5-.1.1,1.2-.6-.1.1,1.2-.7-.1.1,1.2-.7-.1.1,1.1-.8-.1.1,1.1-.9c1.1-.9,2.7-.7,3.6.3.9,1.1.7,2.7-.3,3.6h0l-1.1.9-.1.1h0l-1.1.8-.1.1h0l-1.2.7-.1.1h0l-1.2.7s-.1,0-.1.1h0l-1.2.6s-.1,0-.1.1h0l-1.3.5s-.1,0-.1.1h0l-1.3.4h-.2l-1.3.3h-.2l-1.3.3h-.2l-1.4.2h-.2l-1.4.1h-1.8l-1.4-.1h-.2l-1.4-.2h-.2l-1.4-.3h-.2l-1.4-.3h-.2l-1.3-.4q-.1,0-.2-.1h0l-1.3-.5q-.1,0-.1-.1h0l-1.3-.6s-.1,0-.1-.1h0l-1.2-.7-.1-.1h0l-1.2-.8-.1-.1h0l-1.1-.8c-1.1-.8-1.4-2.4-.6-3.5.901-1.2,2.501-1.4,3.701-.6Z"/><path d="m235.9,104.5h0l.7-.9.1-.1h0l.8-.9.1-.1h0l.8-.8.1-.1h0l.9-.8.1-.1h0l.9-.7.1-.1h0l.9-.7s.1,0,.1-.1h0l1-.6s.1,0,.1-.1h0l1-.6s.1,0,.1-.1h0l1-.5.1-.1.9-.4h.1l.9-.4h.1l1-.4h.1l1-.3h.1l1-.3h.1l1-.2h.1l1-.2c1.4-.3,2.7.7,3,2,.3,1.4-.7,2.7-2,3h0l-1,.2h.1l-1,.2h.1l-1,.3h.1l-1,.3h.1l-1,.4h.1l-.9.4h.1l-.9.4.1-.1-1,.5.1-.1-1,.6.1-.1-1,.6.1-.1-.9.7.1-.1-.9.7.1-.1-.9.8.1-.1-.8.8.1-.1-.8.9.1-.1-.7.9c-.9,1.1-2.5,1.2-3.6.3-1.103-.9-1.203-2.5-.403-3.5Z"/><path d="m253.8,94.9h0l.7.2q.1,0,.2.1h0l.7.3q.1,0,.2.1h0l.7.3c.1,0,.1.1.2.1h0l.7.4c.1,0,.1.1.2.1h0l.6.4.1.1h0l.6.5.1.1h0l.6.5.1.1h0l.5.6.1.1h0l.5.6.1.1h0l.4.6s.1.1.1.2h0l.4.7c0,.1.1.1.1.2h0l.3.7c0,.1.1.1.1.2h0l.3.7s0,.1.1.1h0l.2.6v.1h0l.2.6v.1h0l.1.6v.1h0l.1.6v.1h0l.1.6v.1h0v.7h0v.7h0v.7h0l-.1.6v.1h0l-.1.6c-.2,1.4-1.5,2.3-2.9,2.1s-2.3-1.5-2.1-2.9h0l.1-.6v.1l.1-.6v.1-.6.1-.6.1-.6.1l-.1-.6v.1l-.1-.6v.1l-.1-.6v.1l-.2-.6v.1l-.2-.6.1.1-.3-.7.1.2-.3-.7.1.2-.4-.7.1.2-.4-.6.1.1-.5-.6.1.1-.5-.6.1.1-.6-.5.1.1-.6-.5.1.1-.6-.4.2.1-.7-.4.2.1-.7-.3.2.1-.7-.3.2.1-.7-.2c-1.3-.4-2-1.9-1.6-3.2.399-.699,1.899-1.399,3.199-.999Z"/><path d="m262.8,110.4h0l-.2,1.3v.1l-.2,1.3v.1l-.3,1.3v.1l-.3,1.3v.1l-.4,1.3v.1l-.4,1.3v.1l-.5,1.2v.1l-.5,1.1v.1l-.5,1.1v.1l-.6,1.1v.1l-.6,1.1-.1.1-.7,1-.1.1-.7,1-.1.1-.7,1c-.9,1.1-2.4,1.3-3.6.5-1.1-.9-1.3-2.4-.5-3.6h0l.7-1-.1.1.7-1-.1.1.7-1-.1.1.6-1.1v.1l.6-1.1v.1l.5-1.1v.1l.5-1.1v.1l.5-1.2v.1l.4-1.3v.1l.4-1.3v.1l.3-1.3v.1l.3-1.3v.1l.2-1.3v.1l.2-1.3c.2-1.4,1.4-2.4,2.8-2.2s2.101,1.301,1.901,2.701Z"/><path d="m255.5,128.1h0l-.5.7-.1.1h0l-.5.6-.1.1h0l-.6.6-.1.1h0l-.6.6-.1.1h0l-.6.5-.1.1h0l-.7.5-.1.1h0l-.7.4-.1.1h0l-.7.4-.1.1h0l-.8.4s-.1,0-.2.1h0l-.8.3q-.1,0-.2.1h0l-.8.3h-.2l-.8.2h-.2l-.8.1h-.2l-.8.1h-3.2l-.8-.1h-.2l-.8-.1h-.2l-.8-.2h-.1l-.7-.2s-.1,0-.1-.1h0l-.7-.3c-1.3-.5-2-2-1.5-3.3s2-2,3.3-1.5h0l.7.3-.1-.1.7.2h-.1l.8.2h-.2l.8.1h-.2l.8.1h-.2.8-.2.8-.2.8-.2l.8-.1h-.2l.8-.1h-.2l.8-.2h-.2l.8-.3-.2.1.8-.3-.2.1.8-.4-.1.1.7-.4-.1.1.7-.4-.1.1.7-.5-.1.1.6-.5-.1.1.6-.6-.1.1.6-.6-.1.1.5-.6-.1.1.5-.7c.8-1.1,2.4-1.4,3.5-.6s1.901,2.5,1.101,3.6Z"/><path d="m236.3,115.2h0l.5-.8v-.1l.6-.8.1-.1.6-.8.1-.1.6-.8.1-.1.7-.8.1-.1.7-.7.1-.1.7-.7.1-.1.8-.7.1-.1.8-.7.1-.1.8-.7.1-.1.8-.6.1-.1.9-.6.1-.1.9-.6h.1l.9-.5c1.2-.7,2.8-.3,3.5.9s.3,2.8-.9,3.5h0l-.9.5h.1l-.9.6.1-.1-.9.6.1-.1-.8.6.1-.1-.8.7.1-.1-.8.7.1-.1-.8.7.1-.1-.7.7.1-.1-.7.7.1-.1-.7.8.1-.1-.6.8.1-.1-.6.8.1-.1-.6.8v-.1l-.5.8c-.8,1.2-2.3,1.5-3.5.8-1.903,0-2.302-1.601-1.502-2.801Z"/><path d="m239,113.1h0l.5-.1h.2l.5-.1h2.3l.5.1h.2l.5.1h.2l.5.1h.2l.5.2q.1,0,.2.1h0l.5.2s.1,0,.1.1h0l.5.2s.1,0,.1.1h0l.4.2.1.1h0l.4.3.1.1h0l.4.3.1.1h0l.4.3.1.1h0l.4.3.1.1h0l.3.4.1.1h0l.3.4.1.1h0l.3.4.1.1h0l.3.4.1.1h0l.2.4s0,.1.1.1h0l.2.5c.6,1.3,0,2.8-1.3,3.4-1.3.6-2.8,0-3.4-1.3h0l-.2-.5.1.1-.2-.4.1.1-.3-.4.1.1-.3-.4.1.1-.3-.4.1.1-.3-.4.1.1-.4-.3.1.1-.4-.3.1.1-.4-.3.1.1-.4-.3.1.1-.4-.2.1.1-.5-.2.1.1-.5-.2.2.1-.5-.2h.2l-.5-.1h.2l-.5-.1h.2l-.5-.1h.2-.5.2-.5.2-.5.2l-.5.1h.2l-.5.1c-1.4.3-2.7-.6-3-2-.501-1.099.398-2.399,1.698-2.699Z"/><path d="m237.3,86.5h0c-3.8.1-7.6.3-11.2.3h0c-5.3,0-10.3-.3-14.3-1.5h0c-7.1-2.1-10.3-7-11.8-13.7h0c-.6-2.5-.9-5.4-1.2-7.8h0c-.2-2-.4-3.6-.7-4.7h0c-.1-.5-.2-.7-.2-.7h0l2.3-1.1h0l-2.3,1.1c-.1-.3.3.9,1.7.9h.2c.8-.1,1.1-.5,1-.4h0c-1.1,1.1-3.6,7.6-4.9,13.4h0c-.4,1.9-.7,3.5-1,5h0c-.2,1.1-.4,2.3-.6,3.3h0c-.4,1.8-1.1,3.8-2.8,5.1h0c-1.9,1.5-4.5,1.7-6.9,1.7h0c-1.4,0-3-.1-4.7-.2h0c-1.1-.1-2.3-.1-3.6-.2h0c-3.3-.1-7.1-.1-11.2-.2h0c-4.1,0-8.5,0-12.4-.2h0c-2.7-.1-5.3-.2-7.7-.4h0c-2.3-.1-4.4-.3-6.6-.3h0c-1.2,0-2.4-.1-3.7-.1h-2.6c-6.2.2-13,1.2-19.4,2.1h0l-1,.1h0c-6.6,1-12.7,1.8-18.8,2.7-1.4.2-2.7-.8-2.8-2.2-.2-1.4.8-2.7,2.2-2.8h0c6-.8,12.1-1.7,18.7-2.7h0l1-.1h0c6.3-.9,13.3-2,19.9-2.2h2.7c1.3,0,2.6,0,3.8.1h0c2.2.1,4.4.2,6.7.3h0c2.4.1,4.9.3,7.6.4h0c3.9.1,8.1.2,12.3.2h0c4,0,7.9,0,11.3.2h0c1.3,0,2.5.1,3.6.2h0c1.7.1,3.2.2,4.4.2h0c2.4,0,3.4-.3,3.8-.6h0c.3-.2.6-.7,1-2.3h0c.2-.8.4-1.8.6-3h0c.3-1.5.6-3.3,1.1-5.3h0c1.3-5.4,4-13.5,6.3-15.7h0c.3-.3,1.1-1,2.2-1.1h.2c1.8,0,2.7,1.5,2.9,2l-2.3,1.1h0l2.3-1.1h0c.3.6.5,1.3.6,1.9h0c.3,1.4.5,3.3.7,5.2h0c.3,2.4.6,5,1.1,7.3h0c1.2,5.5,3.4,8.5,8.3,10h0c3.2,1,7.6,1.3,12.8,1.3h0c3.5,0,7.2-.1,11-.3,1.4-.1,2.6,1,2.6,2.4.3,1.1-.801,2.3-2.2,2.4Z"/><path d="m93.4,103.9h0c-1.1,14.3-2.1,28.3-1.6,39.9h0c.6,11.6,2.8,20.4,6.2,26.1h0c2,3.4,4.5,5.8,6.1,7.4h0c.6.6,1.3,1.3,1.7,1.8h0c.1.1.2.2.2.4h0c.1.2,1.3,2.2-.6,3.7h0c-.8.6-1.7.6-2,.6h-.1c-2.5-.1-8.6-2.4-12.5-6.1h0c-2.9-2.8-4.4-6.3-5.4-8.5h0c-.6-1.3-.8-1.8-1-2h0v.1h0c.1.1.5.4,1.2.4h0c1.4,0,1.7-1.1,1.6-.9h0s-.1.2-.1.6h0c0,.9.3,2.4,1.2,4.6h0c1.2,2.7,3.3,6,5.2,9.1h0c1.3,2.1,2.6,4.1,3.2,5.4h0c.1.2.2.4.3.7h0c.1.2.4,1.2,0,2.2h0c-.5,1.4-1.8,1.7-2.6,1.7h0c-.6,0-1.1-.2-1.4-.3h0c-2.5-1.1-8.7-6.7-12.3-10.8h0c-4.7-5.2-6.2-9.1-7-15.1h0c-.7-5.7-.8-13.5-.7-18.4h0c.1-3.6.3-5.7.8-10.2h0c.2-1.8.4-3.9.7-6.6h0c1-9.8,2.6-27.2,4.2-44.8h0c.1-1.4,1.4-2.4,2.7-2.3,1.4.1,2.4,1.4,2.3,2.7h0c-1.6,17.5-3.2,35-4.2,44.8h0c-.3,2.8-.5,4.8-.7,6.6h0c-.5,4.5-.7,6.5-.8,9.8h0c-.1,4.8,0,12.3.7,17.6h0c.6,5,1.8,7.9,5.7,12.4h0c3.7,4.2,9.2,8.9,10.5,9.5h0c.1,0-.2-.1-.6-.1h0c-.6,0-1.7.3-2.1,1.5h0c-.3.8,0,1.4-.1,1.2h0s0-.1-.1-.2h0c-.4-.9-1.4-2.5-2.8-4.8h0c-1.8-2.9-4.2-6.6-5.5-9.7h0c-1.1-2.6-1.6-4.8-1.6-6.6h0c0-.8.1-1.5.3-2.2h0c.3-.8,1.2-2.5,3.2-2.5h0c1,0,1.8.5,2.3,1h0c.1.1.3.3.4.4h0c.7.8,1.2,2.1,1.7,3.1h0c1,2.3,2.2,4.9,4.3,6.9h0c3.1,3,8,4.6,9.1,4.7h0c.2,0-.5-.1-1.1.4h0c-1.7,1.3-.5,3.1-.6,2.9h0v.1h0c-.1-.1-.4-.5-1.2-1.2h0c-1.7-1.7-4.6-4.5-6.9-8.5h0c-4-6.8-6.3-16.5-6.9-28.5h0c-.6-11.9.5-26.3,1.6-40.5.1-1.4,1.3-2.4,2.7-2.3,1.401.2,2.501,1.4,2.401,2.8Z"/><path d="m240.5,132.4h0c-.4,7.2-.8,14.4-1.4,23.1h0c-.6,8.7-1.3,19.5-4.7,28h0c-1.8,4.4-4.2,8.2-6,10.8h0c-1.1,1.7-1.7,2.6-1.9,3.2h0v.1h0c0,.2.2-.6-.3-1.4h0c-.6-.9-1.4-.8-1.3-.8h0c1,0,6.4-2.5,10.2-9.3h0c2.8-5,4.7-12.1,6.1-17.4h0c.7-2.5,1.3-5,1.9-6.1h0v-.1h0c.1-.2.3-.5.6-.8h0c.3-.3,1-.8,1.9-.8h0c2.1,0,2.7,2.1,2.7,2.1l-2.4.9h0l2.4-.9c.7,1.8.9,6.4.9,10.5h0c0,2.7-.1,5.6-.3,8h0c-.3,3.6-.8,6.2-1.1,7.7h0c-.1.7-.2,1-.2,1.2h0c-.1,1.6.8-2.2-2.2-2.4h-.2c-1.2,0-1.9.9-1.5.6h0l.1-.1h0c1.3-1.5,5.5-7.7,7.1-14.8h0c1.3-5.9.9-12.6.4-18.9h0c-.1-1.3-.2-2.6-.2-3.8h0c-.2-3.3-.2-6.3-.3-9.6h0c0-3.8-.1-8-.4-13.9h0c-.5-11.1-1.9-28.1-3.2-45.1h0c-.1-1.4.9-2.6,2.3-2.7s2.6.9,2.7,2.3h0c1.4,17,2.7,34,3.2,45.2h0c.3,6,.3,10.3.4,14.1h0c0,3.3.1,6.2.3,9.4h0c.1,1.2.2,2.4.2,3.7h0c.4,6.1,1,13.6-.6,20.3h0c-1.8,8.1-6.6,15-8.2,17h0c-.1.1-.2.3-.4.4h0c.1-.1-.7.9-2.1.9h-.2c-3.1-.3-2.3-4.3-2.4-3h0c0-.5.2-1.1.3-1.7h0c.3-1.5.8-3.9,1-7.2h0c.2-2.3.3-5,.3-7.6h0c0-4.5-.3-7.9-.6-8.7l2.4-.9h0l-2.4.9c-.2-.6.2,1.2,2,1.2h0c.8,0,1.4-.4,1.6-.6h0l.3-.3h0c-.3.5-.7,2.1-1.5,5h0c-1.3,5.1-3.4,12.9-6.6,18.6h0c-4.3,7.6-10.9,11.8-14.5,11.9h-.1c-.6,0-2-.1-2.9-1.4h0c-.8-1.2-.5-2.4-.4-2.9h0c.1-.2.1-.4.2-.5h0c.5-1.2,1.5-2.7,2.4-4.1h0c1.7-2.6,3.9-6,5.5-9.9h0c3-7.6,3.8-17.6,4.4-26.5h0c.6-8.7,1-15.9,1.4-23h0c.1-1.4,1.3-2.5,2.7-2.4,1.6-.1,2.7,1.1,2.6,2.5Z"/><path d="m79,83.8h0c2.3-13.4,4.7-27.3,12-41.2h0c7.2-13.8,19.3-27.7,33-34.9h0c13-6.8,27.1-7.7,40.2-7.7h2.6c13.8.1,27.3.8,40.6,7.9h0c13.2,7,26.1,20.3,33.5,33.8h0c7.5,13.6,9.5,27.4,11.4,40.7.2,1.4-.8,2.7-2.1,2.9-1.4.2-2.7-.8-2.9-2.1h0c-1.9-13.4-3.8-26.3-10.8-38.9h0c-7-12.7-19.2-25.2-31.5-31.8h0c-12.1-6.5-24.5-7.2-38.3-7.3h-2.6c-13,0-26.1.9-37.9,7.1h0c-12.6,6.7-24,19.7-30.9,32.8h0c-6.8,13.1-9.1,26.2-11.5,39.7-.2,1.4-1.5,2.3-2.9,2.1s-2.1-1.7-1.9-3.1Z"/><path d="m80.2,168.3h0l-.4,4v.1l-.5,4v.1l-.7,4v.1l-.8,3.9v.1l-.9,3.9v.1l-1,3.9v.1l-1,3.7v.1l-1.1,3.6v.1l-1.2,3.6v.1l-1.3,3.6v.1l-1.4,3.5v.1l-1.5,3.5c-.6,1.3-2,1.9-3.3,1.3s-1.9-2-1.3-3.3h0l1.5-3.5v.1l1.4-3.5v.1l1.3-3.6v.1l1.2-3.6v.1l1.1-3.6v.1l1-3.7v.1l1-3.9v.1l.9-3.9v.1l.8-3.9v.1l.7-4v.1l.5-4v.1l.4-4c.1-1.4,1.4-2.4,2.8-2.2.9-.6,1.9.6,1.8,2Z"/><path d="m67,210.9h0l1.6.4h0l1.6.4h0l1.6.4h0l1.6.4h0l1.6.5h0l1.6.5h0l1.6.5h0l1.6.5h0l1.6.6h0l1.6.6c1.3.5,2,1.9,1.5,3.2-.5,1.3-1.9,2-3.2,1.5h0l-1.6-.6h0l-1.6-.6h0l-1.6-.5h0l-1.6-.5h0l-1.6-.5h0l-1.6-.5h0l-1.6-.4h0l-1.6-.4h0l-1.6-.4h0l-1.6-.4c-1.4-.3-2.2-1.7-1.9-3.1.9-1.2,2.3-2,3.6-1.6Z"/><path d="m80.6,215.7h0l.9-1.3v.1l.9-1.3v.1l.9-1.4v.1l.8-1.4v.1l.8-1.4v.1l.7-1.4v.1l.7-1.5v.1l.6-1.5v.1l.6-1.5v.1l.5-1.5v.1l.5-1.5v.1l.5-1.5c.4-1.3,1.8-2.1,3.1-1.7s2.1,1.8,1.7,3.1h0l-.5,1.5v.1l-.5,1.5v.1l-.5,1.5v.1l-.6,1.5v.1l-.6,1.5v.1l-.7,1.5v.1l-.7,1.4v.1l-.8,1.4v.1l-.8,1.4v.1l-.9,1.4v.1l-.9,1.3v.1l-.9,1.3c-.8,1.1-2.4,1.4-3.5.6-1.8-1.499-2.1-3.099-1.3-4.199Z"/><path d="m94.6,200.3h0l-.2,2.1h0l-.2,2.1h0l-.2,2.1h0l-.3,2.1h0l-.3,2.1h0l-.4,2.1h0l-.4,2.1h0l-.5,2.1h0l-.5,2.1h0l-.5,2.1c-.3,1.4-1.7,2.2-3.1,1.8-1.4-.3-2.2-1.7-1.8-3.1h0l.5-2.1h0l.5-2.1h0l.5-2.1h0l.4-2.1h0l.4-2.1h0l.3-2.1h0l.3-2.1h0l.2-2.1h0l.2-2.1h0l.2-2.1c.1-1.4,1.3-2.4,2.7-2.3s2.3,2.3,2.2,3.6Z"/><path d="m89.9,219h0l3.4.8h0l3.5.8h0l3.5.7h0l3.5.7h0l3.5.7h0l3.4.7h0l3.4.7h0l3.4.7h0l3.4.7h0l3.4.7c1.4.3,2.3,1.6,2,3s-1.6,2.3-3,2h0l-3.4-.7h0l-3.4-.7h0l-3.4-.7h0l-3.4-.7h0l-3.4-.7h0l-3.5-.7h0l-3.5-.7h0l-3.5-.7h0l-3.5-.8h0l-3.4-.8c-1.4-.3-2.2-1.6-1.9-3,.2-1.5,1.6-2.3,2.9-2Z"/><path d="m202.9,224.5h0l2.4-.3h0l2.4-.4h0l2.4-.4h0l2.4-.4h0l2.4-.4h0l2.3-.4h0l2.3-.4h0l2.3-.4h0l2.3-.4h0l2.3-.5c1.4-.3,2.7.6,3,2s-.6,2.7-2,3h0l-2.3.5h0l-2.3.4h0l-2.3.4h0l-2.3.4h0l-2.3.4h0l-2.4.4h0l-2.4.4h0l-2.4.4h0l-2.4.4h0l-2.4.3c-1.4.2-2.7-.8-2.9-2.1-.5-1.5.5-2.7,1.9-2.9Z"/><path d="m224.3,221.4h0l.3-1.4v.1l.3-1.4v.1l.2-1.4v.1l.2-1.4v.1l.1-1.4v.1l.1-1.4v.1-1.4.1-1.4.1l-.1-1.4v.1l-.1-1.4v.1l-.1-1.3v.1l-.2-1.3v.1l-.2-1.3v.1l-.3-1.3c-.3-1.4.6-2.7,1.9-3,1.4-.3,2.7.6,3,1.9h0l.3,1.3v.1l.2,1.3v.1l.2,1.3v.1l.1,1.3v.1l.1,1.4v.1l.1,1.4v3.1l-.1,1.4v.1l-.1,1.4v.1l-.2,1.4v.1l-.2,1.4v.1l-.3,1.4v.1l-.3,1.4c-.3,1.4-1.7,2.2-3,1.9-1.3-.699-2.2-2.099-1.9-3.399Z"/><path d="m229.8,201.1h0l.8,1.1.1.1.7,1.1.1.1.7,1.1.1.1.6,1.2v.1l.6,1.2v.1l.5,1.2v.1l.5,1.2v.1l.4,1.2v.1l.4,1.2v.1l.3,1.3v.1l.3,1.3v.1l.2,1.3v.1l.2,1.3v.1l.1,1.3v.1l.1,1.3v1.4c0,1.4-1.1,2.5-2.5,2.6-1.4,0-2.5-1.1-2.6-2.5h0v-1.3.1l-.1-1.3v.1l-.1-1.3v.1l-.2-1.3v.1l-.2-1.3v.1l-.3-1.3v.1l-.3-1.3v.1l-.4-1.2v.1l-.4-1.2v.1l-.5-1.2v.1l-.5-1.2v.1l-.6-1.2v.1l-.6-1.2.1.1-.7-1.1.1.1-.7-1.1.1.1-.8-1.1c-.8-1.1-.6-2.7.5-3.5s3.199-.699,4,.401Z"/><path d="m236.1,219.4h0l1.8-.1h0l1.8-.1h0l1.8-.1h0l1.8-.2h0l1.8-.2h0l1.9-.2h0l1.9-.2h0l1.8-.3h0l1.8-.3h0l1.8-.3c1.4-.2,2.7.7,2.9,2.1s-.7,2.7-2.1,2.9h0l-1.8.3h0l-1.8.3h0l-1.8.3h0l-1.9.2h0l-1.9.2h0l-1.8.2h0l-1.8.2h0l-1.8.1h0l-1.8.1h0l-1.8.1c-1.4.1-2.6-1-2.7-2.4-.6-1.3.5-2.5,1.9-2.6Z"/><path d="m252.1,219h0l.6-2.9v.1l.5-2.9v.1l.4-2.9v.1l.3-3v.1l.2-3v.1l.1-3v.1-3,.1l-.1-3v.1l-.2-3v.1l-.3-3v.1l-.4-3v.1l-.5-2.9v.1l-.6-2.9v.1l-.7-2.9c-.3-1.4.5-2.7,1.8-3.1,1.4-.3,2.7.5,3.1,1.8h0l.7,2.9v.1l.6,2.9v.1l.5,2.9v.1l.4,3v.1l.3,3v.1l.2,3v.1l.1,3v3.2l-.1,3v.1l-.2,3v.1l-.3,3v.1l-.4,2.9v.1l-.5,2.9v.1l-.6,2.9c-.3,1.4-1.6,2.2-3,2s-2.2-1.899-1.9-3.299Z"/><path d="m125.7,236h0l6.3,1.5h-.1l6.3,1.3h-.1l6.4,1.1h-.1l6.4.8h-.1l6.4.6h-.1l6.5.4h-.1l6.4.2h-.1,6.4-.1l6.4-.3h-.1l6.4-.5h-.1l6.4-.7h-.1l6.4-.9c1.4-.2,2.7.8,2.9,2.1.2,1.4-.8,2.7-2.1,2.9h0l-6.4.9h-.1l-6.4.7h-.1l-6.4.5h-.1l-6.4.3h-6.6l-6.4-.2h-.1l-6.5-.4h-.1l-6.4-.6h-.1l-6.4-.8h-.1l-6.4-1.1h-.1l-6.3-1.3h-.1l-6.3-1.5c-1.4-.3-2.2-1.7-1.9-3,.602-1.4,2.002-2.3,3.302-2Z"/><path d="m123.6,240.3h-.7.2l-.7.1h.2l-.6.1h.2l-.6.2h.2l-.6.2.2-.1-.6.2.2-.1-.6.3.2-.1-.6.3.2-.1-.5.4.1-.1-.5.4.1-.1-.5.4.1-.1-.5.5.1-.1-.4.5.1-.1-.4.5.1-.1-.4.6.1-.2-.3.6.1-.2-.3.6.1-.2-.2.7.1-.2-.2.7v-.2l-.1.7v-.2l-.1.7v-.2.7-.2.7-.2l.1.7v-.2l.1.7v-.2l.2.7-.1-.2.2.7-.1-.2.3.6-.1-.2.3.6c.6,1.2.2,2.8-1.1,3.4-1.2.6-2.8.2-3.4-1.1h0l-.3-.6c0-.1-.1-.1-.1-.2h0l-.3-.6q0-.1-.1-.2h0l-.2-.7q0-.1-.1-.2h0l-.2-.7v-.2h0l-.1-.7v-.2h0l-.1-.7v-.2h0v-.9h0v-.9h0l.1-.7v-.2h0l.1-.7v-.2h0l.2-.7q0-.1.1-.2h0l.2-.7q0-.1.1-.2h0l.3-.6c0-.1.1-.1.1-.2h0l.3-.6c0-.1.1-.1.1-.2h0l.4-.6.1-.1h0l.4-.5.1-.1h0l.4-.5.1-.1h0l.5-.5.1-.1h0l.5-.4.1-.1h0l.5-.4.1-.1h0l.5-.4s.1-.1.2-.1h0l.6-.3c.1,0,.1-.1.2-.1h0l.6-.3q.1,0,.2-.1h0l.6-.2q.1,0,.2-.1h0l.6-.2h.2l.6-.2h.2l.6-.1h.2l.7-.1h.9c1.4,0,2.5,1.1,2.6,2.5-.201,1.598-1.301,2.798-2.701,2.798Z"/><path d="m117.7,252.3h0l.2,1.4v.1h0l.1,1.4v.1h0l.1,1.4v.1h0v1.5h0l-.1,1.4v.1h0l-.2,1.4v.1h0l-.2,1.4v.1h0l-.3,1.4v.1h0l-.4,1.3v.1h0l-.5,1.3v.1h0l-.5,1.3s0,.1-.1.1h0l-.6,1.3s0,.1-.1.1h0l-.7,1.2s0,.1-.1.1h0l-.7,1.2s0,.1-.1.1h0l-.8,1.1-.1.1h0l-.8,1.1-.1.1h0l-.9,1.1-.1.1h0l-1,1c-1,1-2.6,1.1-3.6.1s-1.1-2.6-.1-3.6h0l1-1-.1.1.9-1.1-.1.1.8-1.1-.1.1.8-1.1-.1.1.7-1.2-.1.1.7-1.2-.1.1.6-1.3-.1.1.5-1.3v.1l.5-1.3v.1l.4-1.3v.1l.3-1.4v.1l.2-1.4v.1l.2-1.4v.1l.1-1.4v.1-1.4.1l-.1-1.4v.1l-.1-1.4v.1l-.2-1.4c-.2-1.4.7-2.7,2.1-2.9,1.501.701,2.802,1.701,3.001,3.001Z"/><path d="m204.7,238.8h0l.8.1h.2l.8.2h.1l.7.2h.1l.7.3s.1,0,.1.1h0l.7.3s.1,0,.1.1h0l.7.3s.1,0,.1.1h0l.7.4.1.1h0l.6.4.1.1h0l.6.5.1.1h0l.6.5.1.1h0l.6.5.1.1h0l.5.6.1.1h0l.5.6.1.1h0l.5.6.1.1h0l.4.7.1.1h0l.4.7s0,.1.1.1h0l.3.7s0,.1.1.1h0l.3.7s0,.1.1.1h0l.2.7v.1h0l.2.7c.4,1.3-.5,2.7-1.8,3.1s-2.7-.5-3.1-1.8h0l-.2-.7v.1l-.2-.7.1.1-.3-.7.1.1-.3-.7.1.1-.4-.7.1.1-.4-.7.1.1-.5-.6.1.1-.5-.6.1.1-.5-.6.1.1-.6-.5.1.1-.6-.5.1.1-.6-.5.1.1-.6-.4.1.1-.7-.4.1.1-.7-.3.1.1-.7-.3.1.1-.7-.3h.1l-.7-.2h.1l-.8-.2h.2l-.8-.1c-1.4-.2-2.3-1.5-2.1-2.9s1.797-1.799,3.197-1.599Z"/><path d="m217.6,252h0l-.3,1.4v-.1l-.2,1.4v-.1l-.2,1.4v-.1l-.1,1.4v-.1l-.1,1.4v-.1,1.4-.1,1.4-.1l.1,1.6v-.1l.2,1.6v-.1l.3,1.6v-.1l.3,1.6v-.1l.4,1.6v-.1l.5,1.6v-.1l.5,1.6v-.1l.6,1.5c.5,1.3-.1,2.8-1.4,3.3-1.3.5-2.8-.1-3.3-1.4h0l-.6-1.5v-.1l-.5-1.6v-.1l-.5-1.6v-.1l-.4-1.6v-.1l-.3-1.6v-.1l-.3-1.6v-.1l-.2-1.6v-.1l-.1-1.6v-3.1l.1-1.4v-.1l.1-1.4v-.1l.2-1.4v-.1l.2-1.4v-.1l.3-1.4c.3-1.4,1.6-2.2,3-2,1,.199,1.9,1.599,1.7,2.899Z"/><path d="m110.6,275h0l5.1,12.2h0l5.2,12.2h0l5.3,12.1h0l5.4,12.1h0l5.5,12h0l3.7,8h0l3.7,8h0l3.8,7.9h0l3.8,7.9h0l3.8,7.9c.6,1.3.1,2.8-1.2,3.4s-2.8.1-3.4-1.2h0l-3.8-7.9h0l-3.8-7.9h0l-3.8-7.9h0l-3.7-8h0l-3.7-8h0l-5.5-12h0l-5.4-12.1h0l-5.3-12.1h0l-5.2-12.2h0l-5.1-12.2c-.5-1.3.1-2.8,1.3-3.3,1.3-.8,2.8-.2,3.3,1.1Z"/><path d="m178.8,375.1h0l3.3-7.9h0l3.2-8h0l3.2-8h0l3.1-8h0l3.1-8h0l4.3-11.5h0l4.2-11.6h0l4-11.6h0l3.9-11.6h0l3.8-11.7c.4-1.3,1.9-2,3.2-1.6s2,1.9,1.6,3.2h0l-3.8,11.7h0l-3.9,11.6h0l-4,11.6h0l-4.2,11.6h0l-4.3,11.5h0l-3.1,8h0l-3.1,8h0l-3.2,8h0l-3.2,8h0l-3.3,7.9c-.5,1.3-2,1.9-3.3,1.4-1.4-.3-2-1.7-1.5-3Z"/><path d="m109,277.7h0l-4,3.1h0l-4,3.2h0l-3.9,3.2h0l-3.9,3.3h0l-3.8,3.4h0l-4.8,4.4h0l-4.7,4.5h0l-4.6,4.6h0l-4.5,4.7h0l-4.4,4.8c-.9,1-2.5,1.1-3.6.1-1-.9-1.1-2.5-.1-3.6h0l4.4-4.8h0l4.5-4.7h0l4.6-4.6h0l4.7-4.5h0l4.8-4.4h0l3.8-3.4h0l3.9-3.3h0l3.9-3.2h0l4-3.2h0l4-3.1c1.1-.9,2.7-.6,3.5.5,1.5.5,1.3,2.1.2,3Z"/><path d="m66.7,313h0l8.6,9.2h0l8.8,9.1h0l8.9,8.9h0l9.1,8.7h0l9.3,8.5h0l9.5,8.3h0l1.9,1.6h0l1.9,1.6h0l1.9,1.6h0l1.9,1.6h0l1.9,1.6c1.1.9,1.2,2.5.3,3.5s-2.5,1.2-3.5.3h0l-1.9-1.6h0l-1.9-1.6h0l-1.9-1.6h0l-1.9-1.6h0l-1.9-1.6h0l-9.5-8.3h0l-9.3-8.5h0l-9.1-8.7h0l-8.9-8.9h0l-8.8-9.1h0l-8.6-9.2c-.9-1-.9-2.6.1-3.6.6-1.3,2.2-1.2,3.1-.2Z"/><path d="m221.8,276.7h0l3.2,2.8h0l3.2,2.8h0l3.1,2.9h0l3.1,2.9h0l3,3h0l2.9,3h0l3.7,4h0l3.6,4.1h0l3.5,4.1h0l3.4,4.2h0l3.3,4.3h0l3.2,4.4c.8,1.1.6,2.7-.5,3.5s-2.7.6-3.5-.5h0l-3.2-4.4h0l-3.3-4.3h0l-3.4-4.2h0l-3.5-4.1h0l-3.6-4.1h0l-3.7-4h0l-2.9-3h0l-3-3h0l-3.1-2.9h0l-3.1-2.9h0l-3.2-2.8h0l-3.2-2.8c-1.1-.9-1.2-2.5-.3-3.6,1.6-.2,3.2-.4,4.3.6Z"/><path d="m260.9,322.6h0l-6.6,7.4h0l-6.6,7.3h0l-6.7,7.3h0l-6.7,7.3h0l-6.7,7.3h0l-3.3,3.5h0l-3.3,3.5h0l-3.3,3.5h0l-3.3,3.5h0l-3.3,3.5c-1,1-2.6,1-3.6.1s-1-2.6-.1-3.6h0l3.3-3.5h0l3.3-3.5h0l3.3-3.5h0l3.3-3.5h0l3.3-3.5h0l6.7-7.3h0l6.7-7.3h0l6.7-7.3h0l6.6-7.3h0l6.6-7.4c.9-1,2.5-1.1,3.6-.2.9,1.1,1,2.7.1,3.7Z"/><path d="m3,369.6h0l32.3,1.6h0l32.3,1.3h0l32.3.9h0l32.3.5h0l32.3.2h0l32.3-.2h0l32.3-.5h0l32.3-.9h0l32.3-1.2h0l32.3-1.6c1.4-.1,2.6,1,2.6,2.4.1,1.4-1,2.6-2.4,2.6h0l-32.3,1.6h0l-32.3,1.2h0l-32.3.9h0l-32.3.5h0l-32.3.2h0l-32.3-.2h0l-32.3-.5h0l-32.3-.9h0l-32.3-1.3h0l-32.3-1.6c-1.4-.1-2.5-1.3-2.4-2.6s.8-2.5,2.2-2.4Z"/><g><path d="m88.8,112.2h0l-.7-.9.1.1-.7-.9.1.1-.7-.8.1.1-.8-.8.1.1-.8-.8.1.1-.9-.7.1.1-.9-.7.1.1-.9-.6.1.1-.9-.6.1.1-.9-.5h.1l-.9-.4h.1l-.9-.4h.1l-.9-.4h.1l-.9-.3h.1l-1-.3h.1l-1-.2c-1.3-.3-2.1-1.7-1.8-3s1.7-2.1,3-1.8h0l1,.2h.1l1,.3h.1l.9.3h.1l.9.4h.1l.9.4h.1l.9.4h.1l.9.5.1.1.9.6.1.1.9.6.1.1.9.7.1.1.9.7.1.1.8.8.1.1.8.8.1.1.7.8.1.1.7.9.1.1.7.9c.8,1.1.5,2.6-.5,3.4-1.403.9-2.903.7-3.703-.4Z"/><path d="m77.4,103.7h0l-.7.2.2-.1-.7.2.2-.1-.7.3.2-.1-.7.3.2-.1-.6.4.1-.1-.6.4.1-.1-.6.5.1-.1-.5.5.1-.1-.5.5.1-.1-.5.6.1-.1-.4.6.1-.1-.4.6.1-.2-.3.7.1-.1-.2.5v-.1l-.2.5v-.1l-.2.5v-.1l-.1.6v-.1l-.1.6v-.1l-.1.6v-.1.6-.1.6-.1.6-.1l.1.6c.1,1.3-.8,2.6-2.2,2.7s-2.6-.8-2.7-2.2h0l-.1-.6v-.1h0v-.7h0v-.7h0v-.7h0l.1-.6v-.1h0l.1-.6v-.1h0l.1-.6v-.1h0l.2-.5v-.1h0l.2-.5v-.1h0l.2-.5s0-.1.1-.1h0l.3-.7c0-.1.1-.1.1-.2h0l.4-.6c0-.1.1-.1.1-.1h0l.4-.6.1-.1h0l.5-.6.1-.1h0l.5-.5.1-.1h0l.5-.5.1-.1h0l.6-.5.1-.1h0l.6-.4.1-.1h0l.6-.4s.1-.1.2-.1h0l.7-.3c.1,0,.1-.1.2-.1h0l.7-.3q.1,0,.2-.1h0l.7-.2q.1,0,.2-.1h0l.7-.2c1.3-.3,2.6.4,3,1.7.599.799-.201,2.099-1.501,2.399Z"/><path d="m71.4,113.1h0l.1,1.3v-.1l.1,1.3v-.1l.2,1.3v-.1l.2,1.3v-.1l.3,1.3v-.1l.3,1.2v-.1l.4,1.2v-.1l.4,1.1v-.1l.5,1.1v-.1l.5,1.1v-.1l.5,1.1v-.1l.6,1v-.1l.6,1-.1-.1.7,1c.8,1.1.5,2.6-.7,3.4-1.1.8-2.6.5-3.4-.7h0l-.7-1-.1-.1-.6-1v-.1l-.6-1v-.1l-.5-1.1v-.1l-.5-1.1v-.1l-.5-1.1v-.1l-.4-1.1v-.1l-.4-1.2v-.1l-.3-1.2v-.1l-.3-1.3v-.1l-.2-1.3v-.1l-.2-1.3v-.1l-.1-1.3v-.1l-.1-1.3c-.1-1.4.9-2.5,2.3-2.6.7.099,1.9,1.099,2,2.499Z"/><path d="m76.6,128.4h0l.4.7-.1-.1.5.7-.1-.1.5.6-.1-.1.5.6-.1-.1.6.6-.1-.1.6.5-.1-.1.6.5-.1-.1.7.4-.1-.1.7.4-.1-.1.7.3-.1-.1.7.3-.1-.1.7.2h-.1l.7.2h-.1l.7.1h-.1l.7.1h-.1.7-.1.7-.1.7-.1l.7-.1h-.1l.7-.1h-.1l.7-.2h-.1l.7-.2c1.3-.4,2.7.3,3.1,1.6.4,1.3-.3,2.7-1.6,3.1h0l-.7.2h-.1l-.7.2h-.1l-.7.1h-.1l-.7.1h-2.5l-.7-.1h-.1l-.7-.1h-.1l-.7-.2h-.1l-.7-.2s-.1,0-.1-.1h0l-.7-.3s-.1,0-.1-.1h0l-.7-.3s-.1,0-.1-.1h0l-.7-.4-.1-.1h0l-.7-.4-.1-.1h0l-.6-.5-.1-.1h0l-.6-.5-.1-.1h0l-.6-.6-.1-.1h0l-.5-.6-.1-.1h0l-.5-.6-.1-.1h0l-.5-.7-.1-.1h0l-.4-.7c-.7-1.2-.3-2.7.8-3.4-.296-.6,1.204-.3,1.904.9Z"/><path d="m87.5,122h0l-.5-.8v.1l-.5-.8v.1l-.5-.8v.1l-.6-.8.1.1-.6-.8.1.1-.6-.8.1.1-.6-.7.1.1-.7-.7.1.1-.7-.7.1.1-.7-.7.1.1-.8-.7.1.1-.8-.6.1.1-.8-.6.1.1-.8-.6c-1.1-.8-1.4-2.3-.6-3.4.8-1.1,2.3-1.4,3.4-.6h0l.8.6.1.1.8.6.1.1.8.6.1.1.8.7.1.1.7.7.1.1.7.7.1.1.7.7.1.1.6.7.1.1.6.8.1.1.6.8.1.1.6.8v.1l.5.8v.1l.5.8v.1l.5.8c.7,1.2.2,2.7-1,3.3-1.702-.299-3.202-.699-3.802-1.899Z"/><path d="m88,122.2h0l-.5-.1h.2l-.5-.1h.2l-.5-.1h.2-.5.2-.5.2-.5.2l-.5.1h.2l-.5.1h.2l-.5.1h.1l-.5.2.1-.1-.4.2.1-.1-.4.2.1-.1-.4.2.1-.1-.4.3.1-.1-.4.3.1-.1-.4.3.1-.1-.4.3.1-.1-.3.4.1-.1-.3.4.1-.1-.3.4.1-.1-.3.4.1-.1-.2.4c-.6,1.2-2.1,1.6-3.3,1s-1.6-2.1-1-3.3h0l.2-.4.1-.1h0l.3-.4.1-.1h0l.3-.4.1-.1h0l.3-.4.1-.1h0l.3-.4.1-.1h0l.4-.3.1-.1h0l.4-.3.1-.1h0l.4-.3.1-.1h0l.4-.3.1-.1h0l.4-.2s.1,0,.1-.1h0l.4-.2s.1,0,.1-.1h0l.4-.2s.1,0,.1-.1h0l.5-.2h.1l.5-.1h.2l.5-.1h.2l.5-.1h2.3l.5.1h.2l.5.1h.2l.5.1c1.3.3,2.1,1.7,1.8,3s-2.002,2.099-3.302,1.699Z"/></g><path d="m87.6,96.5c-2.4,0-4.4,2.2-6.1,6.6-1.3,6.2-2.1,10.3-2.5,12.4l-1.9,13.4c-.3,3.8-.3,6.6,0,8.6.6,2.5,2.1,4.5,4.3,5.9,1.8,1,3.4.9,4.6-.4,2.3-2.5,3.7-5.2,4.4-7.9.9-2.8,1.5-7.2,1.6-13l-4.4-25.6Z"/><path d="m241.2,93.4c-3.1,4.7-4.6,14.2-4.6,28.4l.4,12.4c0,.6.1,1,.2,1.3.8,1.6,2.3,2.1,4.5,1.4,1.4-.2,3.9-2,7.6-5.2.6-.2,1.6-2.5,3-6.9.2-.9.3-1.7.3-2.5.1-.1,0-4.1-.1-12-.1-1.7-.3-5-.5-9.7-.6-4.9-.9-8.2-.9-9.9l-9.9,2.7Z"/></g></svg>