<svg viewBox="0 0 2000 2000" xmlns="http://www.w3.org/2000/svg">
     
        <g fill="#030303">
            <path d="M1794 1072.9c0 202.3-75.7 387-200.3 527.1-67.3 75.7-148.9 138.5-240.6 184.1-3.6 1.8-7.2 3.5-10.9 5.3-103.6 49.5-219.5 77.2-342 77.2-108.8 0-212.4-21.9-306.8-61.5-1.7-.7-3.4-1.5-5.2-2.2-20.4-8.7-40.3-18.3-59.8-28.6-52.9-28.1-102.3-62.1-147.3-101-16-13.8-31.4-28.2-46.2-43.2-22.7-23-44.1-47.5-63.8-73.1-3.4-4.4-6.7-8.9-10.1-13.3-6.4-8.6-12.5-17.3-18.5-26.2-2.2-3.2-4.3-6.4-6.5-9.6-38.4-58.5-69.3-122.4-91.3-190.2-8.1-25.1-15-50.7-20.6-76.8l-2.7-12.9c-5-25.3-8.8-51-11.4-77.1-2-20.3-3.2-40.8-3.7-61.5v-.1c-.1-5.5-.2-11-.2-16.5 0-20.1.7-40.1 2.2-59.9 30-402 359.5-720.7 766-733.5 8.2-.3 16.4-.4 24.7-.4h.8c3.3 0 6.7 0 10.1.1 8.3.1 16.6.4 24.9.7h.1c3.8.2 7.5.3 11.3.6 7.7.4 15.2.9 22.8 1.6 6.6.6 13.1 1.2 19.7 1.9 11.3 1.3 22.6 2.8 33.7 4.5l11.1 1.8c8.6 1.5 17.1 3.1 25.5 4.7 3.9.8 7.7 1.6 11.5 2.5 8.1 1.8 16.1 3.6 24 5.7 4.3 1.1 8.5 2.2 12.7 3.3h.1c94.1 25.4 181.3 67.7 258.1 123.4 199.3 144.4 328.6 378.6 328.6 643.1z" fill="#aebfff"/>
            <path d="M776.9 436.3c66.1-62 176.5-74.8 266.1-40.7s157.6 109.5 190.3 193.6 32.8 175.7 14.1 261.8c-17.8 82-56 164.7-130.6 211.1-35.6 22.1-84.6 34.2-122.3 12.8-21.8-12.4-35.8-33.8-46.8-55.1C860 850.3 896.9 638 776.9 436.3z" fill="#646464"/>
            <path d="m1353.9 1648-.8 136.1c-3.6 1.8-7.2 3.5-10.9 5.3-103.6 49.5-219.5 77.2-342 77.2-108.8 0-212.4-21.9-306.8-61.5-1.7-.7-3.4-1.5-5.2-2.2-20.4-8.7-40.3-18.3-59.8-28.6-52.9-28.1-102.3-62.1-147.3-101-10.7-116.6-12-217.3 10.5-245.4 20.3-25.3 64.8-44.2 115.4-58 3.9-1 7.9-2.1 11.9-3.1 16-4.1 32.5-7.7 48.9-10.8 7.4-1.4 14.7-2.8 22-4 78.6-13.6 149.2-17.7 149.2-17.7l-.4-3.5-1.2-11-8.3-74.3-1.5-13.8-4.6-41.5-.6-5.5-3.5-32-5.9-52.8 113.9-95.9 9.5-8 81.8-68.8.6-.5 22.1-18.6 1.8 18.9 15.3 157.2 12.9 132.8 8.5 87.2 1 10.4.7 7s78-1.5 163.3 8c7 .8 14.1 1.6 21.3 2.6 18.7 2.5 37.4 5.5 55.5 9.3 3.5.7 7.1 1.5 10.6 2.3 30.8 6.9 59.1 16 81.4 27.8 125.2 67.1-59.3 276.4-59.3 276.4z" fill="#ffb999"/>
            <path d="m818.9 1152.8 8.8 79s52.1-9.8 82.4-45.7c39-46.1 40.6-139.8 40.6-139.8z" fill="#f19165"/>
            <path d="M892.7 452.2c277.6 52.2 194.1 799.3-157.2 733.2-320.3-60.1-134.2-787.9 157.2-733.2z" fill="#ffb999"/>
            <ellipse cx="1058.5" cy="819.4" fill="#ffb999" rx="126.8" ry="99.5" transform="rotate(-32.686 1058.553 819.492)"/>
            <path d="M1095.6 802.8c-37.3-3.4-62.2 27.9-78.8 56.9-2.9 5.1 4.5 11.5 8.5 6.6 13.6-16.9 33.9-25.5 55.5-23.3 6.9.7 6.9-10.1 0-10.8-24.1-2.5-48 7.6-63.2 26.5 2.8 2.2 5.7 4.4 8.5 6.6 14.8-25.8 36-54.6 69.5-51.5 6.9.4 6.9-10.4 0-11z" fill="#f19165"/>
            <path d="M1593.7 1600c-67.3 75.7-148.9 138.5-240.6 184.1-3.6 1.8-7.2 3.5-10.9 5.3-103.6 49.5-219.5 77.2-342 77.2-108.8 0-212.4-21.9-306.8-61.5-1.7-.7-3.4-1.5-5.2-2.2-20.4-8.7-40.3-18.3-59.8-28.6-52.9-28.1-102.3-62.1-147.3-101-16-13.8-31.4-28.2-46.2-43.2 3.5-106.6 11.7-208.3 29.8-229.6 41.5-48.9 128.2-69.2 205.4-77.3 7.4-.8 14.7-1.5 21.8-2 69.8-5.5 126.8-1.7 126.8-1.7v-72.8l10.3-1.2 241.7-28.3 8.8-1 15.8 90.8s69.1-20 154.9-25c7-.4 14.2-.8 21.4-.9 53.4-1.5 111.3 3.5 162 22.8 64.5 24.4 120.7 165.6 160.1 296.1z" fill="#f8f9ff"/>
            <path d="M628.5 1774.4c-.4-29 1.5-48.1 6.5-52.5 4.1-3.7 19.2-7.9 42.3-12.2.9-.2 1.8-.4 2.7-.5l.1-.1c6.5-1.2 13.6-2.4 21.2-3.7 123.5-19.9 386.3-42 526.2-41.7 7.6 0 14.8.1 21.6.3 35.3.8 59.8 3.4 67.6 8.5 11.4 7.5 19.6 52.9 25.5 116.9-103.6 49.5-219.5 77.2-342 77.2-108.8 0-212.4-21.9-306.8-61.5-1.7-.7-3.4-1.5-5.2-2.2-20.3-8.6-40.2-18.2-59.7-28.5z" fill="#323232"/>
            <path d="M1250.9 1278.5c-18 132.5-24.9 266.4-23.4 400.1.2 13.9 21.8 14 21.7 0-1.5-131.6 4.9-263.8 22.6-394.3.8-5.8-1.4-11.6-7.6-13.3-5-1.5-12.5 1.7-13.3 7.5zM670.4 1322.2c-9.6 114.6-7.1 230.1 4.7 344.4 3.5 33.5 7.8 66.8 12.9 100.1 2.1 13.7 23 7.9 20.9-5.8-17.4-114.3-25.2-230.3-22-346 .9-31 2.6-61.9 5.2-92.8 1.2-13.8-20.5-13.7-21.7.1z" fill="#323232"/>
            <path d="M832.3 1330.1c82.8 10.6 167 5.4 247.9-15.1 6.8-1.7 3.9-12.2-2.9-10.4-80 20.3-163.2 25.2-245 14.7-6.9-.9-6.8 9.9 0 10.8zM614.3 1343.9c-14 44.8-19.2 91.9-15.5 138.7.6 6.9 11.4 7 10.8 0-3.7-45.9 1.4-91.8 15.1-135.8 2.1-6.7-8.3-9.6-10.4-2.9zM1330.1 1300.5c-11.4 42.1-15.8 85.6-13 129.1.4 6.9 11.3 7 10.8 0-2.7-42.6 1.5-85 12.6-126.2 1.9-6.7-8.6-9.6-10.4-2.9z" fill="#ebd0c3"/>
            <g fill="#323232">
                <path d="M616.8 709.4c19.3 4.9 34.1 23.6 37.6 42.9 4.9 26.6-4.5 56.8-16 80.5-5.3 10.8-11.5 21.1-18.8 30.7-6.3 8.4-16.1 17-16.1 28.4 0 21.4 32.4 33.9 49.4 37 6.8 1.2 9.7-9.2 2.9-10.4-13.5-2.4-27.5-8.1-37.1-18.2-11-11.5 5.2-24.2 12.1-33.6 14.4-19.8 25-42.6 30.8-66.3 5.2-21.2 8-45.1-1.6-65.5-7.9-16.8-22.1-31.2-40.4-35.8-6.7-1.8-9.5 8.6-2.8 10.3zM745.2 809c18.4-27.4 56.1-33.6 82.6-14.3 6.3 4.6 11.8 10.5 16 17.1 3.6 5.7 5.2 12.5 8.9 18.1 9.3 14 23.3 1.4 33.5-4.7 6-3.6.5-13-5.5-9.4-4.2 2.5-8.8 6.5-13.5 8.1-6.1 2.1-6.4-1.9-8.6-6.9-2.7-6.2-6-11.8-10.1-17.1-9.3-11.7-22.1-20.6-36.5-24.9-28.7-8.5-59.8 4.1-76.2 28.5-3.9 5.8 5.5 11.3 9.4 5.5z"/>
                <path d="M661.8 771.9c-9.3-14.1-20-29.8-37.4-34.1-6.8-1.7-14.1-1.6-20.7.9-3.4 1.3-6.3 3.2-8.9 5.6-.9.8-3 4-4.1 4.2-3.7.4-5.1-5.9-6-8.1-2.6-6.4-13.1-3.6-10.4 2.9 2.4 5.8 4.4 15.9 11.6 17.7 7.4 1.9 12.2-5.3 17.1-9.3 19.7-16 40.3 11.6 49.6 25.8 3.7 5.7 13.1.3 9.2-5.6zM821.2 780.6c24.5 3.2 13.6 86-16.9 77.1s-9.9-80.6 16.9-77.1z"/>
                <path d="M633.1 745.9c20.6 2.7 10.9 76.4-14.7 68.7s-7.9-71.7 14.7-68.7zM882.2 744.5c-35.2-44.4-96.8-56.9-146.9-30.8-6.2 3.2-.7 12.6 5.5 9.4 46.1-24.1 101.6-11.4 133.8 29.1 4.3 5.4 11.9-2.3 7.6-7.7zM690.5 1001.2c21.2 19.9 53.8 11.5 63.7-15.4 2.4-6.6-8.1-9.4-10.4-2.9-7.1 19.3-30.7 24.7-45.6 10.7-5.1-4.8-12.8 2.8-7.7 7.6z"/>
            </g>
            <path d="M792.1 439.8c-36.4-29-91.1-25.2-130.9-1s-66.7 65.1-86.9 107.2c-9.9 20.6-18.6 42.3-20.2 65.1-1.7 22.8 4.6 47.2 21 63 112-37.6 238.5-29.6 344.9 22 10.8-40.3 14.8-82.5 11.8-124.1 25.1 38 21.3 87.8 13.8 132.8-7.6 45-17.8 92.2-2.7 135.3 8.1 23.1 23.4 46.8 15.8 70.1-5.9 18.1-24.1 29.5-31.8 46.9-6.2 14.1-4.7 30.5-.4 45.3s11 28.8 15.2 43.7c4.2 14.8 5.7 31.3-.6 45.3-6.3 14.1-22.1 24.6-36.9 20.7s-23.1-25.3-12.2-36.2c-20.7 19.4-13.3 58.6 11.3 72.7s58.3 4.3 75.8-18.2 20-54.2 11.5-81.4c-5.3-17-14.7-34.2-10.8-51.6 4.8-21.1 27.2-33.5 35.2-53.5 10.4-25.7-5.6-53.7-12.7-80.5-15.9-60.6 24.2-132.7 83.3-152 7.1-59 2.8-117.7-17.3-173.5s-59.9-106-113.7-130.1c-54-24.3-122-18.7-162.5 32z" fill="#646464"/>
            <path d="M1044.5 502.5c-4.8-120 123.3-210.6 234.5-204.3 89.7 5.1 193 59.8 193 180.6 0 51.3-7.4 107.4 6.2 156.5 11 39.5 42.2 72.1 75.5 101.1 33.2 29 69.6 56.1 94.7 90.4 25 34.3 37.4 78.1 18.4 116.7-13.8 27.9-43.1 52.1-44.5 81.8-1.2 24.6 17.6 46.4 19.2 70.9 2.9 44.5-52.5 80.9-106.1 88.9-57.6 8.6-118.3-6.1-159.1-38.6s-60.8-82-52.4-129.9c8.9-51 47.8-101.8 32.5-150.8-8.2-26.2-30.9-46.9-47.7-69.8-25.7-35.3-37.6-77.6-33.7-119.7 2.8-30.7 13.8-60.9 17.9-91.6s.2-63.7-23-86.8-70.1-30.8-98.6-9.9c-10.9 8.1-18 19.2-29.4 26.9-19.6 13.2-48.1 13-70.2 4.8-22-8.3-16.1-16.1-27.2-17.2z" fill="#646464"/>
            <path d="M1167.6 404.6c46.7-47.3 124.2-52.5 175.2-9 24.4 20.8 40.6 49.3 45.6 81 5.9 37.6-1.6 75.8.1 113.6 1.4 30 9.8 57.6 26.1 82.8 14.5 22.4 33 41.9 51.3 61.2 37.4 39.4 76.8 81.5 71.2 140-3.5 36-18.9 70.7-14.4 107.3 4.2 34.3 25.9 64.3 27.9 98.9.8 14.1-1.1 29.4-9.4 41.3-10.9 15.6-30.7 19.4-48.5 16-30.4-5.9-55.9-31.8-61.5-62.2-6.5-34.9 12.9-68.5 23.9-100.4s12.7-65.4-.3-97.1c-12.9-31.5-38.8-52.3-61.4-76.6-24.2-26-37-57.6-41.6-92.6-9.2-71 11.8-142.8-2-213.5-5.9-30.3-18.8-63.4-44.9-81.9-27.5-19.4-68.5-21.4-100.1-13.1-15.5 4.1-30.2 10.7-43.5 19.6-5.8 3.8-.4 13.2 5.5 9.4 32.5-21.7 71-27.6 108.7-17.3 39.3 10.7 56.7 49.1 63.9 86.2 14.2 72.7-8.8 146.9 3 220 5.5 33.9 19.1 64.4 42.4 89.8 24.6 26.8 53.5 49 64 85.5 10.9 37.7-1.1 71.5-14.7 106.6-11.7 30.2-21.6 62.8-8.5 94.2 11.3 27 36.3 48.8 65.4 54.1 30.8 5.6 59.3-8.6 67.7-39.6 8.8-32.3-4.7-62.7-15.7-92.5-6.8-18.4-11.3-36.8-10.1-56.6 1.2-19.5 6.5-38.5 10.5-57.6 6.3-30.4 7.5-60.2-4.8-89.3-10.2-24.2-26.9-44.9-44.4-64.2-38.7-42.7-86.6-83.2-93.8-144-4.6-38.8 3.5-77.8.1-116.7-2.7-31.8-14.2-61.2-35.3-85.4-41.8-47.9-110.2-61-167.2-33.2-14.2 6.9-27.1 16.4-38.2 27.6-4.8 5 2.9 12.7 7.8 7.7z" fill="#bf6d48"/>
            <path d="M1196.1 520c-51.9-28.4-100.2-63.6-143.2-104.4-7.5-7.1-15.2-14.9-18.3-24.8-3.2-9.9-.3-22.6 9-27.2 5.8-2.9 12.7-2.1 19-1 60.8 10.5 117.5 43.7 156.6 91.8 6.9 8.5 13.4 17.6 16.4 28.1s2.1 22.7-4.8 31.2-21.2 13.6-34.7 6.3z" fill="#ff6d2a"/>
            <path d="M1050.6 395.7c-43.9-16.5-70.2-64.2-75.3-111.2s6.9-93.9 18.9-139.6c37.9 24.6 61.2 67.6 70.9 112s7.3 90.5 3.2 135.8c.8-117.2 71.5-231.2 175.7-283.1 11.7 48.3 1.6 100.1-20 144.8s-54.1 83.1-88.7 118.6c-11.5 11.8-23.6 23.6-38.6 30.2-14.9 6.7-33.6 7.4-46.1-7.5z" fill="#ff6d2a"/>
            <path d="M1050.4 374.3c-29.4-11.6-37.8-55.1-39.7-82.6-1.1-15.7-.3-31.6 1.4-47.2 1.6-14.4 6.6-30 1.7-44.3l-9.9 4.2c14.3 27.7 28.1 55.5 33.5 86.5 5.6 31.8 9.1 64 13.5 95.9 1 6.9 11.4 4 10.4-2.9-4.6-33.1-7.9-66.6-14.1-99.4-5.8-30.5-19.8-58.3-34-85.6-2.8-5.4-11.9-1.7-9.9 4.2 3.1 9.1 1.1 18.2-.3 27.5-1.2 8.3-2.2 16.6-2.9 25-1.4 17.7-1.1 35.6 1.5 53.2 4.4 28.8 16.2 64.5 45.8 76.1 6.6 2.4 9.5-8 3-10.6z" fill="#ff9361"/>
            <path d="M1071.9 381.5c32.7-29.8 51.7-70.3 70.7-109.5 19.1-39.3 39.6-80.5 76.6-106.1-2.7-1.6-5.4-3.1-8.2-4.7-9.9 94.2-70.1 180.1-155.2 221.7-6.3 3.1-.8 12.4 5.5 9.4 88.7-43.3 150.2-133.2 160.5-231 .4-4-5-6.9-8.2-4.7-75.9 52.6-83 156.7-149.5 217.3-5 4.7 2.7 12.3 7.8 7.6z" fill="#ff9361"/>
            <path d="M1053.7 393.8c27.5 18.3 55 36.5 82.4 54.8 26.3 17.5 55 33.5 77.5 55.9 4.9 4.9 12.6-2.7 7.7-7.7-22.3-22.3-50.6-38.3-76.8-55.7-28.5-18.9-56.9-37.8-85.4-56.7-5.7-3.9-11.1 5.5-5.4 9.4z" fill="#ff9361"/>
            <path d="M1033.9 391.7c14.3 6.2 31.6 4.4 46.8 2.9 17.3-1.7 34.2-5.2 50.7-10.4 6.6-2.1 3.8-12.6-2.9-10.4-14.5 4.6-29.4 8-44.5 9.7-13.3 1.5-32 4.4-44.6-1.1-6.4-2.8-11.9 6.5-5.5 9.3z" fill="#ff9361"/>
            <path d="M663.3 1770.7c166.3-30.8 335-48 504-51.3 47.8-.9 95.7-.7 143.5.6 7 .2 7-10.6 0-10.8-169.4-4.5-339.1 4.8-507 27.9-48 6.6-95.8 14.4-143.5 23.2-6.7 1.2-3.8 11.6 3 10.4z" fill="#ffeee6"/>
            <path d="M638.8 598.1c7.2-76.7 72.5-135.9 149.6-135-.9-3.4-1.8-6.7-2.7-10.1-35.7 16.9-59.6 52.2-63.2 91.4-.6 6.9 10.2 6.9 10.8 0 3.3-35.5 25.7-66.9 57.8-82 5.1-2.4 2.3-10-2.7-10.1-83.4-1-152.7 63.3-160.5 145.8-.6 6.9 10.3 6.9 10.9 0zM837.3 486.8c45.8 39.3 41.7 104.3 31.3 157.9-1.3 6.8 9.1 9.7 10.4 2.9 11.2-57.3 14.8-126.6-34.1-168.5-5.2-4.5-12.9 3.2-7.6 7.7zM857.9 455.5c64.7 41 149.3 55.2 216.8 12 5.9-3.8.4-13.1-5.5-9.4-64.3 41.2-144.3 27-205.9-12-5.8-3.7-11.3 5.7-5.4 9.4z" fill="#bf6d48"/>
            <path d="M856.8 454.7c30.8 39 79.1 64.8 127.1 75.9 46.7 10.8 104.3 8.7 141.6-24.9 5.2-4.7-2.5-12.3-7.7-7.7-35.5 32.1-92.3 32.1-136.2 20.9-44.4-11.4-88.3-35.5-117.1-71.8-4.3-5.6-11.9 2.1-7.7 7.6zM1111.5 651.6c56-1.8 87.2-72.5 83.5-121-.5-6.9-11.4-7-10.8 0 1.9 25-5 50.4-18 71.8-11.9 19.5-30.6 37.7-54.7 38.4-7 .2-7 11 0 10.8z" fill="#bf6d48"/>
            <path d="M1084.6 982.3c60.2-20.6 97.4-76.5 115.1-135.1 19.7-65.5 22.8-136.7 16.5-204.5-3.6-38.4-10.4-76.6-21.4-113.6-2-6.7-12.4-3.8-10.4 2.9 18.5 62.2 25.8 127.9 23.3 192.7-2.4 63.1-12.7 132.3-48.9 185.6-18.8 27.7-45.2 50.7-77.1 61.6-6.6 2.2-3.8 12.7 2.9 10.4zM1094.1 703.5c25.9-39.5 22-93.7-8.5-129.6-4.5-5.3-12.2 2.4-7.7 7.7 27.5 32.3 29.9 81.1 6.8 116.4-3.8 5.9 5.6 11.3 9.4 5.5z" fill="#bf6d48"/>
        </g>
     
</svg>
