<svg viewBox="0 0 2000 2000" xmlns="http://www.w3.org/2000/svg">
     
        <g fill="#030303">
            <path d="M1797 1094.4c0 99.5-18.2 194.7-51.5 282.5-34.7 91.4-85.7 174.9-149.5 246.6-46.6 52.4-100 98.6-158.8 137.2-2 1.4-4 2.7-6.1 4-1 .7-2.1 1.4-3.2 2-123.5 78.8-270.3 124.4-427.7 124.4-175.1 0-337-56.5-468.5-152.2-58.9-42.9-111.7-93.6-156.9-150.8l-.1-.1c-2.8-3.6-5.6-7.1-8.3-10.7-13.7-17.9-26.6-36.4-38.8-55.4-78.7-123.5-124.3-270.2-124.3-427.6 0-440 356.7-796.7 796.7-796.7 440.3.1 797 356.8 797 796.8z" fill="#aebfff"/>
            <path d="M531.8 1738.9c-58.9-42.9-111.7-93.7-156.9-150.8-16.7-21.2-32.4-43.3-47.1-66.2 79.5-106.5 150.4-196.6 173-210.9z" fill="#ffb999"/>
            <path d="M1596 1623.5c-145.9 164.2-358.7 267.7-595.7 267.7-253.6 0-479.5-118.4-625.4-303 18.1-41.8 34.2-79.9 60.9-133.4 25.3-50.6 24.5-131.9 80.1-151.2 97.8-34 265.2-21.9 367.2-39.6 234.7-40.9 217.9-70.4 411.3-111.4 135.6-28.8 268.1 23.7 303.2 117.6 40.8 109.1 23.6 233.3-1.6 353.3z" fill="#ffb999"/>
            <path d="M457.8 1422.3c-30.9 53.5-58 109.2-82.9 165.9l-.1-.1c-2.8-3.6-5.6-7.1-8.3-10.7 24.4-55 51.2-108.9 81.2-160.9 3.9-6.4 13.8-.6 10.1 5.8z" fill="#fcfdff"/>
            <path d="M1122.9 294.5c-34.5-15.2-45.9-66.8-21-95.4 24.8-28.6 77.3-24.5 97.1 7.7-4.4-45.3 33-90.7 78.2-94.9s89.9 33.5 93.6 78.8c5.5-36.4 49.3-61.4 83.1-47.5 33.9 13.9 47.4 62.5 25.6 92.2 27.6-24.3 75.3-19.8 97.7 9.2s15 76.5-15.3 97.4c36.3-9.4 77.3 20.3 79.8 57.8s-34.4 72.6-71.6 68.3c32.1 5.9 49.9 49.6 31.1 76.5s-65.9 25-82.4-3.2c26 18.5 25.4 63.9-1.1 81.8s-68.6 1.4-75.8-29.8c-4.5 35.3-40.8 63.4-75.9 58.8-35.1-4.7-62.7-41.2-57.6-76.5-20.1 32.7-71.6 39.7-99.4 13.4s-23.8-78.3 7.6-100.4c-27.8 17.1-68.8 6.2-84.3-22.5s-2.5-69.2 26.9-83.5c-23.7 4.3-49.2-11.2-56.5-34.1s4.6-50.4 20.2-54.1z" fill="#323232"/>
            <path d="M1215.6 277.6c-5.6-29 16.1-60.7 46.6-62 28.2-1.2 58.6 27.2 51.4 56.4-1.8 7.2 9 10.2 11.1 3.1 12.5-43.5 66-55.1 100.3-29.5 16.4 12.3 27.2 31.5 26.1 52.3-1.2 21-13.7 39.6-32.1 49.4-4.2 2.2-3.5 9.6 1.4 10.5 28.2 5.1 58.4 21.9 63 52.9 4.1 28-23.6 51.9-50.2 38.3-6.6-3.4-12.1 5.9-5.8 9.9 26.7 17 37.5 58.8 14.2 83.2-23.1 24.2-66.2 18.6-87.2-5.1-4.9-5.5-13 2.6-8.1 8.1 25.6 28.9 78.4 33.6 105 3.4s14.1-79.1-18.1-99.6c-1.9 3.3-3.9 6.6-5.8 9.9 30.2 15.4 66.4-5.6 68-39.4 1.8-40.4-36.2-66.3-71.9-72.8.5 3.5.9 7 1.4 10.5 21.7-11.5 35.9-33.5 37.7-58 1.8-24.3-10.6-47.2-29.5-61.9-19.7-15.4-45.7-21.7-69.9-14.4-23.5 7.1-42.6 25.3-49.4 49 3.7 1 7.4 2 11.1 3.1 8.9-36.3-26.6-72.4-62.5-70.9-38.4 1.5-64.7 40.2-57.7 76.6 1.2 7.3 12.3 4.2 10.9-3z" fill="#5c5c5c"/>
            <path d="M1105.4 1112.3c57.7-74.8 115.8-150.2 159.9-234s74-177.5 70.8-271.5c-4.1-121.5-66.6-237.7-163.7-304.2-97.1-66.6-226.5-82-338.9-40.3S632 386.7 594.2 503.2c-5.9 18.3-21.9 97.2-16.1 115.2 7.1 21.9 35.2-8.7 51.7 6.7 38.8 36.2 59.1 88.2 84.1 135.6 85.1 161.7 238.4 282.3 391.5 351.6z" fill="#323232"/>
            <path d="m1128 790.5-11.9 492.8-300.9-37.5 12.4-216.5z" fill="#bf6d48"/>
            <path d="m819.7 1112.3-1.4 116.5s92.3-31.5 138.9-100.1 41.2-147.9 41.2-147.9z" fill="#646464"/>
            <path d="M857.4 340.6c-316.9-43.5-447.5 751-83.7 814.1 367 63.7 467-761.4 83.7-814.1z" fill="#bf6d48"/>
            <path d="M1098.6 661.5c-116.7-59.6-199.7-203.7-209.1-334.2 61.6 11.9 115.8 51.3 153.4 101.4 37.6 50.2 84.3 108.3 98.2 168.9-6.7 12.8-36.7 48.8-42.5 63.9z" fill="#323232"/>
            <ellipse cx="1152.5" cy="734.1" fill="#bf6d48" rx="122.1" ry="110.5" transform="rotate(-43.021 1152.472 734.04)"/>
            <path d="M1128.7 805.4c-35.7-13.1-73.4 11.9-94.6 39.2-21.6 27.7-31.2 64.6-20.5 98.7 9.8 31.3 35 56.9 68.1 61.6 32 4.6 65.7-8.9 86-34 24.9-30.8 29.3-75.1 14.1-111.2-2.8-6.7-14-3.8-11.1 3.1 23.6 55.9-7.1 128.7-72.9 131.5-30 1.3-55.8-15.7-68.6-42.5-13.6-28.3-10-61.2 5.6-87.9 17.2-29.4 54.8-60.7 90.9-47.5 6.9 2.6 9.9-8.5 3-11z" fill="#ffeee6"/>
            <path d="M1112.6 755.3c3.4-43.6 46.9-70.8 87.9-56.8 7 2.4 10-8.7 3.1-11.1-48.5-16.6-98.5 17.3-102.4 67.9-.6 7.4 10.9 7.4 11.4 0z" fill="#646464"/>
            <path d="M1112.7 759.4c15-22.4 42-28.1 67.4-25.8 7.4.7 7.3-10.8 0-11.5-29.7-2.7-60.1 5.7-77.3 31.5-4.1 6.1 5.8 11.9 9.9 5.8z" fill="#646464"/>
            <g fill="#323232">
                <path d="M593.7 662.5c31-11.4 52.6 19.4 58.3 45.8 6.2 28.6 3.6 60-6.8 87.3-5.5 14.4-13.7 26.3-22.9 38.4-7.4 9.7-9.4 20.1-3.2 31.2 11.4 20.4 37.9 28.4 59.4 21.2 7-2.3 4-13.4-3.1-11.1-13.4 4.5-28.4 2.2-39.2-7.2-7.4-6.5-12.3-15.3-6.6-24.7 3.2-5.2 7.7-9.6 11.1-14.6 15.7-22.6 23.8-50 25.6-77.3 1.7-25.6-.9-55.1-15.5-77-13-19.3-37.2-31.5-60.1-23.1-6.9 2.5-4 13.6 3 11.1zM728.9 661.5c49.8-43.8 122.5-55.9 184.1-31.8 6.9 2.7 9.9-8.4 3.1-11.1-65.5-25.6-142.6-11.6-195.3 34.8-5.5 4.9 2.6 13 8.1 8.1zM753.3 741.3c7.2-20 22.7-38.1 43.9-43.5 19.6-5 41.8 3 52 20.7 1.2 2.1 4.1 3.5 6.5 2.6 10.1-3.6 17.8-9.6 23.6-18.8 3.9-6.3-6-12.1-9.9-5.8-4.1 6.5-9.5 10.9-16.7 13.5 2.2.9 4.3 1.8 6.5 2.6-12.4-21.6-38.4-31.5-62.5-26.6-26.5 5.4-45.6 27.7-54.5 52.1-2.5 7.1 8.6 10.1 11.1 3.2z"/>
                <path d="M828.6 693.1c20 10.1 11.5 62.4-11 61.8-16.4-.4-27.4-19.4-23.3-40.3 4.2-20.9 19.3-29.1 34.3-21.5zM638.9 715.2c16.9 8.2 8.1 53.5-11.3 53.7-14.1.2-23.1-16-18.8-34.2s17.4-25.6 30.1-19.5z"/>
            </g>
            <path d="M696.5 971.6c.1-7.2 3-14.1 6.7-20.3 3.6-6.2 9.5-11.4 16.6-12.6 7.1-1.3 15.1 2.3 17.7 9-1.5-12.1 10.5-23 22.7-23.1s23.3 8.3 29.5 18.7c10.4 17.2 11 39.3-1 55.4s-33.4 24.3-52.9 19.4-39.7-21.2-39.3-46.5z" fill="#646464"/>
            <path d="M663.3 736.6C654.1 718 634 705.4 613 707c-20.8 1.5-38 15.8-45.3 35 2.4-1.3 4.7-2.7 7.1-4-5.6-1.9-9.2-5.4-11-11.1-2.3-7-13.4-4-11.1 3.1 3.1 9.6 9.5 15.9 19 19.1 3.1 1 6-1.2 7.1-4 12.8-34.1 58.9-34.5 74.5-2.7 3.3 6.6 13.2.8 10-5.8zM904.9 780.6c7.4 0 7.4-11.5 0-11.5s-7.4 11.5 0 11.5zM690.3 982.3c20.4 6.2 41.8 9 62.8 4.3 19.1-4.3 36-14.5 51.4-26.4 5.8-4.4.1-14.4-5.8-9.9-13.9 10.7-28.9 20.2-46.1 24.6-19.8 5-39.9 2.2-59.2-3.7-7.1-2.2-10.2 8.9-3.1 11.1zM891.9 338c-22.7 50.8-16.3 108.4 4.5 158.8 22.2 53.7 59.3 99 93.3 145.4s66.9 97 76.3 154.9c4.2 26.2 3.2 54.9-8.9 79-11.8 23.5-39.7 45.7-67.3 35.2-13.8-5.2-25-19.5-24.1-34.6.9-14.5 12.5-29 27.6-29.7 13.6-.6 28.8 10 28.9 24.4.1 6.8-3.3 14.6-9.7 17.7-7.4 3.6-19.9-4.4-16-13.2 3-6.7-6.9-12.6-9.9-5.8-4.8 11-.3 22.7 10.2 28.6s22.6 2.3 29.9-6.8c17.6-22-.7-51.5-25.7-55.8-26.9-4.6-49.8 21.3-46.5 47.4 3.7 29 33.3 46.2 60.8 40.6 31.1-6.3 52-34.4 59.8-63.6 8.5-31.7 4.3-65.8-5.2-96.8-21.8-70.6-71.4-126.8-113.3-185.9-46.7-66-90.9-153-54.6-234 2.8-6.7-7.1-12.6-10.1-5.8z" fill="#323232"/>
            <path d="M890.8 334.7c-38.1 19.4-53.6 65.4-47.9 105.9 7.5 52.5 46.1 93.9 82.2 129.7 23.3 23.2 47.2 46 65.6 73.4 4.1 6.1 14.1.4 9.9-5.8-36.2-53.7-93.1-90.2-126.4-146.1-15-25.2-24.4-54.2-20-83.7 3.9-26.5 17.9-51.1 42.3-63.5 6.7-3.4.9-13.3-5.7-9.9z" fill="#323232"/>
            <path d="M1341.2 632.7c-4.8-120.7-62-237.2-152.7-316.7-25.4-22.3-53.4-41.6-83.3-57.4-6.5-3.4-12.3 6.5-5.8 9.9 103.9 54.8 182.2 153.3 214.5 266 9.2 32 14.5 64.9 15.8 98.2.3 7.4 11.8 7.4 11.5 0z" fill="#5c5c5c"/>
            <path d="M1247.6 461.4c-102.7 6.5-220.3-17.3-276.3-113.2-3.3-5.6-12.4-1.9-10.5 4.4 30.6 104.3 106.8 194.6 212.9 226.3 30.2 9 61.9 12.8 93.4 10.9 7.3-.4 7.4-11.9 0-11.5-69.4 4.1-138.6-20.6-191.5-65.3-50.3-42.5-85.3-100.6-103.8-163.5-3.5 1.5-7 3-10.5 4.4 58.1 99.3 179.4 125.6 286.2 118.8 7.4-.3 7.5-11.8.1-11.3z" fill="#5c5c5c"/>
            <path d="M1745.5 1376.9c-34.7 91.4-85.7 174.9-149.5 246.6-48.2 54.2-103.7 101.8-164.9 141.2l-94.8-134.3s-62.5-523.1 141.2-467.4c67 18.3 167.1 107.3 268 213.9z" fill="#ffb999"/>
            <path d="M1437.2 1760.7c-2 1.4-4 2.7-6.1 4-1 .7-2.1 1.4-3.2 2-24.1-37.5-49-74.3-75.4-110.2-4.3-5.9 4.3-13.5 8.7-7.5 18.5 25.2 36.3 51.1 53.5 77.2 7.6 11.5 15.1 23 22.5 34.5z" fill="#fcfdff"/>
            <path d="m797.8 1190.6-.9 101.2s-91.2 244.6 48.7 267.3c178 28.9 298.8-305.7 298.8-305.7L1141 1142z" fill="#ffb999"/>
            <path d="M800.1 1278.1c40.9 7.1 82.9 9.1 124.4 7.7 47.5-1.6 95.9-7.7 141-23.2 23.3-8 45.7-18.6 65.5-33.4 5.8-4.4.1-14.4-5.8-9.9-35.1 26.3-78.4 39.4-121 47-45.3 8.1-91.9 9.9-137.8 7.5-21.1-1.1-42.3-3.1-63.1-6.8-7.4-1.3-10.5 9.8-3.2 11.1z" fill="#fcfdff"/>
        </g>
     
</svg>
