<svg viewBox="0 0 2000 2000" xmlns="http://www.w3.org/2000/svg">
     
        <g fill="#030303">
            <path d="M1842.6 1040.7c0 204.2-72.7 391.4-193.5 537.2-20 24.1-41.3 47.1-63.9 68.9-17.9 17.3-36.6 33.9-56 49.5-144.6 116.7-328.6 186.7-528.9 186.7-378.2 0-698.2-249.3-804.6-592.5-24.5-78.9-37.6-162.8-37.6-249.8 0-465.2 377.1-842.3 842.3-842.3 465.1 0 842.2 377.1 842.2 842.3z" fill="#aebfff"/>
            <path d="M1649.1 1577.8c-20 24.1-41.3 47.1-63.9 68.9-17.9 17.3-36.6 33.9-56 49.5L1525 1411c22.9 23 69.3 86.8 124.1 166.8zM1270.7 1293.9c58.1-58.2-121.4-220.5-231.7-257s-504.5-59.1-589.6 26.1-4.6 259.5-4.6 259.5z" fill="#ffb999"/>
            <path d="m800.6 719.5-52.1 586.3 317.7 422.3 23.1-416.8 29.4-302.5z" fill="#bf6d48"/>
            <path d="m1123.1 976-17.9 172s-130.8-3.8-177.1-87.4C887.2 986.9 905 920.1 905 920.1z" fill="#646464"/>
            <path d="M1105.5 184.8c420.3 3.4 412.5 985.5-27.6 884.9C681.6 979 763.3 182 1105.5 184.8z" fill="#bf6d48"/>
            <path d="M855.3 584.3c-4.4 14.6-1.3 31.4 10.6 42.4s33.3 14.1 47.1 5 14.8-30.4.4-38.7c2.9 15.6 29.7 19 43.5 8.7 13.8-10.2 17.4-27.2 19.8-42.8 12.8-83.9 14.5-169.1 5.1-253.4 16.6 21.7 35.3 44.8 63.7 53.1s67.1-8.4 64.6-34.4c35 50.4 122.4 65.3 176.6 30.2 44.6 27.6 106.5 32.4 155.9 12 25.5-10.5 48.2-28.1 58.1-51.1 12.7-29.8 1.2-65.1-24-88.1s-62.1-34.5-98.6-35.8c5.4-42.2-25.5-85.9-71.2-100.6s-101.7 1-129.1 36.1c-24.5-17.6-58.8-24.1-89.5-17.1s-56.9 27.4-68.4 53.2c-19.8-22.7-57.4-32.1-88.1-22-30.6 10.1-51.7 38.9-49.3 67.4-46-1.2-87.7 28-108.5 63.8s-24.6 77.2-25.2 117.4c-2.3 153.9-52.5 480.9 39.6 470 5.2-.6 15.1-115.6 18.1-160 1.9-31.5 29.2-90.4 48.8-115.3z" fill="#323232"/>
            <ellipse cx="768.8" cy="603.5" fill="#bf6d48" rx="103.9" ry="154.6" transform="rotate(-33.623 768.867 603.54)"/>
            <path d="M720.5 599.9c16.8-5.5 36.4-9.6 53.3-2.1 16.5 7.4 24.1 24.5 29.5 40.7 2 5.9 11.7 5.3 11.3-1.5-.7-13.9-16.1-22.4-27.9-26.8-14-5.2-29-5-42.4 1.7-6.6 3.3-.8 13.2 5.8 9.9 8.9-4.5 18.6-4.8 28.1-2.3 7.2 1.9 24.4 8.3 24.9 17.5 3.8-.5 7.5-1 11.3-1.5-6.2-18.8-15.3-38.2-34.1-47.3-19.8-9.6-42.8-6-62.9.7-7 2.2-4 13.3 3.1 11z" fill="#646464"/>
            <path d="M1373.2 496.4c-17.4 1.9-34.4 5.6-50.6 12.1-14.4 5.7-21.3 12.5-21.7 28.5-1.1 38.7.6 77.7 2.8 116.3 1.1 20 2.6 40 4.4 59.9 1.5 16.2 4 33.5-1.2 49.3-12.2 37.6-59.5 42.4-92.7 45.4-7.3.7-7.4 12.2 0 11.5 31.5-2.8 67.3-6.4 90.3-30.9 23.2-24.8 16.3-59.6 13.8-90.3-3.2-38.7-5.1-77.4-5.7-116.2-.2-10-.3-20-.3-30 0-9.3-2.8-23.8 6.5-29.3 15.5-9.2 36.8-12.8 54.4-14.7 7.3-.9 7.4-12.4 0-11.6zM1015.7 514.7c61.5-19.5 129.4-14.8 187.3 13.9 6.6 3.3 12.4-6.6 5.8-9.9-60.6-30.1-131.7-35.5-196.1-15.1-7 2.2-4 13.3 3 11.1zM1035.8 606.6c19.8-16.3 43.2-30 69.6-29.9 11.6 0 23.5 2.7 33.3 9.1 11.6 7.6 19 19.4 26.3 30.9 3.9 6.2 13.9.5 9.9-5.8-7.8-12.3-15.9-24.8-28-33.4-11.2-7.9-24.9-11.7-38.5-12.2-30.6-1.3-57.8 14.4-80.7 33.2-5.7 4.6 2.5 12.7 8.1 8.1z" fill="#323232"/>
            <path d="M1312.1 607.9c14-25.6 59-26.1 69.8 2.9 2.6 6.9 13.7 3.9 11.1-3.1-14-37.8-71.7-40.7-90.8-5.6-3.6 6.5 6.4 12.3 9.9 5.8z" fill="#323232"/>
            <ellipse cx="1078.1" cy="609.2" fill="#323232" rx="22.7" ry="33.8"/>
            <ellipse cx="1335.8" cy="613.8" fill="#323232" rx="17.9" ry="27.5"/>
            <path d="M1096.9 869.5c44.2 19.8 92.7 27.3 140.8 21.4 7.2-.9 7.3-12.4 0-11.5-46 5.7-92.7-.8-135-19.8-6.7-3-12.6 6.9-5.8 9.9z" fill="#323232"/>
            <path d="M801.5 298.4c-6.7 15.4-11.2 31.4-12.9 48.1-1.5 14.3-2.5 32.3 4.1 45.6 5.4 11 18.3 18.3 30.2 13.1 12.8-5.5 21.9-22.2 27.6-34.1-3.6-1-7.1-1.9-10.7-2.9-1.7 20.1-3.3 40.3-.8 60.4 2.1 16.6 6.7 36.6 18.5 49.3 29.8 32.1 54.3-32.4 58.1-53.7 1.3-7.2-9.8-10.3-11.1-3.1-2.6 14.6-7.7 28.3-15.8 40.8-4.2 6.6-9.9 15.7-18.9 11.2-6.7-3.4-10.6-12.9-13.2-19.6-10.5-27.1-7.9-57-5.5-85.3.5-5.6-8.3-8-10.7-2.9-4.6 9.5-10.5 20.7-19 27.3-14.3 11.3-21.2-10.8-21.9-21.1-1.6-23.1 2.6-46.1 11.8-67.3 3.1-6.8-6.8-12.6-9.8-5.8zM1016.2 238c27.4-23.6 61.8-37.9 97.2-44.2 18.2-3.2 36.9-4.1 55.4-2.6 7.9.6 18 1.3 24.6 6.2 11.2 8.2-3.8 18.6-10.9 23.2-6.3 4.2-.9 12.9 5.8 9.9 20.6-9.2 42.8-14.3 65.3-15.1 20.4-.8 43.6 1 60.9 13 7.8 5.4 15.2 14.3 15.6 24.2.4 10.4-7.1 18.5-15.3 23.8-19.3 12.3-43.8 11.9-65.8 12-7.4 0-7.4 11.5 0 11.5 25.9-.1 54.9-.3 76.4-16.9 17.9-13.8 21.3-36.1 6.8-53.8-16.2-19.7-44.1-24.9-68.3-25.3-28-.5-55.8 5.4-81.3 16.8 1.9 3.3 3.9 6.6 5.8 9.9 13.8-9.2 31.3-27.3 12.8-41.7-16.3-12.7-44.9-10.6-64.1-9.3-46.8 3-93.2 19.6-129 50.3-5.7 4.8 2.5 12.9 8.1 8.1z" fill="#5c5c5c"/>
            <path d="M1585.2 1646.7c-151.5 146.3-357.7 236.3-585 236.3-378.2 0-698.2-249.3-804.6-592.5 99.1-133.2 576-127.1 576-127.1l285.2 342 51.4-289.9s308.6 26.7 421.2 202.2c21.5 33.3 40.2 116 55.8 229z" fill="#ffb999"/>
            <g fill="#fcfdff">
                <path d="M430.5 1222.1c114.9 156.2 281.9 262.3 455.8 342.3 49.4 22.7 99.6 43.5 150.3 63.2 6.9 2.7 9.9-8.4 3.1-11.1-175.9-68.4-351.6-151.8-491.7-280.8-39.5-36.4-75.7-76.2-107.6-119.5-4.3-5.8-14.3-.1-9.9 5.9zM1256.1 1283.7c-10.6 55.9-23.6 111.7-44.5 164.8-21.1 53.6-51 103-88.7 146.5-4.8 5.6 3.3 13.7 8.1 8.1 37.8-43.6 67.8-92.7 89.5-146.1 22.2-54.7 35.7-112.4 46.7-170.2 1.4-7.3-9.7-10.4-11.1-3.1zM720 1120.2c23.2 23.2 46.5 46.2 69 70.1 23.6 25 44.9 51.6 66.4 78.4 47.8 59.6 95.6 119.1 143.4 178.7 26 32.4 53.9 64.2 72.8 101.4 3.4 6.6 13.3.8 9.9-5.8-16.3-32-39.3-59.6-61.6-87.5-24.1-30-48.2-60-72.3-90.1l-73.5-91.5c-21.9-27.3-43.3-55.1-67-81-25.5-27.8-52.4-54.1-79-80.8-5.2-5.2-13.4 2.9-8.1 8.1z"/>
                <path d="M1061.3 1511.1c14.8-113.8 34.4-225.8 71.2-334.8 2.4-7-8.7-10-11.1-3.1-37.2 110-56.7 223-71.7 337.8-.9 7.4 10.7 7.3 11.6.1zM930.3 1516c39 21.9 56.8 67.1 58 110.2 1.5 53.9-21.4 105-40.4 154.2-19.2 49.6 53.4-36.2 52-151.5-.6-47.9-20.4-98.5-63.8-122.8-6.5-3.6-12.3 6.3-5.8 9.9zM1140.2 1471.6c-9 35.1 3.4 69.9 19.9 100.8 18.2 33.9 38.7 65.1 47 103.3 8.1 37 7.3 75.5 2.7 112.9-4.8 38.5 3.7 61.2 11.3 1.7 4.4-34.6 5.3-69.7-.3-104.2-5.6-34.6-19.6-65-37-95.2-20.2-35-43.2-74.2-32.5-116.1 1.8-7.3-9.3-10.4-11.1-3.2z"/>
                <ellipse cx="1217.5" cy="1772.7" rx="33.9" ry="60.8" transform="matrix(1 -.00404 .00404 1 -7.16 4.939)"/>
                <path d="M1516.6 1427.1c13.5 57.1 23.1 115 28.7 173.3.7 7.3 12.2 7.4 11.5 0-5.7-59.4-15.3-118.3-29.1-176.4-1.7-7.2-12.8-4.1-11.1 3.1z"/>
                <ellipse cx="961.4" cy="1782.1" rx="60.8" ry="33.9" transform="rotate(-79.338 961.468 1782.168)"/>
            </g>
        </g>
     
</svg>
