<svg viewBox="0 0 2000 2000" xmlns="http://www.w3.org/2000/svg">
     
        <g fill="#030303">
            <path d="M1890.1 1021.8c0 150.9-37.6 293.1-103.9 417.6-149.6 280.9-445.4 472.2-785.9 472.2-3 0-6.1 0-9.2-.1-193-2.9-408.4-95.7-570-214.3-21.2-18.1-41.5-37.3-60.9-57.4-19.5-20.2-38.1-41.3-55.6-63.3-121.5-152.1-194.1-345-194.1-554.8 0-491.4 398.3-889.8 889.8-889.8s889.8 398.5 889.8 889.9z" fill="#aebfff"/>
            <path d="M1386.1 738c39.4-33.9 60.9-114.8 58.7-158.3-2.3-45.5-34.6-83.5-39.5-94-12-25.4-3.3-63.5-.3-76.3 5.7-24.6-22.7-42.8-46.4-48.1s-53-11.1-60.6-35.4c-6.2-19.8 6.2-42.9-3.4-61.3-15.6-30.1-66.2-10-87.6-36-15.3-18.5-5.5-48.1-15.3-70.3-7.8-17.7-27.1-27.4-45.4-28.4-18.4-1-36.2 5-53.6 11-3.7-48-56.9-84.9-99.8-69.1-21.2 7.8-39.6 25.9-62.1 25-33.2-1.4-58.8-43.9-91.4-37.7-30.8 5.9-41.6 51.1-71.7 60.1-29.4 8.8-62.4-21.6-90.2-8.5-23.8 11.2-26.6 45.8-43.6 66.5-18.1 22-48.9 24.9-76.5 29s-58.8 14.2-68.4 41.7c-6.5 18.4-1 39.5-5.5 58.6-10.6 44.9-72.3 67-68.6 113.4 2 25 23.6 44.7 26.2 69.6 4.5 42.4-46.7 79.1-31.2 118.7 7.7 19.5 29.3 29.8 37.7 49 17 38.9-29.4 77.6-26.8 120.1 2.6 43.7 53.5 67 68.2 108.2 7.9 22 4.4 46.1 4.3 69.4s5.1 49.7 23.6 62.7c20.5 14.4 50.5 7.4 69 24.6 17 15.7 16.2 44 29.5 63.2 18.2 26.3 54.7 26.5 85.1 23 146.3-16.9 291.3-58.4 416.4-138.1S1329.3 911 1386.1 738z" fill="#ff6d2a"/>
            <path d="M1308.2 742.8c13.6-22.6 40.1-37.5 66.9-37.5s52.9 14.8 66 37.4c6.3 10.9 9.8 23.6 18.8 32.5 24 24 72.7 9.2 94.5 35.1 22.1 26.3-1.7 74.2 24.8 96.2 16.1 13.4 44.4 9.9 56 27.1 16.6 24.6-20.3 54.3-18.4 83.8 1.5 24 27.9 39.4 34.4 62.5 5.9 21-6 43.3-21.4 59.5s-34.5 29-48 46.7c-16.9 22.2-24.6 51.4-47.1 68.3-34.6 25.9-86.8 10.6-124.9 31.1-19.6 10.6-34.8 30.2-56.9 33.7-29.6 4.7-58.3-22.4-87-13.6-11.6 3.5-22.1 12.8-34.1 11.4-10.2-1.2-17.5-9.6-23.6-17.5-61.6-80.7-102.1-180-96-281s64.2-202.2 196-275.7zM468.9 456.6c-24.3 38.6-48.7 77.3-73 115.9-9.9 15.8-21.2 32.1-23.7 51-2.3 17 5.1 28.6 16.5 40.1 32.2 32.3-3.1 75-13.6 108.9-9.9 32 2.2 57.6 24.7 80.1 21.8 21.8 47.1 40.6 46.3 74.5-.7 30.7-16.9 66.1 2.8 94.2 17.6 25 50.4 26.3 75.4 39.8 28.6 15.5 30.9 51 54 71.5 14.2 12.6 32.4 14.4 50.5 12.3 21.9-2.6 42.2-7.9 64.1-1.7 19 5.4 37.2 14.9 57.4 14.2 16.3-.6 32-6.9 40.3-21.6 4.1-7.1-6.9-13.6-11-6.4-19.4 34.2-69.1 3-95.8-1.2-31-4.9-72.9 18.5-98.4-6.4-20.2-19.7-23.4-50.6-47.7-67.4-22.5-15.6-55.3-15.3-74.5-35.6-22.9-24.2-5-62.9-4.3-91.6.7-28.9-14.7-49.5-34.6-68.7-21.3-20.5-45.4-40.9-39.1-73.7 6.5-34.1 33.7-62.3 29-98.9-.9-7.2-3.3-14.3-7.2-20.5-5.1-8-13.6-13.2-18.6-21.2-12.1-19.2 5.1-43.9 15.3-60.1C429 543.8 454.5 503.4 480 463c4.3-7-6.7-13.4-11.1-6.4z" fill="#ff6d2a"/>
            <path d="M1274.9 818.2c15.3 9.6 26.8 24.3 32.1 41.6 2.5 8.1 3.2 16.2 3.3 24.7 0 7 .2 14.1 4.5 20 3.7 5.1 9.4 7.4 15.1 9.5 9.5 3.5 18.9 6.9 27.7 12 17 9.9 32.9 28.2 29.2 49.3-3.1 17.2-17 30.1-19.1 47.8-2 17.2 7.4 24.3 18.4 35.2 14.4 14.2 12.1 38-4.9 49-12.8 8.2-28 3.2-42 7.2-5.4 1.5-10.4 4.5-13.4 9.3-2.3 3.7-2 7.5-3.3 11.5-2.1 6.3-7.2 7.6-13.2 7.6-21 .3-41.6-11.3-55.6-26.2-5.6-6-14.6 3-9 9 12.7 13.6 29 23.5 47.2 27.7 13.3 3.1 34.3 5.3 41.4-9.8 1.9-4.1 1.1-9.4 3.6-13.1 2.5-3.6 7.1-4.2 11.2-4.6 7.4-.8 15-.1 22.4-1.2 16.3-2.4 30.7-14.1 35.9-29.8 5.2-15.8.5-33.9-11.3-45.4-8.4-8.3-16.9-13.2-14.5-26.8 1.9-10.7 8.6-19.6 13.2-29.2 18.5-38.8-11-71.6-45.7-86-5.3-2.2-10.9-3.8-16.2-6-8.4-3.4-8.7-8.9-8.8-16.7-.1-10.1-1-19.9-4.2-29.6-6.6-19.9-19.8-36.5-37.5-47.7-7-4.7-13.4 6.3-6.5 10.7z" fill="#ff9361"/>
            <path d="M1305.8 795.5c23.4-11.7 52.8-13.1 78-6.8 12.2 3 23.8 9.9 29.7 21.5 6.4 12.7-3.1 25.7 2.9 37.9 4.8 9.5 15.3 9.8 24.7 10.4 14 .9 26.9 5.2 38.5 13.1 22 14.9 36.9 40.7 35.8 67.6-.6 14.3-4.9 28.1-5.7 42.4-.8 15 3.4 27.9 11 40.7 6.9 11.7 14.5 22.5 16.7 36.2 2.3 13.8-.1 28.5-6.3 41-5.5 11.2-14 18.9-23.7 26.5-9.6 7.5-18.4 15.6-20.8 28.1-2.4 12.2 2.7 25.4-.9 37.3-5 16.5-32.6 20.5-47.3 22-15.5 1.6-31.7-2.2-46.8 2.2-16.1 4.7-29.8 14.1-46.7 17.1-33.5 6-71.4-9.1-79.9-44.7-1.9-8-14.2-4.6-12.3 3.4 6.5 27.4 30 47.7 57.2 53.4 15.7 3.3 32 2.2 47.5-1.9 16.4-4.4 31.3-15.8 48.5-16.7 18.2-.9 35.2.9 53.2-3.7 13-3.3 29.1-8.2 36.2-20.8 6.9-12.3 2.6-26.5 3.3-39.8.9-18.2 17.1-24.7 28.7-35.8 19.2-18.3 27.2-46.7 22.1-72.5-2.9-14.7-11.2-26.5-18.6-39.2-10.8-18.6-8.4-35.7-5-56 4.8-28.9.2-55.5-18.7-78.6-17.7-21.6-41.6-32.1-69-34.1-1.2-.1-6.1 0-7.1-.9-3.1-2.8-3-9.1-2.7-12.8s1.2-7.2 1.1-11c-.3-7-2.7-13.9-6.4-19.8-7.6-12.2-20.1-20.4-33.7-24.2-29-8.1-62.9-6-89.9 7.5-7.4 3.6-.9 14.6 6.4 11zM729.4 206.9c9.1-26.8 48.5-45.1 75.8-39.2 9.2 2 17.6 7 22 15.6 3.8 7.4 5.1 15.7 12.2 21 14.5 10.7 37.3 2.5 51.8-4 26.7-11.9 84.9-49.7 100.8-2.9 5 14.6 4.4 31.3 14 44.1 10 13.4 25.8 14.9 41.3 12.6 16.9-2.5 34.6-8.4 49.8 2.7 10.7 7.9 17.5 20.3 23.9 31.7 12 21.4 24.7 48.1 50.7 54.7 10.3 2.6 21.1 1 31.3 3.4 9 2.2 16.9 7.4 23.1 14.2 13.3 14.6 18.5 34.2 19.2 53.5.7 19.4 1.1 37.9 14 53.7 11.2 13.8 27.3 22.4 41.8 32.1 10.1 6.7 19.9 15.1 25.9 25.9 7 12.6 5.1 23.1-1.8 35.1-4.4 7.7-8.8 15.7-7.4 24.9 1.3 8.8 7.3 15.3 13.5 21.3 14 13.7 21.2 29.4 17.8 49.3-3.1 17.9-13.7 33.4-30.5 40.7-7.5 3.3-1 14.3 6.4 11 28.9-12.7 42.9-47.6 35.7-77.6-1.7-7.3-4.9-14.3-9.2-20.4-5.5-7.7-15.3-13.2-19.4-21.6-5.3-10.8 4.4-20.3 8.7-29.7 3.9-8.3 4.8-17.4 2.7-26.3-4.6-19.5-21.1-34.1-37.1-44.6-16.9-11.1-38.4-21.8-45.1-42.5-6.8-21-1.3-43.8-9-65-5.9-16.3-16.2-31.7-31.4-40.6-6.9-4-14.6-6.3-22.5-7.2-10.7-1.2-21.7 0-31.4-5.3-13.1-7-21.1-21-28.2-33.5-12.9-22.8-26.2-52.1-55.2-56.3-9-1.3-18 .1-26.9 1.7-10.7 1.9-23.6 5.7-33.8.1-16-8.8-13.9-34.5-19.8-49.5-14.7-37.1-59.5-30.4-88.4-16-11.5 5.7-22.6 12.5-34.6 17.1-6.8 2.6-14.3 4.9-21.6 5-9.3.2-13.8-4-17.1-12.2-7.4-18.6-22.7-29-42.8-30-32.1-1.7-70.8 18.3-81.4 49.5-2.7 7.9 9.6 11.3 12.2 3.5z" fill="#ff9361"/>
            <path d="M1786.1 1439.4c-149.6 280.9-445.4 472.2-785.9 472.2-3 0-6.1 0-9.2-.1-193-2.9-408.4-95.7-570-214.3-21.2-18.1-41.5-37.3-60.9-57.4-19.5-20.2-38.1-41.3-55.6-63.3 72.5-93.8 135.2-157.2 187.3-189.4 146.3-90.3 482.4 34 482.4 34l340.1-2.8c.1.1 278.3-15.3 471.8 21.1z" fill="#323232"/>
            <path d="m953.3 1113.6 1.4 300.7v481.2l359.7-477.1-41.3-613.7z" fill="#ffb999"/>
            <path d="m953.3 1121.4 2.7 182.9s100-14.8 156.4-75.6c71.9-77.4 81.5-220.3 81.5-220.3z" fill="#f19165"/>
            <path d="M764.2 327.2c473.1-100.7 656.5 802.5 213.5 896.8-449.1 95.6-590.8-816.5-213.5-896.8z" fill="#ffb999"/>
            <path d="M489 803.1c19.9 7 41.6-9.2 49.6-28.8 7.9-19.5 6.4-41.4 7.4-62.5s5.8-44 22.3-57.2c11.9-9.5 28.4-12.6 38.7-23.8 26.8-29.2-9.1-84 17.1-113.7 11.3-12.8 30.2-15.4 44.3-25 28.6-19.5 30.2-60.6 26.8-95.1 11.4 39.7 46.9 71.3 87.6 78.2 14.7 2.5 29.8 2 44.3 5.3 14.5 3.4 29.1 11.8 34.1 25.9 5.9 16.5-1.9 38.1 10.7 50.1 12.7 12.1 34.2 3.1 50.8 8.9 33.9 11.9 24.7 72.4 57.8 86.3 21.9 9.2 48.6-9.2 70.2.9 18.7 8.8 23 34.2 39.3 47 18.1 14.3 44.1 8.8 66.3 2.6 16.1-4.5 32.7-9.3 45.4-20.1 21.2-18 26.6-48.7 25.2-76.5-5.1-101.5-80.3-185.6-160.5-248.1-44.2-34.4-92.1-65.7-146-81.2-87-25-184.1-5.2-259 45.8s-127.7 131-152.8 218-23.5 180.5-19.6 263z" fill="#ff6d2a"/>
            <path d="M686 285.8c5.9-14.4 24.2-19.8 38.4-16.6 14.4 3.2 26 14.8 34.1 26.6 14.5 21.1 25.4 44.5 50.8 54.6 24 9.5 49.6-2.1 72.9-8.5 12.1-3.3 26.1-6.6 38-.9 15.3 7.4 18.7 25.4 19.6 40.8 1.5 24.8-1.3 56.8 21.7 73.5 13 9.4 27.4 5.5 42.2 6.2 13.3.6 21.2 8.3 26.2 20 8.7 20.7 8.8 44.3 20.1 64.1 12.4 22 35.4 26.5 58.9 26.7 13.2.1 28.2-1.7 40.8 3.2 17.6 6.8 13.4 25.7 20.7 39.8 11.9 22.9 46.8 26.6 63.6 7.5 5.4-6.1-3.6-15.2-9-9-8.7 9.9-23.8 11.2-34.9 4.3-14.1-8.7-10-26.9-17.7-39.7-12.8-21.4-40.8-18.8-62.2-18.9-12.7-.1-26.9-.2-37.8-7.6-9.9-6.6-14.6-18.1-17.9-29.1-6.1-20.2-7.3-44.8-21.8-61.4-7.5-8.5-17.7-12.4-28.9-12.8-17.7-.6-34.4 3.8-43.9-15.1-13.5-27-.6-59.7-15.6-86.4-13.2-23.6-39.6-24.3-62.9-18.2-26.3 6.8-54.1 21-79.1 3.1-24.8-17.7-31.1-51-57.4-67.6-24.1-15.2-59.5-10.2-71.1 18-3.2 7.6 9.1 10.9 12.2 3.4z" fill="#ff9361"/>
            <ellipse cx="1272.8" cy="738" fill="#ffb999" rx="155.7" ry="114.9" transform="rotate(-51.835 1272.906 738.08)"/>
            <path d="M1311.7 707.8c-21.2-6-41.2 8.1-54.9 23.1-14.6 16-24 35.9-27.3 57.3-1.1 6.8 7.7 11.6 11.6 4.9 13.1-22.2 36.5-35.6 62.3-35.4 8.2.1 8.2-12.7 0-12.7-30.2-.2-57.9 15.8-73.3 41.7 3.9 1.6 7.8 3.3 11.6 4.9 2.6-16.8 8.9-32.5 19.3-46 10.5-13.6 28.5-30.8 47.2-25.6 8 2.4 11.4-9.9 3.5-12.2z" fill="#f19165"/>
            <path d="M563.1 738.9c26-9.8 68.4-20 90.4 3.9 24 26.1 24.9 71.6 28.2 104.7 2 19.9 3.4 39.8 4.3 59.7.4 9.6.5 19.3.9 28.9.2 6.7.5 13.6 4.3 19.4 7.1 10.9 23.4 14 35.4 14.8 15.9 1.1 31.7-3.4 45.1-11.8 6.9-4.4.5-15.4-6.4-11-16 10.1-35.4 13.2-53.6 7.1-11.5-3.9-11.9-11.8-12.1-22.6-.2-9.6-.5-19.3-1-28.9-1.8-36.9-4.6-74.3-11.2-110.6-4.7-25.7-14.2-57.1-39.7-69.4-27.3-13.2-60.9-6.7-88 3.6-7.6 2.8-4.3 15.1 3.4 12.2zM775.4 693.8c41.7-38.7 97.8-58.5 154.5-55 8.2.5 8.2-12.3 0-12.7-60-3.6-119.4 17.9-163.5 58.8-6 5.5 3 14.5 9 8.9z" fill="#323232"/>
            <path d="M804.2 1044.6c11.4 18.1 30.1 36.2 65.7 20.8 47.8-20.7 43.5-61.4 36-73.6s-33-26.7-52.4-15.2c-19.3 11.5-19.5 32-19.5 32s-23.2-15.6-31.3-9.6c-8.2 5.9-10.7 26.1 1.5 45.6z" fill="#f19165"/>
            <path d="M802.2 1047.3c45.7 1.9 87.7-21.1 115-57.1 5-6.5-6.1-12.9-11-6.4-24.6 32.4-63.1 52.4-104 50.8-8.2-.4-8.2 12.4 0 12.7z" fill="#323232"/>
            <path d="M1418.5 686.1c17.6-7.7 39.7-6.9 53.2 8.2 12.5 13.9 7.7 36.4 21.8 48.6 17.3 15.1 40.4-5.2 59.8 4.3 24.3 11.9 29.5 41 32.6 65.2 1.1 8.4 1.5 17.7 7.4 24.4 6.6 7.6 16.1 8.4 24.6 12.7 17.3 8.7 11.1 35.4 16.9 51 5.9 15.8 31.7 29.6 25.4 48.1-5.7 16.7-22.9 26.2-25.6 44.6-1.8 12.2 2.6 23.9 6.2 35.3 4.1 13.2 5.4 25.7 1.6 39.1-7.2 25.6-26.5 46.3-44.5 65-5.7 5.9 3.3 14.9 9 9 16.8-17.4 33.6-36 43.4-58.5 10.2-23.3 7.2-43.3 0-66.8-3.8-12.4-5-23.2 2.4-34.5 5.8-8.9 13.9-16.3 18.2-26.2 8.4-19-3.4-32.8-15.4-46.5-7.9-9-10.7-17.8-12-29.5-1-9-1.3-18.5-5.2-26.9s-10.5-13.5-19-16.7c-4.6-1.8-10.5-2.7-14.3-5.8-6.9-5.7-6.2-17.2-7.3-25.3-3.2-23.3-9.4-47.5-28.6-62.9-7.1-5.6-15.4-9.7-24.4-10.9-6.1-.8-11.8-.1-17.8 1.2-7.3 1.5-17.1 6.2-24.1 1.6-9.1-6.1-8.3-24.8-12.5-34.3-4-9-10.3-16.7-18.5-22.2-18-12.2-40.5-10.9-59.7-2.6-7.6 3.5-1.1 14.5 6.4 11.3z" fill="#ff6d2a"/>
            <g fill="#ff9361">
                <path d="M683.1 278.6c-21.2-10.6-50.1-23.2-73.9-14.3-25.9 9.7-35.9 46.1-36.5 70.8-.4 17.9 5.9 35.4 4.4 53.3-1 12.1-6.5 23.1-13.3 33-13.6 19.7-32.3 35.2-46.7 54.2-12.9 17-21.3 37.4-14.8 58.8 4.5 14.7 15.9 27.1 18.6 42.4 3 17.1-10.9 29-21.2 40.5-19.3 21.8-27.6 50.9-19.7 79.3 4.1 14.7 13.6 25.8 20.5 39 10.2 19.3 1.5 38.2-3.7 57.5-16.3 60.6 14.9 128.7 71.1 156.4 7.3 3.6 13.8-7.4 6.4-11-48.4-23.9-78-81.1-67-134.5 3.2-15.6 10.2-30.4 11-46.4.8-15.3-5.8-27.4-13.8-39.8-17.1-26.3-20.9-58.7-1.1-85.1 15-20.1 37.5-36.1 28.5-64.4-4.3-13.6-14-25-17.7-38.9-2.7-9.8-1.5-19.8 2.5-29.1 17.1-39 63.7-59.8 72.1-103.8 3.3-17.4-1.9-34.1-3.1-51.4-1.2-17.2 1.6-35 10.1-50.2 8.7-15.6 19.7-22.4 37.6-20.2 15.2 1.9 29.8 7.9 43.4 14.7 7.2 3.9 13.6-7.1 6.3-10.8zM602.4 907.4c8.2 0 8.2-12.7 0-12.7-8.2-.1-8.2 12.7 0 12.7zM645.3 890.7c8.2 0 8.2-12.7 0-12.7-8.2-.1-8.2 12.7 0 12.7zM625 925.2c8.2 0 8.2-12.7 0-12.7s-8.2 12.7 0 12.7zM619.5 970.5c8.2 0 8.2-12.7 0-12.7s-8.2 12.7 0 12.7zM659.6 943.1c8.2 0 8.2-12.7 0-12.7s-8.2 12.7 0 12.7zM831.2 851.3c8.2 0 8.2-12.7 0-12.7s-8.2 12.7 0 12.7zM890.8 838.2c8.2 0 8.2-12.7 0-12.7s-8.2 12.7 0 12.7zM970.7 808.4c8.2 0 8.2-12.7 0-12.7s-8.2 12.7 0 12.7zM1014.8 852.5c8.2 0 8.2-12.7 0-12.7s-8.2 12.7 0 12.7zM931.3 874c8.2 0 8.2-12.7 0-12.7-8.2-.1-8.2 12.7 0 12.7zM878.9 909.7c8.2 0 8.2-12.7 0-12.7s-8.2 12.7 0 12.7zM1006.4 896.6c8.2 0 8.2-12.7 0-12.7s-8.2 12.7 0 12.7zM1069.6 802.5c8.2 0 8.2-12.7 0-12.7-8.2-.1-8.2 12.7 0 12.7z"/>
            </g>
            <path d="M1356.2 1350.1c34.3 27.8 19.4 428-30.7 451.5-50.1 23.6-131.6-79.5-131.6-79.5s-170.4 168.5-237.6 175.2c-41.9 4.2-78.5-217.4-78.5-217.4s-137.9 76.3-157 19.6c-37.8-112.1 236.5-452.4 233.4-379.8-2.5 57.4-3.8 517.2 16.4 524.5 31.1 11.1 356.7-517.6 385.6-494.1z" fill="#323232"/>
            <path d="M975.3 1851.3c-2.6 0-4.7-.3-6.4-.8-37.7-11-82.6-128.4-94.5-161.3-22.3 11.7-94.2 46.5-134.8 33.8-11.3-3.6-19.5-10.5-24.4-20.5-15.4-31.9 17.2-108.3 47.3-166.7 35-68 77.2-132.2 96.1-152.7 2.4-2.6 6.4-2.7 9-.4 2.6 2.4 2.7 6.4.4 9-18.5 20-60.7 85-94.2 149.9-40.1 77.8-57.3 134.4-47.2 155.3 3.3 6.9 8.8 11.4 16.8 13.9 42.2 13.3 130.5-35.8 131.4-36.3 1.6-.9 3.6-1.1 5.4-.4s3.1 2.1 3.8 3.9c21 60.2 61.9 152.5 88.5 160.3 5.8 1.7 29.1-.4 119.7-56.5 50.7-31.4 97.7-64.4 98.1-64.7 2.8-1.9 6.6-1.4 8.7 1.3 21.8 27.6 86.6 95.2 123.8 77.7 8.6-4 29.5-29.9 38.8-182.6 5.4-88 4.5-179.2 3.5-202.5-.1-3.5 2.6-6.5 6.1-6.6 3.5-.2 6.5 2.6 6.6 6.1.9 23.4 1.9 115.2-3.5 203.7-3.1 51.1-7.8 92.8-14 124-8.1 40.9-18.3 62.9-32.1 69.4-6 2.8-12.3 4.1-18.7 4.1-45.9 0-101.7-62.7-116.7-80.7-13.4 9.3-52.4 36.1-93.9 61.7-79.3 48.9-109.6 58.6-123.6 58.6z" fill="#fcfdff"/>
            <path d="M1335.8 1363.8c-44.5 111.5-90.3 222.4-137.5 332.8-3.2 7.5 7.8 14 11 6.4 47.6-111.4 93.9-223.4 138.8-335.9 3-7.5-9.3-10.9-12.3-3.3zM895 1641.5c5.9-51.7 10.7-103.7 18.2-155.2 7.4-50.8 20.3-100.7 34.9-149.9 2.3-7.9-10-11.2-12.3-3.4-15 50.5-28.1 101.7-35.5 153.9-7.2 51.3-12.2 103-18.1 154.5-.9 8.3 11.8 8.2 12.8.1z" fill="#fcfdff"/>
            <ellipse cx="1274.6" cy="827.6" fill="#ffeee6" rx="17" ry="18.1"/>
            <path d="M814.5 783.2h-.6c-3.2-.3-5.6-3.2-5.3-6.5.2-2 5.9-50 62.4-66.7 45.9-13.6 81 10 93.1 19.8l27-28.6c2.2-2.4 6-2.5 8.3-.2 2.4 2.2 2.5 6 .2 8.3l-31 32.7c-1.1 1.2-2.6 1.8-4.2 1.8-1.6-.1-3.1-.6-4.3-1.7-1.5-1.4-36.7-35.4-85.9-20.9-49 14.5-54 56.2-54 56.6-.1 3.2-2.7 5.4-5.7 5.4z" fill="#323232"/>
            <path d="M931.3 721.6c-1 0-2-.3-2.9-.8-2.8-1.6-3.8-5.2-2.2-8.1l18.9-32.8c1.6-2.8 5.2-3.8 8.1-2.2 2.8 1.6 3.8 5.2 2.2 8.1l-18.9 32.8c-1.1 1.9-3.1 3-5.2 3zM901 712.3c-.3 0-.7 0-1-.1-3.2-.6-5.4-3.6-4.8-6.8l5.6-32.1c.6-3.2 3.7-5.3 6.8-4.8 3.2.6 5.4 3.6 4.8 6.8l-5.6 32.1c-.5 2.9-3 4.9-5.8 4.9z" fill="#323232"/>
            <ellipse cx="918.5" cy="751.4" fill="#323232" rx="29.7" ry="38.6" transform="rotate(-3.19 918.505 751.45) scale(1.00005)"/>
            <path d="M573.8 833.5c-.8 0-1.6-.2-2.4-.5l-34.2-15.1c-3-1.3-4.3-4.8-3-7.8s4.8-4.3 7.8-3l27.9 12.3c4.1-12.1 15.9-35.8 47.8-42.3 42.3-8.7 68.4 26.4 69.5 27.9 1.9 2.6 1.3 6.3-1.3 8.2s-6.3 1.3-8.2-1.3c-.9-1.2-22.8-30.4-57.5-23.3s-40.4 39.6-40.4 39.9c-.3 1.8-1.4 3.4-3 4.2-1.1.5-2 .8-3 .8z" fill="#323232"/>
            <path d="M588 805.9c-1.2 0-2.3-.3-3.4-1.1l-30.3-21.2c-2.7-1.9-3.3-5.6-1.5-8.2 1.9-2.7 5.6-3.3 8.2-1.5l30.3 21.2c2.7 1.9 3.3 5.6 1.5 8.2-1.1 1.7-3 2.6-4.8 2.6zM608.5 791.8c-1.8 0-3.6-.8-4.7-2.4l-20.6-27.7c-1.9-2.6-1.4-6.3 1.2-8.3 2.6-1.9 6.3-1.4 8.3 1.2l20.6 27.7c1.9 2.6 1.4 6.3-1.2 8.3-1.1.8-2.3 1.2-3.6 1.2z" fill="#323232"/>
            <ellipse cx="643.6" cy="816.3" fill="#323232" rx="26.7" ry="34.8" transform="rotate(-3.19 643.578 816.316) scale(1.00005)"/>
        </g>
     
</svg>
