<svg xmlns="http://www.w3.org/2000/svg" data-name="Layer 2" viewBox="0 0 362.306 402.3"><g data-name="Layer 1"><path d="m148.5,263.6c-12.4-2.4-23.7-2.1-33.8,1.1-7,2.5-12.4,4.1-16.4,4.9l-12.9,6.7c-8.6,5.8-12.5,9.5-11.6,11.2-.7,1.8-1.1,3.7-1.3,5.6l-.8,19.8c-.1.8-.6,1.6-1.5,2.4.1.6-3.4,2.3-10.5,5-8.1,1.4-17.3,3.6-27.4,6.6-4.2,2.4-8.4,4.2-12.7,5.5l-11.8,7.9c-.9.9-2.4,4.5-4.4,11-.4,1.4-.7,4.8-.9,10.2,1.3,5,1.7,10.7,1,17.1,0,1,1.7,1,5.1.1,51.6-13.9,94.2-34.9,128-63.2l11.9-51.9Z"/><path d="m42,358c-28.9,1.7-42.1,13-39.6,33.9.7,1.2,7.6,2.3,20.7,3.3,1.6.9,19.9.7,55-.6l8.9,1.1c11.8-25.9,17.3-39.4,16.7-40.4,2.5-10,3.5-21.9,2.8-35.7l-64.5,38.4Z"/><path d="m91.2,380.1c-9.9-1.4-18.8,0-26.8,4.1-5,4.1-2.8,7.9,6.5,11.3l11,2,36.8,3c4-.7,15.6-.4,34.6.9.7.1,3-.4,6.8-1.5,1.5-.9,2.5-4.7,3-11.5-.1-7-.7-16.6-1.8-29,.6-8.6.7-14,.3-16.3.1-1.8-.5-2.9-1.7-3.5-2.9-1.2-7.2-2.2-13-3l-13-5.7c-1.3-.6-2.6-1.4-4-2.3-2.7-3.1-4.9-5.1-6.7-6-.5-.6-2.2-1.2-4.8-1.8-3-.9-7.3-1-12.8-.3-5.4,1.2-10.9,3.7-16.6,7.4l2.2,52.2Z"/><path d="m97.7,345.7c2.2-11.3,6.6-17.2,13.2-17.7,5.3-.3,9.5,0,12.7.8,8.3,3.8,17.5,7.5,27.7,11.2,5.8.7,11.2,1.8,16.2,3.1,1.4.3,3,.4,4.8.4,2.4.2,8-.3,16.9-1.4,4.3-1.1,8.5-1.9,12.5-2.4.4.4,5.8-2.3,16.4-8.1,2-.8,5.5-1.7,10.6-2.8.9-.2,2.1-.8,3.4-1.7.4-.1.8.1,1.2.5,10.5,15.3,9.3,27.3-3.3,35.9-9,5.8-19.4,10.1-31.3,13-4.5,1.3-10.2,2.6-17.2,3.9-10.5,1.6-20.6,3.5-30.2,5.6-3.5.6-6.4.9-8.7,1l-44.9-41.3Z"/><path d="m185.3,367.2c-1.8-3.8-7.3-4.9-16.5-3.2-7.9,1.7-14.2,5-18.8,9.9-8.5,9.4-5.9,17.5,7.5,24.4l20.3,2.6,17.4.4,26.1-2.7,15.7.8c9.6-.3,17.7-.9,24.1-2,4.5.2,14.9-.2,31-1.2,2.5-.1,4.3-.5,5.4-1,4.7-2.4,6.1-13.6,4.3-33.7-6.1-18.8-12.8-30.7-20.1-35.7l-96.4,41.4Z"/><path d="m222.6,349.1c-1.5-5.7-.8-10.6,2.1-14.9,1.9-2.9,9.7-11.7,23.5-26.3,1.3-1.3,3.1-2,5.4-2l12.3,2,9.7,2.2c10.3,4.5,19.3,7.5,27,9.1,4.7,2.2,7.1,4.3,6.9,6.2.1,4.4-2.4,8.9-7.4,13.3-.8,1.5-10.5,8.4-29.1,20.9l-50.4-10.5Z"/><path d="m289.9,334.3c1.6-4.1,4.3-7.3,8.2-9.7,1.8-1.5,4.4-2.1,7.9-1.9,9.8,1.9,14.7,3,14.7,3.3,5.7,2.1,11.3,4.6,16.7,7.7,5.2,1.4,10.4,3.4,15.6,6,2.9,2.5,5.1,7,6.6,13.5,1.2,8.7,1.8,14,1.8,16.1l-1.9,10.9c0,2.7.3,6.2.8,10.5-.7,1.9-2.6,3.2-5.7,3.9-2.4,0-6.8-.3-13.2-.9l-38.6,3.1c-7.4-1.2-13.9-1.1-19.3.2l6.4-62.7Z"/><path d="m271.6,325.3c6.8.7,12.2-3.2,16.2-11.9,1.5-3.4,2.1-6.8,1.9-10.2l-1.5-11.5c-.3-1.5-.8-2.9-1.5-4-2.5-5.9-7-10.1-13.6-12.7l-11.6-4.8c-17.1-4.6-25.5-6.5-25-5.8-3.2-.2-6.8,1.2-10.6,4.4-1.7,2.1-2.9,6.2-3.6,12.4-.6,6-.2,12.4,1.3,19.2.4,2,1.1,4.7,2.2,8,3.9,10,5.7,15.1,5.4,15.4l40.4,1.5Z"/><path d="m98.5,139.8c-5.8-5.2-10.3-13.2-13.5-24-2.5-11.4-2.8-24.2-.7-38.4.4-2.7,2.5-10.6,6.4-23.7.8-2.8,3.6-8.4,8.5-16.8,1.5-4,7.4-9.4,17.9-16.2,2.9-.1,6.7,8.1,11.3,24.7.4,1.2,1.8,7.7,4.2,19.5,4.3,16.1,6.9,27.3,8,33.5,3.3,17.4,4.9,28,4.9,31.6l-47,9.8Z"/><path d="m104.5,49.6c-5.4-7.8-1.7-18.5,11.1-32.2,3.5-5.4,14.5-10.1,33.2-14.1l18.2-1.1,21.6,7.9c7.9-1.2,15.6-.9,23.1.8,11.8,4.2,18.9,8.6,21.5,13.1,2.5,1.4-1.2,8.5-11,21.4-.7,1.8-11.4,12.6-32,32.4l-29.5,33.5c-11.5,11.5-21.7,16.7-30.7,15.7l-25.5-77.4Z"/><path d="m205.5,20.8c9.8-4,21.5-2.6,35.1,4.4,3.1-.7,12,9.4,26.6,30.1,3.8,9.3,5.4,14.1,4.9,14.5,1.9,12.1,2.6,23.4,2,33.8-1.7,13.2-6,27.8-12.8,43.7-.3.6-1.4.4-3.5-.5-16.1-8.4-24.5-12.4-25-12.2-15.3-4.1-31.2-9.5-47.7-16-14.1-5.3-31.6-13.1-52.5-23.3L205.5,20.8Z"/><path fill="#fefefe" d="m131.2,227.7c-1,1.1-1.6,3.9-2,8.5l1,21.7c-.7,22.4-1.4,33.3-2.2,32.8-1.5,4.1-2.4,7-2.8,8.8-.7,1.1-1.8,2.1-3.1,3.2-.3,1.6-4.6,2.4-13,2.3-.5.2-.7.5-.6,1.1s.7,1.7,2,3.2c.6.8,3.2,3.4,7.9,7.5,5.4,7.2,8.1,10.4,8,9.7,12.8,8.9,19.8,12.8,20.9,11.7,7.5.9,14.5-6.1,21-21,1.7-5.5,2.8-12.4,3.3-20.8-.2-18.8,0-28.2.5-28.2,1.3-6.7,4.2-18.5,8.7-35.3l-49.6-5.2Z"/><path fill="#fefefe" d="m141.1,325.1c4.9,8.5,9.3,13.8,13.3,16.1,2.7,1.2,5.7,2,8.9,2.4,11.3,1.1,17.8,1.3,19.4.7,14.2-3.1,21.4-4.9,21.7-5.5l24.3-11.4c4.4-2.5,9.5-7.5,15.4-14.9,3.6-5.1,4.5-7.6,2.7-7.7-.4-.4-.9-.7-1.4-.8-3.7-.1-5.5-.3-5.5-.8-.9-.3-3.2-3.1-7.1-8.4-1.6-1.3-4.5-2.8-8.8-4.6-5-2-11.4-3.4-19.4-4.1-20.6-1.7-31.1-2.1-31.7-1.2l-31.8,40.2Z"/><path fill="#fefefe" d="m214.1,307.6c12.6,3.7,19.9,2.3,21.8-4.4.7-4.2,1-7.6.8-10.1-2.7-12.5-4.2-21.8-4.7-27.8l-.9-34.5c0-.4-.2-.6-.5-.5-1.9,2.8-12.6,8.3-31.9,16.6-5.8,1.2-12.1,3-19,5.4-.5.8-3.7.2-9.5-1.9-.6-.1-1.2.2-1.8.7-.5.6-1,1.8-1.5,3.5l-11.7,38.9c-1.6,5.2-2.5,11.4-2.8,18.6l61.7-4.5Z"/><path fill="#fefefe" d="m143.7,239.4c-16.1-12.9-26.5-23.5-31.3-31.9-4.8-8.1-8.1-14.7-9.8-19.8l-2.3-8.1-2.8-16.5c-.1-.7-.4-1.2-.6-1.5-.3-.5-.9-.7-1.7-.5-4,2.1-6.7,3-8.2,2.6-3.3-.4-5.6-1.7-6.9-3.8-5.5-10.9-7.1-19.4-4.6-25.5,1.9-3.4,5-5.8,9.5-7.2,3,1,6.3,3.6,9.9,7.6.8.4,1.7,0,2.9-1.2.4-.4.6-1.3.7-2.6-.8-4.4-1-9-.8-13.9l1.4-16.6c4-.2,9-1.6,15-4.2.5-.6.9-1.2,1-2-.2-3.4.1-6,.8-7.8,1.9-5,3-7,3.4-6.1.9,1,2.8,5.8,5.5,14.3.2,1,3.1,2.5,8.8,4.3,2,2.1,3.6,4.6,4.6,7.8,7.3,25.2,14.9,55.7,22.8,91.4l-17.3,41.2Z"/><path fill="#fefefe" d="m132.3,106.7c-3-2.8-3.3-5.5-.8-7.9.7-.4,2-.7,4-.8,6,.9,9.8,1.2,11.6.8,1.3-.1,2-.6,1.9-1.6.1-1-.1-1.9-.5-2.8-6.1-9.3-9.5-16-10.2-20.2-.6-1.8-.8-7-.7-15.6,0-1.5.6-3.6,1.7-6.2l5.4-11.1c3.8-5.3,6.8-8.9,8.9-10.8,1.3-1.3,4.6-.2,10,3.3l5.6,6.8c2,2.7,3.4,5.8,4.3,9.3.3,1,.5,1.9.5,2.8v5.9c.9,10.2,1.3,16.5,1.2,18.9.1,3.8-.3,8.4-1.3,13.9-.2,2.1-2,10.2-5.4,24.5-1.3,8.1-2.7,16.2-4.2,24.2l-32-33.4Z"/><path fill="#fefefe" d="m168.4,60.2c.9-1.2,3.3-3.7,7.3-7.5l4.9-6c1.6-1.7,3.5-3.3,5.8-4.9,2.8-1.9,5.6-3.1,8.4-3.5,1.3-.4,2.9-.1,5,.8,1.8.7,3.5,2.3,5.4,4.9,4.5,6.7,7.3,11.7,8.5,14.9,1.9,4,2,11.5.2,22.5-1,2.9-3.6,5.3-7.8,7.3-8.3,3.9-15,6-20.1,6.5-5.3.6-9.4.3-12.3-.9-5.8-2-9.9-4.6-12.2-7.7l6.9-26.4Z"/><path fill="#fefefe" d="m205.1,77c3.5-.4,5.8.9,6.7,4.1,1,2.1-.1,5.8-3.2,11-.1.5.1,1.1.6,1.8,2.3,1.9,6.2,3.1,11.6,3.4,2.7.1,5.3-1.2,8-4,2.8-4.8,5.4-8.7,7.8-11.9l2.2-4.6c2.1,8.2.8,15.1-3.9,20.7l14.2-.6,8.9,1.6c3.8,1.4,6.3,3.8,7.6,7.3.2,25.7-1,43.7-3.8,54-7.4,3.2-20-.5-37.7-11.3l-19-71.5Z"/><path fill="#fefefe" d="m256.4,141.2c5.2-1,7.9-1.6,8.1-1.9.7-.1,3.3-1.7,7.7-4.8.8-.5,1.7-.8,3-1.1,4.5-1.1,7.6-.6,9.5,1.6,3,4,3.8,8.9,2.6,14.7-1.4,6-4.5,11.1-9.2,15.3-1.5,1.2-4.4,2.2-8.8,3-1.8.4-3.8.2-6-.6-9.4-3.8-16.1-9.5-20.4-17.1l13.5-9.1Z"/><path fill="#fefefe" d="m250.6,146.8c5.7.4,9.9,4.5,12.5,12.3.7,8.4.6,14-.3,16.5l-5.8,15.6c-5.4,10.6-11.7,20.3-18.7,29.3-8,8.3-14.9,16.1-20.7,23.3-9.4,9.9-15.3,13.2-17.7,10.1-2.7-5.7-4.6-18.4-5.7-38-1.6-22.5-1.4-38.9.7-49.1,2.4-16.5,6.4-32.4,11.9-47.7,3.2-7.5,8.1-12.6,14.7-15.3l29.1,43Z"/><path fill="#fefefe" d="m181.3,80.3c4.9-3.3,10.6-3.8,17.1-1.6,2,.4,5,2.4,9,5.8,1.2,1.1,2.2,2.8,2.8,5.1.2-.3.9,4.6,2.2,14.8l3.6,15.2c.4,2.2.6,4.8.6,7.6-1.2,14.5-4.6,29-10,43.6-.6,1.1-1.6.7-2.9-1.2-4.1-6.4-18.5-24.4-43.1-54.1l20.7-35.2Z"/><path fill="#fefefe" d="m208.1,123.8c3.6-.9,6-2.7,7.3-5.5,1.7-3.6,1.8-7,.2-10.3-2.2-4-5.2-6.3-9.1-6.9-2.9-.4-5,1.5-6.3,5.7l7.9,17Z"/><path fill="#fefefe" d="m167.1,105.9c-3.1-1.9-11.5-.7-25.3,3.5-4.7,1.5-7.8,4.6-9.2,9.3-.8,2.3-1.1,5.2-.8,8.9,3.8,15.9,5.6,27.5,5.2,34.9-.3,9.1-1.7,20-4,32.7-.4,5-.5,8.7-.3,11.3,6.2,23.9,13.3,41.8,21.1,53.5,4.9,8.5,14.4,14.3,28.5,17.4,12.2,1,22.3-2.8,30.2-11.4,8-9.5,13.2-20.7,15.6-33.7,2.3-14.9.3-40.3-6-76.2-5.5-25.4-10.5-40-15.1-44l-39.9-6.2Z"/><path d="m265,171.5h0l-1.1,5.9v.1h0l-1.5,5.8v.1h0l-1.8,5.7s0,.1-.1.1h0l-2.2,5.6s0,.1-.1.1h0l-2.5,5.4s0,.1-.1.1h0l-2.8,5.3s0,.1-.1.1h0l-3.2,5.1-.1.1h0l-3.5,4.9-.1.1h0l-3.7,4.7-.1.1h0l-4,4.4-.1.1h0l-4.1,4-.1.1h0l-4.3,3.8-.1.1h0l-4.5,3.5-.1.1h0l-4.7,3.2-.1.1h0l-4.9,3s-.1,0-.1.1h0l-5.1,2.7s-.1,0-.1.1h0l-5.2,2.4s-.1,0-.1.1h0l-5.3,2.1h-.1l-5.5,1.7h-.1l-5.5,1.4h-.1l-5.6,1.1c-1.4.3-2.7-.6-3-2s.6-2.7,2-3h0l5.6-1.1h-.1l5.5-1.4h-.1l5.5-1.7h-.1l5.3-2.1-.1.1,5.2-2.4-.1.1,5.1-2.7-.1.1,4.9-3-.1.1,4.7-3.2-.1.1,4.5-3.5-.1.1,4.3-3.8-.1.1,4.1-4-.1.1,4-4.4-.1.1,3.7-4.7-.1.1,3.5-4.9-.1.1,3.2-5.1-.1.1,2.8-5.3-.1.1,2.5-5.4-.1.1,2.2-5.6-.1.1,1.8-5.7v.1l1.5-5.8v.1l1.1-5.9c.3-1.4,1.6-2.3,3-2s1.9,2.3,1.6,3.6Z"/><path d="m96.7,171.5h0l1.1,5.9v.1h0l1.5,5.8v.1h0l1.8,5.7s0,.1.1.1h0l2.2,5.6s0,.1.1.1h0l2.5,5.4s0,.1.1.1h0l2.8,5.3s0,.1.1.1h0l3.2,5.1.1.1h0l3.5,4.9.1.1h0l3.7,4.7.1.1h0l4,4.4.1.1h0l4.1,4,.1.1h0l4.3,3.8.1.1h0l4.5,3.5.1.1h0l4.7,3.2.1.1h0l4.9,3s.1,0,.1.1h0l5.1,2.7s.1,0,.1.1h0l5.2,2.4s.1,0,.1.1h0l5.3,2.1h.1l5.5,1.7h.1l5.5,1.4h.1l5.6,1.1c1.4.3,2.7-.6,3-2s-.6-2.7-2-3h0l-5.6-1.1h.1l-5.5-1.4h.1l-5.5-1.7h.1l-5.3-2.1.1.1-5.2-2.4.1.1-5.1-2.7.1.1-4.9-3,.1.1-4.7-3.2.1.1-4.5-3.5.1.1-4.3-3.8.1.1-4.1-4,.1.1-4-4.4.1.1-3.7-4.7.1.1-3.5-4.9.1.1-3.2-5.1.1.1-2.8-5.3.1.1-2.5-5.4.1.1-2.2-5.6.1.1-1.8-5.7v.1l-1.5-5.8v.1l-1.1-5.9c-.3-1.4-1.6-2.3-3-2s-1.9,2.3-1.6,3.6Z"/><path d="m266,91.5h0l.3,7.8h0l.2,7.8h0l.1,7.8h0v7.8h0l-.1,7.8h0l-.1,7.9h0l-.2,7.9h0l-.3,7.9h0l-.4,7.9h0l-.5,7.8c-.1,1.4-1.3,2.4-2.7,2.4s-2.4-1.3-2.4-2.7h0l.5-7.8h0l.4-7.9h0l.3-7.9h0l.2-7.9h0l.1-7.9h0l.1-7.8h0v-7.8h0l-.1-7.8h0l-.2-7.8h0l-.3-7.8c0-1.4,1-2.6,2.4-2.6s2.7,1.6,2.7,2.9Z"/><path d="m95.7,91.5h0l-.3,7.8h0l-.2,7.8h0l-.1,7.8h0v7.8h0l.1,7.8h0l.1,7.9h0l.2,7.9h0l.3,7.9h0l.4,7.9h0l.5,7.8c.1,1.4,1.3,2.4,2.7,2.4,1.4-.1,2.4-1.3,2.4-2.7h0l-.5-7.8h0l-.4-7.9h0l-.3-7.9h0l-.2-7.9h0l-.1-7.9h0l-.1-7.8h0v-7.8h0l.1-7.8h0l.2-7.8h0l.3-7.8c0-1.4-1-2.6-2.4-2.6s-2.6,1.6-2.7,2.9Z"/><path d="m234.5,228.6h0l-.2,6.7v-.1l-.1,6.7v-.1l.1,6.7v-.1l.2,6.7v-.1l.3,6.7v-.1l.5,6.9v-.1l.6,6.9v-.1l.8,6.9v-.1l.9,6.9v-.1l1,6.8v-.1l1.2,6.8c.2,1.4-.7,2.7-2.1,2.9s-2.7-.7-2.9-2.1h0l-1.2-6.8v-.1l-1-6.8v-.1l-.9-6.9v-.1l-.8-6.9v-.1l-.6-6.9v-.1l-.5-6.9v-.1l-.3-6.7v-.1l-.2-6.7v-.1l-.1-6.7v-.1l.1-6.7v-.1l.2-6.7c0-1.4,1.2-2.5,2.6-2.5s2.4,2.3,2.4,3.7Z"/><path d="m127.7,228.6h0l.2,6.7v-.1l.1,6.7v-.1l-.1,6.7v-.1l-.2,6.7v-.1l-.3,7.1v-.1l-.5,6.9v-.1l-.6,6.9v-.1l-.8,6.9v-.1l-.9,6.9v-.1l-1,6.8v-.1l-1.2,6.8c-.2,1.4.7,2.7,2.1,2.9s2.7-.7,2.9-2.1h0l1.2-6.8v-.1l1-6.8v-.1l.9-6.9v-.1l.8-6.9v-.1l.6-6.9v-.1l.5-6.9v-.1l.3-6.7v-.1l.2-6.7v-.1l.1-6.7v-.1l-.1-6.7v-.1l-.2-6.7c0-1.4-1.2-2.5-2.6-2.5s-2.4,1.9-2.4,3.3Z"/><path d="m237.7,300.9h0l9.2,1.6h0l9.1,1.8h0l9.1,2h0l9.1,2.1h0l9,2.3h.1l11.6,3.2h.1l11.5,3.5h.1l11.4,3.8h.1l11.3,4h.1l11.2,4.3h.1l11.1,4.6c1.3.5,1.9,2,1.4,3.3s-2,1.9-3.3,1.4h0l-11.1-4.6h.1l-11.2-4.3h.1l-11.3-4h.1l-11.4-3.8h.1l-11.5-3.5h.1l-11.6-3.2h.1l-9-2.3h0l-9.1-2.1h0l-9.1-2h0l-9.1-1.8h0l-9.2-1.6c-1.4-.2-2.3-1.6-2.1-3s1.4-1.9,2.8-1.7Z"/><path d="m124.5,300.9h0l-9.2,1.6h0l-9.1,1.8h0l-9.1,2h0l-9.1,2.1h0l-9,2.3h-.1l-11.6,3.2h-.1l-11.5,3.5h-.1l-11.4,3.8h-.1l-11.3,4h-.1l-11.2,4.3h-.1l-11.1,4.6c-1.3.5-1.9,2-1.4,3.3s2,1.9,3.3,1.4h0l11.1-4.6h-.1l11.2-4.3h-.1l11.3-4h-.1l11.4-3.8h-.1l11.5-3.5h-.1l11.6-3.2h-.1l9-2.3h0l9.1-2.1h0l9.1-2h0l9.1-1.8h0l9.2-1.6c1.4-.2,2.3-1.6,2.1-3s-1.5-1.9-2.8-1.7Z"/><path d="m352.6,334.6h0l.7.5.1.1.7.5.1.1.6.6.1.1.6.6.1.1.6.6.1.1.6.7.1.1.5.7.1.1.5.7.1.1.5.7.1.1.4.8s0,.1.1.1h0l.4.8.1.1.4.8v.1h0l.3.8v.1l.3.9v.1l.2.9v.1h0l.2.9v.1h0l.2.9v.1l.1.9c.2,1.4-.8,2.7-2.2,2.8s-2.7-.8-2.8-2.2h0l-.1-.9v.1l-.2-.9v.1l-.2-.9v.1l-.2-.9v.1l-.3-.9v.1l-.3-.8v.1l-.4-.8.1.1-.4-.8.1.1-.4-.8.1.1-.5-.7.1.1-.5-.7.1.1-.5-.7.1.1-.6-.7.1.1-.6-.6.1.1-.6-.6.1.1-.6-.6.1.1-.7-.5.1.1-.7-.5c-1.1-.8-1.4-2.4-.5-3.6s2.101-1.199,3.301-.399Z"/><path d="m9.6,334.6h0l-.7.5-.1.1-.7.5-.1.1-.6.6-.1.1-.6.6-.1.1-.6.6-.1.1-.6.7-.1.1-.5.7-.1.1-.5.7-.1.1-.5.7-.1.1-.4.8s0,.1-.1.1h0l-.4.8-.1.1-.4.8v.1h0l-.3.8v.1l-.3.9v.1l-.2.9v.1h0l-.2.9v.1h0l-.2.9v.1l-.1.9c-.2,1.4.8,2.7,2.2,2.8,1.4.2,2.7-.8,2.8-2.2h0l.1-.9v.1l.2-.9v.1l.2-.9v.1l.2-.9v.1l.3-.9v.1l.3-.8v.1l.4-.8-.1.1.4-.8-.1.1.4-.8-.1.1.5-.7v.401s.5-.7.5-.7l-.1.1.5-.7-.1.1.6-.7-.1.1.6-.6-.1.1.6-.6-.1.1.6-.6-.1.1.7-.5-.1.1.7-.5c1.1-.8,1.4-2.4.5-3.6s-2.3-1.5-3.4-.7Z"/><path d="m361.3,350.2h0l.3,4.7h0l.2,4.7h0l.2,4.7h0l.1,4.7h0l.1,4.7h0v3.8h0v3.8h0l-.1,3.8h0l-.1,3.8h0l-.1,3.8c0,1.4-1.2,2.5-2.6,2.5s-2.5-1.2-2.5-2.6h0l.1-3.8h0l.1-3.8h0l.1-3.8h0v-3.8h0v-3.8h0l-.1-4.7h0l-.1-4.7h0l-.2-4.7h0l-.2-4.7h0l-.3-4.7c-.1-1.4,1-2.6,2.4-2.7,1.4.3,2.6,1.4,2.7,2.8Z"/><path d="m.9,350.2h0l-.3,4.7h0l-.2,4.7H.4l-.2,4.7H.2l-.1,4.7H.1l-.1,4.7h0v3.8h0v3.8h0l.1,3.8H.1l.1,3.8H.2l.1,3.8c0,1.4,1.2,2.5,2.6,2.5s2.5-1.2,2.5-2.6h0l-.1-3.8h0l-.1-3.8h0l-.1-3.8h0v-3.8h0v-3.8h0l.1-4.7h0l.1-4.7h0l.2-4.7h0l.2-4.7h0l.3-4.7c.1-1.4-1-2.6-2.4-2.7s-2.6,1.4-2.7,2.8Z"/><path d="m197.3,114.3h0l3.1-.7h.1l3.1-.6h.1l3.1-.5h.1l3.2-.4h.1l3.2-.3h.1l3.2-.2h.1l3.2-.1h3.4l3.2.1h.1l3.1.2h.1l3.1.3h.1l3.1.4h.1l3.1.5h.1l3.1.6c1.4.3,2.3,1.6,2,3s-1.6,2.3-3,2h0l-3.1-.6h.1l-3.1-.5h.1l-3.1-.4h.1l-3.1-.3h.1l-3.1-.2h.1l-3.2-.1h.1-3.2.1l-3.2.1h.1l-3.2.2h.1l-3.2.3h.1l-3.2.4h.1l-3.1.5h.1l-3.1.6h.1l-3.1.7c-1.4.3-2.7-.6-3-1.9s0-2.8,1.4-3.1Z"/><path d="m166.3,114.3h0l-3.1-.7h-.1l-3.1-.6h-.1l-3.1-.5h-.1l-3.2-.4h-.1l-3.2-.3h-.1l-3.2-.2h-.1l-3.2-.1h-3.4l-3.2.1h-.1l-3.1.2h-.1l-3.1.3h-.1l-3.1.4h-.1l-3.1.5h-.1l-3.1.6c-1.4.3-2.3,1.6-2,3s1.6,2.3,3,2h0l3.1-.6h-.1l3.1-.5h-.1l3.1-.4h-.1l3.1-.3h-.1l3.1-.2h-.1l3.2-.1h-.1,3.2-.1l3.2.1h-.1l3.2.2h-.1l3.2.3h-.1l3.2.4h-.1l3.1.5h-.1l3.1.6h-.1l3.1.7c1.4.3,2.7-.6,3-1.9.8-1.5-.1-2.8-1.4-3.1Z"/><path d="m203.7,126.9h0l2.5-.4h0l2.5-.4h0l2.5-.3h0l2.5-.3h0l2.5-.2h0l2.5-.1h0l2.5-.1h2.5l2.5.1h0l2.5.1c.9,0,1.7,1.2,1.6,2.6,0,1.4-.8,2.5-1.8,2.5h0l-2.5-.1h0l-2.5-.1h-2.5l-2.5.1h0l-2.5.1h0l-2.5.2h0l-2.5.3h0l-2.5.3h0l-2.5.4h0l-2.5.4c-.9.2-1.8-.8-1.9-2.2.5-1.5,1.2-2.8,2.1-2.9Z"/><path d="m155.5,126.9h0l-2.5-.4h0l-2.5-.4h0l-2.5-.3h0l-2.5-.3h0l-2.5-.2h0l-2.5-.1h0l-2.5-.1h-2.5l-2.5.1h0l-2.5.1c-.9,0-1.7,1.2-1.7,2.6s.8,2.5,1.8,2.5h0l2.5-.1h0l2.5-.1h2.5l2.5.1h0l2.5.1h0l2.5.2h0l2.5.3h0l2.5.3h0l2.5.4h0l2.5.4c.9.2,1.8-.8,1.9-2.2-.4-1.5-1-2.8-2-2.9Z"/><path d="m224,130h0l-.2.3.1-.2-.2.3.1-.2-.2.3.1-.2-.1.4.1-.2-.1.4.1-.2-.1.4v-.2l-.1.4v-.2.4-.2.4-.2.4-.2l.1.4-.1-.2.1.4-.1-.2.1.4-.1-.2.2.3-.1-.2.2.3-.1-.2.2.3-.1-.2.3.3-.2-.2.3.3-.2-.1.3.2-.2-.1.3.2-.2-.1.3.2-.2-.1.4.2-.2-.1.4.1-.2-.1.4.1h-.2l.4.1h-.2.4-.2.4-.2.4-.2l.4-.1-.2.1.4-.1-.2.1.4-.1-.2.1.3-.2-.2.1.3-.2-.2.1.3-.2-.2.1.3-.3-.2.2.3-.3-.1.2.2-.3-.1.2.2-.3-.1.2.2-.3-.1.2.2-.4-.1.2.1-.4-.1.2.1-.4v.2l.1-.4v.2-.4.2-.4.2-.4.2l-.1-.4.1.2-.1-.4.1.2-.1-.4.1.2-.2-.3.1.2-.2-.3.1.2-.2-.3.1.2-.3-.3.2.2-.3-.3c-1-1-1.1-2.6-.1-3.6s2.6-1.1,3.6-.1h0l.3.3.2.2h0l.3.3c0,.1.1.1.1.2h0l.2.3c0,.1.1.1.1.2h0l.2.3c0,.1.1.1.1.2h0l.2.3c0,.1.1.1.1.2h0l.1.4c0,.1.1.1.1.2h0l.1.4q0,.1.1.2h0l.1.4v.2h0v.6h0v.6h0v.6h0l-.1.4v.2h0l-.1.4q0,.1-.1.2h0l-.1.4q0,.1-.1.2h0l-.2.4c0,.1-.1.1-.1.2h0l-.2.3c0,.1-.1.1-.1.2h0l-.2.3c0,.1-.1.1-.1.2h0l-.2.3c0,.1-.1.1-.1.2h0l-.3.3-.2.2h0l-.3.3c-.1,0-.1.1-.2.1h0l-.3.2c-.1,0-.1.1-.2.1h0l-.3.2c-.1,0-.1.1-.2.1h0l-.3.2c-.1,0-.1.1-.2.1h0l-.4.1c-.1,0-.1.1-.2.1h0l-.4.1q-.1,0-.2.1h0l-.4.1h-2l-.4-.1h-.2l-.4-.1q-.1,0-.2-.1h0l-.4-.1q-.1,0-.2-.1h0l-.4-.2c-.1,0-.1-.1-.2-.1h0l-.3-.2c-.1,0-.1-.1-.2-.1h0l-.5-.4c-.1,0-.1-.1-.2-.1h0l-.3-.2c-.1,0-.1-.1-.2-.1h0l-.3-.3-.2-.2h0l-.3-.3c0-.1-.1-.1-.1-.2h0l-.2-.3c0-.1-.1-.1-.1-.2h0l-.2-.3c0-.1-.1-.1-.1-.2h0l-.2-.3c0-.1-.1-.1-.1-.2h0l-.1-.4c0-.1-.1-.1-.1-.2h0l-.1-.4q0-.1-.1-.2h0l-.1-.4v-.2h0v-.6h0v-.6h0v-.6h0l.1-.4v-.2h0l.1-.4q0-.1.1-.2h0l.1-.4q0-.1.1-.2h0l.1-.4c0-.1.1-.1.1-.2h0l.2-.3c0-.1.1-.1.1-.2h0l.2-.3c0-.1.1-.1.1-.2h0l.2-.3c.9-1.1,2.4-1.3,3.6-.5s1.3,2.5.5,3.6Z"/><path d="m150.6,132h0l-.2.3.1-.2-.2.3.1-.2-.2.3.1-.2-.1.4.1-.2-.1.4.1-.2-.1.4v-.2l-.1.4v-.2.4-.2.4-.2.4-.2l.1.4-.1-.2.1.4-.1-.2.1.4-.1-.2.2.3-.1-.2.2.3-.1-.2.2.3-.1-.2.3.3-.2-.2.3.3-.2-.1.3.2-.2-.1.3.2-.2-.1.3.2-.2-.1.4.2-.2-.1.4.1-.1-.3.4.1h-.2l.4.1h-.2.4-.2.4-.2.4-.2l.4-.1-.4-.1.4-.1-.2.1.4-.1-.2.1.3-.2-.2.1.3-.2-.2.1.3-.2-.2.1.3-.3-.2.2.3-.3-.1.2.2-.3-.1.2.2-.3-.1.2.2-.3-.1.2.2-.4-.1.2.1-.4-.1.2.1-.4v.2l.1-.4v.2-.4.2-.4.2-.4.2l-.1-.4.1.2-.1-.4.1.2-.1-.4.1.2-.2-.3.1.2-.2-.3.1.2-.2-.3.1.2-.3-.3.2.2-.3-.3c-1-1-1.1-2.6-.1-3.6s2.6-1.1,3.6-.1h0l.3.3.2.2h0l.3.3c0,.1.1.1.1.2h0l.2.3c0,.1.1.1.1.2h0l.2.3c0,.1.1.1.1.2h0l.2.3c0,.1.1.1.1.2h0l.1.4c0,.1.1.1.1.2h0l.1.4q0,.1.1.2h0l.1.4v.2h0v.6h0v.6h0v.6h0l-.1.4v.2h0l-.1.4q0,.1-.1.2h0l-.1.4q0,.1-.1.2h0l-.2.4c0,.1-.1.1-.1.2h0l-.2.3c0,.1-.1.1-.1.2h0l-.2.3c0,.1-.1.1-.1.2h0l-.2.3c0,.1-.1.1-.1.2h0l-.3.3-.2.2h0l-.3.3c-.1,0-.1.1-.2.1h0l-.3.2c-.1,0-.1.1-.2.1h0l-.3.2c-.1,0-.1.1-.2.1h0l-.3.2c-.1,0-.1.1-.2.1h0l-.4.1c-.1,0-.1.1-.2.1h0l-.4.1q-.1,0-.2.1h0l-.4.1h-2l-.4-.1h-.2l-.4-.1q-.1,0-.2-.1h0l-.4-.1q-.1,0-.2-.1h0l-.4-.2c-.1,0-.1-.1-.2-.1h0l-.3-.2c-.1,0-.1-.1-.2-.1h0l-.3-.2c-.1,0-.1-.1-.2-.1h0l-.3-.2c-.1,0-.1-.1-.2-.1h0l-.3-.3-.2-.2h0l-.3-.3c0-.1-.1-.1-.1-.2h0l-.2-.3c0-.1-.1-.1-.1-.2h0l-.2-.3c0-.1-.1-.1-.1-.2h0l-.2-.3c0-.1-.1-.1-.1-.2h0l-.1-.4c0-.1-.1-.1-.1-.2h0l-.1-.4q0-.1-.1-.2h0l-.1-.4v-.2h0v-.6h0v-.6h0v-.6h0l.1-.4v-.2h0l.1-.4q0-.1.1-.2h0l.1-.4q0-.1.1-.2h0l.1-.4c0-.1.1-.1.1-.2h0l.2-.3c0-.1.1-.1.1-.2h0l.2-.3c0-.1.1-.1.1-.2h0l.2-.3c.9-1.1,2.4-1.3,3.6-.5s1.3,2.7.4,3.8Z"/><path d="m187.7,151.5h0l-.2,2.1v.1l-.2,2.1v.1l-.3,2.1v.1l-.4,2v.1l-.4,2v.1l-.5,2v.1l-.6,2v.1l-.6,2v.1l-.7,2v.1l-.8,1.9v.1l-.8,1.9v.1l-.9,1.9c-.6,1.3-2.1,1.8-3.4,1.2s-1.8-2.1-1.2-3.4h0l.9-1.9v.1l.8-1.9v.1l.8-1.9v.1l.7-2v.1l.6-2v.1l.6-2v.1l.5-2v.1l.4-2v.1l.4-2v.1l.3-2.1v.1l.2-2.1v.1l.2-2.1c.1-1.4,1.3-2.4,2.7-2.3s2,.9,1.9,2.3Z"/><path d="m180.7,174.5h0l.4.4h0l.4.4h0l.4.4h0l.4.4h0l.4.4h0l.4.4h0l.4.3h0l.4.3h0l.4.3h0l.4.3c1.1.9,1.2,2.5.3,3.6s-2.5,1.2-3.6.3h0l-.4-.3h0l-.4-.3h0l-.4-.3h0l-.4-.3h0l-.4-.4h0l-.4-.4h0l-.4-.4h0l-.4-.4h0l-.4-.4h0l-.4-.4c-1-1-1-2.6.1-3.6s2.2-1.3,3.2-.3Z"/><path d="m166.3,208.3h0l3.8-1.3h0l3.9-1.2h0l3.9-1.1h0l3.9-1h0l3.9-.9h0l3.9-.8h0l3.9-.7h0l3.9-.6h0l3.9-.5h0l3.9-.4c.8-.1,1.6,1,1.6,2.4.1,1.4-.6,2.6-1.4,2.7h0l-3.9.4h0l-3.9.5h0l-3.9.6h0l-3.9.7h0l-3.9.8h0l-3.9.9h0l-3.9,1h0l-3.9,1.1h0l-3.9,1.2h0l-3.8,1.3c-.8.3-1.6-.6-1.8-2s.8-2.9,1.6-3.1Z"/><path d="m263.2,139.8h0l.7-.9.1-.1h0l.8-.9.1-.1h0l.8-.8.1-.1h0l.9-.8.1-.1h0l.9-.7.1-.1h0l.9-.7s.1,0,.1-.1h0l1-.6s.1,0,.1-.1h0l1-.6s.1,0,.1-.1h0l1-.5.1-.1.9-.4h.1l.9-.4h.1l1-.4h.1l1-.3h.1l1-.3h.1l1-.2h.1l1-.2c1.4-.3,2.7.7,3,2s-.7,2.7-2,3h0l-1,.2h.1l-1,.2h.1l-1,.3h.1l-1,.3h.1l-1,.4h.1l-.9.4h.1l-.9.4.1-.1-1,.5.1-.1-1,.6.1-.1-1,.6.1-.1-.9.7.1-.1-.9.7.1-.1-.9.8.1-.1-.8.8.1-.1-.8.9.1-.1-.7.9c-.9,1.1-2.5,1.2-3.6.3s-1.3-2.4-.4-3.5Z"/><path d="m281.1,130.2h0l.7.2q.1,0,.2.1h0l.7.3q.1,0,.2.1h0l.7.3c.1,0,.1.1.2.1h0l.7.4c.1,0,.1.1.2.1h0l.6.4.1.1h0l.6.5.1.1h0l.6.5.1.1h0l.5.6.1.1h0l.5.6.1.1h0l.4.6s.1.1.1.2h0l.4.7c0,.1.1.1.1.2h0l.3.7c0,.1.1.1.1.2h0l.3.7s0,.1.1.1h0l.2.6v.1h0l.2.6v.1h0l.1.6v.1h0l.1.6v.1h0l.1.6v.1h0v.7h0v.7h0v.7h0l-.1.6v.1h0l-.1.6c-.2,1.4-1.5,2.3-2.9,2.1s-2.3-1.5-2.1-2.9h0l.1-.6v.1l.1-.6v.1-.6.1-.6.1-.6.1l-.1-.6v.1l-.1-.6v.1l-.1-.6v.1l-.2-.6v.1l-.2-.6.1.1-.3-.7.1.2-.3-.7.1.2-.4-.7.1.2-.4-.6.1.1-.5-.6.1.1-.5-.6.1.1-.6-.5.1.1-.6-.5.1.1-.6-.4.2.1-.7-.4.2.1-.7-.3.2.1-.7-.3.2.1-.7-.2c-1.3-.4-2-1.9-1.6-3.2s1.8-1.4,3.2-1Z"/><path d="m290.1,145.7h0l-.2,1.3v.1l-.2,1.3v.1l-.3,1.3v.1l-.3,1.3v.1l-.4,1.3v.1l-.4,1.3v.1l-.5,1.2v.1l-.5,1.1v.1l-.5,1.1v.1l-.6,1.1v.1l-.6,1.1-.1.1-.7,1-.1.1-.7,1-.1.1-.7,1c-.9,1.1-2.4,1.3-3.6.5s-1.3-2.4-.5-3.6h0l.7-1-.1.1.7-1-.1.1.7-1-.1.1.6-1.1v.1l.6-1.1v.1l.5-1.1v.1l.5-1.1v.1l.5-1.2v.1l.4-1.3v.1l.4-1.3v.1l.3-1.3v.1l.3-1.3v.1l.2-1.3v.1l.2-1.3c.2-1.4,1.4-2.4,2.8-2.2s2.1,1.3,1.9,2.7Z"/><path d="m282.7,163.4h0l-.5.7-.1.1h0l-.5.6-.1.1h0l-.6.6-.1.1h0l-.6.6-.1.1h0l-.6.5-.1.1h0l-.7.5-.1.1h0l-.7.4-.1.1h0l-.7.4-.1.1h0l-.8.4s-.1,0-.2.1h0l-.8.3q-.1,0-.2.1h0l-.8.3h-.2l-.8.2h-.2l-.6.2h-.2l-.8.1h-3.2l-.8-.1h-.2l-.8-.1h-.2l-.8-.2h-.1l-.7-.2s-.1,0-.1-.1h0l-.7-.3c-1.3-.5-2-2-1.5-3.3s2-2,3.3-1.5h0l.7.3-.1-.1.7.2h-.1l.8.2h-.2l.8.1h-.2l.8.1h-.2.8-.2.8-.2.8-.2l.8-.1h-.2l.8-.1h-.2l.8-.2h-.2l.8-.3-.2.1.8-.3-.2.1.8-.4-.1.1.7-.4-.1.1.7-.4-.1.1.7-.5-.1.1.6-.5-.1.1.6-.6-.1.1.6-.6-.1.1.5-.6-.1.1.5-.7c.8-1.1,2.4-1.4,3.5-.6s1.7,2.4.9,3.5Z"/><path d="m263.5,150.5h0l.5-.8v-.1l.6-.8.1-.1.6-.8.1-.1.6-.8.1-.1.7-.8.1-.1.7-.7.1-.1.7-.7.1-.1.8-.7.1-.1.8-.7.1-.1.8-.7.1-.1.8-.6.1-.1.9-.6.1-.1.9-.6h.1l.9-.5c1.2-.7,2.8-.3,3.5.9s.3,2.8-.9,3.5h0l-.9.5h.1l-.9.6.1-.1-.9.6.1-.1-.8.6.1-.1-.8.7.1-.1-.8.7.1-.1-.8.7.1-.1-.7.7.1-.1-.7.7.1-.1-.7.8.1-.1-.6.8.1-.1-.6.8.1-.1-.6.8v-.1l-.5.8c-.8,1.2-2.3,1.5-3.5.8s-2.2-1.6-1.5-2.8Z"/><path d="m266.3,148.4h0l.5-.1h.2l.5-.1h2.3l.5.1h.2l.5.1h.2l.5.1h.2l.5.2q.1,0,.2.1h0l.5.2s.1,0,.1.1h0l.5.2s.1,0,.1.1h0l.4.2.1.1h0l.4.3.1.1h0l.4.3.1.1h0l.4.3.1.1h0l.4.3.1.1h0l.3.4.1.1h0l.3.4.1.1h0l.3.4.1.1h0l.3.4.1.1h0l.2.4s0,.1.1.1h0l.2.5c.6,1.3,0,2.8-1.3,3.4s-2.8,0-3.4-1.3h0l-.2-.5.1.1-.2-.4.1.1-.3-.4.1.1-.3-.4.1.1-.3-.4.1.1-.3-.4.1.1-.4-.3.1.1-.4-.3.1.1-.4-.3.1.1-.4-.3.1.1-.4-.2.1.1-.5-.2.1.1-.5-.2.2.1-.5-.2h.2l-.5-.1h.2l-.5-.1h.2l-.5-.1h.2-.5.2-.5.2-.5.2l-.5.1h.2l-.5.1c-1.4.3-2.7-.6-3-2s.3-2.4,1.7-2.7Z"/><path d="m197.7,35.5h0l2.2,1.5.1.1h0l2.1,1.6.1.1h0l2,1.8.1.1h0l1.9,1.9.1.1h0l1.7,2,.1.1h0l1.6,2.1.1.1h0l1.4,2.2.1.1h0l1.3,2.3.1.1h0l1.1,2.4q0,.1.1.2h0l1,2.5q0,.1.1.2h0l.8,2.5v.2h0l.6,2.6v.2h0l.5,2.6v.2h0l.3,2.6v.2h0l.1,2.6v.2h0v2.8h0l-.2,2.6v.2h0l-.4,2.6v.2h0l-.6,2.6v.2h0l-.7,2.5q0,.1-.1.2h0l-.9,2.5q0,.1-.1.2h0l-1.1,2.4q0,.1-.1.1h0l-1.2,2.3-.1.1h0l-1.4,2.3c-.7,1.2-2.3,1.6-3.5.9s-1.6-2.3-.9-3.5h0l1.4-2.3-.1.1,1.2-2.3-.1.1,1.1-2.4-.1.2.9-2.5-.1.2.7-2.5v.2l.6-2.6v.2l.4-2.6v.2l.2-2.6v.2-2.6.2l-.1-2.6v.2l-.3-2.6v.2l-.5-2.6v.2l-.6-2.6v.2l-.8-2.5.1.2-1-2.5.1.2-1.1-2.4.1.1-1.3-2.3.1.1-1.4-2.2.1.1-1.6-2.1.1.1-1.7-2,.1.1-1.9-1.9.1.1-2-1.8.1.1-2.1-1.6.1.1-2.2-1.5c-1.1-.8-1.4-2.4-.6-3.5s2.6-1.9,3.8-1.1Z"/><path d="m208.5,91.7h0l1.2.3h-.1l1.2.3h-.1l1.2.3h-.1l1.2.2h-.1l1.2.2h-.1l1.3.2h-.1l1.3.1h-.1l1.3.1h-.1l1.3.1h-.1,1.3-.1,1.3-.1l1.3-.1c1.4-.1,2.6,1,2.6,2.4s-1,2.6-2.4,2.6h0l-1.3.1h-2.9l-1.3-.1h-.1l-1.3-.1h-.1l-1.3-.1h-.1l-1.3-.2h-.1l-1.2-.2h-.1l-1.2-.2h-.1l-1.2-.3h-.1l-1.2-.3h-.1l-1.2-.3c-1.3-.4-2.1-1.8-1.8-3.1s2.5-2.3,3.8-1.9Z"/><path d="m222,93.6h0l1.4-1.2-.1.1,1.3-1.3-.1.1,1.3-1.3-.1.1,1.2-1.3-.1.1,1.2-1.4-.1.1,1.1-1.4-.1.1,1.1-1.5-.1.1,1-1.5v.1l1-1.5v.1l.9-1.6v.1l.9-1.6v.1l.8-1.6v.1l.7-1.7v.1l.7-1.7c.5-1.3,2-1.9,3.3-1.4s1.9,2,1.4,3.3h0l-.7,1.7v.1l-.7,1.7v.1l-.8,1.6v.1l-.9,1.6v.1l-.9,1.6v.1l-1,1.5v.1l-1,1.5-.1.1-1.1,1.5-.1.1-1.1,1.4-.1.1-1.2,1.4-.1.1-1.2,1.3-.1.1-1.3,1.3-.1.1-1.3,1.3-.1.1-1.4,1.2c-1,.9-2.6.8-3.6-.2s-.7-3.4.3-4.3Z"/><path d="m241,74.6h0l.1,1.7v.1l.1,1.7v1.9l-.1,1.7v.1l-.1,1.7v.1l-.2,1.7v.1l-.3,1.7v.1l-.4,1.7v.1l-.4,1.7v.1l-.5,1.6v.1l-.6,1.6v.1l-.6,1.6v.1l-.7,1.6v.1l-.8,1.5c-.6,1.2-2.1,1.7-3.4,1.1s-1.7-2.1-1.1-3.4h0l.8-1.5v.1l.7-1.6v.1l.6-1.6v.1l.6-1.6v.1l.5-1.6v.1l.4-1.7v.1l.4-1.7v.1l.3-1.7v.1l.2-1.7v.1l.1-1.7v.1l.1-1.7v.1-1.7.1l-.1-1.7v.1l-.1-1.7c-.1-1.4.9-2.6,2.3-2.7s2.1,1.1,2.2,2.4Z"/><path d="m233.9,95.7h0l2.1-.2h.1l2.1-.1h.1l2.1-.1h2.3l2.1.1h.1l2.1.2h.1l2.1.3h.1l2.2.4h.1l2.1.5h.1l2.1.6h.1l2.1.7h.1l2.1.8h.1l2,.8h.1l2,.9c1.3.6,1.8,2.1,1.2,3.4s-2.1,1.8-3.4,1.2h0l-2-.9h.1l-2-.8h.1l-2.1-.8h.1l-2.1-.7h.1l-2.1-.6h.1l-2.1-.5h.1l-2.2-.4h.1l-2.1-.3h.1l-2.1-.2h.1l-2.1-.1h.1-2.1.1l-2.1.1h.1l-2.1.1h.1l-2.1.2c-1.4.2-2.6-.8-2.8-2.2s1-2.3,2.4-2.4Z"/><path d="m173.3,55h0l.4-1.4v-.1h0l.5-1.3s0-.1.1-.1h0l.6-1.3s0-.1.1-.1h0l.6-1.3s0-.1.1-.1h0l.7-1.2.1-.1h0l.8-1.2.1-.1h0l.8-1.2.1-.1h0l.9-1.1.1-.1h0l1-1,.1-.1h0l1-1,.1-.1h0l1.1-.9.1-.1h0l1.1-.9.1-.1h0l1.2-.8.1-.1h0l1.2-.7s.1,0,.1-.1h0l1.3-.6s.1,0,.1-.1h0l1.3-.6s.1,0,.1-.1h0l1.3-.5h.1l1.4-.4h.1l1.4-.3h.1l1.4-.2c1.4-.2,2.7.7,2.9,2s-.7,2.7-2,2.9h0l-1.4.2h.1l-1.4.3h.1l-1.4.4h.1l-1.3.5.1-.1-1.3.6.1-.1-1.3.6.1-.1-1.2.7.1-.1-1.2.8.1-.1-1.1.9.1-.1-1.1.9.1-.1-1,1,.1-.1-1,1,.1-.1-.9,1.1.1-.1-.8,1.2.1-.1-.8,1.2.1-.1-.7,1.2.1-.1-.6,1.3.1-.1-.6,1.3.1-.1-.5,1.3v-.1l-.4,1.4c-.4,1.3-1.8,2.1-3.1,1.7s-1.8-2.1-1.4-3.4Z"/><path d="m173.2,56.4h0l-.8-2.1v.1l-.9-2.1v.1l-.9-2.1v.1l-1-2v.1l-1.1-2v.1l-1.1-2v.1l-1.2-1.9v.1l-1.1-1.6v.1l-1.2-1.6v.1l-1.2-1.6v.1l-1.3-1.5v.1l-1.3-1.5.1.1-1.4-1.5.1.1-1.4-1.4c-1-1-1-2.6,0-3.6s2.6-1,3.6,0h0l1.4,1.4.1.1,1.4,1.5.1.1,1.3,1.5v.1l1.3,1.5v.1l1.2,1.6v.1l1.2,1.6v.1l1.1,1.6v.1l1.2,1.9v.1l1.1,2v.1l1.1,2v.1l1,2v.1l.9,2.1v.1l.9,2.1v.1l.8,2.1c.5,1.3-.2,2.8-1.5,3.3s-2-.9-2.5-2.3Z"/><path d="m158.8,32.6h0c-1-.2-1.7-.3-2.5-.3h0c-1,0-2,.2-3.2,1.2h0c-2.2,1.8-4.9,6.1-8.3,12.9h0c-3.4,6.7-6.8,14.6-5.4,23.2h0c1,6.5,4.8,13.6,7.7,19.1h0c1,2,2,3.8,2.6,5.3h0c.5,1.2.9,2.4.9,3.6h0c0,1.6-.8,3-2.3,3.6h0c-.2.1-.4.2-.6.2h0c-.7.2-1.5.2-2.1.2h0c-.6,0-1.3,0-2-.1h0c-.4,0-.9,0-1.3-.1h0c-1.2,0-2.5-.1-3.9-.1h0c-1.5,0-3.2,0-4.8-.1h0c-2.1-.1-4.2-.3-6.1-.7h0c-5.2-1.3-7.8-4.7-8.7-10.3h0c-.3-2-.4-4.2-.5-6.2h0c-.1-1.7-.2-3.1-.3-4.1h0c-.1-.4-.1-.6-.1-.6l2.3-.9h0l-2.3,1.1h0l-.1-.2c-.1-.3.3,1,1.8,1h.2c.7-.1,1-.4.9-.3h0c-1,.9-3.6,6.6-4.2,10.4h0c-.2,1.6-.1,2.6.1,3.7h0c.1.5.2,1.3.2,2.1h0v.4h0c-.1.9-.6,1.8-1.3,2.5h0c-.2.2-.5.4-.8.6h0c-2.7,1.8-9.8,3.3-15.9,4.6-1.4.3-2.7-.6-3-1.9s.6-2.7,1.9-3h0c6.8-1.5,12.5-2.7,14.1-3.8h0c.1,0,.1-.1.1-.1h0c-.1.1-.2.2-.2.4h0c0-.1,0-.3-.1-.9h0c-.2-1.1-.4-2.8-.1-5.2h0c.6-4.2,3.5-11.3,5.8-13.4h0c.3-.3,1-.9,2-.9h.3c2,0,2.8,1.7,2.9,2.2l-.1-.2h0l-2.3,1.1h0l2.3-.9c.2.5.3,1.1.4,1.7h0c.2,1.3.3,3,.4,4.6h0c.1,2,.2,4,.5,5.6h0c.6,4,2.1,5.5,4.9,6.2h0c1.4.3,3.1.5,5.1.6h0c1.5.1,3,.1,4.6.1h0c1.4,0,2.8,0,4.1.1h0c.5,0,1,0,1.4.1h0c.7,0,1.2.1,1.7.1h.7-.1c-.5.2-.8.8-.8,1.1h0c0-.1-.1-.6-.5-1.6h0c-.5-1.2-1.4-2.8-2.5-4.9h0c-2.8-5.3-7-13.2-8.2-20.7h0c-1.7-10.4,2.5-19.6,5.9-26.3h0c3.3-6.6,6.4-11.9,9.6-14.5h0c2.2-1.8,4.3-2.3,6.4-2.3h0c1.2,0,2.3.2,3.2.3,1.4.2,2.3,1.5,2.1,2.9s-1.1,2-2.5,1.8Z"/><path d="m92.4,135.4h0c-2.4-3.2-4.8-6.5-6.9-15.3h0c-2.1-8.7-3.9-22.9-3.4-35.7h0c.6-12.9,3.6-24.4,8.9-36.9h0c5.2-12.4,12.9-26.4,26.1-35.3h0C129.5,3.8,146.6,0,158.7,0h2.1c8.6.3,14.2,2.8,18.3,4.6h0c1.8.8,3.2,1.4,4.4,1.7h0c.9.2,1.8.3,2.7.3h0c1.4,0,2.9-.2,4.7-.5h0c2.1-.3,4.6-.7,7.5-.7h.1c7.1,0,16.6,2.3,25.9,6.5h0c9.3,4.3,18.6,10.6,26.6,17.8h0c8,7.3,15,15.6,19.6,27.4h0c4.6,11.7,6.9,26.8,6.3,40.9h0c-.6,14.1-4.2,27.1-7.7,39.8-.4,1.3-1.8,2.1-3.1,1.8s-2.1-1.8-1.8-3.1h0c3.5-12.8,6.9-25.3,7.5-38.7h0c.6-13.4-1.6-27.8-6-38.8h0c-4.3-10.9-10.7-18.6-18.3-25.5h0c-7.7-6.9-16.5-12.9-25.3-17h0c-8.8-4-17.6-6-23.8-6.1h-.1c-2.5,0-4.7.3-6.8.6h0c-1.8.3-3.6.6-5.5.6h0c-1.3,0-2.6-.1-3.9-.5h0c-1.7-.4-3.5-1.2-5.2-2h0c-4-1.8-8.8-3.9-16.4-4.2h-1.9c-11.3,0-27.3,3.6-38.8,11.3h0c-12,8.1-19.2,20.9-24.3,33.1h0c-5.1,12.1-7.9,23-8.5,35.2h0c-.5,12.3,1.2,26,3.2,34.3h0c1.9,8,4,10.7,6.1,13.5.8,1.1.6,2.7-.5,3.5s-2.6.7-3.4-.4Z"/><path d="m76.7,283.3h0l-.7,2.1v-.1l-.6,2.1v-.1l-.5,2.1v-.1l-.5,2.1v-.1l-.4,2.2v-.1l-.3,2.2v-.1l-.2,2.2v-.1l-.1,2.2v-.1,2.2-.1l.1,2.2v-.1l.1,2.2v-.1l.2,2.2v-.1l.3,2.2v-.1l.4,2.2v-.1l.5,2.1c.3,1.4-.5,2.7-1.9,3s-2.7-.5-3-1.9h0l-.5-2.1v-.1l-.4-2.2v-.1l-.3-2.2v-.1l-.2-2.2v-.1l-.1-2.2v-.1l-.1-2.2v-2.4l.1-2.2v-.1l.2-2.2v-.1l.3-2.2v-.1l.4-2.2v-.1l.5-2.1v-.1l.5-2.1v-.1l.6-2.1v-.1l.7-2.1c.4-1.3,1.9-2,3.2-1.6s2.2,2,1.7,3.3Z"/><path d="m109.7,305.7h0l3.7,4.7-.1-.1,4,4.4-.1-.1,4.3,4.1-.1-.1,4.6,3.8-.1-.1,4.8,3.5-.1-.1,5,3.2-.1-.1,5.2,2.8-.2-.1,5.4,2.5-.2-.1,5.6,2.1-.2-.1,5.7,1.7h-.2l5.8,1.3h-.2l5.9.9h-.2l5.9.5h-.2l6,.1h-.2l6.3-.3h-.2l6.2-.8h-.2l6.2-1.2h-.2l6.1-1.7-.2.1,5.9-2.1-.2.1,5.8-2.5-.2.1,5.6-2.9-.2.1,5.3-3.3-.2.1,5.1-3.7-.1.1,4.8-4-.1.1,4.5-4.4-.1.1,4.2-4.7-.1.1,3.8-5c.9-1.1,2.4-1.3,3.5-.5s1.3,2.4.5,3.5h0l-3.8,5-.1.1h0l-4.2,4.7-.1.1h0l-4.5,4.4-.1.1h0l-4.8,4-.1.1h0l-5.1,3.7s-.1.1-.2.1h0l-5.3,3.3c-.1,0-.1.1-.2.1h0l-5.6,2.9c-.1,0-.1.1-.2.1h0l-5.8,2.5q-.1,0-.2.1h0l-5.9,2.1q-.1,0-.2.1h0l-6.1,1.7h-.2l-6.2,1.2h-.2l-6.2.8h-.2l-6.3.3h-.2l-6-.1h-.2l-5.9-.5h-.2l-5.9-.9h-.2l-5.8-1.3h-.2l-5.7-1.7q-.1,0-.2-.1h0l-5.6-2.1q-.1,0-.2-.1h0l-5.4-2.5q-.1,0-.2-.1h0l-5.2-2.8c-.1,0-.1-.1-.1-.1h0l-5-3.2-.1-.1h0l-4.8-3.5-.1-.1h0l-4.6-3.8-.1-.1h0l-4.3-4.1-.1-.1h0l-4-4.4-.1-.1h0l-3.7-4.7c-.9-1.1-.7-2.7.4-3.5s3.101-.5,4.001.5Z"/><path d="m73.8,279.8h0l3.4-2.3.1-.1,3.5-2.2.1-.1,3.5-2h.1l3.6-1.9h.1l3.7-1.7h.1l3.8-1.6h.1l3.8-1.4h.1l3.8-1.2h.1l3.9-1.1h.1l3.9-.9h.1l3.9-.8h.1l4-.6h.1l4-.5h.1l4-.3c1.4-.1,2.6.9,2.7,2.3s-.9,2.6-2.3,2.7h0l-4,.3h.1l-4,.5h.1l-4,.6h.1l-3.9.8h.1l-3.9.9h.1l-3.9,1.1h.1l-3.8,1.2h.1l-3.8,1.4h.1l-3.8,1.6h.1l-3.7,1.7h.1l-3.6,1.9h.1l-3.5,2,.1-.1-3.5,2.2.1-.1-3.4,2.3c-1.1.8-2.7.5-3.5-.7s-.7-3.1.5-3.9Z"/><path d="m106.3,309.1h0l-1.3-2.1.1.1-1.4-2,.1.1-1.5-1.9.1.1-1.6-1.9.1.1-1.6-1.8.1.1-1.7-1.7.1.1-1.8-1.7.1.1-1.9-1.6.1.1-2.2-1.7.1.1-2.3-1.6.1.1-2.4-1.5.1.1-2.5-1.4.1.1-2.5-1.2.1.1-2.6-1.1h.1l-2.7-1h.1l-2.7-.8c-1.3-.4-2.1-1.8-1.7-3.2s1.8-2.1,3.2-1.7h0l2.7.8h.1l2.7,1h.1l2.6,1.1s.1,0,.1.1h0l2.5,1.2s.1,0,.1.1h0l2.5,1.4s.1,0,.1.1h0l2.4,1.5s.1,0,.1.1h0l2.3,1.6s.1,0,.1.1h0l2.2,1.7.1.1,1.9,1.6.1.1,1.8,1.7.1.1,1.7,1.7.1.1,1.6,1.8.1.1,1.6,1.9.1.1,1.5,1.9.1.1,1.4,2,.1.1,1.3,2.1c.7,1.2.4,2.7-.8,3.5s-3,0-3.7-1.2Z"/><path d="m247.4,304.5h0l1.5-2.3.1-.1,1.6-2.2.1-.1,1.7-2.2.1-.1,1.8-2.1.1-.1,1.9-2,.1-.1,2-1.9.1-.1,2.1-1.8.1-.1,2.1-1.7.1-.1,2.2-1.6.1-.1,2-1.3.1-.1,2-1.2.1-.1,2.1-1.1h.1l2.1-1h.1l2.2-.9h.1l2.2-.9h.1l2.2-.8h.1l2.3-.7c1.3-.4,2.7.4,3.1,1.7s-.4,2.7-1.7,3.1h0l-2.3.7h.1l-2.2.8h.1l-2.2.9h.1l-2.2.9h.1l-2.1,1h.1l-2.1,1.1.1-.1-2,1.2.1-.1-2,1.3.1-.1-2.2,1.6.1-.1-2.1,1.7.1-.1-2.1,1.8.1-.1-2,1.9.1-.1-1.9,2,.1-.1-1.8,2.1.1-.1-1.7,2.2.1-.1-1.6,2.2.1-.1-1.5,2.3c-.7,1.2-2.3,1.5-3.5.8s-1.8-2.2-1.1-3.4Z"/><path d="m286.1,278.8h0l1,1.7s0,.1.1.1h0l.9,1.8s0,.1.1.1h0l.8,1.8v.1h0l.7,1.8v.1h0l.6,1.9v.1h0l.5,1.9v.1h0l.4,1.9v.1h0l.3,1.9v.1h0l.2,2v.1h0l.1,1.9v.1h0v2h0l-.1,1.9v.1h0l-.2,1.9v.1h0l-.3,1.9v.1h0l-.4,1.8v.1h0l-.5,1.8v.1h0l-.6,1.8v.1h0l-.6,1.8c-.5,1.3-1.9,2-3.2,1.5s-2-1.9-1.5-3.2h0l.6-1.8v.1l.6-1.8v.1l.5-1.8v.1l.4-1.8v.1l.3-1.9v.1l.2-1.9v.1l.1-1.9v.1-1.9.1l-.1-1.9v.1l-.2-2v.1l-.3-1.9v.1l-.4-1.9v.1l-.5-1.9v.1l-.6-1.9v.1l-.7-1.8v.1l-.8-1.8.1.1-.9-1.8.1.1-1-1.7c-.7-1.2-.2-2.8,1-3.4s2.6.5,3.3,1.7Z"/><path d="m233.3,263.2h0l5.2.2h.1l5.2.4h.1l5.1.7h.1l5.1,1h.1l5,1.2h.1l5,1.5h.1l4.9,1.7h.1l4.8,2h.1l1.8.8h0l1.8.9h0l1.7.9h0l1.7.9h0l1.7,1h0l1.7,1c1.2.7,1.6,2.2.9,3.4s-2.2,1.6-3.4.9h0l-1.7-1h0l-1.7-1h0l-1.7-.9h0l-1.7-.9h0l-1.8-.9h0l-1.8-.8h.1l-4.8-2h.1l-4.9-1.7h.1l-5-1.5h.1l-5-1.2h.1l-5.1-1h.1l-5.1-.7h.1l-5.2-.4h.1l-5.2-.2c-1.4,0-2.5-1.2-2.4-2.6s1.9-1.7,3.3-1.7Z"/><path fill="#fefefe" d="m117,337.8h0l-.3.2.2-.1-.3.2.2-.1-.3.3.2-.2-.3.3.1-.2-.2.3.1-.2-.2.3.1-.2-.2.3.1-.2-.1.4.1-.2-.1.4.1-.2-.1.4v-.2.4-.2.4-.2.4-.2l.1.4-.1-.2.1.4-.1-.2.1.4-.1-.2.2.3-.1-.2.2.3-.1-.2.2.3-.1-.2.3.3-.2-.2.3.3-.2-.2.3.2-.2-.1.3.2-.2-.1.3.2-.2-.1.4.1-.2-.1.4.1-.2-.1.4.1h-.2.4-.2.4-.2.4-.2l.4-.1h-.2l.4-.1-.2.1.4-.1-.2.1.4-.2-.2.1.3-.2-.2.1.3-.2-.2.1.3-.2-.2.2.3-.3-.2.2.2-.3-.1.2.2-.3-.1.2.2-.3-.1.2.2-.3-.1.2.1-.4-.1.2.1-.4v.2l.1-.4v.2-.4.2-.4.2-.4.2l-.1-.4.1.2-.1-.4.1.2-.1-.4.1.2-.2-.3.1.2-.2-.3.1.2-.2-.3.1.2-.3-.3.2.2-.3-.3.2.1-.3-.2.2.1-.3-.2.2.1-.3-.2.2.1-.4-.1.2.1-.4-.1.2.1-.4-.1h.2-.4.2-.4.2-.4.2l-.4.1.2-.1-.7.3.3-.1-.3.1c-1.3.5-2.8-.1-3.3-1.4s.2-2.8,1.5-3.2h0l.4-.1c.1,0,.1-.1.2-.1h0l.4-.1q.1,0,.2-.1h0l.4-.1h2l.4.1q.1,0,.2.1h0l.4.1q.1,0,.2.1h0l.4.1c.1,0,.1.1.2.1h0l.3.2c.1,0,.1.1.2.1h0l.3.2c.1,0,.1.1.2.1h0l.3.2c.1,0,.1.1.2.1h0l.3.3q.1.1.2.2h0l.3.3q.1.1.1.2h0l.2.3c0,.1.1.1.1.2h0l.2.3c0,.1.1.1.1.2h0l.2.3c0,.1.1.1.1.2h0l.1.4c0,.1.1.1.1.2h0l.1.4q0,.1.1.2h0l.1.4v.2h0v.6h0v.6h0v.6h0l-.1.4v.2h0l-.1.4q0,.1-.1.2h0l-.1.4c0,.1-.1.1-.1.2h0l-.2.3c0,.1-.1.1-.1.2h0l-.2.3c0,.1-.1.1-.1.2h0l-.2.3c0,.1-.1.1-.1.2h0l-.2.3c0,.1-.1.1-.2.2h0l-.3.3q-.1.1-.2.2h0l-.3.2c-.1,0-.1.1-.2.1h0l-.3.2c-.1,0-.1.1-.2.1h0l-.3.2c-.1,0-.1.1-.2.1h0l-.4.2c-.1,0-.1.1-.2.1h0l-.4.1q-.1,0-.2.1h0l-.4.1h-.2l-.4.1h-2l-.4-.1q-.1,0-.2-.1h0l-.4-.1q-.1,0-.2-.1h0l-.4-.1c-.1,0-.1-.1-.2-.1h0l-.3-.2c-.1,0-.1-.1-.2-.1h0l-.3-.2c-.1,0-.1-.1-.2-.1h0l-.3-.2c-.1,0-.1-.1-.2-.2h0l-.3-.3q-.1-.1-.2-.2h0l-.3-.3q-.1-.1-.1-.2h0l-.2-.3c0-.1-.1-.1-.1-.2h0l-.2-.3c0-.1-.1-.1-.1-.2h0l-.2-.3c0-.1-.1-.1-.1-.2h0l-.1-.4c0-.1-.1-.1-.1-.2h0l-.1-.4q0-.1-.1-.2h0l-.1-.4v-.2h0v-.6h0v-.6h0v-.6h0l.1-.4c0-.1,0-.2.1-.2h0l.1-.4q0-.1.1-.2h0l.1-.4c0-.1.1-.1.1-.2h0l.2-.3c0-.1.1-.1.1-.2h0l.2-.3c0-.1.1-.1.1-.2h0l.2-.3c0-.1.1-.1.1-.2h0l.3-.3q.1-.1.2-.2h0l.3-.3q.1-.1.2-.1h0l.3-.2c.1,0,.1-.1.2-.1h0l.3-.2c1.2-.7,2.7-.4,3.5.8s.6,2.5-.6,3.2Z"/><path fill="#fefefe" d="m237.4,337.1h0l-.3.2.2-.1-.3.2.2-.1-.3.3.2-.2-.3.3.1-.2-.2.3.1-.2-.2.3.1-.2-.2.4.1-.2-.1.4.1-.2-.1.4.1-.2-.1.4v-.2.4-.2.4-.2.4-.2l.1.4-.1-.2.1.4-.2-.6.1.4-.1-.2.2.4-.1-.2.2.3-.1-.2.2.3-.1-.2.3.3-.2-.2.3.3-.2-.1.3.2-.2-.1.3.2-.2-.1.4.2-.2-.1.4.1-.2-.1.4.1-.2-.1.4.1h-.2.4-.2.4-.2.4-.2l.4-.1-.2.1.4-.1-.2.1.4-.1-.2.1.4-.2-.2.1.3-.2-.2.1.3-.2-.2.1.3-.3-.2.2.3-.3-.1.2.2-.3-.1.2.2-.3-.1.2.2-.3-.1.2.1-.4-.1.2.1-.4-.1.2.1-.4v.2-.4.2-.4.2-.4.2l-.1-.4v.2l-.1-.4.1.2-.1-.4.1.2-.2-.3.1.2-.2-.3.1.2-.2-.3.1.2-.2-.3.1.2-.3-.3.2.2-.3-.2.2.1-.3-.2.2.1-.3-.2.2.1-.3-.2.2.1-.4-.1.2.1-.4-.1h.2l-.4-.1h.2-.4.2-.4.2-.4.2l-.4.1.2-.1-.4.4.3-.1-.3.1c-1.3.5-2.8-.1-3.3-1.4s.2-2.8,1.5-3.3h0l.4-.1c.1,0,.1-.1.2-.1h0l.4-.1q.1,0,.2-.1h0l.4-.1h2l.4.1h.2l.4.1q.1,0,.2.1h0l.4.1c.1,0,.1.1.2.1h0l.3.2c.1,0,.1.1.2.1h0l.3.2c.1,0,.1.1.2.1h0l.3.2c.1,0,.1.1.2.1h0l.3.2c.1,0,.1.1.2.2h0l.3.3q.1.1.1.2h0l.2.3c0,.1.1.1.1.2h0l.2.3c0,.1.1.1.1.2h0l.2.3c0,.1.1.1.1.2h0l.2.3c0,.1.1.1.1.2h0l.1.4q0,.1.1.2h0l.1.4v.2h0l.1.4v.2h0v.6h0v.6h0v.6h0l-.1.4q0,.1-.1.2h0l-.1.4q0,.1-.1.2h0l-.1.4c0,.1-.1.1-.1.2h0l-.2.3c0,.1-.1.1-.1.2h0l-.2.3c0,.1-.1.1-.1.2h0l-.2.3c0,.1-.1.1-.1.2h0l-.3.3q-.1.1-.2.2h0l-.3.3c-.1,0-.1.1-.2.1h0l-.3.2c-.1,0-.1.1-.2.1h0l-.3.2c-.1,0-.1.1-.2.1h0l-.4.2c-.1,0-.1.1-.2.1h0l-.5.2c-.1,0-.1.1-.2.1h0l-.4.1q-.1,0-.2.1h0l-.4.1h-2l-.4-.1c-.1,0-.2,0-.2-.1h0l-.4-.1q-.1,0-.2-.1h0l-.4-.1c-.1,0-.1-.1-.2-.1h0l-.4-.2c-.1,0-.1-.1-.2-.1h0l-.3-.2c-.1,0-.1-.1-.2-.1h0l-.3-.2c-.1,0-.1-.1-.2-.1h0l-.3-.3q-.1-.1-.2-.2h0l-.3-.3q-.1-.1-.1-.2h0l-.2-.3c0-.1-.1-.1-.1-.2h0l-.2-.3c0-.1-.1-.1-.1-.2h0l-.2-.4c0-.1-.1-.1-.1-.2h0l-.1-.4c0-.1-.1-.1-.1-.2h0l-.1-.4q0-.1-.1-.2h0l-.1-.4v-.2h0v-.6h0v-.6h0v-.6h0l.1-.4c0-.1,0-.2.1-.2h0l.1-.4q0-.1.1-.2h0l.1-.4c0-.1.1-.1.1-.2h0l.2-.4c0-.1.1-.1.1-.2h0l.2-.3c0-.1.1-.1.1-.2h0l.2-.3c0-.1.1-.1.1-.2h0l.3-.3q.1-.1.2-.2h0l.3-.3q.1-.1.2-.1h0l.3-.2c.1,0,.1-.1.2-.1h0l.3-.2c1.2-.7,2.7-.4,3.5.8s.3,2.6-.9,3.3Z"/><path fill="#fefefe" d="m120.8,341.2h0v2.5l-.1,2.4v.1l-.2,2.4v.1l-.3,2.4v.1l-.4,2.3v.1l-.5,2.3v.1l-.5,2.3v.1l-.6,2.3v.1l-.7,2.3v.1l-.8,2.2v.1l-.9,2.2v.1l-1,2.1v.1l-1.1,2.1v.1l-1.2,2.1c-.7,1.2-2.2,1.6-3.4.9s-1.6-2.2-.9-3.4h0l1.2-2.1v.1l1.1-2.1v.1l1-2.1v.1l.9-2.2v.1l.8-2.2v.1l.7-2.3v.1l.6-2.3v.1l.5-2.3v.1l.5-2.3v.1l.4-2.3v.1l.3-2.4v.1l.2-2.4v.1l.1-2.4v.1-2.4c0-1.4,1.1-2.5,2.5-2.6s1.8,1.101,1.8,2.501Z"/><path fill="#fefefe" d="m241.4,339.6h0l.6,3.1v.1l.5,3.1v.1l.4,3.1v.1l.3,3.1v.1l.3,3.1v.1l.2,3.1v.1l.1,3.2v3.4l-.1,3.2v.1l-.2,3.2v.1l-.2,3.2v.1l-.3,3.2c-.1,1.4-1.4,2.4-2.8,2.3s-2.4-1.4-2.3-2.8h0l.3-3.2v.1l.2-3.2v.1l.2-3.2v.1l.1-3.2v.1-3.2.1l-.1-3.2v.1l-.2-3.1v.1l-.3-3.1v.1l-.3-3.1v.1l-.4-3.1v.1l-.5-3.1v.1l-.6-3.1c-.3-1.4.6-2.7,2-3s2.8-.099,3.1,1.301Z"/><path fill="#fefefe" d="m237.1,375.8h0l.4.3-.1-.1.4.2-.1-.1.5.2-.1-.1.5.2h-.1l.5.2h-.1l.5.1h-.1l.5.1h-.1l.5.1h-.1.5-.1.5-.2.5-.2l.5-.1h-.2l.5-.1h-.2l.5-.1h-.2l.5-.2-.1.1.5-.2-.1.1.5-.2-.1.1.5-.2-.1.1.5-.3-.1.1.4-.3-.1.1.4-.3c1.1-.9,2.7-.7,3.5.4s.7,2.7-.4,3.5h0l-.4.3-.1.1h0l-.4.3-.1.1h0l-.5.3-.1.1h0l-.5.2s-.1,0-.1.1h0l-.5.2s-.1,0-.1.1h0l-.5.2s-.1,0-.1.1h0l-.5.2h-.2l-.5.1h-.2l-.5.1h-.2l-.5.1h-2.1l-.5-.1h-.1l-.5-.1h-.1l-.5-.1h-.1l-.5-.2h-.1l-.5-.2s-.1,0-.1-.1h0l-.5-.2s-.1,0-.1-.1h0l-.4-.2s-.1,0-.1-.1h0l-.4-.3c-1.2-.7-1.6-2.3-.9-3.5s1.6-1.8,2.8-1Z"/><path fill="#fefefe" d="m107.9,369.8h0l.2.4-.1-.1.3.4-.1-.1.3.4-.1-.1.3.4-.1-.1.3.4-.1-.1.4.3-.1-.1.4.3-.1-.1.4.3-.1-.1.4.3-.1-.1.4.2-.1-.1.4.2-.1-.1.5.2-.1-.1.5.2h-.1l.5.1h-.1l.5.1h-.1l.5.1h-.1l.5.1h-.1.5-.1.5-.2.5-.1l.5-.1h-.1l.5-.1c1.4-.3,2.7.6,2.9,2s-.6,2.7-2,2.9h0l-.5.1h-.1l-.5.1h-2l-.5-.1h-.1l-.5-.1h-.1l-.5-.1h-.1l-.5-.1h-.1l-.5-.2s-.1,0-.1-.1h0l-.5-.2s-.1,0-.1-.1h0l-.4-.2s-.1,0-.1-.1h0l-.4-.2s-.1,0-.1-.1h0l-.4-.3-.1-.1h0l-.4-.3-.1-.1h0l-.4-.3-.1-.1h0l-.4-.3-.1-.1h0l-.3-.4-.1-.1h0l-.3-.4-.1-.1h0l-.3-.4-.1-.1h0l-.3-.4-.1-.1h0l-.2-.4c-.7-1.2-.3-2.7.9-3.4s1.9-.301,2.6.899Z"/><path d="m3,390.1h0l34.7,2.5h0l34.8,2h0l34.8,1.4h0l34.8.9h0l34.8.3h0l36.6-.2h0l36.6-.8h0l36.5-1.4h0l36.5-2h0l36.5-2.6c1.4-.1,2.6,1,2.7,2.4s-1,2.6-2.4,2.7h0l-36.5,2.6h0l-36.5,2h0l-36.5,1.4h0l-36.6.8h0l-36.6.2h0l-34.8-.3h0l-34.8-.9h0l-34.8-1.4h0l-34.8-2h0l-34.7-2.5c-1.4-.1-2.5-1.3-2.4-2.7s.7-2.5,2.1-2.4Z"/><g><path d="m94.8,139.6h0l-.7-.9.1.1-.7-.9.1.1-.7-.8.1.1-.8-.8.1.1-.8-.8.1.1-.9-.7.1.1-.9-.7.1.1-.9-.6.1.1-.9-.6.1.1-.9-.5h.1l-.9-.4h.1l-.9-.4h.1l-.9-.4h.1l-.9-.3h.1l-1-.3h.1l-1-.2c-1.3-.3-2.1-1.7-1.8-3s1.7-2.1,3-1.8h0l1,.2h.1l1,.3h.1l.9.3h.1l.9.4h.1l.9.4h.1l.9.4h.1l.9.5.1.1.9.6.1.1.9.6.1.1.9.7.1.1.9.7.1.1.8.8.1.1.8.8.1.1.7.8.1.1.7.9.1.1.7.9c.8,1.1.5,2.6-.5,3.4s-2.9.7-3.7-.4Z"/><path d="m83.4,131.2h0l-.7.2.2-.1-.7.2.2-.1-.7.3.2-.1-.7.3.2-.1-.6.4.1-.1-.6.4.1-.1-.6.5.1-.1-.5.5.1-.1-.5.5.1-.1-.5.6.1-.1-.4.6.1-.1-.4.6.1-.2-.3.7.1-.1-.2.5v-.1l-.2.5v-.1l-.2.5v-.1l-.1.6v-.1l-.1.6v-.1l-.1.6v-.1.6-.1.6-.1.6-.1l.1.6c.1,1.3-.8,2.6-2.2,2.7s-2.6-.8-2.7-2.2h0l-.1-.6v-.1h0v-.7h0v-.7h0v-.7h0l.1-.6v-.1h0l.1-.6v-.1h0l.1-.6v-.1h0l.2-.5v-.1h0l.2-.5v-.1h0l.2-.5s0-.1.1-.1h0l.3-.7c0-.1.1-.1.1-.2h0l.4-.6c0-.1.1-.1.1-.1h0l.4-.6.1-.1h0l.5-.6.1-.1h0l.5-.5.1-.1h0l.5-.5.1-.1h0l.6-.5.1-.1h0l.6-.4.1-.1h0l.6-.4s.1-.1.2-.1h0l.7-.3c.1,0,.1-.1.2-.1h0l.7-.3q.1,0,.2-.1h0l.7-.2q.1,0,.2-.1h0l.7-.2c1.3-.3,2.6.4,3,1.7s-.1,2-1.5,2.4Z"/><path d="m77.4,140.5h0l.1,1.3v-.1l.1,1.3v-.1l.2,1.3v-.1l.2,1.3v-.1l.3,1.3v-.1l.3,1.2v-.1l.4,1.2v-.1l.4,1.1v-.1l.5,1.1v-.1l.5,1.1v-.1l.5,1.1v-.1l.6,1v-.1l.6,1-.1-.1.7,1c.8,1.1.5,2.6-.7,3.4s-2.6.5-3.4-.7h0l-.7-1-.1-.1-.6-1v-.1l-.6-1v-.1l-.5-1.1v-.1l-.5-1.1v-.1l-.5-1.1v-.1l-.4-1.1v-.1l-.4-1.2v-.1l-.3-1.2v-.1l-.3-1.3v-.1l-.2-1.3v-.1l-.2-1.3v-.1l-.1-1.3v-.1l-.1-1.3c-.1-1.4.9-2.5,2.3-2.6s1.9,1.1,2,2.5Z"/><path d="m82.7,155.8h0l.4.7-.1-.1.5.7-.1-.1.5.6-.1-.1.5.6-.1-.1.6.6-.1-.1.6.5-.1-.1.6.5-.1-.1.7.4-.1-.1.7.4-.1-.1.7.3-.1-.1.7.3-.1-.1.7.2h-.1l.7.2h-.1l.7.1h-.1l.7.1h-.1.7-.1.7-.1.7-.1l.7-.1h-.1l.7-.1h-.1l.7-.2h-.1l.7-.2c1.3-.4,2.7.3,3.1,1.6s-.3,2.7-1.6,3.1h0l-.7.2h-.1l-.7.2h-.1l-.7.1h-.1l-.7.1h-2.5l-.7-.1h-.1l-.7-.1h-.1l-.7-.2h-.1l-.7-.2s-.1,0-.1-.1h0l-.7-.3s-.1,0-.1-.1h0l-.7-.3s-.1,0-.1-.1h0l-.7-.4-.1-.1h0l-.7-.4-.1-.1h0l-.6-.5-.1-.1h0l-.6-.5-.1-.1h0l-.6-.6-.1-.1h0l-.5-.6-.1-.1h0l-.5-.6-.1-.1h0l-.5-.7-.1-.1h0l-.4-.7c-.7-1.2-.3-2.7.8-3.4s1.2-.2,1.9.9Z"/><path d="m93.5,149.5h0l-.5-.8v.1l-.5-.8v.1l-.5-.8v.1l-.6-.8.1.1-.6-.8.1.1-.6-.8.1.1-.6-.7.1.1-.7-.7.1.1-.7-.7.1.1-.7-.7.1.1-.8-.7.1.1-.8-.6.1.1-.8-.6.1.1-.8-.6c-1.1-.8-1.4-2.3-.6-3.4s2.3-1.4,3.4-.6h0l.8.6.1.1.8.6.1.1.8.6.1.1.8.7.1.1.7.7.1.1.7.7.1.1.7.7.1.1.6.7.1.1.6.8.1.1.6.8.1.1.6.8v.1l.5.8v.1l.5.8v.1l.5.8c.7,1.2.2,2.7-1,3.3s-3.1-.8-3.8-1.9Z"/><path d="m94.1,149.7h0l-.5-.1h.1l-.5-.1h.2l-.5-.1h.2-.5.2-.5.2-.5.2l-.5.1h.2l-.5.1h.2l-.5.1h.1l-.5.2.1-.1-.4.2.1-.1-.4.2.1-.1-.4.2.1-.1-.4.3.1-.1-.4.3.1-.1-.4.3.1-.1-.4.3.1-.1-.3.4.1-.1-.3.4.1-.1-.3.4.1-.1-.3.4.1-.1-.2.4c-.6,1.2-2.1,1.6-3.3,1s-1.6-2.1-1-3.3h0l.2-.4.1-.1h0l.3-.4.1-.1h0l.3-.4.1-.1h0l.3-.4.1-.1h0l.3-.4.1-.1h0l.4-.3.1-.1h0l.4-.3.1-.1h0l.4-.3.1-.1h0l.4-.3.1-.1h0l.4-.2s.1,0,.1-.1h0l.4-.2s.1,0,.1-.1h0l.4-.2s.1,0,.1-.1h0l.5-.2h.1l.5-.1h.2l.5-.1h.2l.5-.1h2.3l.5.1h.2l.5.1h.1l.5.1c1.3.3,2.1,1.7,1.8,3s-1.8,2-3.1,1.7Z"/></g><path d="m176,56.9c4.1-2.5,10.8-4.2,19.9-5.1,6.6-.5,14.7.1,24.2,1.7-.2-.1-2.1-2.5-5.6-7.1-.8-.9-2-2.1-3.7-3.7-5.5-5.1-10.2-8.8-14.2-11-3.9-2.2-7.1-3.4-9.8-3.6-1.3-.3-3.4.9-6.2,3.4l-4.6,25.4Z"/><path d="m174.5,55.3c-6.9-5.1-14.4-8.1-22.4-9-3.3-.2-6.9,0-10.6.7-5.3.9-10.5,2.5-15.7,4.9-.5.1-.6-.1-.2-.7,10.3-12,20.9-19.9,31.7-23.8,10.9-3.3,22.1-2.5,33.4,2.3l-16.2,25.6Z"/><path d="m137.9,56.1c6.6-6.8,13.2-11.3,20-13.7,9-3.6,17.1-4.7,24.2-3.5-6.9-2.1-13.8-3.4-20.6-3.9-1.8-.1-3.9-.2-6.1-.1.2-.1-4.8.2-14.8.9-1.6.1-3,0-4.2-.1l1.5,20.4Z"/></g></svg>