<svg viewBox="0 0 2000 2000" xmlns="http://www.w3.org/2000/svg">
        <g>
            <path
                d="M1851.6 1060.3c0 241.3-100.4 459.2-261.8 614.1-22.9 22-47 42.7-72.2 62-49.6 38-103.4 70.6-160.7 97.1-61.5 28.4-127.1 49.7-195.5 62.8-5 1-10 1.9-15 2.7-33.5 5.8-67.7 9.7-102.5 11.4-14.4.7-29 1.1-43.6 1.1-11.2 0-22.4-.2-33.4-.7-45.2-1.7-89.5-7-132.7-15.5-6.2-1.2-12.3-2.5-18.4-3.8-182-40.2-342-138.7-459.6-274.8-46.3-53.5-86.1-112.9-118-176.8-10.8-21.6-20.7-43.9-29.7-66.5-38.4-96.9-59.4-202.5-59.4-313.1-.1-470.2 381-851.3 851.2-851.3 470.1 0 851.3 381.1 851.3 851.3z"
                fill="#efe7e4" />
            <path
                d="M1475.4 507.3s96.2-30.6 135.5 63.8c39.2 94.4-41 215.1 26.7 268.4s119.4 15.4 119.4 15.4 11.8 96.3-55.3 162.8c-102.9 102-340.3 200.7-569.6 119.3-229.4-81.5 343.3-629.7 343.3-629.7z"
                fill="#d6d6d6" />
            <path
                d="M1589.8 1674.4c-22.9 22-47 42.7-72.2 62-49.6 38-103.4 70.6-160.7 97.1l99-466.8c26.9 12.4 78.4 143.1 133.9 307.7z"
                fill="#ff6d2b" />
            <path
                d="M1443.3 1019.1c1.5 46.6 46.3 78.4 90.9 65 7.4-2.2 4.3-13.9-3.2-11.7-36.9 11.1-74.3-14.4-75.6-53.4-.3-7.7-12.4-7.8-12.1.1zm62.7-436.6c50.5 58.4 49.9 141.1 40.5 213.4-8.1 62-31.7 150.3 28.3 195.4 24.6 18.5 60.8 19.3 83.3-2.8 5.6-5.5-3-14-8.6-8.6-22.3 21.9-57.7 14.3-77.2-7.3-22.5-24.8-26.7-60.8-24.8-92.9 2.2-36.6 10.5-72.7 13.9-109.2 3.3-34.6 3.5-69.8-3.4-104-6.8-34-20.8-66.2-43.6-92.5-4.9-5.9-13.5 2.7-8.4 8.5zm-470.9-190.2c20.7 49 13.3 107.1-.8 156.9-13.2 46.5-44.5 95.5-97.3 99.6-7.7.6-7.8 12.7 0 12.1 55.8-4.3 91.5-52 107-101.8 17.1-54.8 24.4-118.9 1.6-172.9-3.1-7.2-13.5-1-10.5 6.1z"
                fill="#fff5f0" />
            <path
                d="M1000.4 788.8s-117.6 87-178 184.6c-60.4 97.5-80.9 228.7-80.9 228.7l376.2 84.3s42.8-186.6 101.1-228.7c58.4-42.2-218.4-268.9-218.4-268.9z"
                fill="#ffb391" />
            <path
                d="M1233.5 1046.2s-28.9 19.1-46.3 49.3c-21.3 37.1-27.2 56-27.2 56s-92-36.7-120.7-124.2c-28.7-87.6 23.8-114.1 23.8-114.1z"
                fill="#f19267" />
            <path d="M1131.2 255.4c412.5-117 640.4 755.6 221.1 846.3S761 360.4 1131.2 255.4z"
                fill="#ffb391" />
            <path
                d="M1517.6 1736.4c-143.4 109.9-322.7 175.2-517.3 175.2-333.7 0-622.6-192.1-762.1-471.6 54.2-71.7 94.9-106.4 151.4-124.7 252-81.5 957.8-29.6 1059.3 42.9 25 17.9 48.4 165.2 68.7 378.2z"
                fill="#ff6d2b" />
            <path
                d="M1407.6 1418.6c-27 52.6-54 105.2-81.2 157.7-55 106.7-110.1 213.3-165.1 320-5 1-10 1.9-15 2.7 83.6-162.2 167.5-324.2 250.8-486.6 3.6-6.9 14-.7 10.5 6.2zm-843.9 124.1c86.5 120.3 176.9 237.8 270.5 352.7-6.2-1.2-12.3-2.5-18.4-3.8-55.4-68.2-109.6-137.3-162.6-207.3-75.3-99.6-148.2-201-217.6-304.9-4.3-6.5 6.1-12.6 10.5-6.1 38.1 57 77.4 113.5 117.6 169.4z"
                fill="#fff" />
            <path
                d="m1332.3 1322.1-288.4 588.4c-14.4.7-29 1.1-43.6 1.1-11.2 0-22.4-.2-33.4-.7l-484-617.1s91.8-16.9 235.2-25.9c0 0 5.2-156.7 45.9-159.3 40.8-2.6 409.8 18.5 416.7 42.9 5.1 17.6-16 141.8-16 141.8s42.9 4.5 81.1 10.3c46.4 7 86.5 18.5 86.5 18.5z"
                fill="#fff5f0" />
            <path
                d="m401.4 1311.6-45.3 305.2c-46.3-53.5-86.1-112.9-118-176.8-10.8-21.6-20.7-43.9-29.7-66.5 124.9-53.7 193-61.9 193-61.9z"
                fill="#ff6d2b" />
            <path
                d="M994.1 676.6s78.2 27.7 112.5-56.9-28-261.4-28-261.4 88.3-82.4 254.1-12.2c151.6 64.1 180 140.5 180 140.5s93.4-407.7-345.5-407.7c-316.7 0-368.8 127.5-368.8 127.5s-196.2-83.7-242.8 247.5c-38.4 273.1-294.9 492.3-94.7 627.5 40.4 27.3 609 127.7 595.1 106.2-104.2-160.4-71.9-386.2-71.9-386.2z"
                fill="#94a9fa" />
            <ellipse cx="911.6" cy="736.2" fill="#ffb391" rx="117.9" ry="177.9"
                transform="rotate(-66.965 911.546 736.17)" />
            <path
                d="M891.8 746.2c17.4-11.3 37.7-20 58.7-15.1 17.9 4.1 40.3 16 49.8 32.1l8.3-8.3c-24.8-15.2-56.5-12.4-78.8 6.1-6 5 2.6 13.5 8.6 8.6 18.1-15 44.2-16.4 64.1-4.2 5.2 3.2 11.3-3.1 8.3-8.3-11.3-19.1-35.9-32.6-57-37.7-24.2-5.8-47.9 3.3-68.1 16.3-6.5 4.3-.4 14.8 6.1 10.5z"
                fill="#f19267" />
            <g fill="#1c1c1c">
                <path
                    d="M1466.3 632.8c15.3-23.5 44.7-31.6 67.7-13.4 6.1 4.8 14.7-3.7 8.6-8.6-29.3-23.1-66.7-14.7-86.7 15.9-4.3 6.5 6.2 12.6 10.4 6.1zm-133.5 6.2c-40.6-28.2-96.4-20.9-127.8 17.4-4.9 6 3.6 14.6 8.6 8.6 28.2-34.4 76.6-41 113.1-15.5 6.4 4.4 12.5-6 6.1-10.5z" />
                <path
                    d="M1228.5 645.1s-6.2 50.2 17.4 50.2 31.5-64.1 31.5-64.1-22.9.4-48.9 13.9zm247.1-31.5s-6.2 50.2 17.4 50.2 21.6-56.4 21.6-56.4-12.9-7.3-39 6.2z" />
                <path
                    d="M1510.7 529.3c-28.7 5.4-52.6 24.5-67.6 49.1-18 29.3-21.7 65.1-18.1 98.7 4 38.6 17.1 75.2 27.5 112.3 5 17.6 13.9 39.2-2.3 53.6-14.9 13.2-36.6 11.8-55.1 10.8-7.8-.4-7.8 11.7 0 12.1 28 1.5 69.6-1 76.2-35.8 3.1-16.5-4.8-35.6-9.3-51.3-5.8-19.8-12.1-39.5-17.1-59.6-9.3-37.4-14.3-78-.9-115.1 11.3-31 36.8-56.9 69.9-63.1 7.7-1.5 4.5-13.2-3.2-11.7zM1196 583.2c46.7-28 107-26.5 152.5 3.4 6.5 4.3 12.6-6.2 6.1-10.5-48.9-32.2-114.5-33.4-164.7-3.4-6.7 4.1-.7 14.6 6.1 10.5zm133.4 333.1c22.7 15.6 50.8 20.1 77.3 12.8 7.5-2.1 4.3-13.7-3.2-11.7-23.6 6.5-47.8 2.2-67.9-11.6-6.5-4.3-12.6 6.1-6.2 10.5z" />
            </g>
            <path
                d="M1254.3 467.1c33.5 4 62.9-14.3 94.9-20 33.7-6 68.7 2 101.1-11.5 7.1-3 4-14.7-3.2-11.7-31.1 13-65.1 5.9-97.6 10.9-32.2 5-61.8 24.1-95.2 20.1-7.7-.8-7.7 11.3 0 12.2zm103.8 39.4c25.5 2.9 51.1 1.1 75.8-5.6 7.5-2 4.3-13.7-3.2-11.7-23.8 6.4-48.2 7.9-72.6 5.2-7.8-.9-7.7 11.2 0 12.1zm-34.2 174.6c-11.5 27.8-42.8 38.6-68.2 49.7-7.1 3.1-1 13.5 6.1 10.5 29.3-12.8 60.7-25.2 73.7-56.9 3-7.3-8.7-10.4-11.6-3.3zm147-1.4c15.8 16.5 35.5 28 57.6 33.6 7.6 1.9 10.8-9.8 3.2-11.7-20.2-5.1-37.9-15.4-52.3-30.5-5.3-5.6-13.9 3-8.5 8.6zm-187.8 263.2c30.1-17.2 55-41.8 72.6-71.6 4-6.7-6.5-12.8-10.5-6.1-16.6 28.1-39.9 51-68.2 67.2-6.7 3.9-.6 14.4 6.1 10.5zm43.5 37.3c16.9-9.2 36.6-8.7 53.1 1.1 6.7 4 12.8-6.5 6.1-10.5-20.2-12-44.7-12.4-65.3-1.1-6.8 3.7-.7 14.2 6.1 10.5z"
                fill="#f19267" />
            <path
                d="M756.2 1289.7c65.4 18 132.3 30.6 199.8 37.3 64.1 6.4 134.8 13.4 196.7-8.5 7.3-2.6 4.2-14.3-3.2-11.7-60.8 21.6-130.5 14.3-193.4 8.1-66.5-6.6-132.2-19.1-196.6-36.8-7.6-2.1-10.8 9.6-3.3 11.6z"
                fill="#f7d2c1" />
            <path
                d="M1060.4 281.6c45.4-41.1 106.7-63 167.9-59.2 61.7 3.8 120 33.7 160.1 80.7 24 28.2 41.8 61.1 59.2 93.6 3.7 6.9 14.1.8 10.5-6.1-31.8-59.5-67-117.2-127.9-150.6-56.3-30.9-123.3-38.4-184.8-19.9-34.7 10.5-66.6 28.6-93.5 53-5.8 5.2 2.8 13.7 8.5 8.5zM940.8 299c10.8 69.5-15.4 137.5-56.7 192.6-21.3 28.3-46.7 53.6-74.5 75.5-28.5 22.4-60.6 39.5-89.4 61.4-26.7 20.3-49.7 45.1-59.6 77.8-9 29.6-4.7 61.6 16.7 84.8 23.4 25.4 58.7 35.6 81.5 61.7 12.7 14.5 19.6 32.8 12.2 51.5-6.6 16.8-20.6 29.4-32 42.9-20.1 23.9-35 63-3.3 84.5 20.9 14.2 59.4 11.3 70.8 36.9 3.2 7.1 13.6.9 10.5-6.1-10.2-22.8-37.7-26.1-58.7-33.4-12.6-4.4-25.7-11.3-28.7-25.5-4-18.8 9.4-38 21.1-51.3 20.2-23.1 44.3-49.1 32.6-82.3-11.4-32-43.1-48.3-69.8-65.5-14.4-9.3-28.8-20-37.2-35.3-8.5-15.5-9.7-33.8-6.1-50.9 7.7-36.3 33.8-63.2 63-84.2 28.8-20.8 59.9-38 87.6-60.3 26.4-21.2 50.4-45.4 71.1-72.2 45.1-58.7 72.3-131.2 60.8-205.7-1.4-7.8-13.1-4.5-11.9 3.1zm-104.9-29.2c-56.7-20-112.4 23.5-134.8 73.2-27.5 61-21.3 130.3-43.7 192.8-11.7 32.5-32.6 57.1-58.4 79.3-23.9 20.5-49.9 39.3-68.2 65.5-16 23-27 52.2-20.7 80.4 3.3 14.8 12.3 26.3 19.9 39 9.2 15.3 10 31.1 3.9 47.7-11.7 31.3-38.4 54.3-46.6 87.3-6 24-3.2 52.2 20.7 65 6.9 3.7 13-6.8 6.1-10.5-22.5-12.1-19.5-40.7-12.1-61.3 9.5-26.5 30.8-46.9 41.7-72.9 5-11.9 7.8-24.9 5.8-37.8-2.2-14.2-10.5-25.4-18-37.2-16.9-26.6-12.3-56.5 2.9-82.9 29.9-52 91.1-75.7 120.9-128.1 30.8-54.1 28.6-118.4 42.4-177.6 7.7-32.9 20.7-65.6 46.6-88.5 24-21.2 57.3-32.7 88.4-21.7 7.4 2.6 10.5-9.1 3.2-11.7z"
                fill="#fff5f0" />
            <path
                d="M943.3 211.6c69.2-48.5 153.9-72 238.1-67.8 84.9 4.2 177.6 35.4 221.9 112.8 23.5 41 34.2 87.8 43.3 133.7 1.5 7.6 13.2 4.4 11.7-3.2-8.5-42.5-18.5-85.3-38-124.2-20-40-50.6-71.8-90.3-92.6-77.6-40.6-171.6-48.3-256.3-29.3-48.9 11-95.5 31.3-136.6 60.1-6.2 4.5-.2 15 6.2 10.5z"
                fill="#fff5f0" />
            <ellipse cx="971.2" cy="870.1" fill="#fff5f0" rx="43.3" ry="43" />
        </g>
</svg>