<svg xmlns="http://www.w3.org/2000/svg" data-name="Layer 2" viewBox="0 0 383.723 387.626"><g fill="#1c1c1c" class="color000000 svgShape" data-name="Layer 1"><path fill="#fff" d="m237.747,199.302c.005-.186.016-.386.015-.556.023-.681-.03-1.251-.16-1.711-.096-.279-.193-.531-.289-.797.013-1.725-.056-3.49-.21-5.296.13-1.137.177-2.718.141-4.742.035-1.439.267-3.68.694-6.725l.063-4.498c-.126-2.536-.394-4.211-.804-5.025-.323-.678-.543-.858-.66-.541-.548,2.249-.947,3.608-1.196,4.076-.244.614-1.123,2.154-2.635,4.621l-6.351,8.209c-1.856,2.083-3.357,3.578-4.501,4.487-.219.228-.393.449-.547.667l-10.841,5.935c-.457.342-4.102,1.275-10.937,2.797-.346.149-2.128.384-5.345.704-.848.17-1.59.418-2.225.743-.046.017-.081.042-.125.06-.38-.065-.802-.137-1.264-.218l-4.851-.564c-.388-.01-1.717-.383-3.987-1.116-.656-.158-1.219-.22-1.69-.187-.421-.01-.743.181-.988.532l-2.414-.874-3.477-1.414c-1.63-.685-4.496-2.337-8.577-4.942l.714.006c-.881-.946-2.449-2.36-4.706-4.241l-3.11-3.736c-.233-.272-.453-.502-.662-.69-.69-.672-1.37-1.003-2.042-1.009-.459-.741-.981-1.671-1.569-2.804l-6.513-13.703c-.36.28-.59,1.364-.689,3.251-.05.361.066,1.493.349,3.394l.132,3.003c-.031.986-.03,2.371.002,4.155-.025,1.746-.126,3.706-.302,5.879-.02,2.032.02,3.72.12,5.064l-.064,4.392c-.08,2.271-.468,5.064-1.164,8.376-.091,1.439-.085,2.057.019,1.857,1.19,1.34,3.432,2.455,6.726,3.345.337.163.635.152.897-.014,7.468,1.927,11.505,3.036,12.1,3.323l3.994.795,10.966,1.43c4.2.342,7.23.423,9.089.246.458-.105.893-.218,1.314-.336l2.173.266c1.616.115,4.926.135,9.928.06l7.361-1.127c1.584-.378,3.669-.752,6.255-1.122l3.09-.772,9.065-1.508c1.245-.16,2.19-.692,2.838-1.593.552-.156,1.143-.326,1.792-.515,3.361-.603,4.946-.952,4.755-1.046.541.079.919-1.137,1.135-3.648.076-.64-.159-2.029-.705-4.168-.039-.151-.086-.289-.129-.435Z" class="colorfefefe svgShape"/><path fill="#fff" d="m280.577,104.54c-.389-1.341-.807-2.176-1.253-2.504l-5.394-4.534c-3.323-.745-6.858-.156-10.602,1.748l1.754-1.958c-1.74,1.251-3.205,2.42-4.412,3.512-1.8,1.182-3.646,2.651-5.539,4.415.06-.247.117-.476.178-.736.847-6.36,1.335-11.427,1.463-15.203l.667-5.111c.29-3.314.311-6.828.064-10.54-.059-.297-.419-.571-1.082-.822-3.826-.458-6.835-1.087-9.028-1.885-2.141-.773-3.673-1.469-4.596-2.088-.827-.537-1.391-1.085-1.716-1.643-.026-.222-.047-.436-.078-.668-.174-.974-.373-1.753-.599-2.336l-1.241-2.964-.047-.149c-.026-.084-.058-.143-.093-.184l-1.047-2.5c-2.118-4.539-4.458-6.621-7.02-6.244-1.141.221-1.984.707-2.528,1.458-.719,1.453-1.749,3.071-3.088,4.854-.031.064-.052.116-.081.178l-1.448-7.942c-.565-1.495-1.35-2.625-2.354-3.387-2.114-1.291-3.92-1.787-5.42-1.49-1.853.181-4.049,1.423-6.587,3.727-1.931,1.862-2.684,4.194-2.268,6.994-2.064,7.759-3.193,12.585-3.382,14.461-.076.618-.614,1.65-1.613,3.094-.387,1.215-2.868,3.043-7.443,5.485-.78.27-2.195.538-4.244.804l-6.243.157c-.523.008-.873.099-1.049.273-.104.193-.178.384-.263.576l-6.479-.254c-1.883-.071-4.269-.318-7.158-.74l-7.971-.217c-3.021-.343-6.853-.624-11.496-.846-10.827-1.553-16.8-2.306-17.917-2.26-3.384-.815-5.209-1.13-5.476-.946-.792,1.441-.841,7.236-.148,17.385.326,1.11.663,2.088,1.01,2.945-.046.758-.066,1.619-.053,2.609.22,2.078.442,4.015.664,5.826-.616-1.305-1.635-2.564-3.112-3.771-.983-.831-3.618-1.975-7.904-3.432-1.854-1.205-4.807-.832-8.861,1.121-1.998,1.244-3.593,4.238-4.788,8.983l-.123,10.037c-.014.745.326,2.082,1.02,4.011,1.739,5.001,4.987,9.204,9.745,12.612,2.695,2.012,6.739,3.514,12.134,4.506,2.188.669,4.519-.19,6.993-2.578.177-.149.379-.381.593-.654.618,2.857,1.348,6.416,2.191,10.684,1.817,5.385,3.817,9.66,6,12.823l11.191,14.701c4.34,3.279,8.033,5.884,11.082,7.814.437.33.857.529,1.262.608.199.18.405.36.621.541,2.397,1.299,6.915,2.774,13.553,4.425.393.182,1.903.36,4.531.534,4.912,1.116,7.525,1.584,7.838,1.401,9.652-.548,15.939-1.385,18.863-2.51,7.141-3.799,11.708-6.936,13.727-9.416.148-.104.295-.201.444-.314,8.046-5.389,14.178-12.431,18.398-21.128,3.636-8.207,5.468-12.688,5.498-13.443.507-2.198,1.016-4.312,1.527-6.349l8.275,2.263c.734.15,1.804.054,3.21-.288,1.748-.045,4.926-1.768,9.535-5.169,5.333-5.278,8.154-9.039,8.461-11.282,1.945-5.686,2.196-11.38.752-17.082Z" class="colorfefefe svgShape"/><g class="color000000 svgShape"><path d="m383.723,331.84l-.095-4.025v-.025s-.188-3.94-.188-3.94v-.025s-.282-3.935-.282-3.935l-.002-.025-.374-3.927-.003-.025-.467-3.917-.003-.024-.56-3.905-.004-.025-.652-3.89c-.005-.032-.025-.057-.033-.088-.005-.022.001-.044-.005-.066l-.66-2.411-.014-.047-.772-2.377-.016-.046-.883-2.338-.018-.045-.991-2.294-.021-.045-1.098-2.245-.022-.044-1.202-2.191-.025-.042-1.304-2.132-.026-.041-1.402-2.069-.03-.041-1.592-2.119-.032-.041-1.695-2.037-.034-.039-1.794-1.951-.036-.037-1.889-1.859-.038-.036-1.979-1.763-.04-.034-2.065-1.662-.041-.032-2.145-1.557-.043-.03-2.22-1.448c-.071-.046-.15-.063-.227-.09-.019-.011-.03-.028-.05-.038l-5.548-2.695c-.179-.126-.344-.252-.527-.377-2.311-1.621-5.92-3.254-10.797-4.899l-3.158-1.432-.026-.011-10.183-4.294-.026-.01-10.293-4.021-.026-.01-10.396-3.746-.026-.009-10.492-3.469-.024-.008-8.627-2.623-.021-.006-8.682-2.435-.022-.006-8.732-2.246-.022-.005-8.779-2.056-.022-.005-8.822-1.865-.022-.005-1.14-.215c-.029-.109-.064-.217-.13-.315l-.285-.425-.27-.418-.261-.423-.259-.437-.248-.436-.235-.432-.375-.732-.348-.733-.327-.745-.304-.754-.284-.77-.194-.58c-.002-.008,0-.016,0-.024l-.162-.677-.136-.66-.115-.667-.094-.672-.071-.67-.051-.678-.03-.725-.004-.729.021-.732.045-.723.071-.724.097-.729.124-.733c.002-.014-.003-.028-.001-.042l.126-.463.008-.032.12-.5.007-.031.105-.503.006-.032.089-.506.005-.032.073-.509.004-.032.058-.511.004-.045.064-.921.002-.058.013-.923v-.058s-.039-.922-.039-.922l-.004-.058-.089-.919-.007-.058-.14-.912-.01-.057-.19-.903-.013-.057-.24-.891-.017-.056-.289-.877-.02-.055-.337-.859-.023-.054-.384-.839c-.044-.097-.113-.172-.18-.248-.217-.519-.801-.782-1.333-.583l-4.416,1.649-.406-5.283-.323-6.031-.178-6.034-.033-6.044.113-6.043.259-6.036.396-5.916,1.71-2.489.027-.041,1.651-2.661.025-.042,1.525-2.735.023-.043,1.395-2.803.021-.044,1.263-2.865.019-.045,1.127-2.922.016-.046.963-2.891c.009-.026.027-.045.034-.072l1.565-6.278.005-.022.326-1.438.438.281.055.033.749.419.056.029.773.372.058.026.795.325.06.022.813.276.061.018.828.226.062.015.84.175.063.011.85.123.063.007.855.071.061.003.771.02h.058s.771-.023.771-.023l.057-.003.769-.065.057-.006.765-.107.056-.009.758-.149.056-.013.748-.19.055-.016.737-.231.054-.019.723-.271.053-.022.707-.31.052-.024.689-.348c.05-.025.083-.068.127-.1.002-.001.005,0,.007-.002l1.152-.646.039-.023,1.124-.694.037-.024,1.093-.742.036-.026,1.06-.787.035-.028,1.026-.832.034-.029.99-.875.032-.03.951-.916.031-.031.911-.956.029-.032.814-.927.027-.032.776-.959.025-.033.738-.989.024-.034.698-1.017.023-.035.657-1.044.022-.036.615-1.07.02-.036.572-1.093.019-.037.528-1.115c.019-.041.018-.084.031-.125.018-.036.048-.063.062-.102l.421-1.177.016-.047.365-1.196.013-.048.307-1.212.011-.049.249-1.225.009-.049.19-1.235.006-.05.131-1.243.004-.05.071-1.248.002-.05.011-1.25v-.049s-.045-1.183-.045-1.183l-.003-.047-.098-1.179-.005-.047-.151-1.174-.007-.047-.204-1.166-.009-.047-.257-1.155-.011-.046-.309-1.142-.013-.045-.36-1.127-.015-.045-.411-1.11c-.027-.074-.078-.129-.119-.193-.002-.003-.001-.006-.003-.009l-.357-.613-.035-.055-.394-.59-.038-.053-.431-.564-.041-.051-.465-.536-.044-.048-.497-.506-.047-.045-.528-.474-.05-.042-.557-.44-.052-.039-.583-.405-.055-.036-.607-.367-.057-.032-.629-.329-.059-.028-.648-.289-.062-.025-.688-.256-.064-.021-.703-.211-.065-.017-.715-.165-.066-.013-.724-.119-.067-.009-.73-.072-.067-.005-.734-.024h-.067l-.734.023-.067.004-.731.071-.067.009-.725.118-.066.013-.716.164-.065.017-.703.21-.064.021-.688.255c-.052.019-.089.057-.135.084-.017.007-.036.004-.053.012l-.769.34-.04.019-.753.372-.04.021-.737.404-.038.022-.719.435-.038.024-.7.465-.036.025-.68.494-.035.027-.448.356.005-.009,1.762-3.648.022-.049,1.575-3.733.019-.05,1.384-3.808.017-.051,1.189-3.873.014-.052.991-3.928.012-.052.791-3.973.009-.053.589-4.008.006-.052.375-3.894.004-.052.184-3.908v-.052s-.006-3.912-.006-3.912v-.052s-.199-3.907-.199-3.907l-.004-.052-.389-3.893-.006-.051-.579-3.869-.009-.051-.767-3.836-.011-.05-.954-3.794c-.011-.043-.04-.075-.055-.116-.013-.086-.018-.173-.053-.256l-.56-1.307-.023-.049-.626-1.277-.025-.048-.691-1.243-.028-.047-.754-1.206-.03-.045-.815-1.165-.032-.044-.874-1.122-.034-.042-.931-1.075-.036-.04-.985-1.026-.035-.035-.861-.816-.033-.03-.895-.779-.035-.029-.927-.74-.036-.028-.958-.699-.037-.026-.987-.657-.038-.024-1.014-.615-.039-.023-1.04-.57-.04-.021-1.048-.518c-.026-.015-.043-.039-.071-.052l-1.409-.657-.038-.017-1.435-.602-.039-.015-1.457-.545-.039-.014-1.477-.487-.04-.012-1.495-.429-.04-.011-1.511-.37-.041-.009-1.524-.31-.041-.007-1.535-.25-.04-.006-1.43-.178-.039-.004-1.435-.126-.038-.003-1.439-.073h-.039s-1.44-.022-1.44-.022h-.039s-1.44.032-1.44.032l-.038.002-1.438.084-.038.003-.929.088-2.325-2.456-.045-.044-2.823-2.646-.047-.042-2.975-2.473-.05-.039-3.117-2.292-.052-.036-3.249-2.101-.054-.033-3.368-1.904-.056-.03-3.475-1.7-.057-.026-3.571-1.49-.059-.023-3.653-1.275-.06-.019-3.722-1.055-.065-.016-4.316-.931-.071-.013-4.37-.635-.072-.008-4.403-.337-.072-.003-4.415-.037-.072.002-4.408.264-.072.007-4.38.563-.071.011-4.331.859-.07.016-4.263,1.152-.069.021-4.175,1.439-.067.026-4.067,1.719-.065.03-3.941,1.992-.063.034-3.74,2.221c-.088.027-.178.048-.26.101l-1.907,1.219-.036.024-1.856,1.296-.035.026-1.801,1.371-.034.027-1.744,1.444-.033.028-1.683,1.514-.032.03-1.62,1.581-.03.031-1.554,1.646-.029.032-1.485,1.708-.029.034-1.481,1.855-.028.036-1.4,1.917-.026.037-1.317,1.975-.024.038-1.23,2.03-.023.039-1.142,2.081-.021.04-1.052,2.128-.019.041-.96,2.171c-.03.068-.031.14-.046.21-.013.032-.037.055-.048.088l-1.22,3.999-.013.048-1.03,4.052-.011.049-.837,4.096-.009.049-.643,4.131-.006.05-.446,4.157-.004.05-.249,4.173-.002.05-.051,4.18v.05s.147,4.178.147,4.178l.003.05.344,4.167.005.047.48,3.746.007.045.64,3.722.009.044.798,3.691.01.044.955,3.654.012.044,1.11,3.609.014.043,1.264,3.559.016.042,1.37,3.391-.102-.089-.034-.028-.658-.523-.035-.027-.679-.494-.037-.025-.7-.465-.038-.024-.719-.435-.038-.022-.737-.404-.04-.021-.753-.372-.04-.019-.769-.34c-.017-.008-.036-.005-.053-.012-.047-.026-.083-.064-.135-.084l-.688-.255-.064-.021-.703-.21-.065-.017-.716-.164-.066-.013-.725-.118-.067-.009-.73-.071-.067-.004-.734-.023h-.068l-.734.024-.067.005-.731.072-.067.009-.724.119-.066.013-.715.165-.065.017-.703.211-.064.021-.688.256-.062.025-.648.289-.058.028-.629.329-.057.032-.607.367-.055.036-.583.405-.052.039-.557.44-.05.042-.528.474-.047.045-.497.506-.044.048-.465.536-.041.051-.43.564-.038.053-.394.59-.035.055-.357.613s-.001.006-.003.009c-.041.063-.092.119-.119.193l-.411,1.11-.015.045-.36,1.127-.013.045-.309,1.142-.011.046-.257,1.155-.009.047-.204,1.166-.007.047-.151,1.174-.005.047-.098,1.179-.003.047-.045,1.183v.049s.01,1.25.01,1.25v.05s.072,1.248.072,1.248l.004.05.131,1.243.006.05.19,1.235.009.049.249,1.225.011.049.307,1.212.013.048.365,1.196.016.047.421,1.177c.014.039.043.066.061.102.014.042.012.085.031.126l.528,1.115.019.037.572,1.093.02.036.615,1.07.021.036.657,1.044.023.035.698,1.017.024.034.738.989.026.033.776.959.027.032.814.927.029.032.911.956.031.031.951.916.032.03.99.875.034.029,1.026.832.035.027,1.06.787.036.026,1.093.742.037.024,1.124.694.038.023,1.152.646s.005.001.007.002c.044.032.077.075.127.1l.689.348.052.024.707.31.053.022.723.271.054.019.737.231.055.016.748.19.056.013.758.149.056.009.765.107.057.006.77.065.057.003.771.023h.058s.771-.02.771-.02l.061-.003.855-.071.063-.007.849-.123.063-.011.84-.175.062-.015.828-.226.061-.018.813-.276.06-.022.795-.325.058-.026.773-.372.057-.029.749-.419.055-.033.438-.281.326,1.439.005.022,1.565,6.278c.007.026.025.045.034.071l.963,2.892.017.046,1.127,2.922.019.045,1.263,2.865.021.044,1.395,2.803.023.043,1.524,2.735.025.042,1.651,2.661.027.041,1.71,2.489.396,5.913.259,6.041.113,6.04-.033,6.041-.178,6.034-.323,6.034-.399,5.2-3.45-1.271c-.422-.238-.959-.178-1.294.198l-.249.279-.038.045-.233.293-.036.048-.216.306-.032.049-.198.317-.03.052-.18.328-.027.053-.161.338-.024.054-.142.346-.021.056-.122.354-.018.057-.102.36-.014.058-.081.366-.011.058-.061.37-.008.059-.039.373-.004.059-.018.375v.06s.002.375.002.375l.002.06.024.374.006.059.045.372.009.059.066.369.012.058.087.365c.014.057.049.101.071.154l.154.852.126.876.095.88.063.882.032.893v.88s-.031.89-.031.89l-.054.782-.079.779-.104.781-.129.774-.153.77-.181.78c-.008.035.001.068-.003.102l-.231.963-.296,1.039-.339,1.027-.381,1.009-.423.993-.463.974-.506.958-.543.932-.328.523-.337.51-.347.499-.361.495-.378.493-.39.484c-.116.145-.173.312-.202.483l-8.593,1.817-.022.005-8.779,2.056-.022.005-8.732,2.246-.022.006-8.682,2.435-.022.006-8.627,2.623-.024.008-10.492,3.469-.026.009-10.396,3.746-.026.01-10.293,4.021-.026.01-10.182,4.294-.026.011-10.065,4.563-.025.012-9.94,4.829c-.02.01-.031.027-.05.038-.077.027-.156.044-.227.09l-2.22,1.448-.043.03-2.145,1.557-.041.032-2.065,1.662-.04.034-1.979,1.763-.038.036-1.889,1.859-.036.037-1.794,1.951-.034.039-1.695,2.037-.032.041-1.592,2.119-.03.041-1.402,2.069-.026.041-1.304,2.132-.025.042-1.202,2.191-.023.044-1.098,2.245-.021.045-.991,2.294-.018.045-.883,2.338-.016.046-.772,2.377-.014.047-.659,2.411c-.006.022,0,.044-.005.067-.008.031-.028.056-.033.088l-.652,3.89-.004.025-.56,3.905-.003.024-.467,3.917-.003.025-.374,3.927-.002.025-.281,3.935v.025s-.189,3.94-.189,3.94v.025S0,331.84,0,331.84v.025s.002,4.026.002,4.026v.025s.1,4.024.1,4.024v.025s.198,4.021.198,4.021v.025s.296,4.015.296,4.015l.002.025.392,4.006c.011.114.052.216.096.315.1.301.317.56.639.673l22.71,7.967.045.015,23.042,6.946.046.012,23.33,5.911.046.01,23.57,4.865.047.009,23.763,3.809.047.006,23.91,2.745.047.004,24.008,1.675.047.002,24.059.603h.048l24.41-.486.048-.002,24.363-1.59.048-.004,24.266-2.69.048-.007,24.119-3.786.047-.008,23.923-4.874.047-.01,23.678-5.951.046-.013,23.385-7.017.045-.015,23.043-8.068c.427-.149.691-.545.703-.972.005-.027.021-.048.023-.076l.392-4.006.002-.025.295-4.015v-.025s.199-4.021.199-4.021v-.025s.101-4.024.101-4.024v-.025s.003-4.026.003-4.026v-.025Zm-123.539-229.448l.598-.518.629-.5.638-.464.665-.442.68-.411.7-.384.712-.352.748-.331c.025-.011.041-.033.065-.046.001,0,.002,0,.003,0l.658-.243.638-.19.649-.149.66-.107.662-.064.666-.021.669.022.661.065.657.108.651.15.638.191.626.233.588.262.569.298.553.335.528.366.506.4.479.431.453.461.421.486.391.512.358.536.34.584c.007.011.018.017.025.028l.347.936.346,1.083.296,1.096.246,1.108.197,1.124.145,1.122.094,1.134.042,1.132-.01,1.202-.068,1.199-.125,1.194-.182,1.185-.239,1.178-.294,1.163-.35,1.148-.413,1.152c-.003.008,0,.016-.003.024-.003.005-.008.009-.01.014l-.52,1.098-.551,1.053-.595,1.036-.635,1.01-.672.979-.712.954-.753.93-.786.896-.882.924-.918.884-.955.844-.993.805-1.024.76-1.054.716-1.085.671-1.135.636c-.037.021-.059.055-.092.079l-.628.317-.653.286-.671.251-.682.214-.693.176-.703.138-.706.099-.713.06-.714.021-.712-.018-.795-.066-.788-.114-.777-.162-.765-.208-.755-.256-.733-.3-.719-.346-.691-.386-.67-.43-.373-.273.607-2.675.005-.022,1.298-6.339.004-.022,1.163-6.365.004-.022.097-.603c.046-.035.099-.057.139-.1l.848-.917.87-.857.912-.819.946-.774.418-.311c.082.032.161.072.252.083l.444.053.415.072.41.094.401.116.398.139.39.16.376.179.37.201.356.22.347.241.329.256.318.276.301.291.284.306.269.324.25.336.232.35.227.387c.292.498.932.664,1.43.372.498-.292.664-.932.372-1.43l-.241-.41-.03-.048-.263-.397-.032-.046-.284-.382-.035-.044-.304-.366-.037-.043-.323-.349-.04-.041-.342-.331-.042-.038-.36-.312-.044-.036-.376-.292-.045-.033-.391-.271-.048-.031-.406-.25-.049-.029-.419-.228-.051-.026-.43-.205-.052-.023-.441-.181-.053-.02-.45-.157-.054-.017-.115-.033.211-.128,1.07-.586,1.108-.541,1.125-.486,1.151-.436,1.165-.38,1.188-.328,1.197-.271,1.212-.216,1.241-.162c.572-.075.975-.599.901-1.171-.075-.572-.599-.975-1.171-.901l-1.267.166-.048.007-1.258.224-.047.01-1.246.282-.047.012-1.231.34-.046.014-1.214.396-.046.016-1.195.452-.045.018-1.172.507-.044.02-1.147.561-.043.022-1.116.611-.042.024-1.086.662-.041.026-1.055.711-.039.028-1.021.759-.038.03-.985.805-.037.031-.824.74.364-2.262.003-.022.833-5.982.383-.665.419-.663.445-.643.469-.62.501-.608.52-.58.544-.559.573-.54Zm-128.218,32.99l-.67.43-.691.386-.719.346-.733.299-.755.256-.764.208-.777.162-.788.114-.794.066-.712.018-.714-.021-.713-.06-.706-.099-.703-.138-.693-.176-.682-.214-.67-.251-.653-.286-.628-.317c-.033-.024-.055-.058-.092-.079l-1.133-.635-1.087-.672-1.054-.715-1.027-.763-.99-.802-.957-.845-.919-.885-.881-.924-.785-.895-.753-.929-.712-.954-.674-.983-.632-1.005-.597-1.039-.551-1.054-.519-1.096c-.003-.005-.008-.008-.01-.014-.003-.008,0-.016-.003-.024l-.412-1.152-.35-1.148-.295-1.163-.239-1.178-.182-1.184-.125-1.196-.068-1.199-.01-1.199.043-1.134.094-1.132.145-1.123.197-1.123.246-1.108.296-1.095.346-1.084.347-.936c.007-.011.018-.017.025-.028l.34-.585.358-.536.39-.511.422-.486.452-.46.479-.431.507-.401.527-.366.553-.335.57-.298.588-.262.626-.233.637-.191.651-.15.657-.108.661-.065.668-.022.666.021.662.064.66.107.649.149.638.19.658.243s.002,0,.003,0c.024.013.04.035.065.046l.748.331.712.352.7.384.681.412.664.441.638.464.63.501.598.518.571.539.544.558.521.581.501.607.469.62.447.645.419.662.383.665.833,5.982.003.022.364,2.263-.824-.74-.037-.031-.985-.805-.038-.03-1.021-.759-.039-.028-1.055-.711-.041-.026-1.086-.662-.042-.024-1.116-.611-.043-.022-1.147-.561-.044-.02-1.172-.507-.045-.018-1.195-.452-.046-.016-1.214-.396-.046-.014-1.231-.34-.047-.012-1.246-.282-.048-.01-1.258-.224-.048-.007-1.267-.166c-.572-.075-1.096.328-1.171.901-.075.572.329,1.096.901,1.171l1.241.162,1.212.216,1.196.271,1.189.328,1.165.38,1.15.435,1.125.487,1.107.541,1.07.586.211.128-.115.033-.054.017-.45.157-.053.02-.441.181-.052.023-.43.205-.051.026-.419.228-.049.029-.406.25-.047.031-.391.271-.045.033-.376.292-.044.036-.36.312-.042.038-.342.331-.04.041-.324.349-.037.043-.304.366-.035.044-.284.382-.032.046-.263.397-.03.048-.241.41c-.292.498-.126,1.138.372,1.43.498.292,1.138.125,1.43-.372l.227-.387.231-.349.25-.337.268-.323.284-.306.301-.291.317-.275.329-.256.348-.241.357-.22.37-.201.376-.179.39-.16.398-.138.402-.116.41-.094.415-.072.444-.053c.092-.011.17-.051.252-.083l.417.31.947.775.911.818.871.858.848.916c.041.044.094.065.14.101l.097.603.004.022,1.163,6.365.004.022,1.298,6.339.005.022.607,2.675-.374.273Zm9.468,20.4l-1.373-2.759-1.244-2.822-1.11-2.878-.982-2.947s-.004-.006-.005-.01l-1.519-6.093-1.428-6.293-1.292-6.315-1.158-6.339-1.025-6.37-.889-6.39-.757-6.443-.62-6.46-.482-6.464-.344-6.478-.103-3.232c5.065.611,10.64,1.255,19.133,2.092,9.988.984,24.09,2.241,34.733,2.241.266,0,.534,0,.795-.002h0c10.604-.065,17.996-1.437,21.64-6.401,1.346-1.833,2.12-4.081,2.64-6.402.448-1.999.719-4.117.981-6.15.257-1.997.502-3.899.889-5.628h0c1.251-5.587,3.942-9.166,6.704-10.39.794-.352,1.611-.518,2.404-.518,1.928,0,3.789.978,4.961,2.745,1.693,2.552,2.01,6.753,2.295,11.419-.133.49.084,1.016.561,1.235.308.141.641.106.925-.048.088-.037.161-.092.234-.15.002-.002.005-.003.007-.005.188-.151.316-.356.366-.598,2.002-4.361,3.668-7.696,5.25-8.148h0c.106-.03.221-.046.332-.046,1.301,0,3.269,2.004,4.864,5.434.436.938.821,1.936,1.222,2.976.4,1.037.818,2.125,1.303,3.166h0c.841,1.81,1.926,3.583,3.611,4.941,3.277,2.639,8.65,3.514,13.782,4.244l-.008.739-.206,6.487-.344,6.478-.482,6.467-.62,6.457-.757,6.443-.89,6.392-1.024,6.367-1.158,6.339-1.292,6.315-1.427,6.29-1.52,6.095s-.004.006-.006.01l-.982,2.948-1.11,2.877-1.243,2.822-1.374,2.76-1.499,2.69-1.625,2.621-1.745,2.539-1.862,2.456-1.993,2.387-2.11,2.297-2.209,2.189-2.312,2.084-2.407,1.972-2.498,1.857-2.585,1.738-2.681,1.625-1.573.722-1.615.682-1.638.634-1.661.586-1.669.532-1.691.483-1.702.431-1.866.41-1.889.35-1.888.286-1.902.224-1.908.16-1.909.097-1.934.034c-.021,0-.038.011-.058.013-.021-.002-.038-.012-.058-.013l-1.934-.034-1.909-.097-1.908-.16-1.902-.224-1.888-.286-1.889-.35-1.866-.41-1.702-.431-1.691-.483-1.669-.532-1.66-.586-1.637-.634-1.615-.682-1.573-.722-2.682-1.625-2.581-1.736-2.499-1.858-2.409-1.974-2.309-2.082-2.213-2.192-2.106-2.294-1.994-2.388-1.863-2.457-1.745-2.539-1.625-2.62-1.5-2.691Zm4.99,50.778l.002-.023.425-5.54v-.024s.326-6.058.326-6.058v-.025s.18-6.064.18-6.064v-.025s.033-6.066.033-6.066v-.025s-.114-6.065-.114-6.065v-.025s-.247-5.76-.247-5.76l1.243,3.088.033.074,1.619,3.263.039.071,1.868,3.127.044.068,2.106,2.972.05.064,2.331,2.799.054.06,2.542,2.609.059.056,2.737,2.403.063.051,2.916,2.183.067.046,3.077,1.95.07.041,3.219,1.704.073.035,3.342,1.449.076.029,3.444,1.184.078.023,3.526.913.079.017,3.586.636.081.011,3.625.355.081.005,3.642.072h.08s3.484-.199,3.484-.199l.078-.007,3.46-.457.077-.013,3.416-.713.076-.019,3.354-.966.074-.024,3.272-1.214.072-.03,3.173-1.454.07-.035,3.055-1.687.067-.04,2.921-1.91.063-.045,2.771-2.122.06-.05,2.604-2.323.056-.054,2.424-2.511.052-.058,2.23-2.684.047-.062,2.024-2.843.043-.065,1.806-2.986.038-.068,1.579-3.113.033-.071,1.321-3.172-.231,5.397v.025s-.114,6.065-.114,6.065v.025l.033,6.066v.025s.179,6.064.179,6.064v.025s.326,6.058.326,6.058v.024s.427,5.54.427,5.54l.002.023.031.316-6.027,1.932-6.361,1.711-6.438,1.409-6.498,1.103-6.54.794-6.574.484-6.587.172-6.594-.14-6.575-.452-6.554-.764-6.503-1.072-6.447-1.379-6.377-1.684-6.287-1.983-.57-.21.023-.236Z" class="color000000 svgShape"/><path d="m223.71,98.698l-.047-.357-.017-.095-.079-.351-.025-.092-.111-.343-.034-.09-.142-.331-.042-.086-.172-.316-.05-.082-.2-.3-.057-.077-.227-.28-.064-.072-.251-.258-.07-.065-.274-.234-.075-.059-.294-.208-.081-.052-.312-.18-.085-.044-.327-.151-.089-.036-.34-.12-.092-.028-.349-.088-.094-.019-.356-.056-.095-.01-.359-.023-.096-.002-.36.01-.096.007-.358.043c-.056.007-.102.036-.154.051-.055.005-.109-.005-.164.01l-.348.092-.091.028-.338.123-.088.037-.325.153-.085.045-.31.183-.08.052-.292.21-.075.059-.271.236-.069.066-.249.26-.063.072-.224.281-.056.078-.197.301-.049.082-.169.317-.041.086-.139.332-.033.09-.108.343-.025.092-.076.351-.016.094-.044.357-.007.095-.011.359v.096s.024.359.024.359l.01.095.055.355.019.094.087.349.027.092.119.339.036.089.149.327.044.085.178.312.051.081.206.294.058.076.232.274.065.07.257.252.071.064.279.227.077.057.298.201.082.05.315.173.086.042.33.143.089.034.341.113.092.026.35.081.094.017.356.048.095.008.359.016h.096s.359-.018.359-.018l.096-.009.356-.05.094-.018.35-.083.092-.026.342-.115.089-.035.33-.145.086-.043.315-.175.082-.051.297-.203.076-.058.278-.229.071-.064.256-.254.065-.071.231-.276.058-.076.205-.296.051-.081.177-.314.043-.086.147-.329.035-.089.116-.341.027-.092.085-.35.018-.094.052-.356.009-.095.02-.36v-.096s-.013-.36-.013-.36l-.008-.095Z" class="color000000 svgShape"/><path d="m166.043,99.127l-.047-.358-.017-.094-.079-.352-.025-.093-.111-.343-.034-.09-.142-.331-.042-.086-.172-.317-.05-.082-.2-.3-.057-.077-.227-.28-.064-.072-.252-.258-.07-.066-.275-.234-.076-.059-.295-.208-.081-.052-.313-.18-.085-.044-.328-.15-.089-.036-.34-.12-.092-.028-.35-.088-.094-.019-.356-.055-.096-.01-.36-.022h-.095s-.361.009-.361.009l-.096.007-.358.044c-.056.007-.101.036-.154.051-.055.005-.11-.005-.165.01l-.347.092-.09.028-.337.123-.088.037-.324.154-.085.045-.309.183-.08.052-.291.21-.075.059-.271.236-.069.066-.248.26-.063.072-.223.281-.056.078-.197.301-.049.082-.168.317-.041.087-.139.332-.033.089-.108.343-.024.092-.076.351-.016.094-.044.356-.007.095-.011.359v.096s.023.358.023.358l.01.095.055.355.019.094.087.349.027.092.119.339.036.089.149.327.043.085.178.312.051.081.206.294.058.076.232.274.065.07.256.252.071.064.278.227.077.057.298.201.082.05.315.173.086.042.329.144.089.034.341.113.092.026.35.081.094.017.356.049.096.009.359.016h.095s.359-.017.359-.017l.095-.009.355-.05.094-.018.35-.082.092-.026.342-.114.09-.035.33-.145.086-.043.315-.175.082-.05.298-.203.077-.058.278-.229.071-.064.256-.254.065-.071.232-.277.058-.076.206-.297.051-.082.177-.314.043-.085.148-.329.035-.09.117-.341.027-.092.085-.351.018-.094.052-.357.01-.096.019-.36v-.096s-.013-.36-.013-.36l-.008-.096Z" class="color000000 svgShape"/><path d="m199.335,92.526c.166.553.748.866,1.301.7,1.495-.449,2.934-.88,4.695-1.206,1.769-.328,3.867-.551,6.024-.78,2.259-.15,4.496-.298,7.617-.314h0c.223-.001.347-.001.577-.001,3.044,0,6.789.118,9.658.346,3.044.242,5.136.609,6.971.938h-.002s.062.011.062.011h.003c.905.162,1.885.342,2.576.342.181,0,.382-.012.579-.052.082-.017.173-.041.266-.075h0c.756-.28,1.077-1.032.801-1.78h0c-.017-.046-.036-.09-.055-.132-.517-1.133-2.869-3.073-4.553-4.179h0c-1.895-1.244-3.423-1.762-4.988-2.065-1.532-.296-3.094-.384-5.368-.474-2.135-.084-4.968-.17-7.777-.17-.227,0-.375,0-.602.001-3.004.014-5.916.133-8.26.338-2.321.203-4.171.495-5.57,1.031h0c-1.459.56-2.481,1.41-3.085,2.782l.021-.046h0s-.021.046-.021.046c-.538,1.221-.714,2.814-.869,4.2-.042.174-.056.355,0,.539Z" class="color000000 svgShape"/><polygon points="240.407 90.522 240.408 90.522 240.408 90.523 240.407 90.522" class="color000000 svgShape"/><path d="m140.843,92.209c1.835-.329,3.927-.696,6.971-.938,2.869-.228,6.614-.346,9.658-.346.23,0,.354,0,.577.001h0c3.122.016,5.358.164,7.617.314,2.157.229,4.255.452,6.024.78,1.761.326,3.199.758,4.694,1.206.553.166,1.135-.148,1.301-.7.055-.184.041-.365,0-.539-.155-1.385-.331-2.979-.868-4.2l-.021-.046h0s.022.045.022.045c-.605-1.372-1.626-2.222-3.086-2.782h0c-1.399-.537-3.249-.829-5.57-1.031-2.344-.205-5.256-.324-8.26-.338-.228-.001-.375-.001-.603-.001-2.809,0-5.641.086-7.777.17-2.274.089-3.836.177-5.368.474-1.565.303-3.094.821-4.988,2.065h0c-1.684,1.106-4.037,3.046-4.553,4.179-.019.042-.038.086-.055.133h0c-.276.748.044,1.5.801,1.78h0c.093.035.184.058.266.075.197.041.398.052.58.052.69,0,1.67-.18,2.575-.342h.003s.062-.012.062-.012h-.002Zm27.113-6.156h.001s0,.003,0,.003v-.003Z" class="color000000 svgShape"/><polygon points="136.613 90.523 136.614 90.522 136.614 90.522 136.613 90.523" class="color000000 svgShape"/><path d="m183.002,124.824l.462.277.443.281.439.295.427.302.42.313.417.329.41.34.406.354.394.362.385.373.378.386.374.401c.393.422,1.054.446,1.477.052.422-.393.446-1.054.052-1.477l-.384-.412-.019-.019-.395-.403-.019-.019-.405-.392-.02-.019-.415-.382-.02-.018-.425-.371-.021-.017-.434-.36-.021-.017-.434-.342-.021-.016-.442-.33-.021-.015-.45-.319-.022-.015-.458-.308-.022-.014-.384-.244.398-1.221.003-.011.569-1.813.003-.011.549-1.819.003-.011.528-1.826.003-.011.508-1.831.003-.011.497-1.872.003-.011.476-1.877.003-.011.455-1.882.003-.011.434-1.887.002-.012.412-1.892c.123-.564-.235-1.12-.798-1.243-.564-.123-1.121.235-1.243.799l-.411,1.885-.431,1.877-.453,1.875-.471,1.859-.495,1.866-.506,1.823.003-.011-.529,1.826.003-.011-.546,1.811-.568,1.811.004-.011-.589,1.807c-.081.248-.053.501.041.724.036.311.194.605.483.779Z" class="color000000 svgShape"/><path d="m191.664,129.176c.504.281,1.14.1,1.421-.404l.134-.239.13-.213.141-.209.151-.204.157-.195.165-.188.174-.182.18-.174.184-.164.19-.155.196-.147.2-.137.208-.131.213-.122.216-.112.241-.113c.522-.245.747-.867.502-1.389-.245-.522-.867-.747-1.389-.502l-.26.122-.038.019-.255.133-.038.021-.249.143-.037.022-.243.153-.035.023-.237.163-.035.025-.23.173-.033.026-.223.182-.033.028-.215.191-.032.03-.213.205-.031.031-.204.214-.03.032-.195.222-.029.034-.185.23-.027.035-.175.238-.025.036-.165.245-.024.037-.154.252-.022.038-.144.258c-.281.504-.1,1.14.404,1.421Z" class="color000000 svgShape"/><path d="m176.789,139.513l-3.151-.537-3.152-.655c-.572-.119-1.132.249-1.251.821-.119.572.248,1.132.821,1.251l3.169.659.038.007,3.191.543.038.006,3.209.428.038.004,3.222.311.038.003,3.231.195.038.002,3.236.078h.038s3.237-.039,3.237-.039h.038s3.234-.158,3.234-.158l.038-.003,3.226-.273.038-.004,3.214-.39.038-.005,3.198-.506.038-.007,3.177-.621.037-.008,3.153-.736.037-.009,3.124-.85c.564-.153.896-.735.743-1.299-.153-.564-.735-.896-1.298-.743l-3.106.845-3.113.727-3.143.615-3.161.5-3.172.385-3.19.271-3.196.155-3.199.039-3.198-.077-3.191-.192-3.186-.308-3.171-.423Z" class="color000000 svgShape"/><path d="m197.735,150.485l-.647.304-.64.261-.652.227-.661.192-.671.158-.681.123-.682.087-.691.052-.615.016-.617-.013-.617-.042-.615-.071-.609-.099-.606-.128-.6-.156-.589-.183-.604-.219c-.55-.199-1.156.085-1.355.634-.199.549.085,1.156.634,1.355l.627.228.047.016.638.198.048.014.646.168.048.011.653.138.049.009.659.107.049.007.663.076.049.005.666.045.049.002.667.014h.049s.667-.017.667-.017l.052-.003.742-.056.055-.005.739-.094.054-.008.733-.133.054-.011.725-.171.053-.014.715-.208.052-.017.703-.245.052-.019.689-.281.051-.022.674-.317c.529-.249.756-.879.508-1.407-.249-.529-.879-.756-1.407-.508Z" class="color000000 svgShape"/></g></g></svg>