<svg xmlns="http://www.w3.org/2000/svg" data-name="Layer 2" viewBox="0 0 330.443 383.94"><g fill="#1c1c1c" class="color000000 svgShape" data-name="Layer 1"><path fill="#fff" d="m170.584,283.246c1.626.808,2.673,1.126,3.141.955l2.786-1.029c.278-.117.492-.364.643-.742l1.39-4.394c-.058-.721-.978-1.765-2.76-3.132-1.04-.775-2.087-1.167-3.144-1.179-.841-.087-1.646.207-2.415.882-.961.939-1.587,1.997-1.876,3.175-.299.892-.269,1.891.091,2.996.561,1.292,1.276,2.114,2.144,2.469Z" class="colorfefefe svgShape"/><path fill="#fff" d="m175.593,297.563c-1.905-.273-3.429-.236-4.575.11-.932.35-1.529.968-1.79,1.852-.814,2.67-.449,4.82,1.095,6.452.925.62,1.893.953,2.902.997,1.835-.086,3.1-.449,3.794-1.088l1.833-5.149c.095-.323-.422-1.065-1.552-2.225-.789-.672-1.358-.988-1.707-.949Z" class="colorfefefe svgShape"/><path fill="#fff" d="m170.822,329.541c1.026.445,2.507.476,4.442.094,1.089-.394,1.911-1.026,2.467-1.899l.441-3.191c-.443-1.273-1.073-2.367-1.891-3.28-.859-.755-1.858-1.183-2.998-1.283-1.249-.068-2.408.203-3.479.813-1.255.914-1.901,1.869-1.937,2.867-.312,2.783.672,4.743,2.953,5.879Z" class="colorfefefe svgShape"/><path fill="#fff" d="m175.817,343.589c-.408-.188-1.249-.307-2.522-.356-.532,0-1.188.088-1.967.266-1.301.246-2.243.851-2.825,1.814-1.366,2.776-1.2,4.869.498,6.279,2.702,1.725,5.294,1.92,7.776.586l1.621-2.935c-.616-2.764-.976-4.127-1.078-4.091-.387-.779-.889-1.3-1.504-1.562Z" class="colorfefefe svgShape"/><path fill="#fff" d="m174.007,369.331c-1.502-.101-2.816.137-3.941.713-2.258,1.216-2.963,3.131-2.116,5.744.385,1.375.855,2.229,1.412,2.56.854.613,1.994.927,3.42.94,2.058-.572,3.455-1.257,4.191-2.053.737-.494,1.092-1.436,1.064-2.826l-.894-3.206c-.67-.971-1.715-1.594-3.135-1.872Z" class="colorfefefe svgShape"/><path fill="#fff" d="m199.37,221.774c-.007-.019-.026-.036-.035-.055.088-.714.034-2.108-.163-4.195l-1.851-10.63-.824-18.178c-.316-2.739-.629-3.833-.938-3.281-4.417,5.936-8.582,10.467-12.494,13.591-2.298,1.773-4.722,3.294-7.271,4.565-.162,0-.318-.001-.497.006l-9.148,1.266c-4.397-.367-6.626-.627-6.685-.781-2.091-.213-6.069-2.025-11.936-5.435-1.12-.575-2.35-1.648-3.691-3.219-.187-.169-.375-.231-.562-.185-.093.075-.173.173-.261.256-.411-.711-1.075-1.488-1.994-2.329.018-.213.037-.44.06-.696l-6.504-9.882c-.53.976-.914,2.296-1.151,3.961l.096,4.414-.157,3.335c.027,2.747.023,4.079-.013,3.996-.237,3.746-.499,6.604-.786,8.571-.052,2.159-.102,3.36-.15,3.601-.459,2.068-.897,5.032-1.314,8.891-.137,1.718-.131,2.76.018,3.125.058.032.128.044.195.06l-2.075,9.656c-.082.333-.015.65.199.951,10.91,7.684,17.413,11.604,19.509,11.761l2.533.779c1.209,2.681,2.722,5.525,4.556,8.544l7.403,10.161c.307.369.766.53,1.38.481.879-.044,1.636-.586,2.273-1.626l.926-2.102c.313-.066.66-.165,1.049-.309.751-.45,1.686-1.45,2.804-3.001.263-.126,1.579-2.546,3.948-7.26l3.026-3.863c2.324-1.491,5.731-3.288,10.221-5.393,3.184-1.729,6.164-3.461,8.939-5.196,2.578-1.477,3.645-2.831,3.202-4.06-.893-6.849-1.505-10.281-1.837-10.294Z" class="colorfefefe svgShape"/><path fill="#fff" d="m254.946,106.188c-.851-2.277-2.518-4.227-5.001-5.85-1.364-.772-3.211-1.049-5.541-.83-3.315.382-5.704.882-7.165,1.502-.099-.248-1.639,1.366-4.591,4.802-.079-.164-.142-.332-.244-.492-.463-.578-.899-.965-1.306-1.161-3.05-1.095-6.7-2.944-10.949-5.548-1.866-1.613-3.746-3.011-5.639-4.195l-8.546-6.843c-.321-.192-.65-.264-.986-.239-.51-.783-1.005-1.424-1.479-1.886-3.771-2.752-8.57-7.361-14.398-13.827-3.342-4.441-5.75-7.747-7.223-9.917-2.491-5.807-3.939-8.817-4.344-9.029-1.046-1.635-2-2.644-2.862-3.026-1.825-.269-3.137.232-3.936,1.502-1.692,4.74-2.472,8.184-2.34,10.332-.411.134-.772-.19-1.086-.971-.36-2.72-.646-4.307-.858-4.76-.149-.249-.339-.299-.56-.194l-.505-3.426c-.873-1.657-1.839-2.25-2.899-1.779-.71.231-1.431.918-2.165,2.06-2.225,4.202-5.065,8.652-8.519,13.35-.769,1.207-2.03,3.666-3.772,7.345l-5.787,8.126c-8.933,9.478-13.932,14.335-14.999,14.57-5.638,3.341-14.765,6.496-27.382,9.463-.162.004-.278.112-.359.3l-2.437-3.067c-.598-.604-1.482-1.105-2.652-1.503-1.347-.493-4.39-.946-9.129-1.359-2.111.129-3.766.578-4.964,1.347-3.069,1.923-4.67,3.922-4.802,5.998-.137.635-.222,1.234-.256,1.797.156,1.614.111,3.966-.135,7.056.307,2.434.578,4.09.813,4.969.688,2.927,2.837,6.219,6.447,9.876,2.854,2.611,5.64,4.304,8.357,5.078l4.589.795c2.945-.198,4.587-.485,4.926-.859,1.558-.533,2.844-1.731,3.874-3.556,2.102,7.67,4.365,13.653,6.791,17.923,7.349,13.966,14.14,23.643,20.373,29.033l14.22,9.061c10.165,3.582,16.092,4.667,17.78,3.255.006-.004.011-.008.017-.012,1.213.462,2.636.663,4.272.601,2.539-.139,4.423-.432,5.652-.881l7.203-3.201,7.699-2.522c.691-.237,1.274-.517,1.75-.842.864-.823,2.77-2.02,5.719-3.59,3.899-2.673,5.925-4.158,6.078-4.454,2.1-2.174,3.481-4.095,4.164-5.771.745-.453,1.438-1.101,2.077-1.958,3.164-3.398,5.28-6.058,6.347-7.981,5.649-10.498,8.382-15.907,8.198-16.228,2.045-5.284,3.168-8.917,3.379-10.916.339-.628.679-1.374,1.019-2.247.11-.169.213-.259.311-.268.068-.006.141.021.213.042.553.682,1.137,1.471,1.763,2.396.257.313.666.665,1.229,1.055,1.445.849,3.108,1.299,4.99,1.35,4.106-.286,8.546-2.308,13.319-6.064,4.912-4.796,6.873-8.189,5.898-10.188.647-.887,1.04-2.17,1.168-3.866.341-2.722.068-5.95-.82-9.683Z" class="colorfefefe svgShape"/><g class="color000000 svgShape"><path d="m330.433,347.173v-.02s-.11-5.14-.11-5.14v-.02s-.21-5.137-.21-5.137v-.02s-.31-5.132-.31-5.132v-.02s-.392-4.931-.392-4.931l-.002-.02-.482-4.923-.002-.019-.574-4.913-.002-.019-.665-4.902-.003-.019-.757-4.888-.003-.019-.848-4.874c-.007-.042-.032-.074-.044-.114-.009-.053-.001-.105-.018-.157l-.737-2.256-.016-.045-.839-2.22-.018-.044-.94-2.179-.02-.043-1.039-2.133-.022-.043-1.136-2.083-.024-.042-1.23-2.029-.026-.04-1.322-1.971-.027-.039-1.411-1.908-.029-.038-1.478-1.82-.031-.036-1.559-1.751-.032-.034-.342-.35c.105-.165.181-.351.179-.561-.052-5.79-.104-11.723-3.621-20.009h0c-3.124-7.362-8.989-16.584-16.398-28.245-.906-1.426-1.655-2.605-2.602-4.098h0c-8.678-13.693-19.152-30.559-25.666-48.327-6.5-17.73-9.073-36.401-11.652-55.205.155-.267.312-.532.456-.806,1.696-3.229,2.579-6.9,2.629-10.628.049-3.693-.719-7.609-2.935-10.43-1.025-1.305-2.344-2.331-3.812-3.087l-.106-2.065v-.016s-.17-2.506-.17-2.506v-.017s-.209-2.503-.209-2.503v-.016s-.249-2.499-.249-2.499l-.002-.016-.287-2.495-.003-.024-.634-4.594-.005-.03-.767-4.573-.006-.03-.9-4.549-.006-.03-1.032-4.521-.007-.03-1.164-4.489-.008-.03-1.294-4.453c-.029-.099-.084-.179-.137-.262l-.801-2.826-.012-.041-1.041-3.172-.014-.041-1.17-3.127-.016-.04-1.297-3.077-.018-.039-1.422-3.021-.019-.039-1.545-2.96-.021-.038-1.665-2.894-.022-.037-1.782-2.823-.026-.04-2.29-3.29-.031-.042-2.449-3.173-.032-.04-2.602-3.049-.035-.039-2.749-2.917-.036-.037-2.89-2.779-.038-.035-3.023-2.633-.04-.033-3.149-2.481-.042-.031-3.267-2.323-.043-.029-3.377-2.16c-.052-.033-.11-.041-.165-.064-.005-.003-.008-.007-.013-.01l-2.209-1.087-.025-.012-2.238-1.027-.026-.011-2.264-.966-.026-.011-2.29-.905-.027-.01-2.313-.843-.026-.009-2.335-.781-.034-.011-3.699-1.097-.043-.012-3.742-.941-.043-.01-3.779-.782-.043-.008-3.808-.622-.044-.006-3.831-.462-.044-.004-3.847-.3-.044-.003-3.856-.138c-.036-.001-.068.015-.103.017-.008,0-.014-.005-.022-.006l-3.454-.175h-.044s-3.458-.032-3.458-.032h-.044s-3.457.115-3.457.115l-.044.003-3.449.259-.044.004-3.435.403-.043.006-3.415.547-.043.008-3.389.69-.037.008-2.49.602-.031.008-2.47.679-.031.009-2.448.755-.031.01-2.423.831-.031.011-2.396.906-.03.012-2.367.979-.03.013-2.335,1.052c-.095.043-.167.11-.242.174l-2.956,1.724-.043.027-2.988,1.942-.042.029-2.891,2.084-.041.031-2.787,2.221-.039.032-2.676,2.353-.037.035-2.559,2.48-.036.036-2.437,2.601-.034.038-2.308,2.715-.032.04-2.174,2.824-.031.042-2.179,3.144-.03.046-2.013,3.253-.028.047-1.842,3.353-.025.049-1.665,3.444-.022.05-1.484,3.526-.02.051-1.3,3.598-.017.052-1.111,3.66-.014.053-.894,3.607c-.011.038-.036.069-.042.109l-.766,4.408-.002.013-.711,4.417-.002.013-.656,4.426-.002.013-.6,4.433-.002.013-.545,4.44v.012s-.436,3.915-.436,3.915v.012s-.393,3.92-.393,3.92v.012s-.349,3.924-.349,3.924v.011s-.306,3.927-.306,3.927v.012s-.222,3.317-.222,3.317c-2.186.74-4.169,2.035-5.596,3.851-2.216,2.82-2.984,6.736-2.934,10.43.05,3.728.933,7.399,2.629,10.628,1.103,2.099,2.542,3.989,4.105,5.637.181,3.271.315,6.65-1.285,14.366-1.662,8.017-5.187,20.67-8.196,30.513-2.992,9.79-5.451,16.731-12.971,30.157h0c-2.971,5.304-6.727,11.612-10.589,18.098-4.055,6.81-8.219,13.804-11.686,19.992-1.613,2.879-3.071,5.578-4.304,8.018h0c-6.433,12.726-6.531,18.03-6.6,23.319-.002.134.027.261.072.379l-1.068.757-.038.028-1.85,1.441-.037.03-1.782,1.523-.035.031-1.711,1.602-.034.033-1.637,1.678-.032.034-1.559,1.751-.031.036-1.479,1.82-.029.038-1.411,1.908-.028.039-1.322,1.971-.026.04-1.23,2.029-.024.042-1.136,2.083-.022.043-1.039,2.133-.02.043-.94,2.179-.018.044-.839,2.22-.016.045-.737,2.256c-.017.052-.01.104-.018.156-.012.04-.037.073-.045.115l-.848,4.874-.003.019-.757,4.888-.003.019-.665,4.902-.002.019-.574,4.913-.002.019-.483,4.923v.02s-.392,4.931-.392,4.931v.02s-.31,5.132-.31,5.132v.02s-.21,5.137-.21,5.137v.02s-.111,5.14-.111,5.14v.02l-.01,5.142v.02s.089,5.141.089,5.141c.01.577.486,1.036,1.063,1.026.009,0,.016-.005.025-.005l20.94,6.209.042.011,21.352,5.395.042.01,21.554,4.521.042.008,21.72,3.639.043.006,21.851,2.751.043.005,21.944,1.858.043.003,22.002.963h.043s22.023.066,22.023.066h.043s22.412-.857,22.412-.857l.044-.003,22.357-1.785.044-.004,22.263-2.711.043-.006,22.132-3.633.043-.008,21.962-4.548.043-.01,21.754-5.455.042-.012,21.509-6.353c.314-.093.54-.323.66-.602.08-.144.137-.302.14-.478l.089-5.141v-.02s-.01-5.142-.01-5.142ZM102.089,119.007l-.589-4.119-.433-4.136-.278-4.15-.005-.178c6.066-1.374,12.251-2.819,18.367-5.762,5.718-2.751,11.332-6.789,15.924-10.773,2.584.029,4.572.143,6.485.306,2.196.188,4.255.438,6.015.778h.007c1.741.338,3.198.767,4.693,1.208l.055.014.007.002c.561.133,1.124-.214,1.257-.776.041-.173.023-.342-.019-.503-.154-1.38-.331-2.963-.866-4.177-.604-1.372-1.626-2.222-3.085-2.782-1.399-.537-3.249-.829-5.57-1.032-.575-.05-1.185-.095-1.82-.134,2.152-2.488,4.055-5.095,5.891-8.064h0c.332-.537.674-1.105,1.001-1.661,1.496-2.542,2.952-5.271,4.355-7.899,1.325-2.483,2.617-4.902,3.853-7.002h0c3.02-5.134,5.342-7.665,6.23-7.668h.007c.291.012.846.948,1.488,3.707.07.3.134.586.202.888h0c.061.27.133.592.195.856.632,2.718,1.292,4.648,1.939,6.53h0s.029.083.029.083c.145.421.53.686.949.704.012.003.022.012.034.014.57.114,1.124-.255,1.238-.825,1.2-5.994,2.288-11.022,3.519-11.97h0c.082-.063.124-.064.141-.064.731,0,2.236,1.899,4.384,5.727.266.475.612,1.102.893,1.613.322.585.668,1.214,1.021,1.845,1.942,3.46,4.443,7.545,8.787,12.465,2.937,3.326,6.71,7.028,10.672,10.605-1.688-.051-3.579-.09-5.458-.09-.262,0-.331,0-.592.001h0c-3.006.013-5.913.133-8.26.337-2.321.202-4.171.495-5.57,1.032-1.459.56-2.481,1.411-3.085,2.782-.535,1.214-.712,2.796-.866,4.177-.042.161-.061.33-.019.503.133.561.696.909,1.258.776l.006-.002.055-.014c1.495-.441,2.951-.87,4.692-1.206h.008c1.76-.341,3.818-.592,6.015-.78,2.183-.187,4.464-.308,7.616-.314h.001c-.107,0,.342,0,.24,0,3.114,0,7.018.111,9.988.344h.01c1.227.098,2.292.215,3.253.343.85.677,1.687,1.334,2.499,1.956,7.395,5.663,12.966,8.829,18.483,11.964.12.068.249.107.378.124l-.058,1.988-.278,4.152-.433,4.136-.589,4.12-.742,4.091-.896,4.06-1.048,4.026-1.355,4.466-1.541,4.404-1.725,4.334-1.907,4.259-2.084,4.174-2.259,4.084-2.427,3.981-2.541,3.799c-.033.035-.076.057-.105.098l-1.029,1.434-1.057,1.393-1.093,1.364-1.134,1.34-1.161,1.3-1.198,1.272-2.1,2.075-2.192,1.98-2.275,1.877-2.36,1.776-2.432,1.665-2.511,1.558-2.529,1.416-1.442.64-1.435.593-1.471.565-1.464.52-1.488.486-1.501.449-2.032.542-2.041.47-2.064.402-2.069.33-2.093.261-2.103.19c-.083.007-.153.043-.229.068-.075-.025-.146-.061-.229-.068l-2.103-.19-2.093-.261-2.069-.33-2.063-.402-2.042-.47-2.033-.542-1.5-.449-1.488-.486-1.462-.519-1.472-.565-1.436-.594-1.442-.64-2.528-1.415-2.51-1.557-2.434-1.666-2.36-1.775-2.275-1.877-2.192-1.98-2.1-2.075-1.198-1.272-1.161-1.3-1.133-1.339-1.094-1.365-1.057-1.393-1.03-1.434c-.029-.041-.072-.063-.106-.099l-2.541-3.798-2.427-3.981-2.259-4.084-2.084-4.174-1.907-4.26-1.724-4.332-1.542-4.405-1.355-4.466-1.048-4.026-.896-4.06-.743-4.092Zm33.126,67.525l.04-1.766.998,2.292.036.075,1.181,2.214.042.071,1.352,2.114.047.068,1.515,2,.052.064,1.668,1.874.058.06,1.811,1.736.062.055,1.943,1.587.066.05,2.062,1.429.07.044,2.169,1.261.073.039,2.262,1.086.076.033,2.341.904.078.027,2.405.715.08.021,2.454.523.082.014,2.488.327.082.008,2.506.129h.083s2.508-.068,2.508-.068l.081-.005,2.375-.25.078-.011,2.35-.428.077-.017,2.311-.604.075-.023,2.259-.776.073-.028,2.194-.944.071-.034,2.116-1.106.069-.039,2.027-1.262.065-.044,1.927-1.411.062-.049,1.815-1.552.058-.053,1.693-1.685.054-.057,1.561-1.807.049-.061,1.42-1.92.044-.065,1.272-2.021.04-.068,1.116-2.111.014-.029.218,5.389v.019s.344,5.886.344,5.886v.019s.45,5.879.45,5.879l.002.019.554,5.87.002.018.595,5.321.002.017.681,5.311.002.017.768,5.299.002.017.854,5.286.003.017.231,1.295-2.098,1.566-2.717,1.892-2.782,1.799-2.838,1.701-2.898,1.607-2.95,1.506-3.002,1.406-2.854,1.221c-.05.009-.1.002-.149.018-.291.096-.505.309-.623.568-.002.004-.006.007-.008.011l-.677,1.388-.7,1.366-.721,1.343-.754,1.341-.778,1.322-.8,1.3-1.233,1.901-1.282,1.858-1.337,1.823-1.383,1.776-1.443,1.749-.707.808-.708-.809-1.441-1.746-1.384-1.778-1.337-1.823-1.282-1.858-1.232-1.899-.801-1.302-.777-1.32-.755-1.343-.721-1.343-.698-1.363-.678-1.391s-.006-.007-.009-.011c-.118-.258-.332-.471-.623-.568-.05-.016-.099-.009-.149-.018l-2.854-1.221-3.002-1.406-2.949-1.506-2.899-1.607-2.837-1.701-2.782-1.8-2.717-1.892-2.1-1.567.231-1.294.003-.017.854-5.286.003-.017.768-5.299.002-.017.681-5.311.002-.017.595-5.321.002-.018.554-5.87v-.019s.451-5.879.451-5.879v-.019s.345-5.886.345-5.886v-.019s.239-5.891.239-5.891v-.019Zm117.264-82.772c1.8,2.291,2.534,5.656,2.488,9.111-.046,3.421-.856,6.766-2.389,9.685-1.536,2.924-3.818,5.461-6.185,7.441-2.355,1.971-4.724,3.336-7.523,4.103h.003s-.003,0-.003,0h-.002c-1.539.422-3.207.661-4.708.661-1.262,0-2.339-.169-3.115-.489h0c-1.607-.662-2.212-2.091-2.968-4.048l.665-2.556.009-.038.904-4.1.008-.039.75-4.131.006-.039.594-4.157.005-.039.046-.436c.654-.418,1.348-.852,2.431-1.452.069.044.132.097.213.124l.456.156.424.168.414.188.408.21.391.226.38.244.374.267.357.282.345.3.322.309.302.318.292.339.275.351.257.362.239.373.221.384.204.396.195.428c.24.525.859.756,1.384.517.525-.24.756-.859.517-1.384l-.205-.449-.021-.044-.226-.439-.024-.043-.246-.428-.026-.042-.266-.416-.028-.041-.286-.403-.03-.04-.304-.389-.031-.038-.323-.374-.033-.036-.34-.358-.035-.035-.356-.342-.037-.034-.382-.332-.039-.032-.397-.314-.04-.03-.412-.294-.042-.028-.426-.274-.043-.026-.438-.253-.044-.024-.45-.231-.045-.022h-.002c1.685-.841,3.686-1.73,5.406-2.158h0c1.051-.262,2.011-.352,2.923-.352.941,0,1.842.095,2.792.201h.002s.133.015.133.015c.571.064,1.088-.349,1.152-.922.064-.573-.348-1.09-.922-1.155h-.002s-.133-.015-.133-.015h.002c-.943-.105-1.953-.214-3.024-.214-1.06,0-2.188.105-3.428.414h0c-2.515.627-5.43,2.077-7.302,3.071-.899.477-1.577.86-2.145,1.196l.117-1.114.003-.039.218-3.258c.066-.062.136-.117.186-.198,1.183-1.908,2.262-3.629,4.353-5.038h0c2.02-1.361,4.998-2.435,7.936-2.435.155,0,.334.004.49.01h0c3.083.128,6.044,1.487,7.836,3.768Zm-177.003,9.111c-.046-3.456.688-6.82,2.488-9.111,1.792-2.28,4.753-3.639,7.836-3.768h0c.155-.006.334-.01.49-.01,2.938,0,5.916,1.074,7.936,2.435h0c2.092,1.409,3.171,3.131,4.353,5.038.05.08.12.136.185.197l.218,3.258.003.039.117,1.114c-.568-.336-1.246-.719-2.145-1.196-1.873-.994-4.788-2.444-7.302-3.071h0c-1.241-.309-2.369-.414-3.428-.414-1.07,0-2.08.109-3.024.214h.002s-.133.014-.133.014h-.002c-.573.064-.986.581-.922,1.155.064.573.581.986,1.153.922l.133-.015h.002c.949-.106,1.851-.202,2.792-.202.913,0,1.872.09,2.923.352h0c1.72.429,3.72,1.318,5.406,2.157h-.002s-.045.023-.045.023l-.45.231-.044.024-.438.253-.043.026-.426.274-.042.028-.412.294-.04.03-.397.314-.039.032-.382.332-.037.034-.356.342-.035.035-.34.358-.033.036-.323.374-.031.038-.305.389-.029.04-.286.403-.028.041-.266.416-.026.042-.246.428-.024.043-.226.439-.021.044-.205.449c-.24.525-.008,1.145.517,1.384.525.24,1.145.008,1.384-.517l.196-.428.203-.395.222-.385.239-.373.257-.362.274-.35.293-.34.302-.318.322-.309.345-.3.357-.282.374-.267.38-.244.392-.226.408-.21.414-.188.424-.168.456-.156c.081-.028.144-.08.213-.124,1.083.599,1.777,1.033,2.431,1.452l.046.436.005.039.594,4.157.006.039.75,4.131.008.039.904,4.1.009.038.666,2.557c-.756,1.957-1.361,3.385-2.968,4.048h0c-.775.319-1.852.489-3.115.489-1.501,0-3.169-.239-4.708-.661h-.002s-.003-.001-.003-.001h.002c-2.798-.766-5.168-2.132-7.523-4.102-2.367-1.981-4.649-4.517-6.184-7.441-1.533-2.918-2.344-6.264-2.389-9.685Z" class="color000000 svgShape"/><path d="m187.885,98.494l.01.095.055.356.019.094.087.349.027.092.119.34.036.089.149.327.044.085.179.312.051.081.207.295.058.076.233.275.065.07.257.252.071.064.279.228.077.057.298.201.082.05.315.173.086.042.33.143.089.034.342.113.093.026.351.081.094.017.356.048.095.008.36.016h.096s.359-.018.359-.018l.095-.009.356-.05.094-.018.35-.083.093-.026.342-.115.089-.034.33-.145.086-.043.315-.175.081-.05.298-.203.077-.058.278-.23.07-.064.256-.254.065-.071.231-.277.058-.076.205-.297.051-.081.177-.314.043-.086.147-.329.035-.089.116-.341.027-.092.085-.351.018-.094.052-.356.01-.096.019-.36v-.096s-.013-.36-.013-.36l-.008-.096-.047-.357-.017-.094-.079-.352-.025-.093-.111-.343-.034-.09-.142-.331-.042-.087-.172-.317-.049-.082-.2-.3-.057-.077-.227-.28-.064-.072-.251-.258-.07-.065-.274-.234-.075-.059-.295-.208-.082-.052-.312-.18-.084-.043-.327-.151-.089-.036-.34-.12-.092-.028-.349-.088-.093-.019-.356-.056-.096-.011-.36-.023-.095-.002-.36.01-.096.007-.358.043c-.056.007-.102.036-.155.051-.055.005-.108-.005-.163.01l-.348.092-.091.029-.338.123-.089.037-.325.154-.084.045-.31.183-.081.052-.292.21-.075.059-.271.236-.069.066-.249.26-.063.072-.224.282-.056.078-.197.301-.049.082-.169.318-.041.087-.139.332-.033.09-.108.343-.024.092-.076.352-.016.094-.044.357-.007.096-.011.36v.096s.023.359.023.359Z" class="color000000 svgShape"/><path d="m128.583,98.198l.01.096.055.357.019.094.087.351.028.092.119.341.036.089.15.329.044.086.18.313.052.081.208.296.059.076.234.275.066.071.259.252.072.064.281.228.077.057.3.201.083.05.317.172.086.042.332.143.09.034.344.111.093.025.353.079.094.017.358.047.096.008.361.014h.097s.361-.021.361-.021l.095-.01.357-.053.094-.018.351-.085.092-.027.339-.116.089-.035.327-.147.085-.043.312-.176.081-.051.295-.204.076-.058.275-.23.071-.065.253-.254.064-.07.229-.276.058-.077.203-.296.05-.081.175-.313.043-.086.146-.328.035-.089.115-.34.027-.092.084-.349.018-.094.052-.355.009-.095.019-.359v-.095s-.013-.358-.013-.358l-.008-.095-.047-.356-.017-.094-.079-.35-.025-.092-.111-.342-.033-.09-.141-.33-.042-.086-.171-.316-.049-.082-.199-.299-.057-.077-.225-.279-.063-.071-.25-.258-.07-.065-.272-.234-.075-.059-.292-.208-.08-.052-.31-.18-.084-.044-.325-.151-.088-.036-.338-.121-.091-.028-.347-.09-.094-.02-.354-.058-.095-.011-.358-.025-.095-.002-.359.008-.096.006-.356.041c-.057.007-.104.036-.158.051-.053.005-.104-.006-.156.008l-.35.089-.094.029-.34.121-.09.037-.328.152-.085.044-.312.182-.081.052-.294.21-.076.059-.274.236-.07.066-.251.26-.064.072-.226.282-.056.078-.199.301-.049.082-.171.318-.042.087-.141.333-.033.09-.11.344-.025.093-.077.353-.016.095-.045.359-.007.096-.011.361v.096s.023.361.023.361Z" class="color000000 svgShape"/><path d="m159.94,124.573l.324.113.302.116.298.127.299.14.281.144.288.16.247.148.253.163.235.162.241.178.229.18.221.185.234.209c.431.384,1.091.346,1.475-.084s.346-1.091-.084-1.475l-.243-.217-.025-.022-.25-.209-.025-.02-.256-.201-.026-.02-.262-.193-.026-.019-.268-.185-.027-.018-.274-.176-.028-.017-.28-.168-.03-.017-.315-.175-.032-.017-.321-.164-.033-.016-.327-.153-.033-.015-.312-.133.053-.152.006-.017.312-.955.006-.017.296-.96.005-.018.279-.965.005-.018.262-.97.006-.022.351-1.421.006-.026.314-1.429.006-.026.277-1.437.005-.026.241-1.444.004-.027.204-1.449.003-.026.166-1.454c.065-.573-.346-1.091-.919-1.157s-1.091.346-1.156.919l-.165,1.443-.199,1.418-.237,1.422-.272,1.408-.309,1.406-.345,1.396-.256.949-.273.945-.291.945-.307.937-.326.94c-.122.352-.03.714.187.985.11.268.319.492.614.594Z" class="color000000 svgShape"/><path d="m168.635,126.337l.157-.201.153-.185.159-.182.162-.176.167-.172.174-.169.177-.163.173-.151.188-.155.186-.146.19-.141.208-.146c.472-.331.587-.983.255-1.455s-.983-.587-1.455-.256l-.218.153-.022.016-.214.158-.023.017-.209.164-.021.017-.205.17-.021.018-.2.175-.021.019-.196.18-.02.019-.192.187-.021.021-.188.193-.019.02-.182.198-.019.021-.177.202-.019.022-.171.207-.018.022-.166.212c-.355.455-.275,1.111.18,1.466s1.111.275,1.467-.18Z" class="color000000 svgShape"/><path d="m143.307,139.203l2.24.944.046.018,2.281.837.047.016,2.318.729.048.014,2.35.619.048.011,2.376.508.048.009,2.398.395.049.007,2.414.282.049.004,2.425.167.049.002,2.43.053h.049l2.424-.061.049-.003,2.418-.175.049-.005,2.407-.288.049-.007,2.391-.401.048-.009,2.37-.513.048-.012,2.343-.624.047-.014,2.311-.733.046-.016,2.274-.841.046-.018,2.232-.947c.531-.225.779-.839.554-1.37-.225-.531-.839-.779-1.37-.554l-2.207.936-2.232.825-2.266.718-2.293.61-2.323.503-2.343.393-2.361.283-2.363.171-2.38.06-2.381-.052-2.37-.164-2.371-.277-2.35-.387-2.324-.496-2.303-.606-2.274-.715-2.233-.819-2.218-.935c-.532-.224-1.144.026-1.368.557-.224.532.025,1.144.557,1.368Z" class="color000000 svgShape"/><path d="m170.244,149.945l-.719.203-.691.164-.718.138-.706.106-.722.077-.712.046-.724.016-.756-.016-.748-.049-.751-.082-.748-.115-.745-.148-.728-.179-.746-.218c-.554-.162-1.134.156-1.296.709-.162.554.156,1.134.709,1.296l.768.225.044.012.777.191.045.01.785.156.045.008.791.122.045.006.796.087.046.004.799.052.046.002.8.016h.045l.764-.017.044-.002.763-.049.043-.004.76-.081.043-.006.756-.113.043-.007.751-.145.043-.009.744-.176.042-.011.736-.207c.555-.156.879-.733.722-1.289-.156-.556-.733-.879-1.289-.722Z" class="color000000 svgShape"/></g></g></svg>