<svg viewBox="0 0 280 280" xmlns="http://www.w3.org/2000/svg">
    <clipPath id="a">
        <circle cx="140" cy="-220" r="129"/>
    </clipPath>
    <clipPath id="b">
        <circle cx="140" cy="140" r="129"/>
    </clipPath>
    <circle cx="140" cy="-220" fill="#df8258" r="129"/>
    <g clip-path="url(#a)">
        <path d="M81-177.41c-34.93 10.34-88.7 20-113.51 62S-55.3-12.66-51.86 16.29L17 7.33v133s30.42 10.85 73.85 10.34c45-.54 62.56-9.31 62.56-9.31l5-88.58L221.13 6S211-81.13 198-105.38c-13.44-25.16-28.6-36.19-36.19-42.39s-24.12-18.62-24.12-18.62z" fill="#2d2d2d"/>
        <path d="M31.56-102.28c6.2 16.2 11 44.81 12.75 57.91S48.1 2.28 48.1 2.28" fill="none" stroke="#1c1c1c" stroke-linecap="round" stroke-linejoin="round" stroke-width=".94"/>
        <path d="M197-37.13c-9.31-1.38-18.27-2.41-27.23 4.48s-13.1 14.48-15.16 22.4S153.23 1.82 156 3.89A10.12 10.12 0 0 0 161.5 6s.34 5.86 4.82 7.59 10-.35 10-.35z" fill="#fff"/>
        <path d="M193.38-37.48c-5.86.69-19.3 13.1-24.3 21.55S161.15 3.37 161.5 6" fill="none" stroke="#dfa388" stroke-linecap="round" stroke-linejoin="round" stroke-width=".94"/>
        <path d="M163.22-3.53c2.59-2.41 9.31-2.75 12.07.69s-1.9 16.38-1.9 16.38" fill="none" stroke="#dfa388" stroke-linecap="round" stroke-linejoin="round" stroke-width=".94"/>
        <path d="m172.53 22.25 44.58-119.58a15.07 15.07 0 0 1 14.11-9.77h96.34a5.19 5.19 0 0 1 4.82 7.11L283.51 22.25zm-54.87 0h165.85v4.91a4.07 4.07 0 0 1-4.07 4.07H117.66a4.07 4.07 0 0 1-4.07-4.07v-.84a4.07 4.07 0 0 1 4.07-4.07z" fill="#df8258"/>
        <path d="M172.53 22.25h110.98" fill="none" stroke="#1c1c1c" stroke-linecap="round" stroke-linejoin="round" stroke-width=".94"/>
        <path d="M-51.86 16.29s27.12-6.2 50.79-9.65S48.1 2.28 48.1 2.28l3.22 23.89s29.41.92 50.55 2.3 51.47 3.68 57.68 1.38 14.7-7.58 23.89-10.11 23-2.07 27.35-1.84 9.42.23 8 6-6.43 9.88-11.26 11.72c0 0 9.88-.92 14.25-7.59s8.5-20.68 10.11-26.42 3.22-14.94 8.73-16.09 9 3 9 6.21a4.63 4.63 0 0 1 6.67-.92c4.13 2.75 3.44 14 3.44 14s3.45.23 5.06 5.29-2.79 21.82-10.11 35.38S230.09 72.82 214 80.17s-60.21 21.37-85.71 26.2S48.45 117.11 3.46 94.88c-53.27-26.33-55.32-78.59-55.32-78.59z" fill="#fff"/>
        <g fill="none" stroke="#dfa388" stroke-linecap="round" stroke-linejoin="round" stroke-width=".94">
            <path d="M51.32 26.17c-20.11-.91-41.48 6.67-41.48 6.67m184.92-14.65c-.34 4.48 7.07 8.44 13.44 8.1s9.31-.35 9.31-.35m-9.94 9.66c-5.23 1.37-11.95 1.89-15.74 5.51s-10.68 7.58-10.68 7.58m68.47-56.98c.29 7.69-1.61 21.83-4 29.24s-6.38 16.71-10.34 21.88M259.73 4.8c-.86 11.32-2.58 19.25-6 28.21A69.87 69.87 0 0 1 246 47.83"/>
            <path d="M240.6-13.52c-1 6.72-1 11.2 1.38 14.3s7.24 1.9 7.24 1.9m.34-3.45c.18 3.1 1 8.45 3.8 9.48a10.63 10.63 0 0 0 6 0m-.49 4.48c0 4 1.9 7.76 4.48 8.79"/>
        </g>
    </g>
    <circle cx="140" cy="140" fill="#94a9fa" r="129"/>
    <g clip-path="url(#b)">
        <path d="M207.57 420.09s21.17-1.86 38.46-10.83c19.41-10.08 38.46-25.39 38.46-25.39l2.61 7.13s25-39.95 41.82-63.1 26.89-42.57 34.36-51.91 16.43-13.44 26.88-17.92 19-13.44 22.41-9.71-.75 9-6 14.94-13.07 11.57-12.69 13.44 13.07-2.24 18.67-5.6 8.58-5.48 9.58-8.71c-2.24-1.62-9.21-5.85-8.84-10s7.84-6.72 15.69-2.24 8.58 12.7 6.72 18.3-8.84 11.32-8.84 11.32a55.15 55.15 0 0 0 15.6-9.42c8.8-7.46 14.94-10.62 19.75-6.63 4.31 3.57-6 13.31-12 19.29s-17.55 12.32-17.55 12.32 15-5.56 20.41-8.21c6.35-3.12 12.45-2.87 12.45 1.61s-16.06 13.82-31.37 20.42c0 0 14.94-4.23 21.41-6.6 5.45-2 11.08 4 1.37 10.7-7.92 5.49-40.33 17.18-48.54 23.9S376 388 356.93 420.46s-40.33 66.47-87.75 62.73-61.61-63.1-61.61-63.1z" fill="#ffb391"/>
        <path d="M142.59 60.87S156 48.18 174 56.39s18.67 16.81 21.28 23.53 7.1 11.57 14.94 14.56 16.43 14.56 14.19 27.63-5.23 22 3.36 26.14 17.18 8.59 18.67 17.55-5.6 12.7-3 20.91 12.33 3 13.45 15.31-6.73 15.31-6.73 21.28 15.69 12.33 10.83 26.89-19.41 18.3-19.41 18.3L20.86 283.05S-.42 269.23 5.18 253.18s12.32-12.33 12.32-23.53-7.09-13.44-2.61-23.15 12.32-7.09 12.7-16.8-9.34-16.43-2.59-32.12 15.31-9.7 20.17-20.53 3.36-14.19 8.58-20.17 13.45-3 14.57-13.07 2.88-16.67 8.21-21.28c8.22-7.09 12-.75 18.67-6s3.74-14.19 19-20.91 28.39 5.25 28.39 5.25z" fill="#fdd6c5"/>
        <path d="M159.69 72.24c4.64 5.31 11.28 8 18.92 9.79s12.78 4.65 12.78 12.78 1.16 15.6 6.8 18.75 11.12 7.8 11.95 15.6-7 15.77-5.81 23.24 16.1 10.29 15.93 19.08-7.8 8.14-6.3 17.76 16.26 8 16.26 15.27-10.29 10.62-10 16.43 12.28 8 12 16.93-9.62 13.61-9.62 13.61" fill="none" stroke="#1c1c1c" stroke-linecap="round" stroke-linejoin="round" stroke-width=".86"/>
        <path d="M183.42 134.48c-.5 5.47-3.49 10.62-.33 18.08s12.11 7.8 9.13 17.76-8.63 7.8-8.3 15.77 12.44 6.14 13.27 11.78-8 7.8-8 13.44 13.94 6.81 13.11 15.11-3.65 8.63-3.65 8.63M142.26 66.27c-4.48 3.65-9.62 3.15-17.26 2.15s-13.44.5-15.93 6.64-1.33 12.12-6.64 15.44-13.27 3.81-16.59 10.12-1.5 14.11-1.17 20.74-4.48 13.28-11.45 13.78-14.43 8.3-15.43 16.59 1.66 13.78-2.66 20.58-10.62 10.46-11.61 20.08 8 11.87 3.73 23.82-12.2 6.22-16.68 17.18 2.74 20.91 9 27.88" fill="none" stroke="#1c1c1c" stroke-linecap="round" stroke-linejoin="round" stroke-width=".86"/>
        <path d="M95.3 139.29c-1 6 .24 19-9.71 21.66-10.21 2.73-13.2 13.94-11.45 22.4s-3.74 9.46-10.71 19.17 1.74 12.2.75 19.66-12 9-13.19 15.44 3.23 11.95 3.23 11.95m54.89-96.47c-2.17 7.47 3.33 11.32-.38 21.57s-14.37 8.62-19.3 17.72 4.95 14.09 2.92 23.15-16.61 10.29-18.45 23.59m75.42-159.84c8.21-3.48 4-13.69-2.74-17.42" fill="none" stroke="#1c1c1c" stroke-linecap="round" stroke-linejoin="round" stroke-width=".86"/>
        <path d="M33.08 263.94c28.86 11.64 38.75 58.49 42.3 90.43-2 22.4-9.71 58.62-9.71 58.62l-85.88-40.2s16.93-54.27 34.35-84.64a114.26 114.26 0 0 1 18.94-24.21zm164.61-37.69c-29.71-16.76-114.84 2-114.84 2-7.67 4.59-17.28 10.16-27.17 17.09 9.19 4 23 9.47 36.13 12.28l36.35-12.77s42.31 15.43 63.39 11.45c13.21-2.5 26.62-7.53 34.78-11-8.12-6.8-17.33-12.67-28.64-19.05zm63.89 66.38c-8.11-15.6-15.56-26.95-23.77-36.15-3.42 7.75-15.25 15.53-23.52 40-11.95 35.35-20.54 49.66-20.54 49.66l11.25 74.7c34.61 2.08 62.38-9.76 82.52-37.1-.05 0-7.02-54.74-25.94-91.11z" fill="#f08f64"/>
        <path d="M198.85 393.2s0 9.59.5 38.46 3 52.16 3 52.16-13 8.46-57.75 9.45-67.22-9-67.22-9-.38-33.19.62-58.58-9-89.62-9-89.62c-13-35.84-17.14-57.13-35.92-72.13a173.51 173.51 0 0 1 22.6-18.61c9.19 4 23 9.47 36.13 12.28l36.35-12.77s42.31 15.43 63.39 11.45c13.21-2.5 26.62-7.53 34.78-11a111.47 111.47 0 0 1 11.48 11.14C234.39 264.23 227 291.26 205 332c-5.78 25.11-6.15 61.2-6.15 61.2z" fill="#d6b6a7"/>
        <path d="M112.89 150.9c.33 11.79 1 33-3.82 47.63S93 221.6 82.85 228.24l9 29.37s23.07 6 54.27 4.15 45.47-5.47 45.47-5.47 2.49-18.26 6.14-30c0 0-15.93-7.8-22.73-19.25s-9.13-33.52-8.47-51.45z" fill="#e69a78"/>
        <path d="M122.8 85.52c-9.92 4.25-15.06 12.44-17 24.39s-1.24 18.67-1.24 18.67a10.6 10.6 0 0 0-10.58 9.59 15.36 15.36 0 0 0 9.95 17.3 9.73 9.73 0 0 0 8.84-1.37s13.2 18.3 35.1 16.06S174.21 145 174.21 145s6.72 1.5 11.7-8.71-1-16.68-7.47-17.18c0 0-1.37-18-5.35-22.28s-10.58-3.83-16.31-8.57-7.46-9-7.46-9a57.71 57.71 0 0 1-12.2 3.24c-5.98.78-9.12.78-14.32 3.02z" fill="#ffb391"/>
        <g fill="none" stroke-linecap="round" stroke-linejoin="round">
            <path d="M119 124.6c1.66 3.4 4.56 6 8.63 4.9s3.4-7.31 3.4-7.31m22.43-2.65c1.42 3.07 4.24 6.55 8 5.48s4.4-6.39 4.24-8.22" stroke="#1c1c1c" stroke-width=".86"/>
            <path d="M143.59 116.05a20.39 20.39 0 0 0 4.31 9.63c2 2.32 4.07 4.07 4.15 5.48s-8.13 4.56-8.13 4.56" stroke="#c5673d" stroke-width=".86"/>
            <path d="M113.8 111c1.41-2 4.32-3.9 9.13-4.56a20.68 20.68 0 0 1 9.37 1.16m18.43-1.01c1.9-2.65 6.31-4.36 10.2-4.64a14.29 14.29 0 0 1 8 1.82" stroke="#2d2d2d" stroke-width="3.87"/>
            <path d="M178.44 119.12a112.31 112.31 0 0 1-4.23 25.88m8.21-17.41c-1.07 2.32-5.89 8.38-5.89 8.38m-72.02-7.39c.66 9 3.23 18.67 8.21 25.52" stroke="#c5673d" stroke-width=".86"/>
            <path d="M99.78 140c2.32 2.82 9.46 8.22 9.46 8.22" stroke="#c5673d" stroke-width=".86"/>
        </g>
        <path d="M128.56 150.61c-3.33 1.67-6.27 0-8.72-4.83s-2-8.2 1.32-9.88 6.27 0 8.72 4.83 2 8.2-1.32 9.88z" fill="#f4a987" opacity=".56"/>
        <ellipse cx="165.93" cy="138.28" fill="#f4a987" opacity=".56" rx="8.23" ry="5.62" transform="rotate(-82.48 165.94 138.273)"/>
        <path d="M138.45 146.26c-.22-.43 2.86-2.53 7.05-3.16 2.82-.41 8.13.09 8.71 1.33s-4.4 3.4-8 3.65-7.27-.83-7.76-1.82z" fill="#df8258"/>
        <path d="M138.45 146.26c3.73-.87 11.07-2.28 15.76-1.83" fill="none" stroke="#c5673d" stroke-linecap="round" stroke-linejoin="round" stroke-width=".86"/>
        <path d="M-18 373.41s26.89 7.84 45.56 17.18a315.87 315.87 0 0 1 31 17.55s-3.74 47.05-34.73 65.72-66.84.37-81.4-23.53-38.43-91.85-42.55-104.18-5.6-18.29-16.43-22-26.14-11.95-37.71-18.29-6.72-14.19-2.62-13.45 22.41 7.47 22.41 7.47-18.67-12.69-22.78-19.41.37-13.82 8.59-8.59 17.55 11.95 25 16.43c0 0-17.18-14.94-21.66-26.52s3.36-14.93 11.57-6.34S-114.31 276-114.31 276s-5.6-8.58.37-19.79 20.17-11.57 19.8-6-8.39 12.4-8.39 12.4-1.32 5.07 8.3 11.46c10.46 6.94 18.38 3 18.38 3a45.3 45.3 0 0 0-6.72-12.32c-4.48-5.6-13.44-9.33-11.57-14.56s12.9-2.78 21.28 4.48c11.2 9.71 19 25 23.52 45.18s28.76 82.9 28.76 82.9z" fill="#ffb391"/>
    </g>
</svg>
