<svg viewBox="0 0 280 280" xmlns="http://www.w3.org/2000/svg">
    <clipPath id="a">
        <circle cx="140" cy="-220" r="129"/>
    </clipPath>
    <clipPath id="b">
        <circle cx="140" cy="140" r="129"/>
    </clipPath>
    <circle cx="140" cy="-220" fill="#fd7d44" r="129"/>
    <g clip-path="url(#a)">
        <path d="M196.52-87.68h2.78a4.19 4.19 0 0 1 4.19 4.19v140.8h-11.16v-140.8a4.19 4.19 0 0 1 4.19-4.19z" fill="#2d2d2d"/>
        <path d="m208-88.08-2.6 1a4.2 4.2 0 0 0-2.4 5.38l52.3 139h12.3l-54.16-143a4.19 4.19 0 0 0-5.44-2.38zm-19.54 0 2.59 1a4.18 4.18 0 0 1 2.44 5.4l-52.29 139h-12.3l54.16-143a4.18 4.18 0 0 1 5.4-2.4z" fill="#2d2d2d"/>
        <path d="M-21.3-259.56C-6.13-260.2 9.59-253 23-246.4s27.74 20.87 37.46 30 28.89 36 36.61 57.77 19.16 68.93 19.16 68.93l2.86 6S126-108.56 130-121.43a246.31 246.31 0 0 1 9.43-24.88l51.48 16.59s-6 46-18 72.92S150-2.17 110-3.6 48.48-34.49 44.48-41.07c0 0-18 22.6-26.6 43.19C11.42 17.61 1.29 38.56-1.85 42.85S-47 50.57-77.35 50s-62.92-9.72-62.92-9.72 15.16-59.53 32.89-106.8C-86.79-121.43-50.76-172-28.45-190.35c0 0-12.87 4-23.16-1.72-17.24-9.57-23.82-28.67-24.31-40.89-.57-14.3 27.74-25.46 54.62-26.6z" fill="#df8258"/>
    </g>
    <circle cx="140" cy="140" fill="#94a9fa" r="129"/>
    <g clip-path="url(#b)">
        <path d="M174 178.75c7.72-1.71 9.87 1.29 12.87 5.15a55.25 55.25 0 0 0 6.44 6.86s62.63 21 99.09 60.06 53.62 72.5 57.05 100.38-.85 48.47-12.87 63.06L259 361.5s-15-21.88-22.31-31.75-18.44-25.31-18.44-25.31l-5.58 110.68-115.85 8.58-15.88-36.89-103.38 40.75s-8.58-27.89 4.72-75.93 29.17-77.22 51.05-101.24 60.91-50.19 69.49-52.76c0 0 6.87-18 15-18.45s56.18-.43 56.18-.43z" fill="#fc6522"/>
        <path d="M119.69 145.05c.58 8 1.15 23.07.2 29.74a31.12 31.12 0 0 1-3 10.3s8.57 11.06 13.53 16.78 12.2 8.77 13.35 12.77a71.86 71.86 0 0 1 1.71 10.49s3.44-9.15 6.3-11.82 10.1-10.11 17.92-18.11 10.86-12.78 10.86-12.78a156.51 156.51 0 0 1-7.81-27.64 238.35 238.35 0 0 1-2.86-30.13z" fill="#e69b79"/>
        <path d="M75.65 45.62c2.57-3.52 15.73-1.71 25.6-3.28s12-3.29 22.16-5.29 23.45 1.71 29.32 7.29c0 0 8.86-.57 16 7.86 5.38 6.34 6.15 18.59 6.15 18.59a12.55 12.55 0 0 1 7 11c.14 8-4.86 23.74-4.86 23.74a54.81 54.81 0 0 1-5.7 11.47L108 108.68s-2-10.15-1.86-17.3 1.72-9.15 0-10.44-7.58.58-16.16-4.86-9.43-11.72-9.43-11.72-4.58-4.58-5.72-9.3-.32-7.86.82-9.44z" fill="#464646"/>
        <path d="M139.29 95.24s19.59-11.58 18.3-20.87-14.44-15.3-25.45-15.16-19.74 5.15-26.46 7.86-17.3 1.58-25.16-2.71c0 0 .85 6.29 9.43 11.72s14.44 3.58 16.16 4.86.14 3.29 0 10.44 1.86 17.3 1.86 17.3l17.77 2.32z" fill="#464646" opacity=".48"/>
        <path d="M112.45 83.85a56.51 56.51 0 0 0-4.38 31.46c2.66 17.73 7.81 29.74 16.2 36.8s21.55 7 30.51 2.48 14.49-17.55 15.63-21.36 1.53-4.76 1.53-4.76 11.05 3.24 17.15-6.87 3.44-20-3.05-21.92-12.77 6.86-12.77 6.86-3.38-14.16-9.27-23.88-14.87-14.3-26.59-13c-11.17 1.22-19.05 3.71-24.96 14.19z" fill="#ffb391"/>
        <g fill="none" stroke="#1c1c1c" stroke-linecap="round" stroke-linejoin="round" stroke-width=".86">
            <path d="M152.73 44.34c7 6.15 10.43 10.44 12.15 17.16 1.68 6.56.86 9.43.86 9.43"/>
            <path d="M174.89 70.79c-2.72-.28-13-.28-17.3 3.58"/>
            <path d="M77.08 49.2c11.59 4.72 28.17 1.57 39.18-2.43s25.74-3.58 34 2.72 12.15 16.15 12.15 22.3"/>
            <path d="M80.52 57.78c6 3.43 16.73 4.29 24.45.86s16-7.3 30.17-6.44 23 11.58 24.31 20.74"/>
            <path d="M88 70.93c9.15 4.29 18.45 5 24 1.15s16.45-8.87 26-7 10.29 5 10.29 5"/>
            <path d="M108.68 79.66c4-1.86 9.3-6.72 12.87-6.58"/>
        </g>
        <path d="M121.29 104.43c.18 1.46-.29 2.28-1.38 2.41s-1.73-.55-1.91-2 .29-2.28 1.38-2.41 1.73.57 1.91 2zm30.88-3.29c.18 1.47-.28 2.28-1.37 2.41s-1.73-.55-1.91-2 .29-2.28 1.38-2.41 1.73.53 1.9 2z"/>
        <path d="M132.42 100.53a53.68 53.68 0 0 1-3.86 12c-1.29 2.86-1 3.57 1.86 4.29a33.27 33.27 0 0 0 5.58.85" fill="none" stroke="#c5673d" stroke-linecap="round" stroke-linejoin="round" stroke-width=".86"/>
        <path d="M126.56 127.42c5.72.43 14 .71 21.3-3" fill="none" stroke="#df8258" stroke-linecap="round" stroke-linejoin="round" stroke-width="2.15"/>
        <path d="M173.27 106.54c-.1 8.44-.29 16.83-1.33 21.93m13.96-22.07a108.1 108.1 0 0 1-9.87 14" fill="none" stroke="#c5673d" stroke-linecap="round" stroke-linejoin="round" stroke-width=".86"/>
        <path d="M111 94.24c3.53-2.95 12.39-4.95 17.83-2.76m11.46-1.91c4.86-3.14 15.06-4.1 19.06-2.57" fill="none" stroke="#1c1c1c" stroke-linecap="round" stroke-linejoin="round" stroke-width="2.58"/>
        <path d="M158.2 128.11c-3.57-.56-5-3.5-4.17-8.73s3-7.62 6.62-7.06 5 3.5 4.17 8.73-3.05 7.61-6.62 7.06zM119.82 132.62c-3.46 1.06-6-1-7.56-6s-.58-8.18 2.88-9.24 6 1 7.56 6 .58 8.18-2.88 9.24z" fill="#f4a987" opacity=".56"/>
        <path d="M138.09 97.48c.88-3.3 7.06-3.71 11.63-4.19s11.63-.67 11.82 2.86.86 8.86-4.86 11.63-12.58 2.1-15.54-.48a10.36 10.36 0 0 1-3.05-9.82zm-32.6 3.24c.88-3.3 7.06-3.71 11.63-4.19s11.63-.67 11.82 2.86.86 8.87-4.86 11.63-12.58 2.1-15.54-.48a10.36 10.36 0 0 1-3.05-9.82z" fill="none" stroke="#fff" stroke-linecap="round" stroke-linejoin="round" stroke-width="2.58"/>
        <path d="M128.94 99.39a12.84 12.84 0 0 1 8.49-1" fill="none" stroke="#fff" stroke-linecap="round" stroke-linejoin="round" stroke-width="2.58"/>
        <path d="M161.54 96.15c6.11.09 15.74-1.14 18.59 4.38" fill="none" stroke="#fff" stroke-linejoin="round" stroke-width="2.58"/>
        <path d="M102.82 197.63a238.9 238.9 0 0 0-6.43 53.19c0 28.31 8.15 98.66 10.72 115.82l-19.73 4.72s-9.44-50.62-10.3-89.65 1.29-66.5 4.72-72.5 10.3-11.15 13.3-12 7.72.42 7.72.42z" fill="#4f4f4f"/>
        <path d="M218.22 304.44c4.43-17.73 5-25.17 6.43-33.74" fill="none" stroke="#1c1c1c" stroke-linecap="round" stroke-linejoin="round" stroke-width=".86"/>
        <path d="M-22.44 427.56A37 37 0 0 1-15 413.4a124.19 124.19 0 0 0 8.29-10s19.45-47.48 30.89-66.4 22-35.74 28.59-45.47S73.65 271.74 77 270.31c0 0 0 8.87.19 12.3 0 0 11.44-5.24 16.68-7.15s17.83-8.39 20.5-.38-2.48 11.82-2.48 11.82a11 11 0 0 1 4.67 6.1c1.24 4.2-2.29 9.53-2.29 9.53s3.53.1 3.43 5.34-4.48 9.54-4.48 9.54 3.34 2.67.29 8.67-16.68 13.82-21 22-25.84 72.83-42.42 93-33 21.55-50.72 13.16-21.81-26.68-21.81-26.68z" fill="#ffb391"/>
        <path d="M151.73 213.31s22.3 15.06 23.73 14.49 6-13.16 10.3-21.45 6.58-13.16 7.58-15.59m-90.52 6.87c2 11.29 11.16 32.46 12.59 32.46s17.15-13.16 21.44-14.3a29.49 29.49 0 0 1 6.87-1.15m1.71 10.49c-1.14 7.82 0 35-.57 43.56" fill="none" stroke="#1c1c1c" stroke-linecap="round" stroke-linejoin="round" stroke-width=".86"/>
    </g>
</svg>
